G04 start of page 2 for group 0 idx 0 *
G04 Title: (unknown), top *
G04 Creator: pcb 20140316 *
G04 CreationDate: Mon Oct 20 11:42:40 2014 UTC *
G04 For: clemi *
G04 Format: Gerber/RS-274X *
G04 PCB-Dimensions (mil): 1470.00 1065.00 *
G04 PCB-Coordinate-Origin: lower left *
%MOIN*%
%FSLAX25Y25*%
%LNTOP*%
%ADD33C,0.0130*%
%ADD32C,0.0130*%
%ADD31C,0.0197*%
%ADD30C,0.0827*%
%ADD29C,0.0118*%
%ADD28C,0.0240*%
%ADD27C,0.6900*%
%ADD26R,0.0098X0.0098*%
%ADD25R,0.0256X0.0256*%
%ADD24R,0.0295X0.0295*%
%ADD23R,0.0197X0.0197*%
%ADD22R,0.0354X0.0354*%
%ADD21R,0.1098X0.1098*%
%ADD20R,0.0197X0.0197*%
%ADD19R,0.0118X0.0118*%
%ADD18C,0.0276*%
%ADD17C,0.0198*%
%ADD16C,0.0354*%
%ADD15C,0.1575*%
%ADD14C,0.0250*%
%ADD13C,0.0100*%
%ADD12C,0.0060*%
%ADD11C,0.0001*%
G54D11*G36*
X87221Y92500D02*X124800D01*
Y72510D01*
X122729Y72509D01*
X122606Y72480D01*
X122490Y72432D01*
X122383Y72366D01*
X122287Y72284D01*
X122205Y72188D01*
X122139Y72081D01*
X122091Y71965D01*
X122062Y71842D01*
X122054Y71717D01*
X122056Y71183D01*
X121823Y71109D01*
X121427Y70945D01*
X121048Y70748D01*
X120687Y70518D01*
X120347Y70257D01*
X120032Y69968D01*
X119743Y69653D01*
X119482Y69313D01*
X119252Y68952D01*
X119055Y68573D01*
X118891Y68177D01*
X118762Y67769D01*
X118670Y67352D01*
X118614Y66927D01*
X118595Y66500D01*
X118600Y66434D01*
Y65369D01*
X118285Y65368D01*
X118132Y65331D01*
X117987Y65271D01*
X117852Y65189D01*
X117733Y65086D01*
X117630Y64967D01*
X117548Y64832D01*
X117488Y64687D01*
X117451Y64534D01*
X117442Y64377D01*
X117451Y61466D01*
X117484Y61328D01*
X117414Y61267D01*
X117311Y61148D01*
X117229Y61013D01*
X117169Y60868D01*
X117132Y60715D01*
X117123Y60558D01*
X117132Y58433D01*
X117169Y58280D01*
X117229Y58135D01*
X117311Y58000D01*
X117312Y58000D01*
X117311Y58000D01*
X117229Y57865D01*
X117169Y57720D01*
X117132Y57567D01*
X117123Y57410D01*
X117132Y55285D01*
X117169Y55132D01*
X117229Y54987D01*
X117311Y54852D01*
X117414Y54733D01*
X117484Y54672D01*
X117451Y54534D01*
X117442Y54377D01*
X117451Y51466D01*
X117488Y51313D01*
X117548Y51168D01*
X117583Y51111D01*
X117547Y51096D01*
X117414Y51055D01*
X117278Y51024D01*
X117139Y51006D01*
X117000Y51000D01*
X117000Y51000D01*
X114999D01*
X115110Y51180D01*
X115218Y51442D01*
X115284Y51717D01*
X115301Y52000D01*
X115299Y52027D01*
X116111Y52839D01*
X116138Y52862D01*
X116230Y52969D01*
X116304Y53090D01*
X116359Y53221D01*
X116392Y53359D01*
X116403Y53500D01*
X116400Y53535D01*
Y65465D01*
X116403Y65500D01*
X116392Y65641D01*
X116392Y65641D01*
X116359Y65779D01*
X116304Y65910D01*
X116230Y66031D01*
X116138Y66138D01*
X116111Y66161D01*
X114341Y67932D01*
X118063Y67937D01*
X118154Y67959D01*
X118242Y67995D01*
X118322Y68045D01*
X118394Y68106D01*
X118455Y68178D01*
X118505Y68258D01*
X118541Y68346D01*
X118563Y68437D01*
X118569Y68531D01*
X118563Y72563D01*
X118541Y72654D01*
X118505Y72742D01*
X118455Y72822D01*
X118394Y72894D01*
X118322Y72955D01*
X118249Y73000D01*
X118322Y73045D01*
X118394Y73106D01*
X118455Y73178D01*
X118505Y73258D01*
X118541Y73346D01*
X118563Y73437D01*
X118569Y73531D01*
X118563Y77563D01*
X118541Y77654D01*
X118505Y77742D01*
X118455Y77822D01*
X118394Y77894D01*
X118322Y77955D01*
X118249Y78000D01*
X118322Y78045D01*
X118394Y78106D01*
X118455Y78178D01*
X118505Y78258D01*
X118541Y78346D01*
X118563Y78437D01*
X118569Y78531D01*
X118563Y82563D01*
X118541Y82654D01*
X118505Y82742D01*
X118455Y82822D01*
X118394Y82894D01*
X118322Y82955D01*
X118249Y83000D01*
X118322Y83045D01*
X118394Y83106D01*
X118455Y83178D01*
X118505Y83258D01*
X118541Y83346D01*
X118563Y83437D01*
X118569Y83531D01*
X118563Y87563D01*
X118541Y87654D01*
X118505Y87742D01*
X118455Y87822D01*
X118394Y87894D01*
X118322Y87955D01*
X118242Y88005D01*
X118154Y88041D01*
X118063Y88063D01*
X117969Y88069D01*
X113937Y88063D01*
X113846Y88041D01*
X113758Y88005D01*
X113750Y88000D01*
X113742Y88005D01*
X113654Y88041D01*
X113563Y88063D01*
X113469Y88069D01*
X110209Y88064D01*
X109161Y89111D01*
X109138Y89138D01*
X109031Y89230D01*
X108984Y89259D01*
X108910Y89304D01*
X108779Y89359D01*
X108641Y89392D01*
X108500Y89403D01*
X108465Y89400D01*
X93535D01*
X93500Y89403D01*
X93359Y89392D01*
X93221Y89359D01*
X93090Y89304D01*
X92969Y89230D01*
X92969Y89230D01*
X92862Y89138D01*
X92839Y89112D01*
X92289Y88561D01*
X92262Y88538D01*
X92170Y88431D01*
X92096Y88310D01*
X92041Y88179D01*
X92008Y88041D01*
X92008Y88041D01*
X91997Y87900D01*
X92000Y87865D01*
Y76273D01*
X90127Y74400D01*
X88134D01*
X88123Y74427D01*
X88074Y74507D01*
X88012Y74579D01*
X87940Y74640D01*
X87860Y74690D01*
X87773Y74726D01*
X87681Y74748D01*
X87587Y74754D01*
X87221Y74753D01*
Y76314D01*
X87644Y76315D01*
X87723Y76223D01*
X87938Y76038D01*
X88180Y75890D01*
X88442Y75782D01*
X88717Y75716D01*
X89000Y75693D01*
X89283Y75716D01*
X89558Y75782D01*
X89820Y75890D01*
X90062Y76038D01*
X90277Y76223D01*
X90462Y76438D01*
X90610Y76680D01*
X90718Y76942D01*
X90784Y77217D01*
X90801Y77500D01*
X90784Y77783D01*
X90718Y78058D01*
X90610Y78320D01*
X90462Y78562D01*
X90277Y78777D01*
X90062Y78962D01*
X89820Y79110D01*
X89558Y79218D01*
X89283Y79284D01*
X89000Y79307D01*
X88717Y79284D01*
X88442Y79218D01*
X88180Y79110D01*
X87938Y78962D01*
X87723Y78777D01*
X87645Y78687D01*
X87587Y78691D01*
X87221Y78690D01*
Y92500D01*
G37*
G36*
X106496Y28600D02*X111127D01*
X111625Y28102D01*
X111632Y26433D01*
X111669Y26280D01*
X111729Y26135D01*
X111811Y26000D01*
X111812Y26000D01*
X111811Y26000D01*
X111729Y25865D01*
X111669Y25720D01*
X111632Y25567D01*
X111623Y25410D01*
X111632Y23452D01*
X111577Y23429D01*
X111442Y23347D01*
X111323Y23244D01*
X111220Y23125D01*
X111138Y22990D01*
X111078Y22845D01*
X111041Y22692D01*
X111032Y22535D01*
X111041Y19426D01*
X111078Y19273D01*
X111138Y19128D01*
X111220Y18993D01*
X111323Y18874D01*
X111442Y18771D01*
X111577Y18689D01*
X111722Y18629D01*
X111875Y18592D01*
X112032Y18583D01*
X116125Y18592D01*
X116278Y18629D01*
X116423Y18689D01*
X116500Y18736D01*
X116577Y18689D01*
X116722Y18629D01*
X116875Y18592D01*
X117032Y18583D01*
X121125Y18592D01*
X121278Y18629D01*
X121423Y18689D01*
X121558Y18771D01*
X121677Y18874D01*
X121780Y18993D01*
X121862Y19128D01*
X121922Y19273D01*
X121959Y19426D01*
X121968Y19583D01*
X121959Y22692D01*
X121922Y22845D01*
X121862Y22990D01*
X121780Y23125D01*
X121677Y23244D01*
X121558Y23347D01*
X121423Y23429D01*
X121377Y23448D01*
X121368Y25567D01*
X121331Y25720D01*
X121271Y25865D01*
X121189Y26000D01*
X121188Y26000D01*
X121189Y26000D01*
X121271Y26135D01*
X121331Y26280D01*
X121368Y26433D01*
X121377Y26590D01*
X121368Y28715D01*
X121331Y28868D01*
X121271Y29013D01*
X121189Y29148D01*
X121086Y29267D01*
X120967Y29370D01*
X120832Y29452D01*
X120687Y29512D01*
X120534Y29549D01*
X120377Y29558D01*
X117466Y29549D01*
X117313Y29512D01*
X117276Y29497D01*
X115161Y31611D01*
X115138Y31638D01*
X115031Y31730D01*
X114910Y31804D01*
X114779Y31859D01*
X114641Y31892D01*
X114641Y31892D01*
X114500Y31903D01*
X114465Y31900D01*
X107405D01*
X107454Y31979D01*
X107490Y32066D01*
X107512Y32158D01*
X107517Y32252D01*
X107512Y34905D01*
X107490Y34997D01*
X107454Y35084D01*
X107404Y35165D01*
X107343Y35237D01*
X107271Y35298D01*
X107191Y35347D01*
X107103Y35383D01*
X107011Y35405D01*
X106917Y35411D01*
X106496Y35410D01*
Y39600D01*
X108127D01*
X108609Y39118D01*
X108596Y39102D01*
X108546Y39021D01*
X108510Y38934D01*
X108488Y38842D01*
X108483Y38748D01*
X108488Y36095D01*
X108510Y36003D01*
X108546Y35916D01*
X108596Y35835D01*
X108657Y35763D01*
X108729Y35702D01*
X108809Y35653D01*
X108897Y35617D01*
X108989Y35595D01*
X109083Y35589D01*
X112130Y35595D01*
X112221Y35617D01*
X112309Y35653D01*
X112389Y35702D01*
X112461Y35763D01*
X112522Y35835D01*
X112572Y35916D01*
X112608Y36003D01*
X112630Y36095D01*
X112635Y36189D01*
X112630Y38842D01*
X112608Y38934D01*
X112572Y39021D01*
X112522Y39102D01*
X112461Y39174D01*
X112389Y39235D01*
X112309Y39284D01*
X112221Y39320D01*
X112130Y39342D01*
X112035Y39348D01*
X110927Y39346D01*
X109161Y41111D01*
X109138Y41138D01*
X109031Y41230D01*
X108984Y41259D01*
X108910Y41304D01*
X108779Y41359D01*
X108641Y41392D01*
X108500Y41403D01*
X108465Y41400D01*
X106496D01*
Y42785D01*
X106616Y42683D01*
X106817Y42559D01*
X107035Y42469D01*
X107265Y42414D01*
X107500Y42400D01*
X109889D01*
X112627Y39723D01*
X112632Y38433D01*
X112669Y38280D01*
X112729Y38135D01*
X112811Y38000D01*
X112914Y37881D01*
X113033Y37778D01*
X113168Y37696D01*
X113313Y37636D01*
X113466Y37599D01*
X113623Y37590D01*
X115782Y37597D01*
X116707Y36672D01*
X116693Y36500D01*
X116716Y36217D01*
X116782Y35942D01*
X116890Y35680D01*
X117038Y35438D01*
X117223Y35223D01*
X117438Y35038D01*
X117680Y34890D01*
X117942Y34782D01*
X118217Y34716D01*
X118500Y34693D01*
X118783Y34716D01*
X119058Y34782D01*
X119320Y34890D01*
X119562Y35038D01*
X119777Y35223D01*
X119962Y35438D01*
X120110Y35680D01*
X120218Y35942D01*
X120284Y36217D01*
X120301Y36500D01*
X120284Y36783D01*
X120218Y37058D01*
X120110Y37320D01*
X119962Y37562D01*
X119797Y37755D01*
X119717Y37884D01*
X119564Y38064D01*
X119519Y38102D01*
X119267Y38354D01*
X119442Y38282D01*
X119717Y38216D01*
X120000Y38193D01*
X120283Y38216D01*
X120558Y38282D01*
X120820Y38390D01*
X121062Y38538D01*
X121277Y38723D01*
X121462Y38938D01*
X121610Y39180D01*
X121718Y39442D01*
X121784Y39717D01*
X121801Y40000D01*
X121784Y40283D01*
X121718Y40558D01*
X121610Y40820D01*
X121462Y41062D01*
X121369Y41170D01*
X121513Y41229D01*
X121648Y41311D01*
X121767Y41414D01*
X121870Y41533D01*
X121952Y41668D01*
X122012Y41813D01*
X122049Y41966D01*
X122058Y42123D01*
X122049Y45034D01*
X122012Y45187D01*
X121952Y45332D01*
X121870Y45467D01*
X121841Y45500D01*
X121870Y45533D01*
X121952Y45668D01*
X122012Y45813D01*
X122049Y45966D01*
X122058Y46123D01*
X122049Y49034D01*
X122012Y49187D01*
X121952Y49332D01*
X121870Y49467D01*
X121767Y49586D01*
X121648Y49689D01*
X121513Y49771D01*
X121368Y49831D01*
X121215Y49868D01*
X121058Y49877D01*
X119025Y49868D01*
X119188Y49993D01*
X119406Y50194D01*
X119607Y50412D01*
X119773Y50629D01*
X120567Y50632D01*
X120720Y50669D01*
X120865Y50729D01*
X121000Y50811D01*
X121119Y50914D01*
X121222Y51033D01*
X121304Y51168D01*
X121364Y51313D01*
X121401Y51466D01*
X121410Y51623D01*
X121401Y54534D01*
X121389Y54583D01*
X121467Y54630D01*
X121586Y54733D01*
X121689Y54852D01*
X121771Y54987D01*
X121831Y55132D01*
X121868Y55285D01*
X121877Y55442D01*
X121868Y57567D01*
X121831Y57720D01*
X121771Y57865D01*
X121689Y58000D01*
X121688Y58000D01*
X121689Y58000D01*
X121771Y58135D01*
X121831Y58280D01*
X121868Y58433D01*
X121877Y58590D01*
X121868Y60715D01*
X121831Y60868D01*
X121771Y61013D01*
X121689Y61148D01*
X121586Y61267D01*
X121467Y61370D01*
X121389Y61417D01*
X121401Y61466D01*
X121410Y61623D01*
X121401Y64534D01*
X121364Y64687D01*
X121304Y64832D01*
X121222Y64967D01*
X121119Y65086D01*
X121000Y65189D01*
X120865Y65271D01*
X120720Y65331D01*
X120567Y65368D01*
X120410Y65377D01*
X120400Y65377D01*
Y66450D01*
X120403Y66500D01*
X120412Y66770D01*
X120447Y67038D01*
X120506Y67302D01*
X120587Y67560D01*
X120690Y67810D01*
X120815Y68050D01*
X120961Y68278D01*
X121125Y68493D01*
X121308Y68692D01*
X121507Y68875D01*
X121722Y69039D01*
X121950Y69185D01*
X122186Y69308D01*
X122205Y69276D01*
X122287Y69181D01*
X122383Y69099D01*
X122490Y69033D01*
X122606Y68985D01*
X122729Y68955D01*
X122854Y68948D01*
X124800Y68949D01*
Y13600D01*
X106496D01*
Y16121D01*
X106500Y16121D01*
X106872Y16150D01*
X107235Y16237D01*
X107580Y16380D01*
X107898Y16575D01*
X108182Y16818D01*
X108425Y17102D01*
X108620Y17420D01*
X108763Y17765D01*
X108850Y18128D01*
X108872Y18500D01*
X108850Y18872D01*
X108763Y19235D01*
X108620Y19580D01*
X108425Y19898D01*
X108182Y20182D01*
X107898Y20425D01*
X107580Y20620D01*
X107235Y20763D01*
X106872Y20850D01*
X106500Y20879D01*
X106496Y20879D01*
Y21121D01*
X106500Y21121D01*
X106872Y21150D01*
X107235Y21237D01*
X107580Y21380D01*
X107898Y21575D01*
X108182Y21818D01*
X108425Y22102D01*
X108620Y22420D01*
X108763Y22765D01*
X108850Y23128D01*
X108872Y23500D01*
X108850Y23872D01*
X108763Y24235D01*
X108620Y24580D01*
X108425Y24898D01*
X108182Y25182D01*
X107898Y25425D01*
X107580Y25620D01*
X107235Y25763D01*
X106872Y25850D01*
X106500Y25879D01*
X106496Y25879D01*
Y28600D01*
G37*
G36*
Y41400D02*X105176D01*
X105174Y42821D01*
X106451Y42824D01*
X106496Y42785D01*
Y41400D01*
G37*
G36*
Y35410D02*X103870Y35405D01*
X103868Y35405D01*
X103400Y35873D01*
Y39211D01*
X103409Y39207D01*
X103500Y39185D01*
X103594Y39180D01*
X104673Y39185D01*
X104765Y39207D01*
X104852Y39243D01*
X104932Y39293D01*
X105004Y39354D01*
X105066Y39426D01*
X105115Y39506D01*
X105151Y39594D01*
X105153Y39600D01*
X106496D01*
Y35410D01*
G37*
G36*
X101496Y29231D02*X101839Y28888D01*
X101862Y28862D01*
X101969Y28770D01*
X101969Y28770D01*
X102090Y28696D01*
X102221Y28641D01*
X102359Y28608D01*
X102500Y28597D01*
X102535Y28600D01*
X106496D01*
Y25879D01*
X106128Y25850D01*
X105765Y25763D01*
X105420Y25620D01*
X105102Y25425D01*
X104818Y25182D01*
X104575Y24898D01*
X104380Y24580D01*
X104237Y24235D01*
X104150Y23872D01*
X104121Y23500D01*
X104150Y23128D01*
X104237Y22765D01*
X104380Y22420D01*
X104575Y22102D01*
X104818Y21818D01*
X105102Y21575D01*
X105420Y21380D01*
X105765Y21237D01*
X106128Y21150D01*
X106496Y21121D01*
Y20879D01*
X106128Y20850D01*
X105765Y20763D01*
X105420Y20620D01*
X105102Y20425D01*
X104818Y20182D01*
X104575Y19898D01*
X104380Y19580D01*
X104237Y19235D01*
X104150Y18872D01*
X104121Y18500D01*
X104150Y18128D01*
X104237Y17765D01*
X104380Y17420D01*
X104575Y17102D01*
X104818Y16818D01*
X105102Y16575D01*
X105420Y16380D01*
X105765Y16237D01*
X106128Y16150D01*
X106496Y16121D01*
Y13600D01*
X101496D01*
Y16121D01*
X101500Y16121D01*
X101872Y16150D01*
X102235Y16237D01*
X102580Y16380D01*
X102898Y16575D01*
X103182Y16818D01*
X103425Y17102D01*
X103620Y17420D01*
X103763Y17765D01*
X103850Y18128D01*
X103872Y18500D01*
X103850Y18872D01*
X103763Y19235D01*
X103620Y19580D01*
X103425Y19898D01*
X103182Y20182D01*
X102898Y20425D01*
X102580Y20620D01*
X102235Y20763D01*
X101872Y20850D01*
X101500Y20879D01*
X101496Y20879D01*
Y21121D01*
X101500Y21121D01*
X101872Y21150D01*
X102235Y21237D01*
X102580Y21380D01*
X102898Y21575D01*
X103182Y21818D01*
X103425Y22102D01*
X103620Y22420D01*
X103763Y22765D01*
X103850Y23128D01*
X103872Y23500D01*
X103850Y23872D01*
X103763Y24235D01*
X103620Y24580D01*
X103425Y24898D01*
X103182Y25182D01*
X102898Y25425D01*
X102580Y25620D01*
X102235Y25763D01*
X101872Y25850D01*
X101500Y25879D01*
X101496Y25879D01*
Y29231D01*
G37*
G36*
X96496Y21121D02*X96500Y21121D01*
X96872Y21150D01*
X97235Y21237D01*
X97580Y21380D01*
X97898Y21575D01*
X98182Y21818D01*
X98425Y22102D01*
X98620Y22420D01*
X98763Y22765D01*
X98850Y23128D01*
X98872Y23500D01*
X98850Y23872D01*
X98763Y24235D01*
X98620Y24580D01*
X98425Y24898D01*
X98182Y25182D01*
X97898Y25425D01*
X97580Y25620D01*
X97235Y25763D01*
X96872Y25850D01*
X96500Y25879D01*
X96496Y25879D01*
Y27224D01*
X98611Y29339D01*
X98638Y29362D01*
X98730Y29469D01*
X98804Y29590D01*
X98859Y29721D01*
X98892Y29859D01*
X98903Y30000D01*
X98900Y30035D01*
Y33827D01*
X100100Y32627D01*
Y31035D01*
X100097Y31000D01*
X100108Y30859D01*
X100141Y30721D01*
X100196Y30590D01*
X100270Y30469D01*
X100270Y30469D01*
X100362Y30362D01*
X100388Y30339D01*
X101496Y29231D01*
Y25879D01*
X101128Y25850D01*
X100765Y25763D01*
X100420Y25620D01*
X100102Y25425D01*
X99818Y25182D01*
X99575Y24898D01*
X99380Y24580D01*
X99237Y24235D01*
X99150Y23872D01*
X99121Y23500D01*
X99150Y23128D01*
X99237Y22765D01*
X99380Y22420D01*
X99575Y22102D01*
X99818Y21818D01*
X100102Y21575D01*
X100420Y21380D01*
X100765Y21237D01*
X101128Y21150D01*
X101496Y21121D01*
Y20879D01*
X101128Y20850D01*
X100765Y20763D01*
X100420Y20620D01*
X100102Y20425D01*
X99818Y20182D01*
X99575Y19898D01*
X99380Y19580D01*
X99237Y19235D01*
X99150Y18872D01*
X99121Y18500D01*
X99150Y18128D01*
X99237Y17765D01*
X99380Y17420D01*
X99575Y17102D01*
X99818Y16818D01*
X100102Y16575D01*
X100420Y16380D01*
X100765Y16237D01*
X101128Y16150D01*
X101496Y16121D01*
Y13600D01*
X96496D01*
Y16121D01*
X96500Y16121D01*
X96872Y16150D01*
X97235Y16237D01*
X97580Y16380D01*
X97898Y16575D01*
X98182Y16818D01*
X98425Y17102D01*
X98620Y17420D01*
X98763Y17765D01*
X98850Y18128D01*
X98872Y18500D01*
X98850Y18872D01*
X98763Y19235D01*
X98620Y19580D01*
X98425Y19898D01*
X98182Y20182D01*
X97898Y20425D01*
X97580Y20620D01*
X97235Y20763D01*
X96872Y20850D01*
X96500Y20879D01*
X96496Y20879D01*
Y21121D01*
G37*
G36*
Y25879D02*X96128Y25850D01*
X95765Y25763D01*
X95420Y25620D01*
X95102Y25425D01*
X94900Y25252D01*
Y25627D01*
X96496Y27224D01*
Y25879D01*
G37*
G36*
X87221Y30225D02*X87223Y30223D01*
X87438Y30038D01*
X87680Y29890D01*
X87942Y29782D01*
X88217Y29716D01*
X88500Y29693D01*
X88783Y29716D01*
X89058Y29782D01*
X89320Y29890D01*
X89562Y30038D01*
X89777Y30223D01*
X89962Y30438D01*
X90110Y30680D01*
X90218Y30942D01*
X90284Y31217D01*
X90301Y31500D01*
X90284Y31783D01*
X90240Y31967D01*
X91111Y32839D01*
X91138Y32862D01*
X91230Y32969D01*
X91304Y33090D01*
X91322Y33134D01*
X91466Y33099D01*
X91623Y33090D01*
X94534Y33099D01*
X94687Y33136D01*
X94832Y33196D01*
X94967Y33278D01*
X95086Y33381D01*
X95189Y33500D01*
X95271Y33635D01*
X95331Y33780D01*
X95368Y33933D01*
X95377Y34090D01*
X95368Y36215D01*
X95331Y36368D01*
X95321Y36391D01*
X95562Y36538D01*
X95600Y36571D01*
Y31873D01*
X90889Y27161D01*
X90862Y27138D01*
X90770Y27031D01*
X90696Y26910D01*
X90641Y26779D01*
X90608Y26641D01*
X90608Y26641D01*
X90597Y26500D01*
X90600Y26465D01*
Y25694D01*
X90420Y25620D01*
X90102Y25425D01*
X89818Y25182D01*
X89575Y24898D01*
X89380Y24580D01*
X89237Y24235D01*
X89150Y23872D01*
X89121Y23500D01*
X89150Y23128D01*
X89237Y22765D01*
X89380Y22420D01*
X89575Y22102D01*
X89818Y21818D01*
X90102Y21575D01*
X90420Y21380D01*
X90765Y21237D01*
X91128Y21150D01*
X91500Y21121D01*
X91872Y21150D01*
X92235Y21237D01*
X92580Y21380D01*
X92898Y21575D01*
X93100Y21748D01*
Y21373D01*
X92415Y20688D01*
X92235Y20763D01*
X91872Y20850D01*
X91500Y20879D01*
X91128Y20850D01*
X90765Y20763D01*
X90420Y20620D01*
X90102Y20425D01*
X89818Y20182D01*
X89575Y19898D01*
X89380Y19580D01*
X89237Y19235D01*
X89150Y18872D01*
X89121Y18500D01*
X89150Y18128D01*
X89237Y17765D01*
X89380Y17420D01*
X89575Y17102D01*
X89818Y16818D01*
X90102Y16575D01*
X90420Y16380D01*
X90765Y16237D01*
X91128Y16150D01*
X91500Y16121D01*
X91872Y16150D01*
X92235Y16237D01*
X92580Y16380D01*
X92898Y16575D01*
X93182Y16818D01*
X93425Y17102D01*
X93620Y17420D01*
X93763Y17765D01*
X93850Y18128D01*
X93872Y18500D01*
X93850Y18872D01*
X93763Y19235D01*
X93688Y19415D01*
X94611Y20339D01*
X94638Y20362D01*
X94730Y20469D01*
X94804Y20590D01*
X94859Y20721D01*
X94892Y20859D01*
X94903Y21000D01*
X94900Y21035D01*
Y21748D01*
X95102Y21575D01*
X95420Y21380D01*
X95765Y21237D01*
X96128Y21150D01*
X96496Y21121D01*
Y20879D01*
X96128Y20850D01*
X95765Y20763D01*
X95420Y20620D01*
X95102Y20425D01*
X94818Y20182D01*
X94575Y19898D01*
X94380Y19580D01*
X94237Y19235D01*
X94150Y18872D01*
X94121Y18500D01*
X94150Y18128D01*
X94237Y17765D01*
X94380Y17420D01*
X94575Y17102D01*
X94818Y16818D01*
X95102Y16575D01*
X95420Y16380D01*
X95765Y16237D01*
X96128Y16150D01*
X96496Y16121D01*
Y13600D01*
X87221D01*
Y16234D01*
X87235Y16237D01*
X87580Y16380D01*
X87898Y16575D01*
X88182Y16818D01*
X88425Y17102D01*
X88620Y17420D01*
X88763Y17765D01*
X88850Y18128D01*
X88872Y18500D01*
X88850Y18872D01*
X88763Y19235D01*
X88620Y19580D01*
X88425Y19898D01*
X88182Y20182D01*
X87898Y20425D01*
X87580Y20620D01*
X87235Y20763D01*
X87221Y20766D01*
Y21234D01*
X87235Y21237D01*
X87580Y21380D01*
X87898Y21575D01*
X88182Y21818D01*
X88425Y22102D01*
X88620Y22420D01*
X88763Y22765D01*
X88850Y23128D01*
X88872Y23500D01*
X88850Y23872D01*
X88763Y24235D01*
X88620Y24580D01*
X88425Y24898D01*
X88182Y25182D01*
X87898Y25425D01*
X87580Y25620D01*
X87235Y25763D01*
X87221Y25766D01*
Y30225D01*
G37*
G36*
Y40952D02*X87284Y41217D01*
X87301Y41500D01*
X87284Y41783D01*
X87221Y42048D01*
Y42824D01*
X88821Y42826D01*
X88823Y41843D01*
X88817Y41841D01*
X88616Y41717D01*
X88615Y41717D01*
X88436Y41564D01*
X88398Y41519D01*
X87221Y40342D01*
Y40952D01*
G37*
G36*
Y50682D02*X87246Y50698D01*
X89023Y50701D01*
X89115Y50723D01*
X89202Y50759D01*
X89283Y50808D01*
X89355Y50870D01*
X89416Y50942D01*
X89465Y51022D01*
X89502Y51109D01*
X89524Y51201D01*
X89529Y51295D01*
X89524Y52374D01*
X89502Y52466D01*
X89465Y52553D01*
X89452Y52575D01*
X89465Y52597D01*
X89502Y52684D01*
X89524Y52776D01*
X89529Y52870D01*
X89524Y53948D01*
X89502Y54040D01*
X89465Y54128D01*
X89452Y54150D01*
X89465Y54172D01*
X89502Y54259D01*
X89524Y54351D01*
X89529Y54445D01*
X89524Y55523D01*
X89502Y55615D01*
X89465Y55702D01*
X89452Y55724D01*
X89465Y55746D01*
X89502Y55834D01*
X89524Y55926D01*
X89529Y56020D01*
X89524Y57098D01*
X89502Y57190D01*
X89465Y57277D01*
X89452Y57299D01*
X89465Y57321D01*
X89502Y57409D01*
X89524Y57500D01*
X89529Y57594D01*
X89525Y58471D01*
X90500Y58476D01*
X90591Y58498D01*
X90679Y58535D01*
X90701Y58548D01*
X90723Y58535D01*
X90810Y58498D01*
X90902Y58476D01*
X90996Y58471D01*
X92074Y58476D01*
X92166Y58498D01*
X92254Y58535D01*
X92276Y58548D01*
X92298Y58535D01*
X92385Y58498D01*
X92477Y58476D01*
X92571Y58471D01*
X93649Y58476D01*
X93741Y58498D01*
X93828Y58535D01*
X93850Y58548D01*
X93872Y58535D01*
X93960Y58498D01*
X94052Y58476D01*
X94146Y58471D01*
X95224Y58476D01*
X95316Y58498D01*
X95403Y58535D01*
X95425Y58548D01*
X95447Y58535D01*
X95534Y58498D01*
X95626Y58476D01*
X95720Y58471D01*
X96799Y58476D01*
X96891Y58498D01*
X96978Y58535D01*
X97000Y58548D01*
X97022Y58535D01*
X97109Y58498D01*
X97201Y58476D01*
X97295Y58471D01*
X98374Y58476D01*
X98466Y58498D01*
X98553Y58535D01*
X98575Y58548D01*
X98597Y58535D01*
X98684Y58498D01*
X98776Y58476D01*
X98870Y58471D01*
X99948Y58476D01*
X100040Y58498D01*
X100128Y58535D01*
X100150Y58548D01*
X100172Y58535D01*
X100259Y58498D01*
X100351Y58476D01*
X100445Y58471D01*
X101523Y58476D01*
X101615Y58498D01*
X101702Y58535D01*
X101724Y58548D01*
X101746Y58535D01*
X101834Y58498D01*
X101926Y58476D01*
X102020Y58471D01*
X103098Y58476D01*
X103190Y58498D01*
X103277Y58535D01*
X103299Y58548D01*
X103321Y58535D01*
X103409Y58498D01*
X103500Y58476D01*
X103594Y58471D01*
X104471Y58475D01*
X104476Y57500D01*
X104498Y57409D01*
X104535Y57321D01*
X104548Y57299D01*
X104535Y57277D01*
X104498Y57190D01*
X104476Y57098D01*
X104471Y57004D01*
X104476Y55926D01*
X104498Y55834D01*
X104535Y55746D01*
X104548Y55724D01*
X104535Y55702D01*
X104498Y55615D01*
X104476Y55523D01*
X104471Y55429D01*
X104476Y54351D01*
X104498Y54259D01*
X104535Y54172D01*
X104548Y54150D01*
X104535Y54128D01*
X104498Y54040D01*
X104476Y53948D01*
X104471Y53854D01*
X104476Y52776D01*
X104498Y52684D01*
X104535Y52597D01*
X104548Y52575D01*
X104535Y52553D01*
X104498Y52466D01*
X104476Y52374D01*
X104471Y52280D01*
X104476Y51201D01*
X104498Y51109D01*
X104535Y51022D01*
X104548Y51000D01*
X104535Y50978D01*
X104498Y50891D01*
X104476Y50799D01*
X104471Y50705D01*
X104476Y49626D01*
X104498Y49534D01*
X104535Y49447D01*
X104584Y49367D01*
X104645Y49295D01*
X104717Y49234D01*
X104798Y49184D01*
X104885Y49148D01*
X104977Y49126D01*
X105071Y49120D01*
X108315Y49126D01*
X108406Y49148D01*
X108494Y49184D01*
X108519Y49200D01*
X110656D01*
X110538Y49062D01*
X110439Y48900D01*
X109035D01*
X109000Y48903D01*
X108859Y48892D01*
X108721Y48859D01*
X108590Y48804D01*
X108469Y48730D01*
X108469Y48730D01*
X108362Y48638D01*
X108339Y48612D01*
X107882Y48155D01*
X104977Y48150D01*
X104885Y48128D01*
X104798Y48091D01*
X104717Y48042D01*
X104645Y47981D01*
X104584Y47909D01*
X104535Y47828D01*
X104498Y47741D01*
X104476Y47649D01*
X104471Y47555D01*
X104476Y46477D01*
X104498Y46385D01*
X104535Y46298D01*
X104548Y46276D01*
X104535Y46254D01*
X104498Y46166D01*
X104476Y46074D01*
X104471Y45980D01*
X104476Y44902D01*
X104498Y44810D01*
X104535Y44723D01*
X104548Y44701D01*
X104535Y44679D01*
X104498Y44591D01*
X104476Y44500D01*
X104471Y44406D01*
X104475Y43529D01*
X103500Y43524D01*
X103409Y43502D01*
X103321Y43465D01*
X103299Y43452D01*
X103277Y43465D01*
X103190Y43502D01*
X103098Y43524D01*
X103004Y43529D01*
X101926Y43524D01*
X101834Y43502D01*
X101746Y43465D01*
X101724Y43452D01*
X101702Y43465D01*
X101615Y43502D01*
X101523Y43524D01*
X101429Y43529D01*
X100351Y43524D01*
X100259Y43502D01*
X100172Y43465D01*
X100150Y43452D01*
X100128Y43465D01*
X100040Y43502D01*
X99948Y43524D01*
X99854Y43529D01*
X98776Y43524D01*
X98684Y43502D01*
X98597Y43465D01*
X98575Y43452D01*
X98553Y43465D01*
X98466Y43502D01*
X98374Y43524D01*
X98280Y43529D01*
X97201Y43524D01*
X97109Y43502D01*
X97022Y43465D01*
X97000Y43452D01*
X96978Y43465D01*
X96891Y43502D01*
X96799Y43524D01*
X96705Y43529D01*
X95626Y43524D01*
X95534Y43502D01*
X95447Y43465D01*
X95425Y43452D01*
X95403Y43465D01*
X95316Y43502D01*
X95224Y43524D01*
X95130Y43529D01*
X94052Y43524D01*
X93960Y43502D01*
X93872Y43465D01*
X93850Y43452D01*
X93828Y43465D01*
X93741Y43502D01*
X93649Y43524D01*
X93555Y43529D01*
X92477Y43524D01*
X92385Y43502D01*
X92298Y43465D01*
X92276Y43452D01*
X92254Y43465D01*
X92166Y43502D01*
X92074Y43524D01*
X91980Y43529D01*
X90902Y43524D01*
X90810Y43502D01*
X90723Y43465D01*
X90701Y43452D01*
X90679Y43465D01*
X90591Y43502D01*
X90500Y43524D01*
X90406Y43529D01*
X89529Y43525D01*
X89524Y44500D01*
X89502Y44591D01*
X89465Y44679D01*
X89452Y44701D01*
X89465Y44723D01*
X89502Y44810D01*
X89524Y44902D01*
X89529Y44996D01*
X89524Y46074D01*
X89502Y46166D01*
X89465Y46254D01*
X89452Y46276D01*
X89465Y46298D01*
X89502Y46385D01*
X89524Y46477D01*
X89529Y46571D01*
X89524Y47649D01*
X89502Y47741D01*
X89465Y47828D01*
X89416Y47909D01*
X89355Y47981D01*
X89283Y48042D01*
X89202Y48091D01*
X89115Y48128D01*
X89023Y48150D01*
X88929Y48155D01*
X87221Y48152D01*
Y50682D01*
G37*
G36*
Y42048D02*X87218Y42058D01*
X87110Y42320D01*
X86962Y42562D01*
X86777Y42777D01*
X86724Y42823D01*
X87221Y42824D01*
Y42048D01*
G37*
G36*
X52786Y93114D02*X53400Y92500D01*
X87221D01*
Y78690D01*
X84146Y78685D01*
X84054Y78663D01*
X83967Y78627D01*
X83886Y78577D01*
X83815Y78516D01*
X83753Y78444D01*
X83704Y78364D01*
X83668Y78277D01*
X83646Y78185D01*
X83640Y78091D01*
X83646Y76815D01*
X83668Y76723D01*
X83704Y76636D01*
X83753Y76556D01*
X83815Y76484D01*
X83886Y76423D01*
X83967Y76373D01*
X84054Y76337D01*
X84146Y76315D01*
X84240Y76309D01*
X87221Y76314D01*
Y74753D01*
X84146Y74748D01*
X84054Y74726D01*
X83967Y74690D01*
X83886Y74640D01*
X83815Y74579D01*
X83753Y74507D01*
X83704Y74427D01*
X83668Y74340D01*
X83646Y74248D01*
X83643Y74195D01*
X83631Y74241D01*
X83595Y74328D01*
X83546Y74409D01*
X83485Y74481D01*
X83413Y74542D01*
X83332Y74591D01*
X83245Y74628D01*
X83153Y74650D01*
X83059Y74655D01*
X81784Y74650D01*
X81692Y74628D01*
X81605Y74591D01*
X81524Y74542D01*
X81484Y74508D01*
X81444Y74542D01*
X81364Y74591D01*
X81277Y74628D01*
X81185Y74650D01*
X81091Y74655D01*
X79815Y74650D01*
X79723Y74628D01*
X79636Y74591D01*
X79556Y74542D01*
X79516Y74508D01*
X79476Y74542D01*
X79395Y74591D01*
X79308Y74628D01*
X79216Y74650D01*
X79122Y74655D01*
X77847Y74650D01*
X77755Y74628D01*
X77668Y74591D01*
X77587Y74542D01*
X77515Y74481D01*
X77454Y74409D01*
X77405Y74328D01*
X77369Y74241D01*
X77355Y74183D01*
X77354Y74248D01*
X77332Y74340D01*
X77296Y74427D01*
X77247Y74507D01*
X77213Y74547D01*
X77247Y74587D01*
X77296Y74668D01*
X77332Y74755D01*
X77354Y74847D01*
X77360Y74941D01*
X77354Y76216D01*
X77332Y76308D01*
X77296Y76395D01*
X77247Y76476D01*
X77185Y76548D01*
X77114Y76609D01*
X77033Y76658D01*
X76946Y76694D01*
X76854Y76716D01*
X76760Y76722D01*
X73319Y76716D01*
X73227Y76694D01*
X73140Y76658D01*
X73060Y76609D01*
X72988Y76548D01*
X72926Y76476D01*
X72877Y76395D01*
X72841Y76308D01*
X72819Y76216D01*
X72813Y76122D01*
X72814Y76086D01*
X71589Y74861D01*
X71562Y74838D01*
X71500Y74766D01*
Y79724D01*
X71513Y79729D01*
X71648Y79811D01*
X71767Y79914D01*
X71841Y80000D01*
X72814D01*
X72819Y78784D01*
X72841Y78692D01*
X72877Y78605D01*
X72926Y78524D01*
X72988Y78452D01*
X73060Y78391D01*
X73140Y78342D01*
X73227Y78306D01*
X73319Y78284D01*
X73413Y78278D01*
X76854Y78284D01*
X76946Y78306D01*
X77033Y78342D01*
X77114Y78391D01*
X77185Y78452D01*
X77247Y78524D01*
X77296Y78605D01*
X77332Y78692D01*
X77354Y78784D01*
X77360Y78878D01*
X77354Y80153D01*
X77332Y80245D01*
X77296Y80332D01*
X77247Y80413D01*
X77213Y80453D01*
X77247Y80493D01*
X77296Y80573D01*
X77332Y80660D01*
X77354Y80752D01*
X77360Y80846D01*
X77354Y82122D01*
X77332Y82214D01*
X77296Y82301D01*
X77247Y82381D01*
X77185Y82453D01*
X77114Y82514D01*
X77033Y82564D01*
X76946Y82600D01*
X76854Y82622D01*
X76760Y82628D01*
X75392Y82625D01*
X75284Y82717D01*
X75083Y82841D01*
X74865Y82931D01*
X74635Y82986D01*
X74400Y83000D01*
X72050D01*
X72049Y83534D01*
X72012Y83687D01*
X71952Y83832D01*
X71870Y83967D01*
X71767Y84086D01*
X71735Y84114D01*
X72221Y84600D01*
X77366D01*
X77438Y84538D01*
X77680Y84390D01*
X77942Y84282D01*
X78217Y84216D01*
X78500Y84193D01*
X78783Y84216D01*
X79058Y84282D01*
X79316Y84389D01*
X79315Y84385D01*
X79309Y84291D01*
X79315Y80851D01*
X79337Y80759D01*
X79373Y80672D01*
X79423Y80591D01*
X79484Y80519D01*
X79556Y80458D01*
X79636Y80409D01*
X79723Y80372D01*
X79815Y80350D01*
X79909Y80345D01*
X81185Y80350D01*
X81277Y80372D01*
X81364Y80409D01*
X81444Y80458D01*
X81484Y80492D01*
X81524Y80458D01*
X81605Y80409D01*
X81692Y80372D01*
X81784Y80350D01*
X81878Y80345D01*
X83153Y80350D01*
X83245Y80372D01*
X83332Y80409D01*
X83413Y80458D01*
X83485Y80519D01*
X83546Y80591D01*
X83595Y80672D01*
X83631Y80759D01*
X83653Y80851D01*
X83659Y80945D01*
X83656Y82779D01*
X83741Y82917D01*
X83831Y83135D01*
X83886Y83365D01*
X83900Y83600D01*
Y84250D01*
X84000Y84311D01*
X84119Y84414D01*
X84222Y84533D01*
X84304Y84668D01*
X84364Y84813D01*
X84401Y84966D01*
X84410Y85123D01*
X84401Y88034D01*
X84364Y88187D01*
X84304Y88332D01*
X84222Y88467D01*
X84119Y88586D01*
X84000Y88689D01*
X83865Y88771D01*
X83720Y88831D01*
X83567Y88868D01*
X83410Y88877D01*
X81285Y88868D01*
X81132Y88831D01*
X80987Y88771D01*
X80852Y88689D01*
X80733Y88586D01*
X80630Y88467D01*
X80548Y88332D01*
X80488Y88187D01*
X80451Y88034D01*
X80442Y87877D01*
X80443Y87500D01*
X79499D01*
X79320Y87610D01*
X79058Y87718D01*
X78783Y87784D01*
X78500Y87807D01*
X78217Y87784D01*
X77942Y87718D01*
X77680Y87610D01*
X77664Y87600D01*
X71659D01*
X71600Y87605D01*
X71365Y87586D01*
X71135Y87531D01*
X70917Y87441D01*
X70716Y87317D01*
X70715Y87317D01*
X70536Y87164D01*
X70498Y87119D01*
X68981Y85602D01*
X68936Y85564D01*
X68783Y85384D01*
X68659Y85183D01*
X68569Y84965D01*
X68514Y84735D01*
X68514Y84735D01*
X68495Y84500D01*
X68500Y84441D01*
Y84188D01*
X68500Y84189D01*
X68365Y84271D01*
X68220Y84331D01*
X68067Y84368D01*
X67910Y84377D01*
X65785Y84368D01*
X65632Y84331D01*
X65487Y84271D01*
X65453Y84250D01*
X63623D01*
X52786Y90552D01*
Y93114D01*
G37*
G36*
X81496Y59583D02*X83142Y59585D01*
X85185Y57542D01*
X85185Y57500D01*
X85207Y57409D01*
X85211Y57400D01*
X84564D01*
X84563Y57913D01*
X84541Y58005D01*
X84505Y58092D01*
X84455Y58173D01*
X84394Y58244D01*
X84322Y58306D01*
X84242Y58355D01*
X84154Y58391D01*
X84063Y58413D01*
X83969Y58419D01*
X81496Y58415D01*
Y59583D01*
G37*
G36*
Y32535D02*X83574Y32541D01*
X83727Y32578D01*
X83872Y32638D01*
X84007Y32720D01*
X84126Y32823D01*
X84229Y32942D01*
X84311Y33077D01*
X84371Y33222D01*
X84408Y33375D01*
X84417Y33532D01*
X84408Y37625D01*
X84371Y37778D01*
X84311Y37923D01*
X84229Y38058D01*
X84126Y38177D01*
X84007Y38280D01*
X83872Y38362D01*
X83795Y38394D01*
X83801Y38500D01*
X83784Y38783D01*
X83755Y38903D01*
X83767Y38914D01*
X83870Y39033D01*
X83952Y39168D01*
X84012Y39313D01*
X84049Y39466D01*
X84058Y39623D01*
X84055Y40418D01*
X84223Y40223D01*
X84438Y40038D01*
X84680Y39890D01*
X84942Y39782D01*
X85217Y39716D01*
X85500Y39693D01*
X85783Y39716D01*
X86058Y39782D01*
X86320Y39890D01*
X86562Y40038D01*
X86777Y40223D01*
X86962Y40438D01*
X87110Y40680D01*
X87218Y40942D01*
X87221Y40952D01*
Y40342D01*
X86481Y39602D01*
X86436Y39564D01*
X86283Y39384D01*
X86159Y39183D01*
X86069Y38965D01*
X86014Y38735D01*
X86014Y38735D01*
X85995Y38500D01*
X85998Y38460D01*
X85426Y38459D01*
X85273Y38422D01*
X85128Y38362D01*
X84993Y38280D01*
X84874Y38177D01*
X84771Y38058D01*
X84689Y37923D01*
X84629Y37778D01*
X84592Y37625D01*
X84583Y37468D01*
X84592Y33375D01*
X84629Y33222D01*
X84689Y33077D01*
X84771Y32942D01*
X84874Y32823D01*
X84993Y32720D01*
X85128Y32638D01*
X85273Y32578D01*
X85426Y32541D01*
X85583Y32532D01*
X87023Y32536D01*
X86890Y32320D01*
X86782Y32058D01*
X86716Y31783D01*
X86693Y31500D01*
X86716Y31217D01*
X86782Y30942D01*
X86890Y30680D01*
X87038Y30438D01*
X87221Y30225D01*
Y25766D01*
X86872Y25850D01*
X86500Y25879D01*
X86128Y25850D01*
X85765Y25763D01*
X85420Y25620D01*
X85102Y25425D01*
X84818Y25182D01*
X84575Y24898D01*
X84380Y24580D01*
X84237Y24235D01*
X84150Y23872D01*
X84121Y23500D01*
X84150Y23128D01*
X84237Y22765D01*
X84380Y22420D01*
X84575Y22102D01*
X84818Y21818D01*
X85102Y21575D01*
X85420Y21380D01*
X85765Y21237D01*
X86128Y21150D01*
X86500Y21121D01*
X86872Y21150D01*
X87221Y21234D01*
Y20766D01*
X86872Y20850D01*
X86500Y20879D01*
X86128Y20850D01*
X85765Y20763D01*
X85420Y20620D01*
X85102Y20425D01*
X84818Y20182D01*
X84575Y19898D01*
X84380Y19580D01*
X84237Y19235D01*
X84150Y18872D01*
X84121Y18500D01*
X84150Y18128D01*
X84237Y17765D01*
X84380Y17420D01*
X84575Y17102D01*
X84818Y16818D01*
X85102Y16575D01*
X85420Y16380D01*
X85765Y16237D01*
X86128Y16150D01*
X86500Y16121D01*
X86872Y16150D01*
X87221Y16234D01*
Y13600D01*
X81496D01*
Y16121D01*
X81500Y16121D01*
X81872Y16150D01*
X82235Y16237D01*
X82580Y16380D01*
X82898Y16575D01*
X83182Y16818D01*
X83425Y17102D01*
X83620Y17420D01*
X83763Y17765D01*
X83850Y18128D01*
X83872Y18500D01*
X83850Y18872D01*
X83763Y19235D01*
X83620Y19580D01*
X83425Y19898D01*
X83182Y20182D01*
X82898Y20425D01*
X82580Y20620D01*
X82235Y20763D01*
X81872Y20850D01*
X81500Y20879D01*
X81496Y20879D01*
Y21121D01*
X81500Y21121D01*
X81872Y21150D01*
X82235Y21237D01*
X82580Y21380D01*
X82898Y21575D01*
X83182Y21818D01*
X83425Y22102D01*
X83620Y22420D01*
X83763Y22765D01*
X83850Y23128D01*
X83872Y23500D01*
X83850Y23872D01*
X83763Y24235D01*
X83620Y24580D01*
X83425Y24898D01*
X83182Y25182D01*
X82898Y25425D01*
X82580Y25620D01*
X82235Y25763D01*
X81872Y25850D01*
X81500Y25879D01*
X81496Y25879D01*
Y32535D01*
G37*
G36*
Y45003D02*X81680Y44890D01*
X81942Y44782D01*
X82118Y44740D01*
X81496Y44118D01*
Y45003D01*
G37*
G36*
Y49627D02*X82715Y49632D01*
X82868Y49669D01*
X83013Y49729D01*
X83148Y49811D01*
X83267Y49914D01*
X83370Y50033D01*
X83452Y50168D01*
X83494Y50269D01*
X83717Y50216D01*
X84000Y50193D01*
X84283Y50216D01*
X84558Y50282D01*
X84820Y50390D01*
X84999Y50500D01*
X86441D01*
X86500Y50495D01*
X86735Y50514D01*
X86735Y50514D01*
X86965Y50569D01*
X87183Y50659D01*
X87221Y50682D01*
Y48152D01*
X85685Y48150D01*
X85594Y48128D01*
X85506Y48091D01*
X85426Y48042D01*
X85354Y47981D01*
X85293Y47909D01*
X85287Y47900D01*
X83634D01*
X83562Y47962D01*
X83320Y48110D01*
X83058Y48218D01*
X82783Y48284D01*
X82500Y48307D01*
X82217Y48284D01*
X81942Y48218D01*
X81680Y48110D01*
X81496Y47997D01*
Y49627D01*
G37*
G36*
X79431Y57819D02*X79436Y56092D01*
X79277Y56277D01*
X79062Y56462D01*
X78820Y56610D01*
X78558Y56718D01*
X78283Y56784D01*
X78000Y56807D01*
X77717Y56784D01*
X77442Y56718D01*
X77180Y56610D01*
X76938Y56462D01*
X76723Y56277D01*
X76538Y56062D01*
X76390Y55820D01*
X76282Y55558D01*
X76216Y55283D01*
X76193Y55000D01*
X76216Y54717D01*
X76282Y54442D01*
X76390Y54180D01*
X76538Y53938D01*
X76723Y53723D01*
X76938Y53538D01*
X77180Y53390D01*
X77442Y53282D01*
X77717Y53216D01*
X78000Y53193D01*
X78283Y53216D01*
X78558Y53282D01*
X78820Y53390D01*
X79062Y53538D01*
X79134Y53600D01*
X79615D01*
X79599Y53534D01*
X79590Y53377D01*
X79599Y50466D01*
X79636Y50313D01*
X79696Y50168D01*
X79778Y50033D01*
X79881Y49914D01*
X80000Y49811D01*
X80135Y49729D01*
X80280Y49669D01*
X80433Y49632D01*
X80590Y49623D01*
X81496Y49627D01*
Y47997D01*
X81438Y47962D01*
X81223Y47777D01*
X81038Y47562D01*
X80890Y47320D01*
X80782Y47058D01*
X80716Y46783D01*
X80693Y46500D01*
X80716Y46217D01*
X80782Y45942D01*
X80890Y45680D01*
X81038Y45438D01*
X81223Y45223D01*
X81438Y45038D01*
X81496Y45003D01*
Y44118D01*
X80981Y43602D01*
X80936Y43564D01*
X80783Y43384D01*
X80740Y43314D01*
X80635Y43271D01*
X80500Y43189D01*
X80381Y43086D01*
X80278Y42967D01*
X80196Y42832D01*
X80136Y42687D01*
X80099Y42534D01*
X80090Y42377D01*
X80099Y39466D01*
X80136Y39313D01*
X80196Y39168D01*
X80277Y39036D01*
X80216Y38783D01*
X80193Y38500D01*
X80199Y38432D01*
X80155Y38422D01*
X80010Y38362D01*
X79875Y38280D01*
X79756Y38177D01*
X79653Y38058D01*
X79571Y37923D01*
X79511Y37778D01*
X79474Y37625D01*
X79465Y37468D01*
X79474Y33375D01*
X79511Y33222D01*
X79571Y33077D01*
X79653Y32942D01*
X79756Y32823D01*
X79875Y32720D01*
X80010Y32638D01*
X80155Y32578D01*
X80308Y32541D01*
X80465Y32532D01*
X81496Y32535D01*
Y25879D01*
X81128Y25850D01*
X80765Y25763D01*
X80420Y25620D01*
X80102Y25425D01*
X79818Y25182D01*
X79575Y24898D01*
X79380Y24580D01*
X79237Y24235D01*
X79150Y23872D01*
X79121Y23500D01*
X79150Y23128D01*
X79237Y22765D01*
X79380Y22420D01*
X79575Y22102D01*
X79818Y21818D01*
X80102Y21575D01*
X80420Y21380D01*
X80765Y21237D01*
X81128Y21150D01*
X81496Y21121D01*
Y20879D01*
X81128Y20850D01*
X80765Y20763D01*
X80420Y20620D01*
X80102Y20425D01*
X79818Y20182D01*
X79575Y19898D01*
X79380Y19580D01*
X79237Y19235D01*
X79150Y18872D01*
X79121Y18500D01*
X79150Y18128D01*
X79237Y17765D01*
X79380Y17420D01*
X79575Y17102D01*
X79818Y16818D01*
X80102Y16575D01*
X80420Y16380D01*
X80765Y16237D01*
X81128Y16150D01*
X81496Y16121D01*
Y13600D01*
X53500D01*
X52786Y12886D01*
Y14837D01*
X67505Y20189D01*
X70638Y16981D01*
X70704Y16904D01*
X70906Y16731D01*
X70952Y16690D01*
X70963Y16683D01*
X70973Y16674D01*
X71113Y16589D01*
X71252Y16501D01*
X71264Y16496D01*
X71275Y16489D01*
X71426Y16427D01*
X71577Y16362D01*
X71590Y16359D01*
X71603Y16354D01*
X71761Y16315D01*
X71921Y16275D01*
X71934Y16274D01*
X71947Y16271D01*
X72008Y16267D01*
X72273Y16243D01*
X72375Y16250D01*
X74365D01*
X74375Y16241D01*
X74455Y16192D01*
X74542Y16156D01*
X74634Y16134D01*
X74728Y16128D01*
X78366Y16134D01*
X78458Y16156D01*
X78545Y16192D01*
X78625Y16241D01*
X78697Y16303D01*
X78759Y16375D01*
X78808Y16455D01*
X78844Y16542D01*
X78866Y16634D01*
X78872Y16728D01*
X78866Y20366D01*
X78844Y20458D01*
X78808Y20545D01*
X78759Y20625D01*
X78697Y20697D01*
X78625Y20759D01*
X78545Y20808D01*
X78458Y20844D01*
X78366Y20866D01*
X78272Y20872D01*
X74634Y20866D01*
X74542Y20844D01*
X74455Y20808D01*
X74375Y20759D01*
X74365Y20750D01*
X73248D01*
X69734Y24347D01*
X69640Y24450D01*
X69513Y24551D01*
X69448Y24610D01*
X69404Y24638D01*
X69363Y24671D01*
X69254Y24732D01*
X69148Y24799D01*
X69100Y24819D01*
X69054Y24845D01*
X68937Y24889D01*
X68823Y24938D01*
X68772Y24951D01*
X68723Y24969D01*
X68600Y24994D01*
X68479Y25025D01*
X68427Y25030D01*
X68376Y25040D01*
X68251Y25046D01*
X68127Y25057D01*
X68074Y25053D01*
X68022Y25056D01*
X67898Y25041D01*
X67773Y25033D01*
X67722Y25022D01*
X67670Y25016D01*
X67586Y24990D01*
X67428Y24955D01*
X67298Y24902D01*
X52786Y19625D01*
Y85346D01*
X61369Y80355D01*
X61685Y80196D01*
X61790Y80164D01*
X62075Y79989D01*
X62403Y79854D01*
X62747Y79771D01*
X63100Y79750D01*
X65453D01*
X65487Y79729D01*
X65632Y79669D01*
X65785Y79632D01*
X65942Y79623D01*
X68067Y79632D01*
X68220Y79669D01*
X68365Y79729D01*
X68500Y79811D01*
X68500Y79812D01*
Y68759D01*
X68495Y68700D01*
X68514Y68465D01*
X68569Y68235D01*
X68659Y68017D01*
X68783Y67816D01*
X68936Y67636D01*
X68981Y67598D01*
X71098Y65481D01*
X71136Y65436D01*
X71315Y65283D01*
X71316Y65283D01*
X71517Y65159D01*
X71735Y65069D01*
X71965Y65014D01*
X72200Y64995D01*
X72259Y65000D01*
X76679D01*
X78698Y62981D01*
X78736Y62936D01*
X78916Y62783D01*
X79117Y62659D01*
X79335Y62569D01*
X79555Y62516D01*
X79545Y62503D01*
X79495Y62423D01*
X79459Y62336D01*
X79437Y62244D01*
X79431Y62150D01*
X79437Y60087D01*
X79459Y59995D01*
X79495Y59908D01*
X79545Y59827D01*
X79606Y59756D01*
X79678Y59694D01*
X79758Y59645D01*
X79846Y59609D01*
X79937Y59587D01*
X80031Y59581D01*
X81496Y59583D01*
Y58415D01*
X79937Y58413D01*
X79846Y58391D01*
X79758Y58355D01*
X79678Y58306D01*
X79606Y58244D01*
X79545Y58173D01*
X79495Y58092D01*
X79459Y58005D01*
X79437Y57913D01*
X79431Y57819D01*
G37*
G36*
X52786Y12886D02*X51500Y11600D01*
Y2100D01*
X50400Y1000D01*
X23200D01*
X1500Y22700D01*
Y84000D01*
X22200Y104700D01*
X50400D01*
X51200Y103900D01*
Y94700D01*
X52786Y93114D01*
Y90552D01*
X49098Y92696D01*
X49089Y102228D01*
X49045Y102412D01*
X48972Y102587D01*
X48874Y102748D01*
X48751Y102891D01*
X48608Y103014D01*
X48446Y103113D01*
X48272Y103185D01*
X48088Y103229D01*
X47900Y103240D01*
X27712Y103229D01*
X27528Y103185D01*
X27354Y103113D01*
X27192Y103014D01*
X27049Y102891D01*
X26926Y102748D01*
X26827Y102587D01*
X26755Y102412D01*
X26711Y102228D01*
X26700Y102040D01*
X26711Y90868D01*
X26755Y90684D01*
X26827Y90509D01*
X26926Y90348D01*
X27049Y90205D01*
X27192Y90082D01*
X27354Y89983D01*
X27528Y89911D01*
X27712Y89867D01*
X27900Y89856D01*
X45015Y89865D01*
X52786Y85346D01*
Y19625D01*
X44858Y16742D01*
X27712Y16733D01*
X27528Y16689D01*
X27354Y16617D01*
X27192Y16518D01*
X27049Y16395D01*
X26926Y16252D01*
X26827Y16091D01*
X26755Y15916D01*
X26711Y15732D01*
X26700Y15544D01*
X26711Y4372D01*
X26755Y4188D01*
X26827Y4013D01*
X26926Y3852D01*
X27049Y3709D01*
X27192Y3586D01*
X27354Y3487D01*
X27528Y3415D01*
X27712Y3371D01*
X27900Y3360D01*
X48088Y3371D01*
X48272Y3415D01*
X48446Y3487D01*
X48608Y3586D01*
X48751Y3709D01*
X48874Y3852D01*
X48972Y4013D01*
X49045Y4188D01*
X49089Y4372D01*
X49100Y4560D01*
X49091Y13494D01*
X52786Y14837D01*
Y12886D01*
G37*
G36*
X79615Y53600D02*X79599Y53534D01*
X79590Y53377D01*
X79599Y50466D01*
X79636Y50313D01*
X79696Y50168D01*
X79778Y50033D01*
X79881Y49914D01*
X80000Y49811D01*
X80135Y49729D01*
X80280Y49669D01*
X80433Y49632D01*
X80590Y49623D01*
X82715Y49632D01*
X82868Y49669D01*
X83013Y49729D01*
X83148Y49811D01*
X83267Y49914D01*
X83370Y50033D01*
X83452Y50168D01*
X83494Y50269D01*
X83717Y50216D01*
X84000Y50193D01*
X84283Y50216D01*
X84558Y50282D01*
X84820Y50390D01*
X84999Y50500D01*
X86441D01*
X86500Y50495D01*
X86735Y50514D01*
X86735Y50514D01*
X86965Y50569D01*
X87183Y50659D01*
X87246Y50698D01*
X89023Y50701D01*
X89115Y50723D01*
X89202Y50759D01*
X89283Y50808D01*
X89355Y50870D01*
X89416Y50942D01*
X89465Y51022D01*
X89502Y51109D01*
X89524Y51201D01*
X89529Y51295D01*
X89524Y52374D01*
X89502Y52466D01*
X89465Y52553D01*
X89452Y52575D01*
X89465Y52597D01*
X89502Y52684D01*
X89524Y52776D01*
X89529Y52870D01*
X89524Y53948D01*
X89502Y54040D01*
X89465Y54128D01*
X89452Y54150D01*
X89465Y54172D01*
X89502Y54259D01*
X89524Y54351D01*
X89529Y54445D01*
X89524Y55523D01*
X89502Y55615D01*
X89465Y55702D01*
X89452Y55724D01*
X89465Y55746D01*
X89502Y55834D01*
X89524Y55926D01*
X89529Y56020D01*
X89524Y57098D01*
X89502Y57190D01*
X89465Y57277D01*
X89452Y57299D01*
X89465Y57321D01*
X89502Y57409D01*
X89524Y57500D01*
X89529Y57594D01*
X89525Y58471D01*
X90500Y58476D01*
X90591Y58498D01*
X90679Y58535D01*
X90701Y58548D01*
X90723Y58535D01*
X90810Y58498D01*
X90902Y58476D01*
X90996Y58471D01*
X92074Y58476D01*
X92166Y58498D01*
X92254Y58535D01*
X92276Y58548D01*
X92298Y58535D01*
X92385Y58498D01*
X92477Y58476D01*
X92571Y58471D01*
X93649Y58476D01*
X93741Y58498D01*
X93828Y58535D01*
X93850Y58548D01*
X93872Y58535D01*
X93960Y58498D01*
X94052Y58476D01*
X94146Y58471D01*
X95224Y58476D01*
X95316Y58498D01*
X95403Y58535D01*
X95425Y58548D01*
X95447Y58535D01*
X95534Y58498D01*
X95626Y58476D01*
X95720Y58471D01*
X96799Y58476D01*
X96891Y58498D01*
X96978Y58535D01*
X97000Y58548D01*
X97022Y58535D01*
X97109Y58498D01*
X97201Y58476D01*
X97295Y58471D01*
X98374Y58476D01*
X98466Y58498D01*
X98553Y58535D01*
X98575Y58548D01*
X98597Y58535D01*
X98684Y58498D01*
X98776Y58476D01*
X98870Y58471D01*
X99948Y58476D01*
X100040Y58498D01*
X100128Y58535D01*
X100150Y58548D01*
X100172Y58535D01*
X100259Y58498D01*
X100351Y58476D01*
X100445Y58471D01*
X101523Y58476D01*
X101615Y58498D01*
X101702Y58535D01*
X101724Y58548D01*
X101746Y58535D01*
X101834Y58498D01*
X101926Y58476D01*
X102020Y58471D01*
X103098Y58476D01*
X103190Y58498D01*
X103277Y58535D01*
X103299Y58548D01*
X103321Y58535D01*
X103409Y58498D01*
X103500Y58476D01*
X103594Y58471D01*
X104471Y58475D01*
X104476Y57500D01*
X104498Y57409D01*
X104535Y57321D01*
X104548Y57299D01*
X104535Y57277D01*
X104498Y57190D01*
X104476Y57098D01*
X104471Y57004D01*
X104476Y55926D01*
X104498Y55834D01*
X104535Y55746D01*
X104548Y55724D01*
X104535Y55702D01*
X104498Y55615D01*
X104476Y55523D01*
X104471Y55429D01*
X104476Y54351D01*
X104498Y54259D01*
X104535Y54172D01*
X104548Y54150D01*
X104535Y54128D01*
X104498Y54040D01*
X104476Y53948D01*
X104471Y53854D01*
X104476Y52776D01*
X104498Y52684D01*
X104535Y52597D01*
X104548Y52575D01*
X104535Y52553D01*
X104498Y52466D01*
X104476Y52374D01*
X104471Y52280D01*
X104476Y51201D01*
X104498Y51109D01*
X104535Y51022D01*
X104548Y51000D01*
X104535Y50978D01*
X104498Y50891D01*
X104476Y50799D01*
X104471Y50705D01*
X104476Y49626D01*
X104498Y49534D01*
X104535Y49447D01*
X104584Y49367D01*
X104645Y49295D01*
X104717Y49234D01*
X104798Y49184D01*
X104885Y49148D01*
X104977Y49126D01*
X105071Y49120D01*
X108315Y49126D01*
X108406Y49148D01*
X108494Y49184D01*
X108519Y49200D01*
X110656D01*
X110538Y49062D01*
X110439Y48900D01*
X109035D01*
X109000Y48903D01*
X108859Y48892D01*
X108721Y48859D01*
X108590Y48804D01*
X108469Y48730D01*
X108469Y48730D01*
X108362Y48638D01*
X108339Y48612D01*
X107882Y48155D01*
X104977Y48150D01*
X104885Y48128D01*
X104798Y48091D01*
X104717Y48042D01*
X104645Y47981D01*
X104584Y47909D01*
X104535Y47828D01*
X104498Y47741D01*
X104476Y47649D01*
X104471Y47555D01*
X104476Y46477D01*
X104498Y46385D01*
X104535Y46298D01*
X104548Y46276D01*
X104535Y46254D01*
X104498Y46166D01*
X104476Y46074D01*
X104471Y45980D01*
X104476Y44902D01*
X104498Y44810D01*
X104535Y44723D01*
X104548Y44701D01*
X104535Y44679D01*
X104498Y44591D01*
X104476Y44500D01*
X104471Y44406D01*
X104475Y43529D01*
X103500Y43524D01*
X103409Y43502D01*
X103321Y43465D01*
X103299Y43452D01*
X103277Y43465D01*
X103190Y43502D01*
X103098Y43524D01*
X103004Y43529D01*
X101926Y43524D01*
X101834Y43502D01*
X101746Y43465D01*
X101724Y43452D01*
X101702Y43465D01*
X101615Y43502D01*
X101523Y43524D01*
X101429Y43529D01*
X100351Y43524D01*
X100259Y43502D01*
X100172Y43465D01*
X100150Y43452D01*
X100128Y43465D01*
X100040Y43502D01*
X99948Y43524D01*
X99854Y43529D01*
X98776Y43524D01*
X98684Y43502D01*
X98597Y43465D01*
X98575Y43452D01*
X98553Y43465D01*
X98466Y43502D01*
X98374Y43524D01*
X98280Y43529D01*
X97201Y43524D01*
X97109Y43502D01*
X97022Y43465D01*
X97000Y43452D01*
X96978Y43465D01*
X96891Y43502D01*
X96799Y43524D01*
X96705Y43529D01*
X95626Y43524D01*
X95534Y43502D01*
X95447Y43465D01*
X95425Y43452D01*
X95403Y43465D01*
X95316Y43502D01*
X95224Y43524D01*
X95130Y43529D01*
X94052Y43524D01*
X93960Y43502D01*
X93872Y43465D01*
X93850Y43452D01*
X93828Y43465D01*
X93741Y43502D01*
X93649Y43524D01*
X93555Y43529D01*
X92477Y43524D01*
X92385Y43502D01*
X92298Y43465D01*
X92276Y43452D01*
X92254Y43465D01*
X92166Y43502D01*
X92074Y43524D01*
X91980Y43529D01*
X90902Y43524D01*
X90810Y43502D01*
X90723Y43465D01*
X90701Y43452D01*
X90679Y43465D01*
X90591Y43502D01*
X90500Y43524D01*
X90406Y43529D01*
X89529Y43525D01*
X89524Y44500D01*
X89502Y44591D01*
X89465Y44679D01*
X89452Y44701D01*
X89465Y44723D01*
X89502Y44810D01*
X89524Y44902D01*
X89529Y44996D01*
X89524Y46074D01*
X89502Y46166D01*
X89465Y46254D01*
X89452Y46276D01*
X89465Y46298D01*
X89502Y46385D01*
X89524Y46477D01*
X89529Y46571D01*
X89524Y47649D01*
X89502Y47741D01*
X89465Y47828D01*
X89416Y47909D01*
X89355Y47981D01*
X89283Y48042D01*
X89202Y48091D01*
X89115Y48128D01*
X89023Y48150D01*
X88929Y48155D01*
X85685Y48150D01*
X85594Y48128D01*
X85506Y48091D01*
X85426Y48042D01*
X85354Y47981D01*
X85293Y47909D01*
X85287Y47900D01*
X83634D01*
X83562Y47962D01*
X83320Y48110D01*
X83058Y48218D01*
X82783Y48284D01*
X82500Y48307D01*
X82217Y48284D01*
X81942Y48218D01*
X81680Y48110D01*
X81438Y47962D01*
X81223Y47777D01*
X81038Y47562D01*
X80890Y47320D01*
X80782Y47058D01*
X80716Y46783D01*
X80693Y46500D01*
X80716Y46217D01*
X80782Y45942D01*
X80890Y45680D01*
X81038Y45438D01*
X81223Y45223D01*
X81438Y45038D01*
X81680Y44890D01*
X81942Y44782D01*
X82118Y44740D01*
X80981Y43602D01*
X80936Y43564D01*
X80783Y43384D01*
X80740Y43314D01*
X80635Y43271D01*
X80500Y43189D01*
X80381Y43086D01*
X80278Y42967D01*
X80196Y42832D01*
X80136Y42687D01*
X80099Y42534D01*
X80090Y42377D01*
X80099Y39466D01*
X80136Y39313D01*
X80196Y39168D01*
X80277Y39036D01*
X80216Y38783D01*
X80193Y38500D01*
X80199Y38432D01*
X80155Y38422D01*
X80010Y38362D01*
X79875Y38280D01*
X79756Y38177D01*
X79653Y38058D01*
X79571Y37923D01*
X79511Y37778D01*
X79474Y37625D01*
X79465Y37468D01*
X79474Y33375D01*
X79511Y33222D01*
X79571Y33077D01*
X79653Y32942D01*
X79756Y32823D01*
X79875Y32720D01*
X80010Y32638D01*
X80155Y32578D01*
X80308Y32541D01*
X80465Y32532D01*
X83574Y32541D01*
X83727Y32578D01*
X83872Y32638D01*
X84007Y32720D01*
X84126Y32823D01*
X84229Y32942D01*
X84311Y33077D01*
X84371Y33222D01*
X84408Y33375D01*
X84417Y33532D01*
X84408Y37625D01*
X84371Y37778D01*
X84311Y37923D01*
X84229Y38058D01*
X84126Y38177D01*
X84007Y38280D01*
X83872Y38362D01*
X83795Y38394D01*
X83801Y38500D01*
X83784Y38783D01*
X83755Y38903D01*
X83767Y38914D01*
X83870Y39033D01*
X83952Y39168D01*
X84012Y39313D01*
X84049Y39466D01*
X84058Y39623D01*
X84055Y40418D01*
X84223Y40223D01*
X84438Y40038D01*
X84680Y39890D01*
X84942Y39782D01*
X85217Y39716D01*
X85500Y39693D01*
X85783Y39716D01*
X86058Y39782D01*
X86320Y39890D01*
X86562Y40038D01*
X86777Y40223D01*
X86962Y40438D01*
X87110Y40680D01*
X87218Y40942D01*
X87284Y41217D01*
X87301Y41500D01*
X87284Y41783D01*
X87218Y42058D01*
X87110Y42320D01*
X86962Y42562D01*
X86777Y42777D01*
X86724Y42823D01*
X88821Y42826D01*
X88823Y41843D01*
X88817Y41841D01*
X88616Y41717D01*
X88615Y41717D01*
X88436Y41564D01*
X88398Y41519D01*
X86481Y39602D01*
X86436Y39564D01*
X86283Y39384D01*
X86159Y39183D01*
X86069Y38965D01*
X86014Y38735D01*
X86014Y38735D01*
X85995Y38500D01*
X85998Y38460D01*
X85426Y38459D01*
X85273Y38422D01*
X85128Y38362D01*
X84993Y38280D01*
X84874Y38177D01*
X84771Y38058D01*
X84689Y37923D01*
X84629Y37778D01*
X84592Y37625D01*
X84583Y37468D01*
X84592Y33375D01*
X84629Y33222D01*
X84689Y33077D01*
X84771Y32942D01*
X84874Y32823D01*
X84993Y32720D01*
X85128Y32638D01*
X85273Y32578D01*
X85426Y32541D01*
X85583Y32532D01*
X87023Y32536D01*
X86890Y32320D01*
X86782Y32058D01*
X86716Y31783D01*
X86693Y31500D01*
X86716Y31217D01*
X86782Y30942D01*
X86890Y30680D01*
X87038Y30438D01*
X87223Y30223D01*
X87438Y30038D01*
X87680Y29890D01*
X87942Y29782D01*
X88217Y29716D01*
X88500Y29693D01*
X88783Y29716D01*
X89058Y29782D01*
X89320Y29890D01*
X89562Y30038D01*
X89777Y30223D01*
X89962Y30438D01*
X90110Y30680D01*
X90218Y30942D01*
X90284Y31217D01*
X90301Y31500D01*
X90284Y31783D01*
X90240Y31967D01*
X91111Y32839D01*
X91138Y32862D01*
X91230Y32969D01*
X91304Y33090D01*
X91322Y33134D01*
X91466Y33099D01*
X91623Y33090D01*
X94534Y33099D01*
X94687Y33136D01*
X94832Y33196D01*
X94967Y33278D01*
X95086Y33381D01*
X95189Y33500D01*
X95271Y33635D01*
X95331Y33780D01*
X95368Y33933D01*
X95377Y34090D01*
X95368Y36215D01*
X95331Y36368D01*
X95321Y36391D01*
X95562Y36538D01*
X95600Y36571D01*
Y31873D01*
X90889Y27161D01*
X90862Y27138D01*
X90770Y27031D01*
X90696Y26910D01*
X90641Y26779D01*
X90608Y26641D01*
X90608Y26641D01*
X90597Y26500D01*
X90600Y26465D01*
Y25694D01*
X90420Y25620D01*
X90102Y25425D01*
X89818Y25182D01*
X89575Y24898D01*
X89380Y24580D01*
X89237Y24235D01*
X89150Y23872D01*
X89121Y23500D01*
X89129Y23400D01*
X88866D01*
X88872Y23500D01*
X88850Y23872D01*
X88763Y24235D01*
X88620Y24580D01*
X88425Y24898D01*
X88182Y25182D01*
X87898Y25425D01*
X87580Y25620D01*
X87235Y25763D01*
X86872Y25850D01*
X86500Y25879D01*
X86128Y25850D01*
X85765Y25763D01*
X85420Y25620D01*
X85102Y25425D01*
X84818Y25182D01*
X84575Y24898D01*
X84380Y24580D01*
X84237Y24235D01*
X84150Y23872D01*
X84121Y23500D01*
X84129Y23400D01*
X83866D01*
X83872Y23500D01*
X83850Y23872D01*
X83763Y24235D01*
X83620Y24580D01*
X83425Y24898D01*
X83182Y25182D01*
X82898Y25425D01*
X82580Y25620D01*
X82235Y25763D01*
X81872Y25850D01*
X81500Y25879D01*
X81128Y25850D01*
X80765Y25763D01*
X80420Y25620D01*
X80102Y25425D01*
X79818Y25182D01*
X79575Y24898D01*
X79380Y24580D01*
X79237Y24235D01*
X79150Y23872D01*
X79121Y23500D01*
X79129Y23400D01*
X78900D01*
Y53439D01*
X79062Y53538D01*
X79134Y53600D01*
X79615D01*
G37*
G36*
X90465Y72600D02*X90500Y72597D01*
X90641Y72608D01*
X90641Y72608D01*
X90779Y72641D01*
X90910Y72696D01*
X91031Y72770D01*
X91138Y72862D01*
X91161Y72889D01*
X93435Y75162D01*
X93435Y74708D01*
X92389Y73661D01*
X92362Y73638D01*
X92270Y73531D01*
X92196Y73410D01*
X92141Y73279D01*
X92108Y73141D01*
X92108Y73141D01*
X92097Y73000D01*
X92100Y72965D01*
Y67535D01*
X92097Y67500D01*
X92108Y67359D01*
Y67359D01*
X92141Y67221D01*
X92196Y67090D01*
X92216Y67057D01*
X91900Y67373D01*
Y70465D01*
X91903Y70500D01*
X91892Y70641D01*
X91892Y70641D01*
X91859Y70779D01*
X91804Y70910D01*
X91730Y71031D01*
X91638Y71138D01*
X91611Y71161D01*
X90173Y72600D01*
X90465D01*
G37*
G36*
X98250Y83000D02*X98250Y83000D01*
X98250Y83000D01*
X98250Y83000D01*
X98250Y83000D01*
G37*
G36*
X113749Y83000D02*X113750Y83000D01*
X113751Y83000D01*
X113750Y83000D01*
X113749Y83000D01*
G37*
G36*
X116627Y27600D02*X116632Y26433D01*
X116669Y26280D01*
X116729Y26135D01*
X116811Y26000D01*
X116812Y26000D01*
X116811Y26000D01*
X116729Y25865D01*
X116669Y25720D01*
X116632Y25567D01*
X116623Y25410D01*
X116632Y23452D01*
X116577Y23429D01*
X116530Y23400D01*
X116470D01*
X116423Y23429D01*
X116377Y23448D01*
X116368Y25567D01*
X116331Y25720D01*
X116271Y25865D01*
X116189Y26000D01*
X116188Y26000D01*
X116189Y26000D01*
X116271Y26135D01*
X116331Y26280D01*
X116368Y26433D01*
X116377Y26590D01*
X116371Y27856D01*
X116627Y27600D01*
G37*
G36*
X89534Y33807D02*X89526Y37625D01*
X89489Y37778D01*
X89429Y37923D01*
X89347Y38058D01*
X89269Y38148D01*
X89599Y38478D01*
X89600Y38465D01*
Y33873D01*
X89534Y33807D01*
G37*
G36*
X103400Y32047D02*X103428Y31979D01*
X103477Y31900D01*
X103400D01*
Y32047D01*
G37*
G36*
X98250Y78000D02*X98250Y78000D01*
X98250Y78000D01*
X98250Y78000D01*
X98250Y78000D01*
G37*
G36*
X91600Y37049D02*X91466Y37049D01*
X91400Y37033D01*
Y38127D01*
X91600Y38327D01*
Y37049D01*
G37*
G36*
X114127Y30100D02*X114671Y29556D01*
X112723Y29550D01*
X112173Y30100D01*
X114127D01*
G37*
G36*
X98250Y73000D02*X98250Y73000D01*
X98250Y73000D01*
X98250Y73000D01*
X98250Y73000D01*
G37*
G36*
X98600Y62758D02*X98597Y62757D01*
X98575Y62743D01*
X98553Y62757D01*
X98466Y62793D01*
X98374Y62815D01*
X98280Y62820D01*
X97201Y62815D01*
X97109Y62793D01*
X97022Y62757D01*
X97000Y62743D01*
X96978Y62757D01*
X96900Y62789D01*
Y64465D01*
X96903Y64500D01*
X96892Y64641D01*
X96892Y64641D01*
X96859Y64779D01*
X96804Y64910D01*
X96730Y65031D01*
X96638Y65138D01*
X96611Y65161D01*
X93900Y67873D01*
Y67946D01*
X93937Y67937D01*
X94031Y67931D01*
X95793Y67934D01*
X98600Y65127D01*
Y62758D01*
G37*
G36*
X100100Y66173D02*X98291Y67982D01*
X98346Y67959D01*
X98437Y67937D01*
X98531Y67931D01*
X100100Y67934D01*
Y66173D01*
G37*
G36*
X101900Y67936D02*X102563Y67937D01*
X102600Y67946D01*
Y67373D01*
X101900Y66673D01*
Y67936D01*
G37*
G36*
X109873Y67900D02*X109841Y67932D01*
X111793Y67935D01*
X111943Y67784D01*
X111910Y67804D01*
X111779Y67859D01*
X111641Y67892D01*
X111500Y67903D01*
X111465Y67900D01*
X109873D01*
G37*
G36*
X113750Y73000D02*X113749Y73000D01*
X113750Y73000D01*
X113751Y73000D01*
X113750Y73000D01*
G37*
G36*
X84827Y55600D02*X84627Y55400D01*
X84365D01*
X84394Y55425D01*
X84455Y55497D01*
X84505Y55577D01*
X84514Y55600D01*
X84827D01*
G37*
G36*
X121500Y68868D02*Y61341D01*
X121467Y61370D01*
X121389Y61417D01*
X121401Y61466D01*
X121410Y61623D01*
X121401Y64534D01*
X121364Y64687D01*
X121304Y64832D01*
X121222Y64967D01*
X121119Y65086D01*
X121000Y65189D01*
X120865Y65271D01*
X120720Y65331D01*
X120567Y65368D01*
X120410Y65377D01*
X120400Y65377D01*
Y66450D01*
X120403Y66500D01*
X120412Y66770D01*
X120447Y67038D01*
X120506Y67302D01*
X120587Y67560D01*
X120690Y67810D01*
X120815Y68050D01*
X120961Y68278D01*
X121125Y68493D01*
X121308Y68692D01*
X121500Y68868D01*
G37*
G36*
X119773Y50629D02*X120567Y50632D01*
X120720Y50669D01*
X120865Y50729D01*
X121000Y50811D01*
X121119Y50914D01*
X121222Y51033D01*
X121304Y51168D01*
X121364Y51313D01*
X121401Y51466D01*
X121410Y51623D01*
X121401Y54534D01*
X121389Y54583D01*
X121467Y54630D01*
X121500Y54659D01*
Y49776D01*
X121368Y49831D01*
X121215Y49868D01*
X121058Y49877D01*
X119025Y49868D01*
X119188Y49993D01*
X119406Y50194D01*
X119607Y50412D01*
X119773Y50629D01*
G37*
G36*
X87221Y74753D02*X84146Y74748D01*
X84054Y74726D01*
X83967Y74690D01*
X83886Y74640D01*
X83815Y74579D01*
X83753Y74507D01*
X83704Y74427D01*
X83668Y74340D01*
X83646Y74248D01*
X83643Y74195D01*
X83631Y74241D01*
X83595Y74328D01*
X83546Y74409D01*
X83485Y74481D01*
X83413Y74542D01*
X83332Y74591D01*
X83245Y74628D01*
X83153Y74650D01*
X83059Y74655D01*
X81784Y74650D01*
X81692Y74628D01*
X81605Y74591D01*
X81524Y74542D01*
X81484Y74508D01*
X81444Y74542D01*
X81364Y74591D01*
X81277Y74628D01*
X81185Y74650D01*
X81091Y74655D01*
X79815Y74650D01*
X79723Y74628D01*
X79636Y74591D01*
X79556Y74542D01*
X79516Y74508D01*
X79476Y74542D01*
X79395Y74591D01*
X79308Y74628D01*
X79216Y74650D01*
X79122Y74655D01*
X78900Y74654D01*
Y84244D01*
X79058Y84282D01*
X79316Y84389D01*
X79315Y84385D01*
X79309Y84291D01*
X79315Y80851D01*
X79337Y80759D01*
X79373Y80672D01*
X79423Y80591D01*
X79484Y80519D01*
X79556Y80458D01*
X79636Y80409D01*
X79723Y80372D01*
X79815Y80350D01*
X79909Y80345D01*
X81185Y80350D01*
X81277Y80372D01*
X81364Y80409D01*
X81444Y80458D01*
X81484Y80492D01*
X81524Y80458D01*
X81605Y80409D01*
X81692Y80372D01*
X81784Y80350D01*
X81878Y80345D01*
X83153Y80350D01*
X83245Y80372D01*
X83332Y80409D01*
X83413Y80458D01*
X83485Y80519D01*
X83546Y80591D01*
X83595Y80672D01*
X83631Y80759D01*
X83653Y80851D01*
X83659Y80945D01*
X83656Y82779D01*
X83741Y82917D01*
X83831Y83135D01*
X83886Y83365D01*
X83900Y83600D01*
Y84250D01*
X84000Y84311D01*
X84119Y84414D01*
X84222Y84533D01*
X84304Y84668D01*
X84364Y84813D01*
X84401Y84966D01*
X84410Y85123D01*
X84401Y88034D01*
X84364Y88187D01*
X84304Y88332D01*
X84222Y88467D01*
X84119Y88586D01*
X84000Y88689D01*
X83865Y88771D01*
X83720Y88831D01*
X83567Y88868D01*
X83410Y88877D01*
X81285Y88868D01*
X81132Y88831D01*
X80987Y88771D01*
X80852Y88689D01*
X80733Y88586D01*
X80630Y88467D01*
X80548Y88332D01*
X80488Y88187D01*
X80451Y88034D01*
X80442Y87877D01*
X80443Y87500D01*
X79499D01*
X79320Y87610D01*
X79058Y87718D01*
X78900Y87756D01*
Y89600D01*
X87221D01*
Y78690D01*
X84146Y78685D01*
X84054Y78663D01*
X83967Y78627D01*
X83886Y78577D01*
X83815Y78516D01*
X83753Y78444D01*
X83704Y78364D01*
X83668Y78277D01*
X83646Y78185D01*
X83640Y78091D01*
X83646Y76815D01*
X83668Y76723D01*
X83704Y76636D01*
X83753Y76556D01*
X83815Y76484D01*
X83886Y76423D01*
X83967Y76373D01*
X84054Y76337D01*
X84146Y76315D01*
X84240Y76309D01*
X87221Y76314D01*
Y74753D01*
G37*
G36*
X116400Y65465D02*X116403Y65500D01*
X116392Y65641D01*
X116392Y65641D01*
X116359Y65779D01*
X116304Y65910D01*
X116230Y66031D01*
X116138Y66138D01*
X116111Y66161D01*
X114341Y67932D01*
X118063Y67937D01*
X118154Y67959D01*
X118242Y67995D01*
X118322Y68045D01*
X118394Y68106D01*
X118455Y68178D01*
X118505Y68258D01*
X118541Y68346D01*
X118563Y68437D01*
X118569Y68531D01*
X118563Y72563D01*
X118541Y72654D01*
X118505Y72742D01*
X118455Y72822D01*
X118394Y72894D01*
X118322Y72955D01*
X118249Y73000D01*
X118322Y73045D01*
X118394Y73106D01*
X118455Y73178D01*
X118505Y73258D01*
X118541Y73346D01*
X118563Y73437D01*
X118569Y73531D01*
X118563Y77563D01*
X118541Y77654D01*
X118505Y77742D01*
X118455Y77822D01*
X118394Y77894D01*
X118322Y77955D01*
X118249Y78000D01*
X118322Y78045D01*
X118394Y78106D01*
X118455Y78178D01*
X118505Y78258D01*
X118541Y78346D01*
X118563Y78437D01*
X118569Y78531D01*
X118563Y82563D01*
X118541Y82654D01*
X118505Y82742D01*
X118455Y82822D01*
X118394Y82894D01*
X118322Y82955D01*
X118249Y83000D01*
X118322Y83045D01*
X118394Y83106D01*
X118455Y83178D01*
X118505Y83258D01*
X118541Y83346D01*
X118563Y83437D01*
X118569Y83531D01*
X118563Y87563D01*
X118541Y87654D01*
X118505Y87742D01*
X118455Y87822D01*
X118394Y87894D01*
X118322Y87955D01*
X118242Y88005D01*
X118154Y88041D01*
X118063Y88063D01*
X117969Y88069D01*
X113937Y88063D01*
X113846Y88041D01*
X113758Y88005D01*
X113750Y88000D01*
X113742Y88005D01*
X113654Y88041D01*
X113563Y88063D01*
X113469Y88069D01*
X110209Y88064D01*
X109161Y89111D01*
X109138Y89138D01*
X109031Y89230D01*
X108984Y89259D01*
X108910Y89304D01*
X108779Y89359D01*
X108641Y89392D01*
X108500Y89403D01*
X108465Y89400D01*
X93535D01*
X93500Y89403D01*
X93359Y89392D01*
X93221Y89359D01*
X93090Y89304D01*
X92969Y89230D01*
X92969Y89230D01*
X92862Y89138D01*
X92839Y89112D01*
X92289Y88561D01*
X92262Y88538D01*
X92170Y88431D01*
X92096Y88310D01*
X92041Y88179D01*
X92008Y88041D01*
X92008Y88041D01*
X91997Y87900D01*
X92000Y87865D01*
Y76273D01*
X90127Y74400D01*
X88134D01*
X88123Y74427D01*
X88074Y74507D01*
X88012Y74579D01*
X87940Y74640D01*
X87860Y74690D01*
X87773Y74726D01*
X87681Y74748D01*
X87587Y74754D01*
X87221Y74753D01*
Y76314D01*
X87644Y76315D01*
X87723Y76223D01*
X87938Y76038D01*
X88180Y75890D01*
X88442Y75782D01*
X88717Y75716D01*
X89000Y75693D01*
X89283Y75716D01*
X89558Y75782D01*
X89820Y75890D01*
X90062Y76038D01*
X90277Y76223D01*
X90462Y76438D01*
X90610Y76680D01*
X90718Y76942D01*
X90784Y77217D01*
X90801Y77500D01*
X90784Y77783D01*
X90718Y78058D01*
X90610Y78320D01*
X90462Y78562D01*
X90277Y78777D01*
X90062Y78962D01*
X89820Y79110D01*
X89558Y79218D01*
X89283Y79284D01*
X89000Y79307D01*
X88717Y79284D01*
X88442Y79218D01*
X88180Y79110D01*
X87938Y78962D01*
X87723Y78777D01*
X87645Y78687D01*
X87587Y78691D01*
X87221Y78690D01*
Y89600D01*
X121500D01*
Y70975D01*
X121427Y70945D01*
X121048Y70748D01*
X120687Y70518D01*
X120347Y70257D01*
X120032Y69968D01*
X119743Y69653D01*
X119482Y69313D01*
X119252Y68952D01*
X119055Y68573D01*
X118891Y68177D01*
X118762Y67769D01*
X118670Y67352D01*
X118614Y66927D01*
X118595Y66500D01*
X118600Y66434D01*
Y65369D01*
X118285Y65368D01*
X118132Y65331D01*
X117987Y65271D01*
X117852Y65189D01*
X117733Y65086D01*
X117630Y64967D01*
X117548Y64832D01*
X117488Y64687D01*
X117451Y64534D01*
X117442Y64377D01*
X117451Y61466D01*
X117484Y61328D01*
X117414Y61267D01*
X117311Y61148D01*
X117229Y61013D01*
X117169Y60868D01*
X117132Y60715D01*
X117123Y60558D01*
X117132Y58433D01*
X117169Y58280D01*
X117229Y58135D01*
X117311Y58000D01*
X117312Y58000D01*
X117311Y58000D01*
X117229Y57865D01*
X117169Y57720D01*
X117132Y57567D01*
X117123Y57410D01*
X117132Y55285D01*
X117169Y55132D01*
X117229Y54987D01*
X117311Y54852D01*
X117414Y54733D01*
X117484Y54672D01*
X117451Y54534D01*
X117442Y54377D01*
X117451Y51466D01*
X117488Y51313D01*
X117548Y51168D01*
X117583Y51111D01*
X117547Y51096D01*
X117414Y51055D01*
X117278Y51024D01*
X117139Y51006D01*
X117000Y51000D01*
X117000Y51000D01*
X114999D01*
X115110Y51180D01*
X115218Y51442D01*
X115284Y51717D01*
X115301Y52000D01*
X115299Y52027D01*
X116111Y52839D01*
X116138Y52862D01*
X116230Y52969D01*
X116304Y53090D01*
X116359Y53221D01*
X116392Y53359D01*
X116403Y53500D01*
X116400Y53535D01*
Y65465D01*
G37*
G36*
X84836Y53600D02*X84965D01*
X85000Y53597D01*
X85128Y53607D01*
X85084Y53500D01*
X84999D01*
X84836Y53600D01*
G37*
G36*
X87827Y64900D02*X87256D01*
X87218Y65058D01*
X87110Y65320D01*
X86962Y65562D01*
X86777Y65777D01*
X86702Y65842D01*
X86820Y65890D01*
X86831Y65897D01*
X87827Y64900D01*
G37*
G36*
X84567Y60706D02*X84563Y62244D01*
X84541Y62336D01*
X84505Y62423D01*
X84455Y62503D01*
X84394Y62575D01*
X84322Y62637D01*
X84242Y62686D01*
X84154Y62722D01*
X84063Y62744D01*
X83969Y62750D01*
X83800Y62749D01*
X83962Y62938D01*
X84110Y63180D01*
X84158Y63298D01*
X84223Y63223D01*
X84438Y63038D01*
X84680Y62890D01*
X84942Y62782D01*
X85217Y62716D01*
X85500Y62693D01*
X85783Y62716D01*
X86058Y62782D01*
X86320Y62890D01*
X86562Y63038D01*
X86634Y63100D01*
X87627D01*
X88822Y61905D01*
X88826Y59179D01*
X86099Y59174D01*
X84567Y60706D01*
G37*
G36*
X79431Y57819D02*X79436Y56092D01*
X79277Y56277D01*
X79062Y56462D01*
X78900Y56561D01*
Y62796D01*
X78916Y62783D01*
X79117Y62659D01*
X79335Y62569D01*
X79555Y62516D01*
X79545Y62503D01*
X79495Y62423D01*
X79459Y62336D01*
X79437Y62244D01*
X79431Y62150D01*
X79437Y60087D01*
X79459Y59995D01*
X79495Y59908D01*
X79545Y59827D01*
X79606Y59756D01*
X79678Y59694D01*
X79758Y59645D01*
X79846Y59609D01*
X79937Y59587D01*
X80031Y59581D01*
X83142Y59585D01*
X85185Y57542D01*
X85185Y57500D01*
X85207Y57409D01*
X85211Y57400D01*
X84564D01*
X84563Y57913D01*
X84541Y58005D01*
X84505Y58092D01*
X84455Y58173D01*
X84394Y58244D01*
X84322Y58306D01*
X84242Y58355D01*
X84154Y58391D01*
X84063Y58413D01*
X83969Y58419D01*
X79937Y58413D01*
X79846Y58391D01*
X79758Y58355D01*
X79678Y58306D01*
X79606Y58244D01*
X79545Y58173D01*
X79495Y58092D01*
X79459Y58005D01*
X79437Y57913D01*
X79431Y57819D01*
G37*
G36*
X114600Y53873D02*X114331Y53603D01*
X114320Y53610D01*
X114202Y53658D01*
X114277Y53723D01*
X114462Y53938D01*
X114600Y54164D01*
Y53873D01*
G37*
G36*
X106240Y83467D02*X107033Y84260D01*
X107217Y84216D01*
X107500Y84193D01*
X107783Y84216D01*
X108058Y84282D01*
X108320Y84390D01*
X108562Y84538D01*
X108777Y84723D01*
X108935Y84907D01*
X108937Y83437D01*
X108959Y83346D01*
X108995Y83258D01*
X109045Y83178D01*
X109106Y83106D01*
X109178Y83045D01*
X109251Y83000D01*
X109178Y82955D01*
X109106Y82894D01*
X109045Y82822D01*
X108995Y82742D01*
X108959Y82654D01*
X108937Y82563D01*
X108931Y82469D01*
X108935Y80207D01*
X107889Y79161D01*
X107862Y79138D01*
X107770Y79031D01*
X107696Y78910D01*
X107641Y78779D01*
X107608Y78641D01*
X107608Y78641D01*
X107597Y78500D01*
X107600Y78465D01*
Y76373D01*
X106389Y75161D01*
X106362Y75138D01*
X106270Y75031D01*
X106196Y74910D01*
X106141Y74779D01*
X106108Y74641D01*
X106108Y74641D01*
X106097Y74500D01*
X106100Y74465D01*
Y67035D01*
X106097Y67000D01*
X106108Y66859D01*
X106141Y66721D01*
X106196Y66590D01*
X106270Y66469D01*
X106270Y66469D01*
X106362Y66362D01*
X106388Y66339D01*
X109100Y63627D01*
Y63035D01*
X109097Y63000D01*
X109100Y62965D01*
Y58873D01*
X108815Y58588D01*
X108815Y58673D01*
X108793Y58765D01*
X108757Y58852D01*
X108707Y58933D01*
X108646Y59004D01*
X108574Y59066D01*
X108494Y59115D01*
X108406Y59151D01*
X108400Y59153D01*
Y62465D01*
X108403Y62500D01*
X108392Y62641D01*
X108359Y62779D01*
X108304Y62910D01*
X108259Y62984D01*
X108237Y63020D01*
X108284Y63217D01*
X108301Y63500D01*
X108284Y63783D01*
X108218Y64058D01*
X108110Y64320D01*
X107962Y64562D01*
X107777Y64777D01*
X107562Y64962D01*
X107320Y65110D01*
X107058Y65218D01*
X106783Y65284D01*
X106500Y65307D01*
X106217Y65284D01*
X105942Y65218D01*
X105680Y65110D01*
X105438Y64962D01*
X105223Y64777D01*
X105038Y64562D01*
X104900Y64336D01*
Y65127D01*
X105611Y65839D01*
X105638Y65862D01*
X105730Y65969D01*
X105804Y66090D01*
X105859Y66221D01*
X105892Y66359D01*
X105903Y66500D01*
X105900Y66535D01*
Y73465D01*
X105903Y73500D01*
X105892Y73641D01*
X105892Y73641D01*
X105859Y73779D01*
X105804Y73910D01*
X105730Y74031D01*
X105638Y74138D01*
X105611Y74161D01*
X104400Y75373D01*
Y77965D01*
X104403Y78000D01*
X104392Y78141D01*
X104392Y78141D01*
X104359Y78279D01*
X104304Y78410D01*
X104230Y78531D01*
X104138Y78638D01*
X104111Y78661D01*
X103067Y79706D01*
X103064Y81908D01*
X103223Y81723D01*
X103438Y81538D01*
X103680Y81390D01*
X103942Y81282D01*
X104217Y81216D01*
X104500Y81193D01*
X104783Y81216D01*
X105058Y81282D01*
X105320Y81390D01*
X105562Y81538D01*
X105777Y81723D01*
X105962Y81938D01*
X106110Y82180D01*
X106218Y82442D01*
X106284Y82717D01*
X106301Y83000D01*
X106284Y83283D01*
X106240Y83467D01*
G37*
G36*
X105760Y85533D02*X104967Y84740D01*
X104783Y84784D01*
X104500Y84807D01*
X104217Y84784D01*
X103942Y84718D01*
X103680Y84610D01*
X103438Y84462D01*
X103223Y84277D01*
X103068Y84096D01*
X103063Y87563D01*
X103054Y87600D01*
X106664D01*
X106438Y87462D01*
X106223Y87277D01*
X106038Y87062D01*
X105890Y86820D01*
X105782Y86558D01*
X105716Y86283D01*
X105693Y86000D01*
X105716Y85717D01*
X105760Y85533D01*
G37*
G36*
X106600Y61701D02*Y59176D01*
X105179Y59174D01*
X105173Y62280D01*
X105223Y62223D01*
X105438Y62038D01*
X105680Y61890D01*
X105942Y61782D01*
X106217Y61716D01*
X106500Y61693D01*
X106600Y61701D01*
G37*
G36*
X110824Y64364D02*X110804Y64410D01*
X110730Y64531D01*
X110638Y64638D01*
X110611Y64661D01*
X109057Y66216D01*
X109090Y66196D01*
X109221Y66141D01*
X109359Y66108D01*
X109500Y66097D01*
X109535Y66100D01*
X111127D01*
X112494Y64734D01*
X112283Y64784D01*
X112000Y64807D01*
X111717Y64784D01*
X111442Y64718D01*
X111180Y64610D01*
X110938Y64462D01*
X110824Y64364D01*
G37*
G36*
X113100Y61571D02*Y60929D01*
X113062Y60962D01*
X112820Y61110D01*
X112558Y61218D01*
X112426Y61250D01*
X112558Y61282D01*
X112820Y61390D01*
X113062Y61538D01*
X113100Y61571D01*
G37*
G36*
Y58071D02*Y56799D01*
X113000Y56807D01*
X112717Y56784D01*
X112506Y56734D01*
X112611Y56839D01*
X112638Y56862D01*
X112730Y56969D01*
X112730Y56969D01*
X112804Y57090D01*
X112859Y57221D01*
X112892Y57359D01*
X112903Y57500D01*
X112900Y57535D01*
Y57939D01*
X113062Y58038D01*
X113100Y58071D01*
G37*
G36*
X111260Y54533D02*X111127Y54400D01*
X110173D01*
X111266Y55494D01*
X111216Y55283D01*
X111193Y55000D01*
X111216Y54717D01*
X111260Y54533D01*
G37*
G36*
X111100Y57939D02*Y57873D01*
X109127Y55900D01*
X108809D01*
X108815Y55926D01*
X108820Y56020D01*
X108820Y56048D01*
X110611Y57839D01*
X110638Y57862D01*
X110730Y57969D01*
X110804Y58090D01*
X110824Y58136D01*
X110938Y58038D01*
X111100Y57939D01*
G37*
G36*
X110900Y60929D02*Y61571D01*
X110938Y61538D01*
X111180Y61390D01*
X111442Y61282D01*
X111574Y61250D01*
X111442Y61218D01*
X111180Y61110D01*
X110938Y60962D01*
X110900Y60929D01*
G37*
G36*
X107405Y31900D02*X107454Y31979D01*
X107490Y32066D01*
X107512Y32158D01*
X107517Y32252D01*
X107512Y34905D01*
X107490Y34997D01*
X107454Y35084D01*
X107404Y35165D01*
X107343Y35237D01*
X107271Y35298D01*
X107191Y35347D01*
X107103Y35383D01*
X107011Y35405D01*
X106917Y35411D01*
X103870Y35405D01*
X103868Y35405D01*
X103400Y35873D01*
Y39211D01*
X103409Y39207D01*
X103500Y39185D01*
X103594Y39180D01*
X104673Y39185D01*
X104765Y39207D01*
X104852Y39243D01*
X104932Y39293D01*
X105004Y39354D01*
X105066Y39426D01*
X105115Y39506D01*
X105151Y39594D01*
X105153Y39600D01*
X108127D01*
X108609Y39118D01*
X108596Y39102D01*
X108546Y39021D01*
X108510Y38934D01*
X108488Y38842D01*
X108483Y38748D01*
X108488Y36095D01*
X108510Y36003D01*
X108546Y35916D01*
X108596Y35835D01*
X108657Y35763D01*
X108729Y35702D01*
X108809Y35653D01*
X108897Y35617D01*
X108989Y35595D01*
X109083Y35589D01*
X112130Y35595D01*
X112221Y35617D01*
X112309Y35653D01*
X112389Y35702D01*
X112461Y35763D01*
X112522Y35835D01*
X112572Y35916D01*
X112608Y36003D01*
X112630Y36095D01*
X112635Y36189D01*
X112630Y38842D01*
X112608Y38934D01*
X112572Y39021D01*
X112522Y39102D01*
X112461Y39174D01*
X112389Y39235D01*
X112309Y39284D01*
X112221Y39320D01*
X112130Y39342D01*
X112035Y39348D01*
X110927Y39346D01*
X109161Y41111D01*
X109138Y41138D01*
X109031Y41230D01*
X108984Y41259D01*
X108910Y41304D01*
X108779Y41359D01*
X108641Y41392D01*
X108500Y41403D01*
X108465Y41400D01*
X105176D01*
X105174Y42821D01*
X106451Y42824D01*
X106616Y42683D01*
X106817Y42559D01*
X107035Y42469D01*
X107265Y42414D01*
X107500Y42400D01*
X109889D01*
X112627Y39723D01*
X112632Y38433D01*
X112669Y38280D01*
X112729Y38135D01*
X112811Y38000D01*
X112914Y37881D01*
X113033Y37778D01*
X113168Y37696D01*
X113313Y37636D01*
X113466Y37599D01*
X113623Y37590D01*
X115782Y37597D01*
X116707Y36672D01*
X116693Y36500D01*
X116716Y36217D01*
X116782Y35942D01*
X116890Y35680D01*
X117038Y35438D01*
X117223Y35223D01*
X117438Y35038D01*
X117680Y34890D01*
X117942Y34782D01*
X118217Y34716D01*
X118500Y34693D01*
X118783Y34716D01*
X119058Y34782D01*
X119320Y34890D01*
X119562Y35038D01*
X119777Y35223D01*
X119962Y35438D01*
X120110Y35680D01*
X120218Y35942D01*
X120284Y36217D01*
X120301Y36500D01*
X120284Y36783D01*
X120218Y37058D01*
X120110Y37320D01*
X119962Y37562D01*
X119797Y37755D01*
X119717Y37884D01*
X119564Y38064D01*
X119519Y38102D01*
X119267Y38354D01*
X119442Y38282D01*
X119717Y38216D01*
X120000Y38193D01*
X120283Y38216D01*
X120558Y38282D01*
X120820Y38390D01*
X121062Y38538D01*
X121277Y38723D01*
X121462Y38938D01*
X121500Y39001D01*
Y23400D01*
X121470D01*
X121423Y23429D01*
X121377Y23448D01*
X121368Y25567D01*
X121331Y25720D01*
X121271Y25865D01*
X121189Y26000D01*
X121188Y26000D01*
X121189Y26000D01*
X121271Y26135D01*
X121331Y26280D01*
X121368Y26433D01*
X121377Y26590D01*
X121368Y28715D01*
X121331Y28868D01*
X121271Y29013D01*
X121189Y29148D01*
X121086Y29267D01*
X120967Y29370D01*
X120832Y29452D01*
X120687Y29512D01*
X120534Y29549D01*
X120377Y29558D01*
X117466Y29549D01*
X117313Y29512D01*
X117276Y29497D01*
X115161Y31611D01*
X115138Y31638D01*
X115031Y31730D01*
X114910Y31804D01*
X114779Y31859D01*
X114641Y31892D01*
X114641Y31892D01*
X114500Y31903D01*
X114465Y31900D01*
X107405D01*
G37*
G36*
X118354Y39267D02*X117370Y40252D01*
X117368Y40715D01*
X117331Y40868D01*
X117271Y41013D01*
X117200Y41128D01*
X118067Y41132D01*
X118220Y41169D01*
X118365Y41229D01*
X118500Y41311D01*
X118500Y41312D01*
X118500Y41311D01*
X118635Y41229D01*
X118669Y41215D01*
X118538Y41062D01*
X118390Y40820D01*
X118282Y40558D01*
X118216Y40283D01*
X118193Y40000D01*
X118216Y39717D01*
X118282Y39442D01*
X118354Y39267D01*
G37*
G36*
X121369Y41170D02*X121500Y41224D01*
Y40999D01*
X121462Y41062D01*
X121369Y41170D01*
G37*
G36*
X97100Y30373D02*X93389Y26661D01*
X93362Y26638D01*
X93270Y26531D01*
X93196Y26410D01*
X93141Y26279D01*
X93108Y26141D01*
X93108Y26141D01*
X93097Y26000D01*
X93100Y25965D01*
Y25252D01*
X92898Y25425D01*
X92580Y25620D01*
X92400Y25694D01*
Y26127D01*
X97100Y30827D01*
Y30373D01*
G37*
G36*
X101839Y28888D02*X101862Y28862D01*
X101969Y28770D01*
X101969Y28770D01*
X102090Y28696D01*
X102221Y28641D01*
X102359Y28608D01*
X102500Y28597D01*
X102535Y28600D01*
X111127D01*
X111625Y28102D01*
X111632Y26433D01*
X111669Y26280D01*
X111729Y26135D01*
X111811Y26000D01*
X111812Y26000D01*
X111811Y26000D01*
X111729Y25865D01*
X111669Y25720D01*
X111632Y25567D01*
X111623Y25410D01*
X111632Y23452D01*
X111577Y23429D01*
X111530Y23400D01*
X108866D01*
X108872Y23500D01*
X108850Y23872D01*
X108763Y24235D01*
X108620Y24580D01*
X108425Y24898D01*
X108182Y25182D01*
X107898Y25425D01*
X107580Y25620D01*
X107235Y25763D01*
X106872Y25850D01*
X106500Y25879D01*
X106128Y25850D01*
X105765Y25763D01*
X105420Y25620D01*
X105102Y25425D01*
X104818Y25182D01*
X104575Y24898D01*
X104380Y24580D01*
X104237Y24235D01*
X104150Y23872D01*
X104121Y23500D01*
X104129Y23400D01*
X103866D01*
X103872Y23500D01*
X103850Y23872D01*
X103763Y24235D01*
X103620Y24580D01*
X103425Y24898D01*
X103182Y25182D01*
X102898Y25425D01*
X102580Y25620D01*
X102235Y25763D01*
X101872Y25850D01*
X101500Y25879D01*
X101128Y25850D01*
X100765Y25763D01*
X100420Y25620D01*
X100102Y25425D01*
X99818Y25182D01*
X99575Y24898D01*
X99380Y24580D01*
X99237Y24235D01*
X99150Y23872D01*
X99121Y23500D01*
X99129Y23400D01*
X98866D01*
X98872Y23500D01*
X98850Y23872D01*
X98763Y24235D01*
X98620Y24580D01*
X98425Y24898D01*
X98182Y25182D01*
X97898Y25425D01*
X97580Y25620D01*
X97235Y25763D01*
X96872Y25850D01*
X96500Y25879D01*
X96128Y25850D01*
X95765Y25763D01*
X95420Y25620D01*
X95102Y25425D01*
X94900Y25252D01*
Y25627D01*
X98611Y29339D01*
X98638Y29362D01*
X98730Y29469D01*
X98804Y29590D01*
X98859Y29721D01*
X98892Y29859D01*
X98903Y30000D01*
X98900Y30035D01*
Y33827D01*
X100100Y32627D01*
Y31035D01*
X100097Y31000D01*
X100108Y30859D01*
X100141Y30721D01*
X100196Y30590D01*
X100270Y30469D01*
X100270Y30469D01*
X100362Y30362D01*
X100388Y30339D01*
X101839Y28888D01*
G37*
G36*
X114944Y44283D02*X114951Y41966D01*
X114988Y41813D01*
X115048Y41668D01*
X115118Y41554D01*
X115045Y41554D01*
X112614Y43930D01*
X112680Y43890D01*
X112942Y43782D01*
X113217Y43716D01*
X113500Y43693D01*
X113783Y43716D01*
X114058Y43782D01*
X114320Y43890D01*
X114562Y44038D01*
X114777Y44223D01*
X114882Y44345D01*
X114944Y44283D01*
G37*
G36*
X111954Y44577D02*X111930Y44600D01*
X111939D01*
X111954Y44577D01*
G37*
G36*
X108796Y46400D02*X108815Y46477D01*
X108819Y46546D01*
X109373Y47100D01*
X110439D01*
X110538Y46938D01*
X110723Y46723D01*
X110938Y46538D01*
X111164Y46400D01*
X108796D01*
G37*
G36*
X114336Y47100D02*X114948D01*
X114949Y46576D01*
X114777Y46777D01*
X114562Y46962D01*
X114336Y47100D01*
G37*
G36*
X90100Y67173D02*X89400Y67873D01*
Y67939D01*
X89562Y68038D01*
X89777Y68223D01*
X89962Y68438D01*
X90100Y68664D01*
Y67173D01*
G37*
G36*
X86939Y70400D02*X83574D01*
X83595Y70435D01*
X83631Y70523D01*
X83653Y70615D01*
X83659Y70709D01*
X83658Y71100D01*
X87664D01*
X87438Y70962D01*
X87223Y70777D01*
X87038Y70562D01*
X86939Y70400D01*
G37*
G36*
X82035Y68600D02*X84571D01*
X84538Y68562D01*
X84439Y68400D01*
X81873D01*
X81557Y68716D01*
X81590Y68696D01*
X81721Y68641D01*
X81859Y68608D01*
X82000Y68597D01*
X82035Y68600D01*
G37*
G36*
X113750Y78000D02*X113749Y78000D01*
X113750Y78000D01*
X113751Y78000D01*
X113750Y78000D01*
G37*
G36*
X113344Y49200D02*X114993D01*
X114988Y49187D01*
X114951Y49034D01*
X114943Y48900D01*
X113561D01*
X113462Y49062D01*
X113344Y49200D01*
G37*
G54D12*X93000Y63000D02*X88500Y67500D01*
Y69500D01*
X90000Y62000D02*X88000Y64000D01*
X84000Y66000D02*X80500D01*
X86000Y67500D02*X81500D01*
X86000Y64000D02*X84000Y66000D01*
X88500Y69500D02*X82000D01*
X89500Y72000D02*X82500D01*
X91500Y62500D02*X86500Y67500D01*
G54D13*X82400Y64000D02*X79800D01*
X77300Y66500D01*
G54D12*X104500Y83000D02*X107500Y86000D01*
X108500Y88500D02*X111500Y85500D01*
X93500Y88500D02*X108500D01*
X92900Y87900D02*X93500Y88500D01*
X92900Y75900D02*Y87900D01*
X88000Y64000D02*X86000D01*
X94500Y63500D02*X91000Y67000D01*
X87000Y77500D02*X89000D01*
X90500Y73500D02*X92900Y75900D01*
X87000Y73500D02*X90500D01*
X91000Y70500D02*X89500Y72000D01*
X91000Y67000D02*Y70500D01*
X93000Y73000D02*X94500Y74500D01*
X93000Y67500D02*Y73000D01*
X96000Y64500D02*X93000Y67500D01*
X96000Y62000D02*Y64500D01*
X99500Y65500D02*X96000Y69000D01*
X80500Y66000D02*X78000Y68500D01*
X73500D01*
X78500Y70500D02*Y71500D01*
X81500Y67500D02*X78500Y70500D01*
G54D13*X77300Y66500D02*X72200D01*
X70000Y68700D01*
G54D12*X72200Y74200D02*X73500Y75500D01*
X72200Y69800D02*Y74200D01*
X73500Y68500D02*X72200Y69800D01*
G54D13*X70000Y68700D02*Y81600D01*
Y81500D02*Y84500D01*
X71600Y86100D01*
G54D12*X82000Y69500D02*X80500Y71000D01*
X75000Y73500D02*Y71500D01*
G54D14*X66500Y82000D02*X63100D01*
G54D13*X74400Y81500D02*X70000D01*
X71600Y86100D02*X78500D01*
Y86000D02*X82400D01*
Y83600D01*
G54D14*X62500Y82300D02*X44100Y93000D01*
G54D12*X112000Y63000D02*X110000D01*
X108500Y78500D02*X110000Y80000D01*
X108500Y76000D02*Y78500D01*
Y73500D02*X109500Y74500D01*
X108500Y68000D02*Y73500D01*
X109500Y67000D02*X108500Y68000D01*
X107000Y74500D02*X108500Y76000D01*
X107000Y67000D02*Y74500D01*
X105000Y66500D02*Y73500D01*
X104000Y65500D02*X105000Y66500D01*
X103500Y67000D02*Y73000D01*
X102500Y66000D02*X103500Y67000D01*
X101000Y69500D02*X100500Y70000D01*
X103500Y78000D02*X102000Y79500D01*
X103500Y75000D02*Y78000D01*
X105000Y73500D02*X103500Y75000D01*
Y73000D02*X101500Y75000D01*
X90500Y33500D02*X88500Y31500D01*
X90500Y38500D02*Y33500D01*
G54D13*X89500Y40500D02*X87500Y38500D01*
X89800Y40500D02*X89500D01*
X87500Y36000D02*Y38500D01*
X118500Y37000D02*Y36500D01*
X116000Y39500D02*X118500Y37000D01*
X115000Y39500D02*X116000D01*
G54D12*X116500Y48000D02*X109000D01*
X108000Y47000D02*X109000Y48000D01*
X107500Y47000D02*X108000D01*
X107500Y45500D02*X115000D01*
X120000Y40000D02*Y47500D01*
G54D13*X110500Y43900D02*X115000Y39500D01*
X107500Y43900D02*X110500D01*
G54D12*X115000Y45500D02*X116500Y44000D01*
X108500Y40500D02*X111000Y38000D01*
X104000Y40500D02*X108500D01*
X94000Y26000D02*X98000Y30000D01*
X94000Y21000D02*Y26000D01*
X91500Y18500D02*X94000Y21000D01*
X91500Y26500D02*Y23500D01*
X96500Y31500D02*X91500Y26500D01*
G54D14*X76500Y18500D02*X72300D01*
X68100Y22800D01*
X45000Y14400D01*
G54D12*X119000Y21500D02*Y24000D01*
X118500Y27000D02*X114500Y31000D01*
X111500Y29500D02*X114000Y27000D01*
Y21500D02*Y24000D01*
X102500Y29500D02*X111500D01*
X101000Y31000D02*X102500Y29500D01*
X101000Y33000D02*Y31000D01*
X99500Y34500D02*X101000Y33000D01*
X102500Y31500D02*X103000Y31000D01*
X102500Y33500D02*Y31500D01*
X103000Y31000D02*X114500D01*
X101000Y35000D02*X102500Y33500D01*
Y35500D02*X104500Y33500D01*
X92500Y39000D02*Y35500D01*
X96100Y39500D02*X96500Y39000D01*
X96100Y40000D02*Y39500D01*
X94500Y40000D02*Y38000D01*
X93000Y39500D02*X92500Y39000D01*
X93000Y40000D02*Y39500D01*
X91500D02*X90500Y38500D01*
X91500Y40000D02*Y39500D01*
X98000D02*X97700Y40000D01*
X98000Y30000D02*Y39500D01*
X96500Y39000D02*Y31500D01*
X99500Y40500D02*Y34500D01*
X101000Y40500D02*Y35000D01*
X102500Y40500D02*Y35500D01*
X85500Y43000D02*Y41500D01*
X86500Y44000D02*X85500Y43000D01*
X83000Y47000D02*X82500Y46500D01*
X86500Y47000D02*X83000D01*
G54D13*X85000Y45500D02*X86500D01*
X82000Y42500D02*X85000Y45500D01*
X82000Y36000D02*Y42500D01*
G54D12*X107500Y62500D02*X106500Y63500D01*
X107000Y67000D02*X110000Y64000D01*
Y58500D02*Y64000D01*
X111500Y67000D02*X109500D01*
X114000Y64500D02*X111500Y67000D01*
X115500Y65500D02*X112000Y69000D01*
X99500Y61500D02*Y65500D01*
X104000Y61500D02*Y65500D01*
X102500Y61500D02*Y66000D01*
X101000Y61500D02*Y69500D01*
X107500Y58000D02*Y62500D01*
X108000Y56500D02*X110000Y58500D01*
X107500Y56500D02*X108000D01*
X109500Y55000D02*X112000Y57500D01*
X111500Y53500D02*X114000Y56000D01*
X107500Y53500D02*X111500D01*
X107500Y50100D02*X117000D01*
X107500Y51800D02*X114000D01*
X107500Y55000D02*X109500D01*
X112000Y59500D02*Y57500D01*
X114000Y56000D02*Y64500D01*
X115500Y53500D02*Y65500D01*
X114000Y52000D02*X115500Y53500D01*
X119500Y56000D02*Y53500D01*
Y60000D02*Y66500D01*
X78500Y54500D02*X78000Y55000D01*
X85000Y54500D02*X78500D01*
X85500Y55000D02*X85000Y54500D01*
X86500Y55000D02*X85500D01*
X90000Y61500D02*Y62000D01*
X91500Y61500D02*Y62500D01*
X93000Y61500D02*Y63000D01*
X94500Y61500D02*Y63500D01*
G54D13*X86500Y52000D02*Y53000D01*
G54D12*Y53200D02*X86400D01*
X85600Y52400D01*
G54D13*X82000Y52000D02*X86500D01*
G54D12*X85700Y52600D02*X84500D01*
X84000Y52100D01*
X86000Y58000D02*X83000Y61000D01*
X86500Y56500D02*X83000D01*
X86500Y58000D02*X86000D01*
X123500Y70500D02*G75*G03X119500Y66500I0J-4000D01*G01*
X117000Y50100D02*G75*G03X119500Y52600I0J2500D01*G01*
G54D15*X15500Y91000D03*
X15600Y16000D03*
G54D16*X91500Y18500D03*
X96500D03*
X101500D03*
X106500D03*
G54D11*G36*
X74728Y20272D02*Y16728D01*
X78272D01*
Y20272D01*
X74728D01*
G37*
G54D16*X81500Y18500D03*
X86500D03*
X101500Y23500D03*
X96500D03*
X106500D03*
G54D17*X123839Y79000D03*
G54D16*X91500Y23500D03*
X86500D03*
X81500D03*
X76500D03*
G54D18*X100937Y54937D03*
X97000D03*
X100937Y51000D03*
X97000D03*
X100937Y47063D03*
X97000D03*
X93063Y54937D03*
Y51000D03*
Y47063D03*
G54D19*X74004Y81437D02*X76169D01*
X74004Y79469D02*X76169D01*
X74004Y77500D02*X76169D01*
G54D20*X70074Y82393D02*Y81607D01*
X66926Y82393D02*Y81607D01*
G54D19*X74004Y75531D02*X76169D01*
X74004Y73563D02*X76169D01*
X78531Y73465D02*Y71299D01*
X80500Y73465D02*Y71299D01*
X82469Y73465D02*Y71299D01*
X84831Y75531D02*X86996D01*
X84831Y77500D02*X86996D01*
X84831Y79469D02*X86996D01*
X84831Y81437D02*X86996D01*
X82469Y83701D02*Y81535D01*
X80500Y83701D02*Y81535D01*
X78531Y83701D02*Y81535D01*
G54D20*X85574Y86893D02*Y86107D01*
X82426Y86893D02*Y86107D01*
G54D21*X33392Y96548D02*X42408D01*
G54D11*G36*
X114031Y82469D02*Y78531D01*
X117969D01*
Y82469D01*
X114031D01*
G37*
G36*
Y87469D02*Y83531D01*
X117969D01*
Y87469D01*
X114031D01*
G37*
G36*
X109531D02*Y83531D01*
X113469D01*
Y87469D01*
X109531D01*
G37*
G36*
Y82469D02*Y78531D01*
X113469D01*
Y82469D01*
X109531D01*
G37*
G36*
X98531Y87469D02*Y83531D01*
X102469D01*
Y87469D01*
X98531D01*
G37*
G36*
X94031D02*Y83531D01*
X97969D01*
Y87469D01*
X94031D01*
G37*
G36*
Y82469D02*Y78531D01*
X97969D01*
Y82469D01*
X94031D01*
G37*
G36*
X98531D02*Y78531D01*
X102469D01*
Y82469D01*
X98531D01*
G37*
G54D22*X124626Y79000D02*X140374D01*
G54D19*X84831Y73563D02*X86996D01*
G54D11*G36*
X94031Y72469D02*Y68531D01*
X97969D01*
Y72469D01*
X94031D01*
G37*
G36*
Y77469D02*Y73531D01*
X97969D01*
Y77469D01*
X94031D01*
G37*
G36*
X98531D02*Y73531D01*
X102469D01*
Y77469D01*
X98531D01*
G37*
G36*
Y72469D02*Y68531D01*
X102469D01*
Y72469D01*
X98531D01*
G37*
G36*
X109531D02*Y68531D01*
X113469D01*
Y72469D01*
X109531D01*
G37*
G36*
Y77469D02*Y73531D01*
X113469D01*
Y77469D01*
X109531D01*
G37*
G36*
X114031D02*Y73531D01*
X117969D01*
Y77469D01*
X114031D01*
G37*
G54D23*X132736Y41598D02*Y35693D01*
Y33724D02*X141161D01*
X143130D02*Y25063D01*
X127618D02*X141161D01*
G54D24*X118508Y21059D02*X119492D01*
X118508Y15941D02*X119492D01*
G54D20*X113607Y24426D02*X114393D01*
G54D24*X113508Y21059D02*X114492D01*
X113508Y15941D02*X114492D01*
G54D20*X118607Y24426D02*X119393D01*
G54D11*G36*
X114031Y72469D02*Y68531D01*
X117969D01*
Y72469D01*
X114031D01*
G37*
G54D23*X123839Y70732D02*X141161D01*
X132736Y62071D02*X141161D01*
G54D20*X122574Y63393D02*Y62607D01*
X119107Y56426D02*X119893D01*
X119107Y59574D02*X119893D01*
X119426Y63393D02*Y62607D01*
G54D23*X143130Y79787D02*Y62071D01*
Y52228D02*Y43567D01*
X132736Y60102D02*Y54197D01*
Y52228D02*X141161D01*
X132736Y43567D02*X141161D01*
G54D20*X122574Y53393D02*Y52607D01*
X119426Y53393D02*Y52607D01*
X120074Y43893D02*Y43107D01*
X116926Y43893D02*Y43107D01*
X120074Y47893D02*Y47107D01*
X116926Y47893D02*Y47107D01*
G54D25*X110362Y33531D02*X110756D01*
X110362Y37469D02*X110756D01*
X105244D02*X105638D01*
X105244Y33531D02*X105638D01*
G54D20*X114607Y39574D02*X115393D01*
X114607Y36426D02*X115393D01*
X113607Y27574D02*X114393D01*
X118607D02*X119393D01*
G54D26*X105563Y43913D02*X107728D01*
X105563Y45488D02*X107728D01*
X105563Y47063D02*X107728D01*
X105563Y48638D02*X107728D01*
X105563Y50213D02*X107728D01*
X105563Y51787D02*X107728D01*
X105563Y53362D02*X107728D01*
X105563Y54937D02*X107728D01*
X105563Y56512D02*X107728D01*
X105563Y58087D02*X107728D01*
G54D23*X81016Y61165D02*X82984D01*
X81016Y56835D02*X82984D01*
G54D20*X81574Y52393D02*Y51607D01*
X78426Y52393D02*Y51607D01*
G54D26*X104087Y61728D02*Y59563D01*
X102512Y61728D02*Y59563D01*
X100937Y61728D02*Y59563D01*
X99362Y61728D02*Y59563D01*
X97787Y61728D02*Y59563D01*
X96213Y61728D02*Y59563D01*
G54D20*X92607Y31926D02*X93393D01*
X92607Y35074D02*X93393D01*
G54D24*X87059Y35992D02*Y35008D01*
X81941Y35992D02*Y35008D01*
G54D21*X33392Y10052D02*X42408D01*
G54D27*X37900Y53300D03*
G54D20*X82074Y41393D02*Y40607D01*
X78926Y41393D02*Y40607D01*
G54D26*X89913Y42437D02*Y40272D01*
X91488Y42437D02*Y40272D01*
X93063Y42437D02*Y40272D01*
X94638Y42437D02*Y40272D01*
X96213Y42437D02*Y40272D01*
X97787Y42437D02*Y40272D01*
X99362Y42437D02*Y40272D01*
X100937Y42437D02*Y40272D01*
X102512Y42437D02*Y40272D01*
X104087Y42437D02*Y40272D01*
X94638Y61728D02*Y59563D01*
X93063Y61728D02*Y59563D01*
X91488Y61728D02*Y59563D01*
X89913Y61728D02*Y59563D01*
X86272Y58087D02*X88437D01*
X86272Y56512D02*X88437D01*
X86272Y54937D02*X88437D01*
X86272Y53362D02*X88437D01*
X86272Y51787D02*X88437D01*
X86272Y50213D02*X88437D01*
X86272Y48638D02*X88437D01*
X86272Y47063D02*X88437D01*
X86272Y45488D02*X88437D01*
X86272Y43913D02*X88437D01*
G54D11*G36*
X89717Y58283D02*Y43717D01*
X104283D01*
Y58283D01*
X89717D01*
G37*
G36*
X98067Y57217D02*Y52067D01*
X103217D01*
Y57217D01*
X98067D01*
G37*
G36*
X90783D02*Y52067D01*
X95933D01*
Y57217D01*
X90783D01*
G37*
G36*
X98067Y49933D02*Y44783D01*
X103217D01*
Y49933D01*
X98067D01*
G37*
G36*
X90783D02*Y44783D01*
X95933D01*
Y49933D01*
X90783D01*
G37*
G54D28*X32200Y66400D03*
X27100Y69700D03*
X20800D03*
X14900Y66300D03*
X12000Y58200D03*
X11800Y48800D03*
X14900Y41600D03*
X20800Y37500D03*
X27400Y21200D03*
X18400Y25900D03*
X27300Y37600D03*
X51500Y36800D03*
X60000Y40000D03*
X32200Y41800D03*
X42200Y61000D03*
X42300Y52800D03*
X42100Y45200D03*
Y37200D03*
X61600Y47200D03*
X56600Y52600D03*
X48800Y54800D03*
X55800Y57600D03*
X59700Y62000D03*
X58200Y68100D03*
X51000Y70200D03*
X47500Y85400D03*
X57400Y80700D03*
X42100Y70000D03*
X37400Y86900D03*
X27600Y85500D03*
X22800Y100900D03*
X22600Y6300D03*
X3900Y29000D03*
X4400Y38300D03*
Y48400D03*
X6400Y22300D03*
X4400Y59200D03*
Y68500D03*
X7000Y84100D03*
X4200Y79500D03*
X10600Y73400D03*
X10500Y34200D03*
X18200Y80800D03*
X84000Y52000D03*
X82500Y46500D03*
X78000Y55000D03*
X85500Y41500D03*
X88500Y31500D03*
X70400Y42200D03*
X67600Y15900D03*
X65200Y31800D03*
X57000Y24700D03*
X47500Y20800D03*
X36900Y19700D03*
X78300Y27800D03*
X104500Y83000D03*
X107500Y86000D03*
X111500Y85500D03*
Y80500D03*
X112000Y59500D03*
X116000Y85500D03*
Y80500D03*
X122300Y90400D03*
Y85000D03*
X116000Y75500D03*
X112000Y63000D03*
X106500Y63500D03*
X111500Y75500D03*
Y70500D03*
X116000D03*
X123000Y66000D03*
X94500Y38000D03*
X82000Y38500D03*
X118500Y36500D03*
X120000Y40000D03*
X122200Y36500D03*
Y31600D03*
X113000Y55000D03*
X113500Y52000D03*
Y45500D03*
X112000Y48000D03*
X122700Y16000D03*
X78500Y86000D03*
X60000Y90400D03*
X68000Y90500D03*
X76100D03*
X88900D03*
X82500Y64000D03*
X86000Y67500D03*
X88500Y69500D03*
X85500Y64500D03*
X89000Y77500D03*
X82700Y76400D03*
X96000Y80500D03*
Y85500D03*
X100500D03*
Y80500D03*
X96000Y70500D03*
Y75500D03*
X100500D03*
Y70500D03*
X75000Y71500D03*
X64600Y74400D03*
X70400Y63600D03*
G54D29*G54D30*G54D31*G54D32*G54D31*G54D33*M02*
