G04 start of page 6 for group -4063 idx -4063 *
G04 Title: (unknown), componentmask *
G04 Creator: pcb 20140316 *
G04 CreationDate: Mon Oct 20 11:42:40 2014 UTC *
G04 For: clemi *
G04 Format: Gerber/RS-274X *
G04 PCB-Dimensions (mil): 1470.00 1065.00 *
G04 PCB-Coordinate-Origin: lower left *
%MOIN*%
%FSLAX25Y25*%
%LNTOPMASK*%
%ADD66C,0.6930*%
%ADD65R,0.0128X0.0128*%
%ADD64R,0.0286X0.0286*%
%ADD63R,0.0355X0.0355*%
%ADD62R,0.0227X0.0227*%
%ADD61R,0.0384X0.0384*%
%ADD60R,0.1128X0.1128*%
%ADD59R,0.0257X0.0257*%
%ADD58R,0.0148X0.0148*%
%ADD57C,0.0306*%
%ADD56C,0.0228*%
%ADD55C,0.0001*%
%ADD54C,0.0384*%
%ADD53C,0.1653*%
G54D53*X15500Y91000D03*
X15600Y16000D03*
G54D54*X91500Y18500D03*
X96500D03*
X101500D03*
X106500D03*
G54D55*G36*
X74578Y20422D02*Y16578D01*
X78422D01*
Y20422D01*
X74578D01*
G37*
G54D54*X81500Y18500D03*
X86500D03*
X101500Y23500D03*
X96500D03*
X106500D03*
G54D56*X123839Y79000D03*
G54D54*X91500Y23500D03*
X86500D03*
X81500D03*
X76500D03*
G54D57*X100937Y54937D03*
X97000D03*
X100937Y51000D03*
X97000D03*
X100937Y47063D03*
X97000D03*
X93063Y54937D03*
Y51000D03*
Y47063D03*
G54D58*X74004Y81437D02*X76169D01*
X74004Y79469D02*X76169D01*
X74004Y77500D02*X76169D01*
G54D59*X70074Y82393D02*Y81607D01*
X66926Y82393D02*Y81607D01*
G54D58*X74004Y75531D02*X76169D01*
X74004Y73563D02*X76169D01*
X78531Y73465D02*Y71299D01*
X80500Y73465D02*Y71299D01*
X82469Y73465D02*Y71299D01*
X84831Y75531D02*X86996D01*
X84831Y77500D02*X86996D01*
X84831Y79469D02*X86996D01*
X84831Y81437D02*X86996D01*
X82469Y83701D02*Y81535D01*
X80500Y83701D02*Y81535D01*
X78531Y83701D02*Y81535D01*
G54D59*X85574Y86893D02*Y86107D01*
X82426Y86893D02*Y86107D01*
G54D60*X33392Y96548D02*X42408D01*
G54D55*G36*
X113881Y82619D02*Y78381D01*
X118119D01*
Y82619D01*
X113881D01*
G37*
G36*
Y87619D02*Y83381D01*
X118119D01*
Y87619D01*
X113881D01*
G37*
G36*
X109381D02*Y83381D01*
X113619D01*
Y87619D01*
X109381D01*
G37*
G36*
Y82619D02*Y78381D01*
X113619D01*
Y82619D01*
X109381D01*
G37*
G36*
X98381Y87619D02*Y83381D01*
X102619D01*
Y87619D01*
X98381D01*
G37*
G36*
X93881D02*Y83381D01*
X98119D01*
Y87619D01*
X93881D01*
G37*
G36*
Y82619D02*Y78381D01*
X98119D01*
Y82619D01*
X93881D01*
G37*
G36*
X98381D02*Y78381D01*
X102619D01*
Y82619D01*
X98381D01*
G37*
G54D61*X124626Y79000D02*X140374D01*
G54D58*X84831Y73563D02*X86996D01*
G54D55*G36*
X93881Y72619D02*Y68381D01*
X98119D01*
Y72619D01*
X93881D01*
G37*
G36*
Y77619D02*Y73381D01*
X98119D01*
Y77619D01*
X93881D01*
G37*
G36*
X98381D02*Y73381D01*
X102619D01*
Y77619D01*
X98381D01*
G37*
G36*
Y72619D02*Y68381D01*
X102619D01*
Y72619D01*
X98381D01*
G37*
G36*
X109381D02*Y68381D01*
X113619D01*
Y72619D01*
X109381D01*
G37*
G36*
Y77619D02*Y73381D01*
X113619D01*
Y77619D01*
X109381D01*
G37*
G36*
X113881D02*Y73381D01*
X118119D01*
Y77619D01*
X113881D01*
G37*
G54D62*X132736Y41598D02*Y35693D01*
Y33724D02*X141161D01*
X143130D02*Y25063D01*
X127618D02*X141161D01*
G54D63*X118508Y21059D02*X119492D01*
X118508Y15941D02*X119492D01*
G54D59*X113607Y24426D02*X114393D01*
G54D63*X113508Y21059D02*X114492D01*
X113508Y15941D02*X114492D01*
G54D59*X118607Y24426D02*X119393D01*
G54D55*G36*
X113881Y72619D02*Y68381D01*
X118119D01*
Y72619D01*
X113881D01*
G37*
G54D62*X123839Y70732D02*X141161D01*
X132736Y62071D02*X141161D01*
G54D59*X122574Y63393D02*Y62607D01*
X119107Y56426D02*X119893D01*
X119107Y59574D02*X119893D01*
X119426Y63393D02*Y62607D01*
G54D62*X143130Y79787D02*Y62071D01*
Y52228D02*Y43567D01*
X132736Y60102D02*Y54197D01*
Y52228D02*X141161D01*
X132736Y43567D02*X141161D01*
G54D59*X122574Y53393D02*Y52607D01*
X119426Y53393D02*Y52607D01*
X120074Y43893D02*Y43107D01*
X116926Y43893D02*Y43107D01*
X120074Y47893D02*Y47107D01*
X116926Y47893D02*Y47107D01*
G54D64*X110362Y33531D02*X110756D01*
X110362Y37469D02*X110756D01*
X105244D02*X105638D01*
X105244Y33531D02*X105638D01*
G54D59*X114607Y39574D02*X115393D01*
X114607Y36426D02*X115393D01*
X113607Y27574D02*X114393D01*
X118607D02*X119393D01*
G54D65*X105563Y43913D02*X107728D01*
X105563Y45488D02*X107728D01*
X105563Y47063D02*X107728D01*
X105563Y48638D02*X107728D01*
X105563Y50213D02*X107728D01*
X105563Y51787D02*X107728D01*
X105563Y53362D02*X107728D01*
X105563Y54937D02*X107728D01*
X105563Y56512D02*X107728D01*
X105563Y58087D02*X107728D01*
G54D62*X81016Y61165D02*X82984D01*
X81016Y56835D02*X82984D01*
G54D59*X81574Y52393D02*Y51607D01*
X78426Y52393D02*Y51607D01*
G54D65*X104087Y61728D02*Y59563D01*
X102512Y61728D02*Y59563D01*
X100937Y61728D02*Y59563D01*
X99362Y61728D02*Y59563D01*
X97787Y61728D02*Y59563D01*
X96213Y61728D02*Y59563D01*
G54D59*X92607Y31926D02*X93393D01*
X92607Y35074D02*X93393D01*
G54D63*X87059Y35992D02*Y35008D01*
X81941Y35992D02*Y35008D01*
G54D60*X33392Y10052D02*X42408D01*
G54D66*X37900Y53300D03*
G54D59*X82074Y41393D02*Y40607D01*
X78926Y41393D02*Y40607D01*
G54D65*X89913Y42437D02*Y40272D01*
X91488Y42437D02*Y40272D01*
X93063Y42437D02*Y40272D01*
X94638Y42437D02*Y40272D01*
X96213Y42437D02*Y40272D01*
X97787Y42437D02*Y40272D01*
X99362Y42437D02*Y40272D01*
X100937Y42437D02*Y40272D01*
X102512Y42437D02*Y40272D01*
X104087Y42437D02*Y40272D01*
X94638Y61728D02*Y59563D01*
X93063Y61728D02*Y59563D01*
X91488Y61728D02*Y59563D01*
X89913Y61728D02*Y59563D01*
X86272Y58087D02*X88437D01*
X86272Y56512D02*X88437D01*
X86272Y54937D02*X88437D01*
X86272Y53362D02*X88437D01*
X86272Y51787D02*X88437D01*
X86272Y50213D02*X88437D01*
X86272Y48638D02*X88437D01*
X86272Y47063D02*X88437D01*
X86272Y45488D02*X88437D01*
X86272Y43913D02*X88437D01*
G54D55*G36*
X89567Y58433D02*Y43567D01*
X104433D01*
Y58433D01*
X89567D01*
G37*
G36*
X97917Y57367D02*Y51917D01*
X103367D01*
Y57367D01*
X97917D01*
G37*
G36*
X90633D02*Y51917D01*
X96083D01*
Y57367D01*
X90633D01*
G37*
G36*
X97917Y50083D02*Y44633D01*
X103367D01*
Y50083D01*
X97917D01*
G37*
G36*
X90633D02*Y44633D01*
X96083D01*
Y50083D01*
X90633D01*
G37*
M02*
