G04 start of page 10 for group -3984 idx -3984 *
G04 Title: (unknown), fab *
G04 Creator: pcb 20140316 *
G04 CreationDate: Mon Oct 20 11:42:40 2014 UTC *
G04 For: clemi *
G04 Format: Gerber/RS-274X *
G04 PCB-Dimensions (mil): 1470.00 1065.00 *
G04 PCB-Coordinate-Origin: lower left *
%MOIN*%
%FSLAX25Y25*%
%LNFAB*%
%ADD92C,0.0001*%
%ADD91C,0.0100*%
%ADD90C,0.0075*%
%ADD89C,0.0060*%
%ADD88R,0.0080X0.0080*%
G54D88*X14700Y91000D02*G75*G03X16300Y91000I800J0D01*G01*
G75*G03X14700Y91000I-800J0D01*G01*
X14800Y16000D02*G75*G03X16400Y16000I800J0D01*G01*
G75*G03X14800Y16000I-800J0D01*G01*
X14200Y117750D02*G75*G03X15800Y117750I800J0D01*G01*
G75*G03X14200Y117750I-800J0D01*G01*
G54D89*X135000Y120000D02*X136500Y117000D01*
X138000Y120000D01*
X136500Y117000D02*Y114000D01*
X139800Y117300D02*X142050D01*
X139800Y114000D02*X142800D01*
X139800Y120000D02*Y114000D01*
Y120000D02*X142800D01*
X147600D02*X148350Y119250D01*
X145350Y120000D02*X147600D01*
X144600Y119250D02*X145350Y120000D01*
X144600Y119250D02*Y117750D01*
X145350Y117000D01*
X147600D01*
X148350Y116250D01*
Y114750D01*
X147600Y114000D02*X148350Y114750D01*
X145350Y114000D02*X147600D01*
X144600Y114750D02*X145350Y114000D01*
X98000Y119250D02*X98750Y120000D01*
X101000D01*
X101750Y119250D01*
Y117750D01*
X98000Y114000D02*X101750Y117750D01*
X98000Y114000D02*X101750D01*
X45000Y114750D02*X45750Y114000D01*
X45000Y119250D02*Y114750D01*
Y119250D02*X45750Y120000D01*
X47250D01*
X48000Y119250D01*
Y114750D01*
X47250Y114000D02*X48000Y114750D01*
X45750Y114000D02*X47250D01*
X45000Y115500D02*X48000Y118500D01*
X49800Y114000D02*X50550D01*
X52350Y114750D02*X53100Y114000D01*
X52350Y119250D02*Y114750D01*
Y119250D02*X53100Y120000D01*
X54600D01*
X55350Y119250D01*
Y114750D01*
X54600Y114000D02*X55350Y114750D01*
X53100Y114000D02*X54600D01*
X52350Y115500D02*X55350Y118500D01*
X57150Y114750D02*X57900Y114000D01*
X57150Y115950D02*Y114750D01*
Y115950D02*X58200Y117000D01*
X59100D01*
X60150Y115950D01*
Y114750D01*
X59400Y114000D02*X60150Y114750D01*
X57900Y114000D02*X59400D01*
X57150Y118050D02*X58200Y117000D01*
X57150Y119250D02*Y118050D01*
Y119250D02*X57900Y120000D01*
X59400D01*
X60150Y119250D01*
Y118050D01*
X59100Y117000D02*X60150Y118050D01*
X61950Y119250D02*X62700Y120000D01*
X64200D01*
X64950Y119250D01*
X64200Y114000D02*X64950Y114750D01*
X62700Y114000D02*X64200D01*
X61950Y114750D02*X62700Y114000D01*
Y117300D02*X64200D01*
X64950Y119250D02*Y118050D01*
Y116550D02*Y114750D01*
Y116550D02*X64200Y117300D01*
X64950Y118050D02*X64200Y117300D01*
X75300Y19700D02*X77700Y17300D01*
X75300D02*X77700Y19700D01*
X80300D02*X82700Y17300D01*
X80300D02*X82700Y19700D01*
X85300D02*X87700Y17300D01*
X85300D02*X87700Y19700D01*
X90300D02*X92700Y17300D01*
X90300D02*X92700Y19700D01*
X95300D02*X97700Y17300D01*
X95300D02*X97700Y19700D01*
X100300D02*X102700Y17300D01*
X100300D02*X102700Y19700D01*
X105300D02*X107700Y17300D01*
X105300D02*X107700Y19700D01*
X105300Y24700D02*X107700Y22300D01*
X105300D02*X107700Y24700D01*
X100300D02*X102700Y22300D01*
X100300D02*X102700Y24700D01*
X95300D02*X97700Y22300D01*
X95300D02*X97700Y24700D01*
X90300D02*X92700Y22300D01*
X90300D02*X92700Y24700D01*
X85300D02*X87700Y22300D01*
X85300D02*X87700Y24700D01*
X80300D02*X82700Y22300D01*
X80300D02*X82700Y24700D01*
X75300D02*X77700Y22300D01*
X75300D02*X77700Y24700D01*
X13800Y133950D02*X16200Y131550D01*
X13800D02*X16200Y133950D01*
X135000Y135000D02*X136500Y132000D01*
X138000Y135000D01*
X136500Y132000D02*Y129000D01*
X139800Y132300D02*X142050D01*
X139800Y129000D02*X142800D01*
X139800Y135000D02*Y129000D01*
Y135000D02*X142800D01*
X147600D02*X148350Y134250D01*
X145350Y135000D02*X147600D01*
X144600Y134250D02*X145350Y135000D01*
X144600Y134250D02*Y132750D01*
X145350Y132000D01*
X147600D01*
X148350Y131250D01*
Y129750D01*
X147600Y129000D02*X148350Y129750D01*
X145350Y129000D02*X147600D01*
X144600Y129750D02*X145350Y129000D01*
X98000Y133800D02*X99200Y135000D01*
Y129000D01*
X98000D02*X100250D01*
X102050Y131250D02*X105050Y135000D01*
X102050Y131250D02*X105800D01*
X105050Y135000D02*Y129000D01*
X45000Y129750D02*X45750Y129000D01*
X45000Y134250D02*Y129750D01*
Y134250D02*X45750Y135000D01*
X47250D01*
X48000Y134250D01*
Y129750D01*
X47250Y129000D02*X48000Y129750D01*
X45750Y129000D02*X47250D01*
X45000Y130500D02*X48000Y133500D01*
X49800Y129000D02*X50550D01*
X52350Y129750D02*X53100Y129000D01*
X52350Y134250D02*Y129750D01*
Y134250D02*X53100Y135000D01*
X54600D01*
X55350Y134250D01*
Y129750D01*
X54600Y129000D02*X55350Y129750D01*
X53100Y129000D02*X54600D01*
X52350Y130500D02*X55350Y133500D01*
X57150Y134250D02*X57900Y135000D01*
X60150D01*
X60900Y134250D01*
Y132750D01*
X57150Y129000D02*X60900Y132750D01*
X57150Y129000D02*X60900D01*
X62700Y129750D02*X63450Y129000D01*
X62700Y134250D02*Y129750D01*
Y134250D02*X63450Y135000D01*
X64950D01*
X65700Y134250D01*
Y129750D01*
X64950Y129000D02*X65700Y129750D01*
X63450Y129000D02*X64950D01*
X62700Y130500D02*X65700Y133500D01*
X123839Y80600D02*Y77400D01*
X122239Y79000D02*X125439D01*
X100937Y56537D02*Y53337D01*
X99337Y54937D02*X102537D01*
X97000Y56537D02*Y53337D01*
X95400Y54937D02*X98600D01*
X93063Y56537D02*Y53337D01*
X91463Y54937D02*X94663D01*
X100937Y52600D02*Y49400D01*
X99337Y51000D02*X102537D01*
X97000Y52600D02*Y49400D01*
X95400Y51000D02*X98600D01*
X93063Y52600D02*Y49400D01*
X91463Y51000D02*X94663D01*
X100937Y48663D02*Y45463D01*
X99337Y47063D02*X102537D01*
X97000Y48663D02*Y45463D01*
X95400Y47063D02*X98600D01*
X93063Y48663D02*Y45463D01*
X91463Y47063D02*X94663D01*
X15000Y149350D02*Y146150D01*
X13400Y147750D02*X16600D01*
X135000Y150000D02*X136500Y147000D01*
X138000Y150000D01*
X136500Y147000D02*Y144000D01*
X139800Y147300D02*X142050D01*
X139800Y144000D02*X142800D01*
X139800Y150000D02*Y144000D01*
Y150000D02*X142800D01*
X147600D02*X148350Y149250D01*
X145350Y150000D02*X147600D01*
X144600Y149250D02*X145350Y150000D01*
X144600Y149250D02*Y147750D01*
X145350Y147000D01*
X147600D01*
X148350Y146250D01*
Y144750D01*
X147600Y144000D02*X148350Y144750D01*
X145350Y144000D02*X147600D01*
X144600Y144750D02*X145350Y144000D01*
X98000Y148800D02*X99200Y150000D01*
Y144000D01*
X98000D02*X100250D01*
X102050Y144750D02*X102800Y144000D01*
X102050Y149250D02*Y144750D01*
Y149250D02*X102800Y150000D01*
X104300D01*
X105050Y149250D01*
Y144750D01*
X104300Y144000D02*X105050Y144750D01*
X102800Y144000D02*X104300D01*
X102050Y145500D02*X105050Y148500D01*
X45000Y144750D02*X45750Y144000D01*
X45000Y149250D02*Y144750D01*
Y149250D02*X45750Y150000D01*
X47250D01*
X48000Y149250D01*
Y144750D01*
X47250Y144000D02*X48000Y144750D01*
X45750Y144000D02*X47250D01*
X45000Y145500D02*X48000Y148500D01*
X49800Y144000D02*X50550D01*
X52350Y144750D02*X53100Y144000D01*
X52350Y149250D02*Y144750D01*
Y149250D02*X53100Y150000D01*
X54600D01*
X55350Y149250D01*
Y144750D01*
X54600Y144000D02*X55350Y144750D01*
X53100Y144000D02*X54600D01*
X52350Y145500D02*X55350Y148500D01*
X57150Y148800D02*X58350Y150000D01*
Y144000D01*
X57150D02*X59400D01*
X61200Y149250D02*X61950Y150000D01*
X63450D01*
X64200Y149250D01*
X63450Y144000D02*X64200Y144750D01*
X61950Y144000D02*X63450D01*
X61200Y144750D02*X61950Y144000D01*
Y147300D02*X63450D01*
X64200Y149250D02*Y148050D01*
Y146550D02*Y144750D01*
Y146550D02*X63450Y147300D01*
X64200Y148050D02*X63450Y147300D01*
X104500Y83000D02*Y81400D01*
Y83000D02*X105887Y83800D01*
X104500Y83000D02*X103113Y83800D01*
X107500Y86000D02*Y84400D01*
Y86000D02*X108887Y86800D01*
X107500Y86000D02*X106113Y86800D01*
X94500Y38000D02*Y36400D01*
Y38000D02*X95887Y38800D01*
X94500Y38000D02*X93113Y38800D01*
X82000Y38500D02*Y36900D01*
Y38500D02*X83387Y39300D01*
X82000Y38500D02*X80613Y39300D01*
X118500Y36500D02*Y34900D01*
Y36500D02*X119887Y37300D01*
X118500Y36500D02*X117113Y37300D01*
X82500Y64000D02*Y62400D01*
Y64000D02*X83887Y64800D01*
X82500Y64000D02*X81113Y64800D01*
X112000Y63000D02*Y61400D01*
Y63000D02*X113387Y63800D01*
X112000Y63000D02*X110613Y63800D01*
X113000Y55000D02*Y53400D01*
Y55000D02*X114387Y55800D01*
X113000Y55000D02*X111613Y55800D01*
X113500Y52000D02*Y50400D01*
Y52000D02*X114887Y52800D01*
X113500Y52000D02*X112113Y52800D01*
X84000Y52000D02*Y50400D01*
Y52000D02*X85387Y52800D01*
X84000Y52000D02*X82613Y52800D01*
X78500Y86000D02*Y84400D01*
Y86000D02*X79887Y86800D01*
X78500Y86000D02*X77113Y86800D01*
X86000Y67500D02*Y65900D01*
Y67500D02*X87387Y68300D01*
X86000Y67500D02*X84613Y68300D01*
X88500Y69500D02*Y67900D01*
Y69500D02*X89887Y70300D01*
X88500Y69500D02*X87113Y70300D01*
X85500Y64500D02*Y62900D01*
Y64500D02*X86887Y65300D01*
X85500Y64500D02*X84113Y65300D01*
X106500Y63500D02*Y61900D01*
Y63500D02*X107887Y64300D01*
X106500Y63500D02*X105113Y64300D01*
X89000Y77500D02*Y75900D01*
Y77500D02*X90387Y78300D01*
X89000Y77500D02*X87613Y78300D01*
X112000Y59500D02*Y57900D01*
Y59500D02*X113387Y60300D01*
X112000Y59500D02*X110613Y60300D01*
X96000Y80500D02*Y78900D01*
Y80500D02*X97387Y81300D01*
X96000Y80500D02*X94613Y81300D01*
X96000Y70500D02*Y68900D01*
Y70500D02*X97387Y71300D01*
X96000Y70500D02*X94613Y71300D01*
X96000Y75500D02*Y73900D01*
Y75500D02*X97387Y76300D01*
X96000Y75500D02*X94613Y76300D01*
X96000Y85500D02*Y83900D01*
Y85500D02*X97387Y86300D01*
X96000Y85500D02*X94613Y86300D01*
X100500Y85500D02*Y83900D01*
Y85500D02*X101887Y86300D01*
X100500Y85500D02*X99113Y86300D01*
X100500Y80500D02*Y78900D01*
Y80500D02*X101887Y81300D01*
X100500Y80500D02*X99113Y81300D01*
X100500Y75500D02*Y73900D01*
Y75500D02*X101887Y76300D01*
X100500Y75500D02*X99113Y76300D01*
X100500Y70500D02*Y68900D01*
Y70500D02*X101887Y71300D01*
X100500Y70500D02*X99113Y71300D01*
X111500Y85500D02*Y83900D01*
Y85500D02*X112887Y86300D01*
X111500Y85500D02*X110113Y86300D01*
X116000Y85500D02*Y83900D01*
Y85500D02*X117387Y86300D01*
X116000Y85500D02*X114613Y86300D01*
X116000Y75500D02*Y73900D01*
Y75500D02*X117387Y76300D01*
X116000Y75500D02*X114613Y76300D01*
X111500Y80500D02*Y78900D01*
Y80500D02*X112887Y81300D01*
X111500Y80500D02*X110113Y81300D01*
X111500Y75500D02*Y73900D01*
Y75500D02*X112887Y76300D01*
X111500Y75500D02*X110113Y76300D01*
X116000Y70500D02*Y68900D01*
Y70500D02*X117387Y71300D01*
X116000Y70500D02*X114613Y71300D01*
X116000Y80500D02*Y78900D01*
Y80500D02*X117387Y81300D01*
X116000Y80500D02*X114613Y81300D01*
X111500Y70500D02*Y68900D01*
Y70500D02*X112887Y71300D01*
X111500Y70500D02*X110113Y71300D01*
X113500Y45500D02*Y43900D01*
Y45500D02*X114887Y46300D01*
X113500Y45500D02*X112113Y46300D01*
X85500Y41500D02*Y39900D01*
Y41500D02*X86887Y42300D01*
X85500Y41500D02*X84113Y42300D01*
X82500Y46500D02*Y44900D01*
Y46500D02*X83887Y47300D01*
X82500Y46500D02*X81113Y47300D01*
X88500Y31500D02*Y29900D01*
Y31500D02*X89887Y32300D01*
X88500Y31500D02*X87113Y32300D01*
X78000Y55000D02*Y53400D01*
Y55000D02*X79387Y55800D01*
X78000Y55000D02*X76613Y55800D01*
X112000Y48000D02*Y46400D01*
Y48000D02*X113387Y48800D01*
X112000Y48000D02*X110613Y48800D01*
X120000Y40000D02*Y38400D01*
Y40000D02*X121387Y40800D01*
X120000Y40000D02*X118613Y40800D01*
X75000Y71500D02*Y69900D01*
Y71500D02*X76387Y72300D01*
X75000Y71500D02*X73613Y72300D01*
X123000Y66000D02*Y64400D01*
Y66000D02*X124387Y66800D01*
X123000Y66000D02*X121613Y66800D01*
X82700Y76400D02*Y74800D01*
Y76400D02*X84087Y77200D01*
X82700Y76400D02*X81313Y77200D01*
X32200Y66400D02*Y64800D01*
Y66400D02*X33587Y67200D01*
X32200Y66400D02*X30813Y67200D01*
X27100Y69700D02*Y68100D01*
Y69700D02*X28487Y70500D01*
X27100Y69700D02*X25713Y70500D01*
X20800Y69700D02*Y68100D01*
Y69700D02*X22187Y70500D01*
X20800Y69700D02*X19413Y70500D01*
X14900Y66300D02*Y64700D01*
Y66300D02*X16287Y67100D01*
X14900Y66300D02*X13513Y67100D01*
X12000Y58200D02*Y56600D01*
Y58200D02*X13387Y59000D01*
X12000Y58200D02*X10613Y59000D01*
X11800Y48800D02*Y47200D01*
Y48800D02*X13187Y49600D01*
X11800Y48800D02*X10413Y49600D01*
X14900Y41600D02*Y40000D01*
Y41600D02*X16287Y42400D01*
X14900Y41600D02*X13513Y42400D01*
X20800Y37500D02*Y35900D01*
Y37500D02*X22187Y38300D01*
X20800Y37500D02*X19413Y38300D01*
X27300Y37600D02*Y36000D01*
Y37600D02*X28687Y38400D01*
X27300Y37600D02*X25913Y38400D01*
X32200Y41800D02*Y40200D01*
Y41800D02*X33587Y42600D01*
X32200Y41800D02*X30813Y42600D01*
X42200Y61000D02*Y59400D01*
Y61000D02*X43587Y61800D01*
X42200Y61000D02*X40813Y61800D01*
X42300Y52800D02*Y51200D01*
Y52800D02*X43687Y53600D01*
X42300Y52800D02*X40913Y53600D01*
X42100Y45200D02*Y43600D01*
Y45200D02*X43487Y46000D01*
X42100Y45200D02*X40713Y46000D01*
X42100Y37200D02*Y35600D01*
Y37200D02*X43487Y38000D01*
X42100Y37200D02*X40713Y38000D01*
X51500Y36800D02*Y35200D01*
Y36800D02*X52887Y37600D01*
X51500Y36800D02*X50113Y37600D01*
X60000Y40000D02*Y38400D01*
Y40000D02*X61387Y40800D01*
X60000Y40000D02*X58613Y40800D01*
X61600Y47200D02*Y45600D01*
Y47200D02*X62987Y48000D01*
X61600Y47200D02*X60213Y48000D01*
X56600Y52600D02*Y51000D01*
Y52600D02*X57987Y53400D01*
X56600Y52600D02*X55213Y53400D01*
X48800Y54800D02*Y53200D01*
Y54800D02*X50187Y55600D01*
X48800Y54800D02*X47413Y55600D01*
X55800Y57600D02*Y56000D01*
Y57600D02*X57187Y58400D01*
X55800Y57600D02*X54413Y58400D01*
X59700Y62000D02*Y60400D01*
Y62000D02*X61087Y62800D01*
X59700Y62000D02*X58313Y62800D01*
X58200Y68100D02*Y66500D01*
Y68100D02*X59587Y68900D01*
X58200Y68100D02*X56813Y68900D01*
X51000Y70200D02*Y68600D01*
Y70200D02*X52387Y71000D01*
X51000Y70200D02*X49613Y71000D01*
X42100Y70000D02*Y68400D01*
Y70000D02*X43487Y70800D01*
X42100Y70000D02*X40713Y70800D01*
X60000Y90400D02*Y88800D01*
Y90400D02*X61387Y91200D01*
X60000Y90400D02*X58613Y91200D01*
X68000Y90500D02*Y88900D01*
Y90500D02*X69387Y91300D01*
X68000Y90500D02*X66613Y91300D01*
X76100Y90500D02*Y88900D01*
Y90500D02*X77487Y91300D01*
X76100Y90500D02*X74713Y91300D01*
X88900Y90500D02*Y88900D01*
Y90500D02*X90287Y91300D01*
X88900Y90500D02*X87513Y91300D01*
X122300Y90400D02*Y88800D01*
Y90400D02*X123687Y91200D01*
X122300Y90400D02*X120913Y91200D01*
X122300Y85000D02*Y83400D01*
Y85000D02*X123687Y85800D01*
X122300Y85000D02*X120913Y85800D01*
X122200Y36500D02*Y34900D01*
Y36500D02*X123587Y37300D01*
X122200Y36500D02*X120813Y37300D01*
X122200Y31600D02*Y30000D01*
Y31600D02*X123587Y32400D01*
X122200Y31600D02*X120813Y32400D01*
X122700Y16000D02*Y14400D01*
Y16000D02*X124087Y16800D01*
X122700Y16000D02*X121313Y16800D01*
X67600Y15900D02*Y14300D01*
Y15900D02*X68987Y16700D01*
X67600Y15900D02*X66213Y16700D01*
X22800Y100900D02*Y99300D01*
Y100900D02*X24187Y101700D01*
X22800Y100900D02*X21413Y101700D01*
X22600Y6300D02*Y4700D01*
Y6300D02*X23987Y7100D01*
X22600Y6300D02*X21213Y7100D01*
X3900Y29000D02*Y27400D01*
Y29000D02*X5287Y29800D01*
X3900Y29000D02*X2513Y29800D01*
X4400Y38300D02*Y36700D01*
Y38300D02*X5787Y39100D01*
X4400Y38300D02*X3013Y39100D01*
X4400Y48400D02*Y46800D01*
Y48400D02*X5787Y49200D01*
X4400Y48400D02*X3013Y49200D01*
X4400Y59200D02*Y57600D01*
Y59200D02*X5787Y60000D01*
X4400Y59200D02*X3013Y60000D01*
X4400Y68500D02*Y66900D01*
Y68500D02*X5787Y69300D01*
X4400Y68500D02*X3013Y69300D01*
X7000Y84100D02*Y82500D01*
Y84100D02*X8387Y84900D01*
X7000Y84100D02*X5613Y84900D01*
X37400Y86900D02*Y85300D01*
Y86900D02*X38787Y87700D01*
X37400Y86900D02*X36013Y87700D01*
X47500Y85400D02*Y83800D01*
Y85400D02*X48887Y86200D01*
X47500Y85400D02*X46113Y86200D01*
X57400Y80700D02*Y79100D01*
Y80700D02*X58787Y81500D01*
X57400Y80700D02*X56013Y81500D01*
X64600Y74400D02*Y72800D01*
Y74400D02*X65987Y75200D01*
X64600Y74400D02*X63213Y75200D01*
X70400Y63600D02*Y62000D01*
Y63600D02*X71787Y64400D01*
X70400Y63600D02*X69013Y64400D01*
X70400Y42200D02*Y40600D01*
Y42200D02*X71787Y43000D01*
X70400Y42200D02*X69013Y43000D01*
X65200Y31800D02*Y30200D01*
Y31800D02*X66587Y32600D01*
X65200Y31800D02*X63813Y32600D01*
X57000Y24700D02*Y23100D01*
Y24700D02*X58387Y25500D01*
X57000Y24700D02*X55613Y25500D01*
X47500Y20800D02*Y19200D01*
Y20800D02*X48887Y21600D01*
X47500Y20800D02*X46113Y21600D01*
X36900Y19700D02*Y18100D01*
Y19700D02*X38287Y20500D01*
X36900Y19700D02*X35513Y20500D01*
X10600Y73400D02*Y71800D01*
Y73400D02*X11987Y74200D01*
X10600Y73400D02*X9213Y74200D01*
X18200Y80800D02*Y79200D01*
Y80800D02*X19587Y81600D01*
X18200Y80800D02*X16813Y81600D01*
X27600Y85500D02*Y83900D01*
Y85500D02*X28987Y86300D01*
X27600Y85500D02*X26213Y86300D01*
X27400Y21200D02*Y19600D01*
Y21200D02*X28787Y22000D01*
X27400Y21200D02*X26013Y22000D01*
X18400Y25900D02*Y24300D01*
Y25900D02*X19787Y26700D01*
X18400Y25900D02*X17013Y26700D01*
X10500Y34200D02*Y32600D01*
Y34200D02*X11887Y35000D01*
X10500Y34200D02*X9113Y35000D01*
X78300Y27800D02*Y26200D01*
Y27800D02*X79687Y28600D01*
X78300Y27800D02*X76913Y28600D01*
X6400Y22300D02*Y20700D01*
Y22300D02*X7787Y23100D01*
X6400Y22300D02*X5013Y23100D01*
X4200Y79500D02*Y77900D01*
Y79500D02*X5587Y80300D01*
X4200Y79500D02*X2813Y80300D01*
X15000Y162750D02*Y161150D01*
Y162750D02*X16387Y163550D01*
X15000Y162750D02*X13613Y163550D01*
X135000Y165000D02*X136500Y162000D01*
X138000Y165000D01*
X136500Y162000D02*Y159000D01*
X139800Y162300D02*X142050D01*
X139800Y159000D02*X142800D01*
X139800Y165000D02*Y159000D01*
Y165000D02*X142800D01*
X147600D02*X148350Y164250D01*
X145350Y165000D02*X147600D01*
X144600Y164250D02*X145350Y165000D01*
X144600Y164250D02*Y162750D01*
X145350Y162000D01*
X147600D01*
X148350Y161250D01*
Y159750D01*
X147600Y159000D02*X148350Y159750D01*
X145350Y159000D02*X147600D01*
X144600Y159750D02*X145350Y159000D01*
X98000Y163800D02*X99200Y165000D01*
Y159000D01*
X98000D02*X100250D01*
X102050Y159750D02*X102800Y159000D01*
X102050Y164250D02*Y159750D01*
Y164250D02*X102800Y165000D01*
X104300D01*
X105050Y164250D01*
Y159750D01*
X104300Y159000D02*X105050Y159750D01*
X102800Y159000D02*X104300D01*
X102050Y160500D02*X105050Y163500D01*
X106850Y161250D02*X109850Y165000D01*
X106850Y161250D02*X110600D01*
X109850Y165000D02*Y159000D01*
X45000Y159750D02*X45750Y159000D01*
X45000Y164250D02*Y159750D01*
Y164250D02*X45750Y165000D01*
X47250D01*
X48000Y164250D01*
Y159750D01*
X47250Y159000D02*X48000Y159750D01*
X45750Y159000D02*X47250D01*
X45000Y160500D02*X48000Y163500D01*
X49800Y159000D02*X50550D01*
X52350Y159750D02*X53100Y159000D01*
X52350Y164250D02*Y159750D01*
Y164250D02*X53100Y165000D01*
X54600D01*
X55350Y164250D01*
Y159750D01*
X54600Y159000D02*X55350Y159750D01*
X53100Y159000D02*X54600D01*
X52350Y160500D02*X55350Y163500D01*
X57150Y163800D02*X58350Y165000D01*
Y159000D01*
X57150D02*X59400D01*
X61200Y164250D02*X61950Y165000D01*
X64200D01*
X64950Y164250D01*
Y162750D01*
X61200Y159000D02*X64950Y162750D01*
X61200Y159000D02*X64950D01*
X3000Y180000D02*X3750Y179250D01*
X750Y180000D02*X3000D01*
X0Y179250D02*X750Y180000D01*
X0Y179250D02*Y177750D01*
X750Y177000D01*
X3000D01*
X3750Y176250D01*
Y174750D01*
X3000Y174000D02*X3750Y174750D01*
X750Y174000D02*X3000D01*
X0Y174750D02*X750Y174000D01*
X5550Y177000D02*Y174750D01*
X6300Y174000D01*
X8550Y177000D02*Y172500D01*
X7800Y171750D02*X8550Y172500D01*
X6300Y171750D02*X7800D01*
X5550Y172500D02*X6300Y171750D01*
Y174000D02*X7800D01*
X8550Y174750D01*
X11100Y176250D02*Y174000D01*
Y176250D02*X11850Y177000D01*
X12600D01*
X13350Y176250D01*
Y174000D01*
Y176250D02*X14100Y177000D01*
X14850D01*
X15600Y176250D01*
Y174000D01*
X10350Y177000D02*X11100Y176250D01*
X17400Y180000D02*Y174000D01*
Y174750D02*X18150Y174000D01*
X19650D01*
X20400Y174750D01*
Y176250D02*Y174750D01*
X19650Y177000D02*X20400Y176250D01*
X18150Y177000D02*X19650D01*
X17400Y176250D02*X18150Y177000D01*
X22200Y176250D02*Y174750D01*
Y176250D02*X22950Y177000D01*
X24450D01*
X25200Y176250D01*
Y174750D01*
X24450Y174000D02*X25200Y174750D01*
X22950Y174000D02*X24450D01*
X22200Y174750D02*X22950Y174000D01*
X27000Y180000D02*Y174750D01*
X27750Y174000D01*
X0Y170750D02*X29250D01*
X41750Y180000D02*Y174000D01*
X43700Y180000D02*X44750Y178950D01*
Y175050D01*
X43700Y174000D02*X44750Y175050D01*
X41000Y174000D02*X43700D01*
X41000Y180000D02*X43700D01*
G54D90*X46550Y178500D02*Y178350D01*
G54D89*Y176250D02*Y174000D01*
X50300Y177000D02*X51050Y176250D01*
X48800Y177000D02*X50300D01*
X48050Y176250D02*X48800Y177000D01*
X48050Y176250D02*Y174750D01*
X48800Y174000D01*
X51050Y177000D02*Y174750D01*
X51800Y174000D01*
X48800D02*X50300D01*
X51050Y174750D01*
X54350Y176250D02*Y174000D01*
Y176250D02*X55100Y177000D01*
X55850D01*
X56600Y176250D01*
Y174000D01*
Y176250D02*X57350Y177000D01*
X58100D01*
X58850Y176250D01*
Y174000D01*
X53600Y177000D02*X54350Y176250D01*
X60650Y174000D02*X61400D01*
X65900Y174750D02*X66650Y174000D01*
X65900Y179250D02*X66650Y180000D01*
X65900Y179250D02*Y174750D01*
X68450Y180000D02*X69950D01*
X69200D02*Y174000D01*
X68450D02*X69950D01*
X72500Y176250D02*Y174000D01*
Y176250D02*X73250Y177000D01*
X74000D01*
X74750Y176250D01*
Y174000D01*
X71750Y177000D02*X72500Y176250D01*
X77300Y177000D02*X79550D01*
X76550Y176250D02*X77300Y177000D01*
X76550Y176250D02*Y174750D01*
X77300Y174000D01*
X79550D01*
X81350Y180000D02*Y174000D01*
Y176250D02*X82100Y177000D01*
X83600D01*
X84350Y176250D01*
Y174000D01*
X86150Y180000D02*X86900Y179250D01*
Y174750D01*
X86150Y174000D02*X86900Y174750D01*
X41000Y170750D02*X88700D01*
X96050Y174000D02*X98000D01*
X95000Y175050D02*X96050Y174000D01*
X95000Y178950D02*Y175050D01*
Y178950D02*X96050Y180000D01*
X98000D01*
X99800Y176250D02*Y174750D01*
Y176250D02*X100550Y177000D01*
X102050D01*
X102800Y176250D01*
Y174750D01*
X102050Y174000D02*X102800Y174750D01*
X100550Y174000D02*X102050D01*
X99800Y174750D02*X100550Y174000D01*
X104600Y177000D02*Y174750D01*
X105350Y174000D01*
X106850D01*
X107600Y174750D01*
Y177000D02*Y174750D01*
X110150Y176250D02*Y174000D01*
Y176250D02*X110900Y177000D01*
X111650D01*
X112400Y176250D01*
Y174000D01*
X109400Y177000D02*X110150Y176250D01*
X114950Y180000D02*Y174750D01*
X115700Y174000D01*
X114200Y177750D02*X115700D01*
X95000Y170750D02*X117200D01*
X130750Y180000D02*Y174000D01*
X130000Y180000D02*X133000D01*
X133750Y179250D01*
Y177750D01*
X133000Y177000D02*X133750Y177750D01*
X130750Y177000D02*X133000D01*
X135550Y180000D02*Y174750D01*
X136300Y174000D01*
X140050Y177000D02*X140800Y176250D01*
X138550Y177000D02*X140050D01*
X137800Y176250D02*X138550Y177000D01*
X137800Y176250D02*Y174750D01*
X138550Y174000D01*
X140800Y177000D02*Y174750D01*
X141550Y174000D01*
X138550D02*X140050D01*
X140800Y174750D01*
X144100Y180000D02*Y174750D01*
X144850Y174000D01*
X143350Y177750D02*X144850D01*
X147100Y174000D02*X149350D01*
X146350Y174750D02*X147100Y174000D01*
X146350Y176250D02*Y174750D01*
Y176250D02*X147100Y177000D01*
X148600D01*
X149350Y176250D01*
X146350Y175500D02*X149350D01*
Y176250D02*Y175500D01*
X154150Y180000D02*Y174000D01*
X153400D02*X154150Y174750D01*
X151900Y174000D02*X153400D01*
X151150Y174750D02*X151900Y174000D01*
X151150Y176250D02*Y174750D01*
Y176250D02*X151900Y177000D01*
X153400D01*
X154150Y176250D01*
X157450Y177000D02*Y176250D01*
Y174750D02*Y174000D01*
X155950Y179250D02*Y178500D01*
Y179250D02*X156700Y180000D01*
X158200D01*
X158950Y179250D01*
Y178500D01*
X157450Y177000D02*X158950Y178500D01*
X130000Y170750D02*X160750D01*
X0Y195000D02*X3000D01*
X1500D02*Y189000D01*
X4800Y195000D02*Y189000D01*
Y191250D02*X5550Y192000D01*
X7050D01*
X7800Y191250D01*
Y189000D01*
X10350D02*X12600D01*
X9600Y189750D02*X10350Y189000D01*
X9600Y191250D02*Y189750D01*
Y191250D02*X10350Y192000D01*
X11850D01*
X12600Y191250D01*
X9600Y190500D02*X12600D01*
Y191250D02*Y190500D01*
X15150Y191250D02*Y189000D01*
Y191250D02*X15900Y192000D01*
X17400D01*
X14400D02*X15150Y191250D01*
X19950Y189000D02*X22200D01*
X19200Y189750D02*X19950Y189000D01*
X19200Y191250D02*Y189750D01*
Y191250D02*X19950Y192000D01*
X21450D01*
X22200Y191250D01*
X19200Y190500D02*X22200D01*
Y191250D02*Y190500D01*
X28950Y192000D02*X29700Y191250D01*
X27450Y192000D02*X28950D01*
X26700Y191250D02*X27450Y192000D01*
X26700Y191250D02*Y189750D01*
X27450Y189000D01*
X29700Y192000D02*Y189750D01*
X30450Y189000D01*
X27450D02*X28950D01*
X29700Y189750D01*
X33000Y191250D02*Y189000D01*
Y191250D02*X33750Y192000D01*
X35250D01*
X32250D02*X33000Y191250D01*
X37800Y189000D02*X40050D01*
X37050Y189750D02*X37800Y189000D01*
X37050Y191250D02*Y189750D01*
Y191250D02*X37800Y192000D01*
X39300D01*
X40050Y191250D01*
X37050Y190500D02*X40050D01*
Y191250D02*Y190500D01*
X44550Y191250D02*X47550Y195000D01*
X44550Y191250D02*X48300D01*
X47550Y195000D02*Y189000D01*
X55800Y195000D02*Y189000D01*
X55050D02*X55800Y189750D01*
X53550Y189000D02*X55050D01*
X52800Y189750D02*X53550Y189000D01*
X52800Y191250D02*Y189750D01*
Y191250D02*X53550Y192000D01*
X55050D01*
X55800Y191250D01*
G54D90*X57600Y193500D02*Y193350D01*
G54D89*Y191250D02*Y189000D01*
X59850Y194250D02*Y189000D01*
Y194250D02*X60600Y195000D01*
X61350D01*
X59100Y192000D02*X60600D01*
X63600Y194250D02*Y189000D01*
Y194250D02*X64350Y195000D01*
X65100D01*
X62850Y192000D02*X64350D01*
X67350Y189000D02*X69600D01*
X66600Y189750D02*X67350Y189000D01*
X66600Y191250D02*Y189750D01*
Y191250D02*X67350Y192000D01*
X68850D01*
X69600Y191250D01*
X66600Y190500D02*X69600D01*
Y191250D02*Y190500D01*
X72150Y191250D02*Y189000D01*
Y191250D02*X72900Y192000D01*
X74400D01*
X71400D02*X72150Y191250D01*
X76950Y189000D02*X79200D01*
X76200Y189750D02*X76950Y189000D01*
X76200Y191250D02*Y189750D01*
Y191250D02*X76950Y192000D01*
X78450D01*
X79200Y191250D01*
X76200Y190500D02*X79200D01*
Y191250D02*Y190500D01*
X81750Y191250D02*Y189000D01*
Y191250D02*X82500Y192000D01*
X83250D01*
X84000Y191250D01*
Y189000D01*
X81000Y192000D02*X81750Y191250D01*
X86550Y195000D02*Y189750D01*
X87300Y189000D01*
X85800Y192750D02*X87300D01*
X94500Y195000D02*Y189000D01*
X93750D02*X94500Y189750D01*
X92250Y189000D02*X93750D01*
X91500Y189750D02*X92250Y189000D01*
X91500Y191250D02*Y189750D01*
Y191250D02*X92250Y192000D01*
X93750D01*
X94500Y191250D01*
X97050D02*Y189000D01*
Y191250D02*X97800Y192000D01*
X99300D01*
X96300D02*X97050Y191250D01*
G54D90*X101100Y193500D02*Y193350D01*
G54D89*Y191250D02*Y189000D01*
X102600Y195000D02*Y189750D01*
X103350Y189000D01*
X104850Y195000D02*Y189750D01*
X105600Y189000D01*
X110550D02*X112800D01*
X113550Y189750D01*
X112800Y190500D02*X113550Y189750D01*
X110550Y190500D02*X112800D01*
X109800Y191250D02*X110550Y190500D01*
X109800Y191250D02*X110550Y192000D01*
X112800D01*
X113550Y191250D01*
X109800Y189750D02*X110550Y189000D01*
G54D90*X115350Y193500D02*Y193350D01*
G54D89*Y191250D02*Y189000D01*
X116850Y192000D02*X119850D01*
X116850Y189000D02*X119850Y192000D01*
X116850Y189000D02*X119850D01*
X122400D02*X124650D01*
X121650Y189750D02*X122400Y189000D01*
X121650Y191250D02*Y189750D01*
Y191250D02*X122400Y192000D01*
X123900D01*
X124650Y191250D01*
X121650Y190500D02*X124650D01*
Y191250D02*Y190500D01*
X127200Y189000D02*X129450D01*
X130200Y189750D01*
X129450Y190500D02*X130200Y189750D01*
X127200Y190500D02*X129450D01*
X126450Y191250D02*X127200Y190500D01*
X126450Y191250D02*X127200Y192000D01*
X129450D01*
X130200Y191250D01*
X126450Y189750D02*X127200Y189000D01*
X134700Y192000D02*Y189750D01*
X135450Y189000D01*
X136950D01*
X137700Y189750D01*
Y192000D02*Y189750D01*
X140250Y189000D02*X142500D01*
X143250Y189750D01*
X142500Y190500D02*X143250Y189750D01*
X140250Y190500D02*X142500D01*
X139500Y191250D02*X140250Y190500D01*
X139500Y191250D02*X140250Y192000D01*
X142500D01*
X143250Y191250D01*
X139500Y189750D02*X140250Y189000D01*
X145800D02*X148050D01*
X145050Y189750D02*X145800Y189000D01*
X145050Y191250D02*Y189750D01*
Y191250D02*X145800Y192000D01*
X147300D01*
X148050Y191250D01*
X145050Y190500D02*X148050D01*
Y191250D02*Y190500D01*
X152850Y195000D02*Y189000D01*
X152100D02*X152850Y189750D01*
X150600Y189000D02*X152100D01*
X149850Y189750D02*X150600Y189000D01*
X149850Y191250D02*Y189750D01*
Y191250D02*X150600Y192000D01*
X152100D01*
X152850Y191250D01*
G54D90*X157350Y193500D02*Y193350D01*
G54D89*Y191250D02*Y189000D01*
X159600Y191250D02*Y189000D01*
Y191250D02*X160350Y192000D01*
X161100D01*
X161850Y191250D01*
Y189000D01*
X158850Y192000D02*X159600Y191250D01*
X167100Y195000D02*Y189750D01*
X167850Y189000D01*
X166350Y192750D02*X167850D01*
X169350Y195000D02*Y189000D01*
Y191250D02*X170100Y192000D01*
X171600D01*
X172350Y191250D01*
Y189000D01*
G54D90*X174150Y193500D02*Y193350D01*
G54D89*Y191250D02*Y189000D01*
X176400D02*X178650D01*
X179400Y189750D01*
X178650Y190500D02*X179400Y189750D01*
X176400Y190500D02*X178650D01*
X175650Y191250D02*X176400Y190500D01*
X175650Y191250D02*X176400Y192000D01*
X178650D01*
X179400Y191250D01*
X175650Y189750D02*X176400Y189000D01*
X183900Y195000D02*Y189750D01*
X184650Y189000D01*
X188400Y192000D02*X189150Y191250D01*
X186900Y192000D02*X188400D01*
X186150Y191250D02*X186900Y192000D01*
X186150Y191250D02*Y189750D01*
X186900Y189000D01*
X189150Y192000D02*Y189750D01*
X189900Y189000D01*
X186900D02*X188400D01*
X189150Y189750D01*
X191700Y192000D02*Y189750D01*
X192450Y189000D01*
X194700Y192000D02*Y187500D01*
X193950Y186750D02*X194700Y187500D01*
X192450Y186750D02*X193950D01*
X191700Y187500D02*X192450Y186750D01*
Y189000D02*X193950D01*
X194700Y189750D01*
X196500Y191250D02*Y189750D01*
Y191250D02*X197250Y192000D01*
X198750D01*
X199500Y191250D01*
Y189750D01*
X198750Y189000D02*X199500Y189750D01*
X197250Y189000D02*X198750D01*
X196500Y189750D02*X197250Y189000D01*
X201300Y192000D02*Y189750D01*
X202050Y189000D01*
X203550D01*
X204300Y189750D01*
Y192000D02*Y189750D01*
X206850Y195000D02*Y189750D01*
X207600Y189000D01*
X206100Y192750D02*X207600D01*
X209100Y187500D02*X210600Y189000D01*
X215100Y193800D02*X216300Y195000D01*
Y189000D01*
X215100D02*X217350D01*
X219150Y194250D02*X219900Y195000D01*
X221400D01*
X222150Y194250D01*
X221400Y189000D02*X222150Y189750D01*
X219900Y189000D02*X221400D01*
X219150Y189750D02*X219900Y189000D01*
Y192300D02*X221400D01*
X222150Y194250D02*Y193050D01*
Y191550D02*Y189750D01*
Y191550D02*X221400Y192300D01*
X222150Y193050D02*X221400Y192300D01*
X223950Y189750D02*X224700Y189000D01*
X223950Y194250D02*Y189750D01*
Y194250D02*X224700Y195000D01*
X226200D01*
X226950Y194250D01*
Y189750D01*
X226200Y189000D02*X226950Y189750D01*
X224700Y189000D02*X226200D01*
X223950Y190500D02*X226950Y193500D01*
X231450Y195000D02*Y189000D01*
Y191250D02*X232200Y192000D01*
X233700D01*
X234450Y191250D01*
Y189000D01*
X236250Y191250D02*Y189750D01*
Y191250D02*X237000Y192000D01*
X238500D01*
X239250Y191250D01*
Y189750D01*
X238500Y189000D02*X239250Y189750D01*
X237000Y189000D02*X238500D01*
X236250Y189750D02*X237000Y189000D01*
X241050Y195000D02*Y189750D01*
X241800Y189000D01*
X244050D02*X246300D01*
X243300Y189750D02*X244050Y189000D01*
X243300Y191250D02*Y189750D01*
Y191250D02*X244050Y192000D01*
X245550D01*
X246300Y191250D01*
X243300Y190500D02*X246300D01*
Y191250D02*Y190500D01*
X248850Y189000D02*X251100D01*
X251850Y189750D01*
X251100Y190500D02*X251850Y189750D01*
X248850Y190500D02*X251100D01*
X248100Y191250D02*X248850Y190500D01*
X248100Y191250D02*X248850Y192000D01*
X251100D01*
X251850Y191250D01*
X248100Y189750D02*X248850Y189000D01*
X257100Y195000D02*Y189750D01*
X257850Y189000D01*
X256350Y192750D02*X257850D01*
X259350Y191250D02*Y189750D01*
Y191250D02*X260100Y192000D01*
X261600D01*
X262350Y191250D01*
Y189750D01*
X261600Y189000D02*X262350Y189750D01*
X260100Y189000D02*X261600D01*
X259350Y189750D02*X260100Y189000D01*
X264900Y195000D02*Y189750D01*
X265650Y189000D01*
X264150Y192750D02*X265650D01*
X269400Y192000D02*X270150Y191250D01*
X267900Y192000D02*X269400D01*
X267150Y191250D02*X267900Y192000D01*
X267150Y191250D02*Y189750D01*
X267900Y189000D01*
X270150Y192000D02*Y189750D01*
X270900Y189000D01*
X267900D02*X269400D01*
X270150Y189750D01*
X272700Y195000D02*Y189750D01*
X273450Y189000D01*
G54D91*X51500Y104000D02*Y94500D01*
X53500Y92500D01*
X140000D01*
X146000Y86500D01*
Y19500D01*
X140000Y13500D01*
X53500D01*
X51500Y11500D01*
Y2000D01*
X50500Y1000D01*
X26000D01*
X51500Y104000D02*X50500Y105000D01*
X26000D01*
X1500Y80500D02*Y25000D01*
X26000Y105000D02*G75*G03X1500Y80500I0J-24500D01*G01*
X26000Y1000D02*G75*G02X1500Y25500I0J24500D01*G01*
G54D89*X0Y-9500D02*X3000D01*
X3750Y-8750D01*
Y-6950D02*Y-8750D01*
X3000Y-6200D02*X3750Y-6950D01*
X750Y-6200D02*X3000D01*
X750Y-3500D02*Y-9500D01*
X0Y-3500D02*X3000D01*
X3750Y-4250D01*
Y-5450D01*
X3000Y-6200D02*X3750Y-5450D01*
X5550Y-7250D02*Y-8750D01*
Y-7250D02*X6300Y-6500D01*
X7800D01*
X8550Y-7250D01*
Y-8750D01*
X7800Y-9500D02*X8550Y-8750D01*
X6300Y-9500D02*X7800D01*
X5550Y-8750D02*X6300Y-9500D01*
X12600Y-6500D02*X13350Y-7250D01*
X11100Y-6500D02*X12600D01*
X10350Y-7250D02*X11100Y-6500D01*
X10350Y-7250D02*Y-8750D01*
X11100Y-9500D01*
X13350Y-6500D02*Y-8750D01*
X14100Y-9500D01*
X11100D02*X12600D01*
X13350Y-8750D01*
X16650Y-7250D02*Y-9500D01*
Y-7250D02*X17400Y-6500D01*
X18900D01*
X15900D02*X16650Y-7250D01*
X23700Y-3500D02*Y-9500D01*
X22950D02*X23700Y-8750D01*
X21450Y-9500D02*X22950D01*
X20700Y-8750D02*X21450Y-9500D01*
X20700Y-7250D02*Y-8750D01*
Y-7250D02*X21450Y-6500D01*
X22950D01*
X23700Y-7250D01*
X28200D02*Y-8750D01*
Y-7250D02*X28950Y-6500D01*
X30450D01*
X31200Y-7250D01*
Y-8750D01*
X30450Y-9500D02*X31200Y-8750D01*
X28950Y-9500D02*X30450D01*
X28200Y-8750D02*X28950Y-9500D01*
X33000Y-6500D02*Y-8750D01*
X33750Y-9500D01*
X35250D01*
X36000Y-8750D01*
Y-6500D02*Y-8750D01*
X38550Y-3500D02*Y-8750D01*
X39300Y-9500D01*
X37800Y-5750D02*X39300D01*
X40800Y-3500D02*Y-8750D01*
X41550Y-9500D01*
G54D90*X43050Y-5000D02*Y-5150D01*
G54D89*Y-7250D02*Y-9500D01*
X45300Y-7250D02*Y-9500D01*
Y-7250D02*X46050Y-6500D01*
X46800D01*
X47550Y-7250D01*
Y-9500D01*
X44550Y-6500D02*X45300Y-7250D01*
X50100Y-9500D02*X52350D01*
X49350Y-8750D02*X50100Y-9500D01*
X49350Y-7250D02*Y-8750D01*
Y-7250D02*X50100Y-6500D01*
X51600D01*
X52350Y-7250D01*
X49350Y-8000D02*X52350D01*
Y-7250D02*Y-8000D01*
G54D90*X56850Y-5000D02*Y-5150D01*
G54D89*Y-7250D02*Y-9500D01*
X59100D02*X61350D01*
X62100Y-8750D01*
X61350Y-8000D02*X62100Y-8750D01*
X59100Y-8000D02*X61350D01*
X58350Y-7250D02*X59100Y-8000D01*
X58350Y-7250D02*X59100Y-6500D01*
X61350D01*
X62100Y-7250D01*
X58350Y-8750D02*X59100Y-9500D01*
X67350Y-3500D02*Y-8750D01*
X68100Y-9500D01*
X66600Y-5750D02*X68100D01*
X69600Y-3500D02*Y-9500D01*
Y-7250D02*X70350Y-6500D01*
X71850D01*
X72600Y-7250D01*
Y-9500D01*
X75150D02*X77400D01*
X74400Y-8750D02*X75150Y-9500D01*
X74400Y-7250D02*Y-8750D01*
Y-7250D02*X75150Y-6500D01*
X76650D01*
X77400Y-7250D01*
X74400Y-8000D02*X77400D01*
Y-7250D02*Y-8000D01*
X82650Y-6500D02*X84900D01*
X81900Y-7250D02*X82650Y-6500D01*
X81900Y-7250D02*Y-8750D01*
X82650Y-9500D01*
X84900D01*
X87450D02*X89700D01*
X86700Y-8750D02*X87450Y-9500D01*
X86700Y-7250D02*Y-8750D01*
Y-7250D02*X87450Y-6500D01*
X88950D01*
X89700Y-7250D01*
X86700Y-8000D02*X89700D01*
Y-7250D02*Y-8000D01*
X92250Y-7250D02*Y-9500D01*
Y-7250D02*X93000Y-6500D01*
X93750D01*
X94500Y-7250D01*
Y-9500D01*
X91500Y-6500D02*X92250Y-7250D01*
X97050Y-3500D02*Y-8750D01*
X97800Y-9500D01*
X96300Y-5750D02*X97800D01*
X100050Y-9500D02*X102300D01*
X99300Y-8750D02*X100050Y-9500D01*
X99300Y-7250D02*Y-8750D01*
Y-7250D02*X100050Y-6500D01*
X101550D01*
X102300Y-7250D01*
X99300Y-8000D02*X102300D01*
Y-7250D02*Y-8000D01*
X104850Y-7250D02*Y-9500D01*
Y-7250D02*X105600Y-6500D01*
X107100D01*
X104100D02*X104850Y-7250D01*
X108900Y-3500D02*Y-8750D01*
X109650Y-9500D01*
G54D90*X111150Y-5000D02*Y-5150D01*
G54D89*Y-7250D02*Y-9500D01*
X113400Y-7250D02*Y-9500D01*
Y-7250D02*X114150Y-6500D01*
X114900D01*
X115650Y-7250D01*
Y-9500D01*
X112650Y-6500D02*X113400Y-7250D01*
X118200Y-9500D02*X120450D01*
X117450Y-8750D02*X118200Y-9500D01*
X117450Y-7250D02*Y-8750D01*
Y-7250D02*X118200Y-6500D01*
X119700D01*
X120450Y-7250D01*
X117450Y-8000D02*X120450D01*
Y-7250D02*Y-8000D01*
X124950Y-7250D02*Y-8750D01*
Y-7250D02*X125700Y-6500D01*
X127200D01*
X127950Y-7250D01*
Y-8750D01*
X127200Y-9500D02*X127950Y-8750D01*
X125700Y-9500D02*X127200D01*
X124950Y-8750D02*X125700Y-9500D01*
X130500Y-4250D02*Y-9500D01*
Y-4250D02*X131250Y-3500D01*
X132000D01*
X129750Y-6500D02*X131250D01*
X136950Y-3500D02*Y-8750D01*
X137700Y-9500D01*
X136200Y-5750D02*X137700D01*
X139200Y-3500D02*Y-9500D01*
Y-7250D02*X139950Y-6500D01*
X141450D01*
X142200Y-7250D01*
Y-9500D01*
G54D90*X144000Y-5000D02*Y-5150D01*
G54D89*Y-7250D02*Y-9500D01*
X146250D02*X148500D01*
X149250Y-8750D01*
X148500Y-8000D02*X149250Y-8750D01*
X146250Y-8000D02*X148500D01*
X145500Y-7250D02*X146250Y-8000D01*
X145500Y-7250D02*X146250Y-6500D01*
X148500D01*
X149250Y-7250D01*
X145500Y-8750D02*X146250Y-9500D01*
X154500Y-7250D02*Y-11750D01*
X153750Y-6500D02*X154500Y-7250D01*
X155250Y-6500D01*
X156750D01*
X157500Y-7250D01*
Y-8750D01*
X156750Y-9500D02*X157500Y-8750D01*
X155250Y-9500D02*X156750D01*
X154500Y-8750D02*X155250Y-9500D01*
X161550Y-6500D02*X162300Y-7250D01*
X160050Y-6500D02*X161550D01*
X159300Y-7250D02*X160050Y-6500D01*
X159300Y-7250D02*Y-8750D01*
X160050Y-9500D01*
X162300Y-6500D02*Y-8750D01*
X163050Y-9500D01*
X160050D02*X161550D01*
X162300Y-8750D01*
X165600Y-3500D02*Y-8750D01*
X166350Y-9500D01*
X164850Y-5750D02*X166350D01*
X167850Y-3500D02*Y-9500D01*
Y-7250D02*X168600Y-6500D01*
X170100D01*
X170850Y-7250D01*
Y-9500D01*
X200750Y135000D02*Y129000D01*
X202700Y135000D02*X203750Y133950D01*
Y130050D01*
X202700Y129000D02*X203750Y130050D01*
X200000Y129000D02*X202700D01*
X200000Y135000D02*X202700D01*
X207800Y132000D02*X208550Y131250D01*
X206300Y132000D02*X207800D01*
X205550Y131250D02*X206300Y132000D01*
X205550Y131250D02*Y129750D01*
X206300Y129000D01*
X208550Y132000D02*Y129750D01*
X209300Y129000D01*
X206300D02*X207800D01*
X208550Y129750D01*
X211850Y135000D02*Y129750D01*
X212600Y129000D01*
X211100Y132750D02*X212600D01*
X214850Y129000D02*X217100D01*
X214100Y129750D02*X214850Y129000D01*
X214100Y131250D02*Y129750D01*
Y131250D02*X214850Y132000D01*
X216350D01*
X217100Y131250D01*
X214100Y130500D02*X217100D01*
Y131250D02*Y130500D01*
X218900Y132750D02*X219650D01*
X218900Y131250D02*X219650D01*
X224150Y135000D02*Y129000D01*
Y135000D02*X226400Y132000D01*
X228650Y135000D01*
Y129000D01*
X230450Y131250D02*Y129750D01*
Y131250D02*X231200Y132000D01*
X232700D01*
X233450Y131250D01*
Y129750D01*
X232700Y129000D02*X233450Y129750D01*
X231200Y129000D02*X232700D01*
X230450Y129750D02*X231200Y129000D01*
X236000Y131250D02*Y129000D01*
Y131250D02*X236750Y132000D01*
X237500D01*
X238250Y131250D01*
Y129000D01*
X235250Y132000D02*X236000Y131250D01*
X242750Y134250D02*Y129750D01*
Y134250D02*X243500Y135000D01*
X245000D01*
X245750Y134250D01*
Y129750D01*
X245000Y129000D02*X245750Y129750D01*
X243500Y129000D02*X245000D01*
X242750Y129750D02*X243500Y129000D01*
X248300Y132000D02*X250550D01*
X247550Y131250D02*X248300Y132000D01*
X247550Y131250D02*Y129750D01*
X248300Y129000D01*
X250550D01*
X253100Y135000D02*Y129750D01*
X253850Y129000D01*
X252350Y132750D02*X253850D01*
X258050Y134250D02*X258800Y135000D01*
X261050D01*
X261800Y134250D01*
Y132750D01*
X258050Y129000D02*X261800Y132750D01*
X258050Y129000D02*X261800D01*
X263600Y129750D02*X264350Y129000D01*
X263600Y134250D02*Y129750D01*
Y134250D02*X264350Y135000D01*
X265850D01*
X266600Y134250D01*
Y129750D01*
X265850Y129000D02*X266600Y129750D01*
X264350Y129000D02*X265850D01*
X263600Y130500D02*X266600Y133500D01*
X271100Y133800D02*X272300Y135000D01*
Y129000D01*
X271100D02*X273350D01*
X275150Y133800D02*X276350Y135000D01*
Y129000D01*
X275150D02*X277400D01*
X279200Y132750D02*X279950D01*
X279200Y131250D02*X279950D01*
X281750D02*X284750Y135000D01*
X281750Y131250D02*X285500D01*
X284750Y135000D02*Y129000D01*
X287300Y134250D02*X288050Y135000D01*
X290300D01*
X291050Y134250D01*
Y132750D01*
X287300Y129000D02*X291050Y132750D01*
X287300Y129000D02*X291050D01*
X292850Y132750D02*X293600D01*
X292850Y131250D02*X293600D01*
X295400D02*X298400Y135000D01*
X295400Y131250D02*X299150D01*
X298400Y135000D02*Y129000D01*
X300950Y129750D02*X301700Y129000D01*
X300950Y134250D02*Y129750D01*
Y134250D02*X301700Y135000D01*
X303200D01*
X303950Y134250D01*
Y129750D01*
X303200Y129000D02*X303950Y129750D01*
X301700Y129000D02*X303200D01*
X300950Y130500D02*X303950Y133500D01*
X308450Y134250D02*X309200Y135000D01*
X311450D01*
X312200Y134250D01*
Y132750D01*
X308450Y129000D02*X312200Y132750D01*
X308450Y129000D02*X312200D01*
X314000Y129750D02*X314750Y129000D01*
X314000Y134250D02*Y129750D01*
Y134250D02*X314750Y135000D01*
X316250D01*
X317000Y134250D01*
Y129750D01*
X316250Y129000D02*X317000Y129750D01*
X314750Y129000D02*X316250D01*
X314000Y130500D02*X317000Y133500D01*
X318800Y133800D02*X320000Y135000D01*
Y129000D01*
X318800D02*X321050D01*
X322850Y131250D02*X325850Y135000D01*
X322850Y131250D02*X326600D01*
X325850Y135000D02*Y129000D01*
X331100Y135000D02*Y129750D01*
X331850Y129000D01*
X333350D01*
X334100Y129750D01*
Y135000D02*Y129750D01*
X335900Y135000D02*X338900D01*
X337400D02*Y129000D01*
X341750D02*X343700D01*
X340700Y130050D02*X341750Y129000D01*
X340700Y133950D02*Y130050D01*
Y133950D02*X341750Y135000D01*
X343700D01*
X200000Y148500D02*Y144000D01*
Y148500D02*X201050Y150000D01*
X202700D01*
X203750Y148500D01*
Y144000D01*
X200000Y147000D02*X203750D01*
X205550D02*Y144750D01*
X206300Y144000D01*
X207800D01*
X208550Y144750D01*
Y147000D02*Y144750D01*
X211100Y150000D02*Y144750D01*
X211850Y144000D01*
X210350Y147750D02*X211850D01*
X213350Y150000D02*Y144000D01*
Y146250D02*X214100Y147000D01*
X215600D01*
X216350Y146250D01*
Y144000D01*
X218150Y146250D02*Y144750D01*
Y146250D02*X218900Y147000D01*
X220400D01*
X221150Y146250D01*
Y144750D01*
X220400Y144000D02*X221150Y144750D01*
X218900Y144000D02*X220400D01*
X218150Y144750D02*X218900Y144000D01*
X223700Y146250D02*Y144000D01*
Y146250D02*X224450Y147000D01*
X225950D01*
X222950D02*X223700Y146250D01*
X227750Y147750D02*X228500D01*
X227750Y146250D02*X228500D01*
X234050Y144000D02*X236000D01*
X233000Y145050D02*X234050Y144000D01*
X233000Y148950D02*Y145050D01*
Y148950D02*X234050Y150000D01*
X236000D01*
X237800D02*Y144750D01*
X238550Y144000D01*
G54D92*G36*
X240050Y151500D02*Y141750D01*
X247550D01*
Y151500D01*
X240050D01*
G37*
G36*
X249050D02*Y141750D01*
X256550D01*
Y151500D01*
X249050D01*
G37*
G54D89*X258800Y146250D02*Y144000D01*
Y146250D02*X259550Y147000D01*
X260300D01*
X261050Y146250D01*
Y144000D01*
Y146250D02*X261800Y147000D01*
X262550D01*
X263300Y146250D01*
Y144000D01*
X258050Y147000D02*X258800Y146250D01*
X265850Y144000D02*X268100D01*
X265100Y144750D02*X265850Y144000D01*
X265100Y146250D02*Y144750D01*
Y146250D02*X265850Y147000D01*
X267350D01*
X268100Y146250D01*
X265100Y145500D02*X268100D01*
Y146250D02*Y145500D01*
X270650Y146250D02*Y144000D01*
Y146250D02*X271400Y147000D01*
X272150D01*
X272900Y146250D01*
Y144000D01*
X269900Y147000D02*X270650Y146250D01*
X275450Y150000D02*Y144750D01*
X276200Y144000D01*
X274700Y147750D02*X276200D01*
X280400Y144000D02*X283400D01*
X284150Y144750D01*
Y146550D02*Y144750D01*
X283400Y147300D02*X284150Y146550D01*
X281150Y147300D02*X283400D01*
X281150Y150000D02*Y144000D01*
X280400Y150000D02*X283400D01*
X284150Y149250D01*
Y148050D01*
X283400Y147300D02*X284150Y148050D01*
X285950Y147300D02*X288200D01*
X285950Y144000D02*X288950D01*
X285950Y150000D02*Y144000D01*
Y150000D02*X288950D01*
X290750D02*Y144000D01*
Y150000D02*X294500Y144000D01*
Y150000D02*Y144000D01*
X296300Y149250D02*Y144750D01*
Y149250D02*X297050Y150000D01*
X298550D01*
X299300Y149250D01*
Y144750D01*
X298550Y144000D02*X299300Y144750D01*
X297050Y144000D02*X298550D01*
X296300Y144750D02*X297050Y144000D01*
X301100Y150000D02*X302600D01*
X301850D02*Y144000D01*
X301100D02*X302600D01*
X304400Y150000D02*X307400D01*
X305900D02*Y144000D01*
X200000Y165000D02*X203000D01*
X201500D02*Y159000D01*
G54D90*X204800Y163500D02*Y163350D01*
G54D89*Y161250D02*Y159000D01*
X207050Y165000D02*Y159750D01*
X207800Y159000D01*
X206300Y162750D02*X207800D01*
X209300Y165000D02*Y159750D01*
X210050Y159000D01*
X212300D02*X214550D01*
X211550Y159750D02*X212300Y159000D01*
X211550Y161250D02*Y159750D01*
Y161250D02*X212300Y162000D01*
X213800D01*
X214550Y161250D01*
X211550Y160500D02*X214550D01*
Y161250D02*Y160500D01*
X216350Y162750D02*X217100D01*
X216350Y161250D02*X217100D01*
X221600Y159750D02*X222350Y159000D01*
X221600Y164250D02*X222350Y165000D01*
X221600Y164250D02*Y159750D01*
X224150Y162000D02*Y159750D01*
X224900Y159000D01*
X226400D01*
X227150Y159750D01*
Y162000D02*Y159750D01*
X229700Y161250D02*Y159000D01*
Y161250D02*X230450Y162000D01*
X231200D01*
X231950Y161250D01*
Y159000D01*
X228950Y162000D02*X229700Y161250D01*
X233750Y165000D02*Y159000D01*
Y161250D02*X236000Y159000D01*
X233750Y161250D02*X235250Y162750D01*
X238550Y161250D02*Y159000D01*
Y161250D02*X239300Y162000D01*
X240050D01*
X240800Y161250D01*
Y159000D01*
X237800Y162000D02*X238550Y161250D01*
X242600D02*Y159750D01*
Y161250D02*X243350Y162000D01*
X244850D01*
X245600Y161250D01*
Y159750D01*
X244850Y159000D02*X245600Y159750D01*
X243350Y159000D02*X244850D01*
X242600Y159750D02*X243350Y159000D01*
X247400Y162000D02*Y159750D01*
X248150Y159000D01*
X248900D01*
X249650Y159750D01*
Y162000D02*Y159750D01*
X250400Y159000D01*
X251150D01*
X251900Y159750D01*
Y162000D02*Y159750D01*
X254450Y161250D02*Y159000D01*
Y161250D02*X255200Y162000D01*
X255950D01*
X256700Y161250D01*
Y159000D01*
X253700Y162000D02*X254450Y161250D01*
X258500Y165000D02*X259250Y164250D01*
Y159750D01*
X258500Y159000D02*X259250Y159750D01*
X263750Y162000D02*X266750D01*
X271250Y165000D02*Y159000D01*
Y165000D02*X274250D01*
X271250Y162300D02*X273500D01*
X278300Y162000D02*X279050Y161250D01*
X276800Y162000D02*X278300D01*
X276050Y161250D02*X276800Y162000D01*
X276050Y161250D02*Y159750D01*
X276800Y159000D01*
X279050Y162000D02*Y159750D01*
X279800Y159000D01*
X276800D02*X278300D01*
X279050Y159750D01*
X281600Y165000D02*Y159000D01*
Y159750D02*X282350Y159000D01*
X283850D01*
X284600Y159750D01*
Y161250D02*Y159750D01*
X283850Y162000D02*X284600Y161250D01*
X282350Y162000D02*X283850D01*
X281600Y161250D02*X282350Y162000D01*
X287150Y161250D02*Y159000D01*
Y161250D02*X287900Y162000D01*
X289400D01*
X286400D02*X287150Y161250D01*
G54D90*X291200Y163500D02*Y163350D01*
G54D89*Y161250D02*Y159000D01*
X293450Y162000D02*X295700D01*
X292700Y161250D02*X293450Y162000D01*
X292700Y161250D02*Y159750D01*
X293450Y159000D01*
X295700D01*
X299750Y162000D02*X300500Y161250D01*
X298250Y162000D02*X299750D01*
X297500Y161250D02*X298250Y162000D01*
X297500Y161250D02*Y159750D01*
X298250Y159000D01*
X300500Y162000D02*Y159750D01*
X301250Y159000D01*
X298250D02*X299750D01*
X300500Y159750D01*
X303800Y165000D02*Y159750D01*
X304550Y159000D01*
X303050Y162750D02*X304550D01*
G54D90*X306050Y163500D02*Y163350D01*
G54D89*Y161250D02*Y159000D01*
X307550Y161250D02*Y159750D01*
Y161250D02*X308300Y162000D01*
X309800D01*
X310550Y161250D01*
Y159750D01*
X309800Y159000D02*X310550Y159750D01*
X308300Y159000D02*X309800D01*
X307550Y159750D02*X308300Y159000D01*
X313100Y161250D02*Y159000D01*
Y161250D02*X313850Y162000D01*
X314600D01*
X315350Y161250D01*
Y159000D01*
X312350Y162000D02*X313100Y161250D01*
X320600Y165000D02*Y159000D01*
X322550Y165000D02*X323600Y163950D01*
Y160050D01*
X322550Y159000D02*X323600Y160050D01*
X319850Y159000D02*X322550D01*
X319850Y165000D02*X322550D01*
X326150Y161250D02*Y159000D01*
Y161250D02*X326900Y162000D01*
X328400D01*
X325400D02*X326150Y161250D01*
X332450Y162000D02*X333200Y161250D01*
X330950Y162000D02*X332450D01*
X330200Y161250D02*X330950Y162000D01*
X330200Y161250D02*Y159750D01*
X330950Y159000D01*
X333200Y162000D02*Y159750D01*
X333950Y159000D01*
X330950D02*X332450D01*
X333200Y159750D01*
X335750Y162000D02*Y159750D01*
X336500Y159000D01*
X337250D01*
X338000Y159750D01*
Y162000D02*Y159750D01*
X338750Y159000D01*
X339500D01*
X340250Y159750D01*
Y162000D02*Y159750D01*
G54D90*X342050Y163500D02*Y163350D01*
G54D89*Y161250D02*Y159000D01*
X344300Y161250D02*Y159000D01*
Y161250D02*X345050Y162000D01*
X345800D01*
X346550Y161250D01*
Y159000D01*
X343550Y162000D02*X344300Y161250D01*
X350600Y162000D02*X351350Y161250D01*
X349100Y162000D02*X350600D01*
X348350Y161250D02*X349100Y162000D01*
X348350Y161250D02*Y159750D01*
X349100Y159000D01*
X350600D01*
X351350Y159750D01*
X348350Y157500D02*X349100Y156750D01*
X350600D01*
X351350Y157500D01*
Y162000D02*Y157500D01*
M02*
