M48
INCH
T52C0.012
T51C0.013
T50C0.013
T49C0.020
T48C0.083
%
T52
X000390Y002900
X000420Y007950
X000440Y006850
X000440Y005920
X000440Y004840
X000440Y003830
X000640Y002230
X000700Y008410
X001050Y003420
X001060Y007340
X001180Y004880
X001200Y005820
X001490Y006630
X001490Y004160
X001820Y008080
X001840Y002590
X002080Y006970
X002080Y003750
X002260Y000630
X002280Y010090
X002710Y006970
X002730Y003760
X002740Y002120
X002760Y008550
X003220Y006640
X003220Y004180
X003690Y001970
X003740Y008690
X004210Y007000
X004210Y004520
X004210Y003720
X004220Y006100
X004230Y005280
X004750Y008540
X004750Y002080
X004880Y005480
X005100Y007020
X005150Y003680
X005580Y005760
X005660Y005260
X005700Y002470
X005740Y008070
X005820Y006810
X005970Y006200
X006000Y009040
X006000Y004000
X006160Y004720
X006460Y007440
X006520Y003180
X006760Y001590
X006800Y009050
X007040Y006360
X007040Y004220
X007500Y007150
X007610Y009050
X007800Y005500
X007830Y002780
X007850Y008600
X008200Y003850
X008250Y006400
X008250Y004650
X008270Y007640
X008400Y005200
X008550Y006450
X008550Y004150
X008600Y006750
X008850Y006950
X008850Y003150
X008890Y009050
X008900Y007750
X009450Y003800
X009600Y008550
X009600Y008050
X009600Y007550
X009600Y007050
X010050Y008550
X010050Y008050
X010050Y007550
X010050Y007050
X010450Y008300
X010650Y006350
X010750Y008600
X011150Y008550
X011150Y008050
X011150Y007550
X011150Y007050
X011200Y006300
X011200Y005950
X011200Y004800
X011300Y005500
X011350Y005200
X011350Y004550
X011600Y008550
X011600Y008050
X011600Y007550
X011600Y007050
X011850Y003650
X012000Y004000
X012220Y003650
X012220Y003160
X012230Y009040
X012230Y008500
X012270Y001600
X012300Y006600
T50
X012384Y007900
T51
X009306Y005494
X009306Y005100
X009306Y004706
X009700Y005494
X009700Y005100
X009700Y004706
X010094Y005494
X010094Y005100
X010094Y004706
T49
X007650Y002350
X007650Y001850
X008150Y002350
X008150Y001850
X008650Y002350
X008650Y001850
X009150Y002350
X009150Y001850
X009650Y002350
X009650Y001850
X010150Y002350
X010150Y001850
X010650Y002350
X010650Y001850
T48
X001550Y009100
X001560Y001600
M30
