G04 start of page 9 for group -4015 idx -4015 *
G04 Title: (unknown), toppaste *
G04 Creator: pcb 20140316 *
G04 CreationDate: Mon Oct 20 11:42:40 2014 UTC *
G04 For: clemi *
G04 Format: Gerber/RS-274X *
G04 PCB-Dimensions (mil): 1470.00 1065.00 *
G04 PCB-Coordinate-Origin: lower left *
%MOIN*%
%FSLAX25Y25*%
%LNTOPPASTE*%
%ADD87C,0.6900*%
%ADD86R,0.1098X0.1098*%
%ADD85R,0.0098X0.0098*%
%ADD84R,0.0295X0.0295*%
%ADD83R,0.0197X0.0197*%
%ADD82R,0.0197X0.0197*%
%ADD81R,0.0354X0.0354*%
%ADD80C,0.0001*%
%ADD79R,0.0118X0.0118*%
%ADD78R,0.0256X0.0256*%
G54D78*X110362Y33531D02*X110756D01*
X110362Y37469D02*X110756D01*
X105244D02*X105638D01*
X105244Y33531D02*X105638D01*
G54D79*X74004Y81437D02*X76169D01*
X74004Y79469D02*X76169D01*
X74004Y77500D02*X76169D01*
X74004Y75531D02*X76169D01*
X74004Y73563D02*X76169D01*
X84831D02*X86996D01*
X84831Y75531D02*X86996D01*
X84831Y77500D02*X86996D01*
X84831Y79469D02*X86996D01*
X84831Y81437D02*X86996D01*
X78531Y73465D02*Y71299D01*
X80500Y73465D02*Y71299D01*
X82469Y73465D02*Y71299D01*
Y83701D02*Y81535D01*
X80500Y83701D02*Y81535D01*
X78531Y83701D02*Y81535D01*
G54D80*G36*
X114031Y82469D02*Y78531D01*
X117969D01*
Y82469D01*
X114031D01*
G37*
G36*
Y87469D02*Y83531D01*
X117969D01*
Y87469D01*
X114031D01*
G37*
G36*
X109531D02*Y83531D01*
X113469D01*
Y87469D01*
X109531D01*
G37*
G36*
X98531D02*Y83531D01*
X102469D01*
Y87469D01*
X98531D01*
G37*
G36*
X94031D02*Y83531D01*
X97969D01*
Y87469D01*
X94031D01*
G37*
G36*
Y82469D02*Y78531D01*
X97969D01*
Y82469D01*
X94031D01*
G37*
G36*
Y72469D02*Y68531D01*
X97969D01*
Y72469D01*
X94031D01*
G37*
G36*
Y77469D02*Y73531D01*
X97969D01*
Y77469D01*
X94031D01*
G37*
G36*
X98531Y82469D02*Y78531D01*
X102469D01*
Y82469D01*
X98531D01*
G37*
G36*
Y77469D02*Y73531D01*
X102469D01*
Y77469D01*
X98531D01*
G37*
G36*
Y72469D02*Y68531D01*
X102469D01*
Y72469D01*
X98531D01*
G37*
G36*
X109531D02*Y68531D01*
X113469D01*
Y72469D01*
X109531D01*
G37*
G36*
Y77469D02*Y73531D01*
X113469D01*
Y77469D01*
X109531D01*
G37*
G36*
Y82469D02*Y78531D01*
X113469D01*
Y82469D01*
X109531D01*
G37*
G36*
X114031Y77469D02*Y73531D01*
X117969D01*
Y77469D01*
X114031D01*
G37*
G36*
Y72469D02*Y68531D01*
X117969D01*
Y72469D01*
X114031D01*
G37*
G54D81*X124626Y79000D02*X140374D01*
G54D82*X123839Y70732D02*X141161D01*
X143130Y79787D02*Y62071D01*
X132736D02*X141161D01*
X132736Y60102D02*Y54197D01*
Y52228D02*X141161D01*
X143130D02*Y43567D01*
X132736D02*X141161D01*
X132736Y41598D02*Y35693D01*
Y33724D02*X141161D01*
X143130D02*Y25063D01*
X127618D02*X141161D01*
G54D83*X114607Y39574D02*X115393D01*
X114607Y36426D02*X115393D01*
X122574Y53393D02*Y52607D01*
X119426Y53393D02*Y52607D01*
G54D84*X118508Y21059D02*X119492D01*
X118508Y15941D02*X119492D01*
G54D83*X119107Y56426D02*X119893D01*
X119107Y59574D02*X119893D01*
X122574Y63393D02*Y62607D01*
X119426Y63393D02*Y62607D01*
X113607Y24426D02*X114393D01*
X113607Y27574D02*X114393D01*
G54D84*X113508Y21059D02*X114492D01*
X113508Y15941D02*X114492D01*
G54D83*X120074Y43893D02*Y43107D01*
X116926Y43893D02*Y43107D01*
X120074Y47893D02*Y47107D01*
X116926Y47893D02*Y47107D01*
X85574Y86893D02*Y86107D01*
X82426Y86893D02*Y86107D01*
X92607Y31926D02*X93393D01*
X92607Y35074D02*X93393D01*
G54D84*X87059Y35992D02*Y35008D01*
X81941Y35992D02*Y35008D01*
G54D82*X81016Y61165D02*X82984D01*
X81016Y56835D02*X82984D01*
G54D83*X70074Y82393D02*Y81607D01*
X66926Y82393D02*Y81607D01*
X81574Y52393D02*Y51607D01*
X78426Y52393D02*Y51607D01*
X82074Y41393D02*Y40607D01*
X78926Y41393D02*Y40607D01*
X118607Y27574D02*X119393D01*
X118607Y24426D02*X119393D01*
G54D85*X104087Y61728D02*Y59563D01*
X102512Y61728D02*Y59563D01*
X100937Y61728D02*Y59563D01*
X99362Y61728D02*Y59563D01*
X97787Y61728D02*Y59563D01*
X96213Y61728D02*Y59563D01*
X94638Y61728D02*Y59563D01*
X93063Y61728D02*Y59563D01*
X91488Y61728D02*Y59563D01*
X89913Y61728D02*Y59563D01*
Y42437D02*Y40272D01*
X91488Y42437D02*Y40272D01*
X93063Y42437D02*Y40272D01*
X94638Y42437D02*Y40272D01*
X96213Y42437D02*Y40272D01*
X97787Y42437D02*Y40272D01*
X99362Y42437D02*Y40272D01*
X100937Y42437D02*Y40272D01*
X102512Y42437D02*Y40272D01*
X104087Y42437D02*Y40272D01*
X86272Y58087D02*X88437D01*
X86272Y56512D02*X88437D01*
X86272Y54937D02*X88437D01*
X86272Y53362D02*X88437D01*
X86272Y51787D02*X88437D01*
X86272Y50213D02*X88437D01*
X86272Y48638D02*X88437D01*
X86272Y47063D02*X88437D01*
X86272Y45488D02*X88437D01*
X86272Y43913D02*X88437D01*
X105563D02*X107728D01*
X105563Y45488D02*X107728D01*
X105563Y47063D02*X107728D01*
X105563Y48638D02*X107728D01*
X105563Y50213D02*X107728D01*
X105563Y51787D02*X107728D01*
X105563Y53362D02*X107728D01*
X105563Y54937D02*X107728D01*
X105563Y56512D02*X107728D01*
X105563Y58087D02*X107728D01*
G54D80*G36*
X89717Y58283D02*Y43717D01*
X104283D01*
Y58283D01*
X89717D01*
G37*
G36*
X98067Y57217D02*Y52067D01*
X103217D01*
Y57217D01*
X98067D01*
G37*
G36*
X90783D02*Y52067D01*
X95933D01*
Y57217D01*
X90783D01*
G37*
G36*
X98067Y49933D02*Y44783D01*
X103217D01*
Y49933D01*
X98067D01*
G37*
G36*
X90783D02*Y44783D01*
X95933D01*
Y49933D01*
X90783D01*
G37*
G54D86*X33392Y10052D02*X42408D01*
X33392Y96548D02*X42408D01*
G54D87*X37900Y53300D03*
M02*
