G04 start of page 10 for group -4015 idx -4015 *
G04 Title: (unknown), toppaste *
G04 Creator: pcb 20140316 *
G04 CreationDate: mer. 15 juil. 2015 12:59:16 GMT UTC *
G04 For: clement *
G04 Format: Gerber/RS-274X *
G04 PCB-Dimensions (mil): 3023.62 1342.52 *
G04 PCB-Coordinate-Origin: lower left *
%MOIN*%
%FSLAX25Y25*%
%LNTOPPASTE*%
%ADD110R,0.0591X0.0591*%
%ADD109R,0.3543X0.3543*%
%ADD108R,0.0772X0.0772*%
%ADD107R,0.0157X0.0157*%
%ADD106R,0.0315X0.0315*%
%ADD105R,0.0236X0.0236*%
%ADD104R,0.0197X0.0197*%
%ADD103R,0.0598X0.0598*%
%ADD102R,0.0512X0.0512*%
%ADD101R,0.0197X0.0197*%
%ADD100R,0.0138X0.0138*%
G54D100*X119193Y45374D02*X119587D01*
X119193Y43406D02*X119587D01*
X119193Y41437D02*X119587D01*
X119193Y39469D02*X119587D01*
X119193Y37500D02*X119587D01*
X128445D02*X128839D01*
X128445Y39469D02*X128839D01*
X128445Y41437D02*X128839D01*
X128445Y43406D02*X128839D01*
X128445Y45374D02*X128839D01*
X122047Y37008D02*Y36614D01*
X124016Y37008D02*Y36614D01*
X125984Y37008D02*Y36614D01*
Y46260D02*Y45866D01*
X124016Y46260D02*Y45866D01*
X122047Y46260D02*Y45866D01*
G54D101*X182087Y50591D02*Y48622D01*
Y41732D02*Y39764D01*
G54D102*X220079Y81891D02*X222441D01*
X220079Y93701D02*X222441D01*
G54D101*X180118Y90197D02*X182087D01*
X188976D02*X190945D01*
G54D103*X209921Y53701D02*X210551D01*
X209921Y69685D02*X210551D01*
G54D104*X135690Y93503D02*Y92717D01*
X138838Y93503D02*Y92717D01*
X128995Y93503D02*Y92717D01*
X125847Y93503D02*Y92717D01*
X161280Y93503D02*Y92717D01*
X164428Y93503D02*Y92717D01*
G54D105*X155354Y67520D02*Y63976D01*
X160354Y67520D02*Y63976D01*
X165354Y67520D02*Y63976D01*
X170354Y67520D02*Y63976D01*
Y88780D02*Y85236D01*
X165354Y88780D02*Y85236D01*
X160354Y88780D02*Y85236D01*
X155354Y88780D02*Y85236D01*
G54D104*X154586Y93503D02*Y92717D01*
X151438Y93503D02*Y92717D01*
X161280Y60039D02*Y59253D01*
X164428Y60039D02*Y59253D01*
X160828Y44783D02*Y43997D01*
X163976Y44783D02*Y43997D01*
X160828Y39862D02*Y39076D01*
X163976Y39862D02*Y39076D01*
G54D100*X156496Y44291D02*Y43898D01*
X154528Y44291D02*Y43898D01*
X152559Y44291D02*Y43898D01*
X150591Y44291D02*Y43898D01*
X148622Y44291D02*Y43898D01*
Y35039D02*Y34646D01*
X150591Y35039D02*Y34646D01*
X152559Y35039D02*Y34646D01*
X154528Y35039D02*Y34646D01*
X156496Y35039D02*Y34646D01*
X148031Y41437D02*X148425D01*
X148031Y39469D02*X148425D01*
X148031Y37500D02*X148425D01*
X156693D02*X157087D01*
X156693Y39469D02*X157087D01*
X156693Y41437D02*X157087D01*
G54D104*X151969Y48720D02*Y47934D01*
X155117Y48720D02*Y47934D01*
X141339Y48327D02*X142125D01*
X141339Y51475D02*X142125D01*
X141339Y41832D02*X142125D01*
X141339Y44980D02*X142125D01*
X141339Y39074D02*X142125D01*
X141339Y35926D02*X142125D01*
X117520Y52657D02*Y51871D01*
X120668Y52657D02*Y51871D01*
X129527Y52657D02*Y51871D01*
X126379Y52657D02*Y51871D01*
X41930Y44095D02*X42716D01*
X41930Y47243D02*X42716D01*
X42717Y41141D02*Y40355D01*
X45865Y41141D02*Y40355D01*
X41930Y33269D02*X42716D01*
X41930Y36417D02*X42716D01*
G54D106*X91417Y33425D02*X96142D01*
X91417Y37756D02*X96142D01*
X91417Y42087D02*X96142D01*
X91417Y46417D02*X96142D01*
X91417Y50748D02*X96142D01*
X91417Y55079D02*X96142D01*
X91417Y59409D02*X96142D01*
X91417Y63740D02*X96142D01*
X91417Y68071D02*X96142D01*
X53228D02*X57953D01*
X53228Y63740D02*X57953D01*
X53228Y59409D02*X57953D01*
X53228Y55079D02*X57953D01*
X53228Y50748D02*X57953D01*
X53228Y46417D02*X57953D01*
X53228Y42087D02*X57953D01*
X53228Y37756D02*X57953D01*
X53228Y33425D02*X57953D01*
G54D107*X91417D02*X96142D01*
X91417Y37756D02*X96142D01*
X91417Y42087D02*X96142D01*
X91417Y46417D02*X96142D01*
X91417Y50748D02*X96142D01*
X91417Y55079D02*X96142D01*
X91417Y59409D02*X96142D01*
X91417Y63740D02*X96142D01*
X91417Y68071D02*X96142D01*
X53228D02*X57953D01*
X53228Y63740D02*X57953D01*
X53228Y59409D02*X57953D01*
X53228Y55079D02*X57953D01*
X53228Y50748D02*X57953D01*
X53228Y46417D02*X57953D01*
X53228Y42087D02*X57953D01*
X53228Y37756D02*X57953D01*
X53228Y33425D02*X57953D01*
G54D104*X101182Y63386D02*X101968D01*
X101182Y66534D02*X101968D01*
X138838Y60039D02*Y59253D01*
X135690Y60039D02*Y59253D01*
G54D105*X129764Y67520D02*Y63976D01*
X134764Y67520D02*Y63976D01*
X139764Y67520D02*Y63976D01*
X144764Y67520D02*Y63976D01*
Y88780D02*Y85236D01*
X139764Y88780D02*Y85236D01*
X134764Y88780D02*Y85236D01*
X129764Y88780D02*Y85236D01*
G54D108*X210236Y41339D02*Y36614D01*
X229528Y41339D02*Y36614D01*
G54D109*X275197Y82874D02*Y80906D01*
G54D110*X230906Y91890D02*X240748D01*
X230906Y81890D02*X240748D01*
X230906Y71890D02*X240748D01*
G54D106*X238780Y56693D02*X243504D01*
X226969D02*X231693D01*
M02*
