G04 start of page 7 for group -4063 idx -4063 *
G04 Title: (unknown), componentmask *
G04 Creator: pcb 20140316 *
G04 CreationDate: Fri Aug 26 09:03:46 2016 UTC *
G04 For: clemi *
G04 Format: Gerber/RS-274X *
G04 PCB-Dimensions (mil): 6000.00 5000.00 *
G04 PCB-Coordinate-Origin: lower left *
%MOIN*%
%FSLAX25Y25*%
%LNTOPMASK*%
%ADD113R,0.0975X0.0975*%
%ADD112R,0.0443X0.0443*%
%ADD111R,0.0502X0.0502*%
%ADD110R,0.0168X0.0168*%
%ADD109R,0.0424X0.0424*%
%ADD108R,0.0086X0.0086*%
%ADD107R,0.0187X0.0187*%
%ADD106R,0.0109X0.0109*%
%ADD105R,0.0128X0.0128*%
%ADD104R,0.0463X0.0463*%
%ADD103R,0.0227X0.0227*%
%ADD102R,0.0355X0.0355*%
%ADD101R,0.0668X0.0668*%
%ADD100R,0.0683X0.0683*%
%ADD99R,0.0250X0.0250*%
%ADD98R,0.0132X0.0132*%
%ADD97R,0.0345X0.0345*%
%ADD96R,0.0660X0.0660*%
%ADD95R,0.0817X0.0817*%
%ADD94R,0.0572X0.0572*%
%ADD93R,0.0257X0.0257*%
%ADD92R,0.0266X0.0266*%
%ADD91C,0.0260*%
%ADD90C,0.0067*%
%ADD89C,0.0107*%
%ADD88C,0.0127*%
%ADD87C,0.0001*%
%ADD86C,0.0132*%
%ADD85C,0.0148*%
%ADD84C,0.0817*%
G54D84*X443661Y127441D03*
X453661D03*
X463661D03*
X473661D03*
X483661D03*
G54D85*X458015Y168406D03*
X455652Y166043D03*
X453290Y168406D03*
Y163681D03*
X458015D03*
G54D86*X400000Y159528D03*
X397835Y162874D03*
Y156181D03*
X402165Y162874D03*
Y156181D03*
G54D84*X393661Y127441D03*
X403661D03*
X413661D03*
X423661D03*
G54D87*G36*
X359574Y131528D02*Y123354D01*
X367748D01*
Y131528D01*
X359574D01*
G37*
G54D84*X373661Y127441D03*
X383661D03*
X433661D03*
X493661D03*
X503661D03*
X513661D03*
X523661D03*
X533661D03*
X543661D03*
X553661D03*
Y217441D03*
X543661D03*
G54D87*G36*
X519862Y150300D02*Y142126D01*
X528036D01*
Y150300D01*
X519862D01*
G37*
G54D84*X503870Y146213D03*
G54D88*X493307Y276378D03*
G54D89*Y274606D03*
G54D90*Y278150D03*
G54D84*X533661Y217441D03*
X523661D03*
X513661D03*
X503661D03*
X493661D03*
X483661D03*
X473661D03*
X463661D03*
X453661D03*
X443661D03*
X433661D03*
X423661D03*
X413661D03*
X403661D03*
X393661D03*
X383661D03*
X373661D03*
X363661D03*
G54D91*X555512Y365748D03*
X358661Y143307D03*
X436614Y198031D03*
X364173Y364961D03*
G54D92*X526031Y162303D02*X529575D01*
X526031Y167303D02*X529575D01*
X526031Y172303D02*X529575D01*
G54D93*X537288Y171704D02*X538074D01*
X537288Y168556D02*X538074D01*
G54D94*X532465Y157287D02*X537975D01*
G54D93*X537402Y177165D02*X538188D01*
X537402Y180313D02*X538188D01*
G54D92*X526031Y177303D02*X529575D01*
G54D95*X557043Y145657D02*X568854D01*
X557043Y157469D02*X568854D01*
X557043Y169280D02*X568854D01*
X557043Y181091D02*X568854D01*
G54D94*X545957Y152633D02*X546743D01*
X545957Y145547D02*X546743D01*
X532465Y145477D02*X537975D01*
G54D93*X537402Y206298D02*X538188D01*
G54D95*X557043Y204713D02*X568854D01*
G54D92*X525870Y188102D02*X529413D01*
X525870Y193102D02*X529413D01*
X525870Y198102D02*X529413D01*
G54D93*X537402Y203150D02*X538188D01*
X537402Y197243D02*X538188D01*
X537402Y194095D02*X538188D01*
G54D92*X525870Y203102D02*X529413D01*
G54D95*X557043Y192902D02*X568854D01*
G54D87*G36*
X369929Y295426D02*Y291189D01*
X374166D01*
Y295426D01*
X369929D01*
G37*
G36*
X364811Y290701D02*Y286464D01*
X369048D01*
Y290701D01*
X364811D01*
G37*
G36*
X369929Y286370D02*Y282133D01*
X374166D01*
Y286370D01*
X369929D01*
G37*
G54D93*X365473Y271418D02*Y270632D01*
X368621Y271418D02*Y270632D01*
G54D87*G36*
X364811Y282040D02*Y277803D01*
X369048D01*
Y282040D01*
X364811D01*
G37*
G36*
X369929Y277709D02*Y273472D01*
X374166D01*
Y277709D01*
X369929D01*
G37*
G54D93*X371523Y247106D02*Y246320D01*
X368375Y247106D02*Y246320D01*
Y243106D02*Y242320D01*
X371523Y243106D02*Y242320D01*
G54D96*X368059Y164661D02*X374358D01*
X368059Y199701D02*X374358D01*
G54D92*X361240Y265346D02*Y264953D01*
X368720Y265346D02*Y264953D01*
X364980Y257472D02*Y257079D01*
G54D93*X372574Y255645D02*Y254859D01*
X369426Y255645D02*Y254859D01*
G54D97*X378878Y295252D02*X381634D01*
X378878Y290921D02*X381634D01*
X378878Y286591D02*X381634D01*
X378878Y282260D02*X381634D01*
X378878Y277929D02*X381634D01*
X378878Y273598D02*X381634D01*
X378878Y269268D02*X381634D01*
X378878Y264937D02*X381634D01*
G54D87*G36*
X384633Y296583D02*Y291952D01*
X389264D01*
Y296583D01*
X384633D01*
G37*
G36*
Y272567D02*Y267937D01*
X389264D01*
Y272567D01*
X384633D01*
G37*
G54D97*X378878Y260606D02*X381634D01*
X378878Y256276D02*X381634D01*
G54D87*G36*
X384633Y258394D02*Y253763D01*
X389264D01*
Y258394D01*
X384633D01*
G37*
G54D97*X378878Y251945D02*X381634D01*
X378878Y247614D02*X381634D01*
X378878Y243283D02*X381634D01*
G54D87*G36*
X384633Y244221D02*Y239590D01*
X389264D01*
Y244221D01*
X384633D01*
G37*
G36*
Y251307D02*Y246677D01*
X389264D01*
Y251307D01*
X384633D01*
G37*
G36*
X392901D02*Y246677D01*
X397532D01*
Y251307D01*
X392901D01*
G37*
G36*
X401169D02*Y246677D01*
X405800D01*
Y251307D01*
X401169D01*
G37*
G36*
X409437D02*Y246677D01*
X414067D01*
Y251307D01*
X409437D01*
G37*
G36*
X417704D02*Y246677D01*
X422335D01*
Y251307D01*
X417704D01*
G37*
G54D97*X378878Y238953D02*X381634D01*
X385965Y236591D02*Y233835D01*
X390295Y236591D02*Y233835D01*
X394626Y236591D02*Y233835D01*
X398957Y236591D02*Y233835D01*
X403287Y236591D02*Y233835D01*
X407618Y236591D02*Y233835D01*
X411949Y236591D02*Y233835D01*
X416280Y236591D02*Y233835D01*
X420610Y236591D02*Y233835D01*
X424941Y236591D02*Y233835D01*
X429272Y236591D02*Y233835D01*
G54D87*G36*
X392901Y244221D02*Y239590D01*
X397532D01*
Y244221D01*
X392901D01*
G37*
G36*
X401169D02*Y239590D01*
X405800D01*
Y244221D01*
X401169D01*
G37*
G36*
X409437D02*Y239590D01*
X414067D01*
Y244221D01*
X409437D01*
G37*
G36*
X417704D02*Y239590D01*
X422335D01*
Y244221D01*
X417704D01*
G37*
G54D93*X389304Y156570D02*X390090D01*
X389304Y153422D02*X390090D01*
X384383Y156570D02*X385169D01*
X384383Y153422D02*X385169D01*
X385702Y150062D02*Y149276D01*
X388850Y150062D02*Y149276D01*
G54D98*X393110Y162480D02*X395079D01*
X393110Y160512D02*X395079D01*
X393110Y158543D02*X395079D01*
X393110Y156575D02*X395079D01*
G54D99*X398327Y162343D02*Y161397D01*
Y157658D02*Y156712D01*
X401673Y162343D02*Y161397D01*
Y157658D02*Y156712D01*
G54D98*X404921Y156575D02*X406890D01*
X404921Y158543D02*X406890D01*
X404921Y160512D02*X406890D01*
X404921Y162480D02*X406890D01*
G54D100*X400000Y160866D02*Y158189D01*
G54D93*X498032Y189371D02*X498818D01*
X498032Y192519D02*X498818D01*
G54D92*X504772Y177303D02*X508315D01*
X504610Y193102D02*X508154D01*
X504610Y188102D02*X508154D01*
X504772Y172303D02*X508315D01*
G54D93*X498032Y170865D02*X498818D01*
G54D92*X504772Y162303D02*X508315D01*
G54D101*X494063Y154315D02*Y152110D01*
G54D92*X504610Y203102D02*X508154D01*
X504610Y198102D02*X508154D01*
X504772Y167303D02*X508315D01*
G54D93*X498032Y167717D02*X498818D01*
G54D102*X466971Y168602D02*X467955D01*
G54D103*X491394Y184713D02*X493362D01*
X482535D02*X484504D01*
X491394Y177713D02*X493362D01*
X482535D02*X484504D01*
G54D104*X475949Y190984D02*Y187441D01*
X464728Y198661D02*X468272D01*
X464728Y179764D02*X468272D01*
G54D101*X477449Y154315D02*Y152110D01*
G54D102*X466971Y163484D02*X467955D01*
G54D94*X458736Y154783D02*Y153997D01*
X465822Y154783D02*Y153997D01*
G54D105*X456637Y161220D02*Y159843D01*
X458605Y161220D02*Y159843D01*
X460475Y163091D02*X461853D01*
X460475Y165059D02*X461853D01*
X460475Y167028D02*X461853D01*
G54D87*G36*
X455993Y165703D02*Y163037D01*
X458659D01*
Y165703D01*
X455993D01*
G37*
G54D93*X452230Y155267D02*Y154481D01*
X449082Y155267D02*Y154481D01*
G54D105*X452700Y161220D02*Y159843D01*
X454668Y161220D02*Y159843D01*
X458605Y172244D02*Y170866D01*
G54D104*X457051Y190984D02*Y187441D01*
G54D102*X444578Y177503D02*X445562D01*
X444578Y172385D02*X445562D01*
G54D105*X456637Y172244D02*Y170866D01*
X454668Y172244D02*Y170866D01*
X452700Y172244D02*Y170866D01*
X449452Y168996D02*X450830D01*
X449452Y167028D02*X450830D01*
X449452Y165059D02*X450830D01*
X449452Y163091D02*X450830D01*
X460475Y168996D02*X461853D01*
G54D87*G36*
X452156Y169540D02*Y162547D01*
X459149D01*
Y169540D01*
X452156D01*
G37*
G36*
X455993Y169050D02*Y166384D01*
X458659D01*
Y169050D01*
X455993D01*
G37*
G36*
X452646D02*Y166384D01*
X455312D01*
Y169050D01*
X452646D01*
G37*
G36*
Y165703D02*Y163037D01*
X455312D01*
Y165703D01*
X452646D01*
G37*
G54D106*X495177Y274016D02*X496358D01*
X490256D02*X491437D01*
X495177Y275591D02*X496358D01*
X495177Y277165D02*X496358D01*
X495177Y278740D02*X496358D01*
X490256D02*X491437D01*
X490256Y277165D02*X491437D01*
X490256Y275591D02*X491437D01*
G54D107*X493307Y277953D02*Y274803D01*
G54D108*X493701Y275754D02*Y274640D01*
Y278116D02*Y277002D01*
X492913Y275754D02*Y274640D01*
Y278116D02*Y277002D01*
G54D94*X422588Y181196D02*X428098D01*
X422588Y169386D02*X428098D01*
G54D102*X411465Y168402D02*X412449D01*
G54D101*X414949Y181315D02*Y179110D01*
G54D102*X411465Y163284D02*X412449D01*
G54D109*X410776Y198323D02*Y193598D01*
G54D93*X416091Y152064D02*X416877D01*
X409989Y152062D02*Y151276D01*
X413137Y152062D02*Y151276D01*
X416091Y155212D02*X416877D01*
X409989Y155999D02*Y155213D01*
X413137Y155999D02*Y155213D01*
X423201Y158023D02*X423987D01*
X423201Y154875D02*X423987D01*
X402115Y150093D02*Y149307D01*
X405263Y150093D02*Y149307D01*
G54D109*X398571Y198323D02*Y193598D01*
G54D101*X398335Y181315D02*Y179110D01*
G54D93*X491339Y232283D02*X492125D01*
X491339Y229135D02*X492125D01*
X501544Y229130D02*X502330D01*
X501544Y232278D02*X502330D01*
G54D104*X511594Y229811D02*X516319D01*
X534626D02*X539350D01*
X551949D02*X556673D01*
G54D92*X561280Y235480D02*X567185D01*
X550768Y246720D02*X551555D01*
Y251051D02*X552343D01*
X550768Y255382D02*X551555D01*
Y259713D02*X552343D01*
X550768Y264043D02*X551555D01*
Y268374D02*X552343D01*
G54D110*X456988Y244882D02*X457382D01*
X463780Y245768D02*Y245374D01*
X461811Y245768D02*Y245374D01*
X459843Y245768D02*Y245374D01*
X456988Y240945D02*X457382D01*
X466240D02*X466634D01*
X466240Y242913D02*X466634D01*
G54D93*X476493Y240261D02*X477279D01*
X476493Y243409D02*X477279D01*
G54D110*X466240Y244882D02*X466634D01*
G54D93*X464174Y251968D02*Y251182D01*
X467322Y251968D02*Y251182D01*
X459842Y251968D02*Y251182D01*
X456694Y251968D02*Y251182D01*
X483859Y267322D02*Y266536D01*
G54D110*X482890Y244787D02*X483283D01*
X482890Y242819D02*X483283D01*
X482890Y240850D02*X483283D01*
X482890Y238882D02*X483283D01*
X482890Y236913D02*X483283D01*
X492142D02*X492535D01*
X485744Y236717D02*Y236323D01*
X487713Y236717D02*Y236323D01*
X489681Y236717D02*Y236323D01*
X492142Y238882D02*X492535D01*
X492142Y240850D02*X492535D01*
X492142Y242819D02*X492535D01*
G54D109*X510492Y268315D02*X511280D01*
G54D97*X509232Y263591D02*X510020D01*
G54D111*X509429Y258079D02*Y254929D01*
G54D110*X492142Y244787D02*X492535D01*
X489681Y245378D02*Y244984D01*
X487713Y245378D02*Y244984D01*
X485744Y245378D02*Y244984D01*
G54D93*X488106Y252070D02*Y251284D01*
X491254Y252070D02*Y251284D01*
G54D110*X456988Y242913D02*X457382D01*
G54D93*X451574Y244881D02*Y244095D01*
X448426Y244881D02*Y244095D01*
G54D110*X456988Y238976D02*X457382D01*
G54D93*X451574Y240550D02*Y239764D01*
X448426Y240550D02*Y239764D01*
X451574Y236220D02*Y235434D01*
X448426Y236220D02*Y235434D01*
G54D110*X456988Y237008D02*X457382D01*
X466240D02*X466634D01*
X466240Y238976D02*X466634D01*
X459843Y236516D02*Y236122D01*
X461811Y236516D02*Y236122D01*
X463780Y236516D02*Y236122D01*
G54D87*G36*
X461661Y232433D02*Y224259D01*
X469835D01*
Y232433D01*
X461661D01*
G37*
G54D97*X551575Y294094D02*X556299D01*
X551575Y298425D02*X556299D01*
X551575Y302756D02*X556299D01*
G54D107*X551575Y294094D02*X556299D01*
X551575Y298425D02*X556299D01*
X551575Y302756D02*X556299D01*
G54D97*X551575Y320079D02*X556299D01*
G54D107*X551575D02*X556299D01*
G54D97*X551575Y324409D02*X556299D01*
G54D107*X551575D02*X556299D01*
G54D97*X551575Y328740D02*X556299D01*
G54D107*X551575D02*X556299D01*
G54D97*X551575Y307087D02*X556299D01*
X551575Y311417D02*X556299D01*
X551575Y315748D02*X556299D01*
G54D107*X551575Y307087D02*X556299D01*
X551575Y311417D02*X556299D01*
X551575Y315748D02*X556299D01*
G54D93*X561103Y320472D02*Y319686D01*
X564251Y320472D02*Y319686D01*
X498818Y304330D02*Y303544D01*
G54D94*X495552Y313386D02*Y311024D01*
G54D93*X495276Y324015D02*X496062D01*
X495276Y320867D02*X496062D01*
G54D94*X507362Y313386D02*Y311024D01*
G54D97*X513386Y328740D02*X518110D01*
X513386Y324409D02*X518110D01*
X513386Y320079D02*X518110D01*
G54D107*X513386Y328740D02*X518110D01*
X513386Y324409D02*X518110D01*
X513386Y320079D02*X518110D01*
G54D97*X513386Y302756D02*X518110D01*
X513386Y298425D02*X518110D01*
X513386Y294094D02*X518110D01*
G54D107*X513386Y302756D02*X518110D01*
X513386Y298425D02*X518110D01*
X513386Y294094D02*X518110D01*
G54D97*X513386Y315748D02*X518110D01*
X513386Y311417D02*X518110D01*
X513386Y307087D02*X518110D01*
G54D107*X513386Y315748D02*X518110D01*
X513386Y311417D02*X518110D01*
X513386Y307087D02*X518110D01*
G54D109*X491732Y364961D02*Y364764D01*
G54D112*X485925Y373130D02*Y368602D01*
X497539Y373130D02*Y368602D01*
G54D104*X559902Y280598D02*X566201D01*
X541398D02*X547697D01*
X511594D02*X516319D01*
G54D93*X490158Y262991D02*X490944D01*
X490158Y259843D02*X490944D01*
X494489Y267322D02*Y266536D01*
Y263385D02*Y262599D01*
X490158Y266930D02*X490944D01*
X490158Y270078D02*X490944D01*
X497637Y267322D02*Y266536D01*
Y263385D02*Y262599D01*
X495670Y304330D02*Y303544D01*
X487007Y267322D02*Y266536D01*
X486221Y262991D02*X487007D01*
X486221Y259843D02*X487007D01*
X455906Y324410D02*X456692D01*
G54D113*X469094Y301772D02*Y299803D01*
G54D93*X461812Y324410D02*X462598D01*
G54D113*X445079Y301772D02*Y299803D01*
G54D97*X433602Y299583D02*X436358D01*
X433602Y303913D02*X436358D01*
X433602Y321236D02*X436358D01*
G54D87*G36*
X425972Y296583D02*Y291952D01*
X430603D01*
Y296583D01*
X425972D01*
G37*
G54D97*X433602Y264937D02*X436358D01*
X433602Y269268D02*X436358D01*
X433602Y273598D02*X436358D01*
X433602Y277929D02*X436358D01*
X433602Y282260D02*X436358D01*
X433602Y286591D02*X436358D01*
X433602Y290921D02*X436358D01*
X433602Y295252D02*X436358D01*
G54D93*X455906Y327558D02*X456692D01*
X449607Y324409D02*X450393D01*
X449607Y327557D02*X450393D01*
X442914D02*X443700D01*
X461812Y327558D02*X462598D01*
X442914Y324409D02*X443700D01*
G54D97*X433602Y308244D02*X436358D01*
X433602Y312575D02*X436358D01*
X433602Y316906D02*X436358D01*
X433602Y325567D02*X436358D01*
G54D93*X420414Y337595D02*X421200D01*
X420414Y340743D02*X421200D01*
X423955Y345468D02*Y344682D01*
G54D97*X429272Y330685D02*Y327929D01*
X424941Y330685D02*Y327929D01*
X420610Y330685D02*Y327929D01*
G54D87*G36*
X425972Y324930D02*Y320299D01*
X430603D01*
Y324930D01*
X425972D01*
G37*
G36*
Y317843D02*Y313212D01*
X430603D01*
Y317843D01*
X425972D01*
G37*
G36*
Y310756D02*Y306126D01*
X430603D01*
Y310756D01*
X425972D01*
G37*
G54D97*X433602Y238953D02*X436358D01*
X433602Y243283D02*X436358D01*
G54D87*G36*
X425972Y244221D02*Y239590D01*
X430603D01*
Y244221D01*
X425972D01*
G37*
G54D97*X433602Y260606D02*X436358D01*
X433602Y247614D02*X436358D01*
X433602Y251945D02*X436358D01*
X433602Y256276D02*X436358D01*
G54D87*G36*
X425972Y251307D02*Y246677D01*
X430603D01*
Y251307D01*
X425972D01*
G37*
G36*
Y258394D02*Y253763D01*
X430603D01*
Y258394D01*
X425972D01*
G37*
G36*
Y272567D02*Y267937D01*
X430603D01*
Y272567D01*
X425972D01*
G37*
G54D93*X400729Y358854D02*X401515D01*
X400729Y355706D02*X401515D01*
X394824Y340154D02*X395610D01*
X394824Y343302D02*X395610D01*
X405650Y358854D02*X406436D01*
X417659Y359247D02*Y358461D01*
X420807Y359247D02*Y358461D01*
G54D109*X420807Y364858D02*Y364661D01*
G54D112*X415000Y373028D02*Y368500D01*
X426614Y373028D02*Y368500D01*
G54D93*X405650Y355706D02*X406436D01*
X420807Y345468D02*Y344682D01*
X420414Y350391D02*X421200D01*
X420414Y353539D02*X421200D01*
G54D97*X378878Y325567D02*X381634D01*
X378878Y321236D02*X381634D01*
X378878Y316906D02*X381634D01*
X378878Y312575D02*X381634D01*
G54D93*X370473Y320867D02*X371259D01*
X370473Y324015D02*X371259D01*
G54D97*X378878Y308244D02*X381634D01*
X378878Y303913D02*X381634D01*
X378878Y299583D02*X381634D01*
X385965Y330685D02*Y327929D01*
G54D87*G36*
X384633Y324930D02*Y320299D01*
X389264D01*
Y324930D01*
X384633D01*
G37*
G36*
Y317843D02*Y313212D01*
X389264D01*
Y317843D01*
X384633D01*
G37*
G36*
Y310756D02*Y306126D01*
X389264D01*
Y310756D01*
X384633D01*
G37*
G54D97*X416280Y330685D02*Y327929D01*
X411949Y330685D02*Y327929D01*
X407618Y330685D02*Y327929D01*
G54D87*G36*
X409437Y324930D02*Y320299D01*
X414067D01*
Y324930D01*
X409437D01*
G37*
G36*
X417704D02*Y320299D01*
X422335D01*
Y324930D01*
X417704D01*
G37*
G36*
X409437Y317843D02*Y313212D01*
X414067D01*
Y317843D01*
X409437D01*
G37*
G36*
X417704D02*Y313212D01*
X422335D01*
Y317843D01*
X417704D01*
G37*
G54D97*X403287Y330685D02*Y327929D01*
X398957Y330685D02*Y327929D01*
X394626Y330685D02*Y327929D01*
X390295Y330685D02*Y327929D01*
G54D87*G36*
X401169Y324930D02*Y320299D01*
X405800D01*
Y324930D01*
X401169D01*
G37*
G36*
X392901D02*Y320299D01*
X397532D01*
Y324930D01*
X392901D01*
G37*
G36*
Y317843D02*Y313212D01*
X397532D01*
Y317843D01*
X392901D01*
G37*
G36*
X401169D02*Y313212D01*
X405800D01*
Y317843D01*
X401169D01*
G37*
M02*
