G04 start of page 9 for group -4079 idx -4079 *
G04 Title: (unknown), topsilk *
G04 Creator: pcb 20140316 *
G04 CreationDate: Fri Aug 26 09:03:46 2016 UTC *
G04 For: clemi *
G04 Format: Gerber/RS-274X *
G04 PCB-Dimensions (mil): 6000.00 5000.00 *
G04 PCB-Coordinate-Origin: lower left *
%MOIN*%
%FSLAX25Y25*%
%LNTOPSILK*%
%ADD136C,0.0080*%
%ADD135C,0.0059*%
%ADD134C,0.0061*%
%ADD133C,0.0119*%
%ADD132C,0.0118*%
%ADD131C,0.0060*%
%ADD130C,0.0100*%
%ADD129C,0.0001*%
G54D129*G36*
X555863Y352275D02*X556194Y352590D01*
X556633D01*
X563594Y345889D01*
X563616D01*
Y352085D01*
X563947Y352416D01*
X566041D01*
X566372Y352085D01*
Y340339D01*
X566041Y340025D01*
X565759D01*
X565531Y340111D01*
X558641Y347040D01*
X558624D01*
Y340529D01*
X558288Y340198D01*
X556215D01*
X555884Y340529D01*
X555863Y352275D01*
G37*
G36*
X542253Y352416D02*X543108D01*
X545793Y351315D01*
X546911Y348646D01*
X546189Y346519D01*
X544328Y345141D01*
X546721Y340703D01*
X546423Y340198D01*
X544106D01*
X543824Y340356D01*
X542253Y343486D01*
Y347197D01*
X542880D01*
X543813Y347620D01*
X544209Y348591D01*
X543813Y349535D01*
X542880Y349921D01*
X542253D01*
Y352416D01*
G37*
G36*
X537558Y352085D02*X537889Y352416D01*
X542253D01*
Y349921D01*
X540297D01*
Y347197D01*
X542253D01*
Y343486D01*
X541502Y344983D01*
X540297D01*
Y340529D01*
X539966Y340198D01*
X537889D01*
X537558Y340529D01*
Y352085D01*
G37*
G36*
X573832Y334333D02*X535349D01*
Y335516D01*
X572649D01*
Y356469D01*
X535349D01*
Y357652D01*
X573832D01*
Y334333D01*
G37*
G36*
X535349D02*X496868D01*
Y357652D01*
X535349D01*
Y356469D01*
X498050D01*
Y335516D01*
X535349D01*
Y334333D01*
G37*
G36*
X522882Y346079D02*X519025Y351912D01*
X519307Y352416D01*
X521575D01*
X521851Y352259D01*
X524282Y348683D01*
X526707Y352259D01*
X526984Y352416D01*
X529251D01*
X529533Y351912D01*
X525622Y346096D01*
Y340529D01*
X525291Y340198D01*
X523213D01*
X522882Y340529D01*
Y346079D01*
G37*
G36*
X507962Y352416D02*X508261D01*
X511017Y351281D01*
X512167Y348559D01*
X511017Y345786D01*
X508277Y344631D01*
X507962D01*
Y347181D01*
X508103D01*
X509069Y347577D01*
X509481Y348559D01*
X509069Y349481D01*
X508103Y349850D01*
X507962D01*
Y352416D01*
G37*
G36*
X503725Y352085D02*X504056Y352416D01*
X507962D01*
Y349850D01*
X506443D01*
Y347181D01*
X507962D01*
Y344631D01*
X506443D01*
Y340529D01*
X506112Y340198D01*
X504056D01*
X503725Y340529D01*
Y352085D01*
G37*
G54D130*X485039Y272047D02*X487402D01*
X488189Y271260D01*
G54D131*X500000Y265354D02*X502362Y283858D01*
G54D132*X375984Y373921D02*X377459Y375396D01*
X380409D01*
X381884Y373921D01*
X380409Y363596D02*X381884Y365071D01*
X377459Y363596D02*X380409D01*
X375984Y365071D02*X377459Y363596D01*
Y370086D02*X380409D01*
X381884Y373921D02*Y371561D01*
Y368611D02*Y365071D01*
Y368611D02*X380409Y370086D01*
X381884Y371561D02*X380409Y370086D01*
X391324Y375396D02*X392799Y373921D01*
X386899Y375396D02*X391324D01*
X385424Y373921D02*X386899Y375396D01*
X385424Y373921D02*Y365071D01*
X386899Y363596D01*
X391324D01*
X392799Y365071D01*
Y368021D02*Y365071D01*
X391324Y369496D02*X392799Y368021D01*
X388374Y369496D02*X391324D01*
G54D133*X515054Y374870D02*X516544Y373380D01*
X510584Y374870D02*X515054D01*
X509094Y373380D02*X510584Y374870D01*
X509094Y373380D02*Y364440D01*
X510584Y362950D01*
X515054D01*
X516544Y364440D01*
Y367420D02*Y364440D01*
X515054Y368910D02*X516544Y367420D01*
X512074Y368910D02*X515054D01*
X521610Y374870D02*Y362950D01*
X520120Y374870D02*X526080D01*
X527570Y373380D01*
Y370400D01*
X526080Y368910D02*X527570Y370400D01*
X521610Y368910D02*X526080D01*
X537107Y374870D02*X538597Y373380D01*
X532637Y374870D02*X537107D01*
X531147Y373380D02*X532637Y374870D01*
X531147Y373380D02*Y370400D01*
X532637Y368910D01*
X537107D01*
X538597Y367420D01*
Y364440D01*
X537107Y362950D02*X538597Y364440D01*
X532637Y362950D02*X537107D01*
X531147Y364440D02*X532637Y362950D01*
G54D134*X514417Y180433D02*X510480Y176496D01*
Y159173D01*
X523866Y180433D02*Y159173D01*
X510480D02*X523866D01*
X514417Y180433D02*X523866D01*
X514256Y206232D02*X510319Y202295D01*
Y184972D01*
X523705Y206232D02*Y184972D01*
X510319D02*X523705D01*
X514256Y206232D02*X523705D01*
G54D135*X578697Y141720D02*G75*G03X578697Y141720I0J3937D01*G01*
X489622Y179484D02*Y175941D01*
Y177713D02*X486276Y179484D01*
X489622Y177713D02*X486276Y175941D01*
G54D134*X461755Y172146D02*X462739Y173130D01*
X460318Y172146D02*X461755D01*
Y170709D01*
X449550Y172146D02*X450987D01*
X449550D02*Y170709D01*
X461755Y161378D02*Y159941D01*
X460318D02*X461755D01*
X449550Y161378D02*Y159941D01*
X450987D01*
G54D135*X461776Y201614D02*X471224D01*
X461776Y176811D02*X471224D01*
X454098Y193937D02*Y184488D01*
X478902Y193937D02*Y184488D01*
X454098Y193937D02*X461776Y201614D01*
X471224Y176811D02*X478902Y184488D01*
X471224Y201614D02*X478902Y193937D01*
X461776Y176811D02*X454098Y184488D01*
G54D134*X455709Y247047D02*Y246791D01*
Y247047D02*X457933D01*
X455709Y235098D02*Y234843D01*
X457933D01*
X465689Y247047D02*X467913D01*
Y246791D01*
X465689Y234843D02*X467913D01*
Y235098D02*Y234843D01*
X453740Y248031D02*G75*G03X453740Y248031I984J0D01*G01*
G54D135*X462421Y223799D02*X469075D01*
G54D136*X461886Y157145D02*X462672D01*
X461886Y151635D02*X462672D01*
G54D134*X393898Y165630D02*X392913Y166614D01*
X393898Y165630D02*Y164291D01*
Y165630D02*X399173D01*
X393898Y153425D02*Y154764D01*
Y153425D02*X399173D01*
X406102Y165630D02*X400827D01*
X406102D02*Y164291D01*
Y153425D02*X400827D01*
X406102D02*Y154764D01*
G54D136*X430657Y177259D02*Y173323D01*
X420029Y177259D02*Y173323D01*
G54D135*X397390Y201866D02*X411957D01*
X397390Y190055D02*X411957D01*
X350539Y203244D02*Y161118D01*
X391878Y203244D02*Y161118D01*
X397193Y172043D02*X416091D01*
X397193Y188382D02*X416091D01*
G54D134*X481610Y246953D02*Y246697D01*
Y246953D02*X483835D01*
X481610Y235004D02*Y234748D01*
X483835D01*
X491591Y246953D02*X493815D01*
Y246697D01*
X491591Y234748D02*X493815D01*
Y235004D02*Y234748D01*
X479642Y247937D02*G75*G03X479642Y247937I984J0D01*G01*
G54D135*X489622Y186484D02*Y182941D01*
Y184713D02*X486276Y186484D01*
X489622Y184713D02*X486276Y182941D01*
G54D136*X549105Y149483D02*Y148697D01*
X543595Y149483D02*Y148697D01*
G54D135*X476307Y161382D02*X495205D01*
X476307Y145043D02*X495205D01*
G54D136*X540534Y153350D02*Y149414D01*
X529906Y153350D02*Y149414D01*
G54D134*X496161Y272638D02*X497146Y271654D01*
X496161Y272638D02*Y272402D01*
X494134Y272638D02*X496161D01*
Y280354D02*Y280118D01*
X494134D02*X496161D01*
X490453Y272638D02*X492480D01*
X490453D02*Y272402D01*
Y280118D02*X492480D01*
X490453Y280354D02*Y280118D01*
G54D136*X499095Y315945D02*X503819D01*
X499095Y308465D02*X503819D01*
G54D134*X553937Y291535D02*X554921Y290551D01*
X553937Y292087D02*Y291535D01*
X534685D02*X553937D01*
Y331299D02*Y330748D01*
X534685Y331299D02*X553937D01*
X515748Y291535D02*X535000D01*
X515748Y292087D02*Y291535D01*
Y331299D02*X535000D01*
X515748D02*Y330748D01*
G54D135*X569941Y284339D02*Y226071D01*
X505689Y284339D02*Y226071D01*
Y284339D02*X569941D01*
X505689Y226071D02*X569941D01*
X442323Y309646D02*X471850D01*
X442323Y291929D02*X471850D01*
X370689Y290728D02*X373406D01*
X365571Y286004D02*X368287D01*
X370689Y281673D02*X373406D01*
X365571Y277343D02*X368287D01*
X370689Y273012D02*X373406D01*
G54D134*X358484Y263181D02*Y259244D01*
X371476Y263181D02*Y259244D01*
X358484D02*X371476D01*
X358484Y263181D02*X371476D01*
X376122Y333441D02*X375138Y334425D01*
X376122Y333441D02*Y328362D01*
Y333441D02*X383169D01*
X376122Y236157D02*Y231079D01*
X383169D01*
X432067Y333441D02*X439114D01*
Y328362D01*
X432067Y231079D02*X439114D01*
Y236157D02*Y231079D01*
G54D130*X489283Y223346D02*X490583D01*
X488583Y224046D02*X489283Y223346D01*
X488583Y226646D02*Y224046D01*
Y226646D02*X489283Y227346D01*
X490583D01*
X493283D02*X493783Y226846D01*
X492283Y227346D02*X493283D01*
X491783Y226846D02*X492283Y227346D01*
X491783Y226846D02*Y223846D01*
X492283Y223346D01*
X493283Y225546D02*X493783Y225046D01*
X491783Y225546D02*X493283D01*
X492283Y223346D02*X493283D01*
X493783Y223846D01*
Y225046D02*Y223846D01*
X492826Y195787D02*X494126D01*
X492126Y196487D02*X492826Y195787D01*
X492126Y199087D02*Y196487D01*
Y199087D02*X492826Y199787D01*
X494126D01*
X495326Y199287D02*X495826Y199787D01*
X496826D01*
X497326Y199287D01*
X496826Y195787D02*X497326Y196287D01*
X495826Y195787D02*X496826D01*
X495326Y196287D02*X495826Y195787D01*
Y197987D02*X496826D01*
X497326Y199287D02*Y198487D01*
Y197487D02*Y196287D01*
Y197487D02*X496826Y197987D01*
X497326Y198487D02*X496826Y197987D01*
X498526Y196287D02*X499026Y195787D01*
X498526Y199287D02*Y196287D01*
Y199287D02*X499026Y199787D01*
X500026D01*
X500526Y199287D01*
Y196287D01*
X500026Y195787D02*X500526Y196287D01*
X499026Y195787D02*X500026D01*
X498526Y196787D02*X500526Y198787D01*
X497550Y174134D02*X498850D01*
X496850Y174834D02*X497550Y174134D01*
X496850Y177434D02*Y174834D01*
Y177434D02*X497550Y178134D01*
X498850D01*
X500050Y177334D02*X500850Y178134D01*
Y174134D01*
X500050D02*X501550D01*
X485543Y377677D02*X486843D01*
X484843Y378377D02*X485543Y377677D01*
X484843Y380977D02*Y378377D01*
Y380977D02*X485543Y381677D01*
X486843D01*
X488043Y381177D02*Y378177D01*
Y381177D02*X488543Y381677D01*
X489543D01*
X490043Y381177D01*
Y378177D01*
X489543Y377677D02*X490043Y378177D01*
X488543Y377677D02*X489543D01*
X488043Y378177D02*X488543Y377677D01*
X491243Y381677D02*Y377677D01*
Y381677D02*X493743Y377677D01*
Y381677D02*Y377677D01*
X494943Y381677D02*Y377677D01*
Y381677D02*X497443Y377677D01*
Y381677D02*Y377677D01*
X498643Y381177D02*X499143Y381677D01*
X500643D01*
X501143Y381177D01*
Y380177D01*
X498643Y377677D02*X501143Y380177D01*
X498643Y377677D02*X501143D01*
X495276Y242701D02*Y239201D01*
X495776Y238701D01*
X496776D01*
X497276Y239201D01*
Y242701D02*Y239201D01*
X498476Y240201D02*X500476Y242701D01*
X498476Y240201D02*X500976D01*
X500476Y242701D02*Y238701D01*
X490354Y285614D02*Y282114D01*
X490854Y281614D01*
X491854D01*
X492354Y282114D01*
Y285614D02*Y282114D01*
X493554D02*X494054Y281614D01*
X493554Y282914D02*Y282114D01*
Y282914D02*X494254Y283614D01*
X494854D01*
X495554Y282914D01*
Y282114D01*
X495054Y281614D02*X495554Y282114D01*
X494054Y281614D02*X495054D01*
X493554Y284314D02*X494254Y283614D01*
X493554Y285114D02*Y284314D01*
Y285114D02*X494054Y285614D01*
X495054D01*
X495554Y285114D01*
Y284314D01*
X494854Y283614D02*X495554Y284314D01*
X489370Y256255D02*X490870D01*
X489370Y254055D02*X491370D01*
X489370Y258055D02*Y254055D01*
Y258055D02*X491370D01*
X494570D02*X495070Y257555D01*
X493070Y258055D02*X494570D01*
X492570Y257555D02*X493070Y258055D01*
X492570Y257555D02*Y256555D01*
X493070Y256055D01*
X494570D01*
X495070Y255555D01*
Y254555D01*
X494570Y254055D02*X495070Y254555D01*
X493070Y254055D02*X494570D01*
X492570Y254555D02*X493070Y254055D01*
X496770Y258055D02*Y254055D01*
X498070Y258055D02*X498770Y257355D01*
Y254755D01*
X498070Y254055D02*X498770Y254755D01*
X496270Y254055D02*X498070D01*
X496270Y258055D02*X498070D01*
X499970Y257555D02*X500470Y258055D01*
X501470D01*
X501970Y257555D01*
X501470Y254055D02*X501970Y254555D01*
X500470Y254055D02*X501470D01*
X499970Y254555D02*X500470Y254055D01*
Y256255D02*X501470D01*
X501970Y257555D02*Y256755D01*
Y255755D02*Y254555D01*
Y255755D02*X501470Y256255D01*
X501970Y256755D02*X501470Y256255D01*
X529724Y312780D02*Y309280D01*
X530224Y308780D01*
X531224D01*
X531724Y309280D01*
Y312780D02*Y309280D01*
X532924Y312280D02*X533424Y312780D01*
X534424D01*
X534924Y312280D01*
X534424Y308780D02*X534924Y309280D01*
X533424Y308780D02*X534424D01*
X532924Y309280D02*X533424Y308780D01*
Y310980D02*X534424D01*
X534924Y312280D02*Y311480D01*
Y310480D02*Y309280D01*
Y310480D02*X534424Y310980D01*
X534924Y311480D02*X534424Y310980D01*
X561211Y324134D02*X562511D01*
X560511Y324834D02*X561211Y324134D01*
X560511Y327434D02*Y324834D01*
Y327434D02*X561211Y328134D01*
X562511D01*
X563711Y324634D02*X564211Y324134D01*
X563711Y325434D02*Y324634D01*
Y325434D02*X564411Y326134D01*
X565011D01*
X565711Y325434D01*
Y324634D01*
X565211Y324134D02*X565711Y324634D01*
X564211Y324134D02*X565211D01*
X563711Y326834D02*X564411Y326134D01*
X563711Y327634D02*Y326834D01*
Y327634D02*X564211Y328134D01*
X565211D01*
X565711Y327634D01*
Y326834D01*
X565011Y326134D02*X565711Y326834D01*
X500787Y296638D02*X502787D01*
X503287Y296138D01*
Y295138D01*
X502787Y294638D02*X503287Y295138D01*
X501287Y294638D02*X502787D01*
X501287Y296638D02*Y292638D01*
X502087Y294638D02*X503287Y292638D01*
X504487Y296138D02*X504987Y296638D01*
X506487D01*
X506987Y296138D01*
Y295138D01*
X504487Y292638D02*X506987Y295138D01*
X504487Y292638D02*X506987D01*
X508187Y295838D02*X508987Y296638D01*
Y292638D01*
X508187D02*X509687D01*
X500394Y290339D02*X502394D01*
X502894Y289839D01*
Y288839D01*
X502394Y288339D02*X502894Y288839D01*
X500894Y288339D02*X502394D01*
X500894Y290339D02*Y286339D01*
X501694Y288339D02*X502894Y286339D01*
X504094Y289839D02*X504594Y290339D01*
X506094D01*
X506594Y289839D01*
Y288839D01*
X504094Y286339D02*X506594Y288839D01*
X504094Y286339D02*X506594D01*
X507794Y289839D02*X508294Y290339D01*
X509794D01*
X510294Y289839D01*
Y288839D01*
X507794Y286339D02*X510294Y288839D01*
X507794Y286339D02*X510294D01*
X524803Y255299D02*Y251299D01*
X527303Y255299D02*Y251299D01*
X524803Y253299D02*X527303D01*
X528503Y255299D02*Y251299D01*
X530503D01*
X532203Y255299D02*Y251299D01*
X533503Y255299D02*X534203Y254599D01*
Y251999D01*
X533503Y251299D02*X534203Y251999D01*
X531703Y251299D02*X533503D01*
X531703Y255299D02*X533503D01*
X535403Y254499D02*X536203Y255299D01*
Y251299D01*
X535403D02*X536903D01*
X541481Y180826D02*X543481D01*
X543981Y180326D01*
Y179326D01*
X543481Y178826D02*X543981Y179326D01*
X541981Y178826D02*X543481D01*
X541981Y180826D02*Y176826D01*
X542781Y178826D02*X543981Y176826D01*
X545181Y180326D02*X545681Y180826D01*
X547181D01*
X547681Y180326D01*
Y179326D01*
X545181Y176826D02*X547681Y179326D01*
X545181Y176826D02*X547681D01*
X548881Y177326D02*X549381Y176826D01*
X548881Y180326D02*Y177326D01*
Y180326D02*X549381Y180826D01*
X550381D01*
X550881Y180326D01*
Y177326D01*
X550381Y176826D02*X550881Y177326D01*
X549381Y176826D02*X550381D01*
X548881Y177826D02*X550881Y179826D01*
X541853Y172095D02*X543853D01*
X544353Y171595D01*
Y170595D01*
X543853Y170095D02*X544353Y170595D01*
X542353Y170095D02*X543853D01*
X542353Y172095D02*Y168095D01*
X543153Y170095D02*X544353Y168095D01*
X545553Y171295D02*X546353Y172095D01*
Y168095D01*
X545553D02*X547053D01*
X548753D02*X550253Y170095D01*
Y171595D02*Y170095D01*
X549753Y172095D02*X550253Y171595D01*
X548753Y172095D02*X549753D01*
X548253Y171595D02*X548753Y172095D01*
X548253Y171595D02*Y170595D01*
X548753Y170095D01*
X550253D01*
X541103Y206952D02*X543103D01*
X543603Y206452D01*
Y205452D01*
X543103Y204952D02*X543603Y205452D01*
X541603Y204952D02*X543103D01*
X541603Y206952D02*Y202952D01*
X542403Y204952D02*X543603Y202952D01*
X544803Y206452D02*X545303Y206952D01*
X546803D01*
X547303Y206452D01*
Y205452D01*
X544803Y202952D02*X547303Y205452D01*
X544803Y202952D02*X547303D01*
X541519Y197319D02*X543519D01*
X544019Y196819D01*
Y195819D01*
X543519Y195319D02*X544019Y195819D01*
X542019Y195319D02*X543519D01*
X542019Y197319D02*Y193319D01*
X542819Y195319D02*X544019Y193319D01*
X545219Y196519D02*X546019Y197319D01*
Y193319D01*
X545219D02*X546719D01*
X514043Y203866D02*Y200366D01*
X514543Y199866D01*
X515543D01*
X516043Y200366D01*
Y203866D02*Y200366D01*
X517243Y203366D02*X517743Y203866D01*
X519243D01*
X519743Y203366D01*
Y202366D01*
X517243Y199866D02*X519743Y202366D01*
X517243Y199866D02*X519743D01*
X513236Y178461D02*Y174961D01*
X513736Y174461D01*
X514736D01*
X515236Y174961D01*
Y178461D02*Y174961D01*
X516436Y177661D02*X517236Y178461D01*
Y174461D01*
X516436D02*X517936D01*
X519136Y174961D02*X519636Y174461D01*
X519136Y177961D02*Y174961D01*
Y177961D02*X519636Y178461D01*
X520636D01*
X521136Y177961D01*
Y174961D01*
X520636Y174461D02*X521136Y174961D01*
X519636Y174461D02*X520636D01*
X519136Y175461D02*X521136Y177461D01*
X511807Y148524D02*Y144524D01*
Y148524D02*X513807D01*
X511807Y146724D02*X513307D01*
X515007Y147724D02*X515807Y148524D01*
Y144524D01*
X515007D02*X516507D01*
X544294Y157764D02*X545594D01*
X543594Y158464D02*X544294Y157764D01*
X543594Y161064D02*Y158464D01*
Y161064D02*X544294Y161764D01*
X545594D01*
X547294Y157764D02*X548794Y159764D01*
Y161264D02*Y159764D01*
X548294Y161764D02*X548794Y161264D01*
X547294Y161764D02*X548294D01*
X546794Y161264D02*X547294Y161764D01*
X546794Y161264D02*Y160264D01*
X547294Y159764D01*
X548794D01*
X533770Y161142D02*X535070D01*
X533070Y161842D02*X533770Y161142D01*
X533070Y164442D02*Y161842D01*
Y164442D02*X533770Y165142D01*
X535070D01*
X536270Y164342D02*X537070Y165142D01*
Y161142D01*
X536270D02*X537770D01*
X538970Y161642D02*X539470Y161142D01*
X538970Y164642D02*Y161642D01*
Y164642D02*X539470Y165142D01*
X540470D01*
X540970Y164642D01*
Y161642D01*
X540470Y161142D02*X540970Y161642D01*
X539470Y161142D02*X540470D01*
X538970Y162142D02*X540970Y164142D01*
X578776Y164390D02*Y163090D01*
X578076Y162390D02*X578776Y163090D01*
X575476Y162390D02*X578076D01*
X575476D02*X574776Y163090D01*
Y164390D02*Y163090D01*
X575276Y165590D02*X578276D01*
X575276D02*X574776Y166090D01*
Y167090D02*Y166090D01*
Y167090D02*X575276Y167590D01*
X578276D01*
X578776Y167090D02*X578276Y167590D01*
X578776Y167090D02*Y166090D01*
X578276Y165590D02*X578776Y166090D01*
X574776Y168790D02*X578776D01*
X574776D02*X578776Y171290D01*
X574776D02*X578776D01*
X574776Y172490D02*X578776D01*
X574776D02*X578776Y174990D01*
X574776D02*X578776D01*
X575576Y176190D02*X574776Y176990D01*
X578776D01*
Y177690D02*Y176190D01*
X404724Y284433D02*Y280933D01*
X405224Y280433D01*
X406224D01*
X406724Y280933D01*
Y284433D02*Y280933D01*
X408424Y280433D02*X410424Y284433D01*
X407924D02*X410424D01*
X394882Y351531D02*X396382D01*
X394882Y349331D02*X396882D01*
X394882Y353331D02*Y349331D01*
Y353331D02*X396882D01*
X400082D02*X400582Y352831D01*
X398582Y353331D02*X400082D01*
X398082Y352831D02*X398582Y353331D01*
X398082Y352831D02*Y351831D01*
X398582Y351331D01*
X400082D01*
X400582Y350831D01*
Y349831D01*
X400082Y349331D02*X400582Y349831D01*
X398582Y349331D02*X400082D01*
X398082Y349831D02*X398582Y349331D01*
X402282Y353331D02*Y349331D01*
X403582Y353331D02*X404282Y352631D01*
Y350031D01*
X403582Y349331D02*X404282Y350031D01*
X401782Y349331D02*X403582D01*
X401782Y353331D02*X403582D01*
X405482Y352531D02*X406282Y353331D01*
Y349331D01*
X405482D02*X406982D01*
X383485Y343484D02*X385485D01*
X385985Y342984D01*
Y341984D01*
X385485Y341484D02*X385985Y341984D01*
X383985Y341484D02*X385485D01*
X383985Y343484D02*Y339484D01*
X384785Y341484D02*X385985Y339484D01*
X387185Y342684D02*X387985Y343484D01*
Y339484D01*
X387185D02*X388685D01*
X389885Y343484D02*X391885D01*
X389885D02*Y341484D01*
X390385Y341984D01*
X391385D01*
X391885Y341484D01*
Y339984D01*
X391385Y339484D02*X391885Y339984D01*
X390385Y339484D02*X391385D01*
X389885Y339984D02*X390385Y339484D01*
X402176Y361532D02*X403476D01*
X401476Y362232D02*X402176Y361532D01*
X401476Y364832D02*Y362232D01*
Y364832D02*X402176Y365532D01*
X403476D01*
X404676Y365032D02*X405176Y365532D01*
X406676D01*
X407176Y365032D01*
Y364032D01*
X404676Y361532D02*X407176Y364032D01*
X404676Y361532D02*X407176D01*
X408376Y363032D02*X410376Y365532D01*
X408376Y363032D02*X410876D01*
X410376Y365532D02*Y361532D01*
X413731Y378461D02*X415031D01*
X413031Y379161D02*X413731Y378461D01*
X413031Y381761D02*Y379161D01*
Y381761D02*X413731Y382461D01*
X415031D01*
X416231Y381961D02*Y378961D01*
Y381961D02*X416731Y382461D01*
X417731D01*
X418231Y381961D01*
Y378961D01*
X417731Y378461D02*X418231Y378961D01*
X416731Y378461D02*X417731D01*
X416231Y378961D02*X416731Y378461D01*
X419432Y382461D02*Y378461D01*
Y382461D02*X421932Y378461D01*
Y382461D02*Y378461D01*
X423132Y382461D02*Y378461D01*
Y382461D02*X425632Y378461D01*
Y382461D02*Y378461D01*
X426832Y381961D02*X427332Y382461D01*
X428332D01*
X428832Y381961D01*
X428332Y378461D02*X428832Y378961D01*
X427332Y378461D02*X428332D01*
X426832Y378961D02*X427332Y378461D01*
Y380661D02*X428332D01*
X428832Y381961D02*Y381161D01*
Y380161D02*Y378961D01*
Y380161D02*X428332Y380661D01*
X428832Y381161D02*X428332Y380661D01*
X366448Y327677D02*X367748D01*
X365748Y328377D02*X366448Y327677D01*
X365748Y330977D02*Y328377D01*
Y330977D02*X366448Y331677D01*
X367748D01*
X368948Y331177D02*X369448Y331677D01*
X370948D01*
X371448Y331177D01*
Y330177D01*
X368948Y327677D02*X371448Y330177D01*
X368948Y327677D02*X371448D01*
X374148Y331677D02*X374648Y331177D01*
X373148Y331677D02*X374148D01*
X372648Y331177D02*X373148Y331677D01*
X372648Y331177D02*Y328177D01*
X373148Y327677D01*
X374148Y329877D02*X374648Y329377D01*
X372648Y329877D02*X374148D01*
X373148Y327677D02*X374148D01*
X374648Y328177D01*
Y329377D02*Y328177D01*
X486920Y302087D02*X488220D01*
X486220Y302787D02*X486920Y302087D01*
X486220Y305387D02*Y302787D01*
Y305387D02*X486920Y306087D01*
X488220D01*
X489420Y305587D02*X489920Y306087D01*
X491420D01*
X491920Y305587D01*
Y304587D01*
X489420Y302087D02*X491920Y304587D01*
X489420Y302087D02*X491920D01*
X485433Y314354D02*X487433D01*
X487933Y313854D01*
Y312854D01*
X487433Y312354D02*X487933Y312854D01*
X485933Y312354D02*X487433D01*
X485933Y314354D02*Y310354D01*
X486733Y312354D02*X487933Y310354D01*
X489133Y313854D02*X489633Y314354D01*
X490633D01*
X491133Y313854D01*
X490633Y310354D02*X491133Y310854D01*
X489633Y310354D02*X490633D01*
X489133Y310854D02*X489633Y310354D01*
Y312554D02*X490633D01*
X491133Y313854D02*Y313054D01*
Y312054D02*Y310854D01*
Y312054D02*X490633Y312554D01*
X491133Y313054D02*X490633Y312554D01*
X485827Y324197D02*Y320197D01*
X487827D01*
X489027Y323397D02*X489827Y324197D01*
Y320197D01*
X489027D02*X490527D01*
X456606Y317835D02*X457906D01*
X455906Y318535D02*X456606Y317835D01*
X455906Y321135D02*Y318535D01*
Y321135D02*X456606Y321835D01*
X457906D01*
X459106Y321335D02*X459606Y321835D01*
X461106D01*
X461606Y321335D01*
Y320335D01*
X459106Y317835D02*X461606Y320335D01*
X459106Y317835D02*X461606D01*
X462806Y318335D02*X463306Y317835D01*
X462806Y321335D02*Y318335D01*
Y321335D02*X463306Y321835D01*
X464306D01*
X464806Y321335D01*
Y318335D01*
X464306Y317835D02*X464806Y318335D01*
X463306Y317835D02*X464306D01*
X462806Y318835D02*X464806Y320835D01*
X462905Y331221D02*X464205D01*
X462205Y331921D02*X462905Y331221D01*
X462205Y334521D02*Y331921D01*
Y334521D02*X462905Y335221D01*
X464205D01*
X465405Y334721D02*X465905Y335221D01*
X467405D01*
X467905Y334721D01*
Y333721D01*
X465405Y331221D02*X467905Y333721D01*
X465405Y331221D02*X467905D01*
X469105Y334421D02*X469905Y335221D01*
Y331221D01*
X469105D02*X470605D01*
X449913Y330433D02*X451213D01*
X449213Y331133D02*X449913Y330433D01*
X449213Y333733D02*Y331133D01*
Y333733D02*X449913Y334433D01*
X451213D01*
X452413Y333633D02*X453213Y334433D01*
Y330433D01*
X452413D02*X453913D01*
X455613D02*X457113Y332433D01*
Y333933D02*Y332433D01*
X456613Y334433D02*X457113Y333933D01*
X455613Y334433D02*X456613D01*
X455113Y333933D02*X455613Y334433D01*
X455113Y333933D02*Y332933D01*
X455613Y332433D01*
X457113D01*
X441645Y317835D02*X442945D01*
X440945Y318535D02*X441645Y317835D01*
X440945Y321135D02*Y318535D01*
Y321135D02*X441645Y321835D01*
X442945D01*
X444145Y321035D02*X444945Y321835D01*
Y317835D01*
X444145D02*X445645D01*
X446845Y318335D02*X447345Y317835D01*
X446845Y319135D02*Y318335D01*
Y319135D02*X447545Y319835D01*
X448145D01*
X448845Y319135D01*
Y318335D01*
X448345Y317835D02*X448845Y318335D01*
X447345Y317835D02*X448345D01*
X446845Y320535D02*X447545Y319835D01*
X446845Y321335D02*Y320535D01*
Y321335D02*X447345Y321835D01*
X448345D01*
X448845Y321335D01*
Y320535D01*
X448145Y319835D02*X448845Y320535D01*
X429046Y336339D02*X430346D01*
X428346Y337039D02*X429046Y336339D01*
X428346Y339639D02*Y337039D01*
Y339639D02*X429046Y340339D01*
X430346D01*
X431546Y339839D02*X432046Y340339D01*
X433546D01*
X434046Y339839D01*
Y338839D01*
X431546Y336339D02*X434046Y338839D01*
X431546Y336339D02*X434046D01*
X435246Y339839D02*X435746Y340339D01*
X436746D01*
X437246Y339839D01*
X436746Y336339D02*X437246Y336839D01*
X435746Y336339D02*X436746D01*
X435246Y336839D02*X435746Y336339D01*
Y338539D02*X436746D01*
X437246Y339839D02*Y339039D01*
Y338039D02*Y336839D01*
Y338039D02*X436746Y338539D01*
X437246Y339039D02*X436746Y338539D01*
X428740Y360417D02*Y356417D01*
X430740D01*
X431940Y359917D02*X432440Y360417D01*
X433440D01*
X433940Y359917D01*
X433440Y356417D02*X433940Y356917D01*
X432440Y356417D02*X433440D01*
X431940Y356917D02*X432440Y356417D01*
Y358617D02*X433440D01*
X433940Y359917D02*Y359117D01*
Y358117D02*Y356917D01*
Y358117D02*X433440Y358617D01*
X433940Y359117D02*X433440Y358617D01*
X428346Y346638D02*Y342638D01*
X430346D01*
X431546Y344138D02*X433546Y346638D01*
X431546Y344138D02*X434046D01*
X433546Y346638D02*Y342638D01*
X429046Y349724D02*X430346D01*
X428346Y350424D02*X429046Y349724D01*
X428346Y353024D02*Y350424D01*
Y353024D02*X429046Y353724D01*
X430346D01*
X431546Y353224D02*X432046Y353724D01*
X433546D01*
X434046Y353224D01*
Y352224D01*
X431546Y349724D02*X434046Y352224D01*
X431546Y349724D02*X434046D01*
X435246Y353724D02*X437246D01*
X435246D02*Y351724D01*
X435746Y352224D01*
X436746D01*
X437246Y351724D01*
Y350224D01*
X436746Y349724D02*X437246Y350224D01*
X435746Y349724D02*X436746D01*
X435246Y350224D02*X435746Y349724D01*
X470866Y275153D02*X472366D01*
X470866Y272953D02*X472866D01*
X470866Y276953D02*Y272953D01*
Y276953D02*X472866D01*
X476066D02*X476566Y276453D01*
X474566Y276953D02*X476066D01*
X474066Y276453D02*X474566Y276953D01*
X474066Y276453D02*Y275453D01*
X474566Y274953D01*
X476066D01*
X476566Y274453D01*
Y273453D01*
X476066Y272953D02*X476566Y273453D01*
X474566Y272953D02*X476066D01*
X474066Y273453D02*X474566Y272953D01*
X478266Y276953D02*Y272953D01*
X479566Y276953D02*X480266Y276253D01*
Y273653D01*
X479566Y272953D02*X480266Y273653D01*
X477766Y272953D02*X479566D01*
X477766Y276953D02*X479566D01*
X481466Y276453D02*X481966Y276953D01*
X483466D01*
X483966Y276453D01*
Y275453D01*
X481466Y272953D02*X483966Y275453D01*
X481466Y272953D02*X483966D01*
X472047Y269079D02*X474047D01*
X474547Y268579D01*
Y267579D01*
X474047Y267079D02*X474547Y267579D01*
X472547Y267079D02*X474047D01*
X472547Y269079D02*Y265079D01*
X473347Y267079D02*X474547Y265079D01*
X475747Y268279D02*X476547Y269079D01*
Y265079D01*
X475747D02*X477247D01*
X478447Y268579D02*X478947Y269079D01*
X479947D01*
X480447Y268579D01*
X479947Y265079D02*X480447Y265579D01*
X478947Y265079D02*X479947D01*
X478447Y265579D02*X478947Y265079D01*
Y267279D02*X479947D01*
X480447Y268579D02*Y267779D01*
Y266779D02*Y265579D01*
Y266779D02*X479947Y267279D01*
X480447Y267779D02*X479947Y267279D01*
X472835Y263173D02*X474835D01*
X475335Y262673D01*
Y261673D01*
X474835Y261173D02*X475335Y261673D01*
X473335Y261173D02*X474835D01*
X473335Y263173D02*Y259173D01*
X474135Y261173D02*X475335Y259173D01*
X476535Y262373D02*X477335Y263173D01*
Y259173D01*
X476535D02*X478035D01*
X479235Y260673D02*X481235Y263173D01*
X479235Y260673D02*X481735D01*
X481235Y263173D02*Y259173D01*
X473535Y245787D02*X474835D01*
X472835Y246487D02*X473535Y245787D01*
X472835Y249087D02*Y246487D01*
Y249087D02*X473535Y249787D01*
X474835D01*
X476035Y249287D02*X476535Y249787D01*
X477535D01*
X478035Y249287D01*
X477535Y245787D02*X478035Y246287D01*
X476535Y245787D02*X477535D01*
X476035Y246287D02*X476535Y245787D01*
Y247987D02*X477535D01*
X478035Y249287D02*Y248487D01*
Y247487D02*Y246287D01*
Y247487D02*X477535Y247987D01*
X478035Y248487D02*X477535Y247987D01*
X481015Y250512D02*X482315D01*
X480315Y251212D02*X481015Y250512D01*
X480315Y253812D02*Y251212D01*
Y253812D02*X481015Y254512D01*
X482315D01*
X483515Y252012D02*X485515Y254512D01*
X483515Y252012D02*X486015D01*
X485515Y254512D02*Y250512D01*
X454243Y298543D02*X455543D01*
X453543Y299243D02*X454243Y298543D01*
X453543Y301843D02*Y299243D01*
Y301843D02*X454243Y302543D01*
X455543D01*
X456743Y301743D02*X457543Y302543D01*
Y298543D01*
X456743D02*X458243D01*
X459943D02*X461943Y302543D01*
X459443D02*X461943D01*
X463692Y254843D02*X464992D01*
X462992Y255543D02*X463692Y254843D01*
X462992Y258143D02*Y255543D01*
Y258143D02*X463692Y258843D01*
X464992D01*
X466192D02*X468192D01*
X466192D02*Y256843D01*
X466692Y257343D01*
X467692D01*
X468192Y256843D01*
Y255343D01*
X467692Y254843D02*X468192Y255343D01*
X466692Y254843D02*X467692D01*
X466192Y255343D02*X466692Y254843D01*
X456212D02*X457512D01*
X455512Y255543D02*X456212Y254843D01*
X455512Y258143D02*Y255543D01*
Y258143D02*X456212Y258843D01*
X457512D01*
X459212Y254843D02*X461212Y258843D01*
X458712D02*X461212D01*
X440157Y248213D02*X442157D01*
X442657Y247713D01*
Y246713D01*
X442157Y246213D02*X442657Y246713D01*
X440657Y246213D02*X442157D01*
X440657Y248213D02*Y244213D01*
X441457Y246213D02*X442657Y244213D01*
X445357Y248213D02*X445857Y247713D01*
X444357Y248213D02*X445357D01*
X443857Y247713D02*X444357Y248213D01*
X443857Y247713D02*Y244713D01*
X444357Y244213D01*
X445357Y246413D02*X445857Y245913D01*
X443857Y246413D02*X445357D01*
X444357Y244213D02*X445357D01*
X445857Y244713D01*
Y245913D02*Y244713D01*
X353619Y272166D02*X355619D01*
X356119Y271666D01*
Y270666D01*
X355619Y270166D02*X356119Y270666D01*
X354119Y270166D02*X355619D01*
X354119Y272166D02*Y268166D01*
X354919Y270166D02*X356119Y268166D01*
X357319Y271366D02*X358119Y272166D01*
Y268166D01*
X357319D02*X358819D01*
X361519Y272166D02*X362019Y271666D01*
X360519Y272166D02*X361519D01*
X360019Y271666D02*X360519Y272166D01*
X360019Y271666D02*Y268666D01*
X360519Y268166D01*
X361519Y270366D02*X362019Y269866D01*
X360019Y270366D02*X361519D01*
X360519Y268166D02*X361519D01*
X362019Y268666D01*
Y269866D02*Y268666D01*
X352822Y249689D02*Y245689D01*
X354822D01*
X356022Y247889D02*X357522D01*
X356022Y245689D02*X358022D01*
X356022Y249689D02*Y245689D01*
Y249689D02*X358022D01*
X359722D02*Y245689D01*
X361022Y249689D02*X361722Y248989D01*
Y246389D01*
X361022Y245689D02*X361722Y246389D01*
X359222Y245689D02*X361022D01*
X359222Y249689D02*X361022D01*
X362922Y248889D02*X363722Y249689D01*
Y245689D01*
X362922D02*X364422D01*
X354004Y242894D02*X356004D01*
X356504Y242394D01*
Y241394D01*
X356004Y240894D02*X356504Y241394D01*
X354504Y240894D02*X356004D01*
X354504Y242894D02*Y238894D01*
X355304Y240894D02*X356504Y238894D01*
X357704Y242094D02*X358504Y242894D01*
Y238894D01*
X357704D02*X359204D01*
X360404Y242394D02*X360904Y242894D01*
X362404D01*
X362904Y242394D01*
Y241394D01*
X360404Y238894D02*X362904Y241394D01*
X360404Y238894D02*X362904D01*
X351803Y262457D02*Y259457D01*
Y262457D02*X352303Y262957D01*
X353303D01*
X353803Y262457D01*
Y259957D01*
X352803Y258957D02*X353803Y259957D01*
X352303Y258957D02*X352803D01*
X351803Y259457D02*X352303Y258957D01*
X352803Y260457D02*X353803Y258957D01*
X355003Y262157D02*X355803Y262957D01*
Y258957D01*
X355003D02*X356503D01*
X353361Y251237D02*X354661D01*
X352661Y251937D02*X353361Y251237D01*
X352661Y254537D02*Y251937D01*
Y254537D02*X353361Y255237D01*
X354661D01*
X355861Y254737D02*X356361Y255237D01*
X357861D01*
X358361Y254737D01*
Y253737D01*
X355861Y251237D02*X358361Y253737D01*
X355861Y251237D02*X358361D01*
X359561Y254737D02*X360061Y255237D01*
X361561D01*
X362061Y254737D01*
Y253737D01*
X359561Y251237D02*X362061Y253737D01*
X359561Y251237D02*X362061D01*
X374322Y152480D02*X375622D01*
X373622Y153180D02*X374322Y152480D01*
X373622Y155780D02*Y153180D01*
Y155780D02*X374322Y156480D01*
X375622D01*
X376822Y155680D02*X377622Y156480D01*
Y152480D01*
X376822D02*X378322D01*
X379522Y155980D02*X380022Y156480D01*
X381022D01*
X381522Y155980D01*
X381022Y152480D02*X381522Y152980D01*
X380022Y152480D02*X381022D01*
X379522Y152980D02*X380022Y152480D01*
Y154680D02*X381022D01*
X381522Y155980D02*Y155180D01*
Y154180D02*Y152980D01*
Y154180D02*X381022Y154680D01*
X381522Y155180D02*X381022Y154680D01*
X364567Y156480D02*X366567D01*
X367067Y155980D01*
Y154980D01*
X366567Y154480D02*X367067Y154980D01*
X365067Y154480D02*X366567D01*
X365067Y156480D02*Y152480D01*
X365867Y154480D02*X367067Y152480D01*
X368767D02*X370767Y156480D01*
X368267D02*X370767D01*
X367323Y184433D02*Y180433D01*
X369323D01*
X370523Y183933D02*X371023Y184433D01*
X372523D01*
X373023Y183933D01*
Y182933D01*
X370523Y180433D02*X373023Y182933D01*
X370523Y180433D02*X373023D01*
X422354Y185157D02*X423654D01*
X421654Y185857D02*X422354Y185157D01*
X421654Y188457D02*Y185857D01*
Y188457D02*X422354Y189157D01*
X423654D01*
X424854Y188357D02*X425654Y189157D01*
Y185157D01*
X424854D02*X426354D01*
X427554Y188357D02*X428354Y189157D01*
Y185157D01*
X427554D02*X429054D01*
X417235Y161142D02*X418535D01*
X416535Y161842D02*X417235Y161142D01*
X416535Y164442D02*Y161842D01*
Y164442D02*X417235Y165142D01*
X418535D01*
X419735Y164342D02*X420535Y165142D01*
Y161142D01*
X419735D02*X421235D01*
X422435Y164642D02*X422935Y165142D01*
X424435D01*
X424935Y164642D01*
Y163642D01*
X422435Y161142D02*X424935Y163642D01*
X422435Y161142D02*X424935D01*
X403244Y181925D02*X405744D01*
X403244Y177925D02*X405744Y181925D01*
X403244Y177925D02*X405744D01*
X406944Y181425D02*X407444Y181925D01*
X408944D01*
X409444Y181425D01*
Y180425D01*
X406944Y177925D02*X409444Y180425D01*
X406944Y177925D02*X409444D01*
X400591Y170562D02*Y166467D01*
X401176Y165882D01*
X402346D01*
X402931Y166467D01*
Y170562D02*Y166467D01*
X406090Y170562D02*X406675Y169977D01*
X404920Y170562D02*X406090D01*
X404335Y169977D02*X404920Y170562D01*
X404335Y169977D02*Y166467D01*
X404920Y165882D01*
X406090Y168456D02*X406675Y167871D01*
X404335Y168456D02*X406090D01*
X404920Y165882D02*X406090D01*
X406675Y166467D01*
Y167871D02*Y166467D01*
X382983Y142244D02*X384283D01*
X382283Y142944D02*X382983Y142244D01*
X382283Y145544D02*Y142944D01*
Y145544D02*X382983Y146244D01*
X384283D01*
X385483Y145444D02*X386283Y146244D01*
Y142244D01*
X385483D02*X386983D01*
X388183Y143744D02*X390183Y146244D01*
X388183Y143744D02*X390683D01*
X390183Y146244D02*Y142244D01*
X401881Y193425D02*X403181D01*
X401181Y194125D02*X401881Y193425D01*
X401181Y196725D02*Y194125D01*
Y196725D02*X401881Y197425D01*
X403181D01*
X404381Y196625D02*X405181Y197425D01*
Y193425D01*
X404381D02*X405881D01*
X407081Y197425D02*X409081D01*
X407081D02*Y195425D01*
X407581Y195925D01*
X408581D01*
X409081Y195425D01*
Y193925D01*
X408581Y193425D02*X409081Y193925D01*
X407581Y193425D02*X408581D01*
X407081Y193925D02*X407581Y193425D01*
X400045Y147303D02*X402045D01*
X402545Y146803D01*
Y145803D01*
X402045Y145303D02*X402545Y145803D01*
X400545Y145303D02*X402045D01*
X400545Y147303D02*Y143303D01*
X401345Y145303D02*X402545Y143303D01*
X404245D02*X405745Y145303D01*
Y146803D02*Y145303D01*
X405245Y147303D02*X405745Y146803D01*
X404245Y147303D02*X405245D01*
X403745Y146803D02*X404245Y147303D01*
X403745Y146803D02*Y145803D01*
X404245Y145303D01*
X405745D01*
X420472Y151362D02*X422472D01*
X422972Y150862D01*
Y149862D01*
X422472Y149362D02*X422972Y149862D01*
X420972Y149362D02*X422472D01*
X420972Y151362D02*Y147362D01*
X421772Y149362D02*X422972Y147362D01*
X424172Y150562D02*X424972Y151362D01*
Y147362D01*
X424172D02*X425672D01*
X426872Y150562D02*X427672Y151362D01*
Y147362D01*
X426872D02*X428372D01*
X409113Y138008D02*X410413D01*
X408413Y138708D02*X409113Y138008D01*
X408413Y141308D02*Y138708D01*
Y141308D02*X409113Y142008D01*
X410413D01*
X411613Y141208D02*X412413Y142008D01*
Y138008D01*
X411613D02*X413113D01*
X415813Y142008D02*X416313Y141508D01*
X414813Y142008D02*X415813D01*
X414313Y141508D02*X414813Y142008D01*
X414313Y141508D02*Y138508D01*
X414813Y138008D01*
X415813Y140208D02*X416313Y139708D01*
X414313Y140208D02*X415813D01*
X414813Y138008D02*X415813D01*
X416313Y138508D01*
Y139708D02*Y138508D01*
X408333Y148898D02*X410333D01*
X410833Y148398D01*
Y147398D01*
X410333Y146898D02*X410833Y147398D01*
X408833Y146898D02*X410333D01*
X408833Y148898D02*Y144898D01*
X409633Y146898D02*X410833Y144898D01*
X412033Y148098D02*X412833Y148898D01*
Y144898D01*
X412033D02*X413533D01*
X414733Y145398D02*X415233Y144898D01*
X414733Y148398D02*Y145398D01*
Y148398D02*X415233Y148898D01*
X416233D01*
X416733Y148398D01*
Y145398D01*
X416233Y144898D02*X416733Y145398D01*
X415233Y144898D02*X416233D01*
X414733Y145898D02*X416733Y147898D01*
X427165Y158449D02*X429165D01*
X429665Y157949D01*
Y156949D01*
X429165Y156449D02*X429665Y156949D01*
X427665Y156449D02*X429165D01*
X427665Y158449D02*Y154449D01*
X428465Y156449D02*X429665Y154449D01*
X430865Y154949D02*X431365Y154449D01*
X430865Y155749D02*Y154949D01*
Y155749D02*X431565Y156449D01*
X432165D01*
X432865Y155749D01*
Y154949D01*
X432365Y154449D02*X432865Y154949D01*
X431365Y154449D02*X432365D01*
X430865Y157149D02*X431565Y156449D01*
X430865Y157949D02*Y157149D01*
Y157949D02*X431365Y158449D01*
X432365D01*
X432865Y157949D01*
Y157149D01*
X432165Y156449D02*X432865Y157149D01*
X495276Y227346D02*X497276D01*
X497776Y226846D01*
Y225846D01*
X497276Y225346D02*X497776Y225846D01*
X495776Y225346D02*X497276D01*
X495776Y227346D02*Y223346D01*
X496576Y225346D02*X497776Y223346D01*
X498976Y226846D02*X499476Y227346D01*
X500976D01*
X501476Y226846D01*
Y225846D01*
X498976Y223346D02*X501476Y225846D01*
X498976Y223346D02*X501476D01*
X502676Y226846D02*X503176Y227346D01*
X504176D01*
X504676Y226846D01*
X504176Y223346D02*X504676Y223846D01*
X503176Y223346D02*X504176D01*
X502676Y223846D02*X503176Y223346D01*
Y225546D02*X504176D01*
X504676Y226846D02*Y226046D01*
Y225046D02*Y223846D01*
Y225046D02*X504176Y225546D01*
X504676Y226046D02*X504176Y225546D01*
X485146Y193094D02*Y189094D01*
X486446Y193094D02*X487146Y192394D01*
Y189794D01*
X486446Y189094D02*X487146Y189794D01*
X484646Y189094D02*X486446D01*
X484646Y193094D02*X486446D01*
X488346Y192294D02*X489146Y193094D01*
Y189094D01*
X488346D02*X489846D01*
X441339Y165929D02*Y162429D01*
X441839Y161929D01*
X442839D01*
X443339Y162429D01*
Y165929D02*Y162429D01*
X444539Y165129D02*X445339Y165929D01*
Y161929D01*
X444539D02*X446039D01*
X433071Y176953D02*X435071D01*
X435571Y176453D01*
Y175453D01*
X435071Y174953D02*X435571Y175453D01*
X433571Y174953D02*X435071D01*
X433571Y176953D02*Y172953D01*
X434371Y174953D02*X435571Y172953D01*
X436771Y176153D02*X437571Y176953D01*
Y172953D01*
X436771D02*X438271D01*
X439471Y173453D02*X439971Y172953D01*
X439471Y174253D02*Y173453D01*
Y174253D02*X440171Y174953D01*
X440771D01*
X441471Y174253D01*
Y173453D01*
X440971Y172953D02*X441471Y173453D01*
X439971Y172953D02*X440971D01*
X439471Y175653D02*X440171Y174953D01*
X439471Y176453D02*Y175653D01*
Y176453D02*X439971Y176953D01*
X440971D01*
X441471Y176453D01*
Y175653D01*
X440771Y174953D02*X441471Y175653D01*
X450394Y178879D02*Y175379D01*
X450894Y174879D01*
X451894D01*
X452394Y175379D01*
Y178879D02*Y175379D01*
X454094Y174879D02*X455594Y176879D01*
Y178379D02*Y176879D01*
X455094Y178879D02*X455594Y178379D01*
X454094Y178879D02*X455094D01*
X453594Y178379D02*X454094Y178879D01*
X453594Y178379D02*Y177379D01*
X454094Y176879D01*
X455594D01*
X471260Y237583D02*Y234083D01*
X471760Y233583D01*
X472760D01*
X473260Y234083D01*
Y237583D02*Y234083D01*
X474460Y237583D02*X476460D01*
X474460D02*Y235583D01*
X474960Y236083D01*
X475960D01*
X476460Y235583D01*
Y234083D01*
X475960Y233583D02*X476460Y234083D01*
X474960Y233583D02*X475960D01*
X474460Y234083D02*X474960Y233583D01*
X474913Y230654D02*X475413Y230154D01*
X473413Y230654D02*X474913D01*
X472913Y230154D02*X473413Y230654D01*
X472913Y230154D02*Y229154D01*
X473413Y228654D01*
X474913D01*
X475413Y228154D01*
Y227154D01*
X474913Y226654D02*X475413Y227154D01*
X473413Y226654D02*X474913D01*
X472913Y227154D02*X473413Y226654D01*
X476613Y229654D02*Y226654D01*
Y229654D02*X477313Y230654D01*
X478413D01*
X479113Y229654D01*
Y226654D01*
X476613Y228654D02*X479113D01*
X480313Y230154D02*Y227154D01*
Y230154D02*X480813Y230654D01*
X481813D01*
X482313Y230154D01*
Y227154D01*
X481813Y226654D02*X482313Y227154D01*
X480813Y226654D02*X481813D01*
X480313Y227154D02*X480813Y226654D01*
X483513Y229854D02*X484313Y230654D01*
Y226654D01*
X483513D02*X485013D01*
X439764Y241913D02*X441764D01*
X442264Y241413D01*
Y240413D01*
X441764Y239913D02*X442264Y240413D01*
X440264Y239913D02*X441764D01*
X440264Y241913D02*Y237913D01*
X441064Y239913D02*X442264Y237913D01*
X443464Y241913D02*X445464D01*
X443464D02*Y239913D01*
X443964Y240413D01*
X444964D01*
X445464Y239913D01*
Y238413D01*
X444964Y237913D02*X445464Y238413D01*
X443964Y237913D02*X444964D01*
X443464Y238413D02*X443964Y237913D01*
X447244Y232465D02*X449244D01*
X449744Y231965D01*
Y230965D01*
X449244Y230465D02*X449744Y230965D01*
X447744Y230465D02*X449244D01*
X447744Y232465D02*Y228465D01*
X448544Y230465D02*X449744Y228465D01*
X450944Y229965D02*X452944Y232465D01*
X450944Y229965D02*X453444D01*
X452944Y232465D02*Y228465D01*
X452736Y199016D02*X456736D01*
Y201016D02*Y199016D01*
X452736Y204216D02*Y202216D01*
X454736D01*
X454236Y202716D01*
Y203716D02*Y202716D01*
Y203716D02*X454736Y204216D01*
X456236D01*
X456736Y203716D02*X456236Y204216D01*
X456736Y203716D02*Y202716D01*
X456236Y202216D02*X456736Y202716D01*
X483303Y154961D02*X485803D01*
X483303Y150961D02*X485803Y154961D01*
X483303Y150961D02*X485803D01*
X487003Y154161D02*X487803Y154961D01*
Y150961D01*
X487003D02*X488503D01*
X459755Y144213D02*X461055D01*
X459055Y144913D02*X459755Y144213D01*
X459055Y147513D02*Y144913D01*
Y147513D02*X459755Y148213D01*
X461055D01*
X462255Y147713D02*X462755Y148213D01*
X464255D01*
X464755Y147713D01*
Y146713D01*
X462255Y144213D02*X464755Y146713D01*
X462255Y144213D02*X464755D01*
X465955Y144713D02*X466455Y144213D01*
X465955Y145513D02*Y144713D01*
Y145513D02*X466655Y146213D01*
X467255D01*
X467955Y145513D01*
Y144713D01*
X467455Y144213D02*X467955Y144713D01*
X466455Y144213D02*X467455D01*
X465955Y146913D02*X466655Y146213D01*
X465955Y147713D02*Y146913D01*
Y147713D02*X466455Y148213D01*
X467455D01*
X467955Y147713D01*
Y146913D01*
X467255Y146213D02*X467955Y146913D01*
X445976Y147362D02*X447276D01*
X445276Y148062D02*X445976Y147362D01*
X445276Y150662D02*Y148062D01*
Y150662D02*X445976Y151362D01*
X447276D01*
X448476Y150862D02*X448976Y151362D01*
X450476D01*
X450976Y150862D01*
Y149862D01*
X448476Y147362D02*X450976Y149862D01*
X448476Y147362D02*X450976D01*
X452676D02*X454176Y149362D01*
Y150862D02*Y149362D01*
X453676Y151362D02*X454176Y150862D01*
X452676Y151362D02*X453676D01*
X452176Y150862D02*X452676Y151362D01*
X452176Y150862D02*Y149862D01*
X452676Y149362D01*
X454176D01*
X484752Y174197D02*Y170197D01*
X486052Y174197D02*X486752Y173497D01*
Y170897D01*
X486052Y170197D02*X486752Y170897D01*
X484252Y170197D02*X486052D01*
X484252Y174197D02*X486052D01*
X487952Y173697D02*X488452Y174197D01*
X489952D01*
X490452Y173697D01*
Y172697D01*
X487952Y170197D02*X490452Y172697D01*
X487952Y170197D02*X490452D01*
X471566Y164291D02*X472866D01*
X470866Y164991D02*X471566Y164291D01*
X470866Y167591D02*Y164991D01*
Y167591D02*X471566Y168291D01*
X472866D01*
X474066Y167791D02*X474566Y168291D01*
X476066D01*
X476566Y167791D01*
Y166791D01*
X474066Y164291D02*X476566Y166791D01*
X474066Y164291D02*X476566D01*
X478266D02*X480266Y168291D01*
X477766D02*X480266D01*
M02*
