G04 start of page 11 for group -4015 idx -4015 *
G04 Title: (unknown), toppaste *
G04 Creator: pcb 20140316 *
G04 CreationDate: Fri Aug 26 09:03:46 2016 UTC *
G04 For: clemi *
G04 Format: Gerber/RS-274X *
G04 PCB-Dimensions (mil): 6000.00 5000.00 *
G04 PCB-Coordinate-Origin: lower left *
%MOIN*%
%FSLAX25Y25*%
%LNTOPPASTE*%
%ADD160R,0.0237X0.0237*%
%ADD159R,0.0118X0.0118*%
%ADD158R,0.0056X0.0056*%
%ADD157R,0.0079X0.0079*%
%ADD156R,0.0787X0.0787*%
%ADD155R,0.0098X0.0098*%
%ADD154R,0.0197X0.0197*%
%ADD153R,0.0638X0.0638*%
%ADD152R,0.0630X0.0630*%
%ADD151R,0.0295X0.0295*%
%ADD150R,0.0472X0.0472*%
%ADD149R,0.0433X0.0433*%
%ADD148R,0.0138X0.0138*%
%ADD147R,0.0945X0.0945*%
%ADD146C,0.0001*%
%ADD145R,0.0413X0.0413*%
%ADD144R,0.0394X0.0394*%
%ADD143R,0.0157X0.0157*%
%ADD142R,0.0315X0.0315*%
%ADD141R,0.0512X0.0512*%
%ADD140R,0.0236X0.0236*%
%ADD139R,0.0197X0.0197*%
G54D139*X491339Y232283D02*X492125D01*
X491339Y229135D02*X492125D01*
X498032Y189371D02*X498818D01*
X498032Y192519D02*X498818D01*
X537402Y177165D02*X538188D01*
X537402Y180313D02*X538188D01*
G54D140*X504772Y177303D02*X508315D01*
X504772Y172303D02*X508315D01*
X504772Y167303D02*X508315D01*
X504772Y162303D02*X508315D01*
X526031D02*X529575D01*
X526031Y167303D02*X529575D01*
X526031Y172303D02*X529575D01*
X526031Y177303D02*X529575D01*
G54D139*X537288Y171704D02*X538074D01*
X537288Y168556D02*X538074D01*
X498032Y170865D02*X498818D01*
X498032Y167717D02*X498818D01*
X537402Y203150D02*X538188D01*
X537402Y206298D02*X538188D01*
X537402Y197243D02*X538188D01*
X537402Y194095D02*X538188D01*
G54D140*X504610Y203102D02*X508154D01*
X504610Y198102D02*X508154D01*
X504610Y193102D02*X508154D01*
X504610Y188102D02*X508154D01*
X525870D02*X529413D01*
X525870Y193102D02*X529413D01*
X525870Y198102D02*X529413D01*
X525870Y203102D02*X529413D01*
G54D139*X501544Y229130D02*X502330D01*
X501544Y232278D02*X502330D01*
X490158Y262991D02*X490944D01*
X490158Y259843D02*X490944D01*
X495670Y304330D02*Y303544D01*
X498818Y304330D02*Y303544D01*
G54D141*X495552Y313386D02*Y311024D01*
X507362Y313386D02*Y311024D01*
G54D142*X551575Y294094D02*X556299D01*
X551575Y298425D02*X556299D01*
X551575Y302756D02*X556299D01*
X551575Y307087D02*X556299D01*
X551575Y311417D02*X556299D01*
X551575Y315748D02*X556299D01*
X551575Y320079D02*X556299D01*
X551575Y324409D02*X556299D01*
X551575Y328740D02*X556299D01*
X513386D02*X518110D01*
X513386Y324409D02*X518110D01*
X513386Y320079D02*X518110D01*
X513386Y315748D02*X518110D01*
X513386Y311417D02*X518110D01*
X513386Y307087D02*X518110D01*
X513386Y302756D02*X518110D01*
X513386Y298425D02*X518110D01*
X513386Y294094D02*X518110D01*
G54D143*X551575D02*X556299D01*
X551575Y298425D02*X556299D01*
X551575Y302756D02*X556299D01*
X551575Y307087D02*X556299D01*
X551575Y311417D02*X556299D01*
X551575Y315748D02*X556299D01*
X551575Y320079D02*X556299D01*
X551575Y324409D02*X556299D01*
X551575Y328740D02*X556299D01*
X513386D02*X518110D01*
X513386Y324409D02*X518110D01*
X513386Y320079D02*X518110D01*
X513386Y315748D02*X518110D01*
X513386Y311417D02*X518110D01*
X513386Y307087D02*X518110D01*
X513386Y302756D02*X518110D01*
X513386Y298425D02*X518110D01*
X513386Y294094D02*X518110D01*
G54D139*X495276Y324015D02*X496062D01*
X495276Y320867D02*X496062D01*
X561103Y320472D02*Y319686D01*
X564251Y320472D02*Y319686D01*
G54D144*X491732Y364961D02*Y364764D01*
G54D145*X485925Y373130D02*Y368602D01*
X497539Y373130D02*Y368602D01*
G54D146*G36*
X370079Y295276D02*Y291339D01*
X374016D01*
Y295276D01*
X370079D01*
G37*
G54D139*X365473Y271418D02*Y270632D01*
X368621Y271418D02*Y270632D01*
G54D146*G36*
X364961Y290551D02*Y286614D01*
X368898D01*
Y290551D01*
X364961D01*
G37*
G36*
X370079Y286220D02*Y282283D01*
X374016D01*
Y286220D01*
X370079D01*
G37*
G36*
X364961Y281890D02*Y277953D01*
X368898D01*
Y281890D01*
X364961D01*
G37*
G36*
X370079Y277559D02*Y273622D01*
X374016D01*
Y277559D01*
X370079D01*
G37*
G54D139*X455906Y324410D02*X456692D01*
X455906Y327558D02*X456692D01*
X449607Y324409D02*X450393D01*
X449607Y327557D02*X450393D01*
X442914Y324409D02*X443700D01*
X442914Y327557D02*X443700D01*
X497637Y267322D02*Y266536D01*
X494489Y267322D02*Y266536D01*
X497637Y263385D02*Y262599D01*
X494489Y263385D02*Y262599D01*
X490158Y266930D02*X490944D01*
X490158Y270078D02*X490944D01*
X487007Y267322D02*Y266536D01*
X483859Y267322D02*Y266536D01*
X486221Y262991D02*X487007D01*
X486221Y259843D02*X487007D01*
G54D147*X445079Y301772D02*Y299803D01*
X469094Y301772D02*Y299803D01*
G54D148*X456988Y244882D02*X457382D01*
X456988Y242913D02*X457382D01*
X456988Y240945D02*X457382D01*
X456988Y238976D02*X457382D01*
X456988Y237008D02*X457382D01*
X466240D02*X466634D01*
X466240Y238976D02*X466634D01*
X466240Y240945D02*X466634D01*
X466240Y242913D02*X466634D01*
X466240Y244882D02*X466634D01*
X459843Y236516D02*Y236122D01*
X461811Y236516D02*Y236122D01*
X463780Y236516D02*Y236122D01*
Y245768D02*Y245374D01*
X461811Y245768D02*Y245374D01*
X459843Y245768D02*Y245374D01*
G54D139*X464174Y251968D02*Y251182D01*
X467322Y251968D02*Y251182D01*
X459842Y251968D02*Y251182D01*
X456694Y251968D02*Y251182D01*
X451574Y240550D02*Y239764D01*
X448426Y240550D02*Y239764D01*
X451574Y244881D02*Y244095D01*
X448426Y244881D02*Y244095D01*
G54D148*X482890Y244787D02*X483283D01*
X482890Y242819D02*X483283D01*
X482890Y240850D02*X483283D01*
X482890Y238882D02*X483283D01*
X482890Y236913D02*X483283D01*
X492142D02*X492535D01*
X492142Y238882D02*X492535D01*
X492142Y240850D02*X492535D01*
X492142Y242819D02*X492535D01*
X492142Y244787D02*X492535D01*
X485744Y236717D02*Y236323D01*
X487713Y236717D02*Y236323D01*
X489681Y236717D02*Y236323D01*
Y245378D02*Y244984D01*
X487713Y245378D02*Y244984D01*
X485744Y245378D02*Y244984D01*
G54D139*X476493Y240261D02*X477279D01*
X476493Y243409D02*X477279D01*
X488106Y252070D02*Y251284D01*
X491254Y252070D02*Y251284D01*
X451574Y236220D02*Y235434D01*
X448426Y236220D02*Y235434D01*
G54D146*G36*
X461811Y232283D02*Y224409D01*
X469685D01*
Y232283D01*
X461811D01*
G37*
G54D139*X400729Y358854D02*X401515D01*
X400729Y355706D02*X401515D01*
X420414Y337595D02*X421200D01*
X420414Y340743D02*X421200D01*
X405650Y358854D02*X406436D01*
X405650Y355706D02*X406436D01*
X394824Y340154D02*X395610D01*
X394824Y343302D02*X395610D01*
X417659Y359247D02*Y358461D01*
X420807Y359247D02*Y358461D01*
X423955Y345468D02*Y344682D01*
X420807Y345468D02*Y344682D01*
X420414Y350391D02*X421200D01*
X420414Y353539D02*X421200D01*
G54D144*X420807Y364858D02*Y364661D01*
G54D145*X415000Y373028D02*Y368500D01*
X426614Y373028D02*Y368500D01*
G54D139*X371523Y247106D02*Y246320D01*
X368375Y247106D02*Y246320D01*
Y243106D02*Y242320D01*
X371523Y243106D02*Y242320D01*
G54D140*X361240Y265346D02*Y264953D01*
X368720Y265346D02*Y264953D01*
X364980Y257472D02*Y257079D01*
G54D142*X378878Y325567D02*X381634D01*
X378878Y321236D02*X381634D01*
X378878Y316906D02*X381634D01*
X378878Y312575D02*X381634D01*
X378878Y308244D02*X381634D01*
X378878Y303913D02*X381634D01*
X378878Y299583D02*X381634D01*
X378878Y295252D02*X381634D01*
X378878Y290921D02*X381634D01*
X378878Y286591D02*X381634D01*
X378878Y282260D02*X381634D01*
X378878Y277929D02*X381634D01*
X378878Y273598D02*X381634D01*
X378878Y269268D02*X381634D01*
X378878Y264937D02*X381634D01*
X378878Y260606D02*X381634D01*
X378878Y256276D02*X381634D01*
X378878Y251945D02*X381634D01*
X378878Y247614D02*X381634D01*
X378878Y243283D02*X381634D01*
X378878Y238953D02*X381634D01*
X433602D02*X436358D01*
X433602Y243283D02*X436358D01*
X433602Y247614D02*X436358D01*
X433602Y251945D02*X436358D01*
X433602Y256276D02*X436358D01*
X433602Y260606D02*X436358D01*
X433602Y264937D02*X436358D01*
X433602Y269268D02*X436358D01*
X433602Y273598D02*X436358D01*
X433602Y277929D02*X436358D01*
X433602Y282260D02*X436358D01*
X433602Y286591D02*X436358D01*
X433602Y290921D02*X436358D01*
X433602Y295252D02*X436358D01*
X433602Y299583D02*X436358D01*
X433602Y303913D02*X436358D01*
X433602Y308244D02*X436358D01*
X433602Y312575D02*X436358D01*
X433602Y316906D02*X436358D01*
X433602Y321236D02*X436358D01*
X433602Y325567D02*X436358D01*
X385965Y236591D02*Y233835D01*
X390295Y236591D02*Y233835D01*
X394626Y236591D02*Y233835D01*
X398957Y236591D02*Y233835D01*
X403287Y236591D02*Y233835D01*
X407618Y236591D02*Y233835D01*
X411949Y236591D02*Y233835D01*
X416280Y236591D02*Y233835D01*
X420610Y236591D02*Y233835D01*
X424941Y236591D02*Y233835D01*
X429272Y236591D02*Y233835D01*
Y330685D02*Y327929D01*
X424941Y330685D02*Y327929D01*
X420610Y330685D02*Y327929D01*
X416280Y330685D02*Y327929D01*
X411949Y330685D02*Y327929D01*
X407618Y330685D02*Y327929D01*
X403287Y330685D02*Y327929D01*
X398957Y330685D02*Y327929D01*
X394626Y330685D02*Y327929D01*
X390295Y330685D02*Y327929D01*
X385965Y330685D02*Y327929D01*
G54D146*G36*
X384783Y324780D02*Y320449D01*
X389114D01*
Y324780D01*
X384783D01*
G37*
G36*
X393051D02*Y320449D01*
X397382D01*
Y324780D01*
X393051D01*
G37*
G36*
X401319D02*Y320449D01*
X405650D01*
Y324780D01*
X401319D01*
G37*
G36*
X409587D02*Y320449D01*
X413917D01*
Y324780D01*
X409587D01*
G37*
G36*
X417854D02*Y320449D01*
X422185D01*
Y324780D01*
X417854D01*
G37*
G36*
X426122D02*Y320449D01*
X430453D01*
Y324780D01*
X426122D01*
G37*
G36*
X384783Y317693D02*Y313362D01*
X389114D01*
Y317693D01*
X384783D01*
G37*
G36*
X393051D02*Y313362D01*
X397382D01*
Y317693D01*
X393051D01*
G37*
G36*
X401319D02*Y313362D01*
X405650D01*
Y317693D01*
X401319D01*
G37*
G36*
X409587D02*Y313362D01*
X413917D01*
Y317693D01*
X409587D01*
G37*
G36*
X417854D02*Y313362D01*
X422185D01*
Y317693D01*
X417854D01*
G37*
G36*
X426122D02*Y313362D01*
X430453D01*
Y317693D01*
X426122D01*
G37*
G36*
X384783Y310606D02*Y306276D01*
X389114D01*
Y310606D01*
X384783D01*
G37*
G36*
X426122D02*Y306276D01*
X430453D01*
Y310606D01*
X426122D01*
G37*
G36*
X384783Y296433D02*Y292102D01*
X389114D01*
Y296433D01*
X384783D01*
G37*
G36*
X426122D02*Y292102D01*
X430453D01*
Y296433D01*
X426122D01*
G37*
G36*
X384783Y244071D02*Y239740D01*
X389114D01*
Y244071D01*
X384783D01*
G37*
G36*
X393051D02*Y239740D01*
X397382D01*
Y244071D01*
X393051D01*
G37*
G36*
X401319D02*Y239740D01*
X405650D01*
Y244071D01*
X401319D01*
G37*
G36*
X409587D02*Y239740D01*
X413917D01*
Y244071D01*
X409587D01*
G37*
G36*
X417854D02*Y239740D01*
X422185D01*
Y244071D01*
X417854D01*
G37*
G36*
X426122D02*Y239740D01*
X430453D01*
Y244071D01*
X426122D01*
G37*
G36*
X384783Y251157D02*Y246827D01*
X389114D01*
Y251157D01*
X384783D01*
G37*
G36*
X393051D02*Y246827D01*
X397382D01*
Y251157D01*
X393051D01*
G37*
G36*
X401319D02*Y246827D01*
X405650D01*
Y251157D01*
X401319D01*
G37*
G36*
X409587D02*Y246827D01*
X413917D01*
Y251157D01*
X409587D01*
G37*
G36*
X417854D02*Y246827D01*
X422185D01*
Y251157D01*
X417854D01*
G37*
G36*
X426122D02*Y246827D01*
X430453D01*
Y251157D01*
X426122D01*
G37*
G36*
X384783Y258244D02*Y253913D01*
X389114D01*
Y258244D01*
X384783D01*
G37*
G36*
X426122D02*Y253913D01*
X430453D01*
Y258244D01*
X426122D01*
G37*
G36*
X384783Y272417D02*Y268087D01*
X389114D01*
Y272417D01*
X384783D01*
G37*
G36*
X426122D02*Y268087D01*
X430453D01*
Y272417D01*
X426122D01*
G37*
G54D139*X372574Y255645D02*Y254859D01*
X369426Y255645D02*Y254859D01*
G54D149*X559902Y280598D02*X566201D01*
X541398D02*X547697D01*
X511594D02*X516319D01*
G54D144*X510492Y268315D02*X511280D01*
G54D142*X509232Y263591D02*X510020D01*
G54D150*X509429Y258079D02*Y254929D01*
G54D149*X511594Y229811D02*X516319D01*
X534626D02*X539350D01*
X551949D02*X556673D01*
G54D140*X561280Y235480D02*X567185D01*
X550768Y246720D02*X551555D01*
Y251051D02*X552343D01*
X550768Y255382D02*X551555D01*
Y259713D02*X552343D01*
X550768Y264043D02*X551555D01*
Y268374D02*X552343D01*
G54D139*X389304Y156570D02*X390090D01*
X389304Y153422D02*X390090D01*
X384383Y156570D02*X385169D01*
X384383Y153422D02*X385169D01*
G54D141*X422588Y181196D02*X428098D01*
X422588Y169386D02*X428098D01*
G54D151*X411465Y168402D02*X412449D01*
X411465Y163284D02*X412449D01*
G54D139*X402115Y150093D02*Y149307D01*
X405263Y150093D02*Y149307D01*
X416091Y152064D02*X416877D01*
X416091Y155212D02*X416877D01*
X409989Y152062D02*Y151276D01*
X413137Y152062D02*Y151276D01*
X409989Y155999D02*Y155213D01*
X413137Y155999D02*Y155213D01*
X385702Y150062D02*Y149276D01*
X388850Y150062D02*Y149276D01*
G54D144*X398571Y198323D02*Y193598D01*
X410776Y198323D02*Y193598D01*
G54D152*X368059Y164661D02*X374358D01*
X368059Y199701D02*X374358D01*
G54D153*X414949Y181315D02*Y179110D01*
X398335Y181315D02*Y179110D01*
G54D139*X423201Y158023D02*X423987D01*
X423201Y154875D02*X423987D01*
G54D154*X491394Y184713D02*X493362D01*
X482535D02*X484504D01*
G54D141*X545957Y152633D02*X546743D01*
X545957Y145547D02*X546743D01*
G54D153*X477449Y154315D02*Y152110D01*
X494063Y154315D02*Y152110D01*
G54D154*X491394Y177713D02*X493362D01*
X482535D02*X484504D01*
G54D141*X532465Y157287D02*X537975D01*
X532465Y145477D02*X537975D01*
G54D151*X444578Y177503D02*X445562D01*
X444578Y172385D02*X445562D01*
X466971Y168602D02*X467955D01*
X466971Y163484D02*X467955D01*
G54D141*X458736Y154783D02*Y153997D01*
X465822Y154783D02*Y153997D01*
G54D139*X452230Y155267D02*Y154481D01*
X449082Y155267D02*Y154481D01*
G54D155*X458605Y172244D02*Y170866D01*
X456637Y172244D02*Y170866D01*
X454668Y172244D02*Y170866D01*
X452700Y172244D02*Y170866D01*
Y161220D02*Y159843D01*
X454668Y161220D02*Y159843D01*
X456637Y161220D02*Y159843D01*
X458605Y161220D02*Y159843D01*
X449452Y168996D02*X450830D01*
X449452Y167028D02*X450830D01*
X449452Y165059D02*X450830D01*
X449452Y163091D02*X450830D01*
X460475D02*X461853D01*
X460475Y165059D02*X461853D01*
X460475Y167028D02*X461853D01*
X460475Y168996D02*X461853D01*
G54D146*G36*
X452306Y169390D02*Y162697D01*
X458999D01*
Y169390D01*
X452306D01*
G37*
G36*
X456143Y168900D02*Y166534D01*
X458509D01*
Y168900D01*
X456143D01*
G37*
G36*
X452796D02*Y166534D01*
X455162D01*
Y168900D01*
X452796D01*
G37*
G36*
X456143Y165553D02*Y163187D01*
X458509D01*
Y165553D01*
X456143D01*
G37*
G36*
X452796D02*Y163187D01*
X455162D01*
Y165553D01*
X452796D01*
G37*
G54D149*X457051Y190984D02*Y187441D01*
X475949Y190984D02*Y187441D01*
X464728Y198661D02*X468272D01*
X464728Y179764D02*X468272D01*
G54D156*X557043Y145657D02*X568854D01*
X557043Y157469D02*X568854D01*
X557043Y169280D02*X568854D01*
X557043Y181091D02*X568854D01*
X557043Y192902D02*X568854D01*
X557043Y204713D02*X568854D01*
G54D139*X370473Y320867D02*X371259D01*
X370473Y324015D02*X371259D01*
X461812Y324410D02*X462598D01*
X461812Y327558D02*X462598D01*
G54D157*X495177Y274016D02*X496358D01*
X495177Y275591D02*X496358D01*
X495177Y277165D02*X496358D01*
X495177Y278740D02*X496358D01*
X490256D02*X491437D01*
X490256Y277165D02*X491437D01*
X490256Y275591D02*X491437D01*
X490256Y274016D02*X491437D01*
G54D143*X493307Y277953D02*Y274803D01*
G54D158*X493701Y275754D02*Y274640D01*
Y278116D02*Y277002D01*
X492913Y275754D02*Y274640D01*
Y278116D02*Y277002D01*
G54D159*X393110Y162480D02*X395079D01*
X393110Y160512D02*X395079D01*
X393110Y158543D02*X395079D01*
X393110Y156575D02*X395079D01*
X404921D02*X406890D01*
X404921Y158543D02*X406890D01*
X404921Y160512D02*X406890D01*
X404921Y162480D02*X406890D01*
G54D160*X398327Y162343D02*Y161397D01*
Y157658D02*Y156712D01*
X401673Y162343D02*Y161397D01*
Y157658D02*Y156712D01*
M02*
