M48
INCH
T82C0.035
T81C0.012
T80C0.020
T79C0.024
T78C0.008
T77C0.035
%
T78
X039783Y016287
X039783Y015618
X040000Y015953
X040217Y016287
X040217Y015618
X045329Y016841
X045329Y016368
X045565Y016604
X045801Y016841
X045801Y016368
X049331Y027815
X049331Y027638
X049331Y027461
T81
X039134Y034252
X039134Y033858
X039213Y035630
X039213Y035315
X039213Y034961
X039213Y034606
X039213Y033504
X039370Y035945
X039606Y036181
X039803Y035157
X039803Y033425
X039843Y034764
X039843Y033740
X039882Y034449
X039882Y034094
X039961Y036260
X040157Y035276
X040276Y036260
X040551Y035276
X040630Y036260
X040906Y035354
X040984Y036181
X041181Y035591
X041339Y036181
X041535Y035551
X041575Y036496
X041693Y036260
X041693Y035000
X041693Y034016
X041693Y033701
X041732Y035315
X041732Y034685
X041732Y034370
X041772Y033386
X042362Y033386
X042402Y035906
X042402Y035551
X042402Y034843
X042402Y034213
X042441Y033937
X042441Y033661
X042480Y036220
X042480Y035197
X042598Y036496
X042677Y034528
X044173Y024724
X044213Y025472
X044252Y027913
X045276Y027323
X045276Y026772
X045433Y024409
X045433Y024094
X045669Y023504
X045669Y022756
X046260Y026890
X047047Y024409
X047047Y024094
X047126Y024921
X047244Y022913
X047402Y026929
X047717Y024961
X047874Y023465
X048701Y036378
X048819Y036102
X048819Y035787
X048819Y035472
X048819Y035157
X048819Y034843
X048819Y034528
X048819Y034213
X048819Y033898
X048819Y033583
X048819Y033268
X048819Y032953
X048819Y032638
X048858Y022559
X048937Y032323
X049055Y031535
X049055Y031220
X049055Y030866
X049173Y032126
X049213Y031850
X049213Y030591
X049213Y030236
X049449Y036024
X049449Y035709
X049449Y035394
X049449Y035079
X049449Y034764
X049449Y034449
X049449Y034134
X049449Y033819
X049449Y033504
X049449Y033189
X049449Y032874
X049528Y030000
X049606Y036299
X049724Y032717
X049882Y031850
X049961Y030000
X050000Y032165
X050000Y030669
X050039Y032717
X050236Y031850
X050315Y023819
X050354Y032717
X050394Y032165
X050394Y030591
X050591Y031850
X050669Y032717
X050709Y032165
X050827Y030591
X050945Y031850
X050984Y032717
X051024Y032165
X051929Y016496
X052244Y016102
X056339Y012874
T80
X034567Y034567
X034567Y033937
X034567Y033307
X034567Y032677
X034567Y032087
X034567Y031496
X034567Y030866
X034567Y030236
X034567Y029606
X034567Y028976
X034567Y028307
X034567Y027677
X034567Y027008
X034567Y026378
X034567Y025748
X034567Y025157
X034567Y024567
X034567Y023937
X034567Y023307
X034567Y022717
X034567Y022126
X034567Y021457
X034567Y020787
X034567Y020157
X034567Y019567
X034567Y018937
X034567Y018307
X034567Y017677
X034567Y017008
X034567Y016378
X034567Y015709
X034567Y015039
X034567Y014409
X034567Y013819
X034567Y013150
X034606Y035197
X034724Y035827
X035000Y036378
X035000Y012638
X035236Y020433
X035354Y036890
X035354Y031614
X035354Y030630
X035433Y033268
X035433Y015591
X035433Y013386
X035433Y012165
X035630Y035000
X035787Y037362
X036063Y012008
X036102Y032441
X036181Y034055
X036220Y015591
X036339Y037717
X036575Y023661
X036575Y013740
X036811Y012008
X036890Y037953
X037008Y033465
X037008Y020906
X037047Y015591
X037047Y014724
X037165Y035118
X037244Y029961
X037362Y025079
X037480Y037205
X037559Y038110
X037559Y012008
X037756Y015591
X037756Y015039
X037756Y014449
X037835Y034370
X038071Y036181
X038268Y038110
X038307Y012008
X038346Y020512
X038425Y022638
X038465Y033661
X038740Y035157
X038898Y038110
X039055Y037205
X039134Y012008
X039331Y026535
X039449Y019961
X039488Y022638
X039528Y038110
X039803Y020472
X039803Y012008
X040276Y038110
X040472Y037205
X040551Y012008
X040591Y022638
X040748Y034764
X040748Y033858
X041063Y038110
X041142Y012008
X041260Y020472
X041732Y012008
X041811Y038110
X042244Y015079
X042323Y012008
X042480Y038110
X042598Y020315
X042795Y019646
X042835Y018937
X042992Y012008
X043228Y038110
X043622Y018504
X043622Y017598
X043661Y012008
X043701Y037283
X043701Y036181
X043701Y035079
X043701Y034094
X043780Y016850
X043976Y038110
X044291Y031339
X044291Y028701
X044331Y020433
X044331Y012008
X044488Y024016
X044507Y018189
X044646Y038110
X044803Y031339
X044803Y024882
X045000Y012008
X045118Y036181
X045157Y037283
X045157Y035079
X045157Y034094
X045276Y031339
X045354Y038110
X045709Y012008
X046024Y038110
X046378Y012008
X046575Y037283
X046575Y036181
X046575Y035079
X046575Y034094
X046772Y038110
X046850Y028661
X047008Y012008
X047205Y031575
X047520Y038110
X047557Y020389
X047598Y012008
X047717Y016693
X047835Y037283
X047835Y036181
X047835Y035079
X047835Y034094
X048110Y033071
X048110Y028661
X048189Y012008
X048268Y038110
X048307Y025315
X048465Y016614
X048780Y012008
X049016Y038110
X049134Y020236
X049409Y012008
X049567Y028701
X049646Y024803
X049724Y038110
X049724Y023465
X050039Y012008
X050118Y018425
X050472Y038110
X050551Y030000
X050591Y020748
X050709Y012008
X050748Y037402
X050787Y036142
X050787Y035118
X050787Y034055
X051142Y038110
X051142Y028780
X051339Y012008
X051535Y019094
X051811Y038110
X051890Y018661
X052087Y012008
X052205Y037402
X052205Y036142
X052205Y035118
X052205Y034055
X052480Y018386
X052520Y038110
X052795Y012008
X053031Y028780
X053228Y038110
X053425Y012008
X053504Y037402
X053504Y036142
X053504Y035118
X053543Y034055
X053976Y038110
X054213Y012008
X054685Y038071
X054843Y028780
X054843Y012008
X054921Y035118
X054921Y020512
X054961Y034055
X055354Y037874
X055472Y012008
X055984Y037559
X056142Y012008
X056181Y030709
X056299Y035157
X056299Y034055
X056496Y037126
X056654Y030276
X056811Y031417
X056811Y012283
X056890Y033386
X056969Y036614
X057008Y029803
X057283Y036063
X057323Y012835
X057441Y035472
X057598Y034843
X057598Y034213
X057598Y033583
X057598Y032953
X057598Y032362
X057598Y031772
X057598Y031142
X057598Y030512
X057598Y029882
X057598Y029252
X057598Y028583
X057598Y027953
X057598Y027283
X057598Y026654
X057598Y026024
X057598Y025433
X057598Y024843
X057598Y024213
X057598Y023583
X057598Y022992
X057598Y022402
X057598Y021732
X057598Y021063
X057598Y020433
X057598Y019843
X057598Y019213
X057598Y018583
X057598Y017953
X057598Y017283
X057598Y016654
X057598Y015984
X057598Y015315
X057598Y014685
X057598Y014094
X057598Y013425
T79
X050387Y014621
X052395Y014621
T82
X056299Y032520
T77
X036366Y021744
X036366Y012744
X037366Y021744
X037366Y012744
X038366Y021744
X038366Y012744
X039366Y021744
X039366Y012744
X040366Y021744
X040366Y012744
X041366Y021744
X041366Y012744
X042366Y021744
X042366Y012744
X043366Y021744
X043366Y012744
X044366Y021744
X044366Y012744
X045366Y021744
X045366Y012744
X046366Y021744
X046366Y012744
X047366Y021744
X047366Y012744
X048366Y021744
X048366Y012744
X049366Y021744
X049366Y012744
X050366Y021744
X050366Y012744
X051366Y021744
X051366Y012744
X052366Y021744
X052366Y012744
X053366Y021744
X053366Y012744
X054366Y021744
X054366Y012744
X055366Y021744
X055366Y012744
M30
