G04 start of page 3 for group 5 idx 5 *
G04 Title: (unknown), bottom *
G04 Creator: pcb 20140316 *
G04 CreationDate: Fri Aug 26 09:03:46 2016 UTC *
G04 For: clemi *
G04 Format: Gerber/RS-274X *
G04 PCB-Dimensions (mil): 6000.00 5000.00 *
G04 PCB-Coordinate-Origin: lower left *
%MOIN*%
%FSLAX25Y25*%
%LNBOTTOM*%
%ADD75C,0.0236*%
%ADD74C,0.0079*%
%ADD73C,0.0354*%
%ADD72C,0.1000*%
%ADD71C,0.0350*%
%ADD70C,0.0118*%
%ADD69C,0.0200*%
%ADD68C,0.0600*%
%ADD67C,0.0240*%
%ADD66C,0.0360*%
%ADD65R,0.0406X0.0406*%
%ADD64R,0.0469X0.0469*%
%ADD63R,0.0346X0.0346*%
%ADD62R,0.0276X0.0276*%
%ADD61R,0.0354X0.0354*%
%ADD60R,0.0413X0.0413*%
%ADD59R,0.0374X0.0374*%
%ADD58C,0.0197*%
%ADD57C,0.0118*%
%ADD56C,0.0787*%
%ADD55C,0.0060*%
%ADD54C,0.0400*%
%ADD53C,0.0250*%
%ADD52C,0.0100*%
%ADD51C,0.0001*%
G54D51*G36*
X467712Y239445D02*X468972D01*
Y237460D01*
X468968Y237402D01*
X468986Y237166D01*
X469041Y236937D01*
X469132Y236718D01*
X469255Y236517D01*
X469409Y236338D01*
X469453Y236299D01*
X482358Y223394D01*
Y221794D01*
X482255Y221769D01*
X481595Y221496D01*
X480986Y221123D01*
X480443Y220659D01*
X479980Y220116D01*
X479606Y219507D01*
X479333Y218847D01*
X479166Y218153D01*
X479110Y217441D01*
X479166Y216729D01*
X479333Y216035D01*
X479569Y215466D01*
X478165Y216870D01*
X478198Y217441D01*
X478156Y218153D01*
X477990Y218847D01*
X477716Y219507D01*
X477343Y220116D01*
X476879Y220659D01*
X476336Y221123D01*
X475728Y221496D01*
X475068Y221769D01*
X474373Y221936D01*
X473661Y221992D01*
X472949Y221936D01*
X472255Y221769D01*
X471595Y221496D01*
X470986Y221123D01*
X470443Y220659D01*
X469980Y220116D01*
X469606Y219507D01*
X469333Y218847D01*
X469166Y218153D01*
X469110Y217441D01*
X469166Y216729D01*
X469333Y216035D01*
X469606Y215375D01*
X469980Y214766D01*
X470443Y214223D01*
X470986Y213759D01*
X471595Y213386D01*
X472255Y213113D01*
X472949Y212946D01*
X473313Y212917D01*
X470700D01*
X467870Y215747D01*
X467990Y216035D01*
X468156Y216729D01*
X468198Y217441D01*
X468156Y218153D01*
X467990Y218847D01*
X467716Y219507D01*
X467712Y219514D01*
Y239445D01*
G37*
G36*
Y252868D02*X480284D01*
X480297Y252710D01*
X480400Y252282D01*
X480568Y251875D01*
X480799Y251499D01*
X481085Y251164D01*
X481420Y250877D01*
X481796Y250647D01*
X482203Y250478D01*
X482631Y250376D01*
X482666Y250373D01*
X488898Y244141D01*
X488955Y244073D01*
X489023Y244016D01*
X494994Y238044D01*
Y236323D01*
X494972Y236297D01*
X494742Y235921D01*
X494573Y235514D01*
X494571Y235504D01*
X484961Y245114D01*
X484922Y245158D01*
X484743Y245312D01*
X484541Y245435D01*
X484323Y245525D01*
X484094Y245581D01*
X484093Y245581D01*
X483858Y245599D01*
X483800Y245594D01*
X471472D01*
X471293Y245704D01*
X471031Y245813D01*
X470755Y245879D01*
X470472Y245901D01*
X470190Y245879D01*
X469914Y245813D01*
X469652Y245704D01*
X469473Y245594D01*
X467712D01*
Y252868D01*
G37*
G36*
Y259130D02*X477165D01*
X477165Y259130D01*
X488749D01*
X497129Y250750D01*
X496896Y250806D01*
X496457Y250840D01*
X496017Y250806D01*
X495589Y250703D01*
X495182Y250534D01*
X494806Y250304D01*
X494780Y250282D01*
X493002D01*
X492913Y250288D01*
X492560Y250261D01*
X492216Y250178D01*
X491889Y250042D01*
X491587Y249857D01*
X491587Y249857D01*
X491317Y249627D01*
X491260Y249560D01*
X490551Y248851D01*
X485847Y253556D01*
X485845Y253589D01*
X485742Y254018D01*
X485573Y254425D01*
X485343Y254800D01*
X485057Y255136D01*
X484722Y255422D01*
X484346Y255652D01*
X484001Y255795D01*
X483149Y256647D01*
X483092Y256714D01*
X482823Y256944D01*
X482521Y257129D01*
X482193Y257265D01*
X481849Y257347D01*
X481849Y257347D01*
X481496Y257375D01*
X481408Y257368D01*
X467712D01*
Y259130D01*
G37*
G36*
Y263854D02*X490717D01*
X519764Y234808D01*
X519802Y234763D01*
X519982Y234610D01*
X519982Y234610D01*
X520183Y234486D01*
X520401Y234396D01*
X520631Y234341D01*
X520866Y234322D01*
X520925Y234327D01*
X541111D01*
X552043Y223394D01*
Y221681D01*
X551595Y221496D01*
X550986Y221123D01*
X550443Y220659D01*
X549980Y220116D01*
X549606Y219507D01*
X549333Y218847D01*
X549166Y218153D01*
X549110Y217441D01*
X549166Y216729D01*
X549333Y216035D01*
X549606Y215375D01*
X549980Y214766D01*
X550443Y214223D01*
X550986Y213759D01*
X551595Y213386D01*
X552255Y213113D01*
X552949Y212946D01*
X553313Y212917D01*
X544009D01*
X544373Y212946D01*
X545068Y213113D01*
X545728Y213386D01*
X546336Y213759D01*
X546879Y214223D01*
X547343Y214766D01*
X547716Y215375D01*
X547990Y216035D01*
X548156Y216729D01*
X548198Y217441D01*
X548156Y218153D01*
X547990Y218847D01*
X547716Y219507D01*
X547343Y220116D01*
X546879Y220659D01*
X546336Y221123D01*
X545728Y221496D01*
X545201Y221714D01*
Y224351D01*
X545205Y224409D01*
X545187Y224645D01*
X545187Y224645D01*
X545132Y224874D01*
X545041Y225093D01*
X544918Y225294D01*
X544765Y225473D01*
X544720Y225512D01*
X538504Y231728D01*
X538466Y231773D01*
X538286Y231926D01*
X538085Y232049D01*
X537867Y232140D01*
X537637Y232195D01*
X537637Y232195D01*
X537402Y232213D01*
X537343Y232209D01*
X519913D01*
X490472Y261649D01*
X490434Y261694D01*
X490254Y261847D01*
X490053Y261971D01*
X489835Y262061D01*
X489605Y262116D01*
X489605Y262116D01*
X489370Y262135D01*
X489311Y262130D01*
X477165D01*
X477165Y262130D01*
X467712D01*
Y263854D01*
G37*
G36*
X532441Y213068D02*X532949Y212946D01*
X533313Y212917D01*
X532441D01*
Y213068D01*
G37*
G36*
Y229209D02*X536780D01*
X542201Y223788D01*
Y221747D01*
X541595Y221496D01*
X540986Y221123D01*
X540443Y220659D01*
X539980Y220116D01*
X539606Y219507D01*
X539333Y218847D01*
X539166Y218153D01*
X539110Y217441D01*
X539166Y216729D01*
X539333Y216035D01*
X539606Y215375D01*
X539980Y214766D01*
X540443Y214223D01*
X540986Y213759D01*
X541595Y213386D01*
X542255Y213113D01*
X542949Y212946D01*
X543313Y212917D01*
X534009D01*
X534373Y212946D01*
X535068Y213113D01*
X535728Y213386D01*
X536336Y213759D01*
X536879Y214223D01*
X537343Y214766D01*
X537716Y215375D01*
X537990Y216035D01*
X538156Y216729D01*
X538198Y217441D01*
X538156Y218153D01*
X537990Y218847D01*
X537716Y219507D01*
X537343Y220116D01*
X536879Y220659D01*
X536336Y221123D01*
X535728Y221496D01*
X535068Y221769D01*
X534373Y221936D01*
X533661Y221992D01*
X532949Y221936D01*
X532441Y221814D01*
Y229209D01*
G37*
G36*
X553654Y382111D02*X561811Y378346D01*
X570472Y370472D01*
X576378Y359449D01*
X578346Y348031D01*
Y129134D01*
X566929Y117717D01*
X553654D01*
Y122890D01*
X553661Y122890D01*
X554373Y122946D01*
X555068Y123113D01*
X555728Y123386D01*
X556336Y123759D01*
X556879Y124223D01*
X557343Y124766D01*
X557716Y125375D01*
X557990Y126035D01*
X558156Y126729D01*
X558198Y127441D01*
X558156Y128153D01*
X557990Y128847D01*
X557716Y129507D01*
X557343Y130116D01*
X556879Y130659D01*
X556336Y131123D01*
X555728Y131496D01*
X555068Y131769D01*
X554373Y131936D01*
X553661Y131992D01*
X553654Y131991D01*
Y133933D01*
X567658D01*
X567717Y133928D01*
X567951Y133947D01*
X567952Y133947D01*
X568181Y134002D01*
X568400Y134092D01*
X568601Y134216D01*
X568780Y134369D01*
X568819Y134414D01*
X571098Y136693D01*
X571143Y136731D01*
X571296Y136911D01*
X571296Y136911D01*
X571419Y137112D01*
X571510Y137330D01*
X571565Y137560D01*
X571583Y137795D01*
X571579Y137854D01*
Y171654D01*
X571579Y171654D01*
Y295667D01*
X571730Y295759D01*
X572065Y296045D01*
X572351Y296381D01*
X572581Y296756D01*
X572750Y297164D01*
X572853Y297592D01*
X572879Y298031D01*
X572853Y298471D01*
X572750Y298899D01*
X572581Y299307D01*
X572351Y299682D01*
X572065Y300018D01*
X571730Y300304D01*
X571354Y300534D01*
X570947Y300703D01*
X570518Y300806D01*
X570079Y300840D01*
X569639Y300806D01*
X569211Y300703D01*
X568804Y300534D01*
X568428Y300304D01*
X568093Y300018D01*
X568035Y299950D01*
Y300391D01*
X568186Y300484D01*
X568521Y300770D01*
X568808Y301105D01*
X569038Y301481D01*
X569207Y301888D01*
X569309Y302317D01*
X569335Y302756D01*
X569309Y303195D01*
X569207Y303624D01*
X569038Y304031D01*
X568808Y304407D01*
X568521Y304742D01*
X568186Y305028D01*
X567811Y305258D01*
X567403Y305427D01*
X566975Y305530D01*
X566535Y305565D01*
X566096Y305530D01*
X565668Y305427D01*
X565260Y305258D01*
X564885Y305028D01*
X564549Y304742D01*
X564263Y304407D01*
X564033Y304031D01*
X563864Y303624D01*
X563761Y303195D01*
X563727Y302756D01*
X563761Y302317D01*
X563864Y301888D01*
X564033Y301481D01*
X564263Y301105D01*
X564549Y300770D01*
X564885Y300484D01*
X565035Y300391D01*
Y197647D01*
X556953Y197642D01*
X556861Y197620D01*
X556774Y197583D01*
X556693Y197534D01*
X556622Y197473D01*
X556560Y197401D01*
X556511Y197320D01*
X556475Y197233D01*
X556453Y197141D01*
X556447Y197047D01*
X556453Y192268D01*
X556475Y192176D01*
X556511Y192089D01*
X556560Y192008D01*
X556622Y191937D01*
X556693Y191875D01*
X556774Y191826D01*
X556861Y191790D01*
X556953Y191768D01*
X557047Y191762D01*
X565035Y191768D01*
Y173622D01*
X565035Y173622D01*
Y154150D01*
X556339Y154140D01*
X556186Y154104D01*
X556041Y154043D01*
X555906Y153961D01*
X555787Y153859D01*
X555685Y153739D01*
X555602Y153605D01*
X555542Y153460D01*
X555505Y153307D01*
X555496Y153150D01*
X555505Y149253D01*
X555542Y149099D01*
X555602Y148954D01*
X555685Y148820D01*
X555787Y148700D01*
X555906Y148598D01*
X556041Y148516D01*
X556186Y148455D01*
X556339Y148419D01*
X556496Y148409D01*
X565035Y148419D01*
Y141960D01*
X562765Y139689D01*
X553654D01*
Y158655D01*
X555252Y158658D01*
X555343Y158680D01*
X555431Y158716D01*
X555511Y158765D01*
X555583Y158826D01*
X555644Y158898D01*
X555694Y158979D01*
X555730Y159066D01*
X555752Y159158D01*
X555757Y159252D01*
X555752Y162102D01*
X555730Y162194D01*
X555694Y162281D01*
X555644Y162362D01*
X555583Y162433D01*
X555511Y162495D01*
X555431Y162544D01*
X555343Y162580D01*
X555252Y162602D01*
X555157Y162608D01*
X553654Y162606D01*
Y162986D01*
X555252Y162988D01*
X555343Y163010D01*
X555431Y163046D01*
X555511Y163096D01*
X555583Y163157D01*
X555644Y163229D01*
X555694Y163309D01*
X555730Y163397D01*
X555752Y163489D01*
X555757Y163583D01*
X555752Y166433D01*
X555730Y166525D01*
X555694Y166612D01*
X555644Y166692D01*
X555583Y166764D01*
X555511Y166825D01*
X555431Y166875D01*
X555343Y166911D01*
X555252Y166933D01*
X555157Y166939D01*
X553654Y166936D01*
Y167317D01*
X555252Y167319D01*
X555343Y167341D01*
X555431Y167377D01*
X555511Y167426D01*
X555583Y167488D01*
X555644Y167560D01*
X555694Y167640D01*
X555730Y167727D01*
X555752Y167819D01*
X555757Y167913D01*
X555752Y170763D01*
X555730Y170855D01*
X555694Y170943D01*
X555644Y171023D01*
X555583Y171095D01*
X555511Y171156D01*
X555431Y171206D01*
X555343Y171242D01*
X555252Y171264D01*
X555157Y171269D01*
X553654Y171267D01*
Y171647D01*
X555252Y171650D01*
X555343Y171672D01*
X555431Y171708D01*
X555511Y171757D01*
X555583Y171819D01*
X555644Y171890D01*
X555694Y171971D01*
X555730Y172058D01*
X555752Y172150D01*
X555757Y172244D01*
X555752Y175094D01*
X555730Y175186D01*
X555694Y175273D01*
X555644Y175354D01*
X555583Y175426D01*
X555511Y175487D01*
X555431Y175536D01*
X555343Y175572D01*
X555252Y175594D01*
X555157Y175600D01*
X553654Y175598D01*
Y175978D01*
X555252Y175980D01*
X555343Y176002D01*
X555431Y176039D01*
X555511Y176088D01*
X555583Y176149D01*
X555644Y176221D01*
X555694Y176302D01*
X555730Y176389D01*
X555752Y176481D01*
X555757Y176575D01*
X555752Y179425D01*
X555730Y179517D01*
X555694Y179604D01*
X555644Y179684D01*
X555583Y179756D01*
X555511Y179818D01*
X555431Y179867D01*
X555343Y179903D01*
X555252Y179925D01*
X555157Y179931D01*
X553654Y179929D01*
Y184639D01*
X555252Y184642D01*
X555343Y184664D01*
X555431Y184700D01*
X555511Y184749D01*
X555583Y184811D01*
X555644Y184882D01*
X555694Y184963D01*
X555730Y185050D01*
X555752Y185142D01*
X555757Y185236D01*
X555752Y188086D01*
X555730Y188178D01*
X555694Y188265D01*
X555644Y188346D01*
X555583Y188418D01*
X555511Y188479D01*
X555431Y188528D01*
X555343Y188565D01*
X555252Y188587D01*
X555157Y188592D01*
X553654Y188590D01*
Y188970D01*
X555252Y188972D01*
X555343Y188995D01*
X555431Y189031D01*
X555511Y189080D01*
X555583Y189141D01*
X555644Y189213D01*
X555694Y189294D01*
X555730Y189381D01*
X555752Y189473D01*
X555757Y189567D01*
X555752Y192417D01*
X555730Y192509D01*
X555694Y192596D01*
X555644Y192677D01*
X555583Y192748D01*
X555511Y192810D01*
X555431Y192859D01*
X555343Y192895D01*
X555252Y192917D01*
X555157Y192923D01*
X553654Y192921D01*
Y209917D01*
X558603D01*
X558661Y209913D01*
X558896Y209931D01*
X558897Y209931D01*
X559126Y209986D01*
X559345Y210077D01*
X559546Y210200D01*
X559725Y210353D01*
X559764Y210398D01*
X562830Y213465D01*
X562875Y213503D01*
X563028Y213682D01*
X563028Y213683D01*
X563152Y213884D01*
X563242Y214102D01*
X563297Y214332D01*
X563316Y214567D01*
X563311Y214626D01*
Y304722D01*
X563462Y304814D01*
X563797Y305101D01*
X564083Y305436D01*
X564314Y305812D01*
X564482Y306219D01*
X564585Y306647D01*
X564611Y307087D01*
X564585Y307526D01*
X564482Y307955D01*
X564314Y308362D01*
X564083Y308737D01*
X563797Y309073D01*
X563462Y309359D01*
X563086Y309589D01*
X562679Y309758D01*
X562250Y309861D01*
X561811Y309895D01*
X561372Y309861D01*
X560943Y309758D01*
X560536Y309589D01*
X560160Y309359D01*
X559825Y309073D01*
X559539Y308737D01*
X559309Y308362D01*
X559140Y307955D01*
X559037Y307526D01*
X559002Y307087D01*
X559037Y306647D01*
X559140Y306219D01*
X559309Y305812D01*
X559539Y305436D01*
X559825Y305101D01*
X560160Y304814D01*
X560311Y304722D01*
Y215188D01*
X558040Y212917D01*
X554009D01*
X554373Y212946D01*
X555068Y213113D01*
X555728Y213386D01*
X556336Y213759D01*
X556879Y214223D01*
X557343Y214766D01*
X557716Y215375D01*
X557990Y216035D01*
X558156Y216729D01*
X558198Y217441D01*
X558156Y218153D01*
X557990Y218847D01*
X557716Y219507D01*
X557343Y220116D01*
X556879Y220659D01*
X556336Y221123D01*
X555728Y221496D01*
X555068Y221769D01*
X555043Y221775D01*
Y223957D01*
X555048Y224016D01*
X555029Y224251D01*
X554974Y224481D01*
X554884Y224699D01*
X554761Y224900D01*
X554607Y225080D01*
X554562Y225118D01*
X553654Y226026D01*
Y326096D01*
X558911D01*
X559059Y325948D01*
X559029Y325825D01*
X558980Y325197D01*
X559029Y324569D01*
X559176Y323957D01*
X559417Y323375D01*
X559746Y322838D01*
X560155Y322360D01*
X560634Y321951D01*
X561171Y321622D01*
X561752Y321381D01*
X562364Y321234D01*
X562992Y321185D01*
X563620Y321234D01*
X564232Y321381D01*
X564814Y321622D01*
X565351Y321951D01*
X565829Y322360D01*
X566238Y322838D01*
X566567Y323375D01*
X566808Y323957D01*
X566955Y324569D01*
X566992Y325197D01*
X566955Y325825D01*
X566808Y326437D01*
X566567Y327018D01*
X566238Y327555D01*
X565829Y328034D01*
X565351Y328443D01*
X564814Y328772D01*
X564232Y329013D01*
X563620Y329160D01*
X562992Y329209D01*
X562364Y329160D01*
X562241Y329130D01*
X561496Y329875D01*
X561438Y329942D01*
X561169Y330172D01*
X560867Y330357D01*
X560540Y330493D01*
X560196Y330576D01*
X560195Y330576D01*
X559843Y330603D01*
X559754Y330596D01*
X553654D01*
Y382111D01*
G37*
G36*
Y226026D02*X543654Y236026D01*
Y323937D01*
X545814Y326096D01*
X553654D01*
Y226026D01*
G37*
G36*
Y188590D02*X551323Y188587D01*
X551231Y188565D01*
X551144Y188528D01*
X551111Y188508D01*
X543654D01*
Y192985D01*
X546236Y192988D01*
X546328Y193010D01*
X546415Y193046D01*
X546495Y193096D01*
X546567Y193157D01*
X546629Y193229D01*
X546678Y193309D01*
X546714Y193397D01*
X546736Y193489D01*
X546742Y193583D01*
X546736Y197141D01*
X546714Y197233D01*
X546678Y197320D01*
X546629Y197401D01*
X546567Y197473D01*
X546495Y197534D01*
X546415Y197583D01*
X546328Y197620D01*
X546236Y197642D01*
X546142Y197647D01*
X543654Y197644D01*
Y209917D01*
X553654D01*
Y192921D01*
X551323Y192917D01*
X551231Y192895D01*
X551144Y192859D01*
X551064Y192810D01*
X550992Y192748D01*
X550930Y192677D01*
X550881Y192596D01*
X550845Y192509D01*
X550823Y192417D01*
X550817Y192323D01*
X550823Y189473D01*
X550845Y189381D01*
X550881Y189294D01*
X550930Y189213D01*
X550992Y189141D01*
X551064Y189080D01*
X551144Y189031D01*
X551231Y188995D01*
X551323Y188972D01*
X551417Y188967D01*
X553654Y188970D01*
Y188590D01*
G37*
G36*
Y179929D02*X551323Y179925D01*
X551231Y179903D01*
X551144Y179867D01*
X551064Y179818D01*
X550992Y179756D01*
X550930Y179684D01*
X550881Y179604D01*
X550845Y179517D01*
X550823Y179425D01*
X550817Y179331D01*
X550818Y179059D01*
X548653D01*
X543654Y184057D01*
Y185508D01*
X550822D01*
X550823Y185142D01*
X550845Y185050D01*
X550881Y184963D01*
X550930Y184882D01*
X550992Y184811D01*
X551064Y184749D01*
X551144Y184700D01*
X551231Y184664D01*
X551323Y184642D01*
X551417Y184636D01*
X553654Y184639D01*
Y179929D01*
G37*
G36*
Y175598D02*X551323Y175594D01*
X551231Y175572D01*
X551144Y175536D01*
X551111Y175516D01*
X545897D01*
X543654Y177758D01*
Y179815D01*
X546929Y176540D01*
X546968Y176495D01*
X547147Y176342D01*
X547348Y176218D01*
X547567Y176128D01*
X547796Y176073D01*
X548032Y176054D01*
X548090Y176059D01*
X551111D01*
X551144Y176039D01*
X551231Y176002D01*
X551323Y175980D01*
X551417Y175975D01*
X553654Y175978D01*
Y175598D01*
G37*
G36*
Y171267D02*X551323Y171264D01*
X551231Y171242D01*
X551144Y171206D01*
X551064Y171156D01*
X550992Y171095D01*
X550930Y171023D01*
X550881Y170943D01*
X550845Y170855D01*
X550823Y170763D01*
X550817Y170669D01*
X550818Y170398D01*
X543654D01*
Y173516D01*
X544173Y172997D01*
X544212Y172952D01*
X544391Y172799D01*
X544391Y172798D01*
X544593Y172675D01*
X544811Y172585D01*
X545040Y172530D01*
X545276Y172511D01*
X545334Y172516D01*
X550822D01*
X550823Y172150D01*
X550845Y172058D01*
X550881Y171971D01*
X550930Y171890D01*
X550992Y171819D01*
X551064Y171757D01*
X551144Y171708D01*
X551231Y171672D01*
X551323Y171650D01*
X551417Y171644D01*
X553654Y171647D01*
Y171267D01*
G37*
G36*
Y166936D02*X551323Y166933D01*
X551231Y166911D01*
X551144Y166875D01*
X551064Y166825D01*
X550992Y166764D01*
X550930Y166692D01*
X550881Y166612D01*
X550845Y166525D01*
X550830Y166461D01*
X543654D01*
Y167398D01*
X551111D01*
X551144Y167377D01*
X551231Y167341D01*
X551323Y167319D01*
X551417Y167313D01*
X553654Y167317D01*
Y166936D01*
G37*
G36*
Y139689D02*X543654D01*
Y163461D01*
X550830D01*
X550845Y163397D01*
X550881Y163309D01*
X550930Y163229D01*
X550992Y163157D01*
X551064Y163096D01*
X551144Y163046D01*
X551231Y163010D01*
X551323Y162988D01*
X551417Y162983D01*
X553654Y162986D01*
Y162606D01*
X551323Y162602D01*
X551231Y162580D01*
X551144Y162544D01*
X551064Y162495D01*
X550992Y162433D01*
X550930Y162362D01*
X550881Y162281D01*
X550845Y162194D01*
X550823Y162102D01*
X550817Y162008D01*
X550823Y159158D01*
X550845Y159066D01*
X550881Y158979D01*
X550930Y158898D01*
X550992Y158826D01*
X551064Y158765D01*
X551144Y158716D01*
X551231Y158680D01*
X551323Y158658D01*
X551417Y158652D01*
X553654Y158655D01*
Y139689D01*
G37*
G36*
Y117717D02*X543654D01*
Y122890D01*
X543661Y122890D01*
X544373Y122946D01*
X545068Y123113D01*
X545728Y123386D01*
X546336Y123759D01*
X546879Y124223D01*
X547343Y124766D01*
X547716Y125375D01*
X547990Y126035D01*
X548156Y126729D01*
X548198Y127441D01*
X548156Y128153D01*
X547990Y128847D01*
X547716Y129507D01*
X547343Y130116D01*
X546879Y130659D01*
X546336Y131123D01*
X545728Y131496D01*
X545068Y131769D01*
X544373Y131936D01*
X543661Y131992D01*
X543654Y131991D01*
Y133933D01*
X553654D01*
Y131991D01*
X552949Y131936D01*
X552255Y131769D01*
X551595Y131496D01*
X550986Y131123D01*
X550443Y130659D01*
X549980Y130116D01*
X549606Y129507D01*
X549333Y128847D01*
X549166Y128153D01*
X549110Y127441D01*
X549166Y126729D01*
X549333Y126035D01*
X549606Y125375D01*
X549980Y124766D01*
X550443Y124223D01*
X550986Y123759D01*
X551595Y123386D01*
X552255Y123113D01*
X552949Y122946D01*
X553654Y122890D01*
Y117717D01*
G37*
G36*
X543654Y384252D02*X543701D01*
X551575Y383071D01*
X553654Y382111D01*
Y330596D01*
X544970D01*
X544882Y330603D01*
X544529Y330576D01*
X544184Y330493D01*
X543857Y330357D01*
X543654Y330233D01*
Y384252D01*
G37*
G36*
Y236026D02*X542835Y236846D01*
X542796Y236891D01*
X542617Y237044D01*
X542415Y237167D01*
X542197Y237258D01*
X541968Y237313D01*
X541732Y237331D01*
X541674Y237327D01*
X532441D01*
Y312724D01*
X543654Y323937D01*
Y236026D01*
G37*
G36*
Y188508D02*X543535D01*
X541260Y190783D01*
X541221Y190828D01*
X541042Y190981D01*
X540841Y191104D01*
X540622Y191195D01*
X540393Y191250D01*
X540157Y191268D01*
X540099Y191264D01*
X532441D01*
Y209917D01*
X543654D01*
Y197644D01*
X541126Y197642D01*
X541034Y197620D01*
X540947Y197583D01*
X540867Y197534D01*
X540795Y197473D01*
X540734Y197401D01*
X540684Y197320D01*
X540648Y197233D01*
X540626Y197141D01*
X540620Y197047D01*
X540626Y193489D01*
X540648Y193397D01*
X540684Y193309D01*
X540734Y193229D01*
X540795Y193157D01*
X540867Y193096D01*
X540947Y193046D01*
X541034Y193010D01*
X541126Y192988D01*
X541220Y192983D01*
X543654Y192985D01*
Y188508D01*
G37*
G36*
Y184057D02*X540079Y187633D01*
X540040Y187678D01*
X539861Y187831D01*
X539659Y187955D01*
X539441Y188045D01*
X539212Y188100D01*
X539212Y188100D01*
X538976Y188119D01*
X538918Y188114D01*
X532441D01*
Y188264D01*
X539536D01*
X541811Y185989D01*
X541849Y185944D01*
X542029Y185791D01*
X542230Y185667D01*
X542448Y185577D01*
X542678Y185522D01*
X542913Y185503D01*
X542972Y185508D01*
X543654D01*
Y184057D01*
G37*
G36*
Y177758D02*X540079Y181334D01*
X540040Y181379D01*
X539861Y181532D01*
X539659Y181656D01*
X539441Y181746D01*
X539212Y181801D01*
X538976Y181820D01*
X538918Y181815D01*
X532441D01*
Y185114D01*
X538355D01*
X543654Y179815D01*
Y177758D01*
G37*
G36*
Y170398D02*X532441D01*
Y178815D01*
X538355D01*
X543654Y173516D01*
Y170398D01*
G37*
G36*
Y166461D02*X532441D01*
Y167398D01*
X543654D01*
Y166461D01*
G37*
G36*
Y139689D02*X536654D01*
Y148812D01*
X539110Y148815D01*
X539202Y148837D01*
X539289Y148873D01*
X539370Y148923D01*
X539441Y148984D01*
X539503Y149056D01*
X539552Y149136D01*
X539588Y149223D01*
X539610Y149315D01*
X539616Y149409D01*
X539610Y153637D01*
X539588Y153729D01*
X539552Y153817D01*
X539503Y153897D01*
X539441Y153969D01*
X539370Y154030D01*
X539289Y154080D01*
X539202Y154116D01*
X539110Y154138D01*
X539016Y154143D01*
X536654Y154141D01*
Y163461D01*
X543654D01*
Y139689D01*
G37*
G36*
X536654D02*X532441D01*
Y148814D01*
X532968Y148815D01*
X533060Y148837D01*
X533147Y148873D01*
X533228Y148923D01*
X533300Y148984D01*
X533361Y149056D01*
X533410Y149136D01*
X533446Y149223D01*
X533468Y149315D01*
X533474Y149409D01*
X533468Y153637D01*
X533446Y153729D01*
X533410Y153817D01*
X533361Y153897D01*
X533300Y153969D01*
X533228Y154030D01*
X533147Y154080D01*
X533060Y154116D01*
X532968Y154138D01*
X532874Y154143D01*
X532441Y154143D01*
Y162997D01*
X532905Y163461D01*
X536654D01*
Y154141D01*
X534197Y154138D01*
X534105Y154116D01*
X534018Y154080D01*
X533938Y154030D01*
X533866Y153969D01*
X533804Y153897D01*
X533755Y153817D01*
X533719Y153729D01*
X533697Y153637D01*
X533691Y153543D01*
X533697Y149315D01*
X533719Y149223D01*
X533755Y149136D01*
X533804Y149056D01*
X533866Y148984D01*
X533938Y148923D01*
X534018Y148873D01*
X534105Y148837D01*
X534197Y148815D01*
X534291Y148809D01*
X536654Y148812D01*
Y139689D01*
G37*
G36*
X543654Y117717D02*X532441D01*
Y123068D01*
X532949Y122946D01*
X533661Y122890D01*
X534373Y122946D01*
X535068Y123113D01*
X535728Y123386D01*
X536336Y123759D01*
X536879Y124223D01*
X537343Y124766D01*
X537716Y125375D01*
X537990Y126035D01*
X538156Y126729D01*
X538198Y127441D01*
X538156Y128153D01*
X537990Y128847D01*
X537716Y129507D01*
X537343Y130116D01*
X536879Y130659D01*
X536336Y131123D01*
X535728Y131496D01*
X535068Y131769D01*
X534373Y131936D01*
X533661Y131992D01*
X532949Y131936D01*
X532441Y131814D01*
Y133933D01*
X533858D01*
X533858Y133933D01*
X543654D01*
Y131991D01*
X542949Y131936D01*
X542255Y131769D01*
X541595Y131496D01*
X540986Y131123D01*
X540443Y130659D01*
X539980Y130116D01*
X539606Y129507D01*
X539333Y128847D01*
X539166Y128153D01*
X539110Y127441D01*
X539166Y126729D01*
X539333Y126035D01*
X539606Y125375D01*
X539980Y124766D01*
X540443Y124223D01*
X540986Y123759D01*
X541595Y123386D01*
X542255Y123113D01*
X542949Y122946D01*
X543654Y122890D01*
Y117717D01*
G37*
G36*
X532441Y384252D02*X543654D01*
Y330233D01*
X543555Y330172D01*
X543555Y330172D01*
X543286Y329942D01*
X543229Y329875D01*
X532441Y319087D01*
Y384252D01*
G37*
G36*
Y188114D02*X527618D01*
X527559Y188119D01*
X527324Y188100D01*
X527094Y188045D01*
X526876Y187955D01*
X526675Y187831D01*
X526675Y187831D01*
X526495Y187678D01*
X526457Y187633D01*
X525415Y186591D01*
X525243Y186632D01*
X524803Y186667D01*
X524364Y186632D01*
X523935Y186529D01*
X523528Y186361D01*
X523152Y186130D01*
X522817Y185844D01*
X522531Y185509D01*
X522301Y185133D01*
X522132Y184726D01*
X522029Y184298D01*
X521995Y183858D01*
X522029Y183419D01*
X522132Y182990D01*
X522301Y182583D01*
X522531Y182207D01*
X522817Y181872D01*
X522884Y181815D01*
X519125D01*
X516854Y184086D01*
Y184695D01*
X516912Y184628D01*
X517247Y184342D01*
X517623Y184112D01*
X518030Y183943D01*
X518458Y183840D01*
X518898Y183806D01*
X519337Y183840D01*
X519766Y183943D01*
X520173Y184112D01*
X520549Y184342D01*
X520884Y184628D01*
X521170Y184963D01*
X521400Y185339D01*
X521569Y185746D01*
X521672Y186175D01*
X521698Y186614D01*
X521672Y187054D01*
X521569Y187482D01*
X521547Y187536D01*
X522275Y188264D01*
X532441D01*
Y188114D01*
G37*
G36*
Y181815D02*X526722D01*
X526789Y181872D01*
X527075Y182207D01*
X527306Y182583D01*
X527474Y182990D01*
X527577Y183419D01*
X527603Y183858D01*
X527577Y184298D01*
X527536Y184470D01*
X528180Y185114D01*
X532441D01*
Y181815D01*
G37*
G36*
Y237327D02*X521487D01*
X492441Y266373D01*
X492403Y266418D01*
X492223Y266572D01*
X492022Y266695D01*
X491804Y266785D01*
X491574Y266840D01*
X491339Y266859D01*
X491280Y266854D01*
X467712D01*
Y273474D01*
X472249Y268937D01*
X472298Y268733D01*
X472406Y268471D01*
X472554Y268229D01*
X472738Y268014D01*
X472954Y267830D01*
X473196Y267682D01*
X473457Y267573D01*
X473733Y267507D01*
X474016Y267485D01*
X474298Y267507D01*
X474574Y267573D01*
X474836Y267682D01*
X475078Y267830D01*
X475293Y268014D01*
X475477Y268229D01*
X475625Y268471D01*
X475734Y268733D01*
X475800Y269009D01*
X475817Y269291D01*
X475800Y269574D01*
X475734Y269850D01*
X475625Y270111D01*
X475477Y270353D01*
X475293Y270569D01*
X475078Y270753D01*
X474836Y270901D01*
X474574Y271009D01*
X474370Y271058D01*
X467712Y277716D01*
Y325703D01*
X468753D01*
X477278Y317178D01*
Y295757D01*
X477271Y295669D01*
X477298Y295316D01*
Y295316D01*
X477381Y294972D01*
X477517Y294645D01*
X477587Y294530D01*
X477702Y294343D01*
X477702Y294343D01*
X477932Y294073D01*
X477999Y294016D01*
X480236Y291778D01*
X480294Y291711D01*
X480563Y291481D01*
X480563Y291481D01*
X480865Y291296D01*
X481192Y291161D01*
X481537Y291078D01*
X481890Y291050D01*
X481978Y291057D01*
X525502D01*
X525591Y291050D01*
X525943Y291078D01*
X525944Y291078D01*
X526288Y291161D01*
X526615Y291296D01*
X526917Y291481D01*
X527186Y291711D01*
X527244Y291778D01*
X527513Y292047D01*
X527580Y292105D01*
X527810Y292374D01*
X527810Y292374D01*
X527995Y292676D01*
X528131Y293003D01*
X528213Y293348D01*
X528241Y293701D01*
X528234Y293789D01*
Y308517D01*
X532441Y312724D01*
Y237327D01*
G37*
G36*
X511457Y209917D02*X532441D01*
Y191264D01*
X521712D01*
X521654Y191268D01*
X521418Y191250D01*
X521189Y191195D01*
X520970Y191104D01*
X520769Y190981D01*
X520769Y190981D01*
X520590Y190828D01*
X520551Y190783D01*
X519170Y189401D01*
X518898Y189423D01*
X518458Y189388D01*
X518030Y189285D01*
X517623Y189117D01*
X517278Y188905D01*
X517340Y188959D01*
X517627Y189294D01*
X517857Y189670D01*
X518026Y190077D01*
X518128Y190506D01*
X518154Y190945D01*
X518128Y191384D01*
X518026Y191813D01*
X517857Y192220D01*
X517627Y192596D01*
X517340Y192931D01*
X517005Y193217D01*
X516629Y193447D01*
X516222Y193616D01*
X515794Y193719D01*
X515354Y193754D01*
X514915Y193719D01*
X514486Y193616D01*
X514079Y193447D01*
X513703Y193217D01*
X513368Y192931D01*
X513082Y192596D01*
X512852Y192220D01*
X512683Y191813D01*
X512580Y191384D01*
X512546Y190945D01*
X512580Y190506D01*
X512683Y190077D01*
X512852Y189670D01*
X513082Y189294D01*
X513368Y188959D01*
X513703Y188673D01*
X513854Y188580D01*
Y186619D01*
X513780Y186624D01*
X511457Y186621D01*
Y209917D01*
G37*
G36*
Y213471D02*X511595Y213386D01*
X512255Y213113D01*
X512949Y212946D01*
X513313Y212917D01*
X511457D01*
Y213471D01*
G37*
G36*
Y236422D02*X518189Y229690D01*
X518227Y229645D01*
X518407Y229491D01*
X518608Y229368D01*
X518826Y229278D01*
X519056Y229223D01*
X519291Y229204D01*
X519350Y229209D01*
X532441D01*
Y221814D01*
X532255Y221769D01*
X531595Y221496D01*
X530986Y221123D01*
X530443Y220659D01*
X529980Y220116D01*
X529606Y219507D01*
X529333Y218847D01*
X529166Y218153D01*
X529110Y217441D01*
X529166Y216729D01*
X529333Y216035D01*
X529606Y215375D01*
X529980Y214766D01*
X530443Y214223D01*
X530986Y213759D01*
X531595Y213386D01*
X532255Y213113D01*
X532441Y213068D01*
Y212917D01*
X524009D01*
X524373Y212946D01*
X525068Y213113D01*
X525728Y213386D01*
X526336Y213759D01*
X526879Y214223D01*
X527343Y214766D01*
X527716Y215375D01*
X527990Y216035D01*
X528156Y216729D01*
X528198Y217441D01*
X528156Y218153D01*
X527990Y218847D01*
X527716Y219507D01*
X527343Y220116D01*
X526879Y220659D01*
X526336Y221123D01*
X525728Y221496D01*
X525068Y221769D01*
X524373Y221936D01*
X523661Y221992D01*
X522949Y221936D01*
X522255Y221769D01*
X521595Y221496D01*
X520986Y221123D01*
X520443Y220659D01*
X519980Y220116D01*
X519606Y219507D01*
X519333Y218847D01*
X519166Y218153D01*
X519110Y217441D01*
X519166Y216729D01*
X519333Y216035D01*
X519606Y215375D01*
X519980Y214766D01*
X520443Y214223D01*
X520986Y213759D01*
X521595Y213386D01*
X522255Y213113D01*
X522949Y212946D01*
X523313Y212917D01*
X514009D01*
X514373Y212946D01*
X515068Y213113D01*
X515728Y213386D01*
X516336Y213759D01*
X516879Y214223D01*
X517343Y214766D01*
X517716Y215375D01*
X517990Y216035D01*
X518156Y216729D01*
X518198Y217441D01*
X518156Y218153D01*
X517990Y218847D01*
X517716Y219507D01*
X517343Y220116D01*
X516879Y220659D01*
X516336Y221123D01*
X515728Y221496D01*
X515068Y221769D01*
X514373Y221936D01*
X513661Y221992D01*
X512949Y221936D01*
X512255Y221769D01*
X511595Y221496D01*
X511457Y221411D01*
Y236422D01*
G37*
G36*
Y159835D02*X513874Y159839D01*
X513966Y159861D01*
X514053Y159897D01*
X514109Y159932D01*
X513158Y158980D01*
X511457D01*
Y159835D01*
G37*
G36*
X532441Y170398D02*X518169D01*
X518110Y170402D01*
X517875Y170384D01*
X517645Y170329D01*
X517427Y170238D01*
X517226Y170115D01*
X517226Y170115D01*
X517046Y169962D01*
X517008Y169917D01*
X515123Y168031D01*
X515078Y167993D01*
X514924Y167814D01*
X514801Y167612D01*
X514711Y167394D01*
X514656Y167165D01*
X514656Y167164D01*
X514637Y166929D01*
X514642Y166870D01*
Y160464D01*
X514281Y160103D01*
X514316Y160160D01*
X514352Y160247D01*
X514374Y160339D01*
X514380Y160433D01*
X514374Y167220D01*
X514352Y167312D01*
X514316Y167399D01*
X514266Y167480D01*
X514205Y167552D01*
X514133Y167613D01*
X514053Y167662D01*
X513966Y167698D01*
X513874Y167720D01*
X513780Y167726D01*
X511457Y167723D01*
Y170269D01*
X513283Y170272D01*
X513375Y170294D01*
X513462Y170330D01*
X513543Y170379D01*
X513615Y170441D01*
X513676Y170512D01*
X513725Y170593D01*
X513761Y170680D01*
X513783Y170772D01*
X513789Y170866D01*
X513783Y175685D01*
X513761Y175777D01*
X513725Y175864D01*
X513676Y175944D01*
X513615Y176016D01*
X513543Y176077D01*
X513462Y176127D01*
X513375Y176163D01*
X513283Y176185D01*
X513189Y176191D01*
X511457Y176188D01*
Y178733D01*
X513874Y178736D01*
X513966Y178758D01*
X514053Y178794D01*
X514133Y178844D01*
X514205Y178905D01*
X514266Y178977D01*
X514316Y179057D01*
X514352Y179145D01*
X514374Y179237D01*
X514380Y179331D01*
X514377Y182321D01*
X517402Y179296D01*
X517440Y179251D01*
X517619Y179098D01*
X517620Y179098D01*
X517821Y178974D01*
X518039Y178884D01*
X518269Y178829D01*
X518504Y178810D01*
X518563Y178815D01*
X532441D01*
Y170398D01*
G37*
G36*
X511457Y167723D02*X509630Y167720D01*
X509538Y167698D01*
X509451Y167662D01*
X509371Y167613D01*
X509299Y167552D01*
X509238Y167480D01*
X509188Y167399D01*
X509152Y167312D01*
X509130Y167220D01*
X509124Y167126D01*
X509130Y160339D01*
X509152Y160247D01*
X509188Y160160D01*
X509238Y160079D01*
X509299Y160008D01*
X509371Y159946D01*
X509451Y159897D01*
X509538Y159861D01*
X509630Y159839D01*
X509724Y159833D01*
X511457Y159835D01*
Y158980D01*
X498090D01*
X498031Y158985D01*
X497796Y158966D01*
X497567Y158911D01*
X497348Y158821D01*
X497147Y158698D01*
X497147Y158697D01*
X496968Y158544D01*
X496929Y158499D01*
X481268Y142839D01*
X467712D01*
Y200886D01*
X475570D01*
X476041Y200914D01*
X476500Y201024D01*
X476936Y201205D01*
X477339Y201451D01*
X477698Y201758D01*
X478005Y202117D01*
X478251Y202520D01*
X478432Y202956D01*
X478542Y203415D01*
X478579Y203886D01*
X478542Y204357D01*
X478432Y204816D01*
X478251Y205252D01*
X478005Y205655D01*
X477698Y206014D01*
X477339Y206320D01*
X476936Y206567D01*
X476500Y206748D01*
X476041Y206858D01*
X475570Y206886D01*
X467712D01*
Y211663D01*
X468976Y210398D01*
X469015Y210353D01*
X469194Y210200D01*
X469396Y210077D01*
X469614Y209986D01*
X469843Y209931D01*
X470079Y209913D01*
X470138Y209917D01*
X476934D01*
X480891Y205922D01*
X480931Y205874D01*
X481088Y205740D01*
X481105Y205725D01*
X481108Y205723D01*
X481111Y205721D01*
X481209Y205661D01*
X481306Y205601D01*
X481309Y205599D01*
X481312Y205598D01*
X481418Y205554D01*
X481523Y205509D01*
X481527Y205509D01*
X481530Y205507D01*
X481642Y205480D01*
X481753Y205453D01*
X481756Y205453D01*
X481760Y205452D01*
X481782Y205451D01*
X481988Y205434D01*
X482050Y205438D01*
X497165D01*
X499681Y202922D01*
Y186617D01*
X499530Y186524D01*
X499195Y186238D01*
X498909Y185903D01*
X498679Y185527D01*
X498510Y185120D01*
X498407Y184691D01*
X498372Y184252D01*
X498407Y183813D01*
X498510Y183384D01*
X498679Y182977D01*
X498909Y182601D01*
X499195Y182266D01*
X499530Y181980D01*
X499906Y181749D01*
X500313Y181581D01*
X500742Y181478D01*
X501181Y181443D01*
X501620Y181478D01*
X502049Y181581D01*
X502456Y181749D01*
X502832Y181980D01*
X503167Y182266D01*
X503453Y182601D01*
X503684Y182977D01*
X503852Y183384D01*
X503955Y183813D01*
X503981Y184252D01*
X503955Y184691D01*
X503852Y185120D01*
X503684Y185527D01*
X503453Y185903D01*
X503167Y186238D01*
X502832Y186524D01*
X502681Y186617D01*
Y203485D01*
X502686Y203543D01*
X502667Y203778D01*
X502667Y203779D01*
X502612Y204008D01*
X502522Y204226D01*
X502398Y204428D01*
X502245Y204607D01*
X502200Y204646D01*
X499094Y207752D01*
X503118D01*
X503097Y207480D01*
X503131Y207041D01*
X503234Y206612D01*
X503403Y206205D01*
X503633Y205829D01*
X503920Y205494D01*
X504255Y205208D01*
X504630Y204978D01*
X505038Y204809D01*
X505466Y204706D01*
X505906Y204672D01*
X506345Y204706D01*
X506773Y204809D01*
X507181Y204978D01*
X507556Y205208D01*
X507892Y205494D01*
X508178Y205829D01*
X508408Y206205D01*
X508577Y206612D01*
X508680Y207041D01*
X508706Y207480D01*
X508680Y207920D01*
X508577Y208348D01*
X508408Y208755D01*
X508178Y209131D01*
X507892Y209466D01*
X507556Y209753D01*
X507181Y209983D01*
X506773Y210151D01*
X506345Y210254D01*
X505906Y210289D01*
X505466Y210254D01*
X505294Y210213D01*
X505236Y210271D01*
X505198Y210316D01*
X505018Y210469D01*
X504817Y210593D01*
X504599Y210683D01*
X504369Y210738D01*
X504134Y210757D01*
X504075Y210752D01*
X484283D01*
X481687Y213348D01*
X482255Y213113D01*
X482949Y212946D01*
X483661Y212890D01*
X484373Y212946D01*
X485068Y213113D01*
X485728Y213386D01*
X486336Y213759D01*
X486879Y214223D01*
X487343Y214766D01*
X487716Y215375D01*
X487990Y216035D01*
X488156Y216729D01*
X488198Y217441D01*
X488156Y218153D01*
X487990Y218847D01*
X487716Y219507D01*
X487343Y220116D01*
X486879Y220659D01*
X486336Y221123D01*
X485728Y221496D01*
X485358Y221649D01*
Y223957D01*
X485363Y224016D01*
X485344Y224251D01*
X485289Y224481D01*
X485199Y224699D01*
X485076Y224900D01*
X484922Y225080D01*
X484877Y225118D01*
X471972Y238023D01*
Y239946D01*
X472082Y240125D01*
X472191Y240387D01*
X472257Y240662D01*
X472273Y240945D01*
X472257Y241227D01*
X472191Y241503D01*
X472082Y241765D01*
X471934Y242007D01*
X471750Y242222D01*
X471534Y242406D01*
X471349Y242520D01*
X471472Y242594D01*
X483237D01*
X492201Y233631D01*
Y221747D01*
X491595Y221496D01*
X490986Y221123D01*
X490443Y220659D01*
X489980Y220116D01*
X489606Y219507D01*
X489333Y218847D01*
X489166Y218153D01*
X489110Y217441D01*
X489166Y216729D01*
X489333Y216035D01*
X489606Y215375D01*
X489980Y214766D01*
X490443Y214223D01*
X490986Y213759D01*
X491595Y213386D01*
X492255Y213113D01*
X492949Y212946D01*
X493661Y212890D01*
X494373Y212946D01*
X495068Y213113D01*
X495728Y213386D01*
X496336Y213759D01*
X496879Y214223D01*
X497343Y214766D01*
X497716Y215375D01*
X497990Y216035D01*
X498156Y216729D01*
X498198Y217441D01*
X498156Y218153D01*
X497990Y218847D01*
X497716Y219507D01*
X497343Y220116D01*
X496879Y220659D01*
X496336Y221123D01*
X495728Y221496D01*
X495201Y221714D01*
Y232727D01*
X495258Y232660D01*
X495593Y232373D01*
X495969Y232143D01*
X496376Y231974D01*
X496805Y231872D01*
X497244Y231837D01*
X497683Y231872D01*
X498112Y231974D01*
X498519Y232143D01*
X498895Y232373D01*
X499230Y232660D01*
X499516Y232995D01*
X499747Y233371D01*
X499915Y233778D01*
X500018Y234206D01*
X500044Y234646D01*
X500018Y235085D01*
X499915Y235514D01*
X499747Y235921D01*
X499516Y236297D01*
X499494Y236323D01*
Y238888D01*
X499501Y238976D01*
X499473Y239329D01*
X499473Y239329D01*
X499391Y239674D01*
X499255Y240001D01*
X499070Y240303D01*
X498840Y240572D01*
X498773Y240630D01*
X493733Y245669D01*
X493845Y245781D01*
X494780D01*
X494806Y245759D01*
X495182Y245529D01*
X495589Y245360D01*
X496017Y245257D01*
X496457Y245223D01*
X496896Y245257D01*
X497325Y245360D01*
X497732Y245529D01*
X498108Y245759D01*
X498443Y246045D01*
X498729Y246381D01*
X498959Y246756D01*
X499128Y247164D01*
X499231Y247592D01*
X499257Y248031D01*
X499231Y248471D01*
X499175Y248704D01*
X511457Y236422D01*
Y221411D01*
X510986Y221123D01*
X510443Y220659D01*
X509980Y220116D01*
X509606Y219507D01*
X509333Y218847D01*
X509166Y218153D01*
X509110Y217441D01*
X509166Y216729D01*
X509333Y216035D01*
X509606Y215375D01*
X509980Y214766D01*
X510443Y214223D01*
X510986Y213759D01*
X511457Y213471D01*
Y212917D01*
X510306D01*
X507755Y215468D01*
X507990Y216035D01*
X508156Y216729D01*
X508198Y217441D01*
X508156Y218153D01*
X507990Y218847D01*
X507716Y219507D01*
X507343Y220116D01*
X506879Y220659D01*
X506336Y221123D01*
X505728Y221496D01*
X505068Y221769D01*
X504373Y221936D01*
X503661Y221992D01*
X502949Y221936D01*
X502255Y221769D01*
X501595Y221496D01*
X500986Y221123D01*
X500443Y220659D01*
X499980Y220116D01*
X499606Y219507D01*
X499333Y218847D01*
X499166Y218153D01*
X499110Y217441D01*
X499166Y216729D01*
X499333Y216035D01*
X499606Y215375D01*
X499980Y214766D01*
X500443Y214223D01*
X500986Y213759D01*
X501595Y213386D01*
X502255Y213113D01*
X502949Y212946D01*
X503661Y212890D01*
X504373Y212946D01*
X505068Y213113D01*
X505634Y213347D01*
X508583Y210398D01*
X508621Y210353D01*
X508801Y210200D01*
X509002Y210077D01*
X509220Y209986D01*
X509450Y209931D01*
X509685Y209913D01*
X509744Y209917D01*
X511457D01*
Y186621D01*
X509630Y186618D01*
X509538Y186596D01*
X509451Y186560D01*
X509371Y186511D01*
X509299Y186449D01*
X509238Y186377D01*
X509188Y186297D01*
X509152Y186210D01*
X509130Y186118D01*
X509124Y186024D01*
X509130Y179237D01*
X509152Y179145D01*
X509188Y179057D01*
X509238Y178977D01*
X509299Y178905D01*
X509371Y178844D01*
X509451Y178794D01*
X509538Y178758D01*
X509630Y178736D01*
X509724Y178731D01*
X511457Y178733D01*
Y176188D01*
X509630Y176185D01*
X509538Y176163D01*
X509451Y176127D01*
X509371Y176077D01*
X509299Y176016D01*
X509238Y175944D01*
X509188Y175864D01*
X509152Y175777D01*
X509130Y175685D01*
X509124Y175591D01*
X509130Y170772D01*
X509152Y170680D01*
X509188Y170593D01*
X509238Y170512D01*
X509299Y170441D01*
X509371Y170379D01*
X509451Y170330D01*
X509538Y170294D01*
X509630Y170272D01*
X509724Y170266D01*
X511457Y170269D01*
Y167723D01*
G37*
G36*
X532441Y166461D02*X532342D01*
X532283Y166465D01*
X532048Y166447D01*
X531819Y166392D01*
X531600Y166301D01*
X531399Y166178D01*
X531399Y166178D01*
X531220Y166025D01*
X531181Y165980D01*
X523941Y158739D01*
Y160025D01*
X524051Y160203D01*
X524159Y160465D01*
X524225Y160741D01*
X524242Y161024D01*
X524225Y161306D01*
X524159Y161582D01*
X524051Y161844D01*
X523902Y162085D01*
X523718Y162301D01*
X523503Y162485D01*
X523261Y162633D01*
X522999Y162742D01*
X522724Y162808D01*
X522441Y162830D01*
X522158Y162808D01*
X521883Y162742D01*
X521621Y162633D01*
X521379Y162485D01*
X521164Y162301D01*
X520979Y162085D01*
X520831Y161844D01*
X520791Y161747D01*
Y163962D01*
X520901Y164140D01*
X521009Y164402D01*
X521076Y164678D01*
X521092Y164961D01*
X521076Y165243D01*
X521009Y165519D01*
X520901Y165781D01*
X520753Y166022D01*
X520569Y166238D01*
X520353Y166422D01*
X520111Y166570D01*
X519850Y166679D01*
X519574Y166745D01*
X519291Y166767D01*
X519009Y166745D01*
X518733Y166679D01*
X518471Y166570D01*
X518229Y166422D01*
X518014Y166238D01*
X517830Y166022D01*
X517682Y165781D01*
X517642Y165684D01*
Y166308D01*
X518732Y167398D01*
X532441D01*
Y166461D01*
G37*
G36*
Y139689D02*X509089D01*
X509152Y139728D01*
X509332Y139881D01*
X509370Y139926D01*
X519412Y149968D01*
X519417Y142181D01*
X519439Y142090D01*
X519476Y142002D01*
X519525Y141922D01*
X519586Y141850D01*
X519658Y141789D01*
X519739Y141739D01*
X519826Y141703D01*
X519918Y141681D01*
X520012Y141676D01*
X527980Y141681D01*
X528072Y141703D01*
X528159Y141739D01*
X528240Y141789D01*
X528311Y141850D01*
X528373Y141922D01*
X528422Y142002D01*
X528458Y142090D01*
X528480Y142181D01*
X528486Y142276D01*
X528480Y150244D01*
X528458Y150336D01*
X528422Y150423D01*
X528373Y150503D01*
X528311Y150575D01*
X528240Y150637D01*
X528159Y150686D01*
X528072Y150722D01*
X527980Y150744D01*
X527886Y150750D01*
X520188Y150744D01*
X532441Y162997D01*
Y154143D01*
X529237Y154138D01*
X529145Y154116D01*
X529057Y154080D01*
X528977Y154030D01*
X528905Y153969D01*
X528844Y153897D01*
X528794Y153817D01*
X528758Y153729D01*
X528736Y153637D01*
X528731Y153543D01*
X528736Y149315D01*
X528758Y149223D01*
X528794Y149136D01*
X528844Y149056D01*
X528905Y148984D01*
X528977Y148923D01*
X529057Y148873D01*
X529145Y148837D01*
X529237Y148815D01*
X529331Y148809D01*
X532441Y148814D01*
Y139689D01*
G37*
G36*
Y117717D02*X523654D01*
Y122890D01*
X523661Y122890D01*
X524373Y122946D01*
X525068Y123113D01*
X525728Y123386D01*
X526336Y123759D01*
X526879Y124223D01*
X527343Y124766D01*
X527716Y125375D01*
X527990Y126035D01*
X528156Y126729D01*
X528198Y127441D01*
X528156Y128153D01*
X527990Y128847D01*
X527716Y129507D01*
X527343Y130116D01*
X526879Y130659D01*
X526336Y131123D01*
X525728Y131496D01*
X525068Y131769D01*
X524373Y131936D01*
X523661Y131992D01*
X523654Y131991D01*
Y133933D01*
X532441D01*
Y131814D01*
X532255Y131769D01*
X531595Y131496D01*
X530986Y131123D01*
X530443Y130659D01*
X529980Y130116D01*
X529606Y129507D01*
X529333Y128847D01*
X529166Y128153D01*
X529110Y127441D01*
X529166Y126729D01*
X529333Y126035D01*
X529606Y125375D01*
X529980Y124766D01*
X530443Y124223D01*
X530986Y123759D01*
X531595Y123386D01*
X532255Y123113D01*
X532441Y123068D01*
Y117717D01*
G37*
G36*
X523654D02*X513654D01*
Y122890D01*
X513661Y122890D01*
X514373Y122946D01*
X515068Y123113D01*
X515728Y123386D01*
X516336Y123759D01*
X516879Y124223D01*
X517343Y124766D01*
X517716Y125375D01*
X517990Y126035D01*
X518156Y126729D01*
X518198Y127441D01*
X518156Y128153D01*
X517990Y128847D01*
X517716Y129507D01*
X517343Y130116D01*
X516879Y130659D01*
X516336Y131123D01*
X515728Y131496D01*
X515068Y131769D01*
X514373Y131936D01*
X513661Y131992D01*
X513654Y131991D01*
Y133933D01*
X523654D01*
Y131991D01*
X522949Y131936D01*
X522255Y131769D01*
X521595Y131496D01*
X520986Y131123D01*
X520443Y130659D01*
X519980Y130116D01*
X519606Y129507D01*
X519333Y128847D01*
X519166Y128153D01*
X519110Y127441D01*
X519166Y126729D01*
X519333Y126035D01*
X519606Y125375D01*
X519980Y124766D01*
X520443Y124223D01*
X520986Y123759D01*
X521595Y123386D01*
X522255Y123113D01*
X522949Y122946D01*
X523654Y122890D01*
Y117717D01*
G37*
G36*
X513654D02*X503654D01*
Y122890D01*
X503661Y122890D01*
X504373Y122946D01*
X505068Y123113D01*
X505728Y123386D01*
X506336Y123759D01*
X506879Y124223D01*
X507343Y124766D01*
X507716Y125375D01*
X507990Y126035D01*
X508156Y126729D01*
X508198Y127441D01*
X508156Y128153D01*
X507990Y128847D01*
X507716Y129507D01*
X507343Y130116D01*
X506879Y130659D01*
X506336Y131123D01*
X505728Y131496D01*
X505068Y131769D01*
X504373Y131936D01*
X503661Y131992D01*
X503654Y131991D01*
Y133933D01*
X513654D01*
Y131991D01*
X512949Y131936D01*
X512255Y131769D01*
X511595Y131496D01*
X510986Y131123D01*
X510443Y130659D01*
X509980Y130116D01*
X509606Y129507D01*
X509333Y128847D01*
X509166Y128153D01*
X509110Y127441D01*
X509166Y126729D01*
X509333Y126035D01*
X509606Y125375D01*
X509980Y124766D01*
X510443Y124223D01*
X510986Y123759D01*
X511595Y123386D01*
X512255Y123113D01*
X512949Y122946D01*
X513654Y122890D01*
Y117717D01*
G37*
G36*
X503654D02*X467712D01*
Y125368D01*
X467716Y125375D01*
X467990Y126035D01*
X468156Y126729D01*
X468198Y127441D01*
X468156Y128153D01*
X467990Y128847D01*
X467716Y129507D01*
X467712Y129514D01*
Y131965D01*
X473314D01*
X472949Y131936D01*
X472255Y131769D01*
X471595Y131496D01*
X470986Y131123D01*
X470443Y130659D01*
X469980Y130116D01*
X469606Y129507D01*
X469333Y128847D01*
X469166Y128153D01*
X469110Y127441D01*
X469166Y126729D01*
X469333Y126035D01*
X469606Y125375D01*
X469980Y124766D01*
X470443Y124223D01*
X470986Y123759D01*
X471595Y123386D01*
X472255Y123113D01*
X472949Y122946D01*
X473661Y122890D01*
X474373Y122946D01*
X475068Y123113D01*
X475728Y123386D01*
X476336Y123759D01*
X476879Y124223D01*
X477343Y124766D01*
X477716Y125375D01*
X477990Y126035D01*
X478156Y126729D01*
X478198Y127441D01*
X478156Y128153D01*
X477990Y128847D01*
X477716Y129507D01*
X477343Y130116D01*
X476879Y130659D01*
X476336Y131123D01*
X475728Y131496D01*
X475068Y131769D01*
X474373Y131936D01*
X474009Y131965D01*
X483314D01*
X482949Y131936D01*
X482255Y131769D01*
X481595Y131496D01*
X480986Y131123D01*
X480443Y130659D01*
X479980Y130116D01*
X479606Y129507D01*
X479333Y128847D01*
X479166Y128153D01*
X479110Y127441D01*
X479166Y126729D01*
X479333Y126035D01*
X479606Y125375D01*
X479980Y124766D01*
X480443Y124223D01*
X480986Y123759D01*
X481595Y123386D01*
X482255Y123113D01*
X482949Y122946D01*
X483661Y122890D01*
X484373Y122946D01*
X485068Y123113D01*
X485728Y123386D01*
X486336Y123759D01*
X486879Y124223D01*
X487343Y124766D01*
X487716Y125375D01*
X487990Y126035D01*
X488156Y126729D01*
X488198Y127441D01*
X488156Y128153D01*
X488002Y128794D01*
X495897Y136689D01*
X500753D01*
X500690Y136650D01*
X500690Y136650D01*
X500511Y136497D01*
X500473Y136452D01*
X495578Y131558D01*
X495068Y131769D01*
X494373Y131936D01*
X493661Y131992D01*
X492949Y131936D01*
X492255Y131769D01*
X491595Y131496D01*
X490986Y131123D01*
X490443Y130659D01*
X489980Y130116D01*
X489606Y129507D01*
X489333Y128847D01*
X489166Y128153D01*
X489110Y127441D01*
X489166Y126729D01*
X489333Y126035D01*
X489606Y125375D01*
X489980Y124766D01*
X490443Y124223D01*
X490986Y123759D01*
X491595Y123386D01*
X492255Y123113D01*
X492949Y122946D01*
X493661Y122890D01*
X494373Y122946D01*
X495068Y123113D01*
X495728Y123386D01*
X496336Y123759D01*
X496879Y124223D01*
X497343Y124766D01*
X497716Y125375D01*
X497990Y126035D01*
X498156Y126729D01*
X498198Y127441D01*
X498156Y128153D01*
X497990Y128847D01*
X497732Y129469D01*
X502196Y133933D01*
X503654D01*
Y131991D01*
X502949Y131936D01*
X502255Y131769D01*
X501595Y131496D01*
X500986Y131123D01*
X500443Y130659D01*
X499980Y130116D01*
X499606Y129507D01*
X499333Y128847D01*
X499166Y128153D01*
X499110Y127441D01*
X499166Y126729D01*
X499333Y126035D01*
X499606Y125375D01*
X499980Y124766D01*
X500443Y124223D01*
X500986Y123759D01*
X501595Y123386D01*
X502255Y123113D01*
X502949Y122946D01*
X503654Y122890D01*
Y117717D01*
G37*
G36*
X467712Y384252D02*X532441D01*
Y319087D01*
X524456Y311102D01*
X524388Y311045D01*
X524158Y310775D01*
X523973Y310473D01*
X523838Y310146D01*
X523755Y309802D01*
X523755Y309801D01*
X523727Y309449D01*
X523734Y309361D01*
Y295557D01*
X482822D01*
X481778Y296601D01*
Y318022D01*
X481784Y318110D01*
X481757Y318463D01*
X481757Y318463D01*
X481674Y318808D01*
X481539Y319135D01*
X481353Y319437D01*
X481123Y319706D01*
X481056Y319764D01*
X471338Y329481D01*
X471281Y329549D01*
X471012Y329779D01*
X471012Y329779D01*
X470897Y329849D01*
X470710Y329964D01*
X470478Y330060D01*
X470382Y330099D01*
X470038Y330182D01*
X469685Y330210D01*
X469597Y330203D01*
X467712D01*
Y384252D01*
G37*
G36*
Y142839D02*X438013D01*
X438374Y142988D01*
X438777Y143235D01*
X439136Y143541D01*
X439212Y143631D01*
X446920Y151339D01*
X447010Y151415D01*
X447316Y151774D01*
X447316Y151775D01*
X447563Y152177D01*
X447744Y152613D01*
X447854Y153073D01*
X447891Y153543D01*
X447882Y153661D01*
Y193246D01*
X455523Y200886D01*
X467712D01*
Y142839D01*
G37*
G36*
Y129514D02*X467343Y130116D01*
X466879Y130659D01*
X466336Y131123D01*
X465728Y131496D01*
X465068Y131769D01*
X464373Y131936D01*
X464009Y131965D01*
X467712D01*
Y129514D01*
G37*
G36*
X456690Y124061D02*X456879Y124223D01*
X457343Y124766D01*
X457716Y125375D01*
X457990Y126035D01*
X458156Y126729D01*
X458198Y127441D01*
X458156Y128153D01*
X457990Y128847D01*
X457716Y129507D01*
X457343Y130116D01*
X456879Y130659D01*
X456690Y130821D01*
Y131965D01*
X463314D01*
X462949Y131936D01*
X462255Y131769D01*
X461595Y131496D01*
X460986Y131123D01*
X460443Y130659D01*
X459980Y130116D01*
X459606Y129507D01*
X459333Y128847D01*
X459166Y128153D01*
X459110Y127441D01*
X459166Y126729D01*
X459333Y126035D01*
X459606Y125375D01*
X459980Y124766D01*
X460443Y124223D01*
X460986Y123759D01*
X461595Y123386D01*
X462255Y123113D01*
X462949Y122946D01*
X463661Y122890D01*
X464373Y122946D01*
X465068Y123113D01*
X465728Y123386D01*
X466336Y123759D01*
X466879Y124223D01*
X467343Y124766D01*
X467712Y125368D01*
Y117717D01*
X456690D01*
Y124061D01*
G37*
G36*
Y239445D02*X467712D01*
Y219514D01*
X467343Y220116D01*
X466879Y220659D01*
X466336Y221123D01*
X465728Y221496D01*
X465068Y221769D01*
X464373Y221936D01*
X463661Y221992D01*
X462949Y221936D01*
X462255Y221769D01*
X461595Y221496D01*
X460986Y221123D01*
X460443Y220659D01*
X459980Y220116D01*
X459606Y219507D01*
X459333Y218847D01*
X459166Y218153D01*
X459110Y217441D01*
X459166Y216729D01*
X459333Y216035D01*
X459606Y215375D01*
X459980Y214766D01*
X460443Y214223D01*
X460986Y213759D01*
X461595Y213386D01*
X462255Y213113D01*
X462949Y212946D01*
X463661Y212890D01*
X464373Y212946D01*
X465068Y213113D01*
X465728Y213386D01*
X465890Y213485D01*
X467712Y211663D01*
Y206886D01*
X456690D01*
Y214061D01*
X456879Y214223D01*
X457343Y214766D01*
X457716Y215375D01*
X457990Y216035D01*
X458156Y216729D01*
X458198Y217441D01*
X458156Y218153D01*
X457990Y218847D01*
X457716Y219507D01*
X457343Y220116D01*
X456879Y220659D01*
X456690Y220821D01*
Y225753D01*
X456693Y225752D01*
X456976Y225775D01*
X457251Y225841D01*
X457513Y225949D01*
X457755Y226098D01*
X457970Y226282D01*
X458154Y226497D01*
X458303Y226739D01*
X458411Y227001D01*
X458477Y227276D01*
X458494Y227559D01*
X458477Y227842D01*
X458411Y228117D01*
X458303Y228379D01*
X458193Y228558D01*
Y234040D01*
X458303Y234219D01*
X458411Y234481D01*
X458477Y234757D01*
X458494Y235039D01*
X458477Y235322D01*
X458411Y235598D01*
X458303Y235860D01*
X458154Y236101D01*
X457970Y236317D01*
X457755Y236501D01*
X457513Y236649D01*
X457251Y236758D01*
X456976Y236824D01*
X456693Y236846D01*
X456690Y236846D01*
Y239445D01*
G37*
G36*
Y252868D02*X467712D01*
Y245594D01*
X456690D01*
Y252868D01*
G37*
G36*
Y259130D02*X467712D01*
Y257368D01*
X456690D01*
Y259130D01*
G37*
G36*
Y263854D02*X467712D01*
Y262130D01*
X456690D01*
Y263854D01*
G37*
G36*
Y284496D02*X467712Y273474D01*
Y266854D01*
X456690D01*
Y278590D01*
X457555Y277725D01*
Y272500D01*
X457550Y272441D01*
X457569Y272206D01*
X457624Y271976D01*
X457714Y271758D01*
X457838Y271557D01*
X457838Y271556D01*
X457991Y271377D01*
X458036Y271339D01*
X460831Y268543D01*
X460880Y268339D01*
X460989Y268077D01*
X461137Y267836D01*
X461321Y267620D01*
X461537Y267436D01*
X461778Y267288D01*
X462040Y267180D01*
X462316Y267113D01*
X462598Y267091D01*
X462881Y267113D01*
X463157Y267180D01*
X463419Y267288D01*
X463660Y267436D01*
X463876Y267620D01*
X464060Y267836D01*
X464208Y268077D01*
X464317Y268339D01*
X464383Y268615D01*
X464399Y268898D01*
X464383Y269180D01*
X464317Y269456D01*
X464208Y269718D01*
X464060Y269960D01*
X463876Y270175D01*
X463660Y270359D01*
X463419Y270507D01*
X463157Y270616D01*
X462953Y270665D01*
X460555Y273062D01*
Y278288D01*
X460560Y278346D01*
X460541Y278582D01*
X460486Y278811D01*
X460396Y279030D01*
X460272Y279231D01*
X460119Y279410D01*
X460074Y279449D01*
X456690Y282833D01*
Y284496D01*
G37*
G36*
Y325703D02*X467712D01*
Y277716D01*
X456690Y288738D01*
Y325703D01*
G37*
G36*
Y384252D02*X467712D01*
Y330203D01*
X456690D01*
Y384252D01*
G37*
G36*
Y130821D02*X456336Y131123D01*
X455728Y131496D01*
X455068Y131769D01*
X454373Y131936D01*
X454009Y131965D01*
X456690D01*
Y130821D01*
G37*
G36*
X393654Y134795D02*X401851D01*
X401969Y134786D01*
X402439Y134823D01*
X402439Y134823D01*
X402898Y134933D01*
X403335Y135114D01*
X403737Y135361D01*
X404096Y135667D01*
X404173Y135757D01*
X411085Y142669D01*
X416466D01*
X416281Y142556D01*
X416281Y142556D01*
X416101Y142403D01*
X416063Y142358D01*
X405355Y131650D01*
X405068Y131769D01*
X404373Y131936D01*
X403661Y131992D01*
X402949Y131936D01*
X402255Y131769D01*
X401595Y131496D01*
X400986Y131123D01*
X400443Y130659D01*
X399980Y130116D01*
X399606Y129507D01*
X399333Y128847D01*
X399166Y128153D01*
X399110Y127441D01*
X399166Y126729D01*
X399333Y126035D01*
X399606Y125375D01*
X399980Y124766D01*
X400443Y124223D01*
X400986Y123759D01*
X401595Y123386D01*
X402255Y123113D01*
X402949Y122946D01*
X403661Y122890D01*
X404373Y122946D01*
X405068Y123113D01*
X405728Y123386D01*
X406336Y123759D01*
X406879Y124223D01*
X407343Y124766D01*
X407716Y125375D01*
X407990Y126035D01*
X408156Y126729D01*
X408198Y127441D01*
X408156Y128153D01*
X407990Y128847D01*
X407716Y129507D01*
X407617Y129669D01*
X417787Y139839D01*
X423938D01*
X415634Y131535D01*
X415068Y131769D01*
X414373Y131936D01*
X413661Y131992D01*
X412949Y131936D01*
X412255Y131769D01*
X411595Y131496D01*
X410986Y131123D01*
X410443Y130659D01*
X409980Y130116D01*
X409606Y129507D01*
X409333Y128847D01*
X409166Y128153D01*
X409110Y127441D01*
X409166Y126729D01*
X409333Y126035D01*
X409606Y125375D01*
X409980Y124766D01*
X410443Y124223D01*
X410986Y123759D01*
X411595Y123386D01*
X412255Y123113D01*
X412949Y122946D01*
X413661Y122890D01*
X414373Y122946D01*
X415068Y123113D01*
X415728Y123386D01*
X416336Y123759D01*
X416879Y124223D01*
X417343Y124766D01*
X417716Y125375D01*
X417990Y126035D01*
X418156Y126729D01*
X418198Y127441D01*
X418156Y128153D01*
X417990Y128847D01*
X417755Y129413D01*
X425818Y137476D01*
X431620D01*
X431557Y137438D01*
X431556Y137438D01*
X431377Y137284D01*
X431339Y137240D01*
X425634Y131535D01*
X425068Y131769D01*
X424373Y131936D01*
X423661Y131992D01*
X422949Y131936D01*
X422255Y131769D01*
X421595Y131496D01*
X420986Y131123D01*
X420443Y130659D01*
X419980Y130116D01*
X419606Y129507D01*
X419333Y128847D01*
X419166Y128153D01*
X419110Y127441D01*
X419166Y126729D01*
X419333Y126035D01*
X419606Y125375D01*
X419980Y124766D01*
X420443Y124223D01*
X420986Y123759D01*
X421595Y123386D01*
X422255Y123113D01*
X422949Y122946D01*
X423661Y122890D01*
X424373Y122946D01*
X425068Y123113D01*
X425728Y123386D01*
X426336Y123759D01*
X426879Y124223D01*
X427343Y124766D01*
X427716Y125375D01*
X427990Y126035D01*
X428156Y126729D01*
X428198Y127441D01*
X428156Y128153D01*
X427990Y128847D01*
X427755Y129413D01*
X433062Y134720D01*
X436187D01*
X436123Y134682D01*
X436123Y134682D01*
X435944Y134528D01*
X435906Y134484D01*
X433393Y131971D01*
X432949Y131936D01*
X432255Y131769D01*
X431595Y131496D01*
X430986Y131123D01*
X430443Y130659D01*
X429980Y130116D01*
X429606Y129507D01*
X429333Y128847D01*
X429166Y128153D01*
X429110Y127441D01*
X429166Y126729D01*
X429333Y126035D01*
X429606Y125375D01*
X429980Y124766D01*
X430443Y124223D01*
X430986Y123759D01*
X431595Y123386D01*
X432255Y123113D01*
X432949Y122946D01*
X433661Y122890D01*
X434373Y122946D01*
X435068Y123113D01*
X435728Y123386D01*
X436336Y123759D01*
X436879Y124223D01*
X437343Y124766D01*
X437716Y125375D01*
X437990Y126035D01*
X438156Y126729D01*
X438198Y127441D01*
X438156Y128153D01*
X437990Y128847D01*
X437716Y129507D01*
X437343Y130116D01*
X436879Y130659D01*
X436580Y130915D01*
X437629Y131965D01*
X443314D01*
X442949Y131936D01*
X442255Y131769D01*
X441595Y131496D01*
X440986Y131123D01*
X440443Y130659D01*
X439980Y130116D01*
X439606Y129507D01*
X439333Y128847D01*
X439166Y128153D01*
X439110Y127441D01*
X439166Y126729D01*
X439333Y126035D01*
X439606Y125375D01*
X439980Y124766D01*
X440443Y124223D01*
X440986Y123759D01*
X441595Y123386D01*
X442255Y123113D01*
X442949Y122946D01*
X443661Y122890D01*
X444373Y122946D01*
X445068Y123113D01*
X445728Y123386D01*
X446336Y123759D01*
X446879Y124223D01*
X447343Y124766D01*
X447716Y125375D01*
X447990Y126035D01*
X448156Y126729D01*
X448198Y127441D01*
X448156Y128153D01*
X447990Y128847D01*
X447716Y129507D01*
X447343Y130116D01*
X446879Y130659D01*
X446336Y131123D01*
X445728Y131496D01*
X445068Y131769D01*
X444373Y131936D01*
X444009Y131965D01*
X453314D01*
X452949Y131936D01*
X452255Y131769D01*
X451595Y131496D01*
X450986Y131123D01*
X450443Y130659D01*
X449980Y130116D01*
X449606Y129507D01*
X449333Y128847D01*
X449166Y128153D01*
X449110Y127441D01*
X449166Y126729D01*
X449333Y126035D01*
X449606Y125375D01*
X449980Y124766D01*
X450443Y124223D01*
X450986Y123759D01*
X451595Y123386D01*
X452255Y123113D01*
X452949Y122946D01*
X453661Y122890D01*
X454373Y122946D01*
X455068Y123113D01*
X455728Y123386D01*
X456336Y123759D01*
X456690Y124061D01*
Y117717D01*
X393654D01*
Y122890D01*
X393661Y122890D01*
X394373Y122946D01*
X395068Y123113D01*
X395728Y123386D01*
X396336Y123759D01*
X396879Y124223D01*
X397343Y124766D01*
X397716Y125375D01*
X397990Y126035D01*
X398156Y126729D01*
X398198Y127441D01*
X398156Y128153D01*
X397990Y128847D01*
X397716Y129507D01*
X397343Y130116D01*
X396879Y130659D01*
X396336Y131123D01*
X395728Y131496D01*
X395068Y131769D01*
X394373Y131936D01*
X393661Y131992D01*
X393654Y131991D01*
Y134795D01*
G37*
G36*
Y196927D02*X394049Y196832D01*
X394488Y196798D01*
X394928Y196832D01*
X395356Y196935D01*
X395763Y197104D01*
X396139Y197334D01*
X396474Y197620D01*
X396760Y197955D01*
X396853Y198106D01*
X419064D01*
X420941Y196229D01*
Y153152D01*
X420790Y153060D01*
X420455Y152773D01*
X420169Y152438D01*
X419938Y152062D01*
X419770Y151655D01*
X419667Y151227D01*
X419632Y150787D01*
X419667Y150348D01*
X419770Y149919D01*
X419938Y149512D01*
X420169Y149137D01*
X420455Y148801D01*
X420610Y148669D01*
X409960D01*
X409843Y148679D01*
X409372Y148642D01*
X408913Y148531D01*
X408476Y148351D01*
X408074Y148104D01*
X408073Y148104D01*
X407715Y147797D01*
X407638Y147708D01*
X400726Y140795D01*
X393654D01*
Y196927D01*
G37*
G36*
Y262573D02*X393746Y262580D01*
X394175Y262683D01*
X394582Y262852D01*
X394958Y263082D01*
X395293Y263368D01*
X395579Y263703D01*
X395672Y263854D01*
X456690D01*
Y262130D01*
X393654D01*
Y262573D01*
G37*
G36*
Y298106D02*X443079D01*
X456690Y284496D01*
Y282833D01*
X456220Y283303D01*
X456182Y283347D01*
X456003Y283501D01*
X455801Y283624D01*
X455583Y283714D01*
X455353Y283770D01*
X455353Y283770D01*
X455118Y283788D01*
X455059Y283783D01*
X445728D01*
X445669Y283788D01*
X445434Y283770D01*
X445204Y283714D01*
X444986Y283624D01*
X444785Y283501D01*
X444785Y283501D01*
X444605Y283347D01*
X444567Y283303D01*
X442165Y280901D01*
X441961Y280852D01*
X441700Y280744D01*
X441458Y280595D01*
X441242Y280411D01*
X441058Y280196D01*
X440910Y279954D01*
X440802Y279692D01*
X440735Y279416D01*
X440713Y279134D01*
X440735Y278851D01*
X440802Y278576D01*
X440910Y278314D01*
X441058Y278072D01*
X441242Y277856D01*
X441458Y277672D01*
X441700Y277524D01*
X441961Y277416D01*
X442237Y277350D01*
X442520Y277327D01*
X442802Y277350D01*
X443078Y277416D01*
X443340Y277524D01*
X443582Y277672D01*
X443797Y277856D01*
X443981Y278072D01*
X444129Y278314D01*
X444238Y278576D01*
X444287Y278780D01*
X446291Y280783D01*
X454497D01*
X456690Y278590D01*
Y266854D01*
X454340D01*
X454366Y266896D01*
X454474Y267158D01*
X454540Y267434D01*
X454557Y267717D01*
X454540Y267999D01*
X454474Y268275D01*
X454366Y268537D01*
X454217Y268778D01*
X454033Y268994D01*
X453818Y269178D01*
X453656Y269277D01*
Y271668D01*
X453818Y271767D01*
X454033Y271951D01*
X454217Y272166D01*
X454366Y272408D01*
X454474Y272670D01*
X454540Y272946D01*
X454557Y273228D01*
X454540Y273511D01*
X454474Y273787D01*
X454366Y274049D01*
X454217Y274290D01*
X454033Y274506D01*
X453818Y274690D01*
X453576Y274838D01*
X453314Y274946D01*
X453039Y275013D01*
X452756Y275035D01*
X452473Y275013D01*
X452198Y274946D01*
X451936Y274838D01*
X451694Y274690D01*
X451478Y274506D01*
X451294Y274290D01*
X451146Y274049D01*
X451038Y273787D01*
X450972Y273511D01*
X450949Y273228D01*
X450972Y272946D01*
X451038Y272670D01*
X451146Y272408D01*
X451294Y272166D01*
X451478Y271951D01*
X451694Y271767D01*
X451856Y271668D01*
Y269277D01*
X451694Y269178D01*
X451478Y268994D01*
X451294Y268778D01*
X451146Y268537D01*
X451038Y268275D01*
X450972Y267999D01*
X450949Y267717D01*
X450972Y267434D01*
X451038Y267158D01*
X451146Y266896D01*
X451172Y266854D01*
X395672D01*
X395579Y267005D01*
X395293Y267340D01*
X394958Y267627D01*
X394582Y267857D01*
X394175Y268026D01*
X393746Y268128D01*
X393654Y268136D01*
Y298106D01*
G37*
G36*
Y325703D02*X456690D01*
Y288738D01*
X444803Y300625D01*
X444765Y300670D01*
X444585Y300824D01*
X444384Y300947D01*
X444166Y301037D01*
X443936Y301092D01*
X443701Y301111D01*
X443642Y301106D01*
X393654D01*
Y310386D01*
X452756D01*
X453227Y310414D01*
X453686Y310524D01*
X454122Y310705D01*
X454525Y310951D01*
X454884Y311258D01*
X455190Y311617D01*
X455437Y312020D01*
X455618Y312456D01*
X455728Y312915D01*
X455765Y313386D01*
X455728Y313857D01*
X455618Y314316D01*
X455437Y314752D01*
X455190Y315155D01*
X454884Y315514D01*
X454525Y315820D01*
X454122Y316067D01*
X453686Y316248D01*
X453227Y316358D01*
X452756Y316386D01*
X393654D01*
Y325703D01*
G37*
G36*
X443654Y237514D02*X443948D01*
X444014Y237486D01*
X444443Y237383D01*
X444882Y237349D01*
X445321Y237383D01*
X445750Y237486D01*
X446157Y237655D01*
X446533Y237885D01*
X446868Y238171D01*
X447154Y238507D01*
X447384Y238882D01*
X447553Y239290D01*
X447656Y239718D01*
X447682Y240157D01*
X447656Y240597D01*
X447553Y241025D01*
X447384Y241433D01*
X447154Y241808D01*
X446868Y242143D01*
X446533Y242430D01*
X446157Y242660D01*
X445750Y242829D01*
X445321Y242932D01*
X444882Y242966D01*
X444443Y242932D01*
X444014Y242829D01*
X443654Y242680D01*
Y259130D01*
X456690D01*
Y257368D01*
X451663D01*
X451575Y257375D01*
X451222Y257347D01*
X450877Y257265D01*
X450550Y257129D01*
X450248Y256944D01*
X450248Y256944D01*
X449979Y256714D01*
X449921Y256647D01*
X446503Y253228D01*
X446436Y253171D01*
X446206Y252901D01*
X446021Y252599D01*
X445885Y252272D01*
X445802Y251928D01*
X445802Y251927D01*
X445775Y251575D01*
X445781Y251487D01*
Y250496D01*
X445759Y250470D01*
X445529Y250094D01*
X445360Y249687D01*
X445257Y249258D01*
X445223Y248819D01*
X445257Y248380D01*
X445360Y247951D01*
X445529Y247544D01*
X445759Y247168D01*
X446045Y246833D01*
X446381Y246547D01*
X446756Y246316D01*
X447164Y246148D01*
X447592Y246045D01*
X448031Y246010D01*
X448471Y246045D01*
X448899Y246148D01*
X449307Y246316D01*
X449682Y246547D01*
X450018Y246833D01*
X450304Y247168D01*
X450534Y247544D01*
X450703Y247951D01*
X450806Y248380D01*
X450831Y248819D01*
X450806Y249258D01*
X450703Y249687D01*
X450534Y250094D01*
X450304Y250470D01*
X450281Y250496D01*
Y250643D01*
X452507Y252868D01*
X456690D01*
Y245594D01*
X455330D01*
X455151Y245704D01*
X454889Y245813D01*
X454613Y245879D01*
X454331Y245901D01*
X454048Y245879D01*
X453772Y245813D01*
X453511Y245704D01*
X453269Y245556D01*
X453053Y245372D01*
X452869Y245156D01*
X452721Y244915D01*
X452613Y244653D01*
X452546Y244377D01*
X452524Y244094D01*
X452546Y243812D01*
X452613Y243536D01*
X452721Y243274D01*
X452869Y243033D01*
X453053Y242817D01*
X453269Y242633D01*
X453454Y242520D01*
X453269Y242406D01*
X453053Y242222D01*
X452869Y242007D01*
X452721Y241765D01*
X452613Y241503D01*
X452546Y241227D01*
X452524Y240945D01*
X452546Y240662D01*
X452613Y240387D01*
X452721Y240125D01*
X452869Y239883D01*
X453053Y239667D01*
X453269Y239483D01*
X453511Y239335D01*
X453772Y239227D01*
X454048Y239161D01*
X454331Y239138D01*
X454613Y239161D01*
X454889Y239227D01*
X455151Y239335D01*
X455330Y239445D01*
X456690D01*
Y236846D01*
X456410Y236824D01*
X456135Y236758D01*
X455873Y236649D01*
X455631Y236501D01*
X455415Y236317D01*
X455231Y236101D01*
X455083Y235860D01*
X454975Y235598D01*
X454909Y235322D01*
X454886Y235039D01*
X454909Y234757D01*
X454975Y234481D01*
X455083Y234219D01*
X455193Y234040D01*
Y228558D01*
X455083Y228379D01*
X454975Y228117D01*
X454909Y227842D01*
X454886Y227559D01*
X454909Y227276D01*
X454975Y227001D01*
X455083Y226739D01*
X455231Y226497D01*
X455415Y226282D01*
X455631Y226098D01*
X455873Y225949D01*
X456135Y225841D01*
X456410Y225775D01*
X456690Y225753D01*
Y220821D01*
X456336Y221123D01*
X455728Y221496D01*
X455068Y221769D01*
X454373Y221936D01*
X453661Y221992D01*
X452949Y221936D01*
X452255Y221769D01*
X451595Y221496D01*
X450986Y221123D01*
X450443Y220659D01*
X449980Y220116D01*
X449606Y219507D01*
X449333Y218847D01*
X449166Y218153D01*
X449110Y217441D01*
X449166Y216729D01*
X449333Y216035D01*
X449606Y215375D01*
X449980Y214766D01*
X450443Y214223D01*
X450986Y213759D01*
X451595Y213386D01*
X452255Y213113D01*
X452949Y212946D01*
X453661Y212890D01*
X454373Y212946D01*
X455068Y213113D01*
X455728Y213386D01*
X456336Y213759D01*
X456690Y214061D01*
Y206886D01*
X454398D01*
X454280Y206895D01*
X453809Y206858D01*
X453809Y206858D01*
X453809Y206858D01*
X453616Y206812D01*
X453350Y206748D01*
X453350Y206748D01*
X453350Y206748D01*
X453169Y206673D01*
X452914Y206567D01*
X452914Y206567D01*
X452914Y206567D01*
X452761Y206473D01*
X452511Y206320D01*
X452511Y206320D01*
X452511Y206320D01*
X452152Y206014D01*
X452076Y205924D01*
X443654Y197503D01*
Y212890D01*
X443661Y212890D01*
X444373Y212946D01*
X445068Y213113D01*
X445728Y213386D01*
X446336Y213759D01*
X446879Y214223D01*
X447343Y214766D01*
X447716Y215375D01*
X447990Y216035D01*
X448156Y216729D01*
X448198Y217441D01*
X448156Y218153D01*
X447990Y218847D01*
X447716Y219507D01*
X447343Y220116D01*
X446879Y220659D01*
X446336Y221123D01*
X445728Y221496D01*
X445068Y221769D01*
X444373Y221936D01*
X443661Y221992D01*
X443654Y221991D01*
Y237514D01*
G37*
G36*
Y242680D02*X443607Y242660D01*
X443231Y242430D01*
X442896Y242143D01*
X442785Y242014D01*
X393654D01*
Y259130D01*
X443654D01*
Y242680D01*
G37*
G36*
X433654Y237514D02*X443654D01*
Y221991D01*
X442949Y221936D01*
X442255Y221769D01*
X441595Y221496D01*
X440986Y221123D01*
X440443Y220659D01*
X439980Y220116D01*
X439606Y219507D01*
X439333Y218847D01*
X439166Y218153D01*
X439110Y217441D01*
X439166Y216729D01*
X439333Y216035D01*
X439606Y215375D01*
X439980Y214766D01*
X440443Y214223D01*
X440986Y213759D01*
X441595Y213386D01*
X442255Y213113D01*
X442949Y212946D01*
X443654Y212890D01*
Y197503D01*
X442844Y196693D01*
X442754Y196616D01*
X442447Y196257D01*
X442447Y196257D01*
X442447Y196257D01*
X442447Y196257D01*
X442201Y195854D01*
X442041Y195470D01*
X442020Y195418D01*
X442020Y195418D01*
X442020Y195418D01*
X441922Y195008D01*
X441910Y194959D01*
Y194959D01*
X441910Y194959D01*
X441910Y194958D01*
X441873Y194488D01*
X441882Y194371D01*
Y154786D01*
X435765Y148669D01*
X433654D01*
Y212890D01*
X433661Y212890D01*
X434373Y212946D01*
X435068Y213113D01*
X435728Y213386D01*
X436336Y213759D01*
X436879Y214223D01*
X437343Y214766D01*
X437716Y215375D01*
X437990Y216035D01*
X438156Y216729D01*
X438198Y217441D01*
X438156Y218153D01*
X437990Y218847D01*
X437716Y219507D01*
X437343Y220116D01*
X436879Y220659D01*
X436336Y221123D01*
X435728Y221496D01*
X435068Y221769D01*
X434373Y221936D01*
X433661Y221992D01*
X433654Y221991D01*
Y237514D01*
G37*
G36*
X423654D02*X433654D01*
Y221991D01*
X432949Y221936D01*
X432255Y221769D01*
X431595Y221496D01*
X430986Y221123D01*
X430443Y220659D01*
X429980Y220116D01*
X429606Y219507D01*
X429333Y218847D01*
X429166Y218153D01*
X429110Y217441D01*
X429166Y216729D01*
X429333Y216035D01*
X429606Y215375D01*
X429980Y214766D01*
X430443Y214223D01*
X430986Y213759D01*
X431595Y213386D01*
X432255Y213113D01*
X432949Y212946D01*
X433654Y212890D01*
Y148669D01*
X424272D01*
X424427Y148801D01*
X424713Y149137D01*
X424943Y149512D01*
X425112Y149919D01*
X425215Y150348D01*
X425241Y150787D01*
X425215Y151227D01*
X425112Y151655D01*
X424943Y152062D01*
X424713Y152438D01*
X424427Y152773D01*
X424092Y153060D01*
X423941Y153152D01*
Y196792D01*
X423946Y196850D01*
X423927Y197086D01*
X423872Y197315D01*
X423782Y197533D01*
X423658Y197735D01*
X423654Y197739D01*
Y212890D01*
X423661Y212890D01*
X424373Y212946D01*
X425068Y213113D01*
X425728Y213386D01*
X426336Y213759D01*
X426879Y214223D01*
X427343Y214766D01*
X427716Y215375D01*
X427990Y216035D01*
X428156Y216729D01*
X428198Y217441D01*
X428156Y218153D01*
X427990Y218847D01*
X427716Y219507D01*
X427343Y220116D01*
X426879Y220659D01*
X426336Y221123D01*
X425728Y221496D01*
X425068Y221769D01*
X424373Y221936D01*
X423661Y221992D01*
X423654Y221991D01*
Y237514D01*
G37*
G36*
X413654D02*X423654D01*
Y221991D01*
X422949Y221936D01*
X422255Y221769D01*
X421595Y221496D01*
X420986Y221123D01*
X420443Y220659D01*
X419980Y220116D01*
X419606Y219507D01*
X419333Y218847D01*
X419166Y218153D01*
X419110Y217441D01*
X419166Y216729D01*
X419333Y216035D01*
X419606Y215375D01*
X419980Y214766D01*
X420443Y214223D01*
X420986Y213759D01*
X421595Y213386D01*
X422255Y213113D01*
X422949Y212946D01*
X423654Y212890D01*
Y197739D01*
X423505Y197914D01*
X423460Y197953D01*
X420787Y200625D01*
X420749Y200670D01*
X420569Y200824D01*
X420368Y200947D01*
X420150Y201037D01*
X419920Y201092D01*
X419685Y201111D01*
X419626Y201106D01*
X413654D01*
Y212890D01*
X413661Y212890D01*
X414373Y212946D01*
X415068Y213113D01*
X415728Y213386D01*
X416336Y213759D01*
X416879Y214223D01*
X417343Y214766D01*
X417716Y215375D01*
X417990Y216035D01*
X418156Y216729D01*
X418198Y217441D01*
X418156Y218153D01*
X417990Y218847D01*
X417716Y219507D01*
X417343Y220116D01*
X416879Y220659D01*
X416336Y221123D01*
X415728Y221496D01*
X415068Y221769D01*
X414373Y221936D01*
X413661Y221992D01*
X413654Y221991D01*
Y237514D01*
G37*
G36*
X403654D02*X413654D01*
Y221991D01*
X412949Y221936D01*
X412255Y221769D01*
X411595Y221496D01*
X410986Y221123D01*
X410443Y220659D01*
X409980Y220116D01*
X409606Y219507D01*
X409333Y218847D01*
X409166Y218153D01*
X409110Y217441D01*
X409166Y216729D01*
X409333Y216035D01*
X409606Y215375D01*
X409980Y214766D01*
X410443Y214223D01*
X410986Y213759D01*
X411595Y213386D01*
X412255Y213113D01*
X412949Y212946D01*
X413654Y212890D01*
Y201106D01*
X403654D01*
Y212890D01*
X403661Y212890D01*
X404373Y212946D01*
X405068Y213113D01*
X405728Y213386D01*
X406336Y213759D01*
X406879Y214223D01*
X407343Y214766D01*
X407716Y215375D01*
X407990Y216035D01*
X408156Y216729D01*
X408198Y217441D01*
X408156Y218153D01*
X407990Y218847D01*
X407716Y219507D01*
X407343Y220116D01*
X406879Y220659D01*
X406336Y221123D01*
X405728Y221496D01*
X405068Y221769D01*
X404373Y221936D01*
X403661Y221992D01*
X403654Y221991D01*
Y237514D01*
G37*
G36*
X393654D02*X403654D01*
Y221991D01*
X402949Y221936D01*
X402255Y221769D01*
X401595Y221496D01*
X400986Y221123D01*
X400443Y220659D01*
X399980Y220116D01*
X399606Y219507D01*
X399333Y218847D01*
X399166Y218153D01*
X399110Y217441D01*
X399166Y216729D01*
X399333Y216035D01*
X399606Y215375D01*
X399980Y214766D01*
X400443Y214223D01*
X400986Y213759D01*
X401595Y213386D01*
X402255Y213113D01*
X402949Y212946D01*
X403654Y212890D01*
Y201106D01*
X396853D01*
X396760Y201257D01*
X396474Y201592D01*
X396139Y201879D01*
X395763Y202109D01*
X395356Y202277D01*
X394928Y202380D01*
X394488Y202415D01*
X394049Y202380D01*
X393654Y202286D01*
Y212890D01*
X393661Y212890D01*
X394373Y212946D01*
X395068Y213113D01*
X395728Y213386D01*
X396336Y213759D01*
X396879Y214223D01*
X397343Y214766D01*
X397716Y215375D01*
X397990Y216035D01*
X398156Y216729D01*
X398198Y217441D01*
X398156Y218153D01*
X397990Y218847D01*
X397716Y219507D01*
X397343Y220116D01*
X396879Y220659D01*
X396336Y221123D01*
X395728Y221496D01*
X395068Y221769D01*
X394373Y221936D01*
X393661Y221992D01*
X393654Y221991D01*
Y237514D01*
G37*
G36*
Y384252D02*X456690D01*
Y330203D01*
X393654D01*
Y384252D01*
G37*
G36*
Y301106D02*X374806D01*
X374713Y301257D01*
X374427Y301592D01*
X374092Y301879D01*
X373716Y302109D01*
X373309Y302277D01*
X372880Y302380D01*
X372441Y302415D01*
X372002Y302380D01*
X371970Y302373D01*
X379983Y310386D01*
X393654D01*
Y301106D01*
G37*
G36*
Y242014D02*X385128D01*
X385039Y242021D01*
X384686Y241993D01*
X384342Y241910D01*
X384015Y241775D01*
X383713Y241590D01*
X383713Y241589D01*
X383443Y241360D01*
X383386Y241292D01*
X364055Y221961D01*
X363661Y221992D01*
X362949Y221936D01*
X362465Y221820D01*
X354218Y230066D01*
Y293163D01*
X386759Y325703D01*
X393654D01*
Y316386D01*
X378858D01*
X378740Y316395D01*
X378269Y316358D01*
X377810Y316248D01*
X377374Y316067D01*
X376971Y315820D01*
X376971Y315820D01*
X376612Y315514D01*
X376536Y315424D01*
X358198Y297086D01*
X358108Y297010D01*
X357802Y296651D01*
X357555Y296248D01*
X357374Y295812D01*
X357264Y295353D01*
X357264Y295352D01*
X357227Y294882D01*
X357236Y294764D01*
Y241850D01*
X357227Y241732D01*
X357264Y241262D01*
X357374Y240802D01*
X357555Y240366D01*
X357802Y239963D01*
X357802Y239963D01*
X358108Y239604D01*
X358198Y239528D01*
X363150Y234576D01*
X363226Y234486D01*
X363586Y234180D01*
X363586Y234180D01*
X363988Y233933D01*
X364424Y233752D01*
X364795Y233663D01*
X364884Y233642D01*
X364884D01*
X365354Y233605D01*
X365472Y233614D01*
X365748D01*
X366219Y233642D01*
X366678Y233752D01*
X367114Y233933D01*
X367517Y234180D01*
X367876Y234486D01*
X368183Y234845D01*
X368429Y235248D01*
X368610Y235684D01*
X368720Y236143D01*
X368757Y236614D01*
X368720Y237085D01*
X368610Y237544D01*
X368429Y237980D01*
X368183Y238383D01*
X367876Y238742D01*
X367517Y239049D01*
X367114Y239295D01*
X366775Y239436D01*
X363236Y242975D01*
Y293639D01*
X369675Y300078D01*
X369667Y300046D01*
X369632Y299606D01*
X369667Y299167D01*
X369770Y298738D01*
X369938Y298331D01*
X370169Y297955D01*
X370455Y297620D01*
X370790Y297334D01*
X371166Y297104D01*
X371573Y296935D01*
X372002Y296832D01*
X372441Y296798D01*
X372880Y296832D01*
X373309Y296935D01*
X373716Y297104D01*
X374092Y297334D01*
X374427Y297620D01*
X374713Y297955D01*
X374806Y298106D01*
X393654D01*
Y268136D01*
X393307Y268163D01*
X392868Y268128D01*
X392439Y268026D01*
X392032Y267857D01*
X391656Y267627D01*
X391321Y267340D01*
X391035Y267005D01*
X390805Y266629D01*
X390636Y266222D01*
X390533Y265794D01*
X390498Y265354D01*
X390533Y264915D01*
X390636Y264486D01*
X390805Y264079D01*
X391035Y263703D01*
X391321Y263368D01*
X391656Y263082D01*
X392032Y262852D01*
X392439Y262683D01*
X392868Y262580D01*
X393307Y262546D01*
X393654Y262573D01*
Y262130D01*
X390216D01*
X390157Y262135D01*
X389922Y262116D01*
X389693Y262061D01*
X389474Y261971D01*
X389273Y261847D01*
X389273Y261847D01*
X389094Y261694D01*
X389055Y261649D01*
X379694Y252287D01*
X375987D01*
X375894Y252438D01*
X375608Y252773D01*
X375273Y253060D01*
X374897Y253290D01*
X374490Y253459D01*
X374061Y253561D01*
X373622Y253596D01*
X373183Y253561D01*
X372754Y253459D01*
X372347Y253290D01*
X371971Y253060D01*
X371636Y252773D01*
X371350Y252438D01*
X371120Y252062D01*
X370951Y251655D01*
X370848Y251227D01*
X370813Y250787D01*
X370848Y250348D01*
X370951Y249919D01*
X371120Y249512D01*
X371350Y249137D01*
X371636Y248801D01*
X371971Y248515D01*
X372347Y248285D01*
X372754Y248116D01*
X373183Y248013D01*
X373622Y247979D01*
X374061Y248013D01*
X374490Y248116D01*
X374897Y248285D01*
X375273Y248515D01*
X375608Y248801D01*
X375894Y249137D01*
X375987Y249287D01*
X380256D01*
X380315Y249283D01*
X380550Y249301D01*
X380550Y249301D01*
X380780Y249356D01*
X380998Y249447D01*
X381199Y249570D01*
X381379Y249723D01*
X381417Y249768D01*
X390779Y259130D01*
X393654D01*
Y242014D01*
G37*
G36*
X383654Y134795D02*X393654D01*
Y131991D01*
X392949Y131936D01*
X392255Y131769D01*
X391595Y131496D01*
X390986Y131123D01*
X390443Y130659D01*
X389980Y130116D01*
X389606Y129507D01*
X389333Y128847D01*
X389166Y128153D01*
X389110Y127441D01*
X389166Y126729D01*
X389333Y126035D01*
X389606Y125375D01*
X389980Y124766D01*
X390443Y124223D01*
X390986Y123759D01*
X391595Y123386D01*
X392255Y123113D01*
X392949Y122946D01*
X393654Y122890D01*
Y117717D01*
X383654D01*
Y122890D01*
X383661Y122890D01*
X384373Y122946D01*
X385068Y123113D01*
X385728Y123386D01*
X386336Y123759D01*
X386879Y124223D01*
X387343Y124766D01*
X387716Y125375D01*
X387990Y126035D01*
X388156Y126729D01*
X388198Y127441D01*
X388156Y128153D01*
X387990Y128847D01*
X387716Y129507D01*
X387343Y130116D01*
X386879Y130659D01*
X386336Y131123D01*
X385728Y131496D01*
X385068Y131769D01*
X384373Y131936D01*
X383661Y131992D01*
X383654Y131991D01*
Y134795D01*
G37*
G36*
Y235197D02*X385971Y237514D01*
X393654D01*
Y221991D01*
X392949Y221936D01*
X392255Y221769D01*
X391595Y221496D01*
X390986Y221123D01*
X390443Y220659D01*
X389980Y220116D01*
X389606Y219507D01*
X389333Y218847D01*
X389166Y218153D01*
X389110Y217441D01*
X389166Y216729D01*
X389333Y216035D01*
X389606Y215375D01*
X389980Y214766D01*
X390443Y214223D01*
X390986Y213759D01*
X391595Y213386D01*
X392255Y213113D01*
X392949Y212946D01*
X393654Y212890D01*
Y202286D01*
X393620Y202277D01*
X393213Y202109D01*
X392837Y201879D01*
X392502Y201592D01*
X392216Y201257D01*
X391986Y200881D01*
X391817Y200474D01*
X391714Y200046D01*
X391680Y199606D01*
X391714Y199167D01*
X391817Y198738D01*
X391986Y198331D01*
X392216Y197955D01*
X392502Y197620D01*
X392837Y197334D01*
X393213Y197104D01*
X393620Y196935D01*
X393654Y196927D01*
Y140795D01*
X383654D01*
Y212890D01*
X383661Y212890D01*
X384373Y212946D01*
X385068Y213113D01*
X385728Y213386D01*
X386336Y213759D01*
X386879Y214223D01*
X387343Y214766D01*
X387716Y215375D01*
X387990Y216035D01*
X388156Y216729D01*
X388198Y217441D01*
X388156Y218153D01*
X387990Y218847D01*
X387716Y219507D01*
X387343Y220116D01*
X386879Y220659D01*
X386336Y221123D01*
X385728Y221496D01*
X385068Y221769D01*
X384373Y221936D01*
X383661Y221992D01*
X383654Y221991D01*
Y235197D01*
G37*
G36*
Y384252D02*X393654D01*
Y330203D01*
X385915D01*
X385827Y330210D01*
X385474Y330182D01*
X385129Y330099D01*
X384802Y329964D01*
X384500Y329779D01*
X384500Y329778D01*
X384231Y329549D01*
X384173Y329481D01*
X383654Y328962D01*
Y384252D01*
G37*
G36*
X373654Y122890D02*X373661Y122890D01*
X374373Y122946D01*
X375068Y123113D01*
X375728Y123386D01*
X376336Y123759D01*
X376879Y124223D01*
X377343Y124766D01*
X377716Y125375D01*
X377990Y126035D01*
X378156Y126729D01*
X378198Y127441D01*
X378156Y128153D01*
X377990Y128847D01*
X377716Y129507D01*
X377565Y129754D01*
X377484Y129949D01*
X377238Y130351D01*
X377016Y130611D01*
Y133403D01*
X378408Y134795D01*
X383654D01*
Y131991D01*
X382949Y131936D01*
X382255Y131769D01*
X381595Y131496D01*
X380986Y131123D01*
X380443Y130659D01*
X379980Y130116D01*
X379606Y129507D01*
X379333Y128847D01*
X379166Y128153D01*
X379110Y127441D01*
X379166Y126729D01*
X379333Y126035D01*
X379606Y125375D01*
X379980Y124766D01*
X380443Y124223D01*
X380986Y123759D01*
X381595Y123386D01*
X382255Y123113D01*
X382949Y122946D01*
X383654Y122890D01*
Y117717D01*
X373654D01*
Y122890D01*
G37*
G36*
Y225197D02*X383654Y235197D01*
Y221991D01*
X382949Y221936D01*
X382255Y221769D01*
X381595Y221496D01*
X380986Y221123D01*
X380443Y220659D01*
X379980Y220116D01*
X379606Y219507D01*
X379333Y218847D01*
X379166Y218153D01*
X379110Y217441D01*
X379166Y216729D01*
X379333Y216035D01*
X379606Y215375D01*
X379980Y214766D01*
X380443Y214223D01*
X380986Y213759D01*
X381595Y213386D01*
X382255Y213113D01*
X382949Y212946D01*
X383654Y212890D01*
Y140795D01*
X377283D01*
X377165Y140805D01*
X376695Y140767D01*
X376235Y140657D01*
X375799Y140477D01*
X375397Y140230D01*
X375396Y140230D01*
X375037Y139923D01*
X374961Y139834D01*
X373654Y138527D01*
Y212890D01*
X373661Y212890D01*
X374373Y212946D01*
X375068Y213113D01*
X375728Y213386D01*
X376336Y213759D01*
X376879Y214223D01*
X377343Y214766D01*
X377716Y215375D01*
X377990Y216035D01*
X378156Y216729D01*
X378198Y217441D01*
X378156Y218153D01*
X377990Y218847D01*
X377716Y219507D01*
X377343Y220116D01*
X376879Y220659D01*
X376336Y221123D01*
X375728Y221496D01*
X375068Y221769D01*
X374373Y221936D01*
X373661Y221992D01*
X373654Y221991D01*
Y225197D01*
G37*
G36*
X379528Y384252D02*X383654D01*
Y328962D01*
X373654Y318962D01*
Y383216D01*
X379528Y384252D01*
G37*
G36*
X364223Y212934D02*X364373Y212946D01*
X365068Y213113D01*
X365728Y213386D01*
X366336Y213759D01*
X366879Y214223D01*
X367343Y214766D01*
X367716Y215375D01*
X367990Y216035D01*
X368156Y216729D01*
X368198Y217441D01*
X368156Y218153D01*
X367990Y218847D01*
X367789Y219332D01*
X373654Y225197D01*
Y221991D01*
X372949Y221936D01*
X372255Y221769D01*
X371595Y221496D01*
X370986Y221123D01*
X370443Y220659D01*
X369980Y220116D01*
X369606Y219507D01*
X369333Y218847D01*
X369166Y218153D01*
X369110Y217441D01*
X369166Y216729D01*
X369333Y216035D01*
X369606Y215375D01*
X369980Y214766D01*
X370443Y214223D01*
X370986Y213759D01*
X371595Y213386D01*
X372255Y213113D01*
X372949Y212946D01*
X373654Y212890D01*
Y138527D01*
X371978Y136850D01*
X371888Y136774D01*
X371581Y136414D01*
X371334Y136012D01*
X371154Y135576D01*
X371044Y135116D01*
X371044Y135116D01*
X371006Y134646D01*
X371016Y134528D01*
Y131141D01*
X370986Y131123D01*
X370443Y130659D01*
X369980Y130116D01*
X369606Y129507D01*
X369333Y128847D01*
X369166Y128153D01*
X369110Y127441D01*
X369166Y126729D01*
X369333Y126035D01*
X369606Y125375D01*
X369980Y124766D01*
X370443Y124223D01*
X370986Y123759D01*
X371595Y123386D01*
X372255Y123113D01*
X372949Y122946D01*
X373654Y122890D01*
Y117717D01*
X364223D01*
Y212934D01*
G37*
G36*
X373654Y318962D02*X364223Y309531D01*
Y346735D01*
X366405Y346740D01*
X366558Y346777D01*
X366703Y346837D01*
X366838Y346919D01*
X366957Y347021D01*
X367060Y347141D01*
X367142Y347275D01*
X367202Y347421D01*
X367239Y347574D01*
X367248Y347731D01*
X367239Y353768D01*
X367202Y353921D01*
X367142Y354066D01*
X367060Y354200D01*
X366957Y354320D01*
X366838Y354422D01*
X366703Y354504D01*
X366558Y354565D01*
X366405Y354601D01*
X366248Y354611D01*
X364223Y354606D01*
Y380675D01*
X366142Y381890D01*
X373654Y383216D01*
Y318962D01*
G37*
G36*
X364223Y309531D02*X350440Y295748D01*
X350373Y295690D01*
X350143Y295421D01*
X349958Y295119D01*
X349822Y294792D01*
X349739Y294448D01*
X349739Y294447D01*
X349712Y294094D01*
X349719Y294006D01*
Y229222D01*
X349712Y229134D01*
X349739Y228781D01*
X349822Y228436D01*
X349958Y228109D01*
X350143Y227807D01*
X350143Y227807D01*
X350373Y227538D01*
X350440Y227481D01*
X359283Y218638D01*
X359166Y218153D01*
X359110Y217441D01*
X359166Y216729D01*
X359333Y216035D01*
X359606Y215375D01*
X359980Y214766D01*
X360443Y214223D01*
X360986Y213759D01*
X361595Y213386D01*
X362255Y213113D01*
X362949Y212946D01*
X363661Y212890D01*
X364223Y212934D01*
Y117717D01*
X353937D01*
X342520Y129134D01*
Y348425D01*
X342913Y352362D01*
X346850Y364961D01*
X354331Y374409D01*
X364223Y380675D01*
Y354606D01*
X362041Y354601D01*
X361888Y354565D01*
X361743Y354504D01*
X361608Y354422D01*
X361489Y354320D01*
X361387Y354200D01*
X361304Y354066D01*
X361244Y353921D01*
X361207Y353768D01*
X361198Y353611D01*
X361207Y347574D01*
X361244Y347421D01*
X361304Y347275D01*
X361387Y347141D01*
X361489Y347021D01*
X361608Y346919D01*
X361743Y346837D01*
X361888Y346777D01*
X362041Y346740D01*
X362198Y346731D01*
X364223Y346735D01*
Y309531D01*
G37*
G36*
X483149Y140476D02*X498653Y155980D01*
X499135D01*
X483631Y140476D01*
X483149D01*
G37*
G36*
X485354Y137957D02*X501015Y153618D01*
X514902D01*
X514961Y153613D01*
X515196Y153632D01*
X515196Y153632D01*
X515320Y153662D01*
X515127Y153469D01*
X502027D01*
X501969Y153473D01*
X501733Y153455D01*
X501504Y153399D01*
X501285Y153309D01*
X501084Y153186D01*
X501084Y153186D01*
X500905Y153032D01*
X500866Y152988D01*
X485599Y137720D01*
X485073D01*
X485136Y137759D01*
X485316Y137912D01*
X485354Y137957D01*
G37*
G36*
X507646Y142445D02*X506405D01*
X506545Y142531D01*
X507088Y142995D01*
X507552Y143538D01*
X507925Y144146D01*
X508198Y144806D01*
X508365Y145501D01*
X508407Y146213D01*
X508365Y146925D01*
X508198Y147619D01*
X507925Y148279D01*
X507552Y148888D01*
X507088Y149431D01*
X506545Y149894D01*
X505936Y150268D01*
X505451Y150469D01*
X515670D01*
X507646Y142445D01*
G37*
G36*
X501335D02*X494566D01*
X499479Y147358D01*
X499375Y146925D01*
X499319Y146213D01*
X499375Y145501D01*
X499542Y144806D01*
X499815Y144146D01*
X500188Y143538D01*
X500652Y142995D01*
X501195Y142531D01*
X501335Y142445D01*
G37*
G36*
X469473Y242445D02*X455330D01*
X455208Y242520D01*
X455330Y242594D01*
X469473D01*
X469595Y242520D01*
X469473Y242445D01*
G37*
G36*
X476712Y214080D02*X477918Y212874D01*
X477912Y212875D01*
X477802Y212902D01*
X477798Y212903D01*
X477794Y212903D01*
X477772Y212905D01*
X477566Y212922D01*
X477504Y212917D01*
X474009D01*
X474373Y212946D01*
X475068Y213113D01*
X475728Y213386D01*
X476336Y213759D01*
X476712Y214080D01*
G37*
G36*
X516854Y188533D02*Y188580D01*
X516974Y188654D01*
X516912Y188600D01*
X516854Y188533D01*
G37*
G36*
X520941Y160025D02*Y159283D01*
X520748Y159089D01*
X520777Y159213D01*
X520796Y159449D01*
X520791Y159508D01*
Y160300D01*
X520831Y160203D01*
X520941Y160025D01*
G37*
G36*
X517791Y163962D02*Y160070D01*
X517642Y159921D01*
Y164237D01*
X517682Y164140D01*
X517791Y163962D01*
G37*
G36*
X484009Y131965D02*X486930D01*
X486182Y131217D01*
X485728Y131496D01*
X485068Y131769D01*
X484373Y131936D01*
X484009Y131965D01*
G37*
G36*
X568579Y295667D02*Y171654D01*
X568579Y171654D01*
Y138417D01*
X567095Y136933D01*
X564207D01*
X564270Y136972D01*
X564450Y137125D01*
X564488Y137170D01*
X567554Y140236D01*
X567599Y140275D01*
X567753Y140454D01*
X567753Y140454D01*
X567876Y140655D01*
X567966Y140874D01*
X568022Y141103D01*
X568040Y141339D01*
X568035Y141397D01*
Y173622D01*
X568035Y173622D01*
Y296113D01*
X568093Y296045D01*
X568428Y295759D01*
X568579Y295667D01*
G37*
G54D52*X454331Y244094D02*X470472D01*
X456693Y235039D02*Y227559D01*
X454331Y240945D02*X470472D01*
Y237402D01*
X483858Y224016D02*Y217717D01*
X473622Y217441D02*X475472D01*
X483661Y209252D01*
X463661Y217441D02*X464055D01*
X470079Y211417D01*
X477559D01*
X481995Y206938D01*
X470866Y244094D02*X483858D01*
G54D53*X497244Y238976D02*Y234646D01*
G54D52*X470472Y237402D02*X483858Y224016D01*
X481995Y206938D02*X497743D01*
X493701Y127559D02*X501575Y135433D01*
X534252D01*
X483465Y127559D02*X484646D01*
X495276Y138189D01*
X531496D01*
X481890Y141339D02*X498031Y157480D01*
X484252Y138976D02*X500394Y155118D01*
X486220Y136220D02*X501969Y151969D01*
X487008Y133465D02*X494488Y140945D01*
X508268D01*
X483661Y209252D02*X504134D01*
X505906Y207480D01*
X501181Y203543D02*Y184252D01*
Y203543D02*X497786Y206938D01*
X518898Y187008D02*Y186614D01*
Y187008D02*X521654Y189764D01*
X524803Y183858D02*X527559Y186614D01*
X515354Y190945D02*Y183465D01*
X518504Y180315D01*
X529134D01*
X498031Y157480D02*X513780D01*
X500394Y155118D02*X514961D01*
X501969Y151969D02*X515748D01*
X513780Y157480D02*X515748Y159449D01*
X514961Y155118D02*X518898Y159055D01*
X516142Y166929D02*Y159843D01*
X515354Y159055D01*
X519291Y159449D02*X518701Y158858D01*
X508268Y140945D02*X523228Y155906D01*
X515748Y151969D02*X522441Y158661D01*
X518110Y168898D02*X516142Y166929D01*
X532283Y164961D02*X522638Y155315D01*
X522441Y161024D02*Y158661D01*
X519291Y164961D02*Y159449D01*
X570079Y298031D02*Y171260D01*
Y171654D02*Y137795D01*
X566535Y302756D02*Y173228D01*
Y173622D02*Y141339D01*
X561811Y307087D02*Y214567D01*
X558661Y211417D01*
X552894Y187008D02*X553287Y186614D01*
X552894Y177559D02*X553287Y177953D01*
X552894Y174016D02*X553287Y173622D01*
X493701Y234272D02*Y217323D01*
X493685Y234268D02*X483858Y244094D01*
X473661Y217441D02*X474685D01*
X503937Y217717D02*X503661Y217441D01*
Y219409D02*Y217441D01*
X509685Y211417D02*X558661D01*
X509685D02*X503661Y217441D01*
X553543Y217559D02*X553661Y217441D01*
X543701Y217480D02*X543661Y217441D01*
X553543Y224016D02*Y217559D01*
X543701Y224409D02*Y217480D01*
X519291Y230709D02*X537402D01*
X543701Y224409D01*
X520866Y235827D02*X541732D01*
X553543Y224016D01*
G54D53*X481496Y255118D02*X483071Y253543D01*
G54D52*X489370Y260630D02*X519291Y230709D01*
G54D53*X483071Y253150D02*X497244Y238976D01*
X492913Y248031D02*X496457D01*
X492913D02*X490551Y245669D01*
G54D52*X533858Y135433D02*X567717D01*
X531102Y138189D02*X563386D01*
X567717Y135433D02*X570079Y137795D01*
X566535Y141339D02*X563386Y138189D01*
X521654Y189764D02*X540157D01*
X542913Y187008D01*
X552894D01*
X541732Y183858D02*X548031Y177559D01*
X552894D01*
X527559Y186614D02*X538976D01*
X541929Y183661D01*
X528740Y180315D02*X538976D01*
X518110Y168898D02*X553543D01*
X532283Y164961D02*X553287D01*
X538976Y180315D02*X545276Y174016D01*
X552894D01*
G54D53*X479528Y295669D02*X481890Y293307D01*
X525591D01*
X525984Y293701D01*
Y309449D02*Y293701D01*
Y309449D02*X544882Y328346D01*
X559843D01*
X562992Y325197D02*X559843Y328346D01*
G54D54*X365354Y236614D02*X365748D01*
X365354D02*X360236Y241732D01*
G54D53*X351969Y294094D02*Y229134D01*
G54D54*X360236Y294882D02*Y241732D01*
Y294882D02*X378740Y313386D01*
G54D52*X373622Y250787D02*X380315D01*
X390157Y260630D01*
G54D53*X351969Y294094D02*X385827Y327953D01*
G54D54*X452756Y313386D02*X378740D01*
G54D53*X385827Y327953D02*X469685D01*
G54D52*X372441Y299606D02*X443701D01*
G54D53*X469685Y327953D02*X479528Y318110D01*
Y295669D01*
X385039Y239764D02*X444882D01*
X448031Y251575D02*X451575Y255118D01*
G54D55*X452756Y273228D02*Y267717D01*
G54D52*X390157Y260630D02*X477559D01*
X477165D02*X489370D01*
X491339Y265354D02*X520866Y235827D01*
X393307Y265354D02*X491339D01*
X443701Y299606D02*X474016Y269291D01*
X442520Y279134D02*X445669Y282283D01*
X455118D01*
X459055Y278346D01*
Y272441D01*
X462598Y268898D01*
G54D53*X448031Y251575D02*Y248819D01*
X451575Y255118D02*X481496D01*
G54D55*X444949Y182006D02*X445070Y181886D01*
G54D54*X454280Y203886D02*X475570D01*
X454280D02*X444882Y194488D01*
G54D53*X363661Y217441D02*X351969Y229134D01*
X363386Y218504D02*X363780D01*
X385039Y239764D01*
G54D54*X374803Y128583D02*X373661Y127441D01*
X377165Y137795D02*X374016Y134646D01*
Y127953D01*
X374094Y127874D01*
G54D52*X413661Y127441D02*Y126654D01*
Y127677D02*Y126260D01*
X433661Y130118D02*Y127441D01*
X432441Y136220D02*X423661Y127441D01*
X425197Y138976D02*X413661Y127441D01*
X417165Y141339D02*X403661Y127835D01*
X433661Y130118D02*X437008Y133465D01*
G54D54*X444882Y153543D02*X437008Y145669D01*
X409843D02*X437008D01*
X409843D02*X401969Y137795D01*
X377165D02*X401969D01*
G54D52*X444488Y240551D02*X444882Y240157D01*
G54D54*Y194488D02*Y153543D01*
G54D52*X422441Y196850D02*Y150787D01*
X417165Y141339D02*X481890D01*
X425197Y138976D02*X484252D01*
X432441Y136220D02*X486220D01*
X437008Y133465D02*X487008D01*
X422441Y196850D02*X419685Y199606D01*
X394488D02*X419685D01*
X394488D02*X394094Y199213D01*
X365748Y352501D02*X365138Y353111D01*
X363308D02*X365138D01*
X363308D02*X362698Y352501D01*
Y351281D02*Y352501D01*
X365748Y348231D02*X362698Y351281D01*
Y348231D02*X365748D01*
G54D56*X443661Y127441D03*
X453661D03*
X463661D03*
X473661D03*
X483661D03*
G54D57*X458015Y168406D03*
X455652Y166043D03*
X453290Y168406D03*
Y163681D03*
X458015D03*
X400000Y159528D03*
X397835Y162874D03*
Y156181D03*
X402165Y162874D03*
Y156181D03*
G54D56*X393661Y127441D03*
X403661D03*
X413661D03*
X423661D03*
G54D51*G36*
X359724Y131378D02*Y123504D01*
X367598D01*
Y131378D01*
X359724D01*
G37*
G54D56*X373661Y127441D03*
X383661D03*
X433661D03*
X493661D03*
X503661D03*
X513661D03*
X523661D03*
X533661D03*
X543661D03*
X553661D03*
Y217441D03*
X543661D03*
G54D51*G36*
X520012Y150150D02*Y142276D01*
X527886D01*
Y150150D01*
X520012D01*
G37*
G54D56*X503870Y146213D03*
G54D58*X493307Y276378D03*
Y274606D03*
Y278150D03*
G54D56*X533661Y217441D03*
X523661D03*
X513661D03*
X503661D03*
X493661D03*
X483661D03*
X473661D03*
X463661D03*
X453661D03*
X443661D03*
X433661D03*
X423661D03*
X413661D03*
X403661D03*
X393661D03*
X383661D03*
X373661D03*
X363661D03*
G54D59*X558366Y151280D02*X563169D01*
G54D60*X536358Y151476D02*X536949D01*
G54D61*X531102Y151772D02*Y151181D01*
G54D62*X552795Y160630D02*X553780D01*
X552795Y164961D02*X553780D01*
X552795Y169291D02*X553780D01*
X552795Y173622D02*X553780D01*
X552795Y177953D02*X553780D01*
X552795Y182283D02*X553780D01*
X552795Y186614D02*X553780D01*
G54D63*X542953Y195315D02*X544409D01*
G54D64*X559390Y194705D02*X562697D01*
G54D62*X552795Y190945D02*X553780D01*
G54D65*X511752Y183996D02*Y181358D01*
G54D63*X511457Y173858D02*Y172598D01*
G54D65*X511752Y165098D02*Y162461D01*
G54D66*X496457Y248031D03*
X497244Y234646D03*
X483071Y253150D03*
G54D67*X503150Y238189D03*
G54D66*X495669Y287008D03*
X511417Y287795D03*
X530315D03*
X505512Y300000D03*
G54D67*X499606D03*
X492126Y302362D03*
X495276Y300000D03*
X474016Y269291D03*
X470472Y240945D03*
Y244094D03*
X478740Y234646D03*
X471260Y249213D03*
X477165Y249606D03*
X462598Y268898D03*
G54D66*X468504Y286614D03*
X481102D03*
G54D67*X442520Y279134D03*
X442126Y254724D03*
G54D66*X442913Y287008D03*
G54D67*X452756Y273228D03*
Y267717D03*
G54D66*X448031Y248819D03*
G54D67*X456693Y235039D03*
G54D66*X444882Y240157D03*
G54D67*X454331Y240945D03*
Y244094D03*
X441732Y247244D03*
G54D66*X575984Y348425D03*
Y323622D03*
Y329528D03*
Y335827D03*
Y342126D03*
Y292520D03*
Y298819D03*
Y305118D03*
Y311417D03*
Y317717D03*
G54D68*X562992Y325197D03*
G54D66*X561811Y307087D03*
X566535Y302756D03*
X570079Y298031D03*
X568110Y314173D03*
X562992Y340551D03*
X548425Y287795D03*
X568898Y333858D03*
X575984Y235827D03*
Y242126D03*
Y248425D03*
Y254331D03*
Y260236D03*
Y266535D03*
Y272835D03*
Y279528D03*
Y285827D03*
X564961Y371260D03*
X559843Y375591D03*
X553543Y378740D03*
X546850Y380709D03*
X574409Y354724D03*
X572835Y360630D03*
X569685Y366142D03*
X549606Y340551D03*
X549213Y351181D03*
X562992Y351575D03*
X439764Y381102D03*
X446457D03*
X453543D03*
X451181Y361811D03*
X451575Y350787D03*
Y340945D03*
X460236Y381102D03*
X465748Y361811D03*
X478346D03*
X465748Y350787D03*
Y340945D03*
X478346D03*
X437008Y372835D03*
Y361811D03*
Y350787D03*
Y340945D03*
X451575Y372835D03*
X465748D03*
X478346D03*
X467717Y381102D03*
X475197D03*
X482677D03*
X490157D03*
X497244D03*
X504724D03*
X511417D03*
X518110D03*
X525197D03*
X532283D03*
X539764D03*
X507480Y374016D03*
X522047D03*
X535039D03*
G54D67*X494488Y341339D03*
G54D66*X507874Y340551D03*
X522047D03*
X535433D03*
X507874Y351181D03*
X522047D03*
Y361417D03*
X535039Y351181D03*
Y361417D03*
X507874D03*
G54D67*X498819Y318504D03*
X492126D03*
X502362D03*
X505906D03*
X509449D03*
X500000Y321654D03*
X500394Y327165D03*
X497244D03*
X500000Y306693D03*
X503937Y321654D03*
X503543Y327165D03*
X503937Y305906D03*
X507087Y321654D03*
X506693Y327165D03*
X508268Y305906D03*
X510236Y321654D03*
X509843Y327165D03*
X490551Y315354D03*
Y312205D03*
Y308661D03*
X492126Y305906D03*
X496063Y362992D03*
X494488Y360236D03*
Y357087D03*
Y353937D03*
Y350787D03*
Y347638D03*
Y344488D03*
Y338189D03*
Y335039D03*
Y331890D03*
Y328740D03*
X491732Y321260D03*
X489370Y323228D03*
X488189Y326378D03*
Y329528D03*
Y332677D03*
Y335827D03*
G54D66*X481102Y330709D03*
G54D67*X488189Y338976D03*
Y342126D03*
Y345276D03*
G54D66*X478346Y350787D03*
G54D67*X488189Y348425D03*
Y351575D03*
Y354724D03*
Y357874D03*
Y361024D03*
X487008Y363780D03*
G54D66*X452756Y313386D03*
X448031D03*
X442913D03*
X472047Y315748D03*
X360630Y120079D03*
X368110D03*
X354331Y121654D03*
X391339Y120079D03*
X383071D03*
X375591D03*
X345669Y176772D03*
Y183071D03*
Y189370D03*
Y195669D03*
Y201575D03*
X394488Y199606D03*
X383465Y205118D03*
X352362Y204331D03*
X345669Y131496D03*
Y138189D03*
Y144094D03*
X350000Y126378D03*
X345669Y150394D03*
Y157087D03*
Y163780D03*
Y170079D03*
X354331Y155906D03*
X362205D03*
X354331Y133858D03*
X365748Y137402D03*
X370472Y155906D03*
Y147244D03*
X377559Y155906D03*
Y150394D03*
Y144488D03*
X575984Y134252D03*
Y140945D03*
Y146850D03*
Y153150D03*
Y159843D03*
X549213Y205118D03*
X573228Y128346D03*
G54D67*X563386Y128740D03*
G54D66*X568110Y122835D03*
X561417Y120079D03*
X554724D03*
X548425D03*
X542126D03*
X575984Y166535D03*
Y172835D03*
Y179528D03*
Y185827D03*
Y192126D03*
Y198425D03*
Y204331D03*
Y210630D03*
Y217323D03*
Y224016D03*
Y229921D03*
X500394Y120079D03*
X507087D03*
X534252D03*
X527953D03*
X520866D03*
X513386D03*
X494094D03*
X487795D03*
X481890D03*
X477165Y166929D03*
X484646Y166142D03*
X491339Y202362D03*
X475984Y120079D03*
X470079D03*
X463780D03*
X457087D03*
X443307D03*
X445070Y181886D03*
X443307Y204331D03*
X436614Y120079D03*
X436220Y175984D03*
X437795Y168504D03*
X436220Y185039D03*
X429921Y120079D03*
X423228D03*
X417323D03*
X411417D03*
X405512D03*
X398031D03*
X422441Y150787D03*
X398031Y204724D03*
X412598D03*
X425984Y203150D03*
X428346Y189370D03*
X427953Y196457D03*
X450000Y120079D03*
G54D67*X456693Y227559D03*
G54D66*X515354Y190945D03*
X524803Y183858D03*
X518898Y186614D03*
X505906Y207480D03*
X501181Y184252D03*
X475570Y203886D03*
G54D67*X488583Y225591D03*
X472441Y229134D03*
X519291Y164961D03*
X522441Y161024D03*
G54D66*X372441Y299606D03*
X373622Y250787D03*
X393307Y265354D03*
X365748Y236614D03*
X370079Y209055D03*
X384252Y226378D03*
X394882D03*
X405906D03*
X345669Y207874D03*
Y214567D03*
Y221260D03*
Y227165D03*
Y233071D03*
Y239370D03*
Y245669D03*
Y251575D03*
Y257480D03*
Y263780D03*
Y270079D03*
Y276772D03*
Y283071D03*
Y289764D03*
Y296063D03*
Y302362D03*
Y308661D03*
Y314961D03*
X353543Y306299D03*
X388976Y381102D03*
X375591D03*
X382677D03*
X395276D03*
X363386Y377165D03*
X368898Y379528D03*
X390551Y372047D03*
X374803D03*
X404724D03*
X345669Y320866D03*
Y326772D03*
X353543Y316142D03*
X345669Y333071D03*
Y339370D03*
X361024Y324409D03*
X354331Y332677D03*
X353543Y368898D03*
X350000Y363780D03*
X357874Y373622D03*
X356299Y350000D03*
X345669Y345669D03*
X346063Y351969D03*
X347244Y358268D03*
X380709Y361811D03*
X370079Y334646D03*
X361811Y340551D03*
X371654Y351181D03*
X387402Y351575D03*
G54D67*X398031D03*
X401575Y352756D03*
G54D66*X378346Y343701D03*
G54D67*X391339Y342520D03*
Y338583D03*
X392126Y335039D03*
G54D66*X384646Y336614D03*
X402756Y381102D03*
X410630D03*
X418110D03*
X424803D03*
X432283D03*
G54D67*X416929Y362598D03*
X415748Y364961D03*
X425984D03*
X424803Y362205D03*
X424016Y359055D03*
Y355512D03*
X413386Y361811D03*
X409843D03*
X406299Y362598D03*
X411811Y355906D03*
X415354Y355512D03*
X416929Y350000D03*
X424803Y351969D03*
X424016Y348425D03*
G54D66*X407480Y347638D03*
G54D67*X405512Y352756D03*
X409055Y353543D03*
X424016Y342126D03*
X426772Y345276D03*
X424409Y339370D03*
Y336614D03*
X423622Y333858D03*
X417717D03*
G54D66*X407480Y338583D03*
G54D67*X417323Y353150D03*
Y346850D03*
Y343701D03*
X416929Y340157D03*
Y337008D03*
X398031Y334252D03*
X398425Y337402D03*
X398819Y340945D03*
Y344488D03*
X402756Y362598D03*
X399606D03*
X396063Y361811D03*
X393701Y359449D03*
X392126Y356299D03*
Y353150D03*
Y349606D03*
Y346063D03*
X398425Y347638D03*
G54D69*G54D70*G54D69*G54D70*G54D69*G54D70*G54D69*G54D70*G54D69*G54D70*G54D69*G54D70*G54D69*G54D71*G54D69*G54D72*G54D69*G54D70*G54D69*G54D70*G54D69*G54D70*G54D69*G54D70*G54D69*G54D72*G54D69*G54D70*G54D69*G54D72*G54D69*G54D70*G54D69*G54D70*G54D69*G54D72*G54D69*G54D70*G54D69*G54D70*G54D69*G54D70*G54D69*G54D70*G54D69*G54D70*G54D73*G54D74*G54D73*G54D75*G54D74*G54D73*M02*
