G04 start of page 10 for group -4078 idx -4078 *
G04 Title: (unknown), bottomsilk *
G04 Creator: pcb 20140316 *
G04 CreationDate: Fri Aug 26 09:03:46 2016 UTC *
G04 For: clemi *
G04 Format: Gerber/RS-274X *
G04 PCB-Dimensions (mil): 6000.00 5000.00 *
G04 PCB-Coordinate-Origin: lower left *
%MOIN*%
%FSLAX25Y25*%
%LNBOTTOMSILK*%
%ADD138C,0.0100*%
%ADD137C,0.0059*%
G54D137*X508760Y148425D02*X566043D01*
X508760Y198031D02*X566043D01*
X508760D02*Y148425D01*
X566043Y198031D02*Y148425D01*
G54D138*X545049Y168708D02*X544554Y169203D01*
X545049Y167223D02*Y168708D01*
X544554Y166728D02*X545049Y167223D01*
X543564Y166728D02*X544554D01*
X543564D02*X543069Y167223D01*
Y168708D01*
X542574Y169203D01*
X541584D02*X542574D01*
X541089Y168708D02*X541584Y169203D01*
X541089Y167223D02*Y168708D01*
X541584Y166728D02*X541089Y167223D01*
X541584Y170391D02*X544554D01*
X545049Y170886D01*
Y171876D01*
X544554Y172371D01*
X541584D02*X544554D01*
X541089Y171876D02*X541584Y172371D01*
X541089Y170886D02*Y171876D01*
X541584Y170391D02*X541089Y170886D01*
Y174252D02*Y175539D01*
X541782Y173559D02*X541089Y174252D01*
X541782Y173559D02*X544356D01*
X545049Y174252D01*
Y175539D01*
X541089Y176727D02*X545049D01*
X543069D02*X545049Y178707D01*
X543069Y176727D02*X541089Y178707D01*
X544257Y179895D02*X545049Y180687D01*
X541089D02*X545049D01*
X541089Y179895D02*Y181380D01*
M02*
