G04 start of page 2 for group 0 idx 0 *
G04 Title: (unknown), top *
G04 Creator: pcb 20140316 *
G04 CreationDate: mer. 15 juil. 2015 12:59:16 GMT UTC *
G04 For: clement *
G04 Format: Gerber/RS-274X *
G04 PCB-Dimensions (mil): 3023.62 1342.52 *
G04 PCB-Coordinate-Origin: lower left *
%MOIN*%
%FSLAX25Y25*%
%LNTOP*%
%ADD37C,0.0217*%
%ADD36C,0.0354*%
%ADD35C,0.0350*%
%ADD34C,0.0200*%
%ADD33C,0.0600*%
%ADD32C,0.0360*%
%ADD31R,0.3543X0.3543*%
%ADD30R,0.0591X0.0591*%
%ADD29R,0.0772X0.0772*%
%ADD28R,0.0598X0.0598*%
%ADD27R,0.0512X0.0512*%
%ADD26R,0.0197X0.0197*%
%ADD25R,0.0902X0.0902*%
%ADD24R,0.0787X0.0787*%
%ADD23R,0.0951X0.0951*%
%ADD22R,0.0157X0.0157*%
%ADD21R,0.0315X0.0315*%
%ADD20R,0.0236X0.0236*%
%ADD19R,0.0197X0.0197*%
%ADD18R,0.0138X0.0138*%
%ADD17C,0.0433*%
%ADD16C,0.0787*%
%ADD15C,0.0060*%
%ADD14C,0.0400*%
%ADD13C,0.0250*%
%ADD12C,0.0100*%
%ADD11C,0.0001*%
G54D11*G36*
X165352Y49091D02*X169654D01*
X172713Y46032D01*
Y37327D01*
X165352D01*
Y49091D01*
G37*
G36*
X234547Y129331D02*X248031D01*
Y85440D01*
X243747D01*
X243701Y85443D01*
X235849Y85440D01*
X235827D01*
X235827Y85440D01*
X234547Y85439D01*
Y107202D01*
X234793Y107412D01*
X235257Y107955D01*
X235630Y108564D01*
X235903Y109224D01*
X236070Y109918D01*
X236112Y110630D01*
X236070Y111342D01*
X235903Y112036D01*
X235630Y112696D01*
X235257Y113305D01*
X234793Y113848D01*
X234575Y114034D01*
Y117226D01*
X234793Y117412D01*
X235257Y117955D01*
X235630Y118564D01*
X235903Y119224D01*
X236070Y119918D01*
X236112Y120630D01*
X236070Y121342D01*
X235903Y122036D01*
X235630Y122696D01*
X235257Y123305D01*
X234793Y123848D01*
X234547Y124058D01*
Y129331D01*
G37*
G36*
Y78339D02*X235827Y78340D01*
X235827Y78340D01*
X248031D01*
Y2362D01*
X234547D01*
Y7202D01*
X234793Y7412D01*
X235257Y7955D01*
X235630Y8564D01*
X235903Y9224D01*
X236070Y9918D01*
X236112Y10630D01*
X236070Y11342D01*
X235903Y12036D01*
X235630Y12696D01*
X235257Y13305D01*
X234793Y13848D01*
X234575Y14034D01*
Y17226D01*
X234793Y17412D01*
X235257Y17955D01*
X235630Y18564D01*
X235903Y19224D01*
X236070Y19918D01*
X236112Y20630D01*
X236070Y21342D01*
X235903Y22036D01*
X235630Y22696D01*
X235257Y23305D01*
X234793Y23848D01*
X234547Y24058D01*
Y25272D01*
X239733D01*
X240075Y24930D01*
Y24919D01*
X239509Y24685D01*
X238900Y24312D01*
X238357Y23848D01*
X237893Y23305D01*
X237520Y22696D01*
X237247Y22036D01*
X237080Y21342D01*
X237024Y20630D01*
X237080Y19918D01*
X237247Y19224D01*
X237520Y18564D01*
X237893Y17955D01*
X238357Y17412D01*
X238575Y17226D01*
Y14034D01*
X238357Y13848D01*
X237893Y13305D01*
X237520Y12696D01*
X237247Y12036D01*
X237080Y11342D01*
X237024Y10630D01*
X237080Y9918D01*
X237247Y9224D01*
X237520Y8564D01*
X237893Y7955D01*
X238357Y7412D01*
X238900Y6948D01*
X239509Y6575D01*
X240168Y6302D01*
X240863Y6135D01*
X241575Y6079D01*
X242287Y6135D01*
X242981Y6302D01*
X243641Y6575D01*
X244250Y6948D01*
X244793Y7412D01*
X245257Y7955D01*
X245630Y8564D01*
X245903Y9224D01*
X246070Y9918D01*
X246112Y10630D01*
X246070Y11342D01*
X245903Y12036D01*
X245630Y12696D01*
X245257Y13305D01*
X244793Y13848D01*
X244575Y14034D01*
Y17226D01*
X244793Y17412D01*
X245257Y17955D01*
X245630Y18564D01*
X245903Y19224D01*
X246070Y19918D01*
X246112Y20630D01*
X246070Y21342D01*
X245903Y22036D01*
X245630Y22696D01*
X245257Y23305D01*
X244793Y23848D01*
X244250Y24312D01*
X243641Y24685D01*
X243075Y24919D01*
Y25492D01*
X243079Y25551D01*
X243061Y25787D01*
X243006Y26016D01*
X242915Y26234D01*
X242792Y26436D01*
X242639Y26615D01*
X242594Y26653D01*
X241457Y27791D01*
X241418Y27836D01*
X241239Y27989D01*
X241037Y28112D01*
X240819Y28203D01*
X240590Y28258D01*
X240590Y28258D01*
X240354Y28276D01*
X240296Y28272D01*
X234547D01*
Y67428D01*
X235459Y68340D01*
X243795Y68343D01*
X243887Y68365D01*
X243974Y68401D01*
X244055Y68450D01*
X244126Y68511D01*
X244188Y68583D01*
X244237Y68664D01*
X244273Y68751D01*
X244295Y68843D01*
X244301Y68937D01*
X244295Y74937D01*
X244273Y75028D01*
X244237Y75116D01*
X244188Y75196D01*
X244126Y75268D01*
X244055Y75329D01*
X243974Y75379D01*
X243887Y75415D01*
X243795Y75437D01*
X243701Y75443D01*
X234547Y75439D01*
Y78339D01*
G37*
G36*
Y85439D02*X227859Y85437D01*
X227767Y85415D01*
X227680Y85379D01*
X227599Y85329D01*
X227527Y85268D01*
X227466Y85196D01*
X227417Y85116D01*
X227380Y85028D01*
X227358Y84937D01*
X227353Y84843D01*
X227353Y84141D01*
X225991D01*
X225991Y84607D01*
X225954Y84760D01*
X225894Y84905D01*
X225811Y85039D01*
X225709Y85159D01*
X225589Y85261D01*
X225455Y85343D01*
X225310Y85404D01*
X225157Y85440D01*
X225000Y85450D01*
X220888Y85445D01*
X214848Y91484D01*
Y97887D01*
X215893Y98931D01*
X222432D01*
X222520Y98924D01*
X222873Y98952D01*
X222873Y98952D01*
X223217Y99035D01*
X223544Y99170D01*
X223846Y99355D01*
X224116Y99585D01*
X224173Y99652D01*
X230696Y106175D01*
X230863Y106135D01*
X231575Y106079D01*
X232287Y106135D01*
X232981Y106302D01*
X233641Y106575D01*
X234250Y106948D01*
X234547Y107202D01*
Y85439D01*
G37*
G36*
Y2362D02*X221568D01*
Y6079D01*
X221575Y6079D01*
X222287Y6135D01*
X222981Y6302D01*
X223641Y6575D01*
X224250Y6948D01*
X224793Y7412D01*
X225257Y7955D01*
X225630Y8564D01*
X225903Y9224D01*
X226070Y9918D01*
X226112Y10630D01*
X226070Y11342D01*
X225903Y12036D01*
X225630Y12696D01*
X225257Y13305D01*
X224793Y13848D01*
X224575Y14034D01*
Y17226D01*
X224793Y17412D01*
X225257Y17955D01*
X225630Y18564D01*
X225903Y19224D01*
X226070Y19918D01*
X226112Y20630D01*
X226070Y21342D01*
X225903Y22036D01*
X225630Y22696D01*
X225257Y23305D01*
X224793Y23848D01*
X224250Y24312D01*
X223641Y24685D01*
X222981Y24958D01*
X222287Y25125D01*
X221575Y25181D01*
X221568Y25180D01*
Y25272D01*
X234547D01*
Y24058D01*
X234250Y24312D01*
X233641Y24685D01*
X232981Y24958D01*
X232287Y25125D01*
X231575Y25181D01*
X230863Y25125D01*
X230168Y24958D01*
X229509Y24685D01*
X228900Y24312D01*
X228357Y23848D01*
X227893Y23305D01*
X227520Y22696D01*
X227247Y22036D01*
X227080Y21342D01*
X227024Y20630D01*
X227080Y19918D01*
X227247Y19224D01*
X227520Y18564D01*
X227893Y17955D01*
X228357Y17412D01*
X228575Y17226D01*
Y14034D01*
X228357Y13848D01*
X227893Y13305D01*
X227520Y12696D01*
X227247Y12036D01*
X227080Y11342D01*
X227024Y10630D01*
X227080Y9918D01*
X227247Y9224D01*
X227520Y8564D01*
X227893Y7955D01*
X228357Y7412D01*
X228900Y6948D01*
X229509Y6575D01*
X230168Y6302D01*
X230863Y6135D01*
X231575Y6079D01*
X232287Y6135D01*
X232981Y6302D01*
X233641Y6575D01*
X234250Y6948D01*
X234547Y7202D01*
Y2362D01*
G37*
G36*
X221568D02*X211568D01*
Y6079D01*
X211575Y6079D01*
X212287Y6135D01*
X212981Y6302D01*
X213641Y6575D01*
X214250Y6948D01*
X214793Y7412D01*
X215257Y7955D01*
X215630Y8564D01*
X215903Y9224D01*
X216070Y9918D01*
X216112Y10630D01*
X216070Y11342D01*
X215903Y12036D01*
X215630Y12696D01*
X215257Y13305D01*
X214793Y13848D01*
X214575Y14034D01*
Y17226D01*
X214793Y17412D01*
X215257Y17955D01*
X215630Y18564D01*
X215903Y19224D01*
X216070Y19918D01*
X216112Y20630D01*
X216070Y21342D01*
X215903Y22036D01*
X215630Y22696D01*
X215257Y23305D01*
X214793Y23848D01*
X214250Y24312D01*
X213641Y24685D01*
X212981Y24958D01*
X212287Y25125D01*
X211575Y25181D01*
X211568Y25180D01*
Y25272D01*
X221568D01*
Y25180D01*
X220863Y25125D01*
X220168Y24958D01*
X219509Y24685D01*
X218900Y24312D01*
X218357Y23848D01*
X217893Y23305D01*
X217520Y22696D01*
X217247Y22036D01*
X217080Y21342D01*
X217024Y20630D01*
X217080Y19918D01*
X217247Y19224D01*
X217520Y18564D01*
X217893Y17955D01*
X218357Y17412D01*
X218575Y17226D01*
Y14034D01*
X218357Y13848D01*
X217893Y13305D01*
X217520Y12696D01*
X217247Y12036D01*
X217080Y11342D01*
X217024Y10630D01*
X217080Y9918D01*
X217247Y9224D01*
X217520Y8564D01*
X217893Y7955D01*
X218357Y7412D01*
X218900Y6948D01*
X219509Y6575D01*
X220168Y6302D01*
X220863Y6135D01*
X221568Y6079D01*
Y2362D01*
G37*
G36*
X211568D02*X201568D01*
Y6079D01*
X201575Y6079D01*
X202287Y6135D01*
X202981Y6302D01*
X203641Y6575D01*
X204250Y6948D01*
X204793Y7412D01*
X205257Y7955D01*
X205630Y8564D01*
X205903Y9224D01*
X206070Y9918D01*
X206112Y10630D01*
X206070Y11342D01*
X205903Y12036D01*
X205630Y12696D01*
X205257Y13305D01*
X204793Y13848D01*
X204575Y14034D01*
Y17226D01*
X204793Y17412D01*
X205257Y17955D01*
X205630Y18564D01*
X205903Y19224D01*
X206070Y19918D01*
X206112Y20630D01*
X206070Y21342D01*
X205903Y22036D01*
X205630Y22696D01*
X205257Y23305D01*
X204793Y23848D01*
X204250Y24312D01*
X203641Y24685D01*
X202981Y24958D01*
X202287Y25125D01*
X201575Y25181D01*
X201568Y25180D01*
Y25272D01*
X211568D01*
Y25180D01*
X210863Y25125D01*
X210168Y24958D01*
X209509Y24685D01*
X208900Y24312D01*
X208357Y23848D01*
X207893Y23305D01*
X207520Y22696D01*
X207247Y22036D01*
X207080Y21342D01*
X207024Y20630D01*
X207080Y19918D01*
X207247Y19224D01*
X207520Y18564D01*
X207893Y17955D01*
X208357Y17412D01*
X208575Y17226D01*
Y14034D01*
X208357Y13848D01*
X207893Y13305D01*
X207520Y12696D01*
X207247Y12036D01*
X207080Y11342D01*
X207024Y10630D01*
X207080Y9918D01*
X207247Y9224D01*
X207520Y8564D01*
X207893Y7955D01*
X208357Y7412D01*
X208900Y6948D01*
X209509Y6575D01*
X210168Y6302D01*
X210863Y6135D01*
X211568Y6079D01*
Y2362D01*
G37*
G36*
X201568D02*X191568D01*
Y6079D01*
X191575Y6079D01*
X192287Y6135D01*
X192981Y6302D01*
X193641Y6575D01*
X194250Y6948D01*
X194793Y7412D01*
X195257Y7955D01*
X195630Y8564D01*
X195903Y9224D01*
X196070Y9918D01*
X196112Y10630D01*
X196070Y11342D01*
X195903Y12036D01*
X195630Y12696D01*
X195257Y13305D01*
X194793Y13848D01*
X194575Y14034D01*
Y17226D01*
X194793Y17412D01*
X195257Y17955D01*
X195630Y18564D01*
X195903Y19224D01*
X196070Y19918D01*
X196112Y20630D01*
X196070Y21342D01*
X195903Y22036D01*
X195630Y22696D01*
X195257Y23305D01*
X194793Y23848D01*
X194250Y24312D01*
X193641Y24685D01*
X192981Y24958D01*
X192287Y25125D01*
X191575Y25181D01*
X191568Y25180D01*
Y25272D01*
X201568D01*
Y25180D01*
X200863Y25125D01*
X200168Y24958D01*
X199509Y24685D01*
X198900Y24312D01*
X198357Y23848D01*
X197893Y23305D01*
X197520Y22696D01*
X197247Y22036D01*
X197080Y21342D01*
X197024Y20630D01*
X197080Y19918D01*
X197247Y19224D01*
X197520Y18564D01*
X197893Y17955D01*
X198357Y17412D01*
X198575Y17226D01*
Y14034D01*
X198357Y13848D01*
X197893Y13305D01*
X197520Y12696D01*
X197247Y12036D01*
X197080Y11342D01*
X197024Y10630D01*
X197080Y9918D01*
X197247Y9224D01*
X197520Y8564D01*
X197893Y7955D01*
X198357Y7412D01*
X198900Y6948D01*
X199509Y6575D01*
X200168Y6302D01*
X200863Y6135D01*
X201568Y6079D01*
Y2362D01*
G37*
G36*
X191568D02*X181568D01*
Y6079D01*
X181575Y6079D01*
X182287Y6135D01*
X182981Y6302D01*
X183641Y6575D01*
X184250Y6948D01*
X184793Y7412D01*
X185257Y7955D01*
X185630Y8564D01*
X185903Y9224D01*
X186070Y9918D01*
X186112Y10630D01*
X186070Y11342D01*
X185903Y12036D01*
X185630Y12696D01*
X185257Y13305D01*
X184793Y13848D01*
X184575Y14034D01*
Y17226D01*
X184793Y17412D01*
X185257Y17955D01*
X185630Y18564D01*
X185903Y19224D01*
X186070Y19918D01*
X186112Y20630D01*
X186070Y21342D01*
X185903Y22036D01*
X185630Y22696D01*
X185257Y23305D01*
X184793Y23848D01*
X184250Y24312D01*
X183641Y24685D01*
X182981Y24958D01*
X182287Y25125D01*
X181575Y25181D01*
X181568Y25180D01*
Y25272D01*
X191568D01*
Y25180D01*
X190863Y25125D01*
X190168Y24958D01*
X189509Y24685D01*
X188900Y24312D01*
X188357Y23848D01*
X187893Y23305D01*
X187520Y22696D01*
X187247Y22036D01*
X187080Y21342D01*
X187024Y20630D01*
X187080Y19918D01*
X187247Y19224D01*
X187520Y18564D01*
X187893Y17955D01*
X188357Y17412D01*
X188575Y17226D01*
Y14034D01*
X188357Y13848D01*
X187893Y13305D01*
X187520Y12696D01*
X187247Y12036D01*
X187080Y11342D01*
X187024Y10630D01*
X187080Y9918D01*
X187247Y9224D01*
X187520Y8564D01*
X187893Y7955D01*
X188357Y7412D01*
X188900Y6948D01*
X189509Y6575D01*
X190168Y6302D01*
X190863Y6135D01*
X191568Y6079D01*
Y2362D01*
G37*
G36*
X181568D02*X171568D01*
Y6079D01*
X171575Y6079D01*
X172287Y6135D01*
X172981Y6302D01*
X173641Y6575D01*
X174250Y6948D01*
X174793Y7412D01*
X175257Y7955D01*
X175630Y8564D01*
X175903Y9224D01*
X176070Y9918D01*
X176112Y10630D01*
X176070Y11342D01*
X175903Y12036D01*
X175630Y12696D01*
X175257Y13305D01*
X174793Y13848D01*
X174575Y14034D01*
Y17226D01*
X174793Y17412D01*
X175257Y17955D01*
X175630Y18564D01*
X175903Y19224D01*
X176070Y19918D01*
X176112Y20630D01*
X176070Y21342D01*
X175903Y22036D01*
X175630Y22696D01*
X175257Y23305D01*
X174793Y23848D01*
X174250Y24312D01*
X173641Y24685D01*
X172981Y24958D01*
X172287Y25125D01*
X171575Y25181D01*
X171568Y25180D01*
Y34327D01*
X172713D01*
Y30964D01*
X172708Y30906D01*
X172726Y30670D01*
X172782Y30441D01*
X172872Y30222D01*
X172995Y30021D01*
X173149Y29842D01*
X173194Y29803D01*
X177244Y25753D01*
X177283Y25708D01*
X177462Y25554D01*
X177663Y25431D01*
X177882Y25341D01*
X178111Y25286D01*
X178346Y25267D01*
X178405Y25272D01*
X181568D01*
Y25180D01*
X180863Y25125D01*
X180168Y24958D01*
X179509Y24685D01*
X178900Y24312D01*
X178357Y23848D01*
X177893Y23305D01*
X177520Y22696D01*
X177247Y22036D01*
X177080Y21342D01*
X177024Y20630D01*
X177080Y19918D01*
X177247Y19224D01*
X177520Y18564D01*
X177893Y17955D01*
X178357Y17412D01*
X178575Y17226D01*
Y14034D01*
X178357Y13848D01*
X177893Y13305D01*
X177520Y12696D01*
X177247Y12036D01*
X177080Y11342D01*
X177024Y10630D01*
X177080Y9918D01*
X177247Y9224D01*
X177520Y8564D01*
X177893Y7955D01*
X178357Y7412D01*
X178900Y6948D01*
X179509Y6575D01*
X180168Y6302D01*
X180863Y6135D01*
X181568Y6079D01*
Y2362D01*
G37*
G36*
X171568D02*X165352D01*
Y8111D01*
X165630Y8564D01*
X165903Y9224D01*
X166070Y9918D01*
X166112Y10630D01*
X166070Y11342D01*
X165903Y12036D01*
X165630Y12696D01*
X165352Y13149D01*
Y18111D01*
X165630Y18564D01*
X165903Y19224D01*
X166070Y19918D01*
X166112Y20630D01*
X166070Y21342D01*
X165903Y22036D01*
X165630Y22696D01*
X165352Y23149D01*
Y34327D01*
X171568D01*
Y25180D01*
X170863Y25125D01*
X170168Y24958D01*
X169509Y24685D01*
X168900Y24312D01*
X168357Y23848D01*
X167893Y23305D01*
X167520Y22696D01*
X167247Y22036D01*
X167080Y21342D01*
X167024Y20630D01*
X167080Y19918D01*
X167247Y19224D01*
X167520Y18564D01*
X167893Y17955D01*
X168357Y17412D01*
X168575Y17226D01*
Y14034D01*
X168357Y13848D01*
X167893Y13305D01*
X167520Y12696D01*
X167247Y12036D01*
X167080Y11342D01*
X167024Y10630D01*
X167080Y9918D01*
X167247Y9224D01*
X167520Y8564D01*
X167893Y7955D01*
X168357Y7412D01*
X168900Y6948D01*
X169509Y6575D01*
X170168Y6302D01*
X170863Y6135D01*
X171568Y6079D01*
Y2362D01*
G37*
G36*
X221568Y129331D02*X234547D01*
Y124058D01*
X234250Y124312D01*
X233641Y124685D01*
X232981Y124958D01*
X232287Y125125D01*
X231575Y125181D01*
X230863Y125125D01*
X230168Y124958D01*
X229509Y124685D01*
X228900Y124312D01*
X228357Y123848D01*
X227893Y123305D01*
X227520Y122696D01*
X227247Y122036D01*
X227080Y121342D01*
X227024Y120630D01*
X227080Y119918D01*
X227247Y119224D01*
X227520Y118564D01*
X227893Y117955D01*
X228357Y117412D01*
X228575Y117226D01*
Y114034D01*
X228357Y113848D01*
X227893Y113305D01*
X227520Y112696D01*
X227247Y112036D01*
X227080Y111342D01*
X227024Y110630D01*
X227080Y109918D01*
X227247Y109224D01*
X227286Y109129D01*
X221588Y103431D01*
X221568D01*
Y106079D01*
X221575Y106079D01*
X222287Y106135D01*
X222981Y106302D01*
X223641Y106575D01*
X224250Y106948D01*
X224793Y107412D01*
X225257Y107955D01*
X225630Y108564D01*
X225903Y109224D01*
X226070Y109918D01*
X226112Y110630D01*
X226070Y111342D01*
X225903Y112036D01*
X225630Y112696D01*
X225257Y113305D01*
X224793Y113848D01*
X224575Y114034D01*
Y117226D01*
X224793Y117412D01*
X225257Y117955D01*
X225630Y118564D01*
X225903Y119224D01*
X226070Y119918D01*
X226112Y120630D01*
X226070Y121342D01*
X225903Y122036D01*
X225630Y122696D01*
X225257Y123305D01*
X224793Y123848D01*
X224250Y124312D01*
X223641Y124685D01*
X222981Y124958D01*
X222287Y125125D01*
X221575Y125181D01*
X221568Y125180D01*
Y129331D01*
G37*
G36*
X211568D02*X221568D01*
Y125180D01*
X220863Y125125D01*
X220168Y124958D01*
X219509Y124685D01*
X218900Y124312D01*
X218357Y123848D01*
X217893Y123305D01*
X217520Y122696D01*
X217247Y122036D01*
X217080Y121342D01*
X217024Y120630D01*
X217080Y119918D01*
X217247Y119224D01*
X217520Y118564D01*
X217893Y117955D01*
X218357Y117412D01*
X218575Y117226D01*
Y114034D01*
X218357Y113848D01*
X217893Y113305D01*
X217520Y112696D01*
X217247Y112036D01*
X217080Y111342D01*
X217024Y110630D01*
X217080Y109918D01*
X217247Y109224D01*
X217520Y108564D01*
X217893Y107955D01*
X218357Y107412D01*
X218900Y106948D01*
X219509Y106575D01*
X220168Y106302D01*
X220863Y106135D01*
X221568Y106079D01*
Y103431D01*
X215049D01*
X214961Y103438D01*
X214608Y103410D01*
X214263Y103328D01*
X213936Y103192D01*
X213634Y103007D01*
X213634Y103007D01*
X213365Y102777D01*
X213307Y102710D01*
X211568Y100970D01*
Y106079D01*
X211575Y106079D01*
X212287Y106135D01*
X212981Y106302D01*
X213641Y106575D01*
X214250Y106948D01*
X214793Y107412D01*
X215257Y107955D01*
X215630Y108564D01*
X215903Y109224D01*
X216070Y109918D01*
X216112Y110630D01*
X216070Y111342D01*
X215903Y112036D01*
X215630Y112696D01*
X215257Y113305D01*
X214793Y113848D01*
X214575Y114034D01*
Y117226D01*
X214793Y117412D01*
X215257Y117955D01*
X215630Y118564D01*
X215903Y119224D01*
X216070Y119918D01*
X216112Y120630D01*
X216070Y121342D01*
X215903Y122036D01*
X215630Y122696D01*
X215257Y123305D01*
X214793Y123848D01*
X214250Y124312D01*
X213641Y124685D01*
X212981Y124958D01*
X212287Y125125D01*
X211575Y125181D01*
X211568Y125180D01*
Y129331D01*
G37*
G36*
X201568D02*X211568D01*
Y125180D01*
X210863Y125125D01*
X210168Y124958D01*
X209509Y124685D01*
X208900Y124312D01*
X208357Y123848D01*
X207893Y123305D01*
X207520Y122696D01*
X207247Y122036D01*
X207080Y121342D01*
X207024Y120630D01*
X207080Y119918D01*
X207247Y119224D01*
X207520Y118564D01*
X207893Y117955D01*
X208357Y117412D01*
X208575Y117226D01*
Y114034D01*
X208357Y113848D01*
X207893Y113305D01*
X207520Y112696D01*
X207247Y112036D01*
X207080Y111342D01*
X207024Y110630D01*
X207080Y109918D01*
X207247Y109224D01*
X207520Y108564D01*
X207893Y107955D01*
X208357Y107412D01*
X208900Y106948D01*
X209509Y106575D01*
X210168Y106302D01*
X210863Y106135D01*
X211568Y106079D01*
Y100970D01*
X211070Y100472D01*
X211003Y100415D01*
X210773Y100145D01*
X210587Y99844D01*
X210452Y99516D01*
X210369Y99172D01*
X210369Y99172D01*
X210341Y98819D01*
X210348Y98731D01*
Y92407D01*
X201568D01*
Y106079D01*
X201575Y106079D01*
X202287Y106135D01*
X202981Y106302D01*
X203641Y106575D01*
X204250Y106948D01*
X204793Y107412D01*
X205257Y107955D01*
X205630Y108564D01*
X205903Y109224D01*
X206070Y109918D01*
X206112Y110630D01*
X206070Y111342D01*
X205903Y112036D01*
X205630Y112696D01*
X205257Y113305D01*
X204793Y113848D01*
X204575Y114034D01*
Y117226D01*
X204793Y117412D01*
X205257Y117955D01*
X205630Y118564D01*
X205903Y119224D01*
X206070Y119918D01*
X206112Y120630D01*
X206070Y121342D01*
X205903Y122036D01*
X205630Y122696D01*
X205257Y123305D01*
X204793Y123848D01*
X204250Y124312D01*
X203641Y124685D01*
X202981Y124958D01*
X202287Y125125D01*
X201575Y125181D01*
X201568Y125180D01*
Y129331D01*
G37*
G36*
X216522Y83447D02*X216529Y79175D01*
X216566Y79022D01*
X216626Y78876D01*
X216708Y78742D01*
X216811Y78622D01*
X216930Y78520D01*
X217064Y78438D01*
X217210Y78378D01*
X217363Y78341D01*
X217520Y78332D01*
X225157Y78341D01*
X225310Y78378D01*
X225455Y78438D01*
X225589Y78520D01*
X225709Y78622D01*
X225811Y78742D01*
X225894Y78876D01*
X225954Y79022D01*
X225991Y79175D01*
X226000Y79332D01*
X225999Y79641D01*
X227358D01*
X227358Y78843D01*
X227380Y78751D01*
X227417Y78664D01*
X227466Y78583D01*
X227527Y78511D01*
X227599Y78450D01*
X227680Y78401D01*
X227767Y78365D01*
X227859Y78343D01*
X227953Y78337D01*
X234547Y78339D01*
Y75439D01*
X227859Y75437D01*
X227767Y75415D01*
X227680Y75379D01*
X227599Y75329D01*
X227527Y75268D01*
X227466Y75196D01*
X227417Y75116D01*
X227380Y75028D01*
X227358Y74937D01*
X227353Y74843D01*
X227358Y68843D01*
X227380Y68751D01*
X227417Y68664D01*
X227466Y68583D01*
X227527Y68511D01*
X227599Y68450D01*
X227680Y68401D01*
X227767Y68365D01*
X227859Y68343D01*
X227953Y68337D01*
X229092Y68337D01*
X227999Y67244D01*
X227932Y67186D01*
X227702Y66917D01*
X227517Y66615D01*
X227381Y66288D01*
X227298Y65944D01*
X227298Y65943D01*
Y65943D01*
X227271Y65591D01*
X227278Y65502D01*
Y58864D01*
X225300Y58862D01*
X225208Y58840D01*
X225120Y58804D01*
X225040Y58755D01*
X224968Y58693D01*
X224907Y58621D01*
X224857Y58541D01*
X224821Y58454D01*
X224799Y58362D01*
X224794Y58268D01*
X224799Y55024D01*
X224821Y54932D01*
X224857Y54845D01*
X224907Y54764D01*
X224968Y54693D01*
X225040Y54631D01*
X225120Y54582D01*
X225208Y54546D01*
X225300Y54524D01*
X225394Y54518D01*
X227278Y54519D01*
Y45793D01*
X225575Y45791D01*
X225483Y45769D01*
X225396Y45733D01*
X225316Y45684D01*
X225244Y45622D01*
X225182Y45551D01*
X225133Y45470D01*
X225097Y45383D01*
X225075Y45291D01*
X225069Y45197D01*
X225075Y32662D01*
X225097Y32570D01*
X225133Y32483D01*
X225182Y32402D01*
X225244Y32330D01*
X225316Y32269D01*
X225396Y32220D01*
X225483Y32184D01*
X225575Y32161D01*
X225669Y32156D01*
X233480Y32161D01*
X233572Y32184D01*
X233659Y32220D01*
X233740Y32269D01*
X233811Y32330D01*
X233873Y32402D01*
X233922Y32483D01*
X233958Y32570D01*
X233980Y32662D01*
X233986Y32756D01*
X233980Y45291D01*
X233958Y45383D01*
X233922Y45470D01*
X233873Y45551D01*
X233811Y45622D01*
X233740Y45684D01*
X233659Y45733D01*
X233572Y45769D01*
X233480Y45791D01*
X233386Y45797D01*
X231778Y45796D01*
Y54523D01*
X233362Y54524D01*
X233454Y54546D01*
X233541Y54582D01*
X233621Y54631D01*
X233693Y54693D01*
X233755Y54764D01*
X233804Y54845D01*
X233840Y54932D01*
X233862Y55024D01*
X233868Y55118D01*
X233862Y58362D01*
X233840Y58454D01*
X233804Y58541D01*
X233755Y58621D01*
X233693Y58693D01*
X233621Y58755D01*
X233541Y58804D01*
X233454Y58840D01*
X233362Y58862D01*
X233268Y58868D01*
X231778Y58867D01*
Y64659D01*
X234547Y67428D01*
Y28272D01*
X210236D01*
Y32159D01*
X214189Y32161D01*
X214280Y32184D01*
X214368Y32220D01*
X214448Y32269D01*
X214520Y32330D01*
X214581Y32402D01*
X214631Y32483D01*
X214667Y32570D01*
X214689Y32662D01*
X214694Y32756D01*
X214689Y45291D01*
X214667Y45383D01*
X214631Y45470D01*
X214581Y45551D01*
X214520Y45622D01*
X214448Y45684D01*
X214368Y45733D01*
X214280Y45769D01*
X214189Y45791D01*
X214094Y45797D01*
X212486Y45796D01*
Y50113D01*
X213637Y50114D01*
X213729Y50136D01*
X213817Y50172D01*
X213897Y50222D01*
X213969Y50283D01*
X214030Y50355D01*
X214080Y50435D01*
X214116Y50523D01*
X214138Y50615D01*
X214143Y50709D01*
X214138Y56787D01*
X214116Y56879D01*
X214080Y56966D01*
X214030Y57047D01*
X213969Y57118D01*
X213897Y57180D01*
X213817Y57229D01*
X213729Y57265D01*
X213637Y57287D01*
X213543Y57293D01*
X210236Y57290D01*
Y66096D01*
X213637Y66098D01*
X213729Y66121D01*
X213817Y66157D01*
X213897Y66206D01*
X213969Y66267D01*
X214030Y66339D01*
X214080Y66420D01*
X214116Y66507D01*
X214138Y66599D01*
X214143Y66693D01*
X214138Y72771D01*
X214116Y72863D01*
X214080Y72950D01*
X214030Y73031D01*
X213969Y73103D01*
X213897Y73164D01*
X213817Y73213D01*
X213729Y73250D01*
X213637Y73272D01*
X213543Y73277D01*
X212486Y73276D01*
Y76215D01*
X212595Y76282D01*
X213073Y76690D01*
X213482Y77169D01*
X213811Y77706D01*
X214052Y78288D01*
X214199Y78900D01*
X214236Y79528D01*
X214199Y80155D01*
X214052Y80767D01*
X213811Y81349D01*
X213482Y81886D01*
X213073Y82365D01*
X212595Y82774D01*
X212058Y83103D01*
X211476Y83344D01*
X210864Y83490D01*
X210236Y83540D01*
Y87907D01*
X212061D01*
X216522Y83447D01*
G37*
G36*
X210236Y28272D02*X201568D01*
Y87907D01*
X210236D01*
Y83540D01*
X209609Y83490D01*
X208996Y83344D01*
X208415Y83103D01*
X207878Y82774D01*
X207399Y82365D01*
X206990Y81886D01*
X206661Y81349D01*
X206420Y80767D01*
X206273Y80155D01*
X206224Y79528D01*
X206273Y78900D01*
X206420Y78288D01*
X206661Y77706D01*
X206990Y77169D01*
X207399Y76690D01*
X207878Y76282D01*
X207986Y76215D01*
Y73273D01*
X206835Y73272D01*
X206743Y73250D01*
X206656Y73213D01*
X206575Y73164D01*
X206504Y73103D01*
X206442Y73031D01*
X206393Y72950D01*
X206357Y72863D01*
X206335Y72771D01*
X206329Y72677D01*
X206335Y66599D01*
X206357Y66507D01*
X206393Y66420D01*
X206442Y66339D01*
X206504Y66267D01*
X206575Y66206D01*
X206656Y66157D01*
X206743Y66121D01*
X206835Y66098D01*
X206929Y66093D01*
X210236Y66096D01*
Y57290D01*
X206835Y57287D01*
X206743Y57265D01*
X206656Y57229D01*
X206575Y57180D01*
X206504Y57118D01*
X206442Y57047D01*
X206393Y56966D01*
X206357Y56879D01*
X206335Y56787D01*
X206329Y56693D01*
X206335Y50615D01*
X206357Y50523D01*
X206393Y50435D01*
X206442Y50355D01*
X206504Y50283D01*
X206575Y50222D01*
X206656Y50172D01*
X206743Y50136D01*
X206835Y50114D01*
X206929Y50109D01*
X207986Y50110D01*
Y45793D01*
X206284Y45791D01*
X206192Y45769D01*
X206105Y45733D01*
X206024Y45684D01*
X205952Y45622D01*
X205891Y45551D01*
X205842Y45470D01*
X205806Y45383D01*
X205784Y45291D01*
X205778Y45197D01*
X205784Y32662D01*
X205806Y32570D01*
X205842Y32483D01*
X205891Y32402D01*
X205952Y32330D01*
X206024Y32269D01*
X206105Y32220D01*
X206192Y32184D01*
X206284Y32161D01*
X206378Y32156D01*
X210236Y32159D01*
Y28272D01*
G37*
G36*
X191568Y129331D02*X201568D01*
Y125180D01*
X200863Y125125D01*
X200168Y124958D01*
X199509Y124685D01*
X198900Y124312D01*
X198357Y123848D01*
X197893Y123305D01*
X197520Y122696D01*
X197247Y122036D01*
X197080Y121342D01*
X197024Y120630D01*
X197080Y119918D01*
X197247Y119224D01*
X197520Y118564D01*
X197893Y117955D01*
X198357Y117412D01*
X198575Y117226D01*
Y114034D01*
X198357Y113848D01*
X197893Y113305D01*
X197520Y112696D01*
X197247Y112036D01*
X197080Y111342D01*
X197024Y110630D01*
X197080Y109918D01*
X197247Y109224D01*
X197520Y108564D01*
X197893Y107955D01*
X198357Y107412D01*
X198900Y106948D01*
X199509Y106575D01*
X200168Y106302D01*
X200863Y106135D01*
X201568Y106079D01*
Y92407D01*
X191568D01*
Y106079D01*
X191575Y106079D01*
X192287Y106135D01*
X192981Y106302D01*
X193641Y106575D01*
X194250Y106948D01*
X194793Y107412D01*
X195257Y107955D01*
X195630Y108564D01*
X195903Y109224D01*
X196070Y109918D01*
X196112Y110630D01*
X196070Y111342D01*
X195903Y112036D01*
X195630Y112696D01*
X195257Y113305D01*
X194793Y113848D01*
X194575Y114034D01*
Y117226D01*
X194793Y117412D01*
X195257Y117955D01*
X195630Y118564D01*
X195903Y119224D01*
X196070Y119918D01*
X196112Y120630D01*
X196070Y121342D01*
X195903Y122036D01*
X195630Y122696D01*
X195257Y123305D01*
X194793Y123848D01*
X194250Y124312D01*
X193641Y124685D01*
X192981Y124958D01*
X192287Y125125D01*
X191575Y125181D01*
X191568Y125180D01*
Y129331D01*
G37*
G36*
X201568Y28272D02*X191568D01*
Y44710D01*
X191820Y44606D01*
X192243Y44504D01*
X192677Y44470D01*
X193111Y44504D01*
X193534Y44606D01*
X193936Y44773D01*
X194308Y45000D01*
X194639Y45283D01*
X194921Y45614D01*
X195149Y45985D01*
X195315Y46387D01*
X195417Y46810D01*
X195443Y47244D01*
X195417Y47678D01*
X195315Y48101D01*
X195149Y48503D01*
X194921Y48875D01*
X194639Y49206D01*
X194308Y49488D01*
X193936Y49716D01*
X193534Y49882D01*
X193122Y49981D01*
X191968Y51135D01*
X191911Y51202D01*
X191642Y51432D01*
X191568Y51477D01*
Y54710D01*
X191820Y54606D01*
X192243Y54504D01*
X192677Y54470D01*
X193111Y54504D01*
X193534Y54606D01*
X193936Y54773D01*
X194308Y55000D01*
X194639Y55283D01*
X194921Y55614D01*
X195149Y55985D01*
X195315Y56387D01*
X195417Y56810D01*
X195443Y57244D01*
X195417Y57678D01*
X195315Y58101D01*
X195149Y58503D01*
X194921Y58875D01*
X194639Y59206D01*
X194308Y59488D01*
X193936Y59716D01*
X193534Y59882D01*
X193111Y59984D01*
X192677Y60018D01*
X192243Y59984D01*
X191820Y59882D01*
X191568Y59778D01*
Y64710D01*
X191820Y64606D01*
X192243Y64504D01*
X192677Y64470D01*
X193111Y64504D01*
X193534Y64606D01*
X193936Y64773D01*
X194308Y65000D01*
X194639Y65283D01*
X194921Y65614D01*
X195149Y65985D01*
X195315Y66387D01*
X195417Y66810D01*
X195443Y67244D01*
X195417Y67678D01*
X195315Y68101D01*
X195149Y68503D01*
X194921Y68875D01*
X194639Y69206D01*
X194308Y69488D01*
X193936Y69716D01*
X193534Y69882D01*
X193111Y69984D01*
X192677Y70018D01*
X192243Y69984D01*
X191820Y69882D01*
X191568Y69778D01*
Y87907D01*
X201568D01*
Y28272D01*
G37*
G36*
X191568Y51477D02*X191340Y51617D01*
X191012Y51753D01*
X190668Y51835D01*
X190668Y51835D01*
X190315Y51863D01*
X190227Y51856D01*
X183602D01*
X183558Y51929D01*
X183496Y52000D01*
X183425Y52062D01*
X183344Y52111D01*
X183257Y52147D01*
X183165Y52169D01*
X183071Y52175D01*
X182701Y52174D01*
X181568Y53307D01*
Y85276D01*
X182631Y86339D01*
X182698Y86396D01*
X182928Y86665D01*
X182928Y86666D01*
X183113Y86967D01*
X183249Y87295D01*
X183332Y87639D01*
X183359Y87992D01*
X183352Y88080D01*
Y88681D01*
X183425Y88726D01*
X183496Y88787D01*
X183558Y88859D01*
X183607Y88939D01*
X183643Y89027D01*
X183665Y89118D01*
X183671Y89213D01*
X183665Y91275D01*
X183643Y91367D01*
X183607Y91454D01*
X183558Y91535D01*
X183496Y91607D01*
X183425Y91668D01*
X183344Y91717D01*
X183257Y91754D01*
X183165Y91776D01*
X183071Y91781D01*
X182709Y91781D01*
X182698Y91793D01*
X182429Y92023D01*
X182127Y92208D01*
X181800Y92343D01*
X181568Y92399D01*
Y106079D01*
X181575Y106079D01*
X182287Y106135D01*
X182981Y106302D01*
X183641Y106575D01*
X184250Y106948D01*
X184793Y107412D01*
X185257Y107955D01*
X185630Y108564D01*
X185903Y109224D01*
X186070Y109918D01*
X186112Y110630D01*
X186070Y111342D01*
X185903Y112036D01*
X185630Y112696D01*
X185257Y113305D01*
X184793Y113848D01*
X184575Y114034D01*
Y117226D01*
X184793Y117412D01*
X185257Y117955D01*
X185630Y118564D01*
X185903Y119224D01*
X186070Y119918D01*
X186112Y120630D01*
X186070Y121342D01*
X185903Y122036D01*
X185630Y122696D01*
X185257Y123305D01*
X184793Y123848D01*
X184250Y124312D01*
X183641Y124685D01*
X182981Y124958D01*
X182287Y125125D01*
X181575Y125181D01*
X181568Y125180D01*
Y129331D01*
X191568D01*
Y125180D01*
X190863Y125125D01*
X190168Y124958D01*
X189509Y124685D01*
X188900Y124312D01*
X188357Y123848D01*
X187893Y123305D01*
X187520Y122696D01*
X187247Y122036D01*
X187080Y121342D01*
X187024Y120630D01*
X187080Y119918D01*
X187247Y119224D01*
X187520Y118564D01*
X187893Y117955D01*
X188357Y117412D01*
X188575Y117226D01*
Y114034D01*
X188357Y113848D01*
X187893Y113305D01*
X187520Y112696D01*
X187247Y112036D01*
X187080Y111342D01*
X187024Y110630D01*
X187080Y109918D01*
X187247Y109224D01*
X187520Y108564D01*
X187893Y107955D01*
X188357Y107412D01*
X188900Y106948D01*
X189509Y106575D01*
X190168Y106302D01*
X190863Y106135D01*
X191568Y106079D01*
Y92407D01*
X190391D01*
X190314Y92426D01*
X189961Y92454D01*
X189608Y92426D01*
X189263Y92343D01*
X188936Y92208D01*
X188634Y92023D01*
X188365Y91793D01*
X188351Y91776D01*
X187898Y91776D01*
X187806Y91754D01*
X187719Y91717D01*
X187638Y91668D01*
X187567Y91607D01*
X187505Y91535D01*
X187456Y91454D01*
X187420Y91367D01*
X187398Y91275D01*
X187392Y91181D01*
X187398Y89118D01*
X187420Y89027D01*
X187456Y88939D01*
X187505Y88859D01*
X187567Y88787D01*
X187638Y88726D01*
X187719Y88676D01*
X187806Y88640D01*
X187898Y88618D01*
X187992Y88613D01*
X188360Y88613D01*
X188404Y88562D01*
X188673Y88332D01*
X188673Y88332D01*
X188975Y88147D01*
X189303Y88011D01*
X189647Y87928D01*
X190000Y87901D01*
X190088Y87907D01*
X191568D01*
Y69778D01*
X191418Y69716D01*
X191047Y69488D01*
X190716Y69206D01*
X190433Y68875D01*
X190206Y68503D01*
X190039Y68101D01*
X189937Y67678D01*
X189903Y67244D01*
X189937Y66810D01*
X190039Y66387D01*
X190206Y65985D01*
X190433Y65614D01*
X190716Y65283D01*
X191047Y65000D01*
X191418Y64773D01*
X191568Y64710D01*
Y59778D01*
X191418Y59716D01*
X191047Y59488D01*
X190716Y59206D01*
X190433Y58875D01*
X190206Y58503D01*
X190039Y58101D01*
X189937Y57678D01*
X189903Y57244D01*
X189937Y56810D01*
X190039Y56387D01*
X190206Y55985D01*
X190433Y55614D01*
X190716Y55283D01*
X191047Y55000D01*
X191418Y54773D01*
X191568Y54710D01*
Y51477D01*
G37*
G36*
X181568Y92399D02*X181455Y92426D01*
X181102Y92454D01*
X180749Y92426D01*
X180405Y92343D01*
X180078Y92208D01*
X179776Y92023D01*
X179506Y91793D01*
X179492Y91776D01*
X179040Y91776D01*
X178948Y91754D01*
X178861Y91717D01*
X178780Y91668D01*
X178708Y91607D01*
X178647Y91535D01*
X178598Y91454D01*
X178561Y91367D01*
X178539Y91275D01*
X178534Y91181D01*
X178539Y89118D01*
X178561Y89027D01*
X178598Y88939D01*
X178647Y88859D01*
X178708Y88787D01*
X178712Y88784D01*
X171568Y81640D01*
Y83461D01*
X171630Y83461D01*
X171721Y83483D01*
X171809Y83519D01*
X171889Y83568D01*
X171961Y83630D01*
X172022Y83701D01*
X172072Y83782D01*
X172108Y83869D01*
X172130Y83961D01*
X172135Y84055D01*
X172130Y90055D01*
X172108Y90147D01*
X172072Y90234D01*
X172022Y90314D01*
X171961Y90386D01*
X171889Y90448D01*
X171809Y90497D01*
X171721Y90533D01*
X171630Y90555D01*
X171568Y90559D01*
Y106079D01*
X171575Y106079D01*
X172287Y106135D01*
X172981Y106302D01*
X173641Y106575D01*
X174250Y106948D01*
X174793Y107412D01*
X175257Y107955D01*
X175630Y108564D01*
X175903Y109224D01*
X176070Y109918D01*
X176112Y110630D01*
X176070Y111342D01*
X175903Y112036D01*
X175630Y112696D01*
X175257Y113305D01*
X174793Y113848D01*
X174575Y114034D01*
Y117226D01*
X174793Y117412D01*
X175257Y117955D01*
X175630Y118564D01*
X175903Y119224D01*
X176070Y119918D01*
X176112Y120630D01*
X176070Y121342D01*
X175903Y122036D01*
X175630Y122696D01*
X175257Y123305D01*
X174793Y123848D01*
X174250Y124312D01*
X173641Y124685D01*
X172981Y124958D01*
X172287Y125125D01*
X171575Y125181D01*
X171568Y125180D01*
Y129331D01*
X181568D01*
Y125180D01*
X180863Y125125D01*
X180168Y124958D01*
X179509Y124685D01*
X178900Y124312D01*
X178357Y123848D01*
X177893Y123305D01*
X177520Y122696D01*
X177247Y122036D01*
X177080Y121342D01*
X177024Y120630D01*
X177080Y119918D01*
X177247Y119224D01*
X177520Y118564D01*
X177893Y117955D01*
X178357Y117412D01*
X178575Y117226D01*
Y114034D01*
X178357Y113848D01*
X177893Y113305D01*
X177520Y112696D01*
X177247Y112036D01*
X177080Y111342D01*
X177024Y110630D01*
X177080Y109918D01*
X177247Y109224D01*
X177520Y108564D01*
X177893Y107955D01*
X178357Y107412D01*
X178900Y106948D01*
X179509Y106575D01*
X180168Y106302D01*
X180863Y106135D01*
X181568Y106079D01*
Y92399D01*
G37*
G36*
X171568Y81640D02*X171208Y81279D01*
X171140Y81222D01*
X171083Y81155D01*
X165352Y75424D01*
Y83458D01*
X166630Y83461D01*
X166721Y83483D01*
X166809Y83519D01*
X166889Y83568D01*
X166961Y83630D01*
X167022Y83701D01*
X167072Y83782D01*
X167108Y83869D01*
X167130Y83961D01*
X167135Y84055D01*
X167130Y90055D01*
X167108Y90147D01*
X167072Y90234D01*
X167022Y90314D01*
X166961Y90386D01*
X166889Y90448D01*
X166854Y90469D01*
Y92125D01*
X166859Y92184D01*
X166840Y92419D01*
X166840Y92420D01*
X166785Y92649D01*
X166695Y92867D01*
X166572Y93069D01*
X166418Y93248D01*
X166407Y93257D01*
X166403Y94644D01*
X166366Y94797D01*
X166306Y94943D01*
X166224Y95077D01*
X166122Y95197D01*
X166002Y95299D01*
X165870Y95380D01*
Y101713D01*
X165875Y101772D01*
X165856Y102007D01*
X165801Y102237D01*
X165711Y102455D01*
X165587Y102656D01*
X165434Y102836D01*
X165389Y102874D01*
X165352Y102911D01*
Y108111D01*
X165630Y108564D01*
X165903Y109224D01*
X166070Y109918D01*
X166112Y110630D01*
X166070Y111342D01*
X165903Y112036D01*
X165630Y112696D01*
X165352Y113149D01*
Y118111D01*
X165630Y118564D01*
X165903Y119224D01*
X166070Y119918D01*
X166112Y120630D01*
X166070Y121342D01*
X165903Y122036D01*
X165630Y122696D01*
X165352Y123149D01*
Y129331D01*
X171568D01*
Y125180D01*
X170863Y125125D01*
X170168Y124958D01*
X169509Y124685D01*
X168900Y124312D01*
X168357Y123848D01*
X167893Y123305D01*
X167520Y122696D01*
X167247Y122036D01*
X167080Y121342D01*
X167024Y120630D01*
X167080Y119918D01*
X167247Y119224D01*
X167520Y118564D01*
X167893Y117955D01*
X168357Y117412D01*
X168575Y117226D01*
Y114034D01*
X168357Y113848D01*
X167893Y113305D01*
X167520Y112696D01*
X167247Y112036D01*
X167080Y111342D01*
X167024Y110630D01*
X167080Y109918D01*
X167247Y109224D01*
X167520Y108564D01*
X167893Y107955D01*
X168357Y107412D01*
X168900Y106948D01*
X169509Y106575D01*
X170168Y106302D01*
X170863Y106135D01*
X171568Y106079D01*
Y90559D01*
X171535Y90561D01*
X169079Y90555D01*
X168987Y90533D01*
X168900Y90497D01*
X168819Y90448D01*
X168748Y90386D01*
X168686Y90314D01*
X168637Y90234D01*
X168601Y90147D01*
X168579Y90055D01*
X168573Y89961D01*
X168579Y83961D01*
X168601Y83869D01*
X168637Y83782D01*
X168686Y83701D01*
X168748Y83630D01*
X168819Y83568D01*
X168900Y83519D01*
X168987Y83483D01*
X169079Y83461D01*
X169173Y83455D01*
X171568Y83461D01*
Y81640D01*
G37*
G36*
X181568Y53307D02*X179415Y55460D01*
Y75109D01*
X179422Y75197D01*
X179395Y75550D01*
X179395Y75550D01*
X179312Y75894D01*
X179176Y76221D01*
X178991Y76523D01*
X178761Y76793D01*
X178694Y76850D01*
X175918Y79626D01*
X181568Y85276D01*
Y53307D01*
G37*
G36*
X191568Y28272D02*X182080D01*
Y31815D01*
X182087Y31814D01*
X182714Y31864D01*
X183326Y32011D01*
X183908Y32252D01*
X184445Y32581D01*
X184924Y32990D01*
X185333Y33468D01*
X185662Y34005D01*
X185903Y34587D01*
X186050Y35199D01*
X186087Y35827D01*
X186050Y36454D01*
X185903Y37067D01*
X185662Y37648D01*
X185333Y38185D01*
X184924Y38664D01*
X184445Y39073D01*
X184337Y39139D01*
Y40748D01*
X184316Y41101D01*
X184233Y41445D01*
X184098Y41773D01*
X183913Y42075D01*
X183683Y42344D01*
X183666Y42358D01*
X183665Y42811D01*
X183643Y42903D01*
X183607Y42990D01*
X183558Y43070D01*
X183496Y43142D01*
X183425Y43203D01*
X183344Y43253D01*
X183257Y43289D01*
X183165Y43311D01*
X183071Y43317D01*
X182080Y43314D01*
Y47040D01*
X183165Y47043D01*
X183257Y47065D01*
X183344Y47102D01*
X183425Y47151D01*
X183496Y47212D01*
X183558Y47284D01*
X183602Y47356D01*
X189383D01*
X189940Y46799D01*
X190039Y46387D01*
X190206Y45985D01*
X190433Y45614D01*
X190716Y45283D01*
X191047Y45000D01*
X191418Y44773D01*
X191568Y44710D01*
Y28272D01*
G37*
G36*
X182080D02*X178968D01*
X175713Y31527D01*
Y35768D01*
X175717Y35827D01*
X175713Y35886D01*
Y46595D01*
X175717Y46654D01*
X175699Y46889D01*
X175699Y46889D01*
X175644Y47118D01*
X175553Y47337D01*
X175430Y47538D01*
X175277Y47717D01*
X175232Y47756D01*
X171378Y51610D01*
X171340Y51654D01*
X171160Y51808D01*
X170959Y51931D01*
X170741Y52022D01*
X170511Y52077D01*
X170276Y52095D01*
X170217Y52091D01*
X165352D01*
Y57277D01*
X165569Y57278D01*
X165722Y57315D01*
X165868Y57375D01*
X166002Y57457D01*
X166122Y57559D01*
X166224Y57679D01*
X166306Y57813D01*
X166366Y57959D01*
X166403Y58112D01*
X166412Y58269D01*
X166408Y59499D01*
X166418Y59508D01*
X166571Y59687D01*
X166572Y59687D01*
X166695Y59889D01*
X166785Y60107D01*
X166840Y60336D01*
X166859Y60572D01*
X166854Y60631D01*
Y62287D01*
X166889Y62308D01*
X166961Y62370D01*
X167022Y62442D01*
X167072Y62522D01*
X167108Y62609D01*
X167130Y62701D01*
X167135Y62795D01*
X167130Y68795D01*
X167108Y68887D01*
X167072Y68974D01*
X167022Y69055D01*
X166961Y69126D01*
X166889Y69188D01*
X166854Y69209D01*
Y70572D01*
X166945Y70653D01*
X167670Y71378D01*
X167698Y71017D01*
X167801Y70589D01*
X167970Y70182D01*
X168200Y69806D01*
X168486Y69471D01*
X168819Y69187D01*
X168748Y69126D01*
X168686Y69055D01*
X168637Y68974D01*
X168601Y68887D01*
X168579Y68795D01*
X168573Y68701D01*
X168579Y62701D01*
X168601Y62609D01*
X168637Y62522D01*
X168686Y62442D01*
X168748Y62370D01*
X168819Y62308D01*
X168900Y62259D01*
X168987Y62223D01*
X169079Y62201D01*
X169173Y62195D01*
X171630Y62201D01*
X171721Y62223D01*
X171809Y62259D01*
X171889Y62308D01*
X171961Y62370D01*
X172022Y62442D01*
X172072Y62522D01*
X172108Y62609D01*
X172130Y62701D01*
X172135Y62795D01*
X172130Y68795D01*
X172108Y68887D01*
X172072Y68974D01*
X172022Y69055D01*
X171984Y69099D01*
X172123Y69184D01*
X172458Y69471D01*
X172745Y69806D01*
X172975Y70182D01*
X173144Y70589D01*
X173246Y71017D01*
X173272Y71457D01*
X173246Y71896D01*
X173144Y72325D01*
X172975Y72732D01*
X172745Y73108D01*
X172458Y73443D01*
X172123Y73729D01*
X171748Y73959D01*
X171340Y74128D01*
X170912Y74231D01*
X170551Y74259D01*
X172736Y76444D01*
X174915Y74265D01*
Y54616D01*
X174908Y54528D01*
X174936Y54175D01*
Y54174D01*
X175019Y53830D01*
X175154Y53503D01*
X175225Y53388D01*
X175339Y53201D01*
X175340Y53201D01*
X175569Y52932D01*
X175637Y52874D01*
X180433Y48078D01*
X180491Y48010D01*
X180507Y47996D01*
X180508Y47544D01*
X180530Y47452D01*
X180566Y47365D01*
X180615Y47284D01*
X180677Y47212D01*
X180749Y47151D01*
X180829Y47102D01*
X180916Y47065D01*
X181008Y47043D01*
X181102Y47038D01*
X182080Y47040D01*
Y43314D01*
X181008Y43311D01*
X180916Y43289D01*
X180829Y43253D01*
X180749Y43203D01*
X180677Y43142D01*
X180615Y43070D01*
X180566Y42990D01*
X180530Y42903D01*
X180508Y42811D01*
X180502Y42717D01*
X180503Y42354D01*
X180491Y42344D01*
X180261Y42075D01*
X180076Y41773D01*
X179940Y41445D01*
X179857Y41101D01*
X179837Y40748D01*
Y39139D01*
X179728Y39073D01*
X179249Y38664D01*
X178841Y38185D01*
X178512Y37648D01*
X178271Y37067D01*
X178124Y36454D01*
X178074Y35827D01*
X178124Y35199D01*
X178271Y34587D01*
X178512Y34005D01*
X178841Y33468D01*
X179249Y32990D01*
X179728Y32581D01*
X180265Y32252D01*
X180847Y32011D01*
X181459Y31864D01*
X182080Y31815D01*
Y28272D01*
G37*
G36*
X165352Y13149D02*X165257Y13305D01*
X164793Y13848D01*
X164575Y14034D01*
Y17226D01*
X164793Y17412D01*
X165257Y17955D01*
X165352Y18111D01*
Y13149D01*
G37*
G36*
Y113149D02*X165257Y113305D01*
X164793Y113848D01*
X164575Y114034D01*
Y117226D01*
X164793Y117412D01*
X165257Y117955D01*
X165352Y118111D01*
Y113149D01*
G37*
G36*
Y52091D02*X164991D01*
X163898Y53184D01*
X163859Y53229D01*
X163680Y53383D01*
X163478Y53506D01*
X163260Y53596D01*
X163031Y53651D01*
X163030Y53651D01*
X162795Y53670D01*
X162737Y53665D01*
X146853D01*
X146760Y53816D01*
X146474Y54151D01*
X146139Y54438D01*
X145870Y54602D01*
X146398D01*
X146457Y54598D01*
X146692Y54616D01*
X146692Y54616D01*
X146922Y54671D01*
X147140Y54762D01*
X147341Y54885D01*
X147521Y55038D01*
X147559Y55083D01*
X152594Y60118D01*
X152639Y60157D01*
X152718Y60249D01*
X152738Y59994D01*
X152841Y59565D01*
X153009Y59158D01*
X153240Y58782D01*
X153526Y58447D01*
X153861Y58161D01*
X154237Y57931D01*
X154644Y57762D01*
X155072Y57659D01*
X155512Y57624D01*
X155951Y57659D01*
X156380Y57762D01*
X156787Y57931D01*
X157163Y58161D01*
X157498Y58447D01*
X157784Y58782D01*
X158014Y59158D01*
X158183Y59565D01*
X158286Y59994D01*
X158312Y60433D01*
X158286Y60872D01*
X158183Y61301D01*
X158014Y61708D01*
X157784Y62084D01*
X157498Y62419D01*
X157163Y62705D01*
X157131Y62725D01*
X157135Y62795D01*
X157130Y68795D01*
X157108Y68887D01*
X157072Y68974D01*
X157022Y69055D01*
X156961Y69126D01*
X156889Y69188D01*
X156809Y69237D01*
X156721Y69273D01*
X156630Y69295D01*
X156535Y69301D01*
X154291Y69296D01*
X155739Y70744D01*
X163677D01*
X163758Y70648D01*
X163854Y70566D01*
Y69209D01*
X163819Y69188D01*
X163748Y69126D01*
X163686Y69055D01*
X163637Y68974D01*
X163601Y68887D01*
X163579Y68795D01*
X163573Y68701D01*
X163579Y62701D01*
X163601Y62609D01*
X163637Y62522D01*
X163686Y62442D01*
X163748Y62370D01*
X163819Y62308D01*
X163854Y62287D01*
Y62016D01*
X163287Y62013D01*
X163134Y61977D01*
X162989Y61916D01*
X162855Y61834D01*
X162735Y61732D01*
X162633Y61612D01*
X162551Y61478D01*
X162490Y61333D01*
X162454Y61180D01*
X162444Y61023D01*
X162454Y58112D01*
X162490Y57959D01*
X162551Y57813D01*
X162633Y57679D01*
X162735Y57559D01*
X162855Y57457D01*
X162989Y57375D01*
X163134Y57315D01*
X163287Y57278D01*
X163444Y57269D01*
X165352Y57277D01*
Y52091D01*
G37*
G36*
X154869Y100272D02*X159780D01*
Y95344D01*
X159707Y95299D01*
X159587Y95197D01*
X159485Y95077D01*
X159403Y94943D01*
X159342Y94797D01*
X159306Y94644D01*
X159296Y94487D01*
X159300Y93257D01*
X159290Y93248D01*
X159137Y93069D01*
X159137Y93069D01*
X159137Y93068D01*
X159089Y92990D01*
X159014Y92867D01*
X159014Y92867D01*
X159014Y92867D01*
X158986Y92800D01*
X158923Y92649D01*
X158923Y92649D01*
X158923Y92649D01*
X158909Y92588D01*
X158868Y92420D01*
X158868Y92419D01*
X158868Y92419D01*
X158850Y92184D01*
X158854Y92125D01*
Y90469D01*
X158819Y90448D01*
X158748Y90386D01*
X158686Y90314D01*
X158637Y90234D01*
X158601Y90147D01*
X158579Y90055D01*
X158573Y89961D01*
X158579Y83961D01*
X158601Y83869D01*
X158637Y83782D01*
X158686Y83701D01*
X158748Y83630D01*
X158819Y83568D01*
X158900Y83519D01*
X158987Y83483D01*
X159079Y83461D01*
X159173Y83455D01*
X161630Y83461D01*
X161721Y83483D01*
X161809Y83519D01*
X161889Y83568D01*
X161961Y83630D01*
X162022Y83701D01*
X162072Y83782D01*
X162108Y83869D01*
X162130Y83961D01*
X162135Y84055D01*
X162130Y90055D01*
X162108Y90147D01*
X162072Y90234D01*
X162022Y90314D01*
X161961Y90386D01*
X161889Y90448D01*
X161854Y90469D01*
Y90740D01*
X162421Y90742D01*
X162574Y90779D01*
X162720Y90839D01*
X162854Y90922D01*
X162854Y90922D01*
X162855Y90922D01*
X162989Y90839D01*
X163134Y90779D01*
X163287Y90742D01*
X163444Y90733D01*
X163854Y90735D01*
Y90469D01*
X163819Y90448D01*
X163748Y90386D01*
X163686Y90314D01*
X163637Y90234D01*
X163601Y90147D01*
X163579Y90055D01*
X163573Y89961D01*
X163579Y83961D01*
X163601Y83869D01*
X163637Y83782D01*
X163686Y83701D01*
X163748Y83630D01*
X163819Y83568D01*
X163900Y83519D01*
X163987Y83483D01*
X164079Y83461D01*
X164173Y83455D01*
X165352Y83458D01*
Y75424D01*
X163763Y73835D01*
X163682Y73744D01*
X155177D01*
X155118Y73749D01*
X154883Y73730D01*
X154869Y73727D01*
Y74598D01*
X156475Y76204D01*
X156647Y76163D01*
X157087Y76128D01*
X157526Y76163D01*
X157955Y76266D01*
X158362Y76434D01*
X158737Y76665D01*
X159073Y76951D01*
X159359Y77286D01*
X159589Y77662D01*
X159758Y78069D01*
X159861Y78498D01*
X159887Y78937D01*
X159861Y79376D01*
X159758Y79805D01*
X159589Y80212D01*
X159359Y80588D01*
X159073Y80923D01*
X158737Y81209D01*
X158362Y81440D01*
X157955Y81608D01*
X157526Y81711D01*
X157087Y81746D01*
X156647Y81711D01*
X156219Y81608D01*
X155812Y81440D01*
X155436Y81209D01*
X155101Y80923D01*
X154869Y80651D01*
Y83457D01*
X156630Y83461D01*
X156721Y83483D01*
X156809Y83519D01*
X156889Y83568D01*
X156961Y83630D01*
X157022Y83701D01*
X157072Y83782D01*
X157108Y83869D01*
X157130Y83961D01*
X157135Y84055D01*
X157130Y90055D01*
X157108Y90147D01*
X157072Y90234D01*
X157022Y90314D01*
X156961Y90386D01*
X156889Y90448D01*
X156854Y90469D01*
Y92283D01*
X156859Y92342D01*
X156840Y92577D01*
X156840Y92577D01*
X156785Y92807D01*
X156695Y93025D01*
X156572Y93226D01*
X156565Y93234D01*
X156561Y94644D01*
X156524Y94797D01*
X156464Y94943D01*
X156381Y95077D01*
X156279Y95197D01*
X156159Y95299D01*
X156025Y95381D01*
X155880Y95441D01*
X155727Y95478D01*
X155570Y95487D01*
X154869Y95484D01*
Y100272D01*
G37*
G36*
Y73727D02*X154653Y73675D01*
X154435Y73585D01*
X154234Y73461D01*
X154233Y73461D01*
X154054Y73308D01*
X154016Y73263D01*
X151568Y70815D01*
Y71297D01*
X154869Y74598D01*
Y73727D01*
G37*
G36*
X151568Y100272D02*X154869D01*
Y95484D01*
X153445Y95478D01*
X153292Y95441D01*
X153146Y95381D01*
X153012Y95299D01*
X152893Y95197D01*
X152790Y95077D01*
X152708Y94943D01*
X152648Y94797D01*
X152611Y94644D01*
X152602Y94487D01*
X152611Y91576D01*
X152648Y91423D01*
X152708Y91278D01*
X152790Y91144D01*
X152893Y91024D01*
X153012Y90922D01*
X153146Y90839D01*
X153292Y90779D01*
X153445Y90742D01*
X153602Y90733D01*
X153854Y90734D01*
Y90469D01*
X153819Y90448D01*
X153748Y90386D01*
X153686Y90314D01*
X153637Y90234D01*
X153601Y90147D01*
X153579Y90055D01*
X153573Y89961D01*
X153579Y83961D01*
X153601Y83869D01*
X153637Y83782D01*
X153686Y83701D01*
X153748Y83630D01*
X153819Y83568D01*
X153900Y83519D01*
X153987Y83483D01*
X154079Y83461D01*
X154173Y83455D01*
X154869Y83457D01*
Y80651D01*
X154814Y80588D01*
X154584Y80212D01*
X154415Y79805D01*
X154313Y79376D01*
X154278Y78937D01*
X154313Y78498D01*
X154354Y78326D01*
X151568Y75540D01*
Y76639D01*
X151655Y76660D01*
X152062Y76828D01*
X152438Y77058D01*
X152773Y77345D01*
X153060Y77680D01*
X153290Y78056D01*
X153459Y78463D01*
X153561Y78891D01*
X153587Y79331D01*
X153561Y79770D01*
X153459Y80199D01*
X153290Y80606D01*
X153060Y80982D01*
X152773Y81317D01*
X152438Y81603D01*
X152062Y81833D01*
X151655Y82002D01*
X151568Y82023D01*
Y100272D01*
G37*
G36*
Y129331D02*X165352D01*
Y123149D01*
X165257Y123305D01*
X164793Y123848D01*
X164250Y124312D01*
X163641Y124685D01*
X162981Y124958D01*
X162287Y125125D01*
X161575Y125181D01*
X160863Y125125D01*
X160168Y124958D01*
X159509Y124685D01*
X158900Y124312D01*
X158357Y123848D01*
X157893Y123305D01*
X157520Y122696D01*
X157247Y122036D01*
X157080Y121342D01*
X157024Y120630D01*
X157080Y119918D01*
X157247Y119224D01*
X157520Y118564D01*
X157893Y117955D01*
X158357Y117412D01*
X158575Y117226D01*
Y114034D01*
X158357Y113848D01*
X157893Y113305D01*
X157520Y112696D01*
X157247Y112036D01*
X157080Y111342D01*
X157024Y110630D01*
X157080Y109918D01*
X157247Y109224D01*
X157520Y108564D01*
X157893Y107955D01*
X158357Y107412D01*
X158900Y106948D01*
X159509Y106575D01*
X160168Y106302D01*
X160863Y106135D01*
X161575Y106079D01*
X162287Y106135D01*
X162981Y106302D01*
X163641Y106575D01*
X164250Y106948D01*
X164793Y107412D01*
X165257Y107955D01*
X165352Y108111D01*
Y102911D01*
X163504Y104759D01*
X163466Y104804D01*
X163286Y104957D01*
X163085Y105081D01*
X162867Y105171D01*
X162637Y105226D01*
X162637Y105226D01*
X162402Y105245D01*
X162343Y105240D01*
X151568D01*
Y106079D01*
X151575Y106079D01*
X152287Y106135D01*
X152981Y106302D01*
X153641Y106575D01*
X154250Y106948D01*
X154793Y107412D01*
X155257Y107955D01*
X155630Y108564D01*
X155903Y109224D01*
X156070Y109918D01*
X156112Y110630D01*
X156070Y111342D01*
X155903Y112036D01*
X155630Y112696D01*
X155257Y113305D01*
X154793Y113848D01*
X154575Y114034D01*
Y117226D01*
X154793Y117412D01*
X155257Y117955D01*
X155630Y118564D01*
X155903Y119224D01*
X156070Y119918D01*
X156112Y120630D01*
X156070Y121342D01*
X155903Y122036D01*
X155630Y122696D01*
X155257Y123305D01*
X154793Y123848D01*
X154250Y124312D01*
X153641Y124685D01*
X152981Y124958D01*
X152287Y125125D01*
X151575Y125181D01*
X151568Y125180D01*
Y129331D01*
G37*
G36*
X165352Y2362D02*X151568D01*
Y6079D01*
X151575Y6079D01*
X152287Y6135D01*
X152981Y6302D01*
X153641Y6575D01*
X154250Y6948D01*
X154793Y7412D01*
X155257Y7955D01*
X155630Y8564D01*
X155903Y9224D01*
X156070Y9918D01*
X156112Y10630D01*
X156070Y11342D01*
X155903Y12036D01*
X155630Y12696D01*
X155257Y13305D01*
X154793Y13848D01*
X154575Y14034D01*
Y17226D01*
X154793Y17412D01*
X155257Y17955D01*
X155630Y18564D01*
X155903Y19224D01*
X156070Y19918D01*
X156112Y20630D01*
X156070Y21342D01*
X155903Y22036D01*
X155630Y22696D01*
X155257Y23305D01*
X154793Y23848D01*
X154250Y24312D01*
X153641Y24685D01*
X152981Y24958D01*
X152287Y25125D01*
X151575Y25181D01*
X151568Y25180D01*
Y33438D01*
X151597Y33420D01*
X151684Y33384D01*
X151776Y33362D01*
X151870Y33357D01*
X153342Y33362D01*
X153434Y33384D01*
X153521Y33420D01*
X153602Y33470D01*
X153674Y33531D01*
X153735Y33603D01*
X153784Y33683D01*
X153820Y33771D01*
X153842Y33863D01*
X153848Y33957D01*
X153842Y35822D01*
X153820Y35914D01*
X153784Y36002D01*
X153735Y36082D01*
X153674Y36154D01*
X153602Y36215D01*
X153521Y36265D01*
X153434Y36301D01*
X153342Y36323D01*
X153248Y36328D01*
X151776Y36323D01*
X151684Y36301D01*
X151597Y36265D01*
X151568Y36247D01*
Y42690D01*
X151597Y42672D01*
X151684Y42636D01*
X151776Y42614D01*
X151870Y42609D01*
X152316Y42610D01*
X152324Y42608D01*
X152559Y42590D01*
X152794Y42608D01*
X152810Y42612D01*
X153342Y42614D01*
X153434Y42636D01*
X153521Y42672D01*
X153543Y42686D01*
X153565Y42672D01*
X153653Y42636D01*
X153744Y42614D01*
X153839Y42609D01*
X154284Y42610D01*
X154292Y42608D01*
X154528Y42590D01*
X154763Y42608D01*
X154779Y42612D01*
X155311Y42614D01*
X155403Y42636D01*
X155490Y42672D01*
X155512Y42686D01*
X155534Y42672D01*
X155621Y42636D01*
X155713Y42614D01*
X155807Y42609D01*
X156253Y42610D01*
X156261Y42608D01*
X156496Y42590D01*
X156731Y42608D01*
X156747Y42612D01*
X157279Y42614D01*
X157371Y42636D01*
X157458Y42672D01*
X157539Y42722D01*
X157611Y42783D01*
X157672Y42855D01*
X157693Y42890D01*
X159051D01*
X159051Y42887D01*
X159080Y42765D01*
X159129Y42648D01*
X159194Y42541D01*
X159276Y42445D01*
X159372Y42364D01*
X159479Y42298D01*
X159596Y42250D01*
X159718Y42220D01*
X159844Y42213D01*
X161937Y42220D01*
X162060Y42250D01*
X162176Y42298D01*
X162283Y42364D01*
X162379Y42445D01*
X162461Y42541D01*
X162527Y42648D01*
X162575Y42765D01*
X162604Y42887D01*
X162612Y43013D01*
X162608Y44458D01*
X162634Y44490D01*
X162635Y44490D01*
X162758Y44691D01*
X162848Y44909D01*
X162903Y45139D01*
X162922Y45374D01*
X162917Y45433D01*
Y47016D01*
X164991Y49091D01*
X165352D01*
Y37327D01*
X162053D01*
X162060Y37328D01*
X162176Y37376D01*
X162283Y37442D01*
X162379Y37524D01*
X162461Y37620D01*
X162527Y37727D01*
X162575Y37844D01*
X162604Y37966D01*
X162612Y38092D01*
X162604Y40971D01*
X162575Y41093D01*
X162527Y41210D01*
X162461Y41317D01*
X162379Y41413D01*
X162283Y41495D01*
X162176Y41561D01*
X162060Y41609D01*
X161937Y41638D01*
X161812Y41646D01*
X159718Y41638D01*
X159596Y41609D01*
X159479Y41561D01*
X159372Y41495D01*
X159276Y41413D01*
X159194Y41317D01*
X159129Y41210D01*
X159080Y41093D01*
X159051Y40971D01*
X159051Y40969D01*
X156890D01*
X156654Y40955D01*
X156425Y40899D01*
X156207Y40809D01*
X156114Y40753D01*
X155910Y40752D01*
X155818Y40730D01*
X155731Y40694D01*
X155650Y40644D01*
X155578Y40583D01*
X155517Y40511D01*
X155468Y40431D01*
X155432Y40343D01*
X155409Y40252D01*
X155404Y40157D01*
X155406Y39712D01*
X155404Y39704D01*
X155385Y39469D01*
X155404Y39233D01*
X155407Y39217D01*
X155409Y38685D01*
X155432Y38594D01*
X155468Y38506D01*
X155481Y38484D01*
X155468Y38462D01*
X155432Y38375D01*
X155409Y38283D01*
X155404Y38189D01*
X155406Y37744D01*
X155404Y37735D01*
X155385Y37500D01*
X155404Y37265D01*
X155407Y37249D01*
X155409Y36717D01*
X155432Y36625D01*
X155468Y36538D01*
X155517Y36457D01*
X155578Y36385D01*
X155650Y36324D01*
X155731Y36275D01*
X155818Y36239D01*
X155910Y36217D01*
X156004Y36211D01*
X156057Y36211D01*
X157461Y34808D01*
X157499Y34763D01*
X157679Y34610D01*
X157880Y34486D01*
X158098Y34396D01*
X158328Y34341D01*
X158563Y34322D01*
X158622Y34327D01*
X165352D01*
Y23149D01*
X165257Y23305D01*
X164793Y23848D01*
X164250Y24312D01*
X163641Y24685D01*
X162981Y24958D01*
X162287Y25125D01*
X161575Y25181D01*
X160863Y25125D01*
X160168Y24958D01*
X159509Y24685D01*
X158900Y24312D01*
X158357Y23848D01*
X157893Y23305D01*
X157520Y22696D01*
X157247Y22036D01*
X157080Y21342D01*
X157024Y20630D01*
X157080Y19918D01*
X157247Y19224D01*
X157520Y18564D01*
X157893Y17955D01*
X158357Y17412D01*
X158575Y17226D01*
Y14034D01*
X158357Y13848D01*
X157893Y13305D01*
X157520Y12696D01*
X157247Y12036D01*
X157080Y11342D01*
X157024Y10630D01*
X157080Y9918D01*
X157247Y9224D01*
X157520Y8564D01*
X157893Y7955D01*
X158357Y7412D01*
X158900Y6948D01*
X159509Y6575D01*
X160168Y6302D01*
X160863Y6135D01*
X161575Y6079D01*
X162287Y6135D01*
X162981Y6302D01*
X163641Y6575D01*
X164250Y6948D01*
X164793Y7412D01*
X165257Y7955D01*
X165352Y8111D01*
Y2362D01*
G37*
G36*
X151568Y75540D02*X148591Y72563D01*
X144128D01*
X144191Y72602D01*
X144371Y72755D01*
X144409Y72800D01*
X148884Y77274D01*
X149137Y77058D01*
X149512Y76828D01*
X149919Y76660D01*
X150348Y76557D01*
X150787Y76522D01*
X151227Y76557D01*
X151568Y76639D01*
Y75540D01*
G37*
G36*
X141568Y54842D02*X141698Y54762D01*
X141916Y54671D01*
X142146Y54616D01*
X142381Y54598D01*
X142440Y54602D01*
X143106D01*
X142837Y54438D01*
X142502Y54151D01*
X142216Y53816D01*
X141995Y53455D01*
X141568Y53454D01*
Y54842D01*
G37*
G36*
X144681Y69563D02*X149154D01*
X149213Y69558D01*
X149448Y69577D01*
X149448Y69577D01*
X149678Y69632D01*
X149896Y69722D01*
X150097Y69846D01*
X150277Y69999D01*
X150315Y70044D01*
X151568Y71297D01*
Y70815D01*
X150556Y69803D01*
X150511Y69765D01*
X150358Y69585D01*
X150234Y69384D01*
X150144Y69166D01*
X150089Y68936D01*
X150089Y68936D01*
X150070Y68701D01*
X150075Y68642D01*
Y61842D01*
X145835Y57602D01*
X144681D01*
Y57625D01*
X144685Y57624D01*
X145124Y57659D01*
X145553Y57762D01*
X145960Y57931D01*
X146336Y58161D01*
X146671Y58447D01*
X146957Y58782D01*
X147188Y59158D01*
X147356Y59565D01*
X147459Y59994D01*
X147485Y60433D01*
X147459Y60872D01*
X147356Y61301D01*
X147188Y61708D01*
X146957Y62084D01*
X146671Y62419D01*
X146499Y62566D01*
X146517Y62609D01*
X146539Y62701D01*
X146545Y62795D01*
X146539Y68795D01*
X146517Y68887D01*
X146481Y68974D01*
X146432Y69055D01*
X146370Y69126D01*
X146299Y69188D01*
X146218Y69237D01*
X146131Y69273D01*
X146039Y69295D01*
X145945Y69301D01*
X144681Y69298D01*
Y69563D01*
G37*
G36*
X141568D02*X144681D01*
Y69298D01*
X143489Y69295D01*
X143397Y69273D01*
X143309Y69237D01*
X143229Y69188D01*
X143157Y69126D01*
X143096Y69055D01*
X143046Y68974D01*
X143010Y68887D01*
X142988Y68795D01*
X142983Y68701D01*
X142988Y62701D01*
X142995Y62672D01*
X142699Y62419D01*
X142413Y62084D01*
X142183Y61708D01*
X142014Y61301D01*
X141911Y60872D01*
X141876Y60433D01*
X141911Y59994D01*
X142014Y59565D01*
X142183Y59158D01*
X142413Y58782D01*
X142699Y58447D01*
X143034Y58161D01*
X143410Y57931D01*
X143817Y57762D01*
X144246Y57659D01*
X144681Y57625D01*
Y57602D01*
X143002D01*
X141568Y59037D01*
Y69563D01*
G37*
G36*
X144764Y100272D02*X151568D01*
Y82023D01*
X151227Y82105D01*
X150787Y82139D01*
X150348Y82105D01*
X149919Y82002D01*
X149512Y81833D01*
X149137Y81603D01*
X148801Y81317D01*
X148515Y80982D01*
X148385Y80769D01*
X148354Y80762D01*
X148136Y80671D01*
X147934Y80548D01*
X147934Y80548D01*
X147755Y80395D01*
X147717Y80350D01*
X146813Y79446D01*
X146869Y79679D01*
X146894Y80118D01*
X146869Y80557D01*
X146766Y80986D01*
X146597Y81393D01*
X146367Y81769D01*
X146080Y82104D01*
X145745Y82390D01*
X145370Y82621D01*
X144962Y82789D01*
X144764Y82837D01*
Y83458D01*
X146039Y83461D01*
X146131Y83483D01*
X146218Y83519D01*
X146299Y83568D01*
X146370Y83630D01*
X146432Y83701D01*
X146481Y83782D01*
X146517Y83869D01*
X146539Y83961D01*
X146545Y84055D01*
X146539Y90055D01*
X146517Y90147D01*
X146481Y90234D01*
X146432Y90314D01*
X146370Y90386D01*
X146299Y90448D01*
X146218Y90497D01*
X146131Y90533D01*
X146039Y90555D01*
X145945Y90561D01*
X144764Y90558D01*
Y100272D01*
G37*
G36*
X141568D02*X144764D01*
Y90558D01*
X143489Y90555D01*
X143397Y90533D01*
X143309Y90497D01*
X143229Y90448D01*
X143157Y90386D01*
X143096Y90314D01*
X143046Y90234D01*
X143010Y90147D01*
X142988Y90055D01*
X142983Y89961D01*
X142988Y83961D01*
X143010Y83869D01*
X143046Y83782D01*
X143096Y83701D01*
X143157Y83630D01*
X143229Y83568D01*
X143309Y83519D01*
X143397Y83483D01*
X143489Y83461D01*
X143583Y83455D01*
X144764Y83458D01*
Y82837D01*
X144534Y82892D01*
X144094Y82927D01*
X143655Y82892D01*
X143227Y82789D01*
X142819Y82621D01*
X142444Y82390D01*
X142108Y82104D01*
X141822Y81769D01*
X141592Y81393D01*
X141568Y81335D01*
Y100272D01*
G37*
G36*
Y129331D02*X151568D01*
Y125180D01*
X150863Y125125D01*
X150168Y124958D01*
X149509Y124685D01*
X148900Y124312D01*
X148357Y123848D01*
X147893Y123305D01*
X147520Y122696D01*
X147247Y122036D01*
X147080Y121342D01*
X147024Y120630D01*
X147080Y119918D01*
X147247Y119224D01*
X147520Y118564D01*
X147893Y117955D01*
X148357Y117412D01*
X148575Y117226D01*
Y114034D01*
X148357Y113848D01*
X147893Y113305D01*
X147520Y112696D01*
X147247Y112036D01*
X147080Y111342D01*
X147024Y110630D01*
X147080Y109918D01*
X147247Y109224D01*
X147520Y108564D01*
X147893Y107955D01*
X148357Y107412D01*
X148900Y106948D01*
X149509Y106575D01*
X150168Y106302D01*
X150863Y106135D01*
X151568Y106079D01*
Y105240D01*
X141568D01*
Y106079D01*
X141575Y106079D01*
X142287Y106135D01*
X142981Y106302D01*
X143641Y106575D01*
X144250Y106948D01*
X144793Y107412D01*
X145257Y107955D01*
X145630Y108564D01*
X145903Y109224D01*
X146070Y109918D01*
X146112Y110630D01*
X146070Y111342D01*
X145903Y112036D01*
X145630Y112696D01*
X145257Y113305D01*
X144793Y113848D01*
X144575Y114034D01*
Y117226D01*
X144793Y117412D01*
X145257Y117955D01*
X145630Y118564D01*
X145903Y119224D01*
X146070Y119918D01*
X146112Y120630D01*
X146070Y121342D01*
X145903Y122036D01*
X145630Y122696D01*
X145257Y123305D01*
X144793Y123848D01*
X144250Y124312D01*
X143641Y124685D01*
X142981Y124958D01*
X142287Y125125D01*
X141575Y125181D01*
X141568Y125180D01*
Y129331D01*
G37*
G36*
X151568Y2362D02*X141568D01*
Y6079D01*
X141575Y6079D01*
X142287Y6135D01*
X142981Y6302D01*
X143641Y6575D01*
X144250Y6948D01*
X144793Y7412D01*
X145257Y7955D01*
X145630Y8564D01*
X145903Y9224D01*
X146070Y9918D01*
X146112Y10630D01*
X146070Y11342D01*
X145903Y12036D01*
X145630Y12696D01*
X145257Y13305D01*
X144793Y13848D01*
X144575Y14034D01*
Y17226D01*
X144793Y17412D01*
X145257Y17955D01*
X145630Y18564D01*
X145903Y19224D01*
X146070Y19918D01*
X146112Y20630D01*
X146070Y21342D01*
X145903Y22036D01*
X145630Y22696D01*
X145257Y23305D01*
X144793Y23848D01*
X144250Y24312D01*
X143641Y24685D01*
X142981Y24958D01*
X142287Y25125D01*
X141575Y25181D01*
X141568Y25180D01*
Y33946D01*
X143266Y33951D01*
X143419Y33988D01*
X143565Y34048D01*
X143699Y34130D01*
X143819Y34233D01*
X143921Y34352D01*
X143966Y34426D01*
X144036D01*
X144095Y34421D01*
X144330Y34440D01*
X144331Y34440D01*
X144560Y34495D01*
X144778Y34585D01*
X144980Y34709D01*
X145159Y34862D01*
X145198Y34907D01*
X146291Y36000D01*
X147396D01*
X147361Y35914D01*
X147339Y35822D01*
X147333Y35728D01*
X147339Y33863D01*
X147361Y33771D01*
X147397Y33683D01*
X147446Y33603D01*
X147508Y33531D01*
X147579Y33470D01*
X147660Y33420D01*
X147747Y33384D01*
X147839Y33362D01*
X147933Y33357D01*
X149405Y33362D01*
X149497Y33384D01*
X149584Y33420D01*
X149665Y33470D01*
X149737Y33531D01*
X149798Y33603D01*
X149847Y33683D01*
X149883Y33771D01*
X149905Y33863D01*
X149911Y33957D01*
X149905Y35822D01*
X149883Y35914D01*
X149847Y36002D01*
X149798Y36082D01*
X149737Y36154D01*
X149665Y36215D01*
X149584Y36265D01*
X149497Y36301D01*
X149449Y36312D01*
X149468Y36324D01*
X149540Y36385D01*
X149601Y36457D01*
X149650Y36538D01*
X149687Y36625D01*
X149709Y36717D01*
X149714Y36811D01*
X149712Y37256D01*
X149714Y37265D01*
X149733Y37500D01*
X149714Y37735D01*
X149711Y37751D01*
X149709Y38283D01*
X149687Y38375D01*
X149650Y38462D01*
X149637Y38484D01*
X149650Y38506D01*
X149687Y38594D01*
X149709Y38685D01*
X149714Y38780D01*
X149712Y39225D01*
X149714Y39233D01*
X149733Y39469D01*
X149714Y39704D01*
X149711Y39720D01*
X149709Y40252D01*
X149687Y40343D01*
X149650Y40431D01*
X149601Y40511D01*
X149540Y40583D01*
X149490Y40625D01*
X149569Y40754D01*
X149659Y40972D01*
X149714Y41202D01*
X149733Y41437D01*
X149714Y41672D01*
X149659Y41902D01*
X149569Y42120D01*
X149446Y42321D01*
X149292Y42501D01*
X149113Y42654D01*
X148911Y42778D01*
X148693Y42868D01*
X148464Y42923D01*
X148228Y42937D01*
X146874D01*
X146957Y43034D01*
X147188Y43410D01*
X147356Y43817D01*
X147459Y44246D01*
X147485Y44685D01*
X147459Y45124D01*
X147356Y45553D01*
X147188Y45960D01*
X146957Y46336D01*
X146671Y46671D01*
X146489Y46827D01*
X147016D01*
X149091Y44753D01*
Y44094D01*
X149104Y43859D01*
X149160Y43630D01*
X149250Y43411D01*
X149373Y43210D01*
X149527Y43031D01*
X149706Y42877D01*
X149907Y42754D01*
X150126Y42664D01*
X150355Y42608D01*
X150591Y42590D01*
X150826Y42608D01*
X151056Y42664D01*
X151274Y42754D01*
X151402Y42833D01*
X151445Y42783D01*
X151516Y42722D01*
X151568Y42690D01*
Y36247D01*
X151516Y36215D01*
X151445Y36154D01*
X151383Y36082D01*
X151334Y36002D01*
X151298Y35914D01*
X151276Y35822D01*
X151270Y35728D01*
X151276Y33863D01*
X151298Y33771D01*
X151334Y33683D01*
X151383Y33603D01*
X151445Y33531D01*
X151516Y33470D01*
X151568Y33438D01*
Y25180D01*
X150863Y25125D01*
X150168Y24958D01*
X149509Y24685D01*
X148900Y24312D01*
X148357Y23848D01*
X147893Y23305D01*
X147520Y22696D01*
X147247Y22036D01*
X147080Y21342D01*
X147024Y20630D01*
X147080Y19918D01*
X147247Y19224D01*
X147520Y18564D01*
X147893Y17955D01*
X148357Y17412D01*
X148575Y17226D01*
Y14034D01*
X148357Y13848D01*
X147893Y13305D01*
X147520Y12696D01*
X147247Y12036D01*
X147080Y11342D01*
X147024Y10630D01*
X147080Y9918D01*
X147247Y9224D01*
X147520Y8564D01*
X147893Y7955D01*
X148357Y7412D01*
X148900Y6948D01*
X149509Y6575D01*
X150168Y6302D01*
X150863Y6135D01*
X151568Y6079D01*
Y2362D01*
G37*
G36*
X37559Y34582D02*X37610Y34484D01*
X37865Y34084D01*
X38154Y33707D01*
X38475Y33357D01*
X38825Y33037D01*
X39201Y32748D01*
X39602Y32492D01*
X39954Y32309D01*
X39955Y32128D01*
X39992Y31975D01*
X40052Y31829D01*
X40134Y31695D01*
X40237Y31575D01*
X40356Y31473D01*
X40447Y31418D01*
X40373Y31240D01*
X40180Y30869D01*
X39955Y30515D01*
X39700Y30183D01*
X39417Y29874D01*
X39108Y29591D01*
X38776Y29337D01*
X38423Y29112D01*
X38051Y28918D01*
X37665Y28758D01*
X37559Y28725D01*
Y34582D01*
G37*
G36*
Y87013D02*X48850Y98303D01*
X57402D01*
X37559Y78460D01*
Y87013D01*
G37*
G36*
Y95871D02*X41960Y100272D01*
X46576D01*
X37559Y91255D01*
Y95871D01*
G37*
G36*
Y105398D02*X40202Y102756D01*
X37559Y100113D01*
Y105398D01*
G37*
G36*
X131568Y129331D02*X141568D01*
Y125180D01*
X140863Y125125D01*
X140168Y124958D01*
X139509Y124685D01*
X138900Y124312D01*
X138357Y123848D01*
X137893Y123305D01*
X137520Y122696D01*
X137247Y122036D01*
X137080Y121342D01*
X137024Y120630D01*
X137080Y119918D01*
X137247Y119224D01*
X137520Y118564D01*
X137893Y117955D01*
X138357Y117412D01*
X138575Y117226D01*
Y114034D01*
X138357Y113848D01*
X137893Y113305D01*
X137520Y112696D01*
X137247Y112036D01*
X137080Y111342D01*
X137024Y110630D01*
X137080Y109918D01*
X137247Y109224D01*
X137520Y108564D01*
X137893Y107955D01*
X138357Y107412D01*
X138900Y106948D01*
X139509Y106575D01*
X140168Y106302D01*
X140863Y106135D01*
X141568Y106079D01*
Y105240D01*
X131568D01*
Y106079D01*
X131575Y106079D01*
X132287Y106135D01*
X132981Y106302D01*
X133641Y106575D01*
X134250Y106948D01*
X134793Y107412D01*
X135257Y107955D01*
X135630Y108564D01*
X135903Y109224D01*
X136070Y109918D01*
X136112Y110630D01*
X136070Y111342D01*
X135903Y112036D01*
X135630Y112696D01*
X135257Y113305D01*
X134793Y113848D01*
X134575Y114034D01*
Y117226D01*
X134793Y117412D01*
X135257Y117955D01*
X135630Y118564D01*
X135903Y119224D01*
X136070Y119918D01*
X136112Y120630D01*
X136070Y121342D01*
X135903Y122036D01*
X135630Y122696D01*
X135257Y123305D01*
X134793Y123848D01*
X134250Y124312D01*
X133641Y124685D01*
X132981Y124958D01*
X132287Y125125D01*
X131575Y125181D01*
X131568Y125180D01*
Y129331D01*
G37*
G36*
X121568D02*X131568D01*
Y125180D01*
X130863Y125125D01*
X130168Y124958D01*
X129509Y124685D01*
X128900Y124312D01*
X128357Y123848D01*
X127893Y123305D01*
X127520Y122696D01*
X127247Y122036D01*
X127080Y121342D01*
X127024Y120630D01*
X127080Y119918D01*
X127247Y119224D01*
X127520Y118564D01*
X127893Y117955D01*
X128357Y117412D01*
X128575Y117226D01*
Y114034D01*
X128357Y113848D01*
X127893Y113305D01*
X127520Y112696D01*
X127247Y112036D01*
X127080Y111342D01*
X127024Y110630D01*
X127080Y109918D01*
X127247Y109224D01*
X127520Y108564D01*
X127893Y107955D01*
X128357Y107412D01*
X128900Y106948D01*
X129509Y106575D01*
X130168Y106302D01*
X130863Y106135D01*
X131568Y106079D01*
Y105240D01*
X121568D01*
Y106079D01*
X121575Y106079D01*
X122287Y106135D01*
X122981Y106302D01*
X123641Y106575D01*
X124250Y106948D01*
X124793Y107412D01*
X125257Y107955D01*
X125630Y108564D01*
X125903Y109224D01*
X126070Y109918D01*
X126112Y110630D01*
X126070Y111342D01*
X125903Y112036D01*
X125630Y112696D01*
X125257Y113305D01*
X124793Y113848D01*
X124575Y114034D01*
Y117226D01*
X124793Y117412D01*
X125257Y117955D01*
X125630Y118564D01*
X125903Y119224D01*
X126070Y119918D01*
X126112Y120630D01*
X126070Y121342D01*
X125903Y122036D01*
X125630Y122696D01*
X125257Y123305D01*
X124793Y123848D01*
X124250Y124312D01*
X123641Y124685D01*
X122981Y124958D01*
X122287Y125125D01*
X121575Y125181D01*
X121568Y125180D01*
Y129331D01*
G37*
G36*
X111568D02*X121568D01*
Y125180D01*
X120863Y125125D01*
X120168Y124958D01*
X119509Y124685D01*
X118900Y124312D01*
X118357Y123848D01*
X117893Y123305D01*
X117520Y122696D01*
X117247Y122036D01*
X117080Y121342D01*
X117024Y120630D01*
X117080Y119918D01*
X117247Y119224D01*
X117520Y118564D01*
X117893Y117955D01*
X118357Y117412D01*
X118575Y117226D01*
Y114034D01*
X118357Y113848D01*
X117893Y113305D01*
X117520Y112696D01*
X117247Y112036D01*
X117080Y111342D01*
X117024Y110630D01*
X117080Y109918D01*
X117247Y109224D01*
X117520Y108564D01*
X117893Y107955D01*
X118357Y107412D01*
X118900Y106948D01*
X119509Y106575D01*
X120168Y106302D01*
X120863Y106135D01*
X121568Y106079D01*
Y105240D01*
X111568D01*
Y106079D01*
X111575Y106079D01*
X112287Y106135D01*
X112981Y106302D01*
X113641Y106575D01*
X114250Y106948D01*
X114793Y107412D01*
X115257Y107955D01*
X115630Y108564D01*
X115903Y109224D01*
X116070Y109918D01*
X116112Y110630D01*
X116070Y111342D01*
X115903Y112036D01*
X115630Y112696D01*
X115257Y113305D01*
X114793Y113848D01*
X114575Y114034D01*
Y117226D01*
X114793Y117412D01*
X115257Y117955D01*
X115630Y118564D01*
X115903Y119224D01*
X116070Y119918D01*
X116112Y120630D01*
X116070Y121342D01*
X115903Y122036D01*
X115630Y122696D01*
X115257Y123305D01*
X114793Y123848D01*
X114250Y124312D01*
X113641Y124685D01*
X112981Y124958D01*
X112287Y125125D01*
X111575Y125181D01*
X111568Y125180D01*
Y129331D01*
G37*
G36*
X101568D02*X111568D01*
Y125180D01*
X110863Y125125D01*
X110168Y124958D01*
X109509Y124685D01*
X108900Y124312D01*
X108357Y123848D01*
X107893Y123305D01*
X107520Y122696D01*
X107247Y122036D01*
X107080Y121342D01*
X107024Y120630D01*
X107080Y119918D01*
X107247Y119224D01*
X107520Y118564D01*
X107893Y117955D01*
X108357Y117412D01*
X108575Y117226D01*
Y114034D01*
X108357Y113848D01*
X107893Y113305D01*
X107520Y112696D01*
X107247Y112036D01*
X107080Y111342D01*
X107024Y110630D01*
X107080Y109918D01*
X107247Y109224D01*
X107520Y108564D01*
X107893Y107955D01*
X108357Y107412D01*
X108900Y106948D01*
X109509Y106575D01*
X110168Y106302D01*
X110863Y106135D01*
X111568Y106079D01*
Y105240D01*
X101568D01*
Y106079D01*
X101575Y106079D01*
X102287Y106135D01*
X102981Y106302D01*
X103641Y106575D01*
X104250Y106948D01*
X104793Y107412D01*
X105257Y107955D01*
X105630Y108564D01*
X105903Y109224D01*
X106070Y109918D01*
X106112Y110630D01*
X106070Y111342D01*
X105903Y112036D01*
X105630Y112696D01*
X105257Y113305D01*
X104793Y113848D01*
X104575Y114034D01*
Y117226D01*
X104793Y117412D01*
X105257Y117955D01*
X105630Y118564D01*
X105903Y119224D01*
X106070Y119918D01*
X106112Y120630D01*
X106070Y121342D01*
X105903Y122036D01*
X105630Y122696D01*
X105257Y123305D01*
X104793Y123848D01*
X104250Y124312D01*
X103641Y124685D01*
X102981Y124958D01*
X102287Y125125D01*
X101575Y125181D01*
X101568Y125180D01*
Y129331D01*
G37*
G36*
X91568D02*X101568D01*
Y125180D01*
X100863Y125125D01*
X100168Y124958D01*
X99509Y124685D01*
X98900Y124312D01*
X98357Y123848D01*
X97893Y123305D01*
X97520Y122696D01*
X97247Y122036D01*
X97080Y121342D01*
X97024Y120630D01*
X97080Y119918D01*
X97247Y119224D01*
X97520Y118564D01*
X97893Y117955D01*
X98357Y117412D01*
X98575Y117226D01*
Y114034D01*
X98357Y113848D01*
X97893Y113305D01*
X97520Y112696D01*
X97247Y112036D01*
X97080Y111342D01*
X97024Y110630D01*
X97080Y109918D01*
X97247Y109224D01*
X97520Y108564D01*
X97893Y107955D01*
X98357Y107412D01*
X98900Y106948D01*
X99509Y106575D01*
X100168Y106302D01*
X100863Y106135D01*
X101568Y106079D01*
Y105240D01*
X91568D01*
Y106079D01*
X91575Y106079D01*
X92287Y106135D01*
X92981Y106302D01*
X93641Y106575D01*
X94250Y106948D01*
X94793Y107412D01*
X95257Y107955D01*
X95630Y108564D01*
X95903Y109224D01*
X96070Y109918D01*
X96112Y110630D01*
X96070Y111342D01*
X95903Y112036D01*
X95630Y112696D01*
X95257Y113305D01*
X94793Y113848D01*
X94575Y114034D01*
Y117226D01*
X94793Y117412D01*
X95257Y117955D01*
X95630Y118564D01*
X95903Y119224D01*
X96070Y119918D01*
X96112Y120630D01*
X96070Y121342D01*
X95903Y122036D01*
X95630Y122696D01*
X95257Y123305D01*
X94793Y123848D01*
X94250Y124312D01*
X93641Y124685D01*
X92981Y124958D01*
X92287Y125125D01*
X91575Y125181D01*
X91568Y125180D01*
Y129331D01*
G37*
G36*
X81568D02*X91568D01*
Y125180D01*
X90863Y125125D01*
X90168Y124958D01*
X89509Y124685D01*
X88900Y124312D01*
X88357Y123848D01*
X87893Y123305D01*
X87520Y122696D01*
X87247Y122036D01*
X87080Y121342D01*
X87024Y120630D01*
X87080Y119918D01*
X87247Y119224D01*
X87520Y118564D01*
X87893Y117955D01*
X88357Y117412D01*
X88575Y117226D01*
Y114034D01*
X88357Y113848D01*
X87893Y113305D01*
X87520Y112696D01*
X87247Y112036D01*
X87080Y111342D01*
X87024Y110630D01*
X87080Y109918D01*
X87247Y109224D01*
X87520Y108564D01*
X87893Y107955D01*
X88357Y107412D01*
X88900Y106948D01*
X89509Y106575D01*
X90168Y106302D01*
X90863Y106135D01*
X91568Y106079D01*
Y105240D01*
X81568D01*
Y106079D01*
X81575Y106079D01*
X82287Y106135D01*
X82981Y106302D01*
X83641Y106575D01*
X84250Y106948D01*
X84793Y107412D01*
X85257Y107955D01*
X85630Y108564D01*
X85903Y109224D01*
X86070Y109918D01*
X86112Y110630D01*
X86070Y111342D01*
X85903Y112036D01*
X85630Y112696D01*
X85257Y113305D01*
X84793Y113848D01*
X84575Y114034D01*
Y117226D01*
X84793Y117412D01*
X85257Y117955D01*
X85630Y118564D01*
X85903Y119224D01*
X86070Y119918D01*
X86112Y120630D01*
X86070Y121342D01*
X85903Y122036D01*
X85630Y122696D01*
X85257Y123305D01*
X84793Y123848D01*
X84250Y124312D01*
X83641Y124685D01*
X82981Y124958D01*
X82287Y125125D01*
X81575Y125181D01*
X81568Y125180D01*
Y129331D01*
G37*
G36*
X71568D02*X81568D01*
Y125180D01*
X80863Y125125D01*
X80168Y124958D01*
X79509Y124685D01*
X78900Y124312D01*
X78357Y123848D01*
X77893Y123305D01*
X77520Y122696D01*
X77247Y122036D01*
X77080Y121342D01*
X77024Y120630D01*
X77080Y119918D01*
X77247Y119224D01*
X77520Y118564D01*
X77893Y117955D01*
X78357Y117412D01*
X78575Y117226D01*
Y114034D01*
X78357Y113848D01*
X77893Y113305D01*
X77520Y112696D01*
X77247Y112036D01*
X77080Y111342D01*
X77024Y110630D01*
X77080Y109918D01*
X77247Y109224D01*
X77520Y108564D01*
X77893Y107955D01*
X78357Y107412D01*
X78900Y106948D01*
X79509Y106575D01*
X80168Y106302D01*
X80863Y106135D01*
X81568Y106079D01*
Y105240D01*
X71568D01*
Y106079D01*
X71575Y106079D01*
X72287Y106135D01*
X72981Y106302D01*
X73641Y106575D01*
X74250Y106948D01*
X74793Y107412D01*
X75257Y107955D01*
X75630Y108564D01*
X75903Y109224D01*
X76070Y109918D01*
X76112Y110630D01*
X76070Y111342D01*
X75903Y112036D01*
X75630Y112696D01*
X75257Y113305D01*
X74793Y113848D01*
X74575Y114034D01*
Y117226D01*
X74793Y117412D01*
X75257Y117955D01*
X75630Y118564D01*
X75903Y119224D01*
X76070Y119918D01*
X76112Y120630D01*
X76070Y121342D01*
X75903Y122036D01*
X75630Y122696D01*
X75257Y123305D01*
X74793Y123848D01*
X74250Y124312D01*
X73641Y124685D01*
X72981Y124958D01*
X72287Y125125D01*
X71575Y125181D01*
X71568Y125180D01*
Y129331D01*
G37*
G36*
X61568D02*X71568D01*
Y125180D01*
X70863Y125125D01*
X70168Y124958D01*
X69509Y124685D01*
X68900Y124312D01*
X68357Y123848D01*
X67893Y123305D01*
X67520Y122696D01*
X67247Y122036D01*
X67080Y121342D01*
X67024Y120630D01*
X67080Y119918D01*
X67247Y119224D01*
X67520Y118564D01*
X67893Y117955D01*
X68357Y117412D01*
X68575Y117226D01*
Y114034D01*
X68357Y113848D01*
X67893Y113305D01*
X67520Y112696D01*
X67247Y112036D01*
X67080Y111342D01*
X67024Y110630D01*
X67080Y109918D01*
X67247Y109224D01*
X67520Y108564D01*
X67893Y107955D01*
X68357Y107412D01*
X68900Y106948D01*
X69509Y106575D01*
X70168Y106302D01*
X70863Y106135D01*
X71568Y106079D01*
Y105240D01*
X61568D01*
Y106079D01*
X61575Y106079D01*
X62287Y106135D01*
X62981Y106302D01*
X63641Y106575D01*
X64250Y106948D01*
X64793Y107412D01*
X65257Y107955D01*
X65630Y108564D01*
X65903Y109224D01*
X66070Y109918D01*
X66112Y110630D01*
X66070Y111342D01*
X65903Y112036D01*
X65630Y112696D01*
X65257Y113305D01*
X64793Y113848D01*
X64575Y114034D01*
Y117226D01*
X64793Y117412D01*
X65257Y117955D01*
X65630Y118564D01*
X65903Y119224D01*
X66070Y119918D01*
X66112Y120630D01*
X66070Y121342D01*
X65903Y122036D01*
X65630Y122696D01*
X65257Y123305D01*
X64793Y123848D01*
X64250Y124312D01*
X63641Y124685D01*
X62981Y124958D01*
X62287Y125125D01*
X61575Y125181D01*
X61568Y125180D01*
Y129331D01*
G37*
G36*
X51568D02*X61568D01*
Y125180D01*
X60863Y125125D01*
X60168Y124958D01*
X59509Y124685D01*
X58900Y124312D01*
X58357Y123848D01*
X57893Y123305D01*
X57520Y122696D01*
X57247Y122036D01*
X57080Y121342D01*
X57024Y120630D01*
X57080Y119918D01*
X57247Y119224D01*
X57520Y118564D01*
X57893Y117955D01*
X58357Y117412D01*
X58575Y117226D01*
Y114034D01*
X58357Y113848D01*
X57893Y113305D01*
X57520Y112696D01*
X57247Y112036D01*
X57080Y111342D01*
X57024Y110630D01*
X57080Y109918D01*
X57247Y109224D01*
X57520Y108564D01*
X57893Y107955D01*
X58357Y107412D01*
X58900Y106948D01*
X59509Y106575D01*
X60168Y106302D01*
X60863Y106135D01*
X61568Y106079D01*
Y105240D01*
X51568D01*
Y106079D01*
X51575Y106079D01*
X52287Y106135D01*
X52981Y106302D01*
X53641Y106575D01*
X54250Y106948D01*
X54793Y107412D01*
X55257Y107955D01*
X55630Y108564D01*
X55903Y109224D01*
X56070Y109918D01*
X56112Y110630D01*
X56070Y111342D01*
X55903Y112036D01*
X55630Y112696D01*
X55257Y113305D01*
X54793Y113848D01*
X54575Y114034D01*
Y117226D01*
X54793Y117412D01*
X55257Y117955D01*
X55630Y118564D01*
X55903Y119224D01*
X56070Y119918D01*
X56112Y120630D01*
X56070Y121342D01*
X55903Y122036D01*
X55630Y122696D01*
X55257Y123305D01*
X54793Y123848D01*
X54250Y124312D01*
X53641Y124685D01*
X52981Y124958D01*
X52287Y125125D01*
X51575Y125181D01*
X51568Y125180D01*
Y129331D01*
G37*
G36*
X37559D02*X51568D01*
Y125180D01*
X50863Y125125D01*
X50168Y124958D01*
X49509Y124685D01*
X48900Y124312D01*
X48357Y123848D01*
X47893Y123305D01*
X47520Y122696D01*
X47247Y122036D01*
X47080Y121342D01*
X47024Y120630D01*
X47080Y119918D01*
X47247Y119224D01*
X47520Y118564D01*
X47893Y117955D01*
X48357Y117412D01*
X48575Y117226D01*
Y114034D01*
X48357Y113848D01*
X47893Y113305D01*
X47520Y112696D01*
X47247Y112036D01*
X47080Y111342D01*
X47024Y110630D01*
X47080Y109918D01*
X47247Y109224D01*
X47520Y108564D01*
X47893Y107955D01*
X48357Y107412D01*
X48900Y106948D01*
X49509Y106575D01*
X50168Y106302D01*
X50863Y106135D01*
X51568Y106079D01*
Y105240D01*
X41960D01*
X37559Y109641D01*
Y129331D01*
G37*
G36*
X129278Y69563D02*X141568D01*
Y59037D01*
X140952Y59653D01*
X140981Y59687D01*
X140981Y59687D01*
X141104Y59889D01*
X141195Y60107D01*
X141250Y60336D01*
X141268Y60572D01*
X141264Y60630D01*
Y62287D01*
X141299Y62308D01*
X141370Y62370D01*
X141432Y62442D01*
X141481Y62522D01*
X141517Y62609D01*
X141539Y62701D01*
X141545Y62795D01*
X141539Y68795D01*
X141517Y68887D01*
X141481Y68974D01*
X141432Y69055D01*
X141370Y69126D01*
X141299Y69188D01*
X141218Y69237D01*
X141131Y69273D01*
X141039Y69295D01*
X140945Y69301D01*
X138489Y69295D01*
X138397Y69273D01*
X138309Y69237D01*
X138229Y69188D01*
X138157Y69126D01*
X138096Y69055D01*
X138046Y68974D01*
X138010Y68887D01*
X137988Y68795D01*
X137983Y68701D01*
X137988Y62701D01*
X138010Y62609D01*
X138046Y62522D01*
X138096Y62442D01*
X138157Y62370D01*
X138229Y62308D01*
X138264Y62287D01*
Y62016D01*
X137697Y62013D01*
X137544Y61977D01*
X137398Y61916D01*
X137264Y61834D01*
X137144Y61732D01*
X137042Y61612D01*
X136960Y61478D01*
X136900Y61333D01*
X136863Y61180D01*
X136854Y61023D01*
X136863Y58112D01*
X136900Y57959D01*
X136960Y57813D01*
X137042Y57679D01*
X137144Y57559D01*
X137264Y57457D01*
X137398Y57375D01*
X137544Y57315D01*
X137697Y57278D01*
X137854Y57269D01*
X139088Y57274D01*
X141279Y55083D01*
X141317Y55038D01*
X141497Y54885D01*
X141568Y54842D01*
Y53454D01*
X140198Y53450D01*
X140045Y53413D01*
X139900Y53353D01*
X139766Y53270D01*
X139646Y53168D01*
X139566Y53075D01*
X139401D01*
X134961Y57515D01*
X134922Y57560D01*
X134743Y57713D01*
X134541Y57837D01*
X134323Y57927D01*
X134094Y57982D01*
X134093Y57982D01*
X133858Y58001D01*
X133800Y57996D01*
X129278D01*
Y62197D01*
X131039Y62201D01*
X131131Y62223D01*
X131218Y62259D01*
X131299Y62308D01*
X131370Y62370D01*
X131432Y62442D01*
X131481Y62522D01*
X131517Y62609D01*
X131539Y62701D01*
X131545Y62795D01*
X131539Y68795D01*
X131517Y68887D01*
X131481Y68974D01*
X131432Y69055D01*
X131370Y69126D01*
X131299Y69188D01*
X131218Y69237D01*
X131131Y69273D01*
X131039Y69295D01*
X130945Y69301D01*
X129278Y69297D01*
Y69563D01*
G37*
G36*
Y96335D02*X134221D01*
X134327Y96229D01*
Y95413D01*
X134250Y95381D01*
X134116Y95299D01*
X133996Y95197D01*
X133894Y95077D01*
X133812Y94943D01*
X133752Y94797D01*
X133715Y94644D01*
X133706Y94487D01*
X133710Y93257D01*
X133700Y93248D01*
X133547Y93069D01*
X133547Y93069D01*
X133547Y93069D01*
X133547Y93069D01*
X133467Y92939D01*
X133423Y92868D01*
X133423Y92867D01*
X133423Y92867D01*
X133366Y92730D01*
X133333Y92649D01*
X133333Y92649D01*
X133333Y92649D01*
X133296Y92497D01*
X133278Y92420D01*
X133278Y92420D01*
X133278Y92420D01*
X133278Y92419D01*
X133259Y92184D01*
X133264Y92126D01*
Y90469D01*
X133229Y90448D01*
X133157Y90386D01*
X133096Y90314D01*
X133046Y90234D01*
X133010Y90147D01*
X132988Y90055D01*
X132983Y89961D01*
X132988Y83961D01*
X133010Y83869D01*
X133046Y83782D01*
X133096Y83701D01*
X133157Y83630D01*
X133229Y83568D01*
X133309Y83519D01*
X133397Y83483D01*
X133489Y83461D01*
X133583Y83455D01*
X136039Y83461D01*
X136131Y83483D01*
X136218Y83519D01*
X136299Y83568D01*
X136370Y83630D01*
X136432Y83701D01*
X136481Y83782D01*
X136517Y83869D01*
X136539Y83961D01*
X136545Y84055D01*
X136539Y90055D01*
X136517Y90147D01*
X136481Y90234D01*
X136432Y90314D01*
X136370Y90386D01*
X136299Y90448D01*
X136264Y90469D01*
Y90740D01*
X136831Y90742D01*
X136984Y90779D01*
X137129Y90839D01*
X137263Y90922D01*
X137264Y90922D01*
X137264Y90922D01*
X137398Y90839D01*
X137544Y90779D01*
X137697Y90742D01*
X137854Y90733D01*
X138264Y90735D01*
Y90469D01*
X138229Y90448D01*
X138157Y90386D01*
X138096Y90314D01*
X138046Y90234D01*
X138010Y90147D01*
X137988Y90055D01*
X137983Y89961D01*
X137988Y83961D01*
X138010Y83869D01*
X138046Y83782D01*
X138096Y83701D01*
X138157Y83630D01*
X138229Y83568D01*
X138309Y83519D01*
X138397Y83483D01*
X138489Y83461D01*
X138583Y83455D01*
X141039Y83461D01*
X141131Y83483D01*
X141218Y83519D01*
X141299Y83568D01*
X141370Y83630D01*
X141432Y83701D01*
X141481Y83782D01*
X141517Y83869D01*
X141539Y83961D01*
X141545Y84055D01*
X141539Y90055D01*
X141517Y90147D01*
X141481Y90234D01*
X141432Y90314D01*
X141370Y90386D01*
X141299Y90448D01*
X141264Y90469D01*
Y92125D01*
X141268Y92184D01*
X141250Y92419D01*
X141250Y92420D01*
X141195Y92649D01*
X141104Y92867D01*
X140981Y93069D01*
X140828Y93248D01*
X140817Y93257D01*
X140813Y94644D01*
X140776Y94797D01*
X140716Y94943D01*
X140633Y95077D01*
X140531Y95197D01*
X140411Y95299D01*
X140280Y95380D01*
Y98760D01*
X140284Y98819D01*
X140266Y99054D01*
X140211Y99284D01*
X140120Y99502D01*
X139997Y99703D01*
X139843Y99883D01*
X139799Y99921D01*
X139448Y100272D01*
X141568D01*
Y81335D01*
X141423Y80986D01*
X141320Y80557D01*
X141286Y80118D01*
X141320Y79679D01*
X141362Y79507D01*
X139930Y78075D01*
X139714D01*
X139781Y78132D01*
X140068Y78467D01*
X140298Y78843D01*
X140466Y79250D01*
X140569Y79679D01*
X140595Y80118D01*
X140569Y80557D01*
X140466Y80986D01*
X140298Y81393D01*
X140068Y81769D01*
X139781Y82104D01*
X139446Y82390D01*
X139070Y82621D01*
X138663Y82789D01*
X138235Y82892D01*
X137795Y82927D01*
X137356Y82892D01*
X136927Y82789D01*
X136520Y82621D01*
X136144Y82390D01*
X135809Y82104D01*
X135523Y81769D01*
X135431Y81618D01*
X129755D01*
X129278Y82095D01*
Y83457D01*
X131039Y83461D01*
X131131Y83483D01*
X131218Y83519D01*
X131299Y83568D01*
X131370Y83630D01*
X131432Y83701D01*
X131481Y83782D01*
X131517Y83869D01*
X131539Y83961D01*
X131545Y84055D01*
X131539Y90055D01*
X131517Y90147D01*
X131481Y90234D01*
X131432Y90314D01*
X131370Y90386D01*
X131299Y90448D01*
X131264Y90469D01*
Y92283D01*
X131268Y92342D01*
X131250Y92577D01*
X131250Y92577D01*
X131195Y92807D01*
X131104Y93025D01*
X130981Y93226D01*
X130974Y93234D01*
X130970Y94644D01*
X130933Y94797D01*
X130873Y94943D01*
X130791Y95077D01*
X130689Y95197D01*
X130569Y95299D01*
X130435Y95381D01*
X130289Y95441D01*
X130136Y95478D01*
X129979Y95487D01*
X129278Y95484D01*
Y96335D01*
G37*
G36*
X141568Y2362D02*X129278D01*
Y6716D01*
X129509Y6575D01*
X130168Y6302D01*
X130863Y6135D01*
X131575Y6079D01*
X132287Y6135D01*
X132981Y6302D01*
X133641Y6575D01*
X134250Y6948D01*
X134793Y7412D01*
X135257Y7955D01*
X135630Y8564D01*
X135903Y9224D01*
X136070Y9918D01*
X136112Y10630D01*
X136070Y11342D01*
X135903Y12036D01*
X135630Y12696D01*
X135257Y13305D01*
X134793Y13848D01*
X134575Y14034D01*
Y17226D01*
X134793Y17412D01*
X135257Y17955D01*
X135630Y18564D01*
X135903Y19224D01*
X136070Y19918D01*
X136112Y20630D01*
X136070Y21342D01*
X135903Y22036D01*
X135630Y22696D01*
X135257Y23305D01*
X134793Y23848D01*
X134250Y24312D01*
X133641Y24685D01*
X132981Y24958D01*
X132287Y25125D01*
X131575Y25181D01*
X130863Y25125D01*
X130168Y24958D01*
X129509Y24685D01*
X129278Y24544D01*
Y47235D01*
X130546Y48503D01*
X130591Y48542D01*
X130744Y48721D01*
X130744Y48721D01*
X130867Y48922D01*
X130958Y49141D01*
X131013Y49370D01*
X131031Y49606D01*
X131027Y49664D01*
Y50581D01*
X131047Y50614D01*
X131083Y50701D01*
X131105Y50793D01*
X131111Y50887D01*
X131105Y53735D01*
X131083Y53827D01*
X131047Y53914D01*
X130998Y53995D01*
X130936Y54066D01*
X130865Y54128D01*
X130784Y54177D01*
X130697Y54213D01*
X130605Y54235D01*
X130511Y54241D01*
X129278Y54237D01*
Y54996D01*
X133237D01*
X137677Y50556D01*
X137716Y50511D01*
X137895Y50358D01*
X137895Y50358D01*
X138096Y50234D01*
X138315Y50144D01*
X138544Y50089D01*
X138780Y50070D01*
X138838Y50075D01*
X139445D01*
X139462Y50035D01*
X139544Y49901D01*
X139544Y49901D01*
X139544Y49900D01*
X139499Y49827D01*
X137598D01*
X137514Y50179D01*
X137345Y50586D01*
X137115Y50962D01*
X136829Y51297D01*
X136493Y51583D01*
X136118Y51814D01*
X135710Y51982D01*
X135282Y52085D01*
X134843Y52120D01*
X134403Y52085D01*
X133975Y51982D01*
X133567Y51814D01*
X133192Y51583D01*
X132857Y51297D01*
X132570Y50962D01*
X132340Y50586D01*
X132171Y50179D01*
X132068Y49750D01*
X132034Y49311D01*
X132068Y48872D01*
X132171Y48443D01*
X132340Y48036D01*
X132570Y47660D01*
X132857Y47325D01*
X133192Y47039D01*
X133499Y46850D01*
X133192Y46662D01*
X132857Y46376D01*
X132570Y46041D01*
X132340Y45665D01*
X132171Y45258D01*
X132068Y44829D01*
X132034Y44390D01*
X132068Y43950D01*
X132171Y43522D01*
X132340Y43115D01*
X132570Y42739D01*
X132857Y42404D01*
X133192Y42118D01*
X133499Y41929D01*
X133192Y41741D01*
X132857Y41455D01*
X132570Y41119D01*
X132340Y40744D01*
X132171Y40336D01*
X132068Y39908D01*
X132034Y39469D01*
X132068Y39029D01*
X132171Y38601D01*
X132340Y38193D01*
X132570Y37818D01*
X132857Y37482D01*
X133192Y37196D01*
X133567Y36966D01*
X133975Y36797D01*
X134403Y36694D01*
X134843Y36660D01*
X135282Y36694D01*
X135710Y36797D01*
X135831Y36847D01*
X135809Y36829D01*
X135523Y36493D01*
X135293Y36118D01*
X135124Y35710D01*
X135021Y35282D01*
X134987Y34843D01*
X135021Y34403D01*
X135124Y33975D01*
X135293Y33567D01*
X135523Y33192D01*
X135809Y32857D01*
X136144Y32570D01*
X136520Y32340D01*
X136927Y32171D01*
X137356Y32068D01*
X137795Y32034D01*
X138235Y32068D01*
X138663Y32171D01*
X139070Y32340D01*
X139446Y32570D01*
X139781Y32857D01*
X140068Y33192D01*
X140298Y33567D01*
X140453Y33942D01*
X141568Y33946D01*
Y25180D01*
X140863Y25125D01*
X140168Y24958D01*
X139509Y24685D01*
X138900Y24312D01*
X138357Y23848D01*
X137893Y23305D01*
X137520Y22696D01*
X137247Y22036D01*
X137080Y21342D01*
X137024Y20630D01*
X137080Y19918D01*
X137247Y19224D01*
X137520Y18564D01*
X137893Y17955D01*
X138357Y17412D01*
X138575Y17226D01*
Y14034D01*
X138357Y13848D01*
X137893Y13305D01*
X137520Y12696D01*
X137247Y12036D01*
X137080Y11342D01*
X137024Y10630D01*
X137080Y9918D01*
X137247Y9224D01*
X137520Y8564D01*
X137893Y7955D01*
X138357Y7412D01*
X138900Y6948D01*
X139509Y6575D01*
X140168Y6302D01*
X140863Y6135D01*
X141568Y6079D01*
Y2362D01*
G37*
G36*
X129278Y54237D02*X128449Y54235D01*
X128357Y54213D01*
X128270Y54177D01*
X128189Y54128D01*
X128117Y54066D01*
X128056Y53995D01*
X128006Y53914D01*
X127970Y53827D01*
X127948Y53735D01*
X127943Y53641D01*
X127948Y50793D01*
X127970Y50701D01*
X128006Y50614D01*
X128027Y50580D01*
Y50227D01*
X125516Y47716D01*
Y53906D01*
X126606Y54996D01*
X129278D01*
Y54237D01*
G37*
G36*
X93780Y75054D02*X94005Y75318D01*
X94097Y75469D01*
X119064D01*
X124488Y70044D01*
X124527Y69999D01*
X124706Y69846D01*
X124706Y69846D01*
X124907Y69722D01*
X125126Y69632D01*
X125355Y69577D01*
X125591Y69558D01*
X125649Y69563D01*
X129278D01*
Y69297D01*
X128489Y69295D01*
X128397Y69273D01*
X128309Y69237D01*
X128229Y69188D01*
X128157Y69126D01*
X128096Y69055D01*
X128046Y68974D01*
X128010Y68887D01*
X127988Y68795D01*
X127983Y68701D01*
X127984Y66854D01*
X126380D01*
X126288Y67005D01*
X126002Y67340D01*
X125667Y67627D01*
X125291Y67857D01*
X124884Y68026D01*
X124455Y68128D01*
X124016Y68163D01*
X123576Y68128D01*
X123148Y68026D01*
X122741Y67857D01*
X122365Y67627D01*
X122030Y67340D01*
X121744Y67005D01*
X121513Y66629D01*
X121345Y66222D01*
X121242Y65794D01*
X121207Y65354D01*
X121242Y64915D01*
X121345Y64486D01*
X121513Y64079D01*
X121744Y63703D01*
X122030Y63368D01*
X122365Y63082D01*
X122741Y62852D01*
X123148Y62683D01*
X123576Y62580D01*
X124016Y62546D01*
X124455Y62580D01*
X124884Y62683D01*
X125291Y62852D01*
X125667Y63082D01*
X126002Y63368D01*
X126288Y63703D01*
X126380Y63854D01*
X127987D01*
X127988Y62701D01*
X128010Y62609D01*
X128046Y62522D01*
X128096Y62442D01*
X128157Y62370D01*
X128229Y62308D01*
X128309Y62259D01*
X128397Y62223D01*
X128489Y62201D01*
X128583Y62195D01*
X129278Y62197D01*
Y57996D01*
X126043D01*
X125984Y58001D01*
X125749Y57982D01*
X125519Y57927D01*
X125301Y57837D01*
X125100Y57713D01*
X125100Y57713D01*
X124920Y57560D01*
X124882Y57515D01*
X122997Y55630D01*
X122952Y55591D01*
X122798Y55412D01*
X122675Y55211D01*
X122585Y54993D01*
X122530Y54763D01*
X122530Y54763D01*
X122511Y54528D01*
X122516Y54469D01*
Y47563D01*
X120138D01*
X120079Y47568D01*
X119843Y47549D01*
X119614Y47494D01*
X119485Y47441D01*
X119456Y47429D01*
X119020Y47865D01*
Y50030D01*
X119094Y50075D01*
X119214Y50177D01*
X119316Y50297D01*
X119398Y50431D01*
X119458Y50577D01*
X119495Y50730D01*
X119504Y50887D01*
X119495Y53798D01*
X119458Y53951D01*
X119398Y54096D01*
X119316Y54230D01*
X119214Y54350D01*
X119094Y54452D01*
X119020Y54498D01*
Y56043D01*
X119025Y56102D01*
X119006Y56337D01*
Y56337D01*
X119006Y56337D01*
X118951Y56566D01*
X118951Y56567D01*
X118870Y56763D01*
X118861Y56785D01*
X118861Y56785D01*
X118861Y56785D01*
X118856Y56792D01*
X118916Y57041D01*
X118942Y57480D01*
X118916Y57920D01*
X118813Y58348D01*
X118644Y58755D01*
X118414Y59131D01*
X118128Y59466D01*
X117793Y59753D01*
X117417Y59983D01*
X117010Y60151D01*
X116581Y60254D01*
X116142Y60289D01*
X115702Y60254D01*
X115530Y60213D01*
X111338Y64405D01*
X111300Y64450D01*
X111121Y64603D01*
X111121Y64603D01*
X111121Y64603D01*
X111121Y64603D01*
X110958Y64702D01*
X110919Y64726D01*
X110919Y64726D01*
X110919Y64726D01*
X110798Y64777D01*
X110701Y64817D01*
X110701Y64817D01*
X110701Y64817D01*
X110557Y64851D01*
X110472Y64872D01*
X110472Y64872D01*
X110472Y64872D01*
X110471Y64872D01*
X110236Y64890D01*
X110177Y64886D01*
X103808D01*
X103763Y64959D01*
X103661Y65079D01*
X103541Y65181D01*
X103407Y65264D01*
X103262Y65324D01*
X103109Y65361D01*
X102952Y65370D01*
X100041Y65361D01*
X99888Y65324D01*
X99742Y65264D01*
X99608Y65181D01*
X99489Y65079D01*
X99386Y64959D01*
X99341Y64886D01*
X98312D01*
X98312Y64890D01*
X98311Y65409D01*
X98289Y65501D01*
X98253Y65588D01*
X98203Y65669D01*
X98142Y65741D01*
X98070Y65802D01*
X97990Y65851D01*
X97903Y65887D01*
X97827Y65906D01*
X97903Y65924D01*
X97990Y65960D01*
X98070Y66009D01*
X98142Y66070D01*
X98203Y66142D01*
X98253Y66223D01*
X98289Y66310D01*
X98311Y66402D01*
X98317Y66496D01*
X98311Y69740D01*
X98289Y69832D01*
X98253Y69919D01*
X98203Y69999D01*
X98142Y70071D01*
X98070Y70133D01*
X97990Y70182D01*
X97903Y70218D01*
X97811Y70240D01*
X97717Y70246D01*
X93780Y70243D01*
Y75054D01*
G37*
G36*
Y96335D02*X129278D01*
Y95484D01*
X127854Y95478D01*
X127701Y95441D01*
X127556Y95381D01*
X127422Y95299D01*
X127302Y95197D01*
X127200Y95077D01*
X127118Y94943D01*
X127057Y94797D01*
X127021Y94644D01*
X127011Y94487D01*
X127021Y91576D01*
X127057Y91423D01*
X127118Y91278D01*
X127200Y91144D01*
X127302Y91024D01*
X127422Y90922D01*
X127556Y90839D01*
X127701Y90779D01*
X127854Y90742D01*
X128011Y90733D01*
X128264Y90734D01*
Y90469D01*
X128229Y90448D01*
X128157Y90386D01*
X128096Y90314D01*
X128046Y90234D01*
X128010Y90147D01*
X127988Y90055D01*
X127983Y89961D01*
X127988Y83961D01*
X128010Y83869D01*
X128046Y83782D01*
X128096Y83701D01*
X128157Y83630D01*
X128229Y83568D01*
X128309Y83519D01*
X128397Y83483D01*
X128489Y83461D01*
X128583Y83455D01*
X129278Y83457D01*
Y82095D01*
X119212Y92161D01*
X119174Y92206D01*
X118995Y92359D01*
X118793Y92482D01*
X118575Y92573D01*
X118346Y92628D01*
X118345Y92628D01*
X118110Y92646D01*
X118052Y92642D01*
X94097D01*
X94005Y92793D01*
X93780Y93056D01*
Y96335D01*
G37*
G36*
X129278Y2362D02*X93780D01*
Y6660D01*
X94250Y6948D01*
X94793Y7412D01*
X95257Y7955D01*
X95630Y8564D01*
X95903Y9224D01*
X96070Y9918D01*
X96112Y10630D01*
X96070Y11342D01*
X95903Y12036D01*
X95630Y12696D01*
X95257Y13305D01*
X94793Y13848D01*
X94575Y14034D01*
Y17226D01*
X94793Y17412D01*
X95257Y17955D01*
X95630Y18564D01*
X95903Y19224D01*
X96070Y19918D01*
X96112Y20630D01*
X96070Y21342D01*
X95903Y22036D01*
X95630Y22696D01*
X95257Y23305D01*
X94793Y23848D01*
X94250Y24312D01*
X93780Y24600D01*
Y26453D01*
X98788D01*
X99878Y25363D01*
Y24838D01*
X99509Y24685D01*
X98900Y24312D01*
X98357Y23848D01*
X97893Y23305D01*
X97520Y22696D01*
X97247Y22036D01*
X97080Y21342D01*
X97024Y20630D01*
X97080Y19918D01*
X97247Y19224D01*
X97520Y18564D01*
X97893Y17955D01*
X98357Y17412D01*
X98575Y17226D01*
Y14034D01*
X98357Y13848D01*
X97893Y13305D01*
X97520Y12696D01*
X97247Y12036D01*
X97080Y11342D01*
X97024Y10630D01*
X97080Y9918D01*
X97247Y9224D01*
X97520Y8564D01*
X97893Y7955D01*
X98357Y7412D01*
X98900Y6948D01*
X99509Y6575D01*
X100168Y6302D01*
X100863Y6135D01*
X101575Y6079D01*
X102287Y6135D01*
X102981Y6302D01*
X103641Y6575D01*
X104250Y6948D01*
X104793Y7412D01*
X105257Y7955D01*
X105630Y8564D01*
X105903Y9224D01*
X106070Y9918D01*
X106112Y10630D01*
X106070Y11342D01*
X105903Y12036D01*
X105630Y12696D01*
X105257Y13305D01*
X104793Y13848D01*
X104575Y14034D01*
Y17226D01*
X104793Y17412D01*
X105257Y17955D01*
X105630Y18564D01*
X105903Y19224D01*
X106070Y19918D01*
X106112Y20630D01*
X106070Y21342D01*
X105903Y22036D01*
X105630Y22696D01*
X105257Y23305D01*
X104793Y23848D01*
X104250Y24312D01*
X103641Y24685D01*
X102981Y24958D01*
X102878Y24983D01*
Y25925D01*
X102883Y25984D01*
X102864Y26220D01*
X102809Y26449D01*
X102719Y26667D01*
X102595Y26869D01*
X102442Y27048D01*
X102397Y27086D01*
X100512Y28972D01*
X100473Y29017D01*
X100294Y29170D01*
X100093Y29293D01*
X99874Y29384D01*
X99645Y29439D01*
X99645Y29439D01*
X99409Y29457D01*
X99351Y29453D01*
X93780D01*
Y32041D01*
X97023Y32043D01*
X97115Y32065D01*
X97202Y32102D01*
X97283Y32151D01*
X97355Y32212D01*
X97416Y32284D01*
X97465Y32365D01*
X97502Y32452D01*
X97524Y32544D01*
X97529Y32638D01*
X97524Y34307D01*
X97502Y34399D01*
X97465Y34486D01*
X97416Y34566D01*
X97355Y34638D01*
X97283Y34700D01*
X97202Y34749D01*
X97115Y34785D01*
X97023Y34807D01*
X96929Y34813D01*
X93780Y34810D01*
Y35584D01*
X97684Y35587D01*
X97759Y35523D01*
X98134Y35293D01*
X98542Y35124D01*
X98970Y35021D01*
X99409Y34987D01*
X99849Y35021D01*
X100277Y35124D01*
X100685Y35293D01*
X101060Y35523D01*
X101395Y35809D01*
X101682Y36144D01*
X101884Y36475D01*
X101915Y36346D01*
X102006Y36128D01*
X102129Y35927D01*
X102283Y35747D01*
X102327Y35709D01*
X110075Y27961D01*
Y24919D01*
X109509Y24685D01*
X108900Y24312D01*
X108357Y23848D01*
X107893Y23305D01*
X107520Y22696D01*
X107247Y22036D01*
X107080Y21342D01*
X107024Y20630D01*
X107080Y19918D01*
X107247Y19224D01*
X107520Y18564D01*
X107893Y17955D01*
X108357Y17412D01*
X108575Y17226D01*
Y14034D01*
X108357Y13848D01*
X107893Y13305D01*
X107520Y12696D01*
X107247Y12036D01*
X107080Y11342D01*
X107024Y10630D01*
X107080Y9918D01*
X107247Y9224D01*
X107520Y8564D01*
X107893Y7955D01*
X108357Y7412D01*
X108900Y6948D01*
X109509Y6575D01*
X110168Y6302D01*
X110863Y6135D01*
X111575Y6079D01*
X112287Y6135D01*
X112981Y6302D01*
X113641Y6575D01*
X114250Y6948D01*
X114793Y7412D01*
X115257Y7955D01*
X115630Y8564D01*
X115903Y9224D01*
X116070Y9918D01*
X116112Y10630D01*
X116070Y11342D01*
X115903Y12036D01*
X115630Y12696D01*
X115257Y13305D01*
X114793Y13848D01*
X114575Y14034D01*
Y17226D01*
X114793Y17412D01*
X115257Y17955D01*
X115630Y18564D01*
X115903Y19224D01*
X116070Y19918D01*
X116112Y20630D01*
X116070Y21342D01*
X115903Y22036D01*
X115630Y22696D01*
X115257Y23305D01*
X114793Y23848D01*
X114250Y24312D01*
X113641Y24685D01*
X113075Y24919D01*
Y28524D01*
X113079Y28583D01*
X113061Y28818D01*
X113031Y28942D01*
X118250Y23723D01*
X117893Y23305D01*
X117520Y22696D01*
X117247Y22036D01*
X117080Y21342D01*
X117024Y20630D01*
X117080Y19918D01*
X117247Y19224D01*
X117520Y18564D01*
X117893Y17955D01*
X118357Y17412D01*
X118457Y17327D01*
Y13933D01*
X118357Y13848D01*
X117893Y13305D01*
X117520Y12696D01*
X117247Y12036D01*
X117080Y11342D01*
X117024Y10630D01*
X117080Y9918D01*
X117247Y9224D01*
X117520Y8564D01*
X117893Y7955D01*
X118357Y7412D01*
X118900Y6948D01*
X119509Y6575D01*
X120168Y6302D01*
X120863Y6135D01*
X121575Y6079D01*
X122287Y6135D01*
X122981Y6302D01*
X123641Y6575D01*
X124250Y6948D01*
X124793Y7412D01*
X125257Y7955D01*
X125630Y8564D01*
X125903Y9224D01*
X126070Y9918D01*
X126112Y10630D01*
X126070Y11342D01*
X125903Y12036D01*
X125630Y12696D01*
X125257Y13305D01*
X124793Y13848D01*
X124457Y14135D01*
Y17125D01*
X124793Y17412D01*
X125257Y17955D01*
X125630Y18564D01*
X125903Y19224D01*
X126070Y19918D01*
X126112Y20630D01*
X126070Y21342D01*
X125903Y22036D01*
X125630Y22696D01*
X125257Y23305D01*
X124793Y23848D01*
X124250Y24312D01*
X123641Y24685D01*
X122981Y24958D01*
X122287Y25125D01*
X121575Y25181D01*
X121074Y25142D01*
X109079Y37137D01*
Y37665D01*
X109234Y37482D01*
X109570Y37196D01*
X109945Y36966D01*
X110353Y36797D01*
X110781Y36694D01*
X111220Y36660D01*
X111660Y36694D01*
X112088Y36797D01*
X112496Y36966D01*
X112871Y37196D01*
X113206Y37482D01*
X113493Y37818D01*
X113585Y37969D01*
X117737D01*
X117541Y37772D01*
X117368Y37813D01*
X116929Y37848D01*
X116490Y37813D01*
X116061Y37711D01*
X115654Y37542D01*
X115278Y37312D01*
X114943Y37025D01*
X114657Y36690D01*
X114427Y36314D01*
X114258Y35907D01*
X114155Y35479D01*
X114120Y35039D01*
X114155Y34600D01*
X114258Y34171D01*
X114427Y33764D01*
X114657Y33388D01*
X114943Y33053D01*
X115278Y32767D01*
X115654Y32537D01*
X116061Y32368D01*
X116490Y32265D01*
X116929Y32231D01*
X117368Y32265D01*
X117797Y32368D01*
X118204Y32537D01*
X118580Y32767D01*
X118915Y33053D01*
X119201Y33388D01*
X119432Y33764D01*
X119600Y34171D01*
X119703Y34600D01*
X119729Y35039D01*
X119703Y35479D01*
X119662Y35651D01*
X120227Y36216D01*
X120370Y36217D01*
X120462Y36239D01*
X120549Y36275D01*
X120629Y36324D01*
X120701Y36385D01*
X120762Y36457D01*
X120764Y35831D01*
X120786Y35739D01*
X120822Y35652D01*
X120871Y35571D01*
X120933Y35500D01*
X121005Y35438D01*
X121085Y35389D01*
X121172Y35353D01*
X121264Y35331D01*
X121358Y35325D01*
X122830Y35331D01*
X122922Y35353D01*
X123009Y35389D01*
X123031Y35402D01*
X123054Y35389D01*
X123141Y35353D01*
X123233Y35331D01*
X123327Y35325D01*
X124799Y35331D01*
X124891Y35353D01*
X124978Y35389D01*
X125058Y35438D01*
X125130Y35500D01*
X125192Y35571D01*
X125241Y35652D01*
X125277Y35739D01*
X125299Y35831D01*
X125305Y35925D01*
X125299Y37791D01*
X125277Y37883D01*
X125241Y37970D01*
X125192Y38051D01*
X125130Y38122D01*
X125058Y38184D01*
X124978Y38233D01*
X124891Y38269D01*
X124799Y38291D01*
X124705Y38297D01*
X123233Y38291D01*
X123141Y38269D01*
X123054Y38233D01*
X123031Y38220D01*
X123009Y38233D01*
X122922Y38269D01*
X122830Y38291D01*
X122736Y38297D01*
X121264Y38291D01*
X121172Y38269D01*
X121085Y38233D01*
X121005Y38184D01*
X120933Y38122D01*
X120871Y38051D01*
X120871Y38050D01*
X120870Y38283D01*
X120848Y38375D01*
X120812Y38462D01*
X120798Y38484D01*
X120812Y38506D01*
X120848Y38594D01*
X120870Y38685D01*
X120876Y38780D01*
X120874Y39225D01*
X120876Y39233D01*
X120894Y39469D01*
X120876Y39704D01*
X120872Y39720D01*
X120870Y40252D01*
X120848Y40343D01*
X120812Y40431D01*
X120798Y40453D01*
X120812Y40475D01*
X120848Y40562D01*
X120870Y40654D01*
X120876Y40748D01*
X120874Y41193D01*
X120876Y41202D01*
X120894Y41437D01*
X120876Y41672D01*
X120872Y41688D01*
X120870Y42220D01*
X120848Y42312D01*
X120812Y42399D01*
X120798Y42421D01*
X120812Y42443D01*
X120848Y42531D01*
X120870Y42622D01*
X120876Y42717D01*
X120874Y43162D01*
X120876Y43170D01*
X120894Y43406D01*
X120876Y43641D01*
X120872Y43657D01*
X120870Y44189D01*
X120848Y44280D01*
X120812Y44368D01*
X120798Y44390D01*
X120812Y44412D01*
X120848Y44499D01*
X120863Y44563D01*
X123957D01*
X124016Y44558D01*
X124251Y44577D01*
X124251Y44577D01*
X124267Y44581D01*
X124799Y44583D01*
X124891Y44605D01*
X124978Y44641D01*
X125000Y44654D01*
X125022Y44641D01*
X125109Y44605D01*
X125201Y44583D01*
X125295Y44577D01*
X125741Y44579D01*
X125749Y44577D01*
X125984Y44558D01*
X126220Y44577D01*
X126236Y44581D01*
X126767Y44583D01*
X126859Y44605D01*
X126946Y44641D01*
X127027Y44690D01*
X127099Y44752D01*
X127160Y44823D01*
X127209Y44904D01*
X127246Y44991D01*
X127268Y45083D01*
X127273Y45177D01*
X127273Y45230D01*
X129278Y47235D01*
Y24544D01*
X128900Y24312D01*
X128357Y23848D01*
X127893Y23305D01*
X127520Y22696D01*
X127247Y22036D01*
X127080Y21342D01*
X127024Y20630D01*
X127080Y19918D01*
X127247Y19224D01*
X127520Y18564D01*
X127893Y17955D01*
X128357Y17412D01*
X128575Y17226D01*
Y14034D01*
X128357Y13848D01*
X127893Y13305D01*
X127520Y12696D01*
X127247Y12036D01*
X127080Y11342D01*
X127024Y10630D01*
X127080Y9918D01*
X127247Y9224D01*
X127520Y8564D01*
X127893Y7955D01*
X128357Y7412D01*
X128900Y6948D01*
X129278Y6716D01*
Y2362D01*
G37*
G36*
X93780Y29453D02*X89204D01*
X88114Y30543D01*
Y44064D01*
X88968Y44917D01*
X89248D01*
X89248Y44748D01*
X89270Y44657D01*
X89306Y44569D01*
X89356Y44489D01*
X89417Y44417D01*
X89489Y44356D01*
X89569Y44306D01*
X89657Y44270D01*
X89732Y44252D01*
X89657Y44234D01*
X89569Y44198D01*
X89489Y44148D01*
X89417Y44087D01*
X89356Y44015D01*
X89306Y43935D01*
X89270Y43847D01*
X89248Y43756D01*
X89243Y43661D01*
X89248Y40418D01*
X89270Y40326D01*
X89306Y40239D01*
X89356Y40158D01*
X89417Y40086D01*
X89489Y40025D01*
X89569Y39976D01*
X89657Y39939D01*
X89732Y39921D01*
X89657Y39903D01*
X89569Y39867D01*
X89489Y39818D01*
X89417Y39756D01*
X89356Y39684D01*
X89306Y39604D01*
X89270Y39517D01*
X89248Y39425D01*
X89243Y39331D01*
X89248Y36087D01*
X89270Y35995D01*
X89306Y35908D01*
X89356Y35827D01*
X89417Y35756D01*
X89489Y35694D01*
X89569Y35645D01*
X89657Y35609D01*
X89748Y35587D01*
X89843Y35581D01*
X93780Y35584D01*
Y34810D01*
X90536Y34807D01*
X90444Y34785D01*
X90357Y34749D01*
X90276Y34700D01*
X90204Y34638D01*
X90143Y34566D01*
X90094Y34486D01*
X90058Y34399D01*
X90035Y34307D01*
X90030Y34213D01*
X90035Y32544D01*
X90058Y32452D01*
X90094Y32365D01*
X90143Y32284D01*
X90204Y32212D01*
X90276Y32151D01*
X90357Y32102D01*
X90444Y32065D01*
X90536Y32043D01*
X90630Y32038D01*
X93780Y32041D01*
Y29453D01*
G37*
G36*
X71568Y61471D02*X72553Y60485D01*
Y33234D01*
X72445Y33167D01*
X71966Y32758D01*
X71568Y32292D01*
Y61471D01*
G37*
G36*
X93780Y2362D02*X81568D01*
Y6079D01*
X81575Y6079D01*
X82287Y6135D01*
X82981Y6302D01*
X83641Y6575D01*
X84250Y6948D01*
X84793Y7412D01*
X85257Y7955D01*
X85630Y8564D01*
X85903Y9224D01*
X86070Y9918D01*
X86112Y10630D01*
X86070Y11342D01*
X85903Y12036D01*
X85630Y12696D01*
X85257Y13305D01*
X84793Y13848D01*
X84575Y14034D01*
Y17226D01*
X84793Y17412D01*
X85257Y17955D01*
X85630Y18564D01*
X85903Y19224D01*
X86070Y19918D01*
X86112Y20630D01*
X86070Y21342D01*
X85903Y22036D01*
X85630Y22696D01*
X85257Y23305D01*
X84793Y23848D01*
X84250Y24312D01*
X83641Y24685D01*
X82981Y24958D01*
X82287Y25125D01*
X81575Y25181D01*
X81568Y25180D01*
Y96335D01*
X93780D01*
Y93056D01*
X93718Y93128D01*
X93383Y93414D01*
X93007Y93644D01*
X92600Y93813D01*
X92172Y93916D01*
X91732Y93950D01*
X91293Y93916D01*
X90864Y93813D01*
X90457Y93644D01*
X90081Y93414D01*
X89746Y93128D01*
X89460Y92793D01*
X89230Y92417D01*
X89061Y92010D01*
X88958Y91581D01*
X88924Y91142D01*
X88958Y90702D01*
X89061Y90274D01*
X89230Y89867D01*
X89460Y89491D01*
X89746Y89156D01*
X90081Y88870D01*
X90228Y88780D01*
X90081Y88690D01*
X89746Y88403D01*
X89460Y88068D01*
X89230Y87692D01*
X89061Y87285D01*
X88958Y86857D01*
X88924Y86417D01*
X88958Y85978D01*
X89061Y85549D01*
X89230Y85142D01*
X89460Y84766D01*
X89746Y84431D01*
X90081Y84145D01*
X90228Y84055D01*
X90081Y83965D01*
X89746Y83679D01*
X89460Y83344D01*
X89230Y82968D01*
X89061Y82561D01*
X88958Y82132D01*
X88924Y81693D01*
X88958Y81254D01*
X89061Y80825D01*
X89230Y80418D01*
X89460Y80042D01*
X89746Y79707D01*
X90081Y79421D01*
X90228Y79331D01*
X90081Y79241D01*
X89746Y78955D01*
X89460Y78619D01*
X89230Y78244D01*
X89061Y77836D01*
X88958Y77408D01*
X88924Y76969D01*
X88958Y76529D01*
X89061Y76101D01*
X89230Y75693D01*
X89460Y75318D01*
X89746Y74982D01*
X90081Y74696D01*
X90457Y74466D01*
X90864Y74297D01*
X91293Y74194D01*
X91732Y74160D01*
X92172Y74194D01*
X92600Y74297D01*
X93007Y74466D01*
X93383Y74696D01*
X93718Y74982D01*
X93780Y75054D01*
Y70243D01*
X89748Y70240D01*
X89657Y70218D01*
X89569Y70182D01*
X89489Y70133D01*
X89417Y70071D01*
X89356Y69999D01*
X89306Y69919D01*
X89270Y69832D01*
X89248Y69740D01*
X89243Y69646D01*
X89248Y66402D01*
X89270Y66310D01*
X89306Y66223D01*
X89356Y66142D01*
X89417Y66070D01*
X89489Y66009D01*
X89569Y65960D01*
X89657Y65924D01*
X89732Y65906D01*
X89657Y65887D01*
X89569Y65851D01*
X89489Y65802D01*
X89417Y65741D01*
X89356Y65669D01*
X89306Y65588D01*
X89270Y65501D01*
X89248Y65409D01*
X89243Y65315D01*
X89243Y65284D01*
X89248Y62071D01*
X89270Y61979D01*
X89306Y61892D01*
X89356Y61812D01*
X89417Y61740D01*
X89489Y61678D01*
X89569Y61629D01*
X89657Y61593D01*
X89732Y61575D01*
X89657Y61557D01*
X89569Y61521D01*
X89489Y61471D01*
X89417Y61410D01*
X89356Y61338D01*
X89326Y61290D01*
X89052Y61524D01*
X89047Y61528D01*
Y61528D01*
X88677Y61754D01*
X88269Y61923D01*
X87841Y62026D01*
X87402Y62061D01*
X86962Y62026D01*
X86534Y61923D01*
X86126Y61754D01*
X85751Y61524D01*
X85416Y61238D01*
X85129Y60903D01*
X84899Y60527D01*
X84730Y60120D01*
X84628Y59691D01*
X84593Y59252D01*
X84628Y58813D01*
X84730Y58384D01*
X84899Y57977D01*
X85129Y57601D01*
X85416Y57266D01*
X85751Y56980D01*
X86126Y56749D01*
X86534Y56581D01*
X86962Y56478D01*
X87402Y56443D01*
X87841Y56478D01*
X88269Y56581D01*
X88677Y56749D01*
X89047Y56976D01*
Y56976D01*
X89052Y56980D01*
X89388Y57266D01*
X89471Y57363D01*
X89489Y57348D01*
X89569Y57298D01*
X89657Y57262D01*
X89732Y57244D01*
X89657Y57226D01*
X89569Y57190D01*
X89489Y57140D01*
X89417Y57079D01*
X89356Y57007D01*
X89306Y56927D01*
X89270Y56840D01*
X89248Y56748D01*
X89243Y56654D01*
X89248Y53613D01*
X89248Y53410D01*
X89270Y53318D01*
X89306Y53231D01*
X89356Y53150D01*
X89417Y53078D01*
X89489Y53017D01*
X89569Y52968D01*
X89657Y52932D01*
X89732Y52913D01*
X89657Y52895D01*
X89569Y52859D01*
X89489Y52810D01*
X89417Y52748D01*
X89356Y52677D01*
X89306Y52596D01*
X89270Y52509D01*
X89248Y52417D01*
X89243Y52323D01*
X89248Y49079D01*
X89270Y48987D01*
X89306Y48900D01*
X89356Y48819D01*
X89417Y48748D01*
X89489Y48686D01*
X89569Y48637D01*
X89657Y48601D01*
X89732Y48583D01*
X89657Y48565D01*
X89569Y48528D01*
X89489Y48479D01*
X89417Y48418D01*
X89356Y48346D01*
X89306Y48265D01*
X89270Y48178D01*
X89248Y48086D01*
X89243Y47992D01*
X89243Y47917D01*
X88405D01*
X88346Y47922D01*
X88111Y47903D01*
X87882Y47848D01*
X87663Y47758D01*
X87462Y47635D01*
X87462Y47634D01*
X87283Y47481D01*
X87244Y47436D01*
X85595Y45787D01*
X85550Y45749D01*
X85397Y45569D01*
X85274Y45368D01*
X85183Y45150D01*
X85128Y44920D01*
X85128Y44920D01*
X85110Y44685D01*
X85114Y44626D01*
Y29980D01*
X85110Y29921D01*
X85128Y29686D01*
X85183Y29456D01*
X85274Y29238D01*
X85397Y29037D01*
X85550Y28857D01*
X85595Y28819D01*
X87480Y26934D01*
X87519Y26889D01*
X87698Y26735D01*
X87900Y26612D01*
X88118Y26522D01*
X88347Y26467D01*
X88583Y26448D01*
X88641Y26453D01*
X93780D01*
Y24600D01*
X93641Y24685D01*
X92981Y24958D01*
X92287Y25125D01*
X91575Y25181D01*
X90863Y25125D01*
X90168Y24958D01*
X89509Y24685D01*
X88900Y24312D01*
X88357Y23848D01*
X87893Y23305D01*
X87520Y22696D01*
X87247Y22036D01*
X87080Y21342D01*
X87024Y20630D01*
X87080Y19918D01*
X87247Y19224D01*
X87520Y18564D01*
X87893Y17955D01*
X88357Y17412D01*
X88575Y17226D01*
Y14034D01*
X88357Y13848D01*
X87893Y13305D01*
X87520Y12696D01*
X87247Y12036D01*
X87080Y11342D01*
X87024Y10630D01*
X87080Y9918D01*
X87247Y9224D01*
X87520Y8564D01*
X87893Y7955D01*
X88357Y7412D01*
X88900Y6948D01*
X89509Y6575D01*
X90168Y6302D01*
X90863Y6135D01*
X91575Y6079D01*
X92287Y6135D01*
X92981Y6302D01*
X93641Y6575D01*
X93780Y6660D01*
Y2362D01*
G37*
G36*
X81568D02*X71568D01*
Y6079D01*
X71575Y6079D01*
X72287Y6135D01*
X72981Y6302D01*
X73641Y6575D01*
X74250Y6948D01*
X74793Y7412D01*
X75257Y7955D01*
X75630Y8564D01*
X75903Y9224D01*
X76070Y9918D01*
X76112Y10630D01*
X76070Y11342D01*
X75903Y12036D01*
X75630Y12696D01*
X75257Y13305D01*
X74793Y13848D01*
X74575Y14034D01*
Y17226D01*
X74793Y17412D01*
X75257Y17955D01*
X75630Y18564D01*
X75903Y19224D01*
X76070Y19918D01*
X76112Y20630D01*
X76070Y21342D01*
X75903Y22036D01*
X75630Y22696D01*
X75257Y23305D01*
X74793Y23848D01*
X74250Y24312D01*
X73641Y24685D01*
X72981Y24958D01*
X72287Y25125D01*
X71575Y25181D01*
X71568Y25180D01*
Y27550D01*
X71966Y27084D01*
X72445Y26675D01*
X72982Y26346D01*
X73563Y26105D01*
X74175Y25958D01*
X74803Y25909D01*
X75431Y25958D01*
X76043Y26105D01*
X76625Y26346D01*
X77162Y26675D01*
X77640Y27084D01*
X78049Y27563D01*
X78378Y28100D01*
X78619Y28681D01*
X78766Y29294D01*
X78803Y29921D01*
X78766Y30549D01*
X78619Y31161D01*
X78378Y31743D01*
X78049Y32280D01*
X77640Y32758D01*
X77162Y33167D01*
X77053Y33234D01*
Y61329D01*
X77060Y61417D01*
X77032Y61770D01*
X77032Y61770D01*
X76950Y62115D01*
X76814Y62442D01*
X76629Y62744D01*
X76399Y63013D01*
X76332Y63071D01*
X71568Y67835D01*
Y96335D01*
X81568D01*
Y25180D01*
X80863Y25125D01*
X80168Y24958D01*
X79509Y24685D01*
X78900Y24312D01*
X78357Y23848D01*
X77893Y23305D01*
X77520Y22696D01*
X77247Y22036D01*
X77080Y21342D01*
X77024Y20630D01*
X77080Y19918D01*
X77247Y19224D01*
X77520Y18564D01*
X77893Y17955D01*
X78357Y17412D01*
X78575Y17226D01*
Y14034D01*
X78357Y13848D01*
X77893Y13305D01*
X77520Y12696D01*
X77247Y12036D01*
X77080Y11342D01*
X77024Y10630D01*
X77080Y9918D01*
X77247Y9224D01*
X77520Y8564D01*
X77893Y7955D01*
X78357Y7412D01*
X78900Y6948D01*
X79509Y6575D01*
X80168Y6302D01*
X80863Y6135D01*
X81568Y6079D01*
Y2362D01*
G37*
G36*
X71568Y67835D02*X62677Y76725D01*
X62620Y76793D01*
X62350Y77023D01*
X62048Y77208D01*
X61721Y77343D01*
X61568Y77380D01*
Y96335D01*
X71568D01*
Y67835D01*
G37*
G36*
Y2362D02*X61568D01*
Y6079D01*
X61575Y6079D01*
X62287Y6135D01*
X62981Y6302D01*
X63641Y6575D01*
X64250Y6948D01*
X64793Y7412D01*
X65257Y7955D01*
X65630Y8564D01*
X65903Y9224D01*
X66070Y9918D01*
X66112Y10630D01*
X66070Y11342D01*
X65903Y12036D01*
X65630Y12696D01*
X65257Y13305D01*
X64793Y13848D01*
X64575Y14034D01*
Y17226D01*
X64793Y17412D01*
X65257Y17955D01*
X65630Y18564D01*
X65903Y19224D01*
X66070Y19918D01*
X66112Y20630D01*
X66070Y21342D01*
X65903Y22036D01*
X65630Y22696D01*
X65257Y23305D01*
X64793Y23848D01*
X64250Y24312D01*
X63641Y24685D01*
X62981Y24958D01*
X62287Y25125D01*
X61575Y25181D01*
X61568Y25180D01*
Y71471D01*
X71568Y61471D01*
Y32292D01*
X71557Y32280D01*
X71228Y31743D01*
X70987Y31161D01*
X70840Y30549D01*
X70791Y29921D01*
X70840Y29294D01*
X70987Y28681D01*
X71228Y28100D01*
X71557Y27563D01*
X71568Y27550D01*
Y25180D01*
X70863Y25125D01*
X70168Y24958D01*
X69509Y24685D01*
X68900Y24312D01*
X68357Y23848D01*
X67893Y23305D01*
X67520Y22696D01*
X67247Y22036D01*
X67080Y21342D01*
X67024Y20630D01*
X67080Y19918D01*
X67247Y19224D01*
X67520Y18564D01*
X67893Y17955D01*
X68357Y17412D01*
X68575Y17226D01*
Y14034D01*
X68357Y13848D01*
X67893Y13305D01*
X67520Y12696D01*
X67247Y12036D01*
X67080Y11342D01*
X67024Y10630D01*
X67080Y9918D01*
X67247Y9224D01*
X67520Y8564D01*
X67893Y7955D01*
X68357Y7412D01*
X68900Y6948D01*
X69509Y6575D01*
X70168Y6302D01*
X70863Y6135D01*
X71568Y6079D01*
Y2362D01*
G37*
G36*
X61568Y77380D02*X61377Y77426D01*
X61376Y77426D01*
X61024Y77454D01*
X60935Y77447D01*
X55591D01*
Y92249D01*
X59676Y96335D01*
X61568D01*
Y77380D01*
G37*
G36*
Y2362D02*X55591D01*
Y8500D01*
X55630Y8564D01*
X55903Y9224D01*
X56070Y9918D01*
X56112Y10630D01*
X56070Y11342D01*
X55903Y12036D01*
X55630Y12696D01*
X55591Y12760D01*
Y18500D01*
X55630Y18564D01*
X55903Y19224D01*
X56070Y19918D01*
X56112Y20630D01*
X56070Y21342D01*
X55903Y22036D01*
X55630Y22696D01*
X55591Y22760D01*
Y31253D01*
X59622Y31256D01*
X59714Y31278D01*
X59801Y31314D01*
X59881Y31363D01*
X59953Y31425D01*
X60014Y31497D01*
X60064Y31577D01*
X60100Y31664D01*
X60122Y31756D01*
X60128Y31850D01*
X60122Y35094D01*
X60100Y35186D01*
X60064Y35273D01*
X60014Y35354D01*
X59953Y35426D01*
X59881Y35487D01*
X59801Y35536D01*
X59714Y35572D01*
X59638Y35591D01*
X59714Y35609D01*
X59801Y35645D01*
X59881Y35694D01*
X59953Y35756D01*
X60014Y35827D01*
X60064Y35908D01*
X60100Y35995D01*
X60122Y36087D01*
X60128Y36181D01*
X60122Y39425D01*
X60100Y39517D01*
X60064Y39604D01*
X60014Y39684D01*
X59953Y39756D01*
X59881Y39818D01*
X59801Y39867D01*
X59714Y39903D01*
X59638Y39921D01*
X59714Y39939D01*
X59801Y39976D01*
X59881Y40025D01*
X59953Y40086D01*
X60014Y40158D01*
X60064Y40239D01*
X60100Y40326D01*
X60122Y40418D01*
X60128Y40512D01*
X60122Y43756D01*
X60100Y43847D01*
X60064Y43935D01*
X60014Y44015D01*
X59953Y44087D01*
X59881Y44148D01*
X59801Y44198D01*
X59714Y44234D01*
X59622Y44256D01*
X59528Y44261D01*
X55591Y44259D01*
Y45033D01*
X58834Y45035D01*
X58926Y45058D01*
X59013Y45094D01*
X59094Y45143D01*
X59166Y45204D01*
X59227Y45276D01*
X59276Y45357D01*
X59313Y45444D01*
X59335Y45536D01*
X59340Y45630D01*
X59335Y47299D01*
X59313Y47391D01*
X59276Y47478D01*
X59227Y47558D01*
X59166Y47630D01*
X59094Y47692D01*
X59013Y47741D01*
X58926Y47777D01*
X58834Y47799D01*
X58740Y47805D01*
X55591Y47802D01*
Y48576D01*
X59622Y48579D01*
X59714Y48601D01*
X59801Y48637D01*
X59881Y48686D01*
X59953Y48748D01*
X60014Y48819D01*
X60064Y48900D01*
X60100Y48987D01*
X60122Y49079D01*
X60128Y49173D01*
X60122Y52417D01*
X60100Y52509D01*
X60064Y52596D01*
X60014Y52677D01*
X59953Y52748D01*
X59881Y52810D01*
X59801Y52859D01*
X59714Y52895D01*
X59638Y52913D01*
X59714Y52932D01*
X59801Y52968D01*
X59881Y53017D01*
X59953Y53078D01*
X60014Y53150D01*
X60064Y53231D01*
X60100Y53318D01*
X60122Y53410D01*
X60128Y53504D01*
X60122Y56748D01*
X60100Y56840D01*
X60064Y56927D01*
X60014Y57007D01*
X59953Y57079D01*
X59881Y57140D01*
X59801Y57190D01*
X59714Y57226D01*
X59622Y57248D01*
X59528Y57254D01*
X55591Y57251D01*
Y58025D01*
X58834Y58028D01*
X58926Y58050D01*
X59013Y58086D01*
X59094Y58135D01*
X59166Y58196D01*
X59227Y58268D01*
X59276Y58349D01*
X59313Y58436D01*
X59335Y58528D01*
X59340Y58622D01*
X59335Y60291D01*
X59313Y60383D01*
X59276Y60470D01*
X59227Y60551D01*
X59166Y60622D01*
X59094Y60684D01*
X59013Y60733D01*
X58926Y60769D01*
X58834Y60791D01*
X58740Y60797D01*
X55591Y60794D01*
Y61568D01*
X59622Y61571D01*
X59714Y61593D01*
X59801Y61629D01*
X59881Y61678D01*
X59953Y61740D01*
X60014Y61812D01*
X60064Y61892D01*
X60100Y61979D01*
X60122Y62071D01*
X60128Y62165D01*
X60122Y65409D01*
X60100Y65501D01*
X60064Y65588D01*
X60014Y65669D01*
X59953Y65741D01*
X59881Y65802D01*
X59801Y65851D01*
X59714Y65887D01*
X59622Y65909D01*
X59528Y65915D01*
X55591Y65912D01*
Y66686D01*
X58834Y66689D01*
X58926Y66711D01*
X59013Y66747D01*
X59094Y66797D01*
X59166Y66858D01*
X59227Y66930D01*
X59276Y67010D01*
X59313Y67097D01*
X59335Y67189D01*
X59340Y67283D01*
X59335Y68952D01*
X59313Y69044D01*
X59276Y69132D01*
X59227Y69212D01*
X59166Y69284D01*
X59094Y69345D01*
X59013Y69395D01*
X58926Y69431D01*
X58834Y69453D01*
X58740Y69458D01*
X55591Y69456D01*
Y72947D01*
X60092D01*
X61568Y71471D01*
Y25180D01*
X60863Y25125D01*
X60168Y24958D01*
X59509Y24685D01*
X58900Y24312D01*
X58357Y23848D01*
X57893Y23305D01*
X57520Y22696D01*
X57247Y22036D01*
X57080Y21342D01*
X57024Y20630D01*
X57080Y19918D01*
X57247Y19224D01*
X57520Y18564D01*
X57893Y17955D01*
X58357Y17412D01*
X58575Y17226D01*
Y14034D01*
X58357Y13848D01*
X57893Y13305D01*
X57520Y12696D01*
X57247Y12036D01*
X57080Y11342D01*
X57024Y10630D01*
X57080Y9918D01*
X57247Y9224D01*
X57520Y8564D01*
X57893Y7955D01*
X58357Y7412D01*
X58900Y6948D01*
X59509Y6575D01*
X60168Y6302D01*
X60863Y6135D01*
X61568Y6079D01*
Y2362D01*
G37*
G36*
X55591Y12760D02*X55257Y13305D01*
X54793Y13848D01*
X54575Y14034D01*
Y17226D01*
X54793Y17412D01*
X55257Y17955D01*
X55591Y18500D01*
Y12760D01*
G37*
G36*
Y77447D02*X45364D01*
X45276Y77454D01*
X44923Y77426D01*
X44578Y77343D01*
X44251Y77208D01*
X43949Y77023D01*
X43949Y77023D01*
X43680Y76793D01*
X43622Y76726D01*
X37559Y70662D01*
Y74217D01*
X55591Y92249D01*
Y77447D01*
G37*
G36*
Y65912D02*X51559Y65909D01*
X51468Y65887D01*
X51380Y65851D01*
X51300Y65802D01*
X51228Y65741D01*
X51167Y65669D01*
X51117Y65588D01*
X51081Y65501D01*
X51059Y65409D01*
X51054Y65315D01*
X51054Y64886D01*
X41339D01*
X41338Y64886D01*
X40950Y64873D01*
X40565Y64822D01*
X40185Y64738D01*
X39814Y64621D01*
X39455Y64472D01*
X39110Y64293D01*
X38782Y64084D01*
X38474Y63847D01*
X38187Y63585D01*
X37924Y63298D01*
X37688Y62990D01*
X37559Y62788D01*
Y64298D01*
X46208Y72947D01*
X55591D01*
Y69456D01*
X52347Y69453D01*
X52255Y69431D01*
X52168Y69395D01*
X52087Y69345D01*
X52015Y69284D01*
X51954Y69212D01*
X51905Y69132D01*
X51869Y69044D01*
X51846Y68952D01*
X51841Y68858D01*
X51846Y67189D01*
X51869Y67097D01*
X51905Y67010D01*
X51954Y66930D01*
X52015Y66858D01*
X52087Y66797D01*
X52168Y66747D01*
X52255Y66711D01*
X52347Y66689D01*
X52441Y66683D01*
X55591Y66686D01*
Y65912D01*
G37*
G36*
Y57251D02*X51559Y57248D01*
X51468Y57226D01*
X51380Y57190D01*
X51300Y57140D01*
X51228Y57079D01*
X51167Y57007D01*
X51117Y56927D01*
X51081Y56840D01*
X51059Y56748D01*
X51054Y56654D01*
X51059Y53410D01*
X51081Y53318D01*
X51117Y53231D01*
X51167Y53150D01*
X51228Y53078D01*
X51300Y53017D01*
X51380Y52968D01*
X51468Y52932D01*
X51543Y52913D01*
X51468Y52895D01*
X51380Y52859D01*
X51300Y52810D01*
X51228Y52748D01*
X51167Y52677D01*
X51117Y52596D01*
X51081Y52509D01*
X51059Y52417D01*
X51054Y52323D01*
X51054Y52091D01*
X45276D01*
X45040Y52077D01*
X44811Y52022D01*
X44791Y52013D01*
X44414Y51930D01*
X44011Y51803D01*
X43620Y51641D01*
X43244Y51445D01*
X42887Y51218D01*
X42551Y50960D01*
X42239Y50674D01*
X41953Y50362D01*
X41696Y50026D01*
X41468Y49669D01*
X41273Y49294D01*
X41242Y49219D01*
X40789Y49218D01*
X40636Y49181D01*
X40490Y49121D01*
X40356Y49039D01*
X40237Y48937D01*
X40134Y48817D01*
X40052Y48683D01*
X39992Y48537D01*
X39955Y48384D01*
X39946Y48227D01*
X39955Y46102D01*
X39992Y45949D01*
X40052Y45804D01*
X40134Y45670D01*
X40135Y45669D01*
X40134Y45669D01*
X40052Y45535D01*
X39992Y45389D01*
X39955Y45236D01*
X39946Y45079D01*
X39955Y42954D01*
X39992Y42801D01*
X40052Y42656D01*
X40134Y42522D01*
X40237Y42402D01*
X40356Y42300D01*
X40490Y42218D01*
X40636Y42157D01*
X40734Y42134D01*
X40733Y42125D01*
X40743Y39214D01*
X40779Y39061D01*
X40823Y38956D01*
Y38391D01*
X40789Y38391D01*
X40636Y38355D01*
X40490Y38294D01*
X40356Y38212D01*
X40237Y38110D01*
X40134Y37990D01*
X40052Y37856D01*
X39992Y37710D01*
X39955Y37557D01*
X39946Y37401D01*
X39949Y36664D01*
X39923Y36782D01*
X39895Y36993D01*
X39886Y37206D01*
Y60410D01*
X39887Y60433D01*
X39891Y60560D01*
X39908Y60685D01*
X39935Y60809D01*
X39973Y60930D01*
X40022Y61047D01*
X40080Y61159D01*
X40149Y61266D01*
X40226Y61367D01*
X40311Y61460D01*
X40405Y61546D01*
X40505Y61623D01*
X40612Y61691D01*
X40725Y61750D01*
X40842Y61798D01*
X40963Y61836D01*
X41086Y61864D01*
X41212Y61880D01*
X41339Y61886D01*
X51121D01*
X51167Y61812D01*
X51228Y61740D01*
X51300Y61678D01*
X51380Y61629D01*
X51468Y61593D01*
X51559Y61571D01*
X51654Y61565D01*
X55591Y61568D01*
Y60794D01*
X52347Y60791D01*
X52255Y60769D01*
X52168Y60733D01*
X52087Y60684D01*
X52015Y60622D01*
X51954Y60551D01*
X51905Y60470D01*
X51869Y60383D01*
X51846Y60291D01*
X51841Y60197D01*
X51846Y58528D01*
X51869Y58436D01*
X51905Y58349D01*
X51954Y58268D01*
X52015Y58196D01*
X52087Y58135D01*
X52168Y58086D01*
X52255Y58050D01*
X52347Y58028D01*
X52441Y58022D01*
X55591Y58025D01*
Y57251D01*
G37*
G36*
Y2362D02*X37559D01*
Y25620D01*
X38044Y25727D01*
X38693Y25932D01*
X39322Y26193D01*
X39927Y26507D01*
X40501Y26873D01*
X41041Y27288D01*
X41544Y27748D01*
X42004Y28250D01*
X42418Y28790D01*
X42784Y29365D01*
X43099Y29969D01*
X43359Y30598D01*
X43564Y31248D01*
X43574Y31293D01*
X43857Y31294D01*
X44010Y31331D01*
X44155Y31391D01*
X44289Y31473D01*
X44409Y31575D01*
X44511Y31695D01*
X44594Y31829D01*
X44654Y31975D01*
X44691Y32128D01*
X44700Y32285D01*
X44691Y34409D01*
X44654Y34562D01*
X44594Y34708D01*
X44511Y34842D01*
X44511Y34843D01*
X44511Y34843D01*
X44594Y34977D01*
X44654Y35123D01*
X44691Y35276D01*
X44700Y35433D01*
X44691Y37557D01*
X44654Y37710D01*
X44594Y37856D01*
X44511Y37990D01*
X44409Y38110D01*
X44289Y38212D01*
X44155Y38294D01*
X44010Y38355D01*
X43880Y38386D01*
X44011Y38417D01*
X44157Y38477D01*
X44291Y38560D01*
X44411Y38662D01*
X44513Y38781D01*
X44595Y38916D01*
X44655Y39061D01*
X44692Y39214D01*
X44701Y39371D01*
X44692Y42282D01*
X44655Y42435D01*
X44595Y42580D01*
X44571Y42619D01*
X44594Y42656D01*
X44654Y42801D01*
X44691Y42954D01*
X44700Y43111D01*
X44691Y45236D01*
X44654Y45389D01*
X44594Y45535D01*
X44511Y45669D01*
X44511Y45669D01*
X44511Y45670D01*
X44594Y45804D01*
X44654Y45949D01*
X44691Y46102D01*
X44700Y46259D01*
X44691Y48384D01*
X44654Y48537D01*
X44594Y48683D01*
X44568Y48724D01*
X44611Y48756D01*
X44746Y48843D01*
X44889Y48917D01*
X45038Y48979D01*
X45192Y49028D01*
X45349Y49062D01*
X45509Y49084D01*
X45670Y49091D01*
X51059D01*
X51059Y49079D01*
X51081Y48987D01*
X51117Y48900D01*
X51167Y48819D01*
X51228Y48748D01*
X51300Y48686D01*
X51380Y48637D01*
X51468Y48601D01*
X51559Y48579D01*
X51654Y48573D01*
X55591Y48576D01*
Y47802D01*
X52347Y47799D01*
X52255Y47777D01*
X52168Y47741D01*
X52087Y47692D01*
X52015Y47630D01*
X51954Y47558D01*
X51905Y47478D01*
X51869Y47391D01*
X51846Y47299D01*
X51841Y47205D01*
X51846Y45536D01*
X51869Y45444D01*
X51905Y45357D01*
X51954Y45276D01*
X52015Y45204D01*
X52087Y45143D01*
X52168Y45094D01*
X52255Y45058D01*
X52347Y45035D01*
X52441Y45030D01*
X55591Y45033D01*
Y44259D01*
X51559Y44256D01*
X51468Y44234D01*
X51380Y44198D01*
X51300Y44148D01*
X51228Y44087D01*
X51167Y44015D01*
X51117Y43935D01*
X51081Y43847D01*
X51059Y43756D01*
X51054Y43661D01*
X51059Y40418D01*
X51081Y40326D01*
X51117Y40239D01*
X51167Y40158D01*
X51228Y40086D01*
X51300Y40025D01*
X51380Y39976D01*
X51468Y39939D01*
X51543Y39921D01*
X51468Y39903D01*
X51380Y39867D01*
X51300Y39818D01*
X51228Y39756D01*
X51167Y39684D01*
X51117Y39604D01*
X51081Y39517D01*
X51059Y39425D01*
X51054Y39331D01*
X51059Y36087D01*
X51081Y35995D01*
X51117Y35908D01*
X51167Y35827D01*
X51228Y35756D01*
X51300Y35694D01*
X51380Y35645D01*
X51468Y35609D01*
X51543Y35591D01*
X51468Y35572D01*
X51380Y35536D01*
X51300Y35487D01*
X51228Y35426D01*
X51167Y35354D01*
X51117Y35273D01*
X51081Y35186D01*
X51059Y35094D01*
X51054Y35000D01*
X51059Y31756D01*
X51081Y31664D01*
X51117Y31577D01*
X51167Y31497D01*
X51228Y31425D01*
X51300Y31363D01*
X51380Y31314D01*
X51468Y31278D01*
X51559Y31256D01*
X51654Y31250D01*
X55591Y31253D01*
Y22760D01*
X55257Y23305D01*
X54793Y23848D01*
X54250Y24312D01*
X53641Y24685D01*
X52981Y24958D01*
X52287Y25125D01*
X51575Y25181D01*
X50863Y25125D01*
X50168Y24958D01*
X49509Y24685D01*
X48900Y24312D01*
X48357Y23848D01*
X47893Y23305D01*
X47520Y22696D01*
X47247Y22036D01*
X47080Y21342D01*
X47024Y20630D01*
X47080Y19918D01*
X47247Y19224D01*
X47520Y18564D01*
X47893Y17955D01*
X48357Y17412D01*
X48575Y17226D01*
Y14034D01*
X48357Y13848D01*
X47893Y13305D01*
X47520Y12696D01*
X47247Y12036D01*
X47080Y11342D01*
X47024Y10630D01*
X47080Y9918D01*
X47247Y9224D01*
X47520Y8564D01*
X47893Y7955D01*
X48357Y7412D01*
X48900Y6948D01*
X49509Y6575D01*
X50168Y6302D01*
X50863Y6135D01*
X51575Y6079D01*
X52287Y6135D01*
X52981Y6302D01*
X53641Y6575D01*
X54250Y6948D01*
X54793Y7412D01*
X55257Y7955D01*
X55591Y8500D01*
Y2362D01*
G37*
G36*
X37559Y70662D02*X36007Y69110D01*
X36028Y69197D01*
X36033Y69291D01*
X36031Y72689D01*
X37559Y74217D01*
Y70662D01*
G37*
G36*
Y2362D02*X16929D01*
X13976Y5315D01*
Y47638D01*
X11024Y50591D01*
X5118D01*
X2165Y53543D01*
Y126378D01*
X5118Y129331D01*
X37559D01*
Y109641D01*
X37520Y109680D01*
X37481Y109725D01*
X37302Y109879D01*
X37100Y110002D01*
X36882Y110092D01*
X36653Y110148D01*
X36652Y110148D01*
X36417Y110166D01*
X36359Y110161D01*
X36029D01*
X36028Y112693D01*
X36005Y112784D01*
X35969Y112872D01*
X35920Y112952D01*
X35859Y113024D01*
X35787Y113085D01*
X35706Y113135D01*
X35619Y113171D01*
X35527Y113193D01*
X35433Y113198D01*
X15654Y113193D01*
X15562Y113171D01*
X15475Y113135D01*
X15394Y113085D01*
X15322Y113024D01*
X15261Y112952D01*
X15212Y112872D01*
X15176Y112784D01*
X15154Y112693D01*
X15148Y112598D01*
X15154Y104630D01*
X15176Y104538D01*
X15212Y104451D01*
X15261Y104371D01*
X15322Y104299D01*
X15394Y104238D01*
X15475Y104188D01*
X15562Y104152D01*
X15654Y104130D01*
X15748Y104124D01*
X35527Y104130D01*
X35619Y104152D01*
X35706Y104188D01*
X35787Y104238D01*
X35859Y104299D01*
X35920Y104371D01*
X35969Y104451D01*
X36005Y104538D01*
X36028Y104630D01*
X36033Y104724D01*
X36032Y106926D01*
X37559Y105398D01*
Y100113D01*
X36029Y98584D01*
X36028Y100882D01*
X36005Y100973D01*
X35969Y101061D01*
X35920Y101141D01*
X35859Y101213D01*
X35787Y101274D01*
X35706Y101324D01*
X35619Y101360D01*
X35527Y101382D01*
X35433Y101387D01*
X15654Y101382D01*
X15562Y101360D01*
X15475Y101324D01*
X15394Y101274D01*
X15322Y101213D01*
X15261Y101141D01*
X15212Y101061D01*
X15176Y100973D01*
X15154Y100882D01*
X15148Y100787D01*
X15154Y92819D01*
X15176Y92727D01*
X15212Y92640D01*
X15261Y92560D01*
X15322Y92488D01*
X15394Y92426D01*
X15475Y92377D01*
X15562Y92341D01*
X15654Y92319D01*
X15748Y92313D01*
X35527Y92319D01*
X35619Y92341D01*
X35706Y92377D01*
X35787Y92426D01*
X35859Y92488D01*
X35920Y92560D01*
X35969Y92640D01*
X36005Y92727D01*
X36028Y92819D01*
X36033Y92913D01*
X36031Y95350D01*
X36359D01*
X36417Y95346D01*
X36652Y95364D01*
X36653Y95364D01*
X36882Y95419D01*
X37100Y95510D01*
X37302Y95633D01*
X37481Y95786D01*
X37520Y95831D01*
X37559Y95871D01*
Y91255D01*
X35775Y89471D01*
X35706Y89513D01*
X35619Y89549D01*
X35527Y89571D01*
X35433Y89576D01*
X15654Y89571D01*
X15562Y89549D01*
X15475Y89513D01*
X15394Y89463D01*
X15322Y89402D01*
X15261Y89330D01*
X15212Y89250D01*
X15176Y89162D01*
X15154Y89071D01*
X15148Y88976D01*
X15154Y81008D01*
X15176Y80916D01*
X15212Y80829D01*
X15261Y80749D01*
X15322Y80677D01*
X15394Y80615D01*
X15475Y80566D01*
X15562Y80530D01*
X15654Y80508D01*
X15748Y80502D01*
X35527Y80508D01*
X35619Y80530D01*
X35706Y80566D01*
X35787Y80615D01*
X35859Y80677D01*
X35920Y80749D01*
X35969Y80829D01*
X36005Y80916D01*
X36028Y81008D01*
X36033Y81102D01*
X36030Y85484D01*
X37559Y87013D01*
Y78460D01*
X36028Y76929D01*
X36028Y77260D01*
X36005Y77351D01*
X35969Y77439D01*
X35920Y77519D01*
X35859Y77591D01*
X35787Y77652D01*
X35706Y77702D01*
X35619Y77738D01*
X35527Y77760D01*
X35433Y77765D01*
X15654Y77760D01*
X15562Y77738D01*
X15475Y77702D01*
X15394Y77652D01*
X15322Y77591D01*
X15261Y77519D01*
X15212Y77439D01*
X15176Y77351D01*
X15154Y77260D01*
X15148Y77165D01*
X15154Y69197D01*
X15176Y69105D01*
X15212Y69018D01*
X15261Y68938D01*
X15322Y68866D01*
X15394Y68804D01*
X15475Y68755D01*
X15562Y68719D01*
X15654Y68697D01*
X15748Y68691D01*
X35527Y68697D01*
X35615Y68718D01*
X32850Y65954D01*
X15654Y65949D01*
X15562Y65927D01*
X15475Y65891D01*
X15394Y65841D01*
X15322Y65780D01*
X15261Y65708D01*
X15212Y65628D01*
X15176Y65540D01*
X15154Y65448D01*
X15148Y65354D01*
X15154Y57386D01*
X15176Y57294D01*
X15212Y57207D01*
X15261Y57127D01*
X15322Y57055D01*
X15394Y56993D01*
X15475Y56944D01*
X15562Y56908D01*
X15654Y56886D01*
X15748Y56880D01*
X35527Y56886D01*
X35619Y56908D01*
X35706Y56944D01*
X35787Y56993D01*
X35859Y57055D01*
X35920Y57127D01*
X35969Y57207D01*
X36005Y57294D01*
X36028Y57386D01*
X36033Y57480D01*
X36029Y62769D01*
X37559Y64298D01*
Y62788D01*
X37479Y62662D01*
X37299Y62317D01*
X37150Y61957D01*
X37033Y61587D01*
X36949Y61207D01*
X36899Y60822D01*
X36882Y60433D01*
X36886Y60374D01*
Y37206D01*
X36886Y37205D01*
X36901Y36731D01*
X36963Y36260D01*
X37066Y35797D01*
X37209Y35344D01*
X37391Y34906D01*
X37559Y34582D01*
Y28725D01*
X37265Y28632D01*
X36856Y28541D01*
X36441Y28487D01*
X36187Y28476D01*
X36185Y31571D01*
X36163Y31662D01*
X36127Y31750D01*
X36077Y31830D01*
X36016Y31902D01*
X35944Y31963D01*
X35864Y32013D01*
X35777Y32049D01*
X35685Y32071D01*
X35591Y32076D01*
X15496Y32071D01*
X15405Y32049D01*
X15317Y32013D01*
X15237Y31963D01*
X15165Y31902D01*
X15104Y31830D01*
X15054Y31750D01*
X15018Y31662D01*
X14996Y31571D01*
X14991Y31476D01*
X14996Y22366D01*
X15018Y22275D01*
X15054Y22187D01*
X15104Y22107D01*
X15165Y22035D01*
X15237Y21974D01*
X15317Y21924D01*
X15405Y21888D01*
X15496Y21866D01*
X15591Y21861D01*
X35685Y21866D01*
X35777Y21888D01*
X35864Y21924D01*
X35944Y21974D01*
X36016Y22035D01*
X36077Y22107D01*
X36127Y22187D01*
X36163Y22275D01*
X36185Y22366D01*
X36191Y22461D01*
X36189Y25474D01*
X36703Y25491D01*
X37379Y25580D01*
X37559Y25620D01*
Y2362D01*
G37*
G36*
X156617Y46093D02*X156691Y46138D01*
X156811Y46240D01*
X156913Y46360D01*
X156995Y46494D01*
X157055Y46640D01*
X157092Y46793D01*
X157101Y46950D01*
X157092Y49861D01*
X157055Y50014D01*
X156995Y50159D01*
X156913Y50293D01*
X156811Y50413D01*
X156691Y50515D01*
X156557Y50598D01*
X156411Y50658D01*
X156380Y50665D01*
X162174D01*
X162249Y50591D01*
X160398Y48740D01*
X160353Y48702D01*
X160200Y48522D01*
X160077Y48321D01*
X159986Y48103D01*
X159931Y47873D01*
X159931Y47873D01*
X159913Y47638D01*
X159917Y47579D01*
Y46560D01*
X159718Y46559D01*
X159596Y46530D01*
X159479Y46482D01*
X159372Y46416D01*
X159276Y46334D01*
X159194Y46238D01*
X159129Y46131D01*
X159080Y46015D01*
X159051Y45892D01*
X159051Y45890D01*
X156850D01*
X156791Y45894D01*
X156615Y45881D01*
X156622Y45965D01*
X156617Y46023D01*
Y46093D01*
G37*
G36*
X162870Y101150D02*Y95308D01*
X162855Y95299D01*
X162854Y95298D01*
X162854Y95299D01*
X162780Y95344D01*
Y100865D01*
X162785Y100923D01*
X162766Y101159D01*
X162766Y101159D01*
X162766Y101159D01*
X162739Y101274D01*
X162736Y101284D01*
X162870Y101150D01*
G37*
G36*
X159051Y37969D02*X159051Y37966D01*
X159080Y37844D01*
X159129Y37727D01*
X159194Y37620D01*
X159276Y37524D01*
X159372Y37442D01*
X159479Y37376D01*
X159596Y37328D01*
X159602Y37327D01*
X159184D01*
X158543Y37969D01*
X159051D01*
G37*
G36*
X137174Y98303D02*X137280Y98198D01*
Y97225D01*
X137258Y97315D01*
X137167Y97533D01*
X137044Y97735D01*
X136891Y97914D01*
X136846Y97953D01*
X136495Y98303D01*
X137174D01*
G37*
G36*
X107610Y47811D02*X110504D01*
X110518Y47754D01*
X110686Y47347D01*
X110917Y46971D01*
X111203Y46636D01*
X111538Y46350D01*
X111914Y46120D01*
X111925Y46115D01*
X111955Y45992D01*
X111997Y45890D01*
X109648D01*
X109556Y46041D01*
X109269Y46376D01*
X108934Y46662D01*
X108559Y46892D01*
X108151Y47061D01*
X107723Y47164D01*
X107283Y47198D01*
X106972Y47174D01*
X107610Y47811D01*
G37*
G36*
X106079Y41858D02*Y36574D01*
X106074Y36516D01*
X106093Y36280D01*
X106122Y36156D01*
X104846Y37432D01*
Y43008D01*
X105011Y42739D01*
X105297Y42404D01*
X105633Y42118D01*
X106008Y41887D01*
X106079Y41858D01*
G37*
G36*
X146853Y50665D02*X150707D01*
X150675Y50658D01*
X150530Y50598D01*
X150396Y50515D01*
X150276Y50413D01*
X150174Y50293D01*
X150092Y50159D01*
X150031Y50014D01*
X149995Y49861D01*
X149985Y49704D01*
X149990Y48095D01*
X148740Y49346D01*
X148702Y49391D01*
X148522Y49544D01*
X148321Y49667D01*
X148103Y49758D01*
X147873Y49813D01*
X147638Y49831D01*
X147579Y49827D01*
X146031D01*
X146139Y49893D01*
X146474Y50179D01*
X146760Y50514D01*
X146853Y50665D01*
G37*
G36*
X153075Y61815D02*Y68079D01*
X153573Y68578D01*
X153579Y62701D01*
X153601Y62609D01*
X153637Y62522D01*
X153640Y62517D01*
X153526Y62419D01*
X153240Y62084D01*
X153075Y61815D01*
G37*
G36*
X128032Y79099D02*X128070Y79054D01*
X128249Y78901D01*
X128451Y78777D01*
X128669Y78687D01*
X128898Y78632D01*
X129134Y78613D01*
X129193Y78618D01*
X135431D01*
X135523Y78467D01*
X135809Y78132D01*
X135876Y78075D01*
X128968D01*
X119606Y87436D01*
X119568Y87481D01*
X119388Y87635D01*
X119187Y87758D01*
X118969Y87848D01*
X118739Y87903D01*
X118739Y87903D01*
X118504Y87922D01*
X118445Y87917D01*
X94097D01*
X94005Y88068D01*
X93718Y88403D01*
X93383Y88690D01*
X93236Y88780D01*
X93383Y88870D01*
X93718Y89156D01*
X94005Y89491D01*
X94097Y89642D01*
X117489D01*
X128032Y79099D01*
G37*
G36*
X101846Y41335D02*Y39177D01*
X101682Y39446D01*
X101395Y39781D01*
X101060Y40068D01*
X100753Y40256D01*
X101060Y40444D01*
X101395Y40731D01*
X101682Y41066D01*
X101846Y41335D01*
G37*
G36*
X109079Y41272D02*Y42241D01*
X109269Y42404D01*
X109556Y42739D01*
X109648Y42890D01*
X111583D01*
X112513Y41961D01*
X112496Y41971D01*
X112088Y42140D01*
X111660Y42243D01*
X111220Y42277D01*
X110781Y42243D01*
X110353Y42140D01*
X109945Y41971D01*
X109570Y41741D01*
X109234Y41455D01*
X109079Y41272D01*
G37*
G36*
X136224Y46827D02*X139499D01*
X139544Y46753D01*
X139629Y46653D01*
X139544Y46553D01*
X139462Y46419D01*
X139401Y46273D01*
X139365Y46120D01*
X139355Y45964D01*
X139365Y43839D01*
X139401Y43686D01*
X139462Y43540D01*
X139544Y43406D01*
X139544Y43406D01*
X139544Y43405D01*
X139462Y43271D01*
X139401Y43125D01*
X139365Y42972D01*
X139362Y42937D01*
X138417D01*
X137575Y43778D01*
X137617Y43950D01*
X137643Y44390D01*
X137617Y44829D01*
X137514Y45258D01*
X137345Y45665D01*
X137115Y46041D01*
X136829Y46376D01*
X136493Y46662D01*
X136224Y46827D01*
G37*
G36*
X137207Y37969D02*X139364D01*
X139365Y37933D01*
X139401Y37780D01*
X139462Y37635D01*
X139544Y37500D01*
X139544Y37500D01*
X139544Y37500D01*
X139499Y37426D01*
X138938D01*
X138879Y37431D01*
X138866Y37430D01*
X138663Y37514D01*
X138235Y37617D01*
X137795Y37651D01*
X137356Y37617D01*
X136927Y37514D01*
X136806Y37464D01*
X136829Y37482D01*
X137115Y37818D01*
X137207Y37969D01*
G37*
G36*
X144767Y77400D02*X142686Y75319D01*
X141373D01*
X141436Y75358D01*
X141615Y75511D01*
X141653Y75556D01*
X143483Y77385D01*
X143655Y77344D01*
X144094Y77309D01*
X144534Y77344D01*
X144767Y77400D01*
G37*
G36*
X94097Y84917D02*X117883D01*
X119607Y83193D01*
X94097D01*
X94005Y83344D01*
X93718Y83679D01*
X93383Y83965D01*
X93236Y84055D01*
X93383Y84145D01*
X93718Y84431D01*
X94005Y84766D01*
X94097Y84917D01*
G37*
G36*
X94097Y80193D02*X119064D01*
X126457Y72800D01*
X126495Y72755D01*
X126675Y72602D01*
X126738Y72563D01*
X126212D01*
X120787Y77988D01*
X120749Y78032D01*
X120569Y78186D01*
X120368Y78309D01*
X120150Y78399D01*
X119920Y78455D01*
X119685Y78473D01*
X119626Y78469D01*
X94097D01*
X94005Y78619D01*
X93718Y78955D01*
X93383Y79241D01*
X93236Y79331D01*
X93383Y79421D01*
X93718Y79707D01*
X94005Y80042D01*
X94097Y80193D01*
G37*
G36*
X153855Y50665D02*X153823Y50658D01*
X153678Y50598D01*
X153544Y50515D01*
X153543Y50515D01*
X153543Y50515D01*
X153409Y50598D01*
X153263Y50658D01*
X153232Y50665D01*
X153855D01*
G37*
G36*
X98316Y45294D02*X98311Y48086D01*
X98289Y48178D01*
X98253Y48265D01*
X98203Y48346D01*
X98142Y48418D01*
X98070Y48479D01*
X97990Y48528D01*
X97903Y48565D01*
X97827Y48583D01*
X97903Y48601D01*
X97990Y48637D01*
X98070Y48686D01*
X98142Y48748D01*
X98203Y48819D01*
X98253Y48900D01*
X98289Y48987D01*
X98311Y49079D01*
X98317Y49173D01*
X98311Y52417D01*
X98289Y52509D01*
X98253Y52596D01*
X98203Y52677D01*
X98142Y52748D01*
X98070Y52810D01*
X97990Y52859D01*
X97903Y52895D01*
X97827Y52913D01*
X97903Y52932D01*
X97990Y52968D01*
X98070Y53017D01*
X98142Y53078D01*
X98203Y53150D01*
X98253Y53231D01*
X98289Y53318D01*
X98311Y53410D01*
X98317Y53504D01*
X98311Y56748D01*
X98289Y56840D01*
X98253Y56927D01*
X98203Y57007D01*
X98142Y57079D01*
X98070Y57140D01*
X97990Y57190D01*
X97903Y57226D01*
X97827Y57244D01*
X97903Y57262D01*
X97990Y57298D01*
X98070Y57348D01*
X98142Y57409D01*
X98203Y57481D01*
X98253Y57561D01*
X98289Y57649D01*
X98311Y57740D01*
X98317Y57835D01*
X98311Y61078D01*
X98289Y61170D01*
X98253Y61257D01*
X98203Y61338D01*
X98142Y61410D01*
X98070Y61471D01*
X97990Y61521D01*
X97903Y61557D01*
X97827Y61575D01*
X97903Y61593D01*
X97990Y61629D01*
X98070Y61678D01*
X98142Y61740D01*
X98203Y61812D01*
X98249Y61886D01*
X99341D01*
X99386Y61812D01*
X99489Y61693D01*
X99608Y61590D01*
X99742Y61508D01*
X99888Y61448D01*
X100041Y61411D01*
X100198Y61402D01*
X103109Y61411D01*
X103262Y61448D01*
X103407Y61508D01*
X103541Y61590D01*
X103661Y61693D01*
X103763Y61812D01*
X103808Y61886D01*
X109615D01*
X113409Y58092D01*
X113368Y57920D01*
X113333Y57480D01*
X113368Y57041D01*
X113471Y56612D01*
X113639Y56205D01*
X113870Y55829D01*
X114156Y55494D01*
X114491Y55208D01*
X114867Y54978D01*
X115274Y54809D01*
X115702Y54706D01*
X116020Y54681D01*
Y54497D01*
X115947Y54452D01*
X115827Y54350D01*
X115725Y54230D01*
X115643Y54096D01*
X115582Y53951D01*
X115546Y53798D01*
X115536Y53641D01*
X115546Y50730D01*
X115582Y50577D01*
X115643Y50431D01*
X115725Y50297D01*
X115827Y50177D01*
X115947Y50075D01*
X116020Y50030D01*
Y47302D01*
X116015Y47243D01*
X116034Y47009D01*
X116034Y47008D01*
X116034Y47008D01*
X116034Y47008D01*
X116058Y46907D01*
X116089Y46778D01*
X116089Y46778D01*
X116089Y46778D01*
X116129Y46682D01*
X116179Y46560D01*
X116179Y46560D01*
X116179Y46560D01*
X116234Y46471D01*
X116303Y46359D01*
X116303Y46359D01*
X116303Y46359D01*
X116303Y46358D01*
X116456Y46179D01*
X116501Y46141D01*
X117737Y44906D01*
X117058D01*
X115245Y46718D01*
X115461Y46971D01*
X115691Y47347D01*
X115860Y47754D01*
X115963Y48183D01*
X115989Y48622D01*
X115963Y49061D01*
X115860Y49490D01*
X115691Y49897D01*
X115461Y50273D01*
X115175Y50608D01*
X114840Y50894D01*
X114464Y51125D01*
X114057Y51293D01*
X113628Y51396D01*
X113189Y51431D01*
X112750Y51396D01*
X112321Y51293D01*
X111914Y51125D01*
X111538Y50894D01*
X111441Y50811D01*
X107047D01*
X106988Y50816D01*
X106753Y50797D01*
X106523Y50742D01*
X106305Y50652D01*
X106104Y50528D01*
X106104Y50528D01*
X105924Y50375D01*
X105886Y50330D01*
X102327Y46772D01*
X102283Y46733D01*
X102129Y46554D01*
X102006Y46352D01*
X101915Y46134D01*
X101860Y45905D01*
X101860Y45904D01*
X101842Y45669D01*
X101846Y45611D01*
Y44099D01*
X101682Y44367D01*
X101395Y44703D01*
X101060Y44989D01*
X100685Y45219D01*
X100277Y45388D01*
X99849Y45491D01*
X99409Y45525D01*
X98970Y45491D01*
X98542Y45388D01*
X98316Y45294D01*
G37*
G36*
X272929Y129134D02*X295669D01*
X298819Y125984D01*
Y5118D01*
X296457Y2756D01*
X272929D01*
Y20087D01*
X276173Y20090D01*
X276265Y20112D01*
X276352Y20148D01*
X276433Y20197D01*
X276504Y20259D01*
X276566Y20330D01*
X276615Y20411D01*
X276651Y20498D01*
X276673Y20590D01*
X276679Y20684D01*
X276673Y25378D01*
X276651Y25470D01*
X276615Y25557D01*
X276566Y25638D01*
X276504Y25710D01*
X276433Y25771D01*
X276352Y25821D01*
X276265Y25857D01*
X276173Y25879D01*
X276079Y25884D01*
X272929Y25882D01*
Y25993D01*
X277404Y25995D01*
X277496Y26017D01*
X277583Y26054D01*
X277664Y26103D01*
X277736Y26164D01*
X277797Y26236D01*
X277846Y26317D01*
X277883Y26404D01*
X277905Y26496D01*
X277910Y26590D01*
X277905Y31284D01*
X277883Y31376D01*
X277846Y31463D01*
X277797Y31544D01*
X277736Y31615D01*
X277664Y31677D01*
X277583Y31726D01*
X277496Y31762D01*
X277404Y31784D01*
X277310Y31790D01*
X272929Y31787D01*
Y31898D01*
X284799Y31901D01*
X284891Y31923D01*
X284978Y31959D01*
X285059Y32008D01*
X285130Y32070D01*
X285192Y32142D01*
X285241Y32222D01*
X285277Y32309D01*
X285299Y32401D01*
X285305Y32495D01*
X285299Y37189D01*
X285277Y37281D01*
X285241Y37369D01*
X285192Y37449D01*
X285130Y37521D01*
X285059Y37582D01*
X284978Y37632D01*
X284891Y37668D01*
X284799Y37690D01*
X284705Y37695D01*
X272929Y37692D01*
Y78340D01*
X275197D01*
X275754Y78373D01*
X276297Y78503D01*
X276813Y78717D01*
X277290Y79009D01*
X277715Y79372D01*
X278078Y79797D01*
X278370Y80273D01*
X278584Y80789D01*
X278714Y81333D01*
X278758Y81890D01*
X278714Y82447D01*
X278584Y82990D01*
X278370Y83506D01*
X278078Y83983D01*
X277715Y84408D01*
X277290Y84771D01*
X276813Y85063D01*
X276297Y85276D01*
X275754Y85407D01*
X275197Y85440D01*
X272929D01*
Y129134D01*
G37*
G36*
Y2756D02*X250394D01*
Y78340D01*
X272929D01*
Y37692D01*
X261811Y37690D01*
X261719Y37668D01*
X261631Y37632D01*
X261551Y37582D01*
X261479Y37521D01*
X261418Y37449D01*
X261368Y37369D01*
X261332Y37281D01*
X261310Y37189D01*
X261305Y37095D01*
X261310Y32401D01*
X261332Y32309D01*
X261368Y32222D01*
X261418Y32142D01*
X261479Y32070D01*
X261551Y32008D01*
X261631Y31959D01*
X261719Y31923D01*
X261811Y31901D01*
X261905Y31895D01*
X272929Y31898D01*
Y31787D01*
X267716Y31784D01*
X267624Y31762D01*
X267537Y31726D01*
X267456Y31677D01*
X267385Y31615D01*
X267323Y31544D01*
X267274Y31463D01*
X267238Y31376D01*
X267216Y31284D01*
X267210Y31190D01*
X267216Y26496D01*
X267238Y26404D01*
X267274Y26317D01*
X267323Y26236D01*
X267385Y26164D01*
X267456Y26103D01*
X267537Y26054D01*
X267624Y26017D01*
X267716Y25995D01*
X267810Y25990D01*
X272929Y25993D01*
Y25882D01*
X269685Y25879D01*
X269593Y25857D01*
X269506Y25821D01*
X269425Y25771D01*
X269353Y25710D01*
X269292Y25638D01*
X269242Y25557D01*
X269206Y25470D01*
X269184Y25378D01*
X269179Y25284D01*
X269184Y20590D01*
X269206Y20498D01*
X269242Y20411D01*
X269292Y20330D01*
X269353Y20259D01*
X269425Y20197D01*
X269506Y20148D01*
X269593Y20112D01*
X269685Y20090D01*
X269779Y20084D01*
X272929Y20087D01*
Y2756D01*
G37*
G36*
X256824Y85440D02*X250394D01*
Y129134D01*
X272929D01*
Y85440D01*
X256824D01*
G37*
G54D12*X121457Y22638D02*Y21457D01*
X121575Y22520D02*Y20630D01*
X107579Y36516D02*X121575Y22520D01*
X111575Y28583D02*Y20630D01*
Y28583D02*X111220Y28937D01*
X88583Y27953D02*X99409D01*
X101378Y25984D01*
Y20827D01*
X101575Y20630D01*
X155118Y72244D02*X151575Y68701D01*
X140551Y76575D02*X144094Y80118D01*
X148819Y79331D02*X150787D01*
X151575Y68701D02*Y61220D01*
X129134Y80118D02*X137795D01*
X118504Y86417D02*X128346Y76575D01*
X140551D01*
X127559Y73819D02*X143307D01*
X119685Y76969D02*X125591Y71063D01*
X125984Y56496D02*X133858D01*
X125591Y71063D02*X149213D01*
X157087Y78937D01*
X133858Y56496D02*X138780Y51575D01*
X141633D01*
X151575Y61220D02*X146457Y56102D01*
X142381D02*X146457D01*
X142381D02*X138838Y59646D01*
X138879Y35926D02*X141831D01*
X138879D02*X137795Y34843D01*
X115157Y41437D02*X119390D01*
X111220Y39469D02*X119390D01*
Y45374D02*X120079Y46063D01*
X119390Y43406D02*X116437D01*
X116929Y35039D02*X119390Y37500D01*
X103346Y45669D02*Y36811D01*
X107579Y44390D02*Y36516D01*
X111457Y28701D02*X103346Y36811D01*
X101773Y63386D02*X110236D01*
X115157Y41437D02*X112205Y44390D01*
X107283D02*X112205D01*
X116437Y43406D02*X113386Y46457D01*
X106988Y49311D02*X112500D01*
X113386Y48425D02*X112500Y49311D01*
X113386Y46457D02*Y48425D01*
X86614Y44685D02*Y29921D01*
X87402Y59252D02*X93386D01*
X93780Y59646D01*
Y42087D02*X98780D01*
X101575Y63386D02*X93780D01*
X158563Y35827D02*X156890Y37500D01*
X174213Y35827D02*X158563D01*
X174213Y46654D02*Y30906D01*
X156890Y39469D02*X160828D01*
X174213Y46654D02*X170276Y50591D01*
X164370D02*X170276D01*
X164370D02*X161417Y47638D01*
X164370Y50591D02*X162795Y52165D01*
G54D13*X182087Y49606D02*X177165Y54528D01*
X182087Y40748D02*Y35827D01*
G54D12*X174213Y30906D02*X178346Y26772D01*
X165354Y92184D02*X164428Y93110D01*
X155354Y92342D02*X154586Y93110D01*
X165354Y92184D02*Y87008D01*
G54D13*X181102Y87992D02*X165354Y72244D01*
X177165Y75197D02*X172736Y79626D01*
G54D12*X155118Y72244D02*X165354D01*
G54D13*X181102Y90197D02*Y87992D01*
G54D12*X160354Y92184D02*X161280Y93110D01*
X160354Y92184D02*Y87008D01*
X155354Y92342D02*Y87008D01*
X164370Y101772D02*Y93169D01*
X161280Y100924D02*Y93110D01*
Y100924D02*X160433Y101772D01*
X162795Y52165D02*X164370Y50591D01*
X144488Y52165D02*X162795D01*
X165354Y60572D02*X164428Y59646D01*
X165354Y72244D02*Y60572D01*
G54D13*X177165Y75197D02*Y54528D01*
G54D12*X170472Y71457D02*Y65866D01*
X170354Y65748D01*
X156791Y44390D02*X160828D01*
X156791D02*X156496Y44094D01*
X155117Y48327D02*Y45964D01*
X154528Y45374D01*
Y44094D01*
X144685Y65669D02*Y60433D01*
X155354Y65748D02*Y60591D01*
X155512Y60433D01*
X144685Y65669D02*X144764Y65748D01*
X139764D02*Y60572D01*
G54D14*X151575Y120630D02*Y110630D01*
X141575Y120630D02*Y110630D01*
X131575Y120630D02*Y110630D01*
X121575Y120630D02*Y110630D01*
X111575Y120630D02*Y110630D01*
X101575Y120630D02*Y110630D01*
X91575Y120630D02*Y110630D01*
X81575Y120630D02*Y110630D01*
X71575Y120630D02*Y110630D01*
X61575Y120630D02*Y110630D01*
X51575Y120630D02*Y110630D01*
G54D12*X139764Y92184D02*X138838Y93110D01*
X139764Y92184D02*Y87008D01*
X134764Y92184D02*X135690Y93110D01*
X134764Y92184D02*Y87008D01*
X138780Y98819D02*Y93169D01*
Y98819D02*X137795Y99803D01*
X135827Y96850D02*Y93247D01*
Y96850D02*X134843Y97835D01*
X129764Y92342D02*X128995Y93110D01*
X129764Y92342D02*Y87008D01*
X118110Y91142D02*X129134Y80118D01*
X117520Y47243D02*X119390Y45374D01*
X129527Y49606D02*X125984Y46063D01*
X120079D02*X124016D01*
Y54528D02*Y46063D01*
X125984Y56496D02*X124016Y54528D01*
X117520Y56102D02*Y47243D01*
Y56102D02*X110236Y63386D01*
X139764Y60572D02*X138838Y59646D01*
X135827Y48327D02*X134843Y49311D01*
X129527Y52264D02*Y49606D01*
X137795Y41437D02*X134843Y44390D01*
X124016Y65354D02*X129370D01*
X129764Y65748D01*
X145669Y37500D02*X148228D01*
X134843Y39469D02*X148228D01*
X137795Y41437D02*X148228D01*
X141732Y35926D02*X144095D01*
X145669Y37500D02*X144095Y35926D01*
X141633Y51575D02*X143798Y51475D01*
X135827Y48327D02*X147638D01*
X150591Y45374D02*Y44094D01*
Y45374D02*X147638Y48327D01*
X151969D02*Y45964D01*
X152559Y45374D01*
Y44094D01*
X161417Y47638D02*Y45374D01*
X160433Y44390D01*
X141732Y44980D02*X144391D01*
X144685Y44685D01*
X164370Y101772D02*X162402Y103740D01*
G54D14*X201575Y120630D02*Y110630D01*
X191575Y120630D02*Y110630D01*
X181575Y120630D02*Y110512D01*
X171575Y120630D02*Y110630D01*
X231575Y120630D02*Y110630D01*
X221575Y120630D02*Y110630D01*
X211575Y120630D02*Y110630D01*
X161575Y120630D02*Y110630D01*
G54D13*X222520Y101181D02*X231575Y110236D01*
G54D14*X241575Y20630D02*Y10630D01*
X231575Y20630D02*Y10630D01*
X221575Y20630D02*Y10630D01*
X211575Y20630D02*Y10630D01*
X201575Y20630D02*Y10630D01*
X191575Y20630D02*Y10630D01*
G54D13*X210236Y53701D02*Y38976D01*
G54D14*X181575Y20630D02*Y10630D01*
G54D13*X182087Y49606D02*X190315D01*
X192677Y47244D01*
G54D12*X241575Y25551D02*Y20630D01*
X178346Y26772D02*X240354D01*
X241575Y25551D02*X240354Y26772D01*
G54D13*X229528Y38976D02*Y65591D01*
G54D14*X171575Y20630D02*Y10630D01*
X161575Y20630D02*Y10630D01*
X151575Y20630D02*Y10630D01*
X141575Y20906D02*Y10630D01*
X131575Y20630D02*Y10630D01*
X121457Y21063D02*Y10748D01*
X121575Y10630D01*
X111575Y20630D02*Y10630D01*
X101575Y20630D02*Y10630D01*
X91575Y20630D02*Y10630D01*
X81575Y20630D02*Y10630D01*
X71575Y20630D02*Y10630D01*
X61575Y20630D02*Y10630D01*
X51575Y20630D02*Y10630D01*
G54D13*X210236Y79528D02*Y69685D01*
Y90157D02*X190000D01*
X189961Y90197D01*
X209843Y90157D02*X212993D01*
X221260Y81891D01*
X235826D01*
X235827Y81890D01*
X229528Y65591D02*X235827Y71890D01*
Y81890D02*X275197D01*
X212598Y90157D02*Y98819D01*
X214961Y101181D01*
X222520D01*
G54D12*X86614Y29921D02*X88583Y27953D01*
X25591Y26969D02*X36023D01*
X42323Y44095D02*Y41143D01*
X42717Y40748D01*
X42323Y40354D02*Y36417D01*
Y40354D02*X42717Y40748D01*
X88346Y46417D02*X93780D01*
Y63740D02*Y55079D01*
X88346Y46417D02*X86614Y44685D01*
X45276Y50591D02*X55433D01*
X55591Y50748D01*
X38386Y60433D02*Y37206D01*
X41339Y63386D02*X55236D01*
X55591Y63740D01*
X106988Y49311D02*X103346Y45669D01*
X98780Y42087D02*X99409Y42717D01*
X93780Y37756D02*X99370D01*
X99409Y37795D01*
G54D13*X74803Y61417D02*Y29921D01*
Y61417D02*X61024Y75197D01*
X45276D02*X61024D01*
X45276D02*X31496Y61417D01*
X25591D02*X31496D01*
G54D12*X41339Y101772D02*X160433D01*
X41339Y103740D02*X162402D01*
X41339D02*X36417Y108661D01*
X25591D02*X36417D01*
X48228Y99803D02*X137795D01*
X59055Y97835D02*X134843D01*
X91732Y91142D02*X118110D01*
X91732Y86417D02*X118504D01*
X41339Y101772D02*X36417Y96850D01*
X25591D02*X36417D01*
X48228Y99803D02*X33465Y85039D01*
X25591D02*X33465D01*
X59055Y97835D02*X34449Y73228D01*
X25591D02*X34449D01*
X127559Y73819D02*X119685Y81693D01*
X148819Y79331D02*X143307Y73819D01*
X91732Y81693D02*X119685D01*
X91732Y76969D02*X119685D01*
X45670Y50591D02*G75*G03X42323Y47243I0J-3347D01*G01*
X36023Y26969D02*G75*G03X42323Y33269I0J6300D01*G01*
X38386Y37206D02*G75*G03X42323Y33269I3937J0D01*G01*
X41339Y63386D02*G75*G03X38386Y60433I0J-2953D01*G01*
G54D15*X262705Y36795D02*Y32795D01*
X262205Y36795D02*X264205D01*
X264705Y36295D01*
Y35295D01*
X264205Y34795D02*X264705Y35295D01*
X262705Y34795D02*X264205D01*
X265905Y36795D02*X266905Y34795D01*
X267905Y36795D01*
X266905Y34795D02*Y32795D01*
X269105Y36795D02*X271105D01*
X271605Y36295D01*
Y35295D01*
X271105Y34795D02*X271605Y35295D01*
X269605Y34795D02*X271105D01*
X269605Y36795D02*Y32795D01*
X270405Y34795D02*X271605Y32795D01*
X272805Y36795D02*Y32795D01*
Y36795D02*X275305Y32795D01*
Y36795D02*Y32795D01*
X276505Y34795D02*X278505D01*
X279705Y36795D02*X280705Y32795D01*
X281705Y36795D01*
X282905Y35995D02*X283705Y36795D01*
Y32795D01*
X282905D02*X284405D01*
X268110Y30890D02*X270110D01*
X269110D02*Y26890D01*
X271310Y30390D02*Y27390D01*
Y30390D02*X271810Y30890D01*
X272810D01*
X273310Y30390D01*
Y27390D01*
X272810Y26890D02*X273310Y27390D01*
X271810Y26890D02*X272810D01*
X271310Y27390D02*X271810Y26890D01*
X275010Y30890D02*Y26890D01*
X274510Y30890D02*X276510D01*
X277010Y30390D01*
Y29390D01*
X276510Y28890D02*X277010Y29390D01*
X275010Y28890D02*X276510D01*
X270779Y20984D02*X272079D01*
X270079Y21684D02*X270779Y20984D01*
X270079Y24284D02*Y21684D01*
Y24284D02*X270779Y24984D01*
X272079D01*
X273279Y20984D02*X275279D01*
X275779Y21484D01*
Y22684D02*Y21484D01*
X275279Y23184D02*X275779Y22684D01*
X273779Y23184D02*X275279D01*
X273779Y24984D02*Y20984D01*
X273279Y24984D02*X275279D01*
X275779Y24484D01*
Y23684D01*
X275279Y23184D02*X275779Y23684D01*
G54D16*X111575Y110630D03*
X101575D03*
X91575D03*
X81575D03*
X71575D03*
X61575D03*
X51575D03*
Y20630D03*
X61575D03*
X71575D03*
X81575D03*
X91575D03*
X101575D03*
X111575D03*
X121575D03*
X131575D03*
X141575D03*
X151575D03*
X161575D03*
X171575D03*
X181575D03*
X191575D03*
X201575D03*
X211575D03*
G54D17*X192677Y47244D03*
Y57244D03*
Y67244D03*
Y77244D03*
G54D16*X221575Y20630D03*
X231575D03*
X241575D03*
X131575Y120630D03*
X121575D03*
X111575D03*
X101575D03*
X91575D03*
X81575D03*
X71575D03*
X61575D03*
X51575D03*
Y10630D03*
X61575D03*
X71575D03*
X81575D03*
X91575D03*
X101575D03*
X111575D03*
X121575D03*
X131575D03*
X141575D03*
X151575D03*
X161575D03*
X171575D03*
X181575D03*
X191575D03*
X201575D03*
X211575D03*
X221575D03*
X231575D03*
X241575D03*
X161575Y110630D03*
X151575D03*
X141575D03*
X131575D03*
X121575D03*
X211575D03*
X201575D03*
X191575D03*
X181575D03*
G54D11*G36*
X237638Y114567D02*Y106693D01*
X245512D01*
Y114567D01*
X237638D01*
G37*
G54D16*X231575Y110630D03*
X221575D03*
G54D11*G36*
X237638Y124567D02*Y116693D01*
X245512D01*
Y124567D01*
X237638D01*
G37*
G54D16*X231575Y120630D03*
X221575D03*
X211575D03*
X201575D03*
X171575Y110630D03*
Y120630D03*
X191575D03*
X181575D03*
X161575D03*
X151575D03*
X141575D03*
G54D18*X119193Y37500D02*X119587D01*
X128445D02*X128839D01*
X128445Y39469D02*X128839D01*
X119193Y45374D02*X119587D01*
X119193Y43406D02*X119587D01*
X119193Y41437D02*X119587D01*
X119193Y39469D02*X119587D01*
X128445Y41437D02*X128839D01*
G54D19*X129527Y52657D02*Y51871D01*
X126379Y52657D02*Y51871D01*
G54D20*X129764Y67520D02*Y63976D01*
X134764Y67520D02*Y63976D01*
X139764Y67520D02*Y63976D01*
G54D18*X128445Y45374D02*X128839D01*
X125984Y46260D02*Y45866D01*
X124016Y46260D02*Y45866D01*
X122047Y46260D02*Y45866D01*
G54D19*X120668Y52657D02*Y51871D01*
X138838Y60039D02*Y59253D01*
X135690Y60039D02*Y59253D01*
G54D20*X155354Y88780D02*Y85236D01*
G54D19*X154586Y93503D02*Y92717D01*
X151438Y93503D02*Y92717D01*
G54D18*X128445Y43406D02*X128839D01*
X152559Y44291D02*Y43898D01*
Y35039D02*Y34646D01*
X154528Y35039D02*Y34646D01*
X156496Y35039D02*Y34646D01*
X150591Y44291D02*Y43898D01*
X148622Y44291D02*Y43898D01*
X148031Y41437D02*X148425D01*
X148622Y35039D02*Y34646D01*
X150591Y35039D02*Y34646D01*
X148031Y39469D02*X148425D01*
X148031Y37500D02*X148425D01*
X156693D02*X157087D01*
X156693Y39469D02*X157087D01*
X156693Y41437D02*X157087D01*
G54D19*X141339Y48327D02*X142125D01*
X141339Y51475D02*X142125D01*
X141339Y41832D02*X142125D01*
X141339Y44980D02*X142125D01*
X141339Y39074D02*X142125D01*
X141339Y35926D02*X142125D01*
G54D20*X144764Y67520D02*Y63976D01*
Y88780D02*Y85236D01*
G54D19*X135690Y93503D02*Y92717D01*
X138838Y93503D02*Y92717D01*
G54D20*X139764Y88780D02*Y85236D01*
G54D19*X128995Y93503D02*Y92717D01*
X125847Y93503D02*Y92717D01*
G54D20*X134764Y88780D02*Y85236D01*
X129764Y88780D02*Y85236D01*
G54D18*X122047Y37008D02*Y36614D01*
X124016Y37008D02*Y36614D01*
X125984Y37008D02*Y36614D01*
G54D19*X117520Y52657D02*Y51871D01*
G54D21*X91417Y33425D02*X96142D01*
X91417Y37756D02*X96142D01*
X91417Y42087D02*X96142D01*
G54D22*X91417Y33425D02*X96142D01*
X91417Y37756D02*X96142D01*
X91417Y42087D02*X96142D01*
G54D21*X91417Y46417D02*X96142D01*
G54D22*X91417D02*X96142D01*
G54D21*X91417Y50748D02*X96142D01*
G54D22*X91417D02*X96142D01*
G54D23*X20344Y44222D02*X30837D01*
G54D24*X19685Y61417D02*X31496D01*
G54D25*X20098Y26969D02*X31083D01*
G54D23*X20344Y9715D02*X30837D01*
G54D24*X19685Y73228D02*X31496D01*
X19685Y85039D02*X31496D01*
X19685Y96850D02*X31496D01*
X19685Y108661D02*X31496D01*
X19685Y120472D02*X31496D01*
G54D19*X41930Y44095D02*X42716D01*
X41930Y47243D02*X42716D01*
X42717Y41141D02*Y40355D01*
X45865Y41141D02*Y40355D01*
X41930Y33269D02*X42716D01*
X41930Y36417D02*X42716D01*
G54D21*X53228Y59409D02*X57953D01*
G54D22*X53228D02*X57953D01*
G54D21*X53228Y42087D02*X57953D01*
X53228Y37756D02*X57953D01*
X53228Y33425D02*X57953D01*
G54D22*X53228Y42087D02*X57953D01*
X53228Y37756D02*X57953D01*
X53228Y33425D02*X57953D01*
G54D21*X53228Y55079D02*X57953D01*
X53228Y50748D02*X57953D01*
X53228Y46417D02*X57953D01*
G54D22*X53228Y55079D02*X57953D01*
X53228Y50748D02*X57953D01*
X53228Y46417D02*X57953D01*
G54D21*X91417Y55079D02*X96142D01*
X91417Y59409D02*X96142D01*
G54D22*X91417Y55079D02*X96142D01*
X91417Y59409D02*X96142D01*
G54D21*X91417Y63740D02*X96142D01*
X91417Y68071D02*X96142D01*
G54D22*X91417Y63740D02*X96142D01*
X91417Y68071D02*X96142D01*
G54D19*X101182Y63386D02*X101968D01*
X101182Y66534D02*X101968D01*
G54D21*X53228Y68071D02*X57953D01*
G54D22*X53228D02*X57953D01*
G54D21*X53228Y63740D02*X57953D01*
G54D22*X53228D02*X57953D01*
G54D26*X180118Y90197D02*X182087D01*
X188976D02*X190945D01*
G54D20*X155354Y67520D02*Y63976D01*
X160354Y67520D02*Y63976D01*
X165354Y67520D02*Y63976D01*
X170354Y67520D02*Y63976D01*
G54D19*X161280Y93503D02*Y92717D01*
X164428Y93503D02*Y92717D01*
G54D20*X170354Y88780D02*Y85236D01*
X165354Y88780D02*Y85236D01*
X160354Y88780D02*Y85236D01*
G54D27*X220079Y81891D02*X222441D01*
X220079Y93701D02*X222441D01*
G54D28*X209921Y69685D02*X210551D01*
X209921Y53701D02*X210551D01*
G54D29*X210236Y41339D02*Y36614D01*
X229528Y41339D02*Y36614D01*
G54D30*X230906Y91890D02*X240748D01*
X230906Y81890D02*X240748D01*
X230906Y71890D02*X240748D01*
G54D21*X238780Y56693D02*X243504D01*
X226969D02*X231693D01*
G54D31*X275197Y82874D02*Y80906D01*
G54D19*X161280Y60039D02*Y59253D01*
X164428Y60039D02*Y59253D01*
X160828Y39862D02*Y39076D01*
X163976Y39862D02*Y39076D01*
G54D26*X182087Y50591D02*Y48622D01*
Y41732D02*Y39764D01*
G54D19*X160828Y44783D02*Y43997D01*
X163976Y44783D02*Y43997D01*
G54D18*X156496Y44291D02*Y43898D01*
X154528Y44291D02*Y43898D01*
G54D19*X151969Y48720D02*Y47934D01*
X155117Y48720D02*Y47934D01*
G54D32*X144488Y52165D03*
X137795Y34843D03*
X144685Y44685D03*
X134843Y49311D03*
Y44390D03*
Y39469D03*
G54D33*X182087Y35827D03*
G54D32*X137795Y80118D03*
X157087Y78937D03*
X144094Y80118D03*
X150787Y79331D03*
X124016Y65354D03*
X144685Y60433D03*
X155512D03*
X87402Y59252D03*
X91732Y76969D03*
Y81693D03*
Y91142D03*
Y86417D03*
G54D33*X74803Y29921D03*
G54D32*X99409Y42717D03*
Y37795D03*
X111220Y39469D03*
X107283Y44390D03*
X116142Y57480D03*
X113189Y48622D03*
X116929Y35039D03*
X170472Y71457D03*
G54D33*X210236Y79528D03*
X255906Y47244D03*
X268504D03*
Y57480D03*
X255906D03*
X292520Y47244D03*
X281102D03*
Y57480D03*
X292520D03*
X255512Y8661D03*
X268110D03*
X280709D03*
X292126D03*
G54D32*X264173Y70079D03*
X274803D03*
X285827D03*
G54D33*X292520Y105906D03*
X281102D03*
X292913Y124016D03*
X281496Y123622D03*
X268504Y105906D03*
X255512D03*
X268504Y123622D03*
X255512D03*
G54D32*X285827Y92520D03*
Y81890D03*
X274803Y92520D03*
Y81890D03*
X264173Y92520D03*
Y81890D03*
G54D34*G54D35*G54D34*G54D35*G54D34*G54D35*G54D34*G54D35*G54D34*G54D36*G54D37*G54D36*M02*
