G04 start of page 8 for group -4079 idx -4079 *
G04 Title: (unknown), topsilk *
G04 Creator: pcb 20140316 *
G04 CreationDate: mer. 15 juil. 2015 12:59:16 GMT UTC *
G04 For: clement *
G04 Format: Gerber/RS-274X *
G04 PCB-Dimensions (mil): 3023.62 1342.52 *
G04 PCB-Coordinate-Origin: lower left *
%MOIN*%
%FSLAX25Y25*%
%LNTOPSILK*%
%ADD97C,0.0080*%
%ADD96C,0.0059*%
%ADD95C,0.0061*%
%ADD94C,0.0060*%
%ADD93C,0.0100*%
%ADD92C,0.0001*%
G54D92*G36*
X52450Y95329D02*X52749D01*
X55505Y94195D01*
X56655Y91472D01*
X55505Y88699D01*
X52765Y87544D01*
X52450D01*
Y90094D01*
X52591D01*
X53557Y90490D01*
X53969Y91472D01*
X53557Y92394D01*
X52591Y92763D01*
X52450D01*
Y95329D01*
G37*
G36*
X48213Y94998D02*X48544Y95329D01*
X52450D01*
Y92763D01*
X50931D01*
Y90094D01*
X52450D01*
Y87544D01*
X50931D01*
Y83442D01*
X50600Y83111D01*
X48544D01*
X48213Y83442D01*
Y94998D01*
G37*
G36*
X67370Y88992D02*X63513Y94825D01*
X63795Y95329D01*
X66063D01*
X66339Y95172D01*
X68770Y91596D01*
X71195Y95172D01*
X71472Y95329D01*
X73739D01*
X74021Y94825D01*
X70110Y89009D01*
Y83442D01*
X69779Y83111D01*
X67701D01*
X67370Y83442D01*
Y88992D01*
G37*
G36*
X100351Y95188D02*X100682Y95503D01*
X101121D01*
X108082Y88802D01*
X108104D01*
Y94998D01*
X108435Y95329D01*
X110529D01*
X110860Y94998D01*
Y83252D01*
X110529Y82938D01*
X110247D01*
X110019Y83024D01*
X103129Y89953D01*
X103112D01*
Y83442D01*
X102776Y83111D01*
X100703D01*
X100372Y83442D01*
X100351Y95188D01*
G37*
G36*
X118320Y77246D02*X79838D01*
Y78429D01*
X117137D01*
Y99382D01*
X79838D01*
Y100565D01*
X118320D01*
Y77246D01*
G37*
G36*
X79838D02*X41356D01*
Y100565D01*
X79838D01*
Y99382D01*
X42538D01*
Y78429D01*
X79838D01*
Y77246D01*
G37*
G36*
X86741Y95329D02*X87596D01*
X90281Y94228D01*
X91399Y91559D01*
X90677Y89432D01*
X88816Y88054D01*
X91209Y83616D01*
X90911Y83111D01*
X88594D01*
X88312Y83269D01*
X86741Y86399D01*
Y90110D01*
X87368D01*
X88301Y90533D01*
X88697Y91504D01*
X88301Y92448D01*
X87368Y92834D01*
X86741D01*
Y95329D01*
G37*
G36*
X82046Y94998D02*X82377Y95329D01*
X86741D01*
Y92834D01*
X84785D01*
Y90110D01*
X86741D01*
Y86399D01*
X85990Y87896D01*
X84785D01*
Y83442D01*
X84454Y83111D01*
X82377D01*
X82046Y83442D01*
Y94998D01*
G37*
G54D93*X14764Y125394D02*Y55512D01*
X16732Y53543D01*
X14567Y120866D02*X11417D01*
Y124016D02*Y117717D01*
Y122441D02*X9843Y124016D01*
X11417Y120866D02*X9843Y122441D01*
X11417Y119291D02*X9843Y120866D01*
X11417Y117717D02*X9843Y119291D01*
X36417Y125394D02*Y55709D01*
X34252Y53543D01*
X36417Y125394D02*X34646Y127165D01*
X16535D01*
X14764Y125394D01*
G54D94*X5818Y106811D02*X7118D01*
X5118Y107511D02*X5818Y106811D01*
X5118Y110111D02*Y107511D01*
Y110111D02*X5818Y110811D01*
X7118D01*
X8318Y110011D02*X9118Y110811D01*
Y106811D01*
X8318D02*X9818D01*
X11018Y110811D02*Y106811D01*
X13018D01*
X5424Y95394D02*X6724D01*
X4724Y96094D02*X5424Y95394D01*
X4724Y98694D02*Y96094D01*
Y98694D02*X5424Y99394D01*
X6724D01*
X7924Y98594D02*X8724Y99394D01*
Y95394D01*
X7924D02*X9424D01*
X10624Y99394D02*Y95394D01*
X13124Y99394D02*Y95394D01*
X10624Y97394D02*X13124D01*
X5031Y83583D02*X6331D01*
X4331Y84283D02*X5031Y83583D01*
X4331Y86883D02*Y84283D01*
Y86883D02*X5031Y87583D01*
X6331D01*
X7531Y87083D02*X8031Y87583D01*
X9531D01*
X10031Y87083D01*
Y86083D01*
X7531Y83583D02*X10031Y86083D01*
X7531Y83583D02*X10031D01*
X11231Y87583D02*Y83583D01*
X13231D01*
X4637Y71772D02*X5937D01*
X3937Y72472D02*X4637Y71772D01*
X3937Y75072D02*Y72472D01*
Y75072D02*X4637Y75772D01*
X5937D01*
X7137Y75272D02*X7637Y75772D01*
X9137D01*
X9637Y75272D01*
Y74272D01*
X7137Y71772D02*X9637Y74272D01*
X7137Y71772D02*X9637D01*
X10837Y75772D02*Y71772D01*
X13337Y75772D02*Y71772D01*
X10837Y73772D02*X13337D01*
X4437Y63961D02*Y59961D01*
X5737Y63961D02*X6437Y63261D01*
Y60661D01*
X5737Y59961D02*X6437Y60661D01*
X3937Y59961D02*X5737D01*
X3937Y63961D02*X5737D01*
X8337Y59961D02*X9637D01*
X7637Y60661D02*X8337Y59961D01*
X7637Y63261D02*Y60661D01*
Y63261D02*X8337Y63961D01*
X9637D01*
X10837Y61961D02*X12837D01*
X11837Y62961D02*Y60961D01*
G54D95*X117913Y47539D02*Y47283D01*
Y47539D02*X120138D01*
X117913Y35591D02*Y35335D01*
X120138D01*
X127894Y47539D02*X130118D01*
Y47283D01*
X127894Y35335D02*X130118D01*
Y35591D02*Y35335D01*
X115945Y48524D02*G75*G03X115945Y48524I984J0D01*G01*
X93780Y30866D02*X94764Y29882D01*
X93780Y31417D02*Y30866D01*
X74528D02*X93780D01*
Y70630D02*Y70079D01*
X74528Y70630D02*X93780D01*
X55591Y30866D02*X74843D01*
X55591Y31417D02*Y30866D01*
Y70630D02*X74843D01*
X55591D02*Y70079D01*
G54D96*X219882Y45984D02*Y31969D01*
X243701Y65157D02*Y59055D01*
X229528Y65157D02*X243701D01*
X229528D02*X226772Y62402D01*
Y59055D01*
X243701Y54331D02*Y48228D01*
X229528D02*X243701D01*
X229528D02*X226772Y50984D01*
Y54331D02*Y50984D01*
X180315Y46850D02*X183858D01*
X182087D02*X180315Y43504D01*
X182087Y46850D02*X183858Y43504D01*
G54D97*X217520Y90158D02*Y85434D01*
X225000Y90158D02*Y85434D01*
G54D96*X183858Y91969D02*Y88425D01*
Y90197D02*X187205Y88425D01*
X183858Y90197D02*X187205Y91969D01*
X204961Y58661D02*X215512D01*
X210236D02*X215512Y64724D01*
X210236Y58661D02*X204961Y64724D01*
G54D95*X126634Y73622D02*X130571Y69685D01*
X147894D01*
X126634Y83071D02*X147894D01*
Y69685D01*
X126634Y83071D02*Y73622D01*
X152224D02*X156161Y69685D01*
X173484D01*
X152224Y83071D02*X173484D01*
Y69685D01*
X152224Y83071D02*Y73622D01*
X158406Y45571D02*X158661D01*
Y43346D01*
X146457Y45571D02*X146713D01*
X146457D02*Y43346D01*
X158661Y35591D02*Y33366D01*
X158406D02*X158661D01*
X146457Y35591D02*Y33366D01*
X146713D01*
X159646Y47539D02*G75*G03X159646Y47539I0J-984D01*G01*
G54D94*X120886Y33862D02*Y30362D01*
X121386Y29862D01*
X122386D01*
X122886Y30362D01*
Y33862D02*Y30362D01*
X124586Y29862D02*X126586Y33862D01*
X124086D02*X126586D01*
X106607Y49624D02*X107907D01*
X105907Y50324D02*X106607Y49624D01*
X105907Y52924D02*Y50324D01*
Y52924D02*X106607Y53624D01*
X107907D01*
X109107Y52824D02*X109907Y53624D01*
Y49624D01*
X109107D02*X110607D01*
X111807Y51124D02*X113807Y53624D01*
X111807Y51124D02*X114307D01*
X113807Y53624D02*Y49624D01*
X16448Y16063D02*X17748D01*
X15748Y16763D02*X16448Y16063D01*
X15748Y19363D02*Y16763D01*
Y19363D02*X16448Y20063D01*
X17748D01*
X18948Y19563D02*Y16563D01*
Y19563D02*X19448Y20063D01*
X20448D01*
X20948Y19563D01*
Y16563D01*
X20448Y16063D02*X20948Y16563D01*
X19448Y16063D02*X20448D01*
X18948Y16563D02*X19448Y16063D01*
X22148Y20063D02*Y16063D01*
Y20063D02*X24648Y16063D01*
Y20063D02*Y16063D01*
X25848Y20063D02*Y16063D01*
Y20063D02*X28348Y16063D01*
Y20063D02*Y16063D01*
X29548Y20063D02*X31548D01*
X29548D02*Y18063D01*
X30048Y18563D01*
X31048D01*
X31548Y18063D01*
Y16563D01*
X31048Y16063D02*X31548Y16563D01*
X30048Y16063D02*X31048D01*
X29548Y16563D02*X30048Y16063D01*
X18220Y51496D02*X19520D01*
X17520Y52196D02*X18220Y51496D01*
X17520Y54796D02*Y52196D01*
Y54796D02*X18220Y55496D01*
X19520D01*
X20720Y54996D02*Y51996D01*
Y54996D02*X21220Y55496D01*
X22220D01*
X22720Y54996D01*
Y51996D01*
X22220Y51496D02*X22720Y51996D01*
X21220Y51496D02*X22220D01*
X20720Y51996D02*X21220Y51496D01*
X23920Y55496D02*Y51496D01*
Y55496D02*X26420Y51496D01*
Y55496D02*Y51496D01*
X27620Y55496D02*Y51496D01*
Y55496D02*X30120Y51496D01*
Y55496D02*Y51496D01*
X31320Y54996D02*X31820Y55496D01*
X32820D01*
X33320Y54996D01*
X32820Y51496D02*X33320Y51996D01*
X31820Y51496D02*X32820D01*
X31320Y51996D02*X31820Y51496D01*
Y53696D02*X32820D01*
X33320Y54996D02*Y54196D01*
Y53196D02*Y51996D01*
Y53196D02*X32820Y53696D01*
X33320Y54196D02*X32820Y53696D01*
X43739Y47307D02*X45739D01*
X46239Y46807D01*
Y45807D01*
X45739Y45307D02*X46239Y45807D01*
X44239Y45307D02*X45739D01*
X44239Y47307D02*Y43307D01*
X45039Y45307D02*X46239Y43307D01*
X47439Y47307D02*X49439D01*
X47439D02*Y45307D01*
X47939Y45807D01*
X48939D01*
X49439Y45307D01*
Y43807D01*
X48939Y43307D02*X49439Y43807D01*
X47939Y43307D02*X48939D01*
X47439Y43807D02*X47939Y43307D01*
X45461Y32481D02*X46761D01*
X44761Y33181D02*X45461Y32481D01*
X44761Y35781D02*Y33181D01*
Y35781D02*X45461Y36481D01*
X46761D01*
X47961D02*X49961D01*
X47961D02*Y34481D01*
X48461Y34981D01*
X49461D01*
X49961Y34481D01*
Y32981D01*
X49461Y32481D02*X49961Y32981D01*
X48461Y32481D02*X49461D01*
X47961Y32981D02*X48461Y32481D01*
X36140Y43370D02*Y39370D01*
X38140D01*
X39340Y42570D02*X40140Y43370D01*
Y39370D01*
X39340D02*X40840D01*
X73937Y52858D02*Y49358D01*
X74437Y48858D01*
X75437D01*
X75937Y49358D01*
Y52858D02*Y49358D01*
X77137Y52858D02*X79137D01*
X77137D02*Y50858D01*
X77637Y51358D01*
X78637D01*
X79137Y50858D01*
Y49358D01*
X78637Y48858D02*X79137Y49358D01*
X77637Y48858D02*X78637D01*
X77137Y49358D02*X77637Y48858D01*
X105071Y63151D02*X106371D01*
X104371Y63851D02*X105071Y63151D01*
X104371Y66451D02*Y63851D01*
Y66451D02*X105071Y67151D01*
X106371D01*
X107571Y66351D02*X108371Y67151D01*
Y63151D01*
X107571D02*X109071D01*
X110271Y67151D02*X112271D01*
X110271D02*Y65151D01*
X110771Y65651D01*
X111771D01*
X112271Y65151D01*
Y63651D01*
X111771Y63151D02*X112271Y63651D01*
X110771Y63151D02*X111771D01*
X110271Y63651D02*X110771Y63151D01*
X181110Y57465D02*Y53465D01*
X182410Y57465D02*X183110Y56765D01*
Y54165D01*
X182410Y53465D02*X183110Y54165D01*
X180610Y53465D02*X182410D01*
X180610Y57465D02*X182410D01*
X184310Y56965D02*X184810Y57465D01*
X185810D01*
X186310Y56965D01*
X185810Y53465D02*X186310Y53965D01*
X184810Y53465D02*X185810D01*
X184310Y53965D02*X184810Y53465D01*
Y55665D02*X185810D01*
X186310Y56965D02*Y56165D01*
Y55165D02*Y53965D01*
Y55165D02*X185810Y55665D01*
X186310Y56165D02*X185810Y55665D01*
X219637Y85709D02*X220937D01*
X218937Y86409D02*X219637Y85709D01*
X218937Y89009D02*Y86409D01*
Y89009D02*X219637Y89709D01*
X220937D01*
X222137Y88909D02*X222937Y89709D01*
Y85709D01*
X222137D02*X223637D01*
X183315Y97819D02*Y93819D01*
X184615Y97819D02*X185315Y97119D01*
Y94519D01*
X184615Y93819D02*X185315Y94519D01*
X182815Y93819D02*X184615D01*
X182815Y97819D02*X184615D01*
X186515Y97319D02*X187015Y97819D01*
X188515D01*
X189015Y97319D01*
Y96319D01*
X186515Y93819D02*X189015Y96319D01*
X186515Y93819D02*X189015D01*
X208098Y66126D02*Y62126D01*
X209398Y66126D02*X210098Y65426D01*
Y62826D01*
X209398Y62126D02*X210098Y62826D01*
X207598Y62126D02*X209398D01*
X207598Y66126D02*X209398D01*
X211298Y63626D02*X213298Y66126D01*
X211298Y63626D02*X213798D01*
X213298Y66126D02*Y62126D01*
X217874Y51323D02*Y47323D01*
Y51323D02*X219874D01*
X217874Y49523D02*X219374D01*
X221074Y50523D02*X221874Y51323D01*
Y47323D01*
X221074D02*X222574D01*
X259055Y106087D02*Y102587D01*
X259555Y102087D01*
X260555D01*
X261055Y102587D01*
Y106087D02*Y102587D01*
X262255Y103587D02*X264255Y106087D01*
X262255Y103587D02*X264755D01*
X264255Y106087D02*Y102087D01*
X233574Y59961D02*X234874D01*
X232874Y60661D02*X233574Y59961D01*
X232874Y63261D02*Y60661D01*
Y63261D02*X233574Y63961D01*
X234874D01*
X236074Y63461D02*X236574Y63961D01*
X238074D01*
X238574Y63461D01*
Y62461D01*
X236074Y59961D02*X238574Y62461D01*
X236074Y59961D02*X238574D01*
X133916Y99394D02*X135916D01*
X136416Y98894D01*
Y97894D01*
X135916Y97394D02*X136416Y97894D01*
X134416Y97394D02*X135916D01*
X134416Y99394D02*Y95394D01*
X135216Y97394D02*X136416Y95394D01*
X137616Y98894D02*X138116Y99394D01*
X139616D01*
X140116Y98894D01*
Y97894D01*
X137616Y95394D02*X140116Y97894D01*
X137616Y95394D02*X140116D01*
X134311Y79315D02*Y75815D01*
X134811Y75315D01*
X135811D01*
X136311Y75815D01*
Y79315D02*Y75815D01*
X137511Y78815D02*X138011Y79315D01*
X139511D01*
X140011Y78815D01*
Y77815D01*
X137511Y75315D02*X140011Y77815D01*
X137511Y75315D02*X140011D01*
X124665Y99394D02*X126665D01*
X127165Y98894D01*
Y97894D01*
X126665Y97394D02*X127165Y97894D01*
X125165Y97394D02*X126665D01*
X125165Y99394D02*Y95394D01*
X125965Y97394D02*X127165Y95394D01*
X128365Y98894D02*X128865Y99394D01*
X129865D01*
X130365Y98894D01*
X129865Y95394D02*X130365Y95894D01*
X128865Y95394D02*X129865D01*
X128365Y95894D02*X128865Y95394D01*
Y97594D02*X129865D01*
X130365Y98894D02*Y98094D01*
Y97094D02*Y95894D01*
Y97094D02*X129865Y97594D01*
X130365Y98094D02*X129865Y97594D01*
X160098Y99394D02*X162098D01*
X162598Y98894D01*
Y97894D01*
X162098Y97394D02*X162598Y97894D01*
X160598Y97394D02*X162098D01*
X160598Y99394D02*Y95394D01*
X161398Y97394D02*X162598Y95394D01*
X163798Y98594D02*X164598Y99394D01*
Y95394D01*
X163798D02*X165298D01*
X149587Y99395D02*X151587D01*
X152087Y98895D01*
Y97895D01*
X151587Y97395D02*X152087Y97895D01*
X150087Y97395D02*X151587D01*
X150087Y99395D02*Y95395D01*
X150887Y97395D02*X152087Y95395D01*
X153287Y96895D02*X155287Y99395D01*
X153287Y96895D02*X155787D01*
X155287Y99395D02*Y95395D01*
X159902Y78331D02*Y74831D01*
X160402Y74331D01*
X161402D01*
X161902Y74831D01*
Y78331D02*Y74831D01*
X163102Y77831D02*X163602Y78331D01*
X164602D01*
X165102Y77831D01*
X164602Y74331D02*X165102Y74831D01*
X163602Y74331D02*X164602D01*
X163102Y74831D02*X163602Y74331D01*
Y76531D02*X164602D01*
X165102Y77831D02*Y77031D01*
Y76031D02*Y74831D01*
Y76031D02*X164602Y76531D01*
X165102Y77031D02*X164602Y76531D01*
X167099Y57796D02*X168399D01*
X166399Y58496D02*X167099Y57796D01*
X166399Y61096D02*Y58496D01*
Y61096D02*X167099Y61796D01*
X168399D01*
X169599Y61296D02*X170099Y61796D01*
X171099D01*
X171599Y61296D01*
X171099Y57796D02*X171599Y58296D01*
X170099Y57796D02*X171099D01*
X169599Y58296D02*X170099Y57796D01*
Y59996D02*X171099D01*
X171599Y61296D02*Y60496D01*
Y59496D02*Y58296D01*
Y59496D02*X171099Y59996D01*
X171599Y60496D02*X171099Y59996D01*
X167435Y42540D02*X168735D01*
X166735Y43240D02*X167435Y42540D01*
X166735Y45840D02*Y43240D01*
Y45840D02*X167435Y46540D01*
X168735D01*
X169935Y45740D02*X170735Y46540D01*
Y42540D01*
X169935D02*X171435D01*
X172635Y46040D02*X173135Y46540D01*
X174135D01*
X174635Y46040D01*
X174135Y42540D02*X174635Y43040D01*
X173135Y42540D02*X174135D01*
X172635Y43040D02*X173135Y42540D01*
Y44740D02*X174135D01*
X174635Y46040D02*Y45240D01*
Y44240D02*Y43040D01*
Y44240D02*X174135Y44740D01*
X174635Y45240D02*X174135Y44740D01*
X161251Y32697D02*X162551D01*
X160551Y33397D02*X161251Y32697D01*
X160551Y35997D02*Y33397D01*
Y35997D02*X161251Y36697D01*
X162551D01*
X164251Y32697D02*X166251Y36697D01*
X163751D02*X166251D01*
X158572Y49430D02*X159872D01*
X157872Y50130D02*X158572Y49430D01*
X157872Y52730D02*Y50130D01*
Y52730D02*X158572Y53430D01*
X159872D01*
X162572D02*X163072Y52930D01*
X161572Y53430D02*X162572D01*
X161072Y52930D02*X161572Y53430D01*
X161072Y52930D02*Y49930D01*
X161572Y49430D01*
X162572Y51630D02*X163072Y51130D01*
X161072Y51630D02*X162572D01*
X161572Y49430D02*X162572D01*
X163072Y49930D01*
Y51130D02*Y49930D01*
X149449Y32583D02*Y29083D01*
X149949Y28583D01*
X150949D01*
X151449Y29083D01*
Y32583D02*Y29083D01*
X154149Y32583D02*X154649Y32083D01*
X153149Y32583D02*X154149D01*
X152649Y32083D02*X153149Y32583D01*
X152649Y32083D02*Y29083D01*
X153149Y28583D01*
X154149Y30783D02*X154649Y30283D01*
X152649Y30783D02*X154149D01*
X153149Y28583D02*X154149D01*
X154649Y29083D01*
Y30283D02*Y29083D01*
X133266Y45556D02*X135266D01*
X135766Y45056D01*
Y44056D01*
X135266Y43556D02*X135766Y44056D01*
X133766Y43556D02*X135266D01*
X133766Y45556D02*Y41556D01*
X134566Y43556D02*X135766Y41556D01*
X137466D02*X139466Y45556D01*
X136966D02*X139466D01*
X133147Y39750D02*X135147D01*
X135647Y39250D01*
Y38250D01*
X135147Y37750D02*X135647Y38250D01*
X133647Y37750D02*X135147D01*
X133647Y39750D02*Y35750D01*
X134447Y37750D02*X135647Y35750D01*
X138347Y39750D02*X138847Y39250D01*
X137347Y39750D02*X138347D01*
X136847Y39250D02*X137347Y39750D01*
X136847Y39250D02*Y36250D01*
X137347Y35750D01*
X138347Y37950D02*X138847Y37450D01*
X136847Y37950D02*X138347D01*
X137347Y35750D02*X138347D01*
X138847Y36250D01*
Y37450D02*Y36250D01*
X144213Y52051D02*X146213D01*
X146713Y51551D01*
Y50551D01*
X146213Y50051D02*X146713Y50551D01*
X144713Y50051D02*X146213D01*
X144713Y52051D02*Y48051D01*
X145513Y50051D02*X146713Y48051D01*
X147913Y48551D02*X148413Y48051D01*
X147913Y49351D02*Y48551D01*
Y49351D02*X148613Y50051D01*
X149213D01*
X149913Y49351D01*
Y48551D01*
X149413Y48051D02*X149913Y48551D01*
X148413Y48051D02*X149413D01*
X147913Y50751D02*X148613Y50051D01*
X147913Y51551D02*Y50751D01*
Y51551D02*X148413Y52051D01*
X149413D01*
X149913Y51551D01*
Y50751D01*
X149213Y50051D02*X149913Y50751D01*
X132433Y49824D02*X133733D01*
X131733Y50524D02*X132433Y49824D01*
X131733Y53124D02*Y50524D01*
Y53124D02*X132433Y53824D01*
X133733D01*
X134933Y50324D02*X135433Y49824D01*
X134933Y51124D02*Y50324D01*
Y51124D02*X135633Y51824D01*
X136233D01*
X136933Y51124D01*
Y50324D01*
X136433Y49824D02*X136933Y50324D01*
X135433Y49824D02*X136433D01*
X134933Y52524D02*X135633Y51824D01*
X134933Y53324D02*Y52524D01*
Y53324D02*X135433Y53824D01*
X136433D01*
X136933Y53324D01*
Y52524D01*
X136233Y51824D02*X136933Y52524D01*
X142019Y57796D02*X143319D01*
X141319Y58496D02*X142019Y57796D01*
X141319Y61096D02*Y58496D01*
Y61096D02*X142019Y61796D01*
X143319D01*
X144519Y59296D02*X146519Y61796D01*
X144519Y59296D02*X147019D01*
X146519Y61796D02*Y57796D01*
M02*
