M48
INCH
T63C0.035
T62C0.020
T61C0.022
T60C0.035
%
T62
X008740Y005925
X009173Y009114
X009173Y008642
X009173Y008169
X009173Y007697
X009941Y004272
X009941Y003780
X010728Y004439
X011122Y003947
X011319Y004862
X011614Y005748
X011693Y003504
X012402Y006535
X013484Y004931
X013484Y004439
X013484Y003947
X013780Y008012
X013780Y003484
X014409Y008012
X014449Y005217
X014469Y006043
X014469Y004469
X015079Y007933
X015551Y006043
X015709Y007894
X017047Y007146
X026417Y009252
X026417Y008189
X026417Y007008
X027480Y009252
X027480Y008189
X027480Y007008
X028583Y009252
X028583Y008189
X028583Y007008
T61
X019268Y007724
X019268Y006724
X019268Y005724
X019268Y004724
T63
X007480Y002992
X018209Y003583
X021024Y007953
X025551Y012362
X025551Y010591
X025551Y000866
X025591Y005748
X025591Y004724
X026811Y000866
X026850Y012362
X026850Y010591
X026850Y005748
X026850Y004724
X028071Y000866
X028110Y010591
X028110Y005748
X028110Y004724
X028150Y012362
X029213Y000866
X029252Y010591
X029252Y005748
X029252Y004724
X029291Y012402
T60
X005157Y012063
X005157Y011063
X005157Y002063
X005157Y001063
X006157Y012063
X006157Y011063
X006157Y002063
X006157Y001063
X007157Y012063
X007157Y011063
X007157Y002063
X007157Y001063
X008157Y012063
X008157Y011063
X008157Y002063
X008157Y001063
X009157Y012063
X009157Y011063
X009157Y002063
X009157Y001063
X010157Y012063
X010157Y011063
X010157Y002063
X010157Y001063
X011157Y012063
X011157Y011063
X011157Y002063
X011157Y001063
X012157Y012063
X012157Y011063
X012157Y002063
X012157Y001063
X013157Y012063
X013157Y011063
X013157Y002063
X013157Y001063
X014157Y012063
X014157Y011063
X014157Y002063
X014157Y001063
X015157Y012063
X015157Y011063
X015157Y002063
X015157Y001063
X016157Y012063
X016157Y011063
X016157Y002063
X016157Y001063
X017157Y012063
X017157Y011063
X017157Y002063
X017157Y001063
X018157Y012063
X018157Y011063
X018157Y002063
X018157Y001063
X019157Y012063
X019157Y011063
X019157Y002063
X019157Y001063
X020157Y012063
X020157Y011063
X020157Y002063
X020157Y001063
X021157Y012063
X021157Y011063
X021157Y002063
X021157Y001063
X022157Y012063
X022157Y011063
X022157Y002063
X022157Y001063
X023157Y012063
X023157Y011063
X023157Y002063
X023157Y001063
X024157Y012063
X024157Y011063
X024157Y002063
X024157Y001063
M30
