G04 start of page 3 for group 5 idx 5 *
G04 Title: (unknown), bottom *
G04 Creator: pcb 20140316 *
G04 CreationDate: mer. 15 juil. 2015 12:59:16 GMT UTC *
G04 For: clement *
G04 Format: Gerber/RS-274X *
G04 PCB-Dimensions (mil): 3023.62 1342.52 *
G04 PCB-Coordinate-Origin: lower left *
%MOIN*%
%FSLAX25Y25*%
%LNBOTTOM*%
%ADD58C,0.0217*%
%ADD57C,0.0354*%
%ADD56C,0.0350*%
%ADD55C,0.0200*%
%ADD54C,0.0600*%
%ADD53C,0.0360*%
%ADD52R,0.0406X0.0406*%
%ADD51R,0.0374X0.0374*%
%ADD50R,0.0354X0.0354*%
%ADD49R,0.0413X0.0413*%
%ADD48R,0.0469X0.0469*%
%ADD47R,0.0276X0.0276*%
%ADD46R,0.0346X0.0346*%
%ADD45R,0.0951X0.0951*%
%ADD44C,0.0433*%
%ADD43C,0.0787*%
%ADD42C,0.0060*%
%ADD41C,0.0400*%
%ADD40C,0.0250*%
%ADD39C,0.0100*%
%ADD38C,0.0001*%
G54D38*G36*
X56496Y97909D02*X85205D01*
X86689Y96426D01*
Y89626D01*
X86684Y89567D01*
X86703Y89332D01*
X86758Y89102D01*
X86848Y88884D01*
X86972Y88683D01*
X87125Y88503D01*
X87170Y88465D01*
X88945Y86690D01*
X88924Y86417D01*
X88958Y85978D01*
X89061Y85549D01*
X89230Y85142D01*
X89460Y84766D01*
X89746Y84431D01*
X90081Y84145D01*
X90228Y84055D01*
X90081Y83965D01*
X89746Y83679D01*
X89460Y83344D01*
X89368Y83193D01*
X83130D01*
X83071Y83198D01*
X82835Y83179D01*
X82606Y83124D01*
X82388Y83034D01*
X82186Y82910D01*
X82186Y82910D01*
X82007Y82757D01*
X81969Y82712D01*
X69453Y70197D01*
X69409Y70158D01*
X69255Y69979D01*
X69132Y69778D01*
X69041Y69559D01*
X68986Y69330D01*
X68986Y69329D01*
X68968Y69094D01*
X68972Y69036D01*
Y64991D01*
X60402Y56421D01*
X56496D01*
Y97909D01*
G37*
G36*
X247638Y2362D02*X241568D01*
Y6079D01*
X241575Y6079D01*
X242287Y6135D01*
X242981Y6302D01*
X243641Y6575D01*
X244250Y6948D01*
X244793Y7412D01*
X245257Y7955D01*
X245630Y8564D01*
X245903Y9224D01*
X246070Y9918D01*
X246112Y10630D01*
X246070Y11342D01*
X245903Y12036D01*
X245630Y12696D01*
X245257Y13305D01*
X244793Y13848D01*
X244575Y14034D01*
Y17226D01*
X244793Y17412D01*
X245257Y17955D01*
X245630Y18564D01*
X245903Y19224D01*
X246070Y19918D01*
X246112Y20630D01*
X246070Y21342D01*
X245903Y22036D01*
X245630Y22696D01*
X245257Y23305D01*
X244793Y23848D01*
X244250Y24312D01*
X243641Y24685D01*
X242981Y24958D01*
X242287Y25125D01*
X241575Y25181D01*
X241568Y25180D01*
Y129331D01*
X247638D01*
Y2362D01*
G37*
G36*
X241568D02*X231568D01*
Y6079D01*
X231575Y6079D01*
X232287Y6135D01*
X232981Y6302D01*
X233641Y6575D01*
X234250Y6948D01*
X234793Y7412D01*
X235257Y7955D01*
X235630Y8564D01*
X235903Y9224D01*
X236070Y9918D01*
X236112Y10630D01*
X236070Y11342D01*
X235903Y12036D01*
X235630Y12696D01*
X235257Y13305D01*
X234793Y13848D01*
X234299Y14270D01*
Y16990D01*
X234793Y17412D01*
X235257Y17955D01*
X235630Y18564D01*
X235903Y19224D01*
X236070Y19918D01*
X236112Y20630D01*
X236070Y21342D01*
X235903Y22036D01*
X235630Y22696D01*
X235257Y23305D01*
X234793Y23848D01*
X234250Y24312D01*
X233641Y24685D01*
X232981Y24958D01*
X232287Y25125D01*
X231575Y25181D01*
X231568Y25180D01*
Y106079D01*
X231575Y106079D01*
X232287Y106135D01*
X232981Y106302D01*
X233641Y106575D01*
X234250Y106948D01*
X234793Y107412D01*
X235257Y107955D01*
X235630Y108564D01*
X235903Y109224D01*
X236070Y109918D01*
X236112Y110630D01*
X236070Y111342D01*
X235903Y112036D01*
X235630Y112696D01*
X235257Y113305D01*
X234793Y113848D01*
X234575Y114034D01*
Y117226D01*
X234793Y117412D01*
X235257Y117955D01*
X235630Y118564D01*
X235903Y119224D01*
X236070Y119918D01*
X236112Y120630D01*
X236070Y121342D01*
X235903Y122036D01*
X235630Y122696D01*
X235257Y123305D01*
X234793Y123848D01*
X234250Y124312D01*
X233641Y124685D01*
X232981Y124958D01*
X232287Y125125D01*
X231575Y125181D01*
X231568Y125180D01*
Y129331D01*
X241568D01*
Y25180D01*
X240863Y25125D01*
X240168Y24958D01*
X239509Y24685D01*
X238900Y24312D01*
X238357Y23848D01*
X237893Y23305D01*
X237520Y22696D01*
X237247Y22036D01*
X237080Y21342D01*
X237024Y20630D01*
X237080Y19918D01*
X237247Y19224D01*
X237520Y18564D01*
X237893Y17955D01*
X238357Y17412D01*
X238575Y17226D01*
Y14034D01*
X238357Y13848D01*
X237893Y13305D01*
X237520Y12696D01*
X237247Y12036D01*
X237080Y11342D01*
X237024Y10630D01*
X237080Y9918D01*
X237247Y9224D01*
X237520Y8564D01*
X237893Y7955D01*
X238357Y7412D01*
X238900Y6948D01*
X239509Y6575D01*
X240168Y6302D01*
X240863Y6135D01*
X241568Y6079D01*
Y2362D01*
G37*
G36*
X231568Y25180D02*X230863Y25125D01*
X230378Y25009D01*
X221568Y33819D01*
Y106079D01*
X221575Y106079D01*
X222287Y106135D01*
X222981Y106302D01*
X223641Y106575D01*
X224250Y106948D01*
X224793Y107412D01*
X225257Y107955D01*
X225630Y108564D01*
X225903Y109224D01*
X226070Y109918D01*
X226112Y110630D01*
X226070Y111342D01*
X225903Y112036D01*
X225630Y112696D01*
X225257Y113305D01*
X224793Y113848D01*
X224575Y114034D01*
Y117226D01*
X224793Y117412D01*
X225257Y117955D01*
X225630Y118564D01*
X225903Y119224D01*
X226070Y119918D01*
X226112Y120630D01*
X226070Y121342D01*
X225903Y122036D01*
X225630Y122696D01*
X225257Y123305D01*
X224793Y123848D01*
X224250Y124312D01*
X223641Y124685D01*
X222981Y124958D01*
X222287Y125125D01*
X221575Y125181D01*
X221568Y125180D01*
Y129331D01*
X231568D01*
Y125180D01*
X230863Y125125D01*
X230168Y124958D01*
X229509Y124685D01*
X228900Y124312D01*
X228357Y123848D01*
X227893Y123305D01*
X227520Y122696D01*
X227247Y122036D01*
X227080Y121342D01*
X227024Y120630D01*
X227080Y119918D01*
X227247Y119224D01*
X227520Y118564D01*
X227893Y117955D01*
X228357Y117412D01*
X228575Y117226D01*
Y114034D01*
X228357Y113848D01*
X227893Y113305D01*
X227520Y112696D01*
X227247Y112036D01*
X227080Y111342D01*
X227024Y110630D01*
X227080Y109918D01*
X227247Y109224D01*
X227520Y108564D01*
X227893Y107955D01*
X228357Y107412D01*
X228900Y106948D01*
X229509Y106575D01*
X230168Y106302D01*
X230863Y106135D01*
X231568Y106079D01*
Y25180D01*
G37*
G36*
Y2362D02*X221568D01*
Y6079D01*
X221575Y6079D01*
X222287Y6135D01*
X222981Y6302D01*
X223641Y6575D01*
X224250Y6948D01*
X224793Y7412D01*
X225257Y7955D01*
X225630Y8564D01*
X225903Y9224D01*
X226070Y9918D01*
X226112Y10630D01*
X226070Y11342D01*
X225903Y12036D01*
X225630Y12696D01*
X225257Y13305D01*
X224793Y13848D01*
X224575Y14034D01*
Y17226D01*
X224793Y17412D01*
X225257Y17955D01*
X225630Y18564D01*
X225903Y19224D01*
X226070Y19918D01*
X226112Y20630D01*
X226070Y21342D01*
X225903Y22036D01*
X225630Y22696D01*
X225257Y23305D01*
X224793Y23848D01*
X224250Y24312D01*
X223641Y24685D01*
X222981Y24958D01*
X222287Y25125D01*
X221575Y25181D01*
X221568Y25180D01*
Y27455D01*
X227196Y21827D01*
X227080Y21342D01*
X227024Y20630D01*
X227080Y19918D01*
X227247Y19224D01*
X227520Y18564D01*
X227893Y17955D01*
X228299Y17479D01*
Y13781D01*
X227893Y13305D01*
X227520Y12696D01*
X227247Y12036D01*
X227080Y11342D01*
X227024Y10630D01*
X227080Y9918D01*
X227247Y9224D01*
X227520Y8564D01*
X227893Y7955D01*
X228357Y7412D01*
X228900Y6948D01*
X229509Y6575D01*
X230168Y6302D01*
X230863Y6135D01*
X231568Y6079D01*
Y2362D01*
G37*
G36*
X221568Y33819D02*X218031Y37355D01*
X217974Y37423D01*
X217705Y37653D01*
X217403Y37838D01*
X217075Y37973D01*
X216731Y38056D01*
X216731Y38056D01*
X216378Y38084D01*
X216290Y38077D01*
X211568D01*
Y75750D01*
X212058Y75953D01*
X212595Y76282D01*
X213073Y76690D01*
X213482Y77169D01*
X213811Y77706D01*
X214052Y78288D01*
X214199Y78900D01*
X214236Y79528D01*
X214199Y80155D01*
X214052Y80767D01*
X213811Y81349D01*
X213482Y81886D01*
X213073Y82365D01*
X212595Y82774D01*
X212058Y83103D01*
X211568Y83306D01*
Y106079D01*
X211575Y106079D01*
X212287Y106135D01*
X212981Y106302D01*
X213641Y106575D01*
X214250Y106948D01*
X214793Y107412D01*
X215257Y107955D01*
X215630Y108564D01*
X215903Y109224D01*
X216070Y109918D01*
X216112Y110630D01*
X216070Y111342D01*
X215903Y112036D01*
X215630Y112696D01*
X215257Y113305D01*
X214793Y113848D01*
X214575Y114034D01*
Y117226D01*
X214793Y117412D01*
X215257Y117955D01*
X215630Y118564D01*
X215903Y119224D01*
X216070Y119918D01*
X216112Y120630D01*
X216070Y121342D01*
X215903Y122036D01*
X215630Y122696D01*
X215257Y123305D01*
X214793Y123848D01*
X214250Y124312D01*
X213641Y124685D01*
X212981Y124958D01*
X212287Y125125D01*
X211575Y125181D01*
X211568Y125180D01*
Y129331D01*
X221568D01*
Y125180D01*
X220863Y125125D01*
X220168Y124958D01*
X219509Y124685D01*
X218900Y124312D01*
X218357Y123848D01*
X217893Y123305D01*
X217520Y122696D01*
X217247Y122036D01*
X217080Y121342D01*
X217024Y120630D01*
X217080Y119918D01*
X217247Y119224D01*
X217520Y118564D01*
X217893Y117955D01*
X218357Y117412D01*
X218575Y117226D01*
Y114034D01*
X218357Y113848D01*
X217893Y113305D01*
X217520Y112696D01*
X217247Y112036D01*
X217080Y111342D01*
X217024Y110630D01*
X217080Y109918D01*
X217247Y109224D01*
X217520Y108564D01*
X217893Y107955D01*
X218357Y107412D01*
X218900Y106948D01*
X219509Y106575D01*
X220168Y106302D01*
X220863Y106135D01*
X221568Y106079D01*
Y33819D01*
G37*
G36*
Y2362D02*X211568D01*
Y6079D01*
X211575Y6079D01*
X212287Y6135D01*
X212981Y6302D01*
X213641Y6575D01*
X214250Y6948D01*
X214793Y7412D01*
X215257Y7955D01*
X215630Y8564D01*
X215903Y9224D01*
X216070Y9918D01*
X216112Y10630D01*
X216070Y11342D01*
X215903Y12036D01*
X215630Y12696D01*
X215257Y13305D01*
X214793Y13848D01*
X214575Y14034D01*
Y17226D01*
X214793Y17412D01*
X215257Y17955D01*
X215630Y18564D01*
X215903Y19224D01*
X216070Y19918D01*
X216112Y20630D01*
X216070Y21342D01*
X215903Y22036D01*
X215630Y22696D01*
X215257Y23305D01*
X214793Y23848D01*
X214250Y24312D01*
X213641Y24685D01*
X212981Y24958D01*
X212287Y25125D01*
X211575Y25181D01*
X211568Y25180D01*
Y33577D01*
X215446D01*
X221568Y27455D01*
Y25180D01*
X220863Y25125D01*
X220168Y24958D01*
X219509Y24685D01*
X218900Y24312D01*
X218357Y23848D01*
X217893Y23305D01*
X217520Y22696D01*
X217247Y22036D01*
X217080Y21342D01*
X217024Y20630D01*
X217080Y19918D01*
X217247Y19224D01*
X217520Y18564D01*
X217893Y17955D01*
X218357Y17412D01*
X218575Y17226D01*
Y14034D01*
X218357Y13848D01*
X217893Y13305D01*
X217520Y12696D01*
X217247Y12036D01*
X217080Y11342D01*
X217024Y10630D01*
X217080Y9918D01*
X217247Y9224D01*
X217520Y8564D01*
X217893Y7955D01*
X218357Y7412D01*
X218900Y6948D01*
X219509Y6575D01*
X220168Y6302D01*
X220863Y6135D01*
X221568Y6079D01*
Y2362D01*
G37*
G36*
X211568Y83306D02*X211476Y83344D01*
X210864Y83490D01*
X210236Y83540D01*
X209609Y83490D01*
X209485Y83461D01*
X206378Y86568D01*
X206320Y86635D01*
X206051Y86865D01*
X205749Y87050D01*
X205422Y87186D01*
X205077Y87269D01*
X205077Y87269D01*
X204724Y87296D01*
X204636Y87289D01*
X180195D01*
Y91610D01*
X183800D01*
X183858Y91606D01*
X184093Y91624D01*
X184094Y91624D01*
X184323Y91679D01*
X184541Y91770D01*
X184743Y91893D01*
X184922Y92046D01*
X184961Y92091D01*
X199469Y106599D01*
X199509Y106575D01*
X200168Y106302D01*
X200863Y106135D01*
X201575Y106079D01*
X202287Y106135D01*
X202981Y106302D01*
X203641Y106575D01*
X204250Y106948D01*
X204793Y107412D01*
X205257Y107955D01*
X205630Y108564D01*
X205903Y109224D01*
X206070Y109918D01*
X206112Y110630D01*
X206070Y111342D01*
X205903Y112036D01*
X205630Y112696D01*
X205257Y113305D01*
X204793Y113848D01*
X204575Y114034D01*
Y117226D01*
X204793Y117412D01*
X205257Y117955D01*
X205630Y118564D01*
X205903Y119224D01*
X206070Y119918D01*
X206112Y120630D01*
X206070Y121342D01*
X205903Y122036D01*
X205630Y122696D01*
X205257Y123305D01*
X204793Y123848D01*
X204250Y124312D01*
X203641Y124685D01*
X202981Y124958D01*
X202287Y125125D01*
X201575Y125181D01*
X200863Y125125D01*
X200168Y124958D01*
X199509Y124685D01*
X198900Y124312D01*
X198357Y123848D01*
X197893Y123305D01*
X197520Y122696D01*
X197247Y122036D01*
X197080Y121342D01*
X197024Y120630D01*
X197080Y119918D01*
X197247Y119224D01*
X197520Y118564D01*
X197893Y117955D01*
X198357Y117412D01*
X198575Y117226D01*
Y114034D01*
X198357Y113848D01*
X197893Y113305D01*
X197520Y112696D01*
X197247Y112036D01*
X197080Y111342D01*
X197024Y110630D01*
X197080Y109918D01*
X197247Y109224D01*
X197423Y108797D01*
X183237Y94610D01*
X180195D01*
Y97168D01*
X189575Y106548D01*
X190168Y106302D01*
X190863Y106135D01*
X191575Y106079D01*
X192287Y106135D01*
X192981Y106302D01*
X193641Y106575D01*
X194250Y106948D01*
X194793Y107412D01*
X195257Y107955D01*
X195630Y108564D01*
X195903Y109224D01*
X196070Y109918D01*
X196112Y110630D01*
X196070Y111342D01*
X195903Y112036D01*
X195630Y112696D01*
X195257Y113305D01*
X194793Y113848D01*
X194575Y114034D01*
Y117226D01*
X194793Y117412D01*
X195257Y117955D01*
X195630Y118564D01*
X195903Y119224D01*
X196070Y119918D01*
X196112Y120630D01*
X196070Y121342D01*
X195903Y122036D01*
X195630Y122696D01*
X195257Y123305D01*
X194793Y123848D01*
X194250Y124312D01*
X193641Y124685D01*
X192981Y124958D01*
X192287Y125125D01*
X191575Y125181D01*
X190863Y125125D01*
X190168Y124958D01*
X189509Y124685D01*
X188900Y124312D01*
X188357Y123848D01*
X187893Y123305D01*
X187520Y122696D01*
X187247Y122036D01*
X187080Y121342D01*
X187024Y120630D01*
X187080Y119918D01*
X187247Y119224D01*
X187520Y118564D01*
X187893Y117955D01*
X188357Y117412D01*
X188575Y117226D01*
Y114034D01*
X188357Y113848D01*
X187893Y113305D01*
X187520Y112696D01*
X187247Y112036D01*
X187080Y111342D01*
X187024Y110630D01*
X187080Y109918D01*
X187247Y109224D01*
X187470Y108685D01*
X180195Y101411D01*
Y106295D01*
X180863Y106135D01*
X181575Y106079D01*
X182287Y106135D01*
X182981Y106302D01*
X183641Y106575D01*
X184250Y106948D01*
X184793Y107412D01*
X185257Y107955D01*
X185630Y108564D01*
X185903Y109224D01*
X186070Y109918D01*
X186112Y110630D01*
X186070Y111342D01*
X185903Y112036D01*
X185630Y112696D01*
X185257Y113305D01*
X184793Y113848D01*
X184575Y114034D01*
Y117226D01*
X184793Y117412D01*
X185257Y117955D01*
X185630Y118564D01*
X185903Y119224D01*
X186070Y119918D01*
X186112Y120630D01*
X186070Y121342D01*
X185903Y122036D01*
X185630Y122696D01*
X185257Y123305D01*
X184793Y123848D01*
X184250Y124312D01*
X183641Y124685D01*
X182981Y124958D01*
X182287Y125125D01*
X181575Y125181D01*
X180863Y125125D01*
X180195Y124965D01*
Y129331D01*
X211568D01*
Y125180D01*
X210863Y125125D01*
X210168Y124958D01*
X209509Y124685D01*
X208900Y124312D01*
X208357Y123848D01*
X207893Y123305D01*
X207520Y122696D01*
X207247Y122036D01*
X207080Y121342D01*
X207024Y120630D01*
X207080Y119918D01*
X207247Y119224D01*
X207520Y118564D01*
X207893Y117955D01*
X208357Y117412D01*
X208575Y117226D01*
Y114034D01*
X208357Y113848D01*
X207893Y113305D01*
X207520Y112696D01*
X207247Y112036D01*
X207080Y111342D01*
X207024Y110630D01*
X207080Y109918D01*
X207247Y109224D01*
X207520Y108564D01*
X207893Y107955D01*
X208357Y107412D01*
X208900Y106948D01*
X209509Y106575D01*
X210168Y106302D01*
X210863Y106135D01*
X211568Y106079D01*
Y83306D01*
G37*
G36*
Y38077D02*X192673D01*
Y44471D01*
X192677Y44470D01*
X193111Y44504D01*
X193534Y44606D01*
X193936Y44773D01*
X194308Y45000D01*
X194639Y45283D01*
X194921Y45614D01*
X195149Y45985D01*
X195315Y46387D01*
X195417Y46810D01*
X195443Y47244D01*
X195417Y47678D01*
X195315Y48101D01*
X195149Y48503D01*
X194921Y48875D01*
X194639Y49206D01*
X194308Y49488D01*
X193936Y49716D01*
X193534Y49882D01*
X193111Y49984D01*
X192677Y50018D01*
X192673Y50018D01*
Y54471D01*
X192677Y54470D01*
X193111Y54504D01*
X193534Y54606D01*
X193936Y54773D01*
X194308Y55000D01*
X194639Y55283D01*
X194921Y55614D01*
X195149Y55985D01*
X195315Y56387D01*
X195417Y56810D01*
X195443Y57244D01*
X195417Y57678D01*
X195315Y58101D01*
X195149Y58503D01*
X194921Y58875D01*
X194639Y59206D01*
X194308Y59488D01*
X193936Y59716D01*
X193534Y59882D01*
X193111Y59984D01*
X192677Y60018D01*
X192673Y60018D01*
Y64471D01*
X192677Y64470D01*
X193111Y64504D01*
X193534Y64606D01*
X193936Y64773D01*
X194308Y65000D01*
X194639Y65283D01*
X194921Y65614D01*
X195149Y65985D01*
X195315Y66387D01*
X195417Y66810D01*
X195443Y67244D01*
X195417Y67678D01*
X195315Y68101D01*
X195149Y68503D01*
X194921Y68875D01*
X194639Y69206D01*
X194308Y69488D01*
X193936Y69716D01*
X193534Y69882D01*
X193111Y69984D01*
X192677Y70018D01*
X192673Y70018D01*
Y82789D01*
X203792D01*
X206303Y80279D01*
X206273Y80155D01*
X206224Y79528D01*
X206273Y78900D01*
X206420Y78288D01*
X206661Y77706D01*
X206990Y77169D01*
X207399Y76690D01*
X207878Y76282D01*
X208415Y75953D01*
X208996Y75712D01*
X209609Y75565D01*
X210236Y75515D01*
X210864Y75565D01*
X211476Y75712D01*
X211568Y75750D01*
Y38077D01*
G37*
G36*
X192673Y70018D02*X192243Y69984D01*
X191820Y69882D01*
X191418Y69716D01*
X191047Y69488D01*
X190716Y69206D01*
X190433Y68875D01*
X190206Y68503D01*
X190039Y68101D01*
X189937Y67678D01*
X189903Y67244D01*
X189937Y66810D01*
X190004Y66534D01*
X188749Y65280D01*
X180195D01*
Y82789D01*
X192673D01*
Y70018D01*
G37*
G36*
Y60018D02*X192243Y59984D01*
X191840Y59887D01*
X190472Y61255D01*
X190434Y61300D01*
X190254Y61453D01*
X190053Y61577D01*
X189835Y61667D01*
X189605Y61722D01*
X189370Y61741D01*
X189311Y61736D01*
X180195D01*
Y62280D01*
X189311D01*
X189370Y62275D01*
X189605Y62293D01*
X189605Y62293D01*
X189835Y62349D01*
X190053Y62439D01*
X190254Y62562D01*
X190434Y62716D01*
X190472Y62760D01*
X192221Y64510D01*
X192243Y64504D01*
X192673Y64471D01*
Y60018D01*
G37*
G36*
Y38077D02*X185399D01*
X185333Y38185D01*
X184924Y38664D01*
X184445Y39073D01*
X183908Y39402D01*
X183326Y39643D01*
X182714Y39790D01*
X182087Y39839D01*
X181459Y39790D01*
X180847Y39643D01*
X180265Y39402D01*
X180195Y39359D01*
Y58736D01*
X188749D01*
X189928Y57557D01*
X189903Y57244D01*
X189937Y56810D01*
X190039Y56387D01*
X190206Y55985D01*
X190433Y55614D01*
X190716Y55283D01*
X191047Y55000D01*
X191418Y54773D01*
X191820Y54606D01*
X192243Y54504D01*
X192673Y54471D01*
Y50018D01*
X192243Y49984D01*
X191820Y49882D01*
X191418Y49716D01*
X191047Y49488D01*
X190716Y49206D01*
X190433Y48875D01*
X190206Y48503D01*
X190039Y48101D01*
X189937Y47678D01*
X189903Y47244D01*
X189937Y46810D01*
X190039Y46387D01*
X190206Y45985D01*
X190433Y45614D01*
X190716Y45283D01*
X191047Y45000D01*
X191418Y44773D01*
X191820Y44606D01*
X192243Y44504D01*
X192673Y44471D01*
Y38077D01*
G37*
G36*
X211568Y2362D02*X201568D01*
Y6079D01*
X201575Y6079D01*
X202287Y6135D01*
X202981Y6302D01*
X203641Y6575D01*
X204250Y6948D01*
X204793Y7412D01*
X205257Y7955D01*
X205630Y8564D01*
X205903Y9224D01*
X206070Y9918D01*
X206112Y10630D01*
X206070Y11342D01*
X205903Y12036D01*
X205630Y12696D01*
X205257Y13305D01*
X204793Y13848D01*
X204575Y14034D01*
Y17226D01*
X204793Y17412D01*
X205257Y17955D01*
X205630Y18564D01*
X205903Y19224D01*
X206070Y19918D01*
X206112Y20630D01*
X206070Y21342D01*
X205903Y22036D01*
X205630Y22696D01*
X205257Y23305D01*
X204793Y23848D01*
X204250Y24312D01*
X203641Y24685D01*
X202981Y24958D01*
X202287Y25125D01*
X201575Y25181D01*
X201568Y25180D01*
Y33577D01*
X211568D01*
Y25180D01*
X210863Y25125D01*
X210168Y24958D01*
X209509Y24685D01*
X208900Y24312D01*
X208357Y23848D01*
X207893Y23305D01*
X207520Y22696D01*
X207247Y22036D01*
X207080Y21342D01*
X207024Y20630D01*
X207080Y19918D01*
X207247Y19224D01*
X207520Y18564D01*
X207893Y17955D01*
X208357Y17412D01*
X208575Y17226D01*
Y14034D01*
X208357Y13848D01*
X207893Y13305D01*
X207520Y12696D01*
X207247Y12036D01*
X207080Y11342D01*
X207024Y10630D01*
X207080Y9918D01*
X207247Y9224D01*
X207520Y8564D01*
X207893Y7955D01*
X208357Y7412D01*
X208900Y6948D01*
X209509Y6575D01*
X210168Y6302D01*
X210863Y6135D01*
X211568Y6079D01*
Y2362D01*
G37*
G36*
X201568D02*X191568D01*
Y6079D01*
X191575Y6079D01*
X192287Y6135D01*
X192981Y6302D01*
X193641Y6575D01*
X194250Y6948D01*
X194793Y7412D01*
X195257Y7955D01*
X195630Y8564D01*
X195903Y9224D01*
X196070Y9918D01*
X196112Y10630D01*
X196070Y11342D01*
X195903Y12036D01*
X195630Y12696D01*
X195257Y13305D01*
X194793Y13848D01*
X194575Y14034D01*
Y17226D01*
X194793Y17412D01*
X195257Y17955D01*
X195630Y18564D01*
X195903Y19224D01*
X196070Y19918D01*
X196112Y20630D01*
X196070Y21342D01*
X195903Y22036D01*
X195630Y22696D01*
X195257Y23305D01*
X194793Y23848D01*
X194250Y24312D01*
X193641Y24685D01*
X192981Y24958D01*
X192287Y25125D01*
X191575Y25181D01*
X191568Y25180D01*
Y33577D01*
X201568D01*
Y25180D01*
X200863Y25125D01*
X200168Y24958D01*
X199509Y24685D01*
X198900Y24312D01*
X198357Y23848D01*
X197893Y23305D01*
X197520Y22696D01*
X197247Y22036D01*
X197080Y21342D01*
X197024Y20630D01*
X197080Y19918D01*
X197247Y19224D01*
X197520Y18564D01*
X197893Y17955D01*
X198357Y17412D01*
X198575Y17226D01*
Y14034D01*
X198357Y13848D01*
X197893Y13305D01*
X197520Y12696D01*
X197247Y12036D01*
X197080Y11342D01*
X197024Y10630D01*
X197080Y9918D01*
X197247Y9224D01*
X197520Y8564D01*
X197893Y7955D01*
X198357Y7412D01*
X198900Y6948D01*
X199509Y6575D01*
X200168Y6302D01*
X200863Y6135D01*
X201568Y6079D01*
Y2362D01*
G37*
G36*
X191568D02*X180195D01*
Y6295D01*
X180863Y6135D01*
X181575Y6079D01*
X182287Y6135D01*
X182981Y6302D01*
X183641Y6575D01*
X184250Y6948D01*
X184793Y7412D01*
X185257Y7955D01*
X185630Y8564D01*
X185903Y9224D01*
X186070Y9918D01*
X186112Y10630D01*
X186070Y11342D01*
X185903Y12036D01*
X185630Y12696D01*
X185257Y13305D01*
X184793Y13848D01*
X184575Y14034D01*
Y17226D01*
X184793Y17412D01*
X185257Y17955D01*
X185630Y18564D01*
X185903Y19224D01*
X186070Y19918D01*
X186112Y20630D01*
X186070Y21342D01*
X185903Y22036D01*
X185630Y22696D01*
X185257Y23305D01*
X184793Y23848D01*
X184250Y24312D01*
X183641Y24685D01*
X182981Y24958D01*
X182287Y25125D01*
X181575Y25181D01*
X180863Y25125D01*
X180195Y24965D01*
Y32295D01*
X180265Y32252D01*
X180847Y32011D01*
X181459Y31864D01*
X182087Y31814D01*
X182714Y31864D01*
X183326Y32011D01*
X183908Y32252D01*
X184445Y32581D01*
X184924Y32990D01*
X185333Y33468D01*
X185399Y33577D01*
X191568D01*
Y25180D01*
X190863Y25125D01*
X190168Y24958D01*
X189509Y24685D01*
X188900Y24312D01*
X188357Y23848D01*
X187893Y23305D01*
X187520Y22696D01*
X187247Y22036D01*
X187080Y21342D01*
X187024Y20630D01*
X187080Y19918D01*
X187247Y19224D01*
X187520Y18564D01*
X187893Y17955D01*
X188357Y17412D01*
X188575Y17226D01*
Y14034D01*
X188357Y13848D01*
X187893Y13305D01*
X187520Y12696D01*
X187247Y12036D01*
X187080Y11342D01*
X187024Y10630D01*
X187080Y9918D01*
X187247Y9224D01*
X187520Y8564D01*
X187893Y7955D01*
X188357Y7412D01*
X188900Y6948D01*
X189509Y6575D01*
X190168Y6302D01*
X190863Y6135D01*
X191568Y6079D01*
Y2362D01*
G37*
G36*
X180195Y61736D02*X170925D01*
X170866Y61741D01*
X170631Y61722D01*
X170401Y61667D01*
X170202Y61585D01*
X170897Y62280D01*
X180195D01*
Y61736D01*
G37*
G36*
Y101411D02*X177725Y98941D01*
X172081D01*
X172144Y98980D01*
X172324Y99133D01*
X172362Y99178D01*
X179686Y106502D01*
X180168Y106302D01*
X180195Y106295D01*
Y101411D01*
G37*
G36*
X141568Y25469D02*X143642D01*
X143701Y25464D01*
X143936Y25482D01*
X143936Y25482D01*
X144060Y25512D01*
X143352Y24804D01*
X142981Y24958D01*
X142287Y25125D01*
X141575Y25181D01*
X141568Y25180D01*
Y25469D01*
G37*
G36*
Y61429D02*X141952Y61045D01*
X141911Y60872D01*
X141876Y60433D01*
X141911Y59994D01*
X142014Y59565D01*
X142183Y59158D01*
X142413Y58782D01*
X142699Y58447D01*
X143034Y58161D01*
X143410Y57931D01*
X143817Y57762D01*
X144246Y57659D01*
X144685Y57624D01*
X145124Y57659D01*
X145553Y57762D01*
X145960Y57931D01*
X146336Y58161D01*
X146671Y58447D01*
X146957Y58782D01*
X147188Y59158D01*
X147356Y59565D01*
X147356Y59565D01*
Y45553D01*
X147356Y45553D01*
X147188Y45960D01*
X146957Y46336D01*
X146671Y46671D01*
X146336Y46957D01*
X145988Y47170D01*
Y49801D01*
X146139Y49893D01*
X146474Y50179D01*
X146760Y50514D01*
X146991Y50890D01*
X147159Y51297D01*
X147262Y51726D01*
X147288Y52165D01*
X147262Y52605D01*
X147159Y53033D01*
X146991Y53440D01*
X146760Y53816D01*
X146474Y54151D01*
X146139Y54438D01*
X145763Y54668D01*
X145356Y54837D01*
X144928Y54939D01*
X144488Y54974D01*
X144049Y54939D01*
X143620Y54837D01*
X143213Y54668D01*
X142837Y54438D01*
X142502Y54151D01*
X142216Y53816D01*
X141986Y53440D01*
X141817Y53033D01*
X141714Y52605D01*
X141680Y52165D01*
X141714Y51726D01*
X141817Y51297D01*
X141986Y50890D01*
X142216Y50514D01*
X142502Y50179D01*
X142837Y49893D01*
X142988Y49801D01*
Y46918D01*
X142699Y46671D01*
X142413Y46336D01*
X142183Y45960D01*
X142014Y45553D01*
X141911Y45124D01*
X141876Y44685D01*
X141911Y44246D01*
X142014Y43817D01*
X142183Y43410D01*
X142413Y43034D01*
X142699Y42699D01*
X142988Y42452D01*
Y38220D01*
X141568Y36799D01*
Y61429D01*
G37*
G36*
Y78901D02*X141592Y78843D01*
X141822Y78467D01*
X142108Y78132D01*
X142444Y77846D01*
X142819Y77616D01*
X143227Y77447D01*
X143655Y77344D01*
X144094Y77309D01*
X144534Y77344D01*
X144962Y77447D01*
X145370Y77616D01*
X145745Y77846D01*
X146080Y78132D01*
X146367Y78467D01*
X146597Y78843D01*
X146766Y79250D01*
X146869Y79679D01*
X146894Y80118D01*
X146869Y80557D01*
X146827Y80730D01*
X164795Y98697D01*
X168076D01*
X168013Y98658D01*
X168013Y98658D01*
X167834Y98505D01*
X167795Y98460D01*
X151399Y82063D01*
X151227Y82105D01*
X150787Y82139D01*
X150348Y82105D01*
X149919Y82002D01*
X149512Y81833D01*
X149137Y81603D01*
X148801Y81317D01*
X148515Y80982D01*
X148285Y80606D01*
X148116Y80199D01*
X148013Y79770D01*
X147979Y79331D01*
X148013Y78891D01*
X148116Y78463D01*
X148285Y78056D01*
X148515Y77680D01*
X148801Y77345D01*
X149137Y77058D01*
X149512Y76828D01*
X149919Y76660D01*
X150348Y76557D01*
X150787Y76522D01*
X151227Y76557D01*
X151655Y76660D01*
X152062Y76828D01*
X152438Y77058D01*
X152773Y77345D01*
X153060Y77680D01*
X153290Y78056D01*
X153459Y78463D01*
X153561Y78891D01*
X153587Y79331D01*
X153561Y79770D01*
X153520Y79942D01*
X169519Y95941D01*
X178288D01*
X178346Y95936D01*
X178581Y95955D01*
X178582Y95955D01*
X178811Y96010D01*
X179030Y96100D01*
X179231Y96224D01*
X179410Y96377D01*
X179449Y96422D01*
X180195Y97168D01*
Y94610D01*
X171319D01*
X171260Y94615D01*
X171024Y94596D01*
X170795Y94541D01*
X170577Y94451D01*
X170375Y94328D01*
X170375Y94327D01*
X170196Y94174D01*
X170158Y94129D01*
X157698Y81670D01*
X157526Y81711D01*
X157087Y81746D01*
X156647Y81711D01*
X156219Y81608D01*
X155812Y81440D01*
X155436Y81209D01*
X155101Y80923D01*
X154814Y80588D01*
X154584Y80212D01*
X154415Y79805D01*
X154313Y79376D01*
X154278Y78937D01*
X154313Y78498D01*
X154415Y78069D01*
X154584Y77662D01*
X154814Y77286D01*
X155101Y76951D01*
X155436Y76665D01*
X155812Y76434D01*
X156219Y76266D01*
X156647Y76163D01*
X157087Y76128D01*
X157526Y76163D01*
X157955Y76266D01*
X158362Y76434D01*
X158737Y76665D01*
X159073Y76951D01*
X159359Y77286D01*
X159589Y77662D01*
X159758Y78069D01*
X159861Y78498D01*
X159887Y78937D01*
X159861Y79376D01*
X159819Y79548D01*
X171881Y91610D01*
X180195D01*
Y87289D01*
X172529D01*
X172441Y87296D01*
X172088Y87269D01*
X171744Y87186D01*
X171416Y87050D01*
X171114Y86865D01*
X171114Y86865D01*
X170845Y86635D01*
X170788Y86568D01*
X148078Y63858D01*
X148010Y63801D01*
X147780Y63531D01*
X147595Y63229D01*
X147460Y62902D01*
X147377Y62558D01*
X147377Y62557D01*
X147349Y62205D01*
X147356Y62117D01*
Y61301D01*
X147356Y61301D01*
X147188Y61708D01*
X146957Y62084D01*
X146671Y62419D01*
X146336Y62705D01*
X145960Y62936D01*
X145553Y63104D01*
X145124Y63207D01*
X144685Y63242D01*
X144246Y63207D01*
X144074Y63166D01*
X141568Y65672D01*
Y78901D01*
G37*
G36*
Y81769D02*X160858Y101059D01*
X162914D01*
X144706Y82851D01*
X144534Y82892D01*
X144094Y82927D01*
X143655Y82892D01*
X143227Y82789D01*
X142819Y82621D01*
X142444Y82390D01*
X142108Y82104D01*
X141822Y81769D01*
X141592Y81393D01*
X141568Y81335D01*
Y81769D01*
G37*
G36*
Y129331D02*X180195D01*
Y124965D01*
X180168Y124958D01*
X179509Y124685D01*
X178900Y124312D01*
X178357Y123848D01*
X177893Y123305D01*
X177520Y122696D01*
X177247Y122036D01*
X177080Y121342D01*
X177024Y120630D01*
X177080Y119918D01*
X177247Y119224D01*
X177520Y118564D01*
X177893Y117955D01*
X178357Y117412D01*
X178575Y117226D01*
Y114034D01*
X178357Y113848D01*
X177893Y113305D01*
X177520Y112696D01*
X177247Y112036D01*
X177080Y111342D01*
X177024Y110630D01*
X177080Y109918D01*
X177247Y109224D01*
X177516Y108574D01*
X170639Y101697D01*
X164645D01*
X169519Y106571D01*
X170168Y106302D01*
X170863Y106135D01*
X171575Y106079D01*
X172287Y106135D01*
X172981Y106302D01*
X173641Y106575D01*
X174250Y106948D01*
X174793Y107412D01*
X175257Y107955D01*
X175630Y108564D01*
X175903Y109224D01*
X176070Y109918D01*
X176112Y110630D01*
X176070Y111342D01*
X175903Y112036D01*
X175630Y112696D01*
X175257Y113305D01*
X174793Y113848D01*
X174575Y114034D01*
Y117226D01*
X174793Y117412D01*
X175257Y117955D01*
X175630Y118564D01*
X175903Y119224D01*
X176070Y119918D01*
X176112Y120630D01*
X176070Y121342D01*
X175903Y122036D01*
X175630Y122696D01*
X175257Y123305D01*
X174793Y123848D01*
X174250Y124312D01*
X173641Y124685D01*
X172981Y124958D01*
X172287Y125125D01*
X171575Y125181D01*
X170863Y125125D01*
X170168Y124958D01*
X169509Y124685D01*
X168900Y124312D01*
X168357Y123848D01*
X167893Y123305D01*
X167520Y122696D01*
X167247Y122036D01*
X167080Y121342D01*
X167024Y120630D01*
X167080Y119918D01*
X167247Y119224D01*
X167520Y118564D01*
X167893Y117955D01*
X168357Y117412D01*
X168575Y117226D01*
Y114034D01*
X168357Y113848D01*
X167893Y113305D01*
X167520Y112696D01*
X167247Y112036D01*
X167080Y111342D01*
X167024Y110630D01*
X167080Y109918D01*
X167247Y109224D01*
X167446Y108741D01*
X162765Y104059D01*
X160295D01*
X160236Y104064D01*
X160001Y104045D01*
X159771Y103990D01*
X159553Y103900D01*
X159352Y103776D01*
X159352Y103776D01*
X159172Y103623D01*
X159134Y103578D01*
X141568Y86012D01*
Y88462D01*
X145684Y92579D01*
X145729Y92617D01*
X145883Y92797D01*
X145883Y92797D01*
X145914Y92848D01*
X159602Y106536D01*
X160168Y106302D01*
X160863Y106135D01*
X161575Y106079D01*
X162287Y106135D01*
X162981Y106302D01*
X163641Y106575D01*
X164250Y106948D01*
X164793Y107412D01*
X165257Y107955D01*
X165630Y108564D01*
X165903Y109224D01*
X166070Y109918D01*
X166112Y110630D01*
X166070Y111342D01*
X165903Y112036D01*
X165630Y112696D01*
X165257Y113305D01*
X164793Y113848D01*
X164575Y114034D01*
Y117226D01*
X164793Y117412D01*
X165257Y117955D01*
X165630Y118564D01*
X165903Y119224D01*
X166070Y119918D01*
X166112Y120630D01*
X166070Y121342D01*
X165903Y122036D01*
X165630Y122696D01*
X165257Y123305D01*
X164793Y123848D01*
X164250Y124312D01*
X163641Y124685D01*
X162981Y124958D01*
X162287Y125125D01*
X161575Y125181D01*
X160863Y125125D01*
X160168Y124958D01*
X159509Y124685D01*
X158900Y124312D01*
X158357Y123848D01*
X157893Y123305D01*
X157520Y122696D01*
X157247Y122036D01*
X157080Y121342D01*
X157024Y120630D01*
X157080Y119918D01*
X157247Y119224D01*
X157520Y118564D01*
X157893Y117955D01*
X158357Y117412D01*
X158575Y117226D01*
Y114034D01*
X158357Y113848D01*
X157893Y113305D01*
X157520Y112696D01*
X157247Y112036D01*
X157080Y111342D01*
X157024Y110630D01*
X157080Y109918D01*
X157247Y109224D01*
X157481Y108657D01*
X143646Y94823D01*
X143601Y94784D01*
X143448Y94605D01*
X143417Y94554D01*
X141568Y92705D01*
Y98502D01*
X149602Y106536D01*
X150168Y106302D01*
X150863Y106135D01*
X151575Y106079D01*
X152287Y106135D01*
X152981Y106302D01*
X153641Y106575D01*
X154250Y106948D01*
X154793Y107412D01*
X155257Y107955D01*
X155630Y108564D01*
X155903Y109224D01*
X156070Y109918D01*
X156112Y110630D01*
X156070Y111342D01*
X155903Y112036D01*
X155630Y112696D01*
X155257Y113305D01*
X154793Y113848D01*
X154575Y114034D01*
Y117226D01*
X154793Y117412D01*
X155257Y117955D01*
X155630Y118564D01*
X155903Y119224D01*
X156070Y119918D01*
X156112Y120630D01*
X156070Y121342D01*
X155903Y122036D01*
X155630Y122696D01*
X155257Y123305D01*
X154793Y123848D01*
X154250Y124312D01*
X153641Y124685D01*
X152981Y124958D01*
X152287Y125125D01*
X151575Y125181D01*
X150863Y125125D01*
X150168Y124958D01*
X149509Y124685D01*
X148900Y124312D01*
X148357Y123848D01*
X147893Y123305D01*
X147520Y122696D01*
X147247Y122036D01*
X147080Y121342D01*
X147024Y120630D01*
X147080Y119918D01*
X147247Y119224D01*
X147520Y118564D01*
X147893Y117955D01*
X148357Y117412D01*
X148575Y117226D01*
Y114034D01*
X148357Y113848D01*
X147893Y113305D01*
X147520Y112696D01*
X147247Y112036D01*
X147080Y111342D01*
X147024Y110630D01*
X147080Y109918D01*
X147247Y109224D01*
X147481Y108657D01*
X141568Y102744D01*
Y106079D01*
X141575Y106079D01*
X142287Y106135D01*
X142981Y106302D01*
X143641Y106575D01*
X144250Y106948D01*
X144793Y107412D01*
X145257Y107955D01*
X145630Y108564D01*
X145903Y109224D01*
X146070Y109918D01*
X146112Y110630D01*
X146070Y111342D01*
X145903Y112036D01*
X145630Y112696D01*
X145257Y113305D01*
X144793Y113848D01*
X144575Y114034D01*
Y117226D01*
X144793Y117412D01*
X145257Y117955D01*
X145630Y118564D01*
X145903Y119224D01*
X146070Y119918D01*
X146112Y120630D01*
X146070Y121342D01*
X145903Y122036D01*
X145630Y122696D01*
X145257Y123305D01*
X144793Y123848D01*
X144250Y124312D01*
X143641Y124685D01*
X142981Y124958D01*
X142287Y125125D01*
X141575Y125181D01*
X141568Y125180D01*
Y129331D01*
G37*
G36*
X171568Y68880D02*X171748Y68954D01*
X172123Y69184D01*
X172458Y69471D01*
X172745Y69806D01*
X172975Y70182D01*
X173144Y70589D01*
X173246Y71017D01*
X173272Y71457D01*
X173246Y71896D01*
X173144Y72325D01*
X172975Y72732D01*
X172745Y73108D01*
X172458Y73443D01*
X172123Y73729D01*
X171748Y73959D01*
X171568Y74034D01*
Y80984D01*
X173373Y82789D01*
X180195D01*
Y65280D01*
X171568D01*
Y68880D01*
G37*
G36*
X180195Y2362D02*X171568D01*
Y6079D01*
X171575Y6079D01*
X172287Y6135D01*
X172981Y6302D01*
X173641Y6575D01*
X174250Y6948D01*
X174793Y7412D01*
X175257Y7955D01*
X175630Y8564D01*
X175903Y9224D01*
X176070Y9918D01*
X176112Y10630D01*
X176070Y11342D01*
X175903Y12036D01*
X175630Y12696D01*
X175257Y13305D01*
X174793Y13848D01*
X174575Y14034D01*
Y17226D01*
X174793Y17412D01*
X175257Y17955D01*
X175630Y18564D01*
X175903Y19224D01*
X176070Y19918D01*
X176112Y20630D01*
X176070Y21342D01*
X175903Y22036D01*
X175630Y22696D01*
X175257Y23305D01*
X174793Y23848D01*
X174250Y24312D01*
X173641Y24685D01*
X172981Y24958D01*
X172287Y25125D01*
X171575Y25181D01*
X171568Y25180D01*
Y58736D01*
X180195D01*
Y39359D01*
X179728Y39073D01*
X179249Y38664D01*
X178841Y38185D01*
X178512Y37648D01*
X178271Y37067D01*
X178124Y36454D01*
X178074Y35827D01*
X178124Y35199D01*
X178271Y34587D01*
X178512Y34005D01*
X178841Y33468D01*
X179249Y32990D01*
X179728Y32581D01*
X180195Y32295D01*
Y24965D01*
X180168Y24958D01*
X179509Y24685D01*
X178900Y24312D01*
X178357Y23848D01*
X177893Y23305D01*
X177520Y22696D01*
X177247Y22036D01*
X177080Y21342D01*
X177024Y20630D01*
X177080Y19918D01*
X177247Y19224D01*
X177520Y18564D01*
X177893Y17955D01*
X178357Y17412D01*
X178575Y17226D01*
Y14034D01*
X178357Y13848D01*
X177893Y13305D01*
X177520Y12696D01*
X177247Y12036D01*
X177080Y11342D01*
X177024Y10630D01*
X177080Y9918D01*
X177247Y9224D01*
X177520Y8564D01*
X177893Y7955D01*
X178357Y7412D01*
X178900Y6948D01*
X179509Y6575D01*
X180168Y6302D01*
X180195Y6295D01*
Y2362D01*
G37*
G36*
X171568Y74034D02*X171340Y74128D01*
X170912Y74231D01*
X170472Y74265D01*
X170033Y74231D01*
X169605Y74128D01*
X169197Y73959D01*
X168822Y73729D01*
X168486Y73443D01*
X168200Y73108D01*
X168108Y72957D01*
X163838D01*
X163780Y72961D01*
X163544Y72943D01*
X163521Y72937D01*
X171568Y80984D01*
Y74034D01*
G37*
G36*
Y2362D02*X141568D01*
Y6079D01*
X141575Y6079D01*
X142287Y6135D01*
X142981Y6302D01*
X143641Y6575D01*
X144250Y6948D01*
X144793Y7412D01*
X145257Y7955D01*
X145630Y8564D01*
X145903Y9224D01*
X146070Y9918D01*
X146112Y10630D01*
X146070Y11342D01*
X145903Y12036D01*
X145630Y12696D01*
X145257Y13305D01*
X144793Y13848D01*
X144575Y14034D01*
Y17226D01*
X144793Y17412D01*
X145257Y17955D01*
X145630Y18564D01*
X145903Y19224D01*
X146070Y19918D01*
X146112Y20630D01*
X146070Y21342D01*
X145903Y22036D01*
X145630Y22696D01*
X145575Y22785D01*
X157712Y34921D01*
X157757Y34960D01*
X157910Y35139D01*
X157910Y35139D01*
X158034Y35341D01*
X158124Y35559D01*
X158179Y35788D01*
X158198Y36024D01*
X158193Y36082D01*
Y54694D01*
X162436Y58937D01*
X162481Y58975D01*
X162634Y59155D01*
X162635Y59155D01*
X162758Y59356D01*
X162848Y59574D01*
X162903Y59804D01*
X162922Y60039D01*
X162917Y60098D01*
Y68473D01*
X164401Y69957D01*
X168108D01*
X168200Y69806D01*
X168486Y69471D01*
X168822Y69184D01*
X169197Y68954D01*
X169605Y68786D01*
X170033Y68683D01*
X170472Y68648D01*
X170912Y68683D01*
X171340Y68786D01*
X171568Y68880D01*
Y65280D01*
X170334D01*
X170276Y65284D01*
X170040Y65266D01*
X169811Y65211D01*
X169593Y65120D01*
X169391Y64997D01*
X169391Y64997D01*
X169212Y64843D01*
X169173Y64799D01*
X159217Y54842D01*
X159172Y54804D01*
X159019Y54625D01*
X158896Y54423D01*
X158805Y54205D01*
X158750Y53976D01*
X158750Y53975D01*
X158732Y53740D01*
X158736Y53681D01*
Y35858D01*
X150556Y27677D01*
X150511Y27639D01*
X150358Y27459D01*
X150234Y27258D01*
X150144Y27040D01*
X150089Y26810D01*
X150089Y26810D01*
X150070Y26575D01*
X150075Y26516D01*
Y24919D01*
X149509Y24685D01*
X148900Y24312D01*
X148357Y23848D01*
X147893Y23305D01*
X147520Y22696D01*
X147247Y22036D01*
X147080Y21342D01*
X147024Y20630D01*
X147080Y19918D01*
X147247Y19224D01*
X147520Y18564D01*
X147893Y17955D01*
X148357Y17412D01*
X148575Y17226D01*
Y14034D01*
X148357Y13848D01*
X147893Y13305D01*
X147520Y12696D01*
X147247Y12036D01*
X147080Y11342D01*
X147024Y10630D01*
X147080Y9918D01*
X147247Y9224D01*
X147520Y8564D01*
X147893Y7955D01*
X148357Y7412D01*
X148900Y6948D01*
X149509Y6575D01*
X150168Y6302D01*
X150863Y6135D01*
X151575Y6079D01*
X152287Y6135D01*
X152981Y6302D01*
X153641Y6575D01*
X154250Y6948D01*
X154793Y7412D01*
X155257Y7955D01*
X155630Y8564D01*
X155903Y9224D01*
X156070Y9918D01*
X156112Y10630D01*
X156070Y11342D01*
X155903Y12036D01*
X155630Y12696D01*
X155257Y13305D01*
X154793Y13848D01*
X154575Y14034D01*
Y17226D01*
X154793Y17412D01*
X155257Y17955D01*
X155630Y18564D01*
X155903Y19224D01*
X156070Y19918D01*
X156112Y20630D01*
X156070Y21342D01*
X155903Y22036D01*
X155630Y22696D01*
X155257Y23305D01*
X154793Y23848D01*
X154250Y24312D01*
X153641Y24685D01*
X153075Y24919D01*
Y25953D01*
X161255Y34134D01*
X161300Y34172D01*
X161453Y34351D01*
X161453Y34352D01*
X161492Y34415D01*
Y34283D01*
X160556Y33346D01*
X160511Y33308D01*
X160358Y33128D01*
X160234Y32927D01*
X160144Y32709D01*
X160089Y32479D01*
X160089Y32479D01*
X160070Y32244D01*
X160075Y32185D01*
Y24919D01*
X159509Y24685D01*
X158900Y24312D01*
X158357Y23848D01*
X157893Y23305D01*
X157520Y22696D01*
X157247Y22036D01*
X157080Y21342D01*
X157024Y20630D01*
X157080Y19918D01*
X157247Y19224D01*
X157520Y18564D01*
X157893Y17955D01*
X158357Y17412D01*
X158575Y17226D01*
Y14034D01*
X158357Y13848D01*
X157893Y13305D01*
X157520Y12696D01*
X157247Y12036D01*
X157080Y11342D01*
X157024Y10630D01*
X157080Y9918D01*
X157247Y9224D01*
X157520Y8564D01*
X157893Y7955D01*
X158357Y7412D01*
X158900Y6948D01*
X159509Y6575D01*
X160168Y6302D01*
X160863Y6135D01*
X161575Y6079D01*
X162287Y6135D01*
X162981Y6302D01*
X163641Y6575D01*
X164250Y6948D01*
X164793Y7412D01*
X165257Y7955D01*
X165630Y8564D01*
X165903Y9224D01*
X166070Y9918D01*
X166112Y10630D01*
X166070Y11342D01*
X165903Y12036D01*
X165630Y12696D01*
X165257Y13305D01*
X164793Y13848D01*
X164575Y14034D01*
Y17226D01*
X164793Y17412D01*
X165257Y17955D01*
X165630Y18564D01*
X165903Y19224D01*
X166070Y19918D01*
X166112Y20630D01*
X166070Y21342D01*
X165903Y22036D01*
X165630Y22696D01*
X165257Y23305D01*
X164793Y23848D01*
X164250Y24312D01*
X163641Y24685D01*
X163075Y24919D01*
Y31623D01*
X164011Y32559D01*
X164056Y32597D01*
X164209Y32777D01*
X164209Y32777D01*
X164333Y32978D01*
X164423Y33196D01*
X164478Y33426D01*
X164497Y33661D01*
X164492Y33720D01*
Y51741D01*
X171487Y58736D01*
X171568D01*
Y25180D01*
X170863Y25125D01*
X170168Y24958D01*
X169509Y24685D01*
X168900Y24312D01*
X168357Y23848D01*
X167893Y23305D01*
X167520Y22696D01*
X167247Y22036D01*
X167080Y21342D01*
X167024Y20630D01*
X167080Y19918D01*
X167247Y19224D01*
X167520Y18564D01*
X167893Y17955D01*
X168357Y17412D01*
X168575Y17226D01*
Y14034D01*
X168357Y13848D01*
X167893Y13305D01*
X167520Y12696D01*
X167247Y12036D01*
X167080Y11342D01*
X167024Y10630D01*
X167080Y9918D01*
X167247Y9224D01*
X167520Y8564D01*
X167893Y7955D01*
X168357Y7412D01*
X168900Y6948D01*
X169509Y6575D01*
X170168Y6302D01*
X170863Y6135D01*
X171568Y6079D01*
Y2362D01*
G37*
G36*
X141568Y86012D02*X138407Y82851D01*
X138235Y82892D01*
X137795Y82927D01*
X137356Y82892D01*
X136927Y82789D01*
X136520Y82621D01*
X136144Y82390D01*
X135809Y82104D01*
X135523Y81769D01*
X135293Y81393D01*
X135124Y80986D01*
X135021Y80557D01*
X134987Y80118D01*
X135021Y79679D01*
X135124Y79250D01*
X135293Y78843D01*
X135523Y78467D01*
X135809Y78132D01*
X136144Y77846D01*
X136520Y77616D01*
X136927Y77447D01*
X137356Y77344D01*
X137795Y77309D01*
X138235Y77344D01*
X138663Y77447D01*
X139070Y77616D01*
X139446Y77846D01*
X139781Y78132D01*
X140068Y78467D01*
X140298Y78843D01*
X140466Y79250D01*
X140569Y79679D01*
X140595Y80118D01*
X140569Y80557D01*
X140528Y80730D01*
X141568Y81769D01*
Y81335D01*
X141423Y80986D01*
X141320Y80557D01*
X141286Y80118D01*
X141320Y79679D01*
X141423Y79250D01*
X141568Y78901D01*
Y65672D01*
X134965Y72275D01*
Y81859D01*
X141568Y88462D01*
Y86012D01*
G37*
G36*
X131568Y37969D02*X132478D01*
X132570Y37818D01*
X132857Y37482D01*
X133192Y37196D01*
X133567Y36966D01*
X133975Y36797D01*
X134403Y36694D01*
X134843Y36660D01*
X135282Y36694D01*
X135710Y36797D01*
X135831Y36847D01*
X135809Y36829D01*
X135523Y36493D01*
X135293Y36118D01*
X135124Y35710D01*
X135021Y35282D01*
X134987Y34843D01*
X135021Y34403D01*
X135124Y33975D01*
X135293Y33567D01*
X135523Y33192D01*
X135809Y32857D01*
X136144Y32570D01*
X136520Y32340D01*
X136927Y32171D01*
X136928Y32171D01*
X134931D01*
X134843Y32178D01*
X134754Y32171D01*
X131568D01*
Y37969D01*
G37*
G36*
Y42890D02*X132478D01*
X132570Y42739D01*
X132857Y42404D01*
X133192Y42118D01*
X133499Y41929D01*
X133192Y41741D01*
X132857Y41455D01*
X132570Y41119D01*
X132478Y40969D01*
X131568D01*
Y42890D01*
G37*
G36*
Y88502D02*X141568Y98502D01*
Y92705D01*
X132445Y83583D01*
X132401Y83544D01*
X132247Y83365D01*
X132124Y83163D01*
X132034Y82945D01*
X131978Y82716D01*
X131978Y82715D01*
X131960Y82480D01*
X131965Y82422D01*
Y71712D01*
X131960Y71654D01*
X131978Y71418D01*
X132034Y71189D01*
X132124Y70970D01*
X132247Y70769D01*
X132401Y70590D01*
X132445Y70551D01*
X141568Y61429D01*
Y36799D01*
X141111Y36343D01*
X140160D01*
X140068Y36493D01*
X139781Y36829D01*
X139446Y37115D01*
X139070Y37345D01*
X138663Y37514D01*
X138235Y37617D01*
X137795Y37651D01*
X137356Y37617D01*
X136927Y37514D01*
X136806Y37464D01*
X136829Y37482D01*
X137115Y37818D01*
X137345Y38193D01*
X137514Y38601D01*
X137617Y39029D01*
X137643Y39469D01*
X137617Y39908D01*
X137514Y40336D01*
X137345Y40744D01*
X137115Y41119D01*
X136829Y41455D01*
X136493Y41741D01*
X136186Y41929D01*
X136493Y42118D01*
X136829Y42404D01*
X137115Y42739D01*
X137345Y43115D01*
X137514Y43522D01*
X137617Y43950D01*
X137643Y44390D01*
X137617Y44829D01*
X137514Y45258D01*
X137345Y45665D01*
X137115Y46041D01*
X136829Y46376D01*
X136493Y46662D01*
X136186Y46850D01*
X136493Y47039D01*
X136829Y47325D01*
X137115Y47660D01*
X137345Y48036D01*
X137514Y48443D01*
X137617Y48872D01*
X137643Y49311D01*
X137617Y49750D01*
X137514Y50179D01*
X137345Y50586D01*
X137115Y50962D01*
X136829Y51297D01*
X136493Y51583D01*
X136118Y51814D01*
X135710Y51982D01*
X135282Y52085D01*
X134843Y52120D01*
X134403Y52085D01*
X133975Y51982D01*
X133567Y51814D01*
X133192Y51583D01*
X132857Y51297D01*
X132570Y50962D01*
X132478Y50811D01*
X131568D01*
Y88502D01*
G37*
G36*
Y129331D02*X141568D01*
Y125180D01*
X140863Y125125D01*
X140168Y124958D01*
X139509Y124685D01*
X138900Y124312D01*
X138357Y123848D01*
X137893Y123305D01*
X137520Y122696D01*
X137247Y122036D01*
X137080Y121342D01*
X137024Y120630D01*
X137080Y119918D01*
X137247Y119224D01*
X137520Y118564D01*
X137893Y117955D01*
X138357Y117412D01*
X138575Y117226D01*
Y114034D01*
X138357Y113848D01*
X137893Y113305D01*
X137520Y112696D01*
X137247Y112036D01*
X137080Y111342D01*
X137024Y110630D01*
X137080Y109918D01*
X137247Y109224D01*
X137520Y108564D01*
X137893Y107955D01*
X138357Y107412D01*
X138900Y106948D01*
X139509Y106575D01*
X140168Y106302D01*
X140863Y106135D01*
X141568Y106079D01*
Y102744D01*
X131568Y92744D01*
Y106079D01*
X131575Y106079D01*
X132287Y106135D01*
X132981Y106302D01*
X133641Y106575D01*
X134250Y106948D01*
X134793Y107412D01*
X135257Y107955D01*
X135630Y108564D01*
X135903Y109224D01*
X136070Y109918D01*
X136112Y110630D01*
X136070Y111342D01*
X135903Y112036D01*
X135630Y112696D01*
X135257Y113305D01*
X134793Y113848D01*
X134575Y114034D01*
Y117226D01*
X134793Y117412D01*
X135257Y117955D01*
X135630Y118564D01*
X135903Y119224D01*
X136070Y119918D01*
X136112Y120630D01*
X136070Y121342D01*
X135903Y122036D01*
X135630Y122696D01*
X135257Y123305D01*
X134793Y123848D01*
X134250Y124312D01*
X133641Y124685D01*
X132981Y124958D01*
X132287Y125125D01*
X131575Y125181D01*
X131568Y125180D01*
Y129331D01*
G37*
G36*
X101568Y36011D02*X101682Y36144D01*
X101912Y36520D01*
X102081Y36927D01*
X102184Y37356D01*
X102209Y37795D01*
X102184Y38235D01*
X102081Y38663D01*
X101912Y39070D01*
X101682Y39446D01*
X101568Y39579D01*
Y40420D01*
X101692Y40275D01*
X101737Y40236D01*
X107953Y34020D01*
X107991Y33975D01*
X108171Y33822D01*
X108372Y33699D01*
X108590Y33608D01*
X108820Y33553D01*
X109055Y33535D01*
X109114Y33539D01*
X114564D01*
X114657Y33388D01*
X114943Y33053D01*
X115278Y32767D01*
X115654Y32537D01*
X116061Y32368D01*
X116490Y32265D01*
X116929Y32231D01*
X117368Y32265D01*
X117797Y32368D01*
X118204Y32537D01*
X118580Y32767D01*
X118915Y33053D01*
X119201Y33388D01*
X119432Y33764D01*
X119600Y34171D01*
X119703Y34600D01*
X119729Y35039D01*
X119703Y35479D01*
X119600Y35907D01*
X119432Y36314D01*
X119201Y36690D01*
X118915Y37025D01*
X118580Y37312D01*
X118204Y37542D01*
X117797Y37711D01*
X117368Y37813D01*
X116929Y37848D01*
X116490Y37813D01*
X116061Y37711D01*
X115654Y37542D01*
X115278Y37312D01*
X114943Y37025D01*
X114657Y36690D01*
X114564Y36539D01*
X109676D01*
X104256Y41960D01*
Y46229D01*
X113864Y55838D01*
X113870Y55829D01*
X114156Y55494D01*
X114491Y55208D01*
X114867Y54978D01*
X115274Y54809D01*
X115702Y54706D01*
X116142Y54672D01*
X116581Y54706D01*
X117010Y54809D01*
X117417Y54978D01*
X117793Y55208D01*
X118128Y55494D01*
X118414Y55829D01*
X118644Y56205D01*
X118813Y56612D01*
X118916Y57041D01*
X118942Y57480D01*
X118916Y57920D01*
X118813Y58348D01*
X118644Y58755D01*
X118414Y59131D01*
X118128Y59466D01*
X117793Y59753D01*
X117417Y59983D01*
X117010Y60151D01*
X116581Y60254D01*
X116142Y60289D01*
X115702Y60254D01*
X115274Y60151D01*
X114867Y59983D01*
X114491Y59753D01*
X114156Y59466D01*
X113870Y59131D01*
X113777Y58980D01*
X113445D01*
X113386Y58985D01*
X113150Y58966D01*
X112921Y58911D01*
X112703Y58821D01*
X112501Y58698D01*
X112501Y58697D01*
X112322Y58544D01*
X112284Y58499D01*
X101737Y47953D01*
X101692Y47914D01*
X101568Y47769D01*
Y49643D01*
X122516Y70591D01*
Y67719D01*
X122365Y67627D01*
X122030Y67340D01*
X121744Y67005D01*
X121513Y66629D01*
X121345Y66222D01*
X121242Y65794D01*
X121207Y65354D01*
X121242Y64915D01*
X121345Y64486D01*
X121513Y64079D01*
X121744Y63703D01*
X122030Y63368D01*
X122365Y63082D01*
X122741Y62852D01*
X123148Y62683D01*
X123576Y62580D01*
X124016Y62546D01*
X124455Y62580D01*
X124884Y62683D01*
X125291Y62852D01*
X125667Y63082D01*
X126002Y63368D01*
X126288Y63703D01*
X126518Y64079D01*
X126687Y64486D01*
X126790Y64915D01*
X126816Y65354D01*
X126790Y65794D01*
X126687Y66222D01*
X126518Y66629D01*
X126288Y67005D01*
X126002Y67340D01*
X125667Y67627D01*
X125516Y67719D01*
Y82450D01*
X131568Y88502D01*
Y50811D01*
X114937D01*
X114840Y50894D01*
X114464Y51125D01*
X114057Y51293D01*
X113628Y51396D01*
X113189Y51431D01*
X112750Y51396D01*
X112321Y51293D01*
X111914Y51125D01*
X111538Y50894D01*
X111203Y50608D01*
X110917Y50273D01*
X110686Y49897D01*
X110518Y49490D01*
X110415Y49061D01*
X110380Y48622D01*
X110415Y48183D01*
X110518Y47754D01*
X110686Y47347D01*
X110917Y46971D01*
X111203Y46636D01*
X111538Y46350D01*
X111914Y46120D01*
X112321Y45951D01*
X112576Y45890D01*
X109648D01*
X109556Y46041D01*
X109269Y46376D01*
X108934Y46662D01*
X108559Y46892D01*
X108151Y47061D01*
X107723Y47164D01*
X107283Y47198D01*
X106844Y47164D01*
X106416Y47061D01*
X106008Y46892D01*
X105633Y46662D01*
X105297Y46376D01*
X105011Y46041D01*
X104781Y45665D01*
X104612Y45258D01*
X104509Y44829D01*
X104475Y44390D01*
X104509Y43950D01*
X104612Y43522D01*
X104781Y43115D01*
X105011Y42739D01*
X105297Y42404D01*
X105633Y42118D01*
X106008Y41887D01*
X106416Y41719D01*
X106844Y41616D01*
X107283Y41581D01*
X107723Y41616D01*
X108151Y41719D01*
X108559Y41887D01*
X108934Y42118D01*
X109269Y42404D01*
X109556Y42739D01*
X109648Y42890D01*
X131568D01*
Y40969D01*
X130479D01*
X130458Y41021D01*
X130408Y41102D01*
X130347Y41174D01*
X130275Y41235D01*
X130194Y41284D01*
X130107Y41320D01*
X130015Y41342D01*
X129921Y41348D01*
X121953Y41342D01*
X121861Y41320D01*
X121774Y41284D01*
X121693Y41235D01*
X121622Y41174D01*
X121560Y41102D01*
X121511Y41021D01*
X121489Y40969D01*
X113585D01*
X113493Y41119D01*
X113206Y41455D01*
X112871Y41741D01*
X112496Y41971D01*
X112088Y42140D01*
X111660Y42243D01*
X111220Y42277D01*
X110781Y42243D01*
X110353Y42140D01*
X109945Y41971D01*
X109570Y41741D01*
X109234Y41455D01*
X108948Y41119D01*
X108718Y40744D01*
X108549Y40336D01*
X108446Y39908D01*
X108412Y39469D01*
X108446Y39029D01*
X108549Y38601D01*
X108718Y38193D01*
X108948Y37818D01*
X109234Y37482D01*
X109570Y37196D01*
X109945Y36966D01*
X110353Y36797D01*
X110781Y36694D01*
X111220Y36660D01*
X111660Y36694D01*
X112088Y36797D01*
X112496Y36966D01*
X112871Y37196D01*
X113206Y37482D01*
X113493Y37818D01*
X113585Y37969D01*
X121449D01*
X121453Y32780D01*
X121475Y32688D01*
X121511Y32601D01*
X121560Y32520D01*
X121622Y32448D01*
X121693Y32387D01*
X121774Y32338D01*
X121861Y32302D01*
X121953Y32280D01*
X122047Y32274D01*
X130015Y32280D01*
X130107Y32302D01*
X130194Y32338D01*
X130275Y32387D01*
X130347Y32448D01*
X130408Y32520D01*
X130458Y32601D01*
X130494Y32688D01*
X130516Y32780D01*
X130521Y32874D01*
X130518Y37969D01*
X131568D01*
Y32171D01*
X101568D01*
Y36011D01*
G37*
G36*
Y129331D02*X131568D01*
Y125180D01*
X130863Y125125D01*
X130168Y124958D01*
X129509Y124685D01*
X128900Y124312D01*
X128357Y123848D01*
X127893Y123305D01*
X127520Y122696D01*
X127247Y122036D01*
X127080Y121342D01*
X127024Y120630D01*
X127080Y119918D01*
X127247Y119224D01*
X127520Y118564D01*
X127893Y117955D01*
X128357Y117412D01*
X128575Y117226D01*
Y114034D01*
X128357Y113848D01*
X127893Y113305D01*
X127520Y112696D01*
X127247Y112036D01*
X127080Y111342D01*
X127024Y110630D01*
X127080Y109918D01*
X127247Y109224D01*
X127520Y108564D01*
X127893Y107955D01*
X128357Y107412D01*
X128900Y106948D01*
X129509Y106575D01*
X130168Y106302D01*
X130863Y106135D01*
X131568Y106079D01*
Y92744D01*
X123075Y84251D01*
Y106340D01*
X123641Y106575D01*
X124250Y106948D01*
X124793Y107412D01*
X125257Y107955D01*
X125630Y108564D01*
X125903Y109224D01*
X126070Y109918D01*
X126112Y110630D01*
X126070Y111342D01*
X125903Y112036D01*
X125630Y112696D01*
X125257Y113305D01*
X124793Y113848D01*
X124575Y114034D01*
Y117226D01*
X124793Y117412D01*
X125257Y117955D01*
X125630Y118564D01*
X125903Y119224D01*
X126070Y119918D01*
X126112Y120630D01*
X126070Y121342D01*
X125903Y122036D01*
X125630Y122696D01*
X125257Y123305D01*
X124793Y123848D01*
X124250Y124312D01*
X123641Y124685D01*
X122981Y124958D01*
X122287Y125125D01*
X121575Y125181D01*
X120863Y125125D01*
X120168Y124958D01*
X119509Y124685D01*
X118900Y124312D01*
X118357Y123848D01*
X117893Y123305D01*
X117520Y122696D01*
X117247Y122036D01*
X117080Y121342D01*
X117024Y120630D01*
X117080Y119918D01*
X117247Y119224D01*
X117520Y118564D01*
X117893Y117955D01*
X118357Y117412D01*
X118575Y117226D01*
Y114034D01*
X118357Y113848D01*
X117893Y113305D01*
X117520Y112696D01*
X117247Y112036D01*
X117080Y111342D01*
X117024Y110630D01*
X117080Y109918D01*
X117247Y109224D01*
X117520Y108564D01*
X117893Y107955D01*
X118357Y107412D01*
X118900Y106948D01*
X119509Y106575D01*
X120075Y106340D01*
Y72393D01*
X101568Y53886D01*
Y55549D01*
X112240Y66221D01*
X112284Y66259D01*
X112438Y66438D01*
X112438Y66438D01*
X112561Y66640D01*
X112651Y66858D01*
X112707Y67087D01*
X112725Y67323D01*
X112720Y67382D01*
Y106239D01*
X112981Y106302D01*
X113641Y106575D01*
X114250Y106948D01*
X114793Y107412D01*
X115257Y107955D01*
X115630Y108564D01*
X115903Y109224D01*
X116070Y109918D01*
X116112Y110630D01*
X116070Y111342D01*
X115903Y112036D01*
X115630Y112696D01*
X115257Y113305D01*
X114793Y113848D01*
X114575Y114034D01*
Y117226D01*
X114793Y117412D01*
X115257Y117955D01*
X115630Y118564D01*
X115903Y119224D01*
X116070Y119918D01*
X116112Y120630D01*
X116070Y121342D01*
X115903Y122036D01*
X115630Y122696D01*
X115257Y123305D01*
X114793Y123848D01*
X114250Y124312D01*
X113641Y124685D01*
X112981Y124958D01*
X112287Y125125D01*
X111575Y125181D01*
X110863Y125125D01*
X110168Y124958D01*
X109509Y124685D01*
X108900Y124312D01*
X108357Y123848D01*
X107893Y123305D01*
X107520Y122696D01*
X107247Y122036D01*
X107080Y121342D01*
X107024Y120630D01*
X107080Y119918D01*
X107247Y119224D01*
X107520Y118564D01*
X107893Y117955D01*
X108357Y117412D01*
X108575Y117226D01*
Y114034D01*
X108357Y113848D01*
X107893Y113305D01*
X107520Y112696D01*
X107247Y112036D01*
X107080Y111342D01*
X107024Y110630D01*
X107080Y109918D01*
X107247Y109224D01*
X107520Y108564D01*
X107893Y107955D01*
X108357Y107412D01*
X108900Y106948D01*
X109509Y106575D01*
X109720Y106487D01*
Y67944D01*
X101568Y59791D01*
Y106079D01*
X101575Y106079D01*
X102287Y106135D01*
X102981Y106302D01*
X103641Y106575D01*
X104250Y106948D01*
X104793Y107412D01*
X105257Y107955D01*
X105630Y108564D01*
X105903Y109224D01*
X106070Y109918D01*
X106112Y110630D01*
X106070Y111342D01*
X105903Y112036D01*
X105630Y112696D01*
X105257Y113305D01*
X104793Y113848D01*
X104575Y114034D01*
Y117226D01*
X104793Y117412D01*
X105257Y117955D01*
X105630Y118564D01*
X105903Y119224D01*
X106070Y119918D01*
X106112Y120630D01*
X106070Y121342D01*
X105903Y122036D01*
X105630Y122696D01*
X105257Y123305D01*
X104793Y123848D01*
X104250Y124312D01*
X103641Y124685D01*
X102981Y124958D01*
X102287Y125125D01*
X101575Y125181D01*
X101568Y125180D01*
Y129331D01*
G37*
G36*
Y47769D02*X101539Y47735D01*
X101415Y47533D01*
X101325Y47315D01*
X101270Y47086D01*
X101270Y47085D01*
X101251Y46850D01*
X101256Y46792D01*
Y44822D01*
X101060Y44989D01*
X100909Y45081D01*
Y48985D01*
X101568Y49643D01*
Y47769D01*
G37*
G36*
Y39579D02*X101395Y39781D01*
X101060Y40068D01*
X100753Y40256D01*
X101060Y40444D01*
X101387Y40723D01*
X101415Y40655D01*
X101539Y40454D01*
X101568Y40420D01*
Y39579D01*
G37*
G36*
Y53886D02*X98390Y50709D01*
X98346Y50670D01*
X98192Y50491D01*
X98069Y50289D01*
X97978Y50071D01*
X97923Y49842D01*
X97923Y49841D01*
X97905Y49606D01*
X97909Y49548D01*
Y45081D01*
X97759Y44989D01*
X97423Y44703D01*
X97137Y44367D01*
X96972Y44099D01*
Y50953D01*
X101568Y55549D01*
Y53886D01*
G37*
G36*
X91568Y74173D02*X91732Y74160D01*
X92172Y74194D01*
X92600Y74297D01*
X93007Y74466D01*
X93383Y74696D01*
X93718Y74982D01*
X94005Y75318D01*
X94235Y75693D01*
X94403Y76101D01*
X94506Y76529D01*
X94532Y76969D01*
X94506Y77408D01*
X94465Y77580D01*
X98263Y81378D01*
X98308Y81416D01*
X98461Y81596D01*
X98461Y81596D01*
X98585Y81797D01*
X98675Y82015D01*
X98730Y82245D01*
X98749Y82480D01*
X98744Y82539D01*
Y98170D01*
X98749Y98228D01*
X98730Y98464D01*
X98730Y98464D01*
X98675Y98693D01*
X98585Y98911D01*
X98461Y99113D01*
X98308Y99292D01*
X98263Y99331D01*
X92441Y105153D01*
X92403Y105198D01*
X92223Y105351D01*
X92022Y105474D01*
X91804Y105565D01*
X91574Y105620D01*
X91568Y105620D01*
Y106079D01*
X91575Y106079D01*
X92287Y106135D01*
X92981Y106302D01*
X93641Y106575D01*
X94250Y106948D01*
X94793Y107412D01*
X95257Y107955D01*
X95630Y108564D01*
X95903Y109224D01*
X96070Y109918D01*
X96112Y110630D01*
X96070Y111342D01*
X95903Y112036D01*
X95630Y112696D01*
X95257Y113305D01*
X94793Y113848D01*
X94575Y114034D01*
Y117226D01*
X94793Y117412D01*
X95257Y117955D01*
X95630Y118564D01*
X95903Y119224D01*
X96070Y119918D01*
X96112Y120630D01*
X96070Y121342D01*
X95903Y122036D01*
X95630Y122696D01*
X95257Y123305D01*
X94793Y123848D01*
X94250Y124312D01*
X93641Y124685D01*
X92981Y124958D01*
X92287Y125125D01*
X91575Y125181D01*
X91568Y125180D01*
Y129331D01*
X101568D01*
Y125180D01*
X100863Y125125D01*
X100168Y124958D01*
X99509Y124685D01*
X98900Y124312D01*
X98357Y123848D01*
X97893Y123305D01*
X97520Y122696D01*
X97247Y122036D01*
X97080Y121342D01*
X97024Y120630D01*
X97080Y119918D01*
X97247Y119224D01*
X97520Y118564D01*
X97893Y117955D01*
X98357Y117412D01*
X98575Y117226D01*
Y114034D01*
X98357Y113848D01*
X97893Y113305D01*
X97520Y112696D01*
X97247Y112036D01*
X97080Y111342D01*
X97024Y110630D01*
X97080Y109918D01*
X97247Y109224D01*
X97520Y108564D01*
X97893Y107955D01*
X98357Y107412D01*
X98900Y106948D01*
X99509Y106575D01*
X100168Y106302D01*
X100863Y106135D01*
X101568Y106079D01*
Y59791D01*
X94453Y52677D01*
X94409Y52639D01*
X94255Y52459D01*
X94132Y52258D01*
X94041Y52040D01*
X93986Y51810D01*
X93986Y51810D01*
X93968Y51575D01*
X93972Y51516D01*
Y41791D01*
X93968Y41732D01*
X93986Y41497D01*
X94041Y41267D01*
X94132Y41049D01*
X94255Y40848D01*
X94255Y40848D01*
X94409Y40668D01*
X94453Y40630D01*
X96677Y38407D01*
X96635Y38235D01*
X96601Y37795D01*
X96635Y37356D01*
X96738Y36927D01*
X96907Y36520D01*
X97137Y36144D01*
X97423Y35809D01*
X97759Y35523D01*
X98134Y35293D01*
X98542Y35124D01*
X98970Y35021D01*
X99409Y34987D01*
X99849Y35021D01*
X100277Y35124D01*
X100685Y35293D01*
X101060Y35523D01*
X101395Y35809D01*
X101568Y36011D01*
Y32171D01*
X91568D01*
Y74173D01*
G37*
G36*
Y105620D02*X91339Y105638D01*
X91280Y105634D01*
X81568D01*
Y106079D01*
X81575Y106079D01*
X82287Y106135D01*
X82981Y106302D01*
X83641Y106575D01*
X84250Y106948D01*
X84793Y107412D01*
X85257Y107955D01*
X85630Y108564D01*
X85903Y109224D01*
X86070Y109918D01*
X86112Y110630D01*
X86070Y111342D01*
X85903Y112036D01*
X85630Y112696D01*
X85257Y113305D01*
X84793Y113848D01*
X84575Y114034D01*
Y117226D01*
X84793Y117412D01*
X85257Y117955D01*
X85630Y118564D01*
X85903Y119224D01*
X86070Y119918D01*
X86112Y120630D01*
X86070Y121342D01*
X85903Y122036D01*
X85630Y122696D01*
X85257Y123305D01*
X84793Y123848D01*
X84250Y124312D01*
X83641Y124685D01*
X82981Y124958D01*
X82287Y125125D01*
X81575Y125181D01*
X81568Y125180D01*
Y129331D01*
X91568D01*
Y125180D01*
X90863Y125125D01*
X90168Y124958D01*
X89509Y124685D01*
X88900Y124312D01*
X88357Y123848D01*
X87893Y123305D01*
X87520Y122696D01*
X87247Y122036D01*
X87080Y121342D01*
X87024Y120630D01*
X87080Y119918D01*
X87247Y119224D01*
X87520Y118564D01*
X87893Y117955D01*
X88357Y117412D01*
X88575Y117226D01*
Y114034D01*
X88357Y113848D01*
X87893Y113305D01*
X87520Y112696D01*
X87247Y112036D01*
X87080Y111342D01*
X87024Y110630D01*
X87080Y109918D01*
X87247Y109224D01*
X87520Y108564D01*
X87893Y107955D01*
X88357Y107412D01*
X88900Y106948D01*
X89509Y106575D01*
X90168Y106302D01*
X90863Y106135D01*
X91568Y106079D01*
Y105620D01*
G37*
G36*
X81568Y105634D02*X71568D01*
Y106079D01*
X71575Y106079D01*
X72287Y106135D01*
X72981Y106302D01*
X73641Y106575D01*
X74250Y106948D01*
X74793Y107412D01*
X75257Y107955D01*
X75630Y108564D01*
X75903Y109224D01*
X76070Y109918D01*
X76112Y110630D01*
X76070Y111342D01*
X75903Y112036D01*
X75630Y112696D01*
X75257Y113305D01*
X74793Y113848D01*
X74575Y114034D01*
Y117226D01*
X74793Y117412D01*
X75257Y117955D01*
X75630Y118564D01*
X75903Y119224D01*
X76070Y119918D01*
X76112Y120630D01*
X76070Y121342D01*
X75903Y122036D01*
X75630Y122696D01*
X75257Y123305D01*
X74793Y123848D01*
X74250Y124312D01*
X73641Y124685D01*
X72981Y124958D01*
X72287Y125125D01*
X71575Y125181D01*
X71568Y125180D01*
Y129331D01*
X81568D01*
Y125180D01*
X80863Y125125D01*
X80168Y124958D01*
X79509Y124685D01*
X78900Y124312D01*
X78357Y123848D01*
X77893Y123305D01*
X77520Y122696D01*
X77247Y122036D01*
X77080Y121342D01*
X77024Y120630D01*
X77080Y119918D01*
X77247Y119224D01*
X77520Y118564D01*
X77893Y117955D01*
X78357Y117412D01*
X78575Y117226D01*
Y114034D01*
X78357Y113848D01*
X77893Y113305D01*
X77520Y112696D01*
X77247Y112036D01*
X77080Y111342D01*
X77024Y110630D01*
X77080Y109918D01*
X77247Y109224D01*
X77520Y108564D01*
X77893Y107955D01*
X78357Y107412D01*
X78900Y106948D01*
X79509Y106575D01*
X80168Y106302D01*
X80863Y106135D01*
X81568Y106079D01*
Y105634D01*
G37*
G36*
X71568Y57752D02*X85037D01*
X85129Y57601D01*
X85416Y57266D01*
X85751Y56980D01*
X86126Y56749D01*
X86534Y56581D01*
X86962Y56478D01*
X87402Y56443D01*
X87841Y56478D01*
X88269Y56581D01*
X88677Y56749D01*
X89052Y56980D01*
X89388Y57266D01*
X89674Y57601D01*
X89904Y57977D01*
X90073Y58384D01*
X90176Y58813D01*
X90202Y59252D01*
X90176Y59691D01*
X90073Y60120D01*
X89904Y60527D01*
X89674Y60903D01*
X89388Y61238D01*
X89052Y61524D01*
X88677Y61754D01*
X88269Y61923D01*
X87841Y62026D01*
X87402Y62061D01*
X86962Y62026D01*
X86534Y61923D01*
X86126Y61754D01*
X85751Y61524D01*
X85416Y61238D01*
X85129Y60903D01*
X85037Y60752D01*
X71568D01*
Y63343D01*
X71690Y63486D01*
X71690Y63486D01*
X71813Y63687D01*
X71903Y63905D01*
X71959Y64135D01*
X71977Y64370D01*
X71972Y64429D01*
Y68473D01*
X83692Y80193D01*
X89368D01*
X89460Y80042D01*
X89746Y79707D01*
X90081Y79421D01*
X90228Y79331D01*
X90081Y79241D01*
X89746Y78955D01*
X89460Y78619D01*
X89230Y78244D01*
X89061Y77836D01*
X88958Y77408D01*
X88924Y76969D01*
X88958Y76529D01*
X89061Y76101D01*
X89230Y75693D01*
X89460Y75318D01*
X89746Y74982D01*
X90081Y74696D01*
X90457Y74466D01*
X90864Y74297D01*
X91293Y74194D01*
X91568Y74173D01*
Y32171D01*
X78116D01*
X78049Y32280D01*
X77640Y32758D01*
X77162Y33167D01*
X76625Y33496D01*
X76043Y33737D01*
X75431Y33884D01*
X74803Y33934D01*
X74175Y33884D01*
X73563Y33737D01*
X72982Y33496D01*
X72445Y33167D01*
X71966Y32758D01*
X71568Y32292D01*
Y57752D01*
G37*
G36*
X141568Y2362D02*X121568D01*
Y6079D01*
X121575Y6079D01*
X122287Y6135D01*
X122981Y6302D01*
X123641Y6575D01*
X124250Y6948D01*
X124793Y7412D01*
X125257Y7955D01*
X125630Y8564D01*
X125903Y9224D01*
X126070Y9918D01*
X126112Y10630D01*
X126070Y11342D01*
X125903Y12036D01*
X125630Y12696D01*
X125257Y13305D01*
X124793Y13848D01*
X124575Y14034D01*
Y17226D01*
X124793Y17412D01*
X125257Y17955D01*
X125630Y18564D01*
X125903Y19224D01*
X126070Y19918D01*
X126112Y20630D01*
X126070Y21342D01*
X125903Y22036D01*
X125630Y22696D01*
X125257Y23305D01*
X124793Y23848D01*
X124250Y24312D01*
X123641Y24685D01*
X122981Y24958D01*
X122287Y25125D01*
X121575Y25181D01*
X121568Y25180D01*
Y27671D01*
X134754D01*
X134843Y27664D01*
X134931Y27671D01*
X136495D01*
X133547Y24724D01*
X132981Y24958D01*
X132287Y25125D01*
X131575Y25181D01*
X130863Y25125D01*
X130168Y24958D01*
X129509Y24685D01*
X128900Y24312D01*
X128357Y23848D01*
X127893Y23305D01*
X127520Y22696D01*
X127247Y22036D01*
X127080Y21342D01*
X127024Y20630D01*
X127080Y19918D01*
X127247Y19224D01*
X127520Y18564D01*
X127893Y17955D01*
X128357Y17412D01*
X128575Y17226D01*
Y14034D01*
X128357Y13848D01*
X127893Y13305D01*
X127520Y12696D01*
X127247Y12036D01*
X127080Y11342D01*
X127024Y10630D01*
X127080Y9918D01*
X127247Y9224D01*
X127520Y8564D01*
X127893Y7955D01*
X128357Y7412D01*
X128900Y6948D01*
X129509Y6575D01*
X130168Y6302D01*
X130863Y6135D01*
X131575Y6079D01*
X132287Y6135D01*
X132981Y6302D01*
X133641Y6575D01*
X134250Y6948D01*
X134793Y7412D01*
X135257Y7955D01*
X135630Y8564D01*
X135903Y9224D01*
X136070Y9918D01*
X136112Y10630D01*
X136070Y11342D01*
X135903Y12036D01*
X135630Y12696D01*
X135257Y13305D01*
X134793Y13848D01*
X134575Y14034D01*
Y17226D01*
X134793Y17412D01*
X135257Y17955D01*
X135630Y18564D01*
X135903Y19224D01*
X136070Y19918D01*
X136112Y20630D01*
X136070Y21342D01*
X135903Y22036D01*
X135669Y22602D01*
X138535Y25469D01*
X141568D01*
Y25180D01*
X140863Y25125D01*
X140168Y24958D01*
X139509Y24685D01*
X138900Y24312D01*
X138357Y23848D01*
X137893Y23305D01*
X137520Y22696D01*
X137247Y22036D01*
X137080Y21342D01*
X137024Y20630D01*
X137080Y19918D01*
X137247Y19224D01*
X137520Y18564D01*
X137893Y17955D01*
X138357Y17412D01*
X138575Y17226D01*
Y14034D01*
X138357Y13848D01*
X137893Y13305D01*
X137520Y12696D01*
X137247Y12036D01*
X137080Y11342D01*
X137024Y10630D01*
X137080Y9918D01*
X137247Y9224D01*
X137520Y8564D01*
X137893Y7955D01*
X138357Y7412D01*
X138900Y6948D01*
X139509Y6575D01*
X140168Y6302D01*
X140863Y6135D01*
X141568Y6079D01*
Y2362D01*
G37*
G36*
X121568D02*X111568D01*
Y6079D01*
X111575Y6079D01*
X112287Y6135D01*
X112981Y6302D01*
X113641Y6575D01*
X114250Y6948D01*
X114793Y7412D01*
X115257Y7955D01*
X115630Y8564D01*
X115903Y9224D01*
X116070Y9918D01*
X116112Y10630D01*
X116070Y11342D01*
X115903Y12036D01*
X115630Y12696D01*
X115257Y13305D01*
X114793Y13848D01*
X114575Y14034D01*
Y17226D01*
X114793Y17412D01*
X115257Y17955D01*
X115630Y18564D01*
X115903Y19224D01*
X116070Y19918D01*
X116112Y20630D01*
X116070Y21342D01*
X115903Y22036D01*
X115630Y22696D01*
X115257Y23305D01*
X114793Y23848D01*
X114250Y24312D01*
X113641Y24685D01*
X112981Y24958D01*
X112287Y25125D01*
X111575Y25181D01*
X111568Y25180D01*
Y27671D01*
X121568D01*
Y25180D01*
X120863Y25125D01*
X120168Y24958D01*
X119509Y24685D01*
X118900Y24312D01*
X118357Y23848D01*
X117893Y23305D01*
X117520Y22696D01*
X117247Y22036D01*
X117080Y21342D01*
X117024Y20630D01*
X117080Y19918D01*
X117247Y19224D01*
X117520Y18564D01*
X117893Y17955D01*
X118357Y17412D01*
X118575Y17226D01*
Y14034D01*
X118357Y13848D01*
X117893Y13305D01*
X117520Y12696D01*
X117247Y12036D01*
X117080Y11342D01*
X117024Y10630D01*
X117080Y9918D01*
X117247Y9224D01*
X117520Y8564D01*
X117893Y7955D01*
X118357Y7412D01*
X118900Y6948D01*
X119509Y6575D01*
X120168Y6302D01*
X120863Y6135D01*
X121568Y6079D01*
Y2362D01*
G37*
G36*
X111568D02*X101568D01*
Y6079D01*
X101575Y6079D01*
X102287Y6135D01*
X102981Y6302D01*
X103641Y6575D01*
X104250Y6948D01*
X104793Y7412D01*
X105257Y7955D01*
X105630Y8564D01*
X105903Y9224D01*
X106070Y9918D01*
X106112Y10630D01*
X106070Y11342D01*
X105903Y12036D01*
X105630Y12696D01*
X105257Y13305D01*
X104793Y13848D01*
X104575Y14034D01*
Y17226D01*
X104793Y17412D01*
X105257Y17955D01*
X105630Y18564D01*
X105903Y19224D01*
X106070Y19918D01*
X106112Y20630D01*
X106070Y21342D01*
X105903Y22036D01*
X105630Y22696D01*
X105257Y23305D01*
X104793Y23848D01*
X104250Y24312D01*
X103641Y24685D01*
X102981Y24958D01*
X102287Y25125D01*
X101575Y25181D01*
X101568Y25180D01*
Y27671D01*
X111568D01*
Y25180D01*
X110863Y25125D01*
X110168Y24958D01*
X109509Y24685D01*
X108900Y24312D01*
X108357Y23848D01*
X107893Y23305D01*
X107520Y22696D01*
X107247Y22036D01*
X107080Y21342D01*
X107024Y20630D01*
X107080Y19918D01*
X107247Y19224D01*
X107520Y18564D01*
X107893Y17955D01*
X108357Y17412D01*
X108575Y17226D01*
Y14034D01*
X108357Y13848D01*
X107893Y13305D01*
X107520Y12696D01*
X107247Y12036D01*
X107080Y11342D01*
X107024Y10630D01*
X107080Y9918D01*
X107247Y9224D01*
X107520Y8564D01*
X107893Y7955D01*
X108357Y7412D01*
X108900Y6948D01*
X109509Y6575D01*
X110168Y6302D01*
X110863Y6135D01*
X111568Y6079D01*
Y2362D01*
G37*
G36*
X101568D02*X91568D01*
Y6079D01*
X91575Y6079D01*
X92287Y6135D01*
X92981Y6302D01*
X93641Y6575D01*
X94250Y6948D01*
X94793Y7412D01*
X95257Y7955D01*
X95630Y8564D01*
X95903Y9224D01*
X96070Y9918D01*
X96112Y10630D01*
X96070Y11342D01*
X95903Y12036D01*
X95630Y12696D01*
X95257Y13305D01*
X94793Y13848D01*
X94575Y14034D01*
Y17226D01*
X94793Y17412D01*
X95257Y17955D01*
X95630Y18564D01*
X95903Y19224D01*
X96070Y19918D01*
X96112Y20630D01*
X96070Y21342D01*
X95903Y22036D01*
X95630Y22696D01*
X95257Y23305D01*
X94793Y23848D01*
X94250Y24312D01*
X93641Y24685D01*
X92981Y24958D01*
X92287Y25125D01*
X91575Y25181D01*
X91568Y25180D01*
Y27671D01*
X101568D01*
Y25180D01*
X100863Y25125D01*
X100168Y24958D01*
X99509Y24685D01*
X98900Y24312D01*
X98357Y23848D01*
X97893Y23305D01*
X97520Y22696D01*
X97247Y22036D01*
X97080Y21342D01*
X97024Y20630D01*
X97080Y19918D01*
X97247Y19224D01*
X97520Y18564D01*
X97893Y17955D01*
X98357Y17412D01*
X98575Y17226D01*
Y14034D01*
X98357Y13848D01*
X97893Y13305D01*
X97520Y12696D01*
X97247Y12036D01*
X97080Y11342D01*
X97024Y10630D01*
X97080Y9918D01*
X97247Y9224D01*
X97520Y8564D01*
X97893Y7955D01*
X98357Y7412D01*
X98900Y6948D01*
X99509Y6575D01*
X100168Y6302D01*
X100863Y6135D01*
X101568Y6079D01*
Y2362D01*
G37*
G36*
X91568D02*X81568D01*
Y6079D01*
X81575Y6079D01*
X82287Y6135D01*
X82981Y6302D01*
X83641Y6575D01*
X84250Y6948D01*
X84793Y7412D01*
X85257Y7955D01*
X85630Y8564D01*
X85903Y9224D01*
X86070Y9918D01*
X86112Y10630D01*
X86070Y11342D01*
X85903Y12036D01*
X85630Y12696D01*
X85257Y13305D01*
X84793Y13848D01*
X84575Y14034D01*
Y17226D01*
X84793Y17412D01*
X85257Y17955D01*
X85630Y18564D01*
X85903Y19224D01*
X86070Y19918D01*
X86112Y20630D01*
X86070Y21342D01*
X85903Y22036D01*
X85630Y22696D01*
X85257Y23305D01*
X84793Y23848D01*
X84250Y24312D01*
X83641Y24685D01*
X82981Y24958D01*
X82287Y25125D01*
X81575Y25181D01*
X81568Y25180D01*
Y27671D01*
X91568D01*
Y25180D01*
X90863Y25125D01*
X90168Y24958D01*
X89509Y24685D01*
X88900Y24312D01*
X88357Y23848D01*
X87893Y23305D01*
X87520Y22696D01*
X87247Y22036D01*
X87080Y21342D01*
X87024Y20630D01*
X87080Y19918D01*
X87247Y19224D01*
X87520Y18564D01*
X87893Y17955D01*
X88357Y17412D01*
X88575Y17226D01*
Y14034D01*
X88357Y13848D01*
X87893Y13305D01*
X87520Y12696D01*
X87247Y12036D01*
X87080Y11342D01*
X87024Y10630D01*
X87080Y9918D01*
X87247Y9224D01*
X87520Y8564D01*
X87893Y7955D01*
X88357Y7412D01*
X88900Y6948D01*
X89509Y6575D01*
X90168Y6302D01*
X90863Y6135D01*
X91568Y6079D01*
Y2362D01*
G37*
G36*
X81568D02*X71568D01*
Y6079D01*
X71575Y6079D01*
X72287Y6135D01*
X72981Y6302D01*
X73641Y6575D01*
X74250Y6948D01*
X74793Y7412D01*
X75257Y7955D01*
X75630Y8564D01*
X75903Y9224D01*
X76070Y9918D01*
X76112Y10630D01*
X76070Y11342D01*
X75903Y12036D01*
X75630Y12696D01*
X75257Y13305D01*
X74793Y13848D01*
X74575Y14034D01*
Y17226D01*
X74793Y17412D01*
X75257Y17955D01*
X75630Y18564D01*
X75903Y19224D01*
X76070Y19918D01*
X76112Y20630D01*
X76070Y21342D01*
X75903Y22036D01*
X75630Y22696D01*
X75257Y23305D01*
X74793Y23848D01*
X74250Y24312D01*
X73641Y24685D01*
X72981Y24958D01*
X72287Y25125D01*
X71575Y25181D01*
X71568Y25180D01*
Y27550D01*
X71966Y27084D01*
X72445Y26675D01*
X72982Y26346D01*
X73563Y26105D01*
X74175Y25958D01*
X74803Y25909D01*
X75431Y25958D01*
X76043Y26105D01*
X76625Y26346D01*
X77162Y26675D01*
X77640Y27084D01*
X78049Y27563D01*
X78116Y27671D01*
X81568D01*
Y25180D01*
X80863Y25125D01*
X80168Y24958D01*
X79509Y24685D01*
X78900Y24312D01*
X78357Y23848D01*
X77893Y23305D01*
X77520Y22696D01*
X77247Y22036D01*
X77080Y21342D01*
X77024Y20630D01*
X77080Y19918D01*
X77247Y19224D01*
X77520Y18564D01*
X77893Y17955D01*
X78357Y17412D01*
X78575Y17226D01*
Y14034D01*
X78357Y13848D01*
X77893Y13305D01*
X77520Y12696D01*
X77247Y12036D01*
X77080Y11342D01*
X77024Y10630D01*
X77080Y9918D01*
X77247Y9224D01*
X77520Y8564D01*
X77893Y7955D01*
X78357Y7412D01*
X78900Y6948D01*
X79509Y6575D01*
X80168Y6302D01*
X80863Y6135D01*
X81568Y6079D01*
Y2362D01*
G37*
G36*
X71568Y105634D02*X61568D01*
Y106079D01*
X61575Y106079D01*
X62287Y106135D01*
X62981Y106302D01*
X63641Y106575D01*
X64250Y106948D01*
X64793Y107412D01*
X65257Y107955D01*
X65630Y108564D01*
X65903Y109224D01*
X66070Y109918D01*
X66112Y110630D01*
X66070Y111342D01*
X65903Y112036D01*
X65630Y112696D01*
X65257Y113305D01*
X64793Y113848D01*
X64575Y114034D01*
Y117226D01*
X64793Y117412D01*
X65257Y117955D01*
X65630Y118564D01*
X65903Y119224D01*
X66070Y119918D01*
X66112Y120630D01*
X66070Y121342D01*
X65903Y122036D01*
X65630Y122696D01*
X65257Y123305D01*
X64793Y123848D01*
X64250Y124312D01*
X63641Y124685D01*
X62981Y124958D01*
X62287Y125125D01*
X61575Y125181D01*
X61568Y125180D01*
Y129331D01*
X71568D01*
Y125180D01*
X70863Y125125D01*
X70168Y124958D01*
X69509Y124685D01*
X68900Y124312D01*
X68357Y123848D01*
X67893Y123305D01*
X67520Y122696D01*
X67247Y122036D01*
X67080Y121342D01*
X67024Y120630D01*
X67080Y119918D01*
X67247Y119224D01*
X67520Y118564D01*
X67893Y117955D01*
X68357Y117412D01*
X68575Y117226D01*
Y114034D01*
X68357Y113848D01*
X67893Y113305D01*
X67520Y112696D01*
X67247Y112036D01*
X67080Y111342D01*
X67024Y110630D01*
X67080Y109918D01*
X67247Y109224D01*
X67520Y108564D01*
X67893Y107955D01*
X68357Y107412D01*
X68900Y106948D01*
X69509Y106575D01*
X70168Y106302D01*
X70863Y106135D01*
X71568Y106079D01*
Y105634D01*
G37*
G36*
Y60752D02*X70531D01*
X70472Y60757D01*
X70237Y60738D01*
X70007Y60683D01*
X69789Y60593D01*
X69588Y60469D01*
X69588Y60469D01*
X69409Y60316D01*
X69370Y60271D01*
X61583Y52484D01*
X61568D01*
Y53523D01*
X61707Y53581D01*
X61908Y53704D01*
X62088Y53857D01*
X62126Y53902D01*
X71491Y63268D01*
X71536Y63306D01*
X71568Y63343D01*
Y60752D01*
G37*
G36*
Y2362D02*X61568D01*
Y6079D01*
X61575Y6079D01*
X62287Y6135D01*
X62981Y6302D01*
X63641Y6575D01*
X64250Y6948D01*
X64793Y7412D01*
X65257Y7955D01*
X65630Y8564D01*
X65903Y9224D01*
X66070Y9918D01*
X66112Y10630D01*
X66070Y11342D01*
X65903Y12036D01*
X65630Y12696D01*
X65257Y13305D01*
X64793Y13848D01*
X64575Y14034D01*
Y17226D01*
X64793Y17412D01*
X65257Y17955D01*
X65630Y18564D01*
X65903Y19224D01*
X66070Y19918D01*
X66112Y20630D01*
X66070Y21342D01*
X65903Y22036D01*
X65630Y22696D01*
X65257Y23305D01*
X64793Y23848D01*
X64250Y24312D01*
X63641Y24685D01*
X62981Y24958D01*
X62287Y25125D01*
X61575Y25181D01*
X61568Y25180D01*
Y49484D01*
X62146D01*
X62205Y49480D01*
X62440Y49498D01*
X62440Y49498D01*
X62670Y49553D01*
X62888Y49644D01*
X63089Y49767D01*
X63269Y49920D01*
X63307Y49965D01*
X71094Y57752D01*
X71568D01*
Y32292D01*
X71557Y32280D01*
X71228Y31743D01*
X70987Y31161D01*
X70840Y30549D01*
X70791Y29921D01*
X70840Y29294D01*
X70987Y28681D01*
X71228Y28100D01*
X71557Y27563D01*
X71568Y27550D01*
Y25180D01*
X70863Y25125D01*
X70168Y24958D01*
X69509Y24685D01*
X68900Y24312D01*
X68357Y23848D01*
X67893Y23305D01*
X67520Y22696D01*
X67247Y22036D01*
X67080Y21342D01*
X67024Y20630D01*
X67080Y19918D01*
X67247Y19224D01*
X67520Y18564D01*
X67893Y17955D01*
X68357Y17412D01*
X68575Y17226D01*
Y14034D01*
X68357Y13848D01*
X67893Y13305D01*
X67520Y12696D01*
X67247Y12036D01*
X67080Y11342D01*
X67024Y10630D01*
X67080Y9918D01*
X67247Y9224D01*
X67520Y8564D01*
X67893Y7955D01*
X68357Y7412D01*
X68900Y6948D01*
X69509Y6575D01*
X70168Y6302D01*
X70863Y6135D01*
X71568Y6079D01*
Y2362D01*
G37*
G36*
X61568Y105634D02*X56496D01*
Y129331D01*
X61568D01*
Y125180D01*
X60863Y125125D01*
X60168Y124958D01*
X59509Y124685D01*
X58900Y124312D01*
X58357Y123848D01*
X57893Y123305D01*
X57520Y122696D01*
X57247Y122036D01*
X57080Y121342D01*
X57024Y120630D01*
X57080Y119918D01*
X57247Y119224D01*
X57520Y118564D01*
X57893Y117955D01*
X58357Y117412D01*
X58575Y117226D01*
Y114034D01*
X58357Y113848D01*
X57893Y113305D01*
X57520Y112696D01*
X57247Y112036D01*
X57080Y111342D01*
X57024Y110630D01*
X57080Y109918D01*
X57247Y109224D01*
X57520Y108564D01*
X57893Y107955D01*
X58357Y107412D01*
X58900Y106948D01*
X59509Y106575D01*
X60168Y106302D01*
X60863Y106135D01*
X61568Y106079D01*
Y105634D01*
G37*
G36*
Y52484D02*X56496D01*
Y53421D01*
X60965D01*
X61024Y53417D01*
X61259Y53435D01*
X61259Y53435D01*
X61259Y53435D01*
X61489Y53490D01*
X61568Y53523D01*
Y52484D01*
G37*
G36*
Y2362D02*X56496D01*
Y49484D01*
X61568D01*
Y25180D01*
X60863Y25125D01*
X60168Y24958D01*
X59509Y24685D01*
X58900Y24312D01*
X58357Y23848D01*
X57893Y23305D01*
X57520Y22696D01*
X57247Y22036D01*
X57080Y21342D01*
X57024Y20630D01*
X57080Y19918D01*
X57247Y19224D01*
X57520Y18564D01*
X57893Y17955D01*
X58357Y17412D01*
X58575Y17226D01*
Y14034D01*
X58357Y13848D01*
X57893Y13305D01*
X57520Y12696D01*
X57247Y12036D01*
X57080Y11342D01*
X57024Y10630D01*
X57080Y9918D01*
X57247Y9224D01*
X57520Y8564D01*
X57893Y7955D01*
X58357Y7412D01*
X58900Y6948D01*
X59509Y6575D01*
X60168Y6302D01*
X60863Y6135D01*
X61568Y6079D01*
Y2362D01*
G37*
G36*
X51568Y53421D02*X56496D01*
Y52484D01*
X51568D01*
Y53421D01*
G37*
G36*
Y97281D02*X52196Y97909D01*
X56496D01*
Y56421D01*
X51568D01*
Y97281D01*
G37*
G36*
Y129331D02*X56496D01*
Y105634D01*
X51568D01*
Y106079D01*
X51575Y106079D01*
X52287Y106135D01*
X52981Y106302D01*
X53641Y106575D01*
X54250Y106948D01*
X54793Y107412D01*
X55257Y107955D01*
X55630Y108564D01*
X55903Y109224D01*
X56070Y109918D01*
X56112Y110630D01*
X56070Y111342D01*
X55903Y112036D01*
X55630Y112696D01*
X55257Y113305D01*
X54793Y113848D01*
X54575Y114034D01*
Y117226D01*
X54793Y117412D01*
X55257Y117955D01*
X55630Y118564D01*
X55903Y119224D01*
X56070Y119918D01*
X56112Y120630D01*
X56070Y121342D01*
X55903Y122036D01*
X55630Y122696D01*
X55257Y123305D01*
X54793Y123848D01*
X54250Y124312D01*
X53641Y124685D01*
X52981Y124958D01*
X52287Y125125D01*
X51575Y125181D01*
X51568Y125180D01*
Y129331D01*
G37*
G36*
X56496Y2362D02*X51568D01*
Y6079D01*
X51575Y6079D01*
X52287Y6135D01*
X52981Y6302D01*
X53641Y6575D01*
X54250Y6948D01*
X54793Y7412D01*
X55257Y7955D01*
X55630Y8564D01*
X55903Y9224D01*
X56070Y9918D01*
X56112Y10630D01*
X56070Y11342D01*
X55903Y12036D01*
X55630Y12696D01*
X55257Y13305D01*
X54793Y13848D01*
X54575Y14034D01*
Y17226D01*
X54793Y17412D01*
X55257Y17955D01*
X55630Y18564D01*
X55903Y19224D01*
X56070Y19918D01*
X56112Y20630D01*
X56070Y21342D01*
X55903Y22036D01*
X55630Y22696D01*
X55257Y23305D01*
X54793Y23848D01*
X54250Y24312D01*
X53641Y24685D01*
X52981Y24958D01*
X52287Y25125D01*
X51575Y25181D01*
X51568Y25180D01*
Y49484D01*
X56496D01*
Y2362D01*
G37*
G36*
X21122Y63773D02*X23086Y63776D01*
X23178Y63798D01*
X23265Y63834D01*
X23346Y63883D01*
X23418Y63945D01*
X23479Y64016D01*
X23528Y64097D01*
X23565Y64184D01*
X23580Y64248D01*
X27528D01*
X37874Y53902D01*
X37912Y53857D01*
X38092Y53704D01*
X38293Y53581D01*
X38511Y53490D01*
X38741Y53435D01*
X38976Y53417D01*
X39035Y53421D01*
X51568D01*
Y52484D01*
X38613D01*
X37520Y53578D01*
X37481Y53623D01*
X37302Y53776D01*
X37100Y53900D01*
X36882Y53990D01*
X36653Y54045D01*
X36417Y54064D01*
X36359Y54059D01*
X21122D01*
Y59442D01*
X23086Y59445D01*
X23178Y59467D01*
X23265Y59503D01*
X23346Y59552D01*
X23418Y59614D01*
X23479Y59686D01*
X23528Y59766D01*
X23565Y59853D01*
X23587Y59945D01*
X23592Y60039D01*
X23587Y62889D01*
X23565Y62981D01*
X23528Y63069D01*
X23479Y63149D01*
X23418Y63221D01*
X23346Y63282D01*
X23265Y63332D01*
X23178Y63368D01*
X23086Y63390D01*
X22992Y63395D01*
X21122Y63393D01*
Y63773D01*
G37*
G36*
Y72434D02*X23086Y72437D01*
X23178Y72459D01*
X23265Y72495D01*
X23346Y72545D01*
X23418Y72606D01*
X23479Y72678D01*
X23500Y72713D01*
X23957D01*
X24016Y72708D01*
X24251Y72726D01*
X24251Y72726D01*
X24481Y72782D01*
X24699Y72872D01*
X24900Y72995D01*
X25080Y73149D01*
X25118Y73194D01*
X27003Y75079D01*
X27048Y75117D01*
X27201Y75296D01*
X27202Y75297D01*
X27325Y75498D01*
X27415Y75716D01*
X27470Y75946D01*
X27489Y76181D01*
X27484Y76240D01*
Y80905D01*
X27484Y80906D01*
Y83040D01*
X35661Y91217D01*
X44823D01*
X44882Y91212D01*
X45117Y91230D01*
X45117Y91230D01*
X45347Y91286D01*
X45565Y91376D01*
X45766Y91499D01*
X45946Y91653D01*
X45984Y91697D01*
X51568Y97281D01*
Y56421D01*
X39598D01*
X29252Y66767D01*
X29214Y66812D01*
X29034Y66965D01*
X28833Y67089D01*
X28615Y67179D01*
X28385Y67234D01*
X28150Y67253D01*
X28091Y67248D01*
X23580D01*
X23565Y67312D01*
X23528Y67399D01*
X23479Y67480D01*
X23418Y67552D01*
X23346Y67613D01*
X23265Y67662D01*
X23178Y67698D01*
X23086Y67720D01*
X22992Y67726D01*
X21122Y67723D01*
Y72434D01*
G37*
G36*
Y97150D02*X28968Y104996D01*
X45442D01*
X47323Y103115D01*
X47361Y103070D01*
X47541Y102917D01*
X47541Y102917D01*
X47742Y102793D01*
X47960Y102703D01*
X48190Y102648D01*
X48425Y102629D01*
X48484Y102634D01*
X48741D01*
X43867Y97760D01*
X33523D01*
X33465Y97764D01*
X33229Y97746D01*
X33000Y97691D01*
X32781Y97600D01*
X32580Y97477D01*
X32580Y97477D01*
X32401Y97324D01*
X32362Y97279D01*
X24182Y89098D01*
X23500D01*
X23479Y89133D01*
X23418Y89205D01*
X23346Y89266D01*
X23265Y89316D01*
X23178Y89352D01*
X23086Y89374D01*
X22992Y89380D01*
X21122Y89377D01*
Y89757D01*
X23086Y89760D01*
X23178Y89782D01*
X23265Y89818D01*
X23346Y89867D01*
X23418Y89929D01*
X23479Y90001D01*
X23528Y90081D01*
X23565Y90168D01*
X23587Y90260D01*
X23592Y90354D01*
X23587Y93204D01*
X23565Y93296D01*
X23528Y93383D01*
X23479Y93464D01*
X23418Y93536D01*
X23346Y93597D01*
X23265Y93646D01*
X23178Y93683D01*
X23086Y93705D01*
X22992Y93710D01*
X21122Y93708D01*
Y97150D01*
G37*
G36*
Y81096D02*X23086Y81098D01*
X23178Y81121D01*
X23265Y81157D01*
X23346Y81206D01*
X23418Y81267D01*
X23479Y81339D01*
X23528Y81420D01*
X23565Y81507D01*
X23587Y81599D01*
X23592Y81693D01*
X23587Y84543D01*
X23565Y84635D01*
X23528Y84722D01*
X23479Y84803D01*
X23418Y84874D01*
X23346Y84936D01*
X23265Y84985D01*
X23178Y85021D01*
X23086Y85043D01*
X22992Y85049D01*
X21122Y85046D01*
Y85426D01*
X23086Y85429D01*
X23178Y85451D01*
X23265Y85487D01*
X23346Y85537D01*
X23418Y85598D01*
X23479Y85670D01*
X23528Y85750D01*
X23565Y85838D01*
X23587Y85929D01*
X23592Y86024D01*
X23592Y86098D01*
X24744D01*
X24803Y86094D01*
X25038Y86112D01*
X25039Y86112D01*
X25268Y86167D01*
X25486Y86258D01*
X25688Y86381D01*
X25867Y86534D01*
X25905Y86579D01*
X34086Y94760D01*
X44429D01*
X44488Y94755D01*
X44723Y94774D01*
X44723Y94774D01*
X44724Y94774D01*
X44848Y94803D01*
X44261Y94217D01*
X35098D01*
X35039Y94221D01*
X34804Y94203D01*
X34574Y94148D01*
X34356Y94057D01*
X34155Y93934D01*
X34155Y93934D01*
X33975Y93780D01*
X33937Y93736D01*
X24965Y84764D01*
X24920Y84725D01*
X24767Y84546D01*
X24644Y84345D01*
X24553Y84126D01*
X24498Y83897D01*
X24498Y83896D01*
X24480Y83661D01*
X24484Y83603D01*
Y80906D01*
X24484Y80905D01*
Y76802D01*
X23582Y75900D01*
X23565Y75973D01*
X23528Y76061D01*
X23479Y76141D01*
X23418Y76213D01*
X23346Y76274D01*
X23265Y76324D01*
X23178Y76360D01*
X23086Y76382D01*
X22992Y76387D01*
X21122Y76385D01*
Y76765D01*
X23086Y76768D01*
X23178Y76790D01*
X23265Y76826D01*
X23346Y76875D01*
X23418Y76937D01*
X23479Y77008D01*
X23528Y77089D01*
X23565Y77176D01*
X23587Y77268D01*
X23592Y77362D01*
X23587Y80212D01*
X23565Y80304D01*
X23528Y80391D01*
X23479Y80472D01*
X23418Y80544D01*
X23346Y80605D01*
X23265Y80654D01*
X23178Y80691D01*
X23086Y80713D01*
X22992Y80718D01*
X21122Y80715D01*
Y81096D01*
G37*
G36*
Y129331D02*X51568D01*
Y125180D01*
X50863Y125125D01*
X50168Y124958D01*
X49509Y124685D01*
X48900Y124312D01*
X48357Y123848D01*
X47893Y123305D01*
X47520Y122696D01*
X47247Y122036D01*
X47080Y121342D01*
X47024Y120630D01*
X47080Y119918D01*
X47247Y119224D01*
X47520Y118564D01*
X47893Y117955D01*
X48357Y117412D01*
X48575Y117226D01*
Y114034D01*
X48357Y113848D01*
X47893Y113305D01*
X47520Y112696D01*
X47247Y112036D01*
X47080Y111342D01*
X47024Y110630D01*
X47080Y109918D01*
X47247Y109224D01*
X47520Y108564D01*
X47893Y107955D01*
X48357Y107412D01*
X48900Y106948D01*
X49509Y106575D01*
X50168Y106302D01*
X50863Y106135D01*
X51568Y106079D01*
Y105634D01*
X49047D01*
X47165Y107515D01*
X47127Y107560D01*
X46947Y107713D01*
X46746Y107837D01*
X46528Y107927D01*
X46298Y107982D01*
X46298Y107982D01*
X46063Y108001D01*
X46004Y107996D01*
X28405D01*
X28346Y108001D01*
X28111Y107982D01*
X27882Y107927D01*
X27663Y107837D01*
X27462Y107713D01*
X27462Y107713D01*
X27283Y107560D01*
X27244Y107515D01*
X21122Y101393D01*
Y129331D01*
G37*
G36*
X51568Y2362D02*X21122D01*
Y4362D01*
X35685Y4366D01*
X35777Y4388D01*
X35864Y4424D01*
X35944Y4474D01*
X36016Y4535D01*
X36077Y4607D01*
X36127Y4687D01*
X36163Y4775D01*
X36185Y4866D01*
X36191Y4961D01*
X36185Y14563D01*
X36163Y14654D01*
X36127Y14742D01*
X36077Y14822D01*
X36016Y14894D01*
X35944Y14955D01*
X35864Y15005D01*
X35777Y15041D01*
X35685Y15063D01*
X35591Y15069D01*
X21122Y15065D01*
Y38870D01*
X35685Y38874D01*
X35777Y38896D01*
X35864Y38932D01*
X35944Y38982D01*
X36016Y39043D01*
X36077Y39115D01*
X36127Y39195D01*
X36163Y39283D01*
X36185Y39374D01*
X36191Y39469D01*
X36185Y49071D01*
X36163Y49162D01*
X36127Y49250D01*
X36077Y49330D01*
X36016Y49402D01*
X35944Y49463D01*
X35864Y49513D01*
X35777Y49549D01*
X35685Y49571D01*
X35591Y49576D01*
X21122Y49572D01*
Y51059D01*
X35796D01*
X36890Y49965D01*
X36928Y49920D01*
X37108Y49767D01*
X37108Y49767D01*
X37309Y49644D01*
X37527Y49553D01*
X37757Y49498D01*
X37992Y49480D01*
X38051Y49484D01*
X51568D01*
Y25180D01*
X50863Y25125D01*
X50168Y24958D01*
X49509Y24685D01*
X48900Y24312D01*
X48357Y23848D01*
X47893Y23305D01*
X47520Y22696D01*
X47247Y22036D01*
X47080Y21342D01*
X47024Y20630D01*
X47080Y19918D01*
X47247Y19224D01*
X47520Y18564D01*
X47893Y17955D01*
X48357Y17412D01*
X48575Y17226D01*
Y14034D01*
X48357Y13848D01*
X47893Y13305D01*
X47520Y12696D01*
X47247Y12036D01*
X47080Y11342D01*
X47024Y10630D01*
X47080Y9918D01*
X47247Y9224D01*
X47520Y8564D01*
X47893Y7955D01*
X48357Y7412D01*
X48900Y6948D01*
X49509Y6575D01*
X50168Y6302D01*
X50863Y6135D01*
X51568Y6079D01*
Y2362D01*
G37*
G36*
X21122Y76385D02*X19158Y76382D01*
X19066Y76360D01*
X18979Y76324D01*
X18898Y76274D01*
X18826Y76213D01*
X18765Y76141D01*
X18716Y76061D01*
X18680Y75973D01*
X18658Y75882D01*
X18652Y75787D01*
X18658Y72937D01*
X18680Y72846D01*
X18716Y72758D01*
X18765Y72678D01*
X18826Y72606D01*
X18898Y72545D01*
X18979Y72495D01*
X19066Y72459D01*
X19158Y72437D01*
X19252Y72431D01*
X21122Y72434D01*
Y67723D01*
X19158Y67720D01*
X19066Y67698D01*
X18979Y67662D01*
X18898Y67613D01*
X18826Y67552D01*
X18765Y67480D01*
X18716Y67399D01*
X18680Y67312D01*
X18658Y67220D01*
X18652Y67126D01*
X18658Y64276D01*
X18680Y64184D01*
X18716Y64097D01*
X18765Y64016D01*
X18826Y63945D01*
X18898Y63883D01*
X18979Y63834D01*
X19066Y63798D01*
X19158Y63776D01*
X19252Y63770D01*
X21122Y63773D01*
Y63393D01*
X19158Y63390D01*
X19066Y63368D01*
X18979Y63332D01*
X18898Y63282D01*
X18826Y63221D01*
X18765Y63149D01*
X18716Y63069D01*
X18680Y62981D01*
X18658Y62889D01*
X18652Y62795D01*
X18658Y59945D01*
X18680Y59853D01*
X18716Y59766D01*
X18765Y59686D01*
X18826Y59614D01*
X18898Y59552D01*
X18979Y59503D01*
X19066Y59467D01*
X19158Y59445D01*
X19252Y59439D01*
X21122Y59442D01*
Y54059D01*
X10070D01*
X8980Y55149D01*
Y71623D01*
X14795Y77437D01*
X18657D01*
X18658Y77268D01*
X18680Y77176D01*
X18716Y77089D01*
X18765Y77008D01*
X18826Y76937D01*
X18898Y76875D01*
X18979Y76826D01*
X19066Y76790D01*
X19158Y76768D01*
X19252Y76762D01*
X21122Y76765D01*
Y76385D01*
G37*
G36*
Y85046D02*X19158Y85043D01*
X19066Y85021D01*
X18979Y84985D01*
X18898Y84936D01*
X18826Y84874D01*
X18765Y84803D01*
X18744Y84768D01*
X17944D01*
X17248Y85464D01*
Y93276D01*
X21122Y97150D01*
Y93708D01*
X19158Y93705D01*
X19066Y93683D01*
X18979Y93646D01*
X18898Y93597D01*
X18826Y93536D01*
X18765Y93464D01*
X18716Y93383D01*
X18680Y93296D01*
X18658Y93204D01*
X18652Y93110D01*
X18658Y90260D01*
X18680Y90168D01*
X18716Y90081D01*
X18765Y90001D01*
X18826Y89929D01*
X18898Y89867D01*
X18979Y89818D01*
X19066Y89782D01*
X19158Y89760D01*
X19252Y89754D01*
X21122Y89757D01*
Y89377D01*
X19158Y89374D01*
X19066Y89352D01*
X18979Y89316D01*
X18898Y89266D01*
X18826Y89205D01*
X18765Y89133D01*
X18716Y89053D01*
X18680Y88966D01*
X18658Y88874D01*
X18652Y88780D01*
X18658Y85929D01*
X18680Y85838D01*
X18716Y85750D01*
X18765Y85670D01*
X18826Y85598D01*
X18898Y85537D01*
X18979Y85487D01*
X19066Y85451D01*
X19158Y85429D01*
X19252Y85424D01*
X21122Y85426D01*
Y85046D01*
G37*
G36*
Y2362D02*X16535D01*
X13583Y5315D01*
Y47638D01*
X10630Y50591D01*
X4724D01*
X1772Y53543D01*
Y126378D01*
X4724Y129331D01*
X21122D01*
Y101393D01*
X14729Y95000D01*
X14684Y94962D01*
X14531Y94782D01*
X14407Y94581D01*
X14317Y94363D01*
X14262Y94133D01*
X14262Y94133D01*
X14243Y93898D01*
X14248Y93839D01*
Y84901D01*
X14243Y84843D01*
X14262Y84607D01*
X14317Y84378D01*
X14407Y84159D01*
X14531Y83958D01*
X14684Y83779D01*
X14729Y83740D01*
X16221Y82249D01*
X16259Y82204D01*
X16438Y82050D01*
X16640Y81927D01*
X16858Y81837D01*
X17087Y81782D01*
X17323Y81763D01*
X17382Y81768D01*
X18657D01*
X18658Y81599D01*
X18680Y81507D01*
X18716Y81420D01*
X18765Y81339D01*
X18826Y81267D01*
X18898Y81206D01*
X18979Y81157D01*
X19066Y81121D01*
X19158Y81098D01*
X19252Y81093D01*
X21122Y81096D01*
Y80715D01*
X19158Y80713D01*
X19066Y80691D01*
X18979Y80654D01*
X18898Y80605D01*
X18826Y80544D01*
X18765Y80472D01*
X18744Y80437D01*
X14232D01*
X14173Y80442D01*
X13938Y80423D01*
X13708Y80368D01*
X13490Y80278D01*
X13289Y80154D01*
X13289Y80154D01*
X13109Y80001D01*
X13071Y79956D01*
X6461Y73346D01*
X6416Y73308D01*
X6263Y73128D01*
X6140Y72927D01*
X6049Y72709D01*
X5994Y72479D01*
X5994Y72479D01*
X5976Y72244D01*
X5980Y72185D01*
Y54586D01*
X5976Y54528D01*
X5994Y54292D01*
X6049Y54063D01*
X6140Y53844D01*
X6263Y53643D01*
X6416Y53464D01*
X6461Y53425D01*
X8347Y51540D01*
X8385Y51495D01*
X8564Y51342D01*
X8564Y51342D01*
X8766Y51218D01*
X8984Y51128D01*
X9213Y51073D01*
X9449Y51054D01*
X9508Y51059D01*
X21122D01*
Y49572D01*
X15496Y49571D01*
X15405Y49549D01*
X15317Y49513D01*
X15237Y49463D01*
X15165Y49402D01*
X15104Y49330D01*
X15054Y49250D01*
X15018Y49162D01*
X14996Y49071D01*
X14991Y48976D01*
X14996Y39374D01*
X15018Y39283D01*
X15054Y39195D01*
X15104Y39115D01*
X15165Y39043D01*
X15237Y38982D01*
X15317Y38932D01*
X15405Y38896D01*
X15496Y38874D01*
X15591Y38869D01*
X21122Y38870D01*
Y15065D01*
X15496Y15063D01*
X15405Y15041D01*
X15317Y15005D01*
X15237Y14955D01*
X15165Y14894D01*
X15104Y14822D01*
X15054Y14742D01*
X15018Y14654D01*
X14996Y14563D01*
X14991Y14469D01*
X14996Y4866D01*
X15018Y4775D01*
X15054Y4687D01*
X15104Y4607D01*
X15165Y4535D01*
X15237Y4474D01*
X15317Y4424D01*
X15405Y4388D01*
X15496Y4366D01*
X15591Y4361D01*
X21122Y4362D01*
Y2362D01*
G37*
G36*
X154650Y57450D02*X154900Y57700D01*
X155072Y57659D01*
X155512Y57624D01*
X155951Y57659D01*
X156380Y57762D01*
X156787Y57931D01*
X157163Y58161D01*
X157498Y58447D01*
X157784Y58782D01*
X158014Y59158D01*
X158183Y59565D01*
X158286Y59994D01*
X158312Y60433D01*
X158286Y60872D01*
X158183Y61301D01*
X158014Y61708D01*
X157784Y62084D01*
X157498Y62419D01*
X157163Y62705D01*
X156787Y62936D01*
X156380Y63104D01*
X155951Y63207D01*
X155512Y63242D01*
X155072Y63207D01*
X154644Y63104D01*
X154237Y62936D01*
X153861Y62705D01*
X153526Y62419D01*
X153240Y62084D01*
X153009Y61708D01*
X152841Y61301D01*
X152738Y60872D01*
X152703Y60433D01*
X152738Y59994D01*
X152779Y59822D01*
X152131Y59173D01*
X152086Y59135D01*
X151932Y58955D01*
X151856Y58831D01*
Y61273D01*
X159937Y69353D01*
X159931Y69330D01*
X159931Y69329D01*
X159913Y69094D01*
X159917Y69036D01*
Y60661D01*
X155674Y56417D01*
X155629Y56379D01*
X155476Y56199D01*
X155352Y55998D01*
X155262Y55780D01*
X155207Y55550D01*
X155207Y55550D01*
X155188Y55315D01*
X155193Y55256D01*
Y36645D01*
X154606Y36058D01*
X154636Y36182D01*
X154654Y36417D01*
X154650Y36476D01*
Y57450D01*
G37*
G36*
X115874Y47811D02*X132478D01*
X132570Y47660D01*
X132857Y47325D01*
X133192Y47039D01*
X133499Y46850D01*
X133192Y46662D01*
X132857Y46376D01*
X132570Y46041D01*
X132478Y45890D01*
X113802D01*
X114057Y45951D01*
X114464Y46120D01*
X114840Y46350D01*
X115175Y46636D01*
X115461Y46971D01*
X115691Y47347D01*
X115860Y47754D01*
X115874Y47811D01*
G37*
G36*
X89689Y93061D02*Y96988D01*
X89694Y97047D01*
X89675Y97282D01*
X89675Y97283D01*
X89620Y97512D01*
X89530Y97730D01*
X89406Y97932D01*
X89253Y98111D01*
X89208Y98150D01*
X87086Y100272D01*
X88355D01*
X90232Y98394D01*
Y93506D01*
X90081Y93414D01*
X89746Y93128D01*
X89689Y93061D01*
G37*
G36*
X93232Y93506D02*Y98957D01*
X93237Y99016D01*
X93218Y99251D01*
X93218Y99251D01*
X93163Y99481D01*
X93073Y99699D01*
X92950Y99900D01*
X92796Y100080D01*
X92751Y100118D01*
X90235Y102634D01*
X90717D01*
X95744Y97607D01*
Y83102D01*
X94521Y81879D01*
X94506Y82132D01*
X94403Y82561D01*
X94235Y82968D01*
X94005Y83344D01*
X93718Y83679D01*
X93383Y83965D01*
X93236Y84055D01*
X93383Y84145D01*
X93718Y84431D01*
X94005Y84766D01*
X94235Y85142D01*
X94403Y85549D01*
X94506Y85978D01*
X94532Y86417D01*
X94506Y86857D01*
X94403Y87285D01*
X94235Y87692D01*
X94005Y88068D01*
X93718Y88403D01*
X93383Y88690D01*
X93236Y88780D01*
X93383Y88870D01*
X93718Y89156D01*
X94005Y89491D01*
X94235Y89867D01*
X94403Y90274D01*
X94506Y90702D01*
X94532Y91142D01*
X94506Y91581D01*
X94403Y92010D01*
X94235Y92417D01*
X94005Y92793D01*
X93718Y93128D01*
X93383Y93414D01*
X93232Y93506D01*
G37*
G36*
X147356Y43817D02*Y38727D01*
X145969Y37340D01*
X145974Y37363D01*
X145993Y37598D01*
X145988Y37657D01*
Y42200D01*
X146336Y42413D01*
X146671Y42699D01*
X146957Y43034D01*
X147188Y43410D01*
X147356Y43817D01*
X147356Y43817D01*
G37*
G36*
X140160Y33343D02*X141674D01*
X141732Y33338D01*
X141967Y33356D01*
X141968Y33356D01*
X141991Y33362D01*
X140800Y32171D01*
X138663D01*
X138663Y32171D01*
X139070Y32340D01*
X139446Y32570D01*
X139781Y32857D01*
X140068Y33192D01*
X140160Y33343D01*
G37*
G36*
X272715Y129134D02*X295669D01*
X298819Y125984D01*
Y5118D01*
X296457Y2756D01*
X272715D01*
Y25993D01*
X277560Y25995D01*
X277651Y26017D01*
X277739Y26054D01*
X277819Y26103D01*
X277891Y26164D01*
X277952Y26236D01*
X278002Y26317D01*
X278038Y26404D01*
X278060Y26496D01*
X278065Y26590D01*
X278060Y31284D01*
X278038Y31376D01*
X278002Y31463D01*
X277952Y31544D01*
X277891Y31615D01*
X277819Y31677D01*
X277739Y31726D01*
X277651Y31762D01*
X277560Y31784D01*
X277465Y31790D01*
X272715Y31787D01*
Y129134D01*
G37*
G36*
X250000D02*X272715D01*
Y31787D01*
X267871Y31784D01*
X267779Y31762D01*
X267692Y31726D01*
X267612Y31677D01*
X267540Y31615D01*
X267478Y31544D01*
X267429Y31463D01*
X267393Y31376D01*
X267371Y31284D01*
X267365Y31190D01*
X267371Y26496D01*
X267393Y26404D01*
X267429Y26317D01*
X267478Y26236D01*
X267540Y26164D01*
X267612Y26103D01*
X267692Y26054D01*
X267779Y26017D01*
X267871Y25995D01*
X267965Y25990D01*
X272715Y25993D01*
Y2756D01*
X250394D01*
X250000Y129134D01*
G37*
G54D39*X95472Y51575D02*X111220Y67323D01*
X99409Y49606D02*X121575Y71772D01*
X116142Y57480D02*X113386D01*
X83071Y81693D02*X91732D01*
X70472Y69094D02*X83071Y81693D01*
X70472Y59252D02*X87402D01*
X9449Y52559D02*X7480Y54528D01*
X36417Y52559D02*X9449D01*
X21122Y65748D02*X28150D01*
X7480Y72244D02*Y54528D01*
X37992Y50984D02*X36417Y52559D01*
X62205Y50984D02*X37992D01*
X28150Y65748D02*X38976Y54921D01*
X61024D01*
X70472Y64370D01*
Y59252D02*X62205Y50984D01*
X70472Y69094D02*Y64370D01*
X25984Y81299D02*Y76181D01*
X24016Y74213D01*
X20866D02*X24016D01*
X7480Y72244D02*X14173Y78937D01*
X20925D01*
X21122Y78740D01*
X144685Y93740D02*X161575Y110630D01*
X111220Y110276D02*X111575Y110630D01*
X181575D02*Y110512D01*
X171260Y100197D01*
X164173D02*X171260D01*
X168898Y97441D02*X178346D01*
X171260Y93110D02*X183858D01*
X191535Y110630D02*X191575D01*
X201378D02*X201575D01*
X191535D02*X178346Y97441D01*
X201378Y110630D02*X183858Y93110D01*
X153150Y58071D02*X155512Y60433D01*
X133465Y82480D02*Y71654D01*
X144685Y60433D01*
X160236Y102559D02*X137795Y80118D01*
X164173Y100197D02*X144094Y80118D01*
X156693Y55315D02*X161417Y60039D01*
Y69094D02*Y60039D01*
Y69094D02*X163780Y71457D01*
X170472D01*
X171457Y110630D02*X171575D01*
X171457D02*X163386Y102559D01*
X160236D02*X163386D01*
X168898Y97441D02*X150787Y79331D01*
X171260Y93110D02*X157087Y78937D01*
X192677Y67244D02*Y67087D01*
X189370Y63780D01*
X192677Y57244D02*X192362D01*
X189370Y60236D01*
X170866D01*
X189370Y63780D02*X170276D01*
G54D40*X149606Y62205D02*X172441Y85039D01*
X141732Y29921D02*X149606Y37795D01*
G54D39*X153150Y36417D02*X143701Y26969D01*
X151575Y26575D02*Y20630D01*
X144488Y37598D02*X141732Y34843D01*
X137795D02*X141732D01*
X141575Y20906D02*X156693Y36024D01*
X151575Y26575D02*X160236Y35236D01*
X109055Y35039D02*X116929D01*
X161575Y26732D02*Y20630D01*
Y32244D02*Y26575D01*
Y32244D02*X162992Y33661D01*
X137913Y26969D02*X143701D01*
X137913D02*X131575Y20630D01*
X141575Y20906D02*Y20630D01*
G54D40*X182087Y35827D02*X216378D01*
X231575Y20630D01*
G54D41*X241575D02*Y10630D01*
X231299Y20906D02*Y10906D01*
X231575Y10630D01*
X221575Y20630D02*Y10630D01*
X211575Y20630D02*Y10630D01*
X201575Y20630D02*Y10630D01*
X191575Y20630D02*Y10630D01*
X181575Y20630D02*Y10630D01*
X171575Y20630D02*Y10630D01*
X161575Y20630D02*Y10630D01*
X151575Y20630D02*Y10630D01*
X141575Y20630D02*Y10630D01*
X131575Y20630D02*Y10630D01*
X121575Y20630D02*Y10630D01*
X111575Y20630D02*Y10630D01*
X101575Y20630D02*Y10630D01*
X91575Y20630D02*Y10630D01*
X81575Y20630D02*Y10630D01*
X71575Y20630D02*Y10630D01*
X61575Y20630D02*Y10630D01*
X51575Y20630D02*Y10630D01*
G54D39*X107283Y44390D02*X134843D01*
X111220Y39469D02*X134843D01*
Y49311D02*X113878D01*
X113189Y48622D01*
X99409Y49606D02*Y42717D01*
X113386Y57480D02*X102756Y46850D01*
Y41339D01*
X99409Y37795D02*X95472Y41732D01*
G54D40*X74803Y29921D02*X141732D01*
G54D39*X102756Y41339D02*X109055Y35039D01*
X95472Y51575D02*Y41732D01*
X156693Y55315D02*Y36024D01*
X160236Y53740D02*Y35236D01*
X162992Y52559D02*Y33661D01*
X170866Y60236D02*X162992Y52362D01*
X170276Y63780D02*X160236Y53740D01*
G54D40*X134843Y29921D03*
G54D39*X153150Y58071D02*Y36417D01*
X144488Y52165D02*Y44882D01*
X144685Y44685D01*
X144488D02*Y37598D01*
G54D40*X149606Y37795D02*Y62205D01*
G54D39*X111220Y110276D02*Y67323D01*
X121575Y110630D02*Y71772D01*
X124016Y83071D02*Y65354D01*
X151575Y110630D02*X124016Y83071D01*
X144665Y93720D02*Y93681D01*
X133465Y82480D01*
X91732Y76969D02*X97244Y82480D01*
Y98228D02*Y82480D01*
Y98228D02*X91339Y104134D01*
X91732Y99016D02*Y91142D01*
X91339Y86417D02*X91732D01*
X48425Y104134D02*X91339D01*
X50000Y101772D02*X88976D01*
X51575Y99409D02*X85827D01*
X91732Y99016D02*X88976Y101772D01*
X91339Y86417D02*X88189Y89567D01*
Y97047D02*Y89567D01*
Y97047D02*X85827Y99409D01*
G54D41*X51575Y120630D02*Y110630D01*
X61575Y120630D02*Y110630D01*
X71575Y120630D02*Y110630D01*
G54D39*X15748Y84843D02*X17323Y83268D01*
X21260D01*
X25984Y83661D02*Y80906D01*
X48425Y104134D02*X46063Y106496D01*
X28346D02*X46063D01*
X50000Y101772D02*X44488Y96260D01*
X33465D02*X44488D01*
X51575Y99409D02*X44882Y92717D01*
X35039D02*X44882D01*
X28346Y106496D02*X15748Y93898D01*
Y84843D01*
X33465Y96260D02*X24803Y87598D01*
X21260D02*X24803D01*
X35039Y92717D02*X25984Y83661D01*
G54D41*X81575Y120630D02*Y110630D01*
X91575Y120630D02*Y110630D01*
X101575Y120630D02*Y110630D01*
X111575Y120630D02*Y110630D01*
X121575Y120630D02*Y110630D01*
X131575Y120630D02*Y110630D01*
X141575Y120630D02*Y110630D01*
X151575Y120630D02*Y110630D01*
X161575Y120630D02*Y110630D01*
X171575Y120630D02*Y110630D01*
X181575Y120630D02*Y110630D01*
X191575Y120630D02*Y110630D01*
X201575Y120630D02*Y110827D01*
X201772Y110630D01*
X211575Y120630D02*Y110630D01*
X221575Y120630D02*Y110630D01*
X231575Y120630D02*Y110630D01*
G54D40*X210236Y79528D02*X204724Y85039D01*
X172441D01*
G54D42*X275165Y26890D02*X277165D01*
X275165D02*X274665Y27390D01*
Y28590D01*
X275165Y29090D02*X274665Y28590D01*
X275165Y29090D02*X276665D01*
Y26890D02*Y30890D01*
X275165D02*X277165D01*
X275165D02*X274665Y30390D01*
Y29590D02*Y30390D01*
X275165Y29090D02*X274665Y29590D01*
X273465Y27390D02*Y30390D01*
X272965Y30890D01*
X271965D02*X272965D01*
X271965D02*X271465Y30390D01*
Y27390D02*Y30390D01*
X271965Y26890D02*X271465Y27390D01*
X271965Y26890D02*X272965D01*
X273465Y27390D02*X272965Y26890D01*
X268265Y30890D02*X270265D01*
X269265Y26890D02*Y30890D01*
G54D43*X111575Y110630D03*
X101575D03*
X91575D03*
X81575D03*
X71575D03*
X61575D03*
X51575D03*
Y20630D03*
X61575D03*
X71575D03*
X81575D03*
X91575D03*
X101575D03*
X111575D03*
X121575D03*
X131575D03*
X141575D03*
X151575D03*
X161575D03*
X171575D03*
X181575D03*
X191575D03*
X201575D03*
X211575D03*
G54D44*X192677Y47244D03*
Y57244D03*
Y67244D03*
Y77244D03*
G54D43*X221575Y20630D03*
X231575D03*
X241575D03*
X131575Y120630D03*
X121575D03*
X111575D03*
X101575D03*
X91575D03*
X81575D03*
X71575D03*
X61575D03*
X51575D03*
Y10630D03*
X61575D03*
X71575D03*
X81575D03*
X91575D03*
X101575D03*
X111575D03*
X121575D03*
X131575D03*
X141575D03*
X151575D03*
X161575D03*
X171575D03*
X181575D03*
X191575D03*
X201575D03*
X211575D03*
X221575D03*
X231575D03*
X241575D03*
X161575Y110630D03*
X151575D03*
X141575D03*
X131575D03*
X121575D03*
X211575D03*
X201575D03*
X191575D03*
X181575D03*
G54D38*G36*
X237638Y114567D02*Y106693D01*
X245512D01*
Y114567D01*
X237638D01*
G37*
G54D43*X231575Y110630D03*
X221575D03*
G54D38*G36*
X237638Y124567D02*Y116693D01*
X245512D01*
Y124567D01*
X237638D01*
G37*
G54D43*X231575Y120630D03*
X221575D03*
X211575D03*
X201575D03*
X171575Y110630D03*
Y120630D03*
X191575D03*
X181575D03*
X161575D03*
X151575D03*
X141575D03*
G54D38*G36*
X122047Y40748D02*Y32874D01*
X129921D01*
Y40748D01*
X122047D01*
G37*
G54D45*X20344Y44222D02*X30837D01*
G54D46*X30000Y57047D02*X31457D01*
G54D47*X20630Y61417D02*X21614D01*
G54D45*X20344Y9715D02*X30837D01*
G54D48*X11713Y57657D02*X15020D01*
G54D47*X20630Y65748D02*X21614D01*
X20630Y78740D02*X21614D01*
X20630Y74409D02*X21614D01*
X20630Y70079D02*X21614D01*
X20630Y87402D02*X21614D01*
X20630Y83071D02*X21614D01*
X20630Y91732D02*X21614D01*
G54D49*X37461Y100886D02*X38051D01*
G54D50*X43307Y101181D02*Y100591D01*
G54D51*X11240Y101083D02*X16043D01*
G54D52*X62657Y89902D02*Y87264D01*
G54D46*X62953Y79764D02*Y78504D01*
G54D52*X62657Y71004D02*Y68366D01*
G54D53*X144488Y52165D03*
X137795Y34843D03*
X144685Y44685D03*
X134843Y49311D03*
Y44390D03*
Y39469D03*
G54D54*X182087Y35827D03*
G54D53*X137795Y80118D03*
X157087Y78937D03*
X144094Y80118D03*
X150787Y79331D03*
X124016Y65354D03*
X144685Y60433D03*
X155512D03*
X87402Y59252D03*
X91732Y76969D03*
Y81693D03*
Y91142D03*
Y86417D03*
G54D54*X74803Y29921D03*
G54D53*X99409Y42717D03*
Y37795D03*
X111220Y39469D03*
X107283Y44390D03*
X116142Y57480D03*
X113189Y48622D03*
X116929Y35039D03*
X170472Y71457D03*
G54D54*X210236Y79528D03*
X255906Y47244D03*
X268504D03*
Y57480D03*
X255906D03*
X292520Y47244D03*
X281102D03*
Y57480D03*
X292520D03*
X255512Y8661D03*
X268110D03*
X280709D03*
X292126D03*
G54D53*X264173Y70079D03*
X274803D03*
X285827D03*
G54D54*X292520Y105906D03*
X281102D03*
X292913Y124016D03*
X281496Y123622D03*
X268504Y105906D03*
X255512D03*
X268504Y123622D03*
X255512D03*
G54D53*X285827Y92520D03*
Y81890D03*
X274803Y92520D03*
Y81890D03*
X264173Y92520D03*
Y81890D03*
G54D55*G54D56*G54D55*G54D56*G54D55*G54D56*G54D55*G54D56*G54D55*G54D57*G54D58*G54D57*M02*
