G04 start of page 4 for group 6 idx 6 *
G04 Title: (unknown), outline *
G04 Creator: pcb 20140316 *
G04 CreationDate: Tue Dec  8 09:12:03 2015 UTC *
G04 For: clemi *
G04 Format: Gerber/RS-274X *
G04 PCB-Dimensions (mil): 1338.58 984.25 *
G04 PCB-Coordinate-Origin: lower left *
%MOIN*%
%FSLAX25Y25*%
%LNOUTLINE*%
%ADD39C,0.0100*%
G54D39*X112598Y92717D02*Y78937D01*
X127756Y96850D02*X116732D01*
X130315Y62598D02*X131890Y64173D01*
Y92913D01*
Y56693D02*X130315Y58268D01*
Y62598D02*Y58268D01*
X131890Y56693D02*Y5906D01*
X106693Y1575D02*X108268Y3150D01*
X112598D01*
X114173Y1575D01*
X127953D02*X114173D01*
X56299Y92717D02*Y78937D01*
X5709Y96850D02*X52165D01*
X60236Y75197D02*X108661D01*
X1575Y76181D02*X3150Y74606D01*
Y70276D01*
X1575Y68701D01*
Y5709D01*
Y92717D02*Y76181D01*
X5709Y1575D02*X9449D01*
X11024Y3150D01*
X15354D01*
X16929Y1575D01*
X106496D02*X16929D01*
X56299Y92717D02*G75*G03X52165Y96850I-4134J0D01*G01*
X5709D02*G75*G03X1575Y92717I0J-4134D01*G01*
X56299Y79331D02*G75*G03X60433Y75197I4134J0D01*G01*
X116732Y96850D02*G75*G03X112598Y92717I0J-4134D01*G01*
X131890Y92717D02*G75*G03X127756Y96850I-4134J0D01*G01*
Y1575D02*G75*G03X131890Y5709I0J4134D01*G01*
X108465Y75197D02*G75*G03X112598Y79331I0J4134D01*G01*
X1575Y5709D02*G75*G03X5709Y1575I4134J0D01*G01*
M02*
