G04 start of page 8 for group -4062 idx -4062 *
G04 Title: (unknown), soldermask *
G04 Creator: pcb 20140316 *
G04 CreationDate: Tue Dec  8 09:12:03 2015 UTC *
G04 For: clemi *
G04 Format: Gerber/RS-274X *
G04 PCB-Dimensions (mil): 1338.58 984.25 *
G04 PCB-Coordinate-Origin: lower left *
%MOIN*%
%FSLAX25Y25*%
%LNBOTTOMMASK*%
%ADD58R,0.0502X0.0502*%
%ADD57R,0.0660X0.0660*%
%ADD56C,0.0001*%
%ADD55C,0.0345*%
G54D55*X117559Y74803D03*
X128189D03*
X6181Y59961D03*
X117520Y47244D03*
X128150D03*
X117559Y20000D03*
X128189D03*
X16811Y59961D03*
G54D56*G36*
X11858Y29678D02*Y24259D01*
X17276D01*
Y29678D01*
X11858D01*
G37*
G36*
Y22985D02*Y17567D01*
X17276D01*
Y22985D01*
X11858D01*
G37*
G36*
Y16292D02*Y10874D01*
X17276D01*
Y16292D01*
X11858D01*
G37*
G54D57*X12795Y88386D02*Y86811D01*
X21457Y88386D02*Y86811D01*
X47441Y88386D02*Y86811D01*
X38780Y88386D02*Y86811D01*
X30118Y88386D02*Y86811D01*
G54D58*X113189Y63189D02*X117126D01*
X113189Y55315D02*X117126D01*
X113189Y47441D02*X117126D01*
X113189Y39567D02*X117126D01*
X113189Y31693D02*X117126D01*
X113189Y23819D02*X117126D01*
X53346Y8071D02*X57283D01*
X53346Y15945D02*X57283D01*
X53346Y23819D02*X57283D01*
X53346Y31693D02*X57283D01*
X53346Y39567D02*X57283D01*
X53346Y47441D02*X57283D01*
X53346Y55315D02*X57283D01*
X53346Y63189D02*X57283D01*
X113189Y15945D02*X117126D01*
X113189Y8071D02*X117126D01*
M02*
