G04 start of page 13 for group -3984 idx -3984 *
G04 Title: (unknown), fab *
G04 Creator: pcb 20140316 *
G04 CreationDate: Tue Dec  8 09:12:03 2015 UTC *
G04 For: clemi *
G04 Format: Gerber/RS-274X *
G04 PCB-Dimensions (mil): 1338.58 984.25 *
G04 PCB-Coordinate-Origin: lower left *
%MOIN*%
%FSLAX25Y25*%
%LNFAB*%
%ADD83C,0.0100*%
%ADD82C,0.0075*%
%ADD81C,0.0060*%
%ADD80C,0.0001*%
G54D80*G36*
X116359Y21766D02*X119325Y18800D01*
X118759Y18234D01*
X115793Y21200D01*
X116359Y21766D01*
G37*
G36*
X115793Y18800D02*X118759Y21766D01*
X119325Y21200D01*
X116359Y18234D01*
X115793Y18800D01*
G37*
G36*
X126989Y21766D02*X129955Y18800D01*
X129389Y18234D01*
X126423Y21200D01*
X126989Y21766D01*
G37*
G36*
X126423Y18800D02*X129389Y21766D01*
X129955Y21200D01*
X126989Y18234D01*
X126423Y18800D01*
G37*
G36*
X116359Y76569D02*X119325Y73603D01*
X118759Y73037D01*
X115793Y76003D01*
X116359Y76569D01*
G37*
G36*
X115793Y73603D02*X118759Y76569D01*
X119325Y76003D01*
X116359Y73037D01*
X115793Y73603D01*
G37*
G36*
X126989Y76569D02*X129955Y73603D01*
X129389Y73037D01*
X126423Y76003D01*
X126989Y76569D01*
G37*
G36*
X126423Y73603D02*X129389Y76569D01*
X129955Y76003D01*
X126989Y73037D01*
X126423Y73603D01*
G37*
G36*
X15611Y61726D02*X18577Y58761D01*
X18011Y58195D01*
X15045Y61161D01*
X15611Y61726D01*
G37*
G36*
X15045Y58761D02*X18011Y61726D01*
X18577Y61161D01*
X15611Y58195D01*
X15045Y58761D01*
G37*
G36*
X4981Y61726D02*X7947Y58761D01*
X7381Y58195D01*
X4415Y61161D01*
X4981Y61726D01*
G37*
G36*
X4415Y58761D02*X7381Y61726D01*
X7947Y61161D01*
X4981Y58195D01*
X4415Y58761D01*
G37*
G36*
X116320Y49010D02*X119285Y46044D01*
X118720Y45478D01*
X115754Y48444D01*
X116320Y49010D01*
G37*
G36*
X115754Y46044D02*X118720Y49010D01*
X119285Y48444D01*
X116320Y45478D01*
X115754Y46044D01*
G37*
G36*
X126950Y49010D02*X129915Y46044D01*
X129350Y45478D01*
X126384Y48444D01*
X126950Y49010D01*
G37*
G36*
X126384Y46044D02*X129350Y49010D01*
X129915Y48444D01*
X126950Y45478D01*
X126384Y46044D01*
G37*
G36*
X13800Y126441D02*X16766Y123475D01*
X16200Y122910D01*
X13234Y125875D01*
X13800Y126441D01*
G37*
G36*
X13234Y123475D02*X16200Y126441D01*
X16766Y125875D01*
X13800Y122910D01*
X13234Y123475D01*
G37*
G54D81*X140000Y126925D02*Y120925D01*
Y126925D02*X143750Y120925D01*
Y126925D02*Y120925D01*
X145550Y126175D02*Y121675D01*
Y126175D02*X146300Y126925D01*
X147800D01*
X148550Y126175D01*
Y121675D01*
X147800Y120925D02*X148550Y121675D01*
X146300Y120925D02*X147800D01*
X145550Y121675D02*X146300Y120925D01*
X98000Y121675D02*X98750Y120925D01*
X98000Y122875D02*Y121675D01*
Y122875D02*X99050Y123925D01*
X99950D01*
X101000Y122875D01*
Y121675D01*
X100250Y120925D02*X101000Y121675D01*
X98750Y120925D02*X100250D01*
X98000Y124975D02*X99050Y123925D01*
X98000Y126175D02*Y124975D01*
Y126175D02*X98750Y126925D01*
X100250D01*
X101000Y126175D01*
Y124975D01*
X99950Y123925D02*X101000Y124975D01*
X45000Y121675D02*X45750Y120925D01*
X45000Y126175D02*Y121675D01*
Y126175D02*X45750Y126925D01*
X47250D01*
X48000Y126175D01*
Y121675D01*
X47250Y120925D02*X48000Y121675D01*
X45750Y120925D02*X47250D01*
X45000Y122425D02*X48000Y125425D01*
X49800Y120925D02*X50550D01*
X52350Y121675D02*X53100Y120925D01*
X52350Y126175D02*Y121675D01*
Y126175D02*X53100Y126925D01*
X54600D01*
X55350Y126175D01*
Y121675D01*
X54600Y120925D02*X55350Y121675D01*
X53100Y120925D02*X54600D01*
X52350Y122425D02*X55350Y125425D01*
X57150Y126175D02*X57900Y126925D01*
X59400D01*
X60150Y126175D01*
X59400Y120925D02*X60150Y121675D01*
X57900Y120925D02*X59400D01*
X57150Y121675D02*X57900Y120925D01*
Y124225D02*X59400D01*
X60150Y126175D02*Y124975D01*
Y123475D02*Y121675D01*
Y123475D02*X59400Y124225D01*
X60150Y124975D02*X59400Y124225D01*
X61950Y121675D02*X62700Y120925D01*
X61950Y126175D02*Y121675D01*
Y126175D02*X62700Y126925D01*
X64200D01*
X64950Y126175D01*
Y121675D01*
X64200Y120925D02*X64950Y121675D01*
X62700Y120925D02*X64200D01*
X61950Y122425D02*X64950Y125425D01*
X84646Y17742D02*Y14542D01*
X83046Y16142D02*X86246D01*
X3543Y37033D02*Y33833D01*
X1943Y35433D02*X5143D01*
X3937Y15970D02*Y12770D01*
X2337Y14370D02*X5537D01*
X3937Y56521D02*Y53321D01*
X2337Y54921D02*X5537D01*
X39961Y76797D02*Y73597D01*
X38361Y75197D02*X41561D01*
X129331Y92545D02*Y89345D01*
X127731Y90945D02*X130931D01*
X87598Y47072D02*Y43872D01*
X85998Y45472D02*X89198D01*
X23031Y72466D02*Y69266D01*
X21431Y70866D02*X24631D01*
X34646Y49238D02*Y46038D01*
X33046Y47638D02*X36246D01*
X68504Y73647D02*Y70447D01*
X66904Y72047D02*X70104D01*
X68701Y69317D02*Y66117D01*
X67101Y67717D02*X70301D01*
X125984Y6128D02*Y2928D01*
X124384Y4528D02*X127584D01*
X17913Y45694D02*Y42494D01*
X16313Y44094D02*X19513D01*
X19488Y6915D02*Y3715D01*
X17888Y5315D02*X21088D01*
X6890Y80143D02*Y76943D01*
X5290Y78543D02*X8490D01*
X39961Y39395D02*Y36195D01*
X38361Y37795D02*X41561D01*
X68701Y56915D02*Y53715D01*
X67101Y55315D02*X70301D01*
X68898Y64789D02*Y61589D01*
X67298Y63189D02*X70498D01*
X67323Y30340D02*Y27140D01*
X65723Y28740D02*X68923D01*
X82677Y22466D02*Y19266D01*
X81077Y20866D02*X84277D01*
X15354Y78372D02*Y75172D01*
X13754Y76772D02*X16954D01*
X120276Y72269D02*Y69069D01*
X118676Y70669D02*X121876D01*
X45472Y53569D02*Y50369D01*
X43872Y51969D02*X47072D01*
X45472Y46876D02*Y43676D01*
X43872Y45276D02*X47072D01*
X34449Y64198D02*Y60998D01*
X32849Y62598D02*X36049D01*
X107874Y19120D02*Y15920D01*
X106274Y17520D02*X109474D01*
X103543Y42742D02*Y39542D01*
X101943Y41142D02*X105143D01*
X44488Y24041D02*Y20841D01*
X42888Y22441D02*X46088D01*
X70866Y24435D02*Y21235D01*
X69266Y22835D02*X72466D01*
X75787Y24435D02*Y21235D01*
X74187Y22835D02*X77387D01*
X26969Y34474D02*Y31274D01*
X25369Y32874D02*X28569D01*
X122638Y43726D02*Y40526D01*
X121038Y42126D02*X124238D01*
X121063Y25616D02*Y22416D01*
X119463Y24016D02*X122663D01*
X15000Y141275D02*Y138075D01*
X13400Y139675D02*X16600D01*
X135000Y141925D02*X136500Y138925D01*
X138000Y141925D01*
X136500Y138925D02*Y135925D01*
X139800Y139225D02*X142050D01*
X139800Y135925D02*X142800D01*
X139800Y141925D02*Y135925D01*
Y141925D02*X142800D01*
X147600D02*X148350Y141175D01*
X145350Y141925D02*X147600D01*
X144600Y141175D02*X145350Y141925D01*
X144600Y141175D02*Y139675D01*
X145350Y138925D01*
X147600D01*
X148350Y138175D01*
Y136675D01*
X147600Y135925D02*X148350Y136675D01*
X145350Y135925D02*X147600D01*
X144600Y136675D02*X145350Y135925D01*
X98000Y141175D02*X98750Y141925D01*
X100250D01*
X101000Y141175D01*
X100250Y135925D02*X101000Y136675D01*
X98750Y135925D02*X100250D01*
X98000Y136675D02*X98750Y135925D01*
Y139225D02*X100250D01*
X101000Y141175D02*Y139975D01*
Y138475D02*Y136675D01*
Y138475D02*X100250Y139225D01*
X101000Y139975D02*X100250Y139225D01*
X102800Y141175D02*X103550Y141925D01*
X105050D01*
X105800Y141175D01*
X105050Y135925D02*X105800Y136675D01*
X103550Y135925D02*X105050D01*
X102800Y136675D02*X103550Y135925D01*
Y139225D02*X105050D01*
X105800Y141175D02*Y139975D01*
Y138475D02*Y136675D01*
Y138475D02*X105050Y139225D01*
X105800Y139975D02*X105050Y139225D01*
X45000Y136675D02*X45750Y135925D01*
X45000Y141175D02*Y136675D01*
Y141175D02*X45750Y141925D01*
X47250D01*
X48000Y141175D01*
Y136675D01*
X47250Y135925D02*X48000Y136675D01*
X45750Y135925D02*X47250D01*
X45000Y137425D02*X48000Y140425D01*
X49800Y135925D02*X50550D01*
X52350Y136675D02*X53100Y135925D01*
X52350Y141175D02*Y136675D01*
Y141175D02*X53100Y141925D01*
X54600D01*
X55350Y141175D01*
Y136675D01*
X54600Y135925D02*X55350Y136675D01*
X53100Y135925D02*X54600D01*
X52350Y137425D02*X55350Y140425D01*
X57150Y141175D02*X57900Y141925D01*
X60150D01*
X60900Y141175D01*
Y139675D01*
X57150Y135925D02*X60900Y139675D01*
X57150Y135925D02*X60900D01*
X62700Y136675D02*X63450Y135925D01*
X62700Y141175D02*Y136675D01*
Y141175D02*X63450Y141925D01*
X64950D01*
X65700Y141175D01*
Y136675D01*
X64950Y135925D02*X65700Y136675D01*
X63450Y135925D02*X64950D01*
X62700Y137425D02*X65700Y140425D01*
X61811Y27165D02*Y25565D01*
Y27165D02*X63198Y27965D01*
X61811Y27165D02*X60424Y27965D01*
X15000Y154675D02*Y153075D01*
Y154675D02*X16387Y155475D01*
X15000Y154675D02*X13613Y155475D01*
X135000Y156925D02*X136500Y153925D01*
X138000Y156925D01*
X136500Y153925D02*Y150925D01*
X139800Y154225D02*X142050D01*
X139800Y150925D02*X142800D01*
X139800Y156925D02*Y150925D01*
Y156925D02*X142800D01*
X147600D02*X148350Y156175D01*
X145350Y156925D02*X147600D01*
X144600Y156175D02*X145350Y156925D01*
X144600Y156175D02*Y154675D01*
X145350Y153925D01*
X147600D01*
X148350Y153175D01*
Y151675D01*
X147600Y150925D02*X148350Y151675D01*
X145350Y150925D02*X147600D01*
X144600Y151675D02*X145350Y150925D01*
X98000Y155725D02*X99200Y156925D01*
Y150925D01*
X98000D02*X100250D01*
X45000Y151675D02*X45750Y150925D01*
X45000Y156175D02*Y151675D01*
Y156175D02*X45750Y156925D01*
X47250D01*
X48000Y156175D01*
Y151675D01*
X47250Y150925D02*X48000Y151675D01*
X45750Y150925D02*X47250D01*
X45000Y152425D02*X48000Y155425D01*
X49800Y150925D02*X50550D01*
X52350Y151675D02*X53100Y150925D01*
X52350Y156175D02*Y151675D01*
Y156175D02*X53100Y156925D01*
X54600D01*
X55350Y156175D01*
Y151675D01*
X54600Y150925D02*X55350Y151675D01*
X53100Y150925D02*X54600D01*
X52350Y152425D02*X55350Y155425D01*
X57150Y155725D02*X58350Y156925D01*
Y150925D01*
X57150D02*X59400D01*
X61200Y156175D02*X61950Y156925D01*
X64200D01*
X64950Y156175D01*
Y154675D01*
X61200Y150925D02*X64950Y154675D01*
X61200Y150925D02*X64950D01*
X3000Y171925D02*X3750Y171175D01*
X750Y171925D02*X3000D01*
X0Y171175D02*X750Y171925D01*
X0Y171175D02*Y169675D01*
X750Y168925D01*
X3000D01*
X3750Y168175D01*
Y166675D01*
X3000Y165925D02*X3750Y166675D01*
X750Y165925D02*X3000D01*
X0Y166675D02*X750Y165925D01*
X5550Y168925D02*Y166675D01*
X6300Y165925D01*
X8550Y168925D02*Y164425D01*
X7800Y163675D02*X8550Y164425D01*
X6300Y163675D02*X7800D01*
X5550Y164425D02*X6300Y163675D01*
Y165925D02*X7800D01*
X8550Y166675D01*
X11100Y168175D02*Y165925D01*
Y168175D02*X11850Y168925D01*
X12600D01*
X13350Y168175D01*
Y165925D01*
Y168175D02*X14100Y168925D01*
X14850D01*
X15600Y168175D01*
Y165925D01*
X10350Y168925D02*X11100Y168175D01*
X17400Y171925D02*Y165925D01*
Y166675D02*X18150Y165925D01*
X19650D01*
X20400Y166675D01*
Y168175D02*Y166675D01*
X19650Y168925D02*X20400Y168175D01*
X18150Y168925D02*X19650D01*
X17400Y168175D02*X18150Y168925D01*
X22200Y168175D02*Y166675D01*
Y168175D02*X22950Y168925D01*
X24450D01*
X25200Y168175D01*
Y166675D01*
X24450Y165925D02*X25200Y166675D01*
X22950Y165925D02*X24450D01*
X22200Y166675D02*X22950Y165925D01*
X27000Y171925D02*Y166675D01*
X27750Y165925D01*
X0Y162675D02*X29250D01*
X41750Y171925D02*Y165925D01*
X43700Y171925D02*X44750Y170875D01*
Y166975D01*
X43700Y165925D02*X44750Y166975D01*
X41000Y165925D02*X43700D01*
X41000Y171925D02*X43700D01*
G54D82*X46550Y170425D02*Y170275D01*
G54D81*Y168175D02*Y165925D01*
X50300Y168925D02*X51050Y168175D01*
X48800Y168925D02*X50300D01*
X48050Y168175D02*X48800Y168925D01*
X48050Y168175D02*Y166675D01*
X48800Y165925D01*
X51050Y168925D02*Y166675D01*
X51800Y165925D01*
X48800D02*X50300D01*
X51050Y166675D01*
X54350Y168175D02*Y165925D01*
Y168175D02*X55100Y168925D01*
X55850D01*
X56600Y168175D01*
Y165925D01*
Y168175D02*X57350Y168925D01*
X58100D01*
X58850Y168175D01*
Y165925D01*
X53600Y168925D02*X54350Y168175D01*
X60650Y165925D02*X61400D01*
X65900Y166675D02*X66650Y165925D01*
X65900Y171175D02*X66650Y171925D01*
X65900Y171175D02*Y166675D01*
X68450Y171925D02*X69950D01*
X69200D02*Y165925D01*
X68450D02*X69950D01*
X72500Y168175D02*Y165925D01*
Y168175D02*X73250Y168925D01*
X74000D01*
X74750Y168175D01*
Y165925D01*
X71750Y168925D02*X72500Y168175D01*
X77300Y168925D02*X79550D01*
X76550Y168175D02*X77300Y168925D01*
X76550Y168175D02*Y166675D01*
X77300Y165925D01*
X79550D01*
X81350Y171925D02*Y165925D01*
Y168175D02*X82100Y168925D01*
X83600D01*
X84350Y168175D01*
Y165925D01*
X86150Y171925D02*X86900Y171175D01*
Y166675D01*
X86150Y165925D02*X86900Y166675D01*
X41000Y162675D02*X88700D01*
X96050Y165925D02*X98000D01*
X95000Y166975D02*X96050Y165925D01*
X95000Y170875D02*Y166975D01*
Y170875D02*X96050Y171925D01*
X98000D01*
X99800Y168175D02*Y166675D01*
Y168175D02*X100550Y168925D01*
X102050D01*
X102800Y168175D01*
Y166675D01*
X102050Y165925D02*X102800Y166675D01*
X100550Y165925D02*X102050D01*
X99800Y166675D02*X100550Y165925D01*
X104600Y168925D02*Y166675D01*
X105350Y165925D01*
X106850D01*
X107600Y166675D01*
Y168925D02*Y166675D01*
X110150Y168175D02*Y165925D01*
Y168175D02*X110900Y168925D01*
X111650D01*
X112400Y168175D01*
Y165925D01*
X109400Y168925D02*X110150Y168175D01*
X114950Y171925D02*Y166675D01*
X115700Y165925D01*
X114200Y169675D02*X115700D01*
X95000Y162675D02*X117200D01*
X130750Y171925D02*Y165925D01*
X130000Y171925D02*X133000D01*
X133750Y171175D01*
Y169675D01*
X133000Y168925D02*X133750Y169675D01*
X130750Y168925D02*X133000D01*
X135550Y171925D02*Y166675D01*
X136300Y165925D01*
X140050Y168925D02*X140800Y168175D01*
X138550Y168925D02*X140050D01*
X137800Y168175D02*X138550Y168925D01*
X137800Y168175D02*Y166675D01*
X138550Y165925D01*
X140800Y168925D02*Y166675D01*
X141550Y165925D01*
X138550D02*X140050D01*
X140800Y166675D01*
X144100Y171925D02*Y166675D01*
X144850Y165925D01*
X143350Y169675D02*X144850D01*
X147100Y165925D02*X149350D01*
X146350Y166675D02*X147100Y165925D01*
X146350Y168175D02*Y166675D01*
Y168175D02*X147100Y168925D01*
X148600D01*
X149350Y168175D01*
X146350Y167425D02*X149350D01*
Y168175D02*Y167425D01*
X154150Y171925D02*Y165925D01*
X153400D02*X154150Y166675D01*
X151900Y165925D02*X153400D01*
X151150Y166675D02*X151900Y165925D01*
X151150Y168175D02*Y166675D01*
Y168175D02*X151900Y168925D01*
X153400D01*
X154150Y168175D01*
X157450Y168925D02*Y168175D01*
Y166675D02*Y165925D01*
X155950Y171175D02*Y170425D01*
Y171175D02*X156700Y171925D01*
X158200D01*
X158950Y171175D01*
Y170425D01*
X157450Y168925D02*X158950Y170425D01*
X130000Y162675D02*X160750D01*
X0Y186925D02*X3000D01*
X1500D02*Y180925D01*
X4800Y186925D02*Y180925D01*
Y183175D02*X5550Y183925D01*
X7050D01*
X7800Y183175D01*
Y180925D01*
X10350D02*X12600D01*
X9600Y181675D02*X10350Y180925D01*
X9600Y183175D02*Y181675D01*
Y183175D02*X10350Y183925D01*
X11850D01*
X12600Y183175D01*
X9600Y182425D02*X12600D01*
Y183175D02*Y182425D01*
X15150Y183175D02*Y180925D01*
Y183175D02*X15900Y183925D01*
X17400D01*
X14400D02*X15150Y183175D01*
X19950Y180925D02*X22200D01*
X19200Y181675D02*X19950Y180925D01*
X19200Y183175D02*Y181675D01*
Y183175D02*X19950Y183925D01*
X21450D01*
X22200Y183175D01*
X19200Y182425D02*X22200D01*
Y183175D02*Y182425D01*
X28950Y183925D02*X29700Y183175D01*
X27450Y183925D02*X28950D01*
X26700Y183175D02*X27450Y183925D01*
X26700Y183175D02*Y181675D01*
X27450Y180925D01*
X29700Y183925D02*Y181675D01*
X30450Y180925D01*
X27450D02*X28950D01*
X29700Y181675D01*
X33000Y183175D02*Y180925D01*
Y183175D02*X33750Y183925D01*
X35250D01*
X32250D02*X33000Y183175D01*
X37800Y180925D02*X40050D01*
X37050Y181675D02*X37800Y180925D01*
X37050Y183175D02*Y181675D01*
Y183175D02*X37800Y183925D01*
X39300D01*
X40050Y183175D01*
X37050Y182425D02*X40050D01*
Y183175D02*Y182425D01*
X44550Y186175D02*X45300Y186925D01*
X46800D01*
X47550Y186175D01*
X46800Y180925D02*X47550Y181675D01*
X45300Y180925D02*X46800D01*
X44550Y181675D02*X45300Y180925D01*
Y184225D02*X46800D01*
X47550Y186175D02*Y184975D01*
Y183475D02*Y181675D01*
Y183475D02*X46800Y184225D01*
X47550Y184975D02*X46800Y184225D01*
X55050Y186925D02*Y180925D01*
X54300D02*X55050Y181675D01*
X52800Y180925D02*X54300D01*
X52050Y181675D02*X52800Y180925D01*
X52050Y183175D02*Y181675D01*
Y183175D02*X52800Y183925D01*
X54300D01*
X55050Y183175D01*
G54D82*X56850Y185425D02*Y185275D01*
G54D81*Y183175D02*Y180925D01*
X59100Y186175D02*Y180925D01*
Y186175D02*X59850Y186925D01*
X60600D01*
X58350Y183925D02*X59850D01*
X62850Y186175D02*Y180925D01*
Y186175D02*X63600Y186925D01*
X64350D01*
X62100Y183925D02*X63600D01*
X66600Y180925D02*X68850D01*
X65850Y181675D02*X66600Y180925D01*
X65850Y183175D02*Y181675D01*
Y183175D02*X66600Y183925D01*
X68100D01*
X68850Y183175D01*
X65850Y182425D02*X68850D01*
Y183175D02*Y182425D01*
X71400Y183175D02*Y180925D01*
Y183175D02*X72150Y183925D01*
X73650D01*
X70650D02*X71400Y183175D01*
X76200Y180925D02*X78450D01*
X75450Y181675D02*X76200Y180925D01*
X75450Y183175D02*Y181675D01*
Y183175D02*X76200Y183925D01*
X77700D01*
X78450Y183175D01*
X75450Y182425D02*X78450D01*
Y183175D02*Y182425D01*
X81000Y183175D02*Y180925D01*
Y183175D02*X81750Y183925D01*
X82500D01*
X83250Y183175D01*
Y180925D01*
X80250Y183925D02*X81000Y183175D01*
X85800Y186925D02*Y181675D01*
X86550Y180925D01*
X85050Y184675D02*X86550D01*
X93750Y186925D02*Y180925D01*
X93000D02*X93750Y181675D01*
X91500Y180925D02*X93000D01*
X90750Y181675D02*X91500Y180925D01*
X90750Y183175D02*Y181675D01*
Y183175D02*X91500Y183925D01*
X93000D01*
X93750Y183175D01*
X96300D02*Y180925D01*
Y183175D02*X97050Y183925D01*
X98550D01*
X95550D02*X96300Y183175D01*
G54D82*X100350Y185425D02*Y185275D01*
G54D81*Y183175D02*Y180925D01*
X101850Y186925D02*Y181675D01*
X102600Y180925D01*
X104100Y186925D02*Y181675D01*
X104850Y180925D01*
X109800D02*X112050D01*
X112800Y181675D01*
X112050Y182425D02*X112800Y181675D01*
X109800Y182425D02*X112050D01*
X109050Y183175D02*X109800Y182425D01*
X109050Y183175D02*X109800Y183925D01*
X112050D01*
X112800Y183175D01*
X109050Y181675D02*X109800Y180925D01*
G54D82*X114600Y185425D02*Y185275D01*
G54D81*Y183175D02*Y180925D01*
X116100Y183925D02*X119100D01*
X116100Y180925D02*X119100Y183925D01*
X116100Y180925D02*X119100D01*
X121650D02*X123900D01*
X120900Y181675D02*X121650Y180925D01*
X120900Y183175D02*Y181675D01*
Y183175D02*X121650Y183925D01*
X123150D01*
X123900Y183175D01*
X120900Y182425D02*X123900D01*
Y183175D02*Y182425D01*
X126450Y180925D02*X128700D01*
X129450Y181675D01*
X128700Y182425D02*X129450Y181675D01*
X126450Y182425D02*X128700D01*
X125700Y183175D02*X126450Y182425D01*
X125700Y183175D02*X126450Y183925D01*
X128700D01*
X129450Y183175D01*
X125700Y181675D02*X126450Y180925D01*
X133950Y183925D02*Y181675D01*
X134700Y180925D01*
X136200D01*
X136950Y181675D01*
Y183925D02*Y181675D01*
X139500Y180925D02*X141750D01*
X142500Y181675D01*
X141750Y182425D02*X142500Y181675D01*
X139500Y182425D02*X141750D01*
X138750Y183175D02*X139500Y182425D01*
X138750Y183175D02*X139500Y183925D01*
X141750D01*
X142500Y183175D01*
X138750Y181675D02*X139500Y180925D01*
X145050D02*X147300D01*
X144300Y181675D02*X145050Y180925D01*
X144300Y183175D02*Y181675D01*
Y183175D02*X145050Y183925D01*
X146550D01*
X147300Y183175D01*
X144300Y182425D02*X147300D01*
Y183175D02*Y182425D01*
X152100Y186925D02*Y180925D01*
X151350D02*X152100Y181675D01*
X149850Y180925D02*X151350D01*
X149100Y181675D02*X149850Y180925D01*
X149100Y183175D02*Y181675D01*
Y183175D02*X149850Y183925D01*
X151350D01*
X152100Y183175D01*
G54D82*X156600Y185425D02*Y185275D01*
G54D81*Y183175D02*Y180925D01*
X158850Y183175D02*Y180925D01*
Y183175D02*X159600Y183925D01*
X160350D01*
X161100Y183175D01*
Y180925D01*
X158100Y183925D02*X158850Y183175D01*
X166350Y186925D02*Y181675D01*
X167100Y180925D01*
X165600Y184675D02*X167100D01*
X168600Y186925D02*Y180925D01*
Y183175D02*X169350Y183925D01*
X170850D01*
X171600Y183175D01*
Y180925D01*
G54D82*X173400Y185425D02*Y185275D01*
G54D81*Y183175D02*Y180925D01*
X175650D02*X177900D01*
X178650Y181675D01*
X177900Y182425D02*X178650Y181675D01*
X175650Y182425D02*X177900D01*
X174900Y183175D02*X175650Y182425D01*
X174900Y183175D02*X175650Y183925D01*
X177900D01*
X178650Y183175D01*
X174900Y181675D02*X175650Y180925D01*
X183150Y186925D02*Y181675D01*
X183900Y180925D01*
X187650Y183925D02*X188400Y183175D01*
X186150Y183925D02*X187650D01*
X185400Y183175D02*X186150Y183925D01*
X185400Y183175D02*Y181675D01*
X186150Y180925D01*
X188400Y183925D02*Y181675D01*
X189150Y180925D01*
X186150D02*X187650D01*
X188400Y181675D01*
X190950Y183925D02*Y181675D01*
X191700Y180925D01*
X193950Y183925D02*Y179425D01*
X193200Y178675D02*X193950Y179425D01*
X191700Y178675D02*X193200D01*
X190950Y179425D02*X191700Y178675D01*
Y180925D02*X193200D01*
X193950Y181675D01*
X195750Y183175D02*Y181675D01*
Y183175D02*X196500Y183925D01*
X198000D01*
X198750Y183175D01*
Y181675D01*
X198000Y180925D02*X198750Y181675D01*
X196500Y180925D02*X198000D01*
X195750Y181675D02*X196500Y180925D01*
X200550Y183925D02*Y181675D01*
X201300Y180925D01*
X202800D01*
X203550Y181675D01*
Y183925D02*Y181675D01*
X206100Y186925D02*Y181675D01*
X206850Y180925D01*
X205350Y184675D02*X206850D01*
X208350Y179425D02*X209850Y180925D01*
X214350Y183175D02*X217350Y186925D01*
X214350Y183175D02*X218100D01*
X217350Y186925D02*Y180925D01*
X219900Y186175D02*X220650Y186925D01*
X222900D01*
X223650Y186175D01*
Y184675D01*
X219900Y180925D02*X223650Y184675D01*
X219900Y180925D02*X223650D01*
X228150Y186925D02*Y180925D01*
Y183175D02*X228900Y183925D01*
X230400D01*
X231150Y183175D01*
Y180925D01*
X232950Y183175D02*Y181675D01*
Y183175D02*X233700Y183925D01*
X235200D01*
X235950Y183175D01*
Y181675D01*
X235200Y180925D02*X235950Y181675D01*
X233700Y180925D02*X235200D01*
X232950Y181675D02*X233700Y180925D01*
X237750Y186925D02*Y181675D01*
X238500Y180925D01*
X240750D02*X243000D01*
X240000Y181675D02*X240750Y180925D01*
X240000Y183175D02*Y181675D01*
Y183175D02*X240750Y183925D01*
X242250D01*
X243000Y183175D01*
X240000Y182425D02*X243000D01*
Y183175D02*Y182425D01*
X245550Y180925D02*X247800D01*
X248550Y181675D01*
X247800Y182425D02*X248550Y181675D01*
X245550Y182425D02*X247800D01*
X244800Y183175D02*X245550Y182425D01*
X244800Y183175D02*X245550Y183925D01*
X247800D01*
X248550Y183175D01*
X244800Y181675D02*X245550Y180925D01*
X253800Y186925D02*Y181675D01*
X254550Y180925D01*
X253050Y184675D02*X254550D01*
X256050Y183175D02*Y181675D01*
Y183175D02*X256800Y183925D01*
X258300D01*
X259050Y183175D01*
Y181675D01*
X258300Y180925D02*X259050Y181675D01*
X256800Y180925D02*X258300D01*
X256050Y181675D02*X256800Y180925D01*
X261600Y186925D02*Y181675D01*
X262350Y180925D01*
X260850Y184675D02*X262350D01*
X266100Y183925D02*X266850Y183175D01*
X264600Y183925D02*X266100D01*
X263850Y183175D02*X264600Y183925D01*
X263850Y183175D02*Y181675D01*
X264600Y180925D01*
X266850Y183925D02*Y181675D01*
X267600Y180925D01*
X264600D02*X266100D01*
X266850Y181675D01*
X269400Y186925D02*Y181675D01*
X270150Y180925D01*
G54D83*X112598Y92717D02*Y78937D01*
X56299Y92717D02*Y78937D01*
X127756Y96850D02*X116732D01*
X5709D02*X52165D01*
X131890Y56693D02*Y5906D01*
X106496Y1575D02*X16929D01*
X60236Y75197D02*X108661D01*
X1575Y68701D02*Y5709D01*
X5709Y1575D02*X9449D01*
X11024Y3150D01*
X15354D01*
X16929Y1575D01*
X1575Y76181D02*X3150Y74606D01*
Y70276D01*
X1575Y68701D01*
Y92717D02*Y76181D01*
X131890Y56693D02*X130315Y58268D01*
Y62598D02*Y58268D01*
Y62598D02*X131890Y64173D01*
Y92913D01*
X106693Y1575D02*X108268Y3150D01*
X112598D01*
X114173Y1575D01*
X127953D02*X114173D01*
X116732Y96850D02*G75*G03X112598Y92717I0J-4134D01*G01*
X56299Y92717D02*G75*G03X52165Y96850I-4134J0D01*G01*
X131890Y92717D02*G75*G03X127756Y96850I-4134J0D01*G01*
X5709D02*G75*G03X1575Y92717I0J-4134D01*G01*
X127756Y1575D02*G75*G03X131890Y5709I0J4134D01*G01*
X108465Y75197D02*G75*G03X112598Y79331I0J4134D01*G01*
X56299D02*G75*G03X60433Y75197I4134J0D01*G01*
X1575Y5709D02*G75*G03X5709Y1575I4134J0D01*G01*
G54D81*X0Y-9500D02*X3000D01*
X3750Y-8750D01*
Y-6950D02*Y-8750D01*
X3000Y-6200D02*X3750Y-6950D01*
X750Y-6200D02*X3000D01*
X750Y-3500D02*Y-9500D01*
X0Y-3500D02*X3000D01*
X3750Y-4250D01*
Y-5450D01*
X3000Y-6200D02*X3750Y-5450D01*
X5550Y-7250D02*Y-8750D01*
Y-7250D02*X6300Y-6500D01*
X7800D01*
X8550Y-7250D01*
Y-8750D01*
X7800Y-9500D02*X8550Y-8750D01*
X6300Y-9500D02*X7800D01*
X5550Y-8750D02*X6300Y-9500D01*
X12600Y-6500D02*X13350Y-7250D01*
X11100Y-6500D02*X12600D01*
X10350Y-7250D02*X11100Y-6500D01*
X10350Y-7250D02*Y-8750D01*
X11100Y-9500D01*
X13350Y-6500D02*Y-8750D01*
X14100Y-9500D01*
X11100D02*X12600D01*
X13350Y-8750D01*
X16650Y-7250D02*Y-9500D01*
Y-7250D02*X17400Y-6500D01*
X18900D01*
X15900D02*X16650Y-7250D01*
X23700Y-3500D02*Y-9500D01*
X22950D02*X23700Y-8750D01*
X21450Y-9500D02*X22950D01*
X20700Y-8750D02*X21450Y-9500D01*
X20700Y-7250D02*Y-8750D01*
Y-7250D02*X21450Y-6500D01*
X22950D01*
X23700Y-7250D01*
X28200D02*Y-8750D01*
Y-7250D02*X28950Y-6500D01*
X30450D01*
X31200Y-7250D01*
Y-8750D01*
X30450Y-9500D02*X31200Y-8750D01*
X28950Y-9500D02*X30450D01*
X28200Y-8750D02*X28950Y-9500D01*
X33000Y-6500D02*Y-8750D01*
X33750Y-9500D01*
X35250D01*
X36000Y-8750D01*
Y-6500D02*Y-8750D01*
X38550Y-3500D02*Y-8750D01*
X39300Y-9500D01*
X37800Y-5750D02*X39300D01*
X40800Y-3500D02*Y-8750D01*
X41550Y-9500D01*
G54D82*X43050Y-5000D02*Y-5150D01*
G54D81*Y-7250D02*Y-9500D01*
X45300Y-7250D02*Y-9500D01*
Y-7250D02*X46050Y-6500D01*
X46800D01*
X47550Y-7250D01*
Y-9500D01*
X44550Y-6500D02*X45300Y-7250D01*
X50100Y-9500D02*X52350D01*
X49350Y-8750D02*X50100Y-9500D01*
X49350Y-7250D02*Y-8750D01*
Y-7250D02*X50100Y-6500D01*
X51600D01*
X52350Y-7250D01*
X49350Y-8000D02*X52350D01*
Y-7250D02*Y-8000D01*
G54D82*X56850Y-5000D02*Y-5150D01*
G54D81*Y-7250D02*Y-9500D01*
X59100D02*X61350D01*
X62100Y-8750D01*
X61350Y-8000D02*X62100Y-8750D01*
X59100Y-8000D02*X61350D01*
X58350Y-7250D02*X59100Y-8000D01*
X58350Y-7250D02*X59100Y-6500D01*
X61350D01*
X62100Y-7250D01*
X58350Y-8750D02*X59100Y-9500D01*
X67350Y-3500D02*Y-8750D01*
X68100Y-9500D01*
X66600Y-5750D02*X68100D01*
X69600Y-3500D02*Y-9500D01*
Y-7250D02*X70350Y-6500D01*
X71850D01*
X72600Y-7250D01*
Y-9500D01*
X75150D02*X77400D01*
X74400Y-8750D02*X75150Y-9500D01*
X74400Y-7250D02*Y-8750D01*
Y-7250D02*X75150Y-6500D01*
X76650D01*
X77400Y-7250D01*
X74400Y-8000D02*X77400D01*
Y-7250D02*Y-8000D01*
X82650Y-6500D02*X84900D01*
X81900Y-7250D02*X82650Y-6500D01*
X81900Y-7250D02*Y-8750D01*
X82650Y-9500D01*
X84900D01*
X87450D02*X89700D01*
X86700Y-8750D02*X87450Y-9500D01*
X86700Y-7250D02*Y-8750D01*
Y-7250D02*X87450Y-6500D01*
X88950D01*
X89700Y-7250D01*
X86700Y-8000D02*X89700D01*
Y-7250D02*Y-8000D01*
X92250Y-7250D02*Y-9500D01*
Y-7250D02*X93000Y-6500D01*
X93750D01*
X94500Y-7250D01*
Y-9500D01*
X91500Y-6500D02*X92250Y-7250D01*
X97050Y-3500D02*Y-8750D01*
X97800Y-9500D01*
X96300Y-5750D02*X97800D01*
X100050Y-9500D02*X102300D01*
X99300Y-8750D02*X100050Y-9500D01*
X99300Y-7250D02*Y-8750D01*
Y-7250D02*X100050Y-6500D01*
X101550D01*
X102300Y-7250D01*
X99300Y-8000D02*X102300D01*
Y-7250D02*Y-8000D01*
X104850Y-7250D02*Y-9500D01*
Y-7250D02*X105600Y-6500D01*
X107100D01*
X104100D02*X104850Y-7250D01*
X108900Y-3500D02*Y-8750D01*
X109650Y-9500D01*
G54D82*X111150Y-5000D02*Y-5150D01*
G54D81*Y-7250D02*Y-9500D01*
X113400Y-7250D02*Y-9500D01*
Y-7250D02*X114150Y-6500D01*
X114900D01*
X115650Y-7250D01*
Y-9500D01*
X112650Y-6500D02*X113400Y-7250D01*
X118200Y-9500D02*X120450D01*
X117450Y-8750D02*X118200Y-9500D01*
X117450Y-7250D02*Y-8750D01*
Y-7250D02*X118200Y-6500D01*
X119700D01*
X120450Y-7250D01*
X117450Y-8000D02*X120450D01*
Y-7250D02*Y-8000D01*
X124950Y-7250D02*Y-8750D01*
Y-7250D02*X125700Y-6500D01*
X127200D01*
X127950Y-7250D01*
Y-8750D01*
X127200Y-9500D02*X127950Y-8750D01*
X125700Y-9500D02*X127200D01*
X124950Y-8750D02*X125700Y-9500D01*
X130500Y-4250D02*Y-9500D01*
Y-4250D02*X131250Y-3500D01*
X132000D01*
X129750Y-6500D02*X131250D01*
X136950Y-3500D02*Y-8750D01*
X137700Y-9500D01*
X136200Y-5750D02*X137700D01*
X139200Y-3500D02*Y-9500D01*
Y-7250D02*X139950Y-6500D01*
X141450D01*
X142200Y-7250D01*
Y-9500D01*
G54D82*X144000Y-5000D02*Y-5150D01*
G54D81*Y-7250D02*Y-9500D01*
X146250D02*X148500D01*
X149250Y-8750D01*
X148500Y-8000D02*X149250Y-8750D01*
X146250Y-8000D02*X148500D01*
X145500Y-7250D02*X146250Y-8000D01*
X145500Y-7250D02*X146250Y-6500D01*
X148500D01*
X149250Y-7250D01*
X145500Y-8750D02*X146250Y-9500D01*
X154500Y-7250D02*Y-11750D01*
X153750Y-6500D02*X154500Y-7250D01*
X155250Y-6500D01*
X156750D01*
X157500Y-7250D01*
Y-8750D01*
X156750Y-9500D02*X157500Y-8750D01*
X155250Y-9500D02*X156750D01*
X154500Y-8750D02*X155250Y-9500D01*
X161550Y-6500D02*X162300Y-7250D01*
X160050Y-6500D02*X161550D01*
X159300Y-7250D02*X160050Y-6500D01*
X159300Y-7250D02*Y-8750D01*
X160050Y-9500D01*
X162300Y-6500D02*Y-8750D01*
X163050Y-9500D01*
X160050D02*X161550D01*
X162300Y-8750D01*
X165600Y-3500D02*Y-8750D01*
X166350Y-9500D01*
X164850Y-5750D02*X166350D01*
X167850Y-3500D02*Y-9500D01*
Y-7250D02*X168600Y-6500D01*
X170100D01*
X170850Y-7250D01*
Y-9500D01*
X200750Y126925D02*Y120925D01*
X202700Y126925D02*X203750Y125875D01*
Y121975D01*
X202700Y120925D02*X203750Y121975D01*
X200000Y120925D02*X202700D01*
X200000Y126925D02*X202700D01*
X207800Y123925D02*X208550Y123175D01*
X206300Y123925D02*X207800D01*
X205550Y123175D02*X206300Y123925D01*
X205550Y123175D02*Y121675D01*
X206300Y120925D01*
X208550Y123925D02*Y121675D01*
X209300Y120925D01*
X206300D02*X207800D01*
X208550Y121675D01*
X211850Y126925D02*Y121675D01*
X212600Y120925D01*
X211100Y124675D02*X212600D01*
X214850Y120925D02*X217100D01*
X214100Y121675D02*X214850Y120925D01*
X214100Y123175D02*Y121675D01*
Y123175D02*X214850Y123925D01*
X216350D01*
X217100Y123175D01*
X214100Y122425D02*X217100D01*
Y123175D02*Y122425D01*
X218900Y124675D02*X219650D01*
X218900Y123175D02*X219650D01*
X224150Y126925D02*X227150D01*
X225650D02*Y120925D01*
X228950Y123925D02*Y121675D01*
X229700Y120925D01*
X231200D01*
X231950Y121675D01*
Y123925D02*Y121675D01*
X234500Y120925D02*X236750D01*
X233750Y121675D02*X234500Y120925D01*
X233750Y123175D02*Y121675D01*
Y123175D02*X234500Y123925D01*
X236000D01*
X236750Y123175D01*
X233750Y122425D02*X236750D01*
Y123175D02*Y122425D01*
X242000Y126925D02*Y120925D01*
X243950Y126925D02*X245000Y125875D01*
Y121975D01*
X243950Y120925D02*X245000Y121975D01*
X241250Y120925D02*X243950D01*
X241250Y126925D02*X243950D01*
X247550Y120925D02*X249800D01*
X246800Y121675D02*X247550Y120925D01*
X246800Y123175D02*Y121675D01*
Y123175D02*X247550Y123925D01*
X249050D01*
X249800Y123175D01*
X246800Y122425D02*X249800D01*
Y123175D02*Y122425D01*
X252350Y123925D02*X254600D01*
X251600Y123175D02*X252350Y123925D01*
X251600Y123175D02*Y121675D01*
X252350Y120925D01*
X254600D01*
X261800Y121675D02*X262550Y120925D01*
X261800Y122875D02*Y121675D01*
Y122875D02*X262850Y123925D01*
X263750D01*
X264800Y122875D01*
Y121675D01*
X264050Y120925D02*X264800Y121675D01*
X262550Y120925D02*X264050D01*
X261800Y124975D02*X262850Y123925D01*
X261800Y126175D02*Y124975D01*
Y126175D02*X262550Y126925D01*
X264050D01*
X264800Y126175D01*
Y124975D01*
X263750Y123925D02*X264800Y124975D01*
X269300Y121675D02*X270050Y120925D01*
X269300Y126175D02*Y121675D01*
Y126175D02*X270050Y126925D01*
X271550D01*
X272300Y126175D01*
Y121675D01*
X271550Y120925D02*X272300Y121675D01*
X270050Y120925D02*X271550D01*
X269300Y122425D02*X272300Y125425D01*
X274850Y120925D02*X277100Y123925D01*
Y126175D02*Y123925D01*
X276350Y126925D02*X277100Y126175D01*
X274850Y126925D02*X276350D01*
X274100Y126175D02*X274850Y126925D01*
X274100Y126175D02*Y124675D01*
X274850Y123925D01*
X277100D01*
X278900Y124675D02*X279650D01*
X278900Y123175D02*X279650D01*
X281450Y125725D02*X282650Y126925D01*
Y120925D01*
X281450D02*X283700D01*
X285500Y126175D02*X286250Y126925D01*
X288500D01*
X289250Y126175D01*
Y124675D01*
X285500Y120925D02*X289250Y124675D01*
X285500Y120925D02*X289250D01*
X291050Y124675D02*X291800D01*
X291050Y123175D02*X291800D01*
X293600Y121675D02*X294350Y120925D01*
X293600Y126175D02*Y121675D01*
Y126175D02*X294350Y126925D01*
X295850D01*
X296600Y126175D01*
Y121675D01*
X295850Y120925D02*X296600Y121675D01*
X294350Y120925D02*X295850D01*
X293600Y122425D02*X296600Y125425D01*
X298400Y126175D02*X299150Y126925D01*
X300650D01*
X301400Y126175D01*
X300650Y120925D02*X301400Y121675D01*
X299150Y120925D02*X300650D01*
X298400Y121675D02*X299150Y120925D01*
Y124225D02*X300650D01*
X301400Y126175D02*Y124975D01*
Y123475D02*Y121675D01*
Y123475D02*X300650Y124225D01*
X301400Y124975D02*X300650Y124225D01*
X305900Y126175D02*X306650Y126925D01*
X308900D01*
X309650Y126175D01*
Y124675D01*
X305900Y120925D02*X309650Y124675D01*
X305900Y120925D02*X309650D01*
X311450Y121675D02*X312200Y120925D01*
X311450Y126175D02*Y121675D01*
Y126175D02*X312200Y126925D01*
X313700D01*
X314450Y126175D01*
Y121675D01*
X313700Y120925D02*X314450Y121675D01*
X312200Y120925D02*X313700D01*
X311450Y122425D02*X314450Y125425D01*
X316250Y125725D02*X317450Y126925D01*
Y120925D01*
X316250D02*X318500D01*
X320300Y126925D02*X323300D01*
X320300D02*Y123925D01*
X321050Y124675D01*
X322550D01*
X323300Y123925D01*
Y121675D01*
X322550Y120925D02*X323300Y121675D01*
X321050Y120925D02*X322550D01*
X320300Y121675D02*X321050Y120925D01*
X327800Y126925D02*Y121675D01*
X328550Y120925D01*
X330050D01*
X330800Y121675D01*
Y126925D02*Y121675D01*
X332600Y126925D02*X335600D01*
X334100D02*Y120925D01*
X338450D02*X340400D01*
X337400Y121975D02*X338450Y120925D01*
X337400Y125875D02*Y121975D01*
Y125875D02*X338450Y126925D01*
X340400D01*
X200000Y140425D02*Y135925D01*
Y140425D02*X201050Y141925D01*
X202700D01*
X203750Y140425D01*
Y135925D01*
X200000Y138925D02*X203750D01*
X205550D02*Y136675D01*
X206300Y135925D01*
X207800D01*
X208550Y136675D01*
Y138925D02*Y136675D01*
X211100Y141925D02*Y136675D01*
X211850Y135925D01*
X210350Y139675D02*X211850D01*
X213350Y141925D02*Y135925D01*
Y138175D02*X214100Y138925D01*
X215600D01*
X216350Y138175D01*
Y135925D01*
X218150Y138175D02*Y136675D01*
Y138175D02*X218900Y138925D01*
X220400D01*
X221150Y138175D01*
Y136675D01*
X220400Y135925D02*X221150Y136675D01*
X218900Y135925D02*X220400D01*
X218150Y136675D02*X218900Y135925D01*
X223700Y138175D02*Y135925D01*
Y138175D02*X224450Y138925D01*
X225950D01*
X222950D02*X223700Y138175D01*
X227750Y139675D02*X228500D01*
X227750Y138175D02*X228500D01*
X234050Y135925D02*X236000D01*
X233000Y136975D02*X234050Y135925D01*
X233000Y140875D02*Y136975D01*
Y140875D02*X234050Y141925D01*
X236000D01*
X237800D02*Y136675D01*
X238550Y135925D01*
G54D80*G36*
X240050Y143425D02*Y133675D01*
X247550D01*
Y143425D01*
X240050D01*
G37*
G36*
X249050D02*Y133675D01*
X256550D01*
Y143425D01*
X249050D01*
G37*
G54D81*X258800Y138175D02*Y135925D01*
Y138175D02*X259550Y138925D01*
X260300D01*
X261050Y138175D01*
Y135925D01*
Y138175D02*X261800Y138925D01*
X262550D01*
X263300Y138175D01*
Y135925D01*
X258050Y138925D02*X258800Y138175D01*
X265850Y135925D02*X268100D01*
X265100Y136675D02*X265850Y135925D01*
X265100Y138175D02*Y136675D01*
Y138175D02*X265850Y138925D01*
X267350D01*
X268100Y138175D01*
X265100Y137425D02*X268100D01*
Y138175D02*Y137425D01*
X270650Y138175D02*Y135925D01*
Y138175D02*X271400Y138925D01*
X272150D01*
X272900Y138175D01*
Y135925D01*
X269900Y138925D02*X270650Y138175D01*
X275450Y141925D02*Y136675D01*
X276200Y135925D01*
X274700Y139675D02*X276200D01*
X280400Y135925D02*X283400D01*
X284150Y136675D01*
Y138475D02*Y136675D01*
X283400Y139225D02*X284150Y138475D01*
X281150Y139225D02*X283400D01*
X281150Y141925D02*Y135925D01*
X280400Y141925D02*X283400D01*
X284150Y141175D01*
Y139975D01*
X283400Y139225D02*X284150Y139975D01*
X285950Y139225D02*X288200D01*
X285950Y135925D02*X288950D01*
X285950Y141925D02*Y135925D01*
Y141925D02*X288950D01*
X290750D02*Y135925D01*
Y141925D02*X294500Y135925D01*
Y141925D02*Y135925D01*
X296300Y141175D02*Y136675D01*
Y141175D02*X297050Y141925D01*
X298550D01*
X299300Y141175D01*
Y136675D01*
X298550Y135925D02*X299300Y136675D01*
X297050Y135925D02*X298550D01*
X296300Y136675D02*X297050Y135925D01*
X301100Y141925D02*X302600D01*
X301850D02*Y135925D01*
X301100D02*X302600D01*
X304400Y141925D02*X307400D01*
X305900D02*Y135925D01*
X200000Y156925D02*X203000D01*
X201500D02*Y150925D01*
G54D82*X204800Y155425D02*Y155275D01*
G54D81*Y153175D02*Y150925D01*
X207050Y156925D02*Y151675D01*
X207800Y150925D01*
X206300Y154675D02*X207800D01*
X209300Y156925D02*Y151675D01*
X210050Y150925D01*
X212300D02*X214550D01*
X211550Y151675D02*X212300Y150925D01*
X211550Y153175D02*Y151675D01*
Y153175D02*X212300Y153925D01*
X213800D01*
X214550Y153175D01*
X211550Y152425D02*X214550D01*
Y153175D02*Y152425D01*
X216350Y154675D02*X217100D01*
X216350Y153175D02*X217100D01*
X221600Y151675D02*X222350Y150925D01*
X221600Y156175D02*X222350Y156925D01*
X221600Y156175D02*Y151675D01*
X224150Y153925D02*Y151675D01*
X224900Y150925D01*
X226400D01*
X227150Y151675D01*
Y153925D02*Y151675D01*
X229700Y153175D02*Y150925D01*
Y153175D02*X230450Y153925D01*
X231200D01*
X231950Y153175D01*
Y150925D01*
X228950Y153925D02*X229700Y153175D01*
X233750Y156925D02*Y150925D01*
Y153175D02*X236000Y150925D01*
X233750Y153175D02*X235250Y154675D01*
X238550Y153175D02*Y150925D01*
Y153175D02*X239300Y153925D01*
X240050D01*
X240800Y153175D01*
Y150925D01*
X237800Y153925D02*X238550Y153175D01*
X242600D02*Y151675D01*
Y153175D02*X243350Y153925D01*
X244850D01*
X245600Y153175D01*
Y151675D01*
X244850Y150925D02*X245600Y151675D01*
X243350Y150925D02*X244850D01*
X242600Y151675D02*X243350Y150925D01*
X247400Y153925D02*Y151675D01*
X248150Y150925D01*
X248900D01*
X249650Y151675D01*
Y153925D02*Y151675D01*
X250400Y150925D01*
X251150D01*
X251900Y151675D01*
Y153925D02*Y151675D01*
X254450Y153175D02*Y150925D01*
Y153175D02*X255200Y153925D01*
X255950D01*
X256700Y153175D01*
Y150925D01*
X253700Y153925D02*X254450Y153175D01*
X258500Y156925D02*X259250Y156175D01*
Y151675D01*
X258500Y150925D02*X259250Y151675D01*
X263750Y153925D02*X266750D01*
X271250Y156925D02*Y150925D01*
Y156925D02*X274250D01*
X271250Y154225D02*X273500D01*
X278300Y153925D02*X279050Y153175D01*
X276800Y153925D02*X278300D01*
X276050Y153175D02*X276800Y153925D01*
X276050Y153175D02*Y151675D01*
X276800Y150925D01*
X279050Y153925D02*Y151675D01*
X279800Y150925D01*
X276800D02*X278300D01*
X279050Y151675D01*
X281600Y156925D02*Y150925D01*
Y151675D02*X282350Y150925D01*
X283850D01*
X284600Y151675D01*
Y153175D02*Y151675D01*
X283850Y153925D02*X284600Y153175D01*
X282350Y153925D02*X283850D01*
X281600Y153175D02*X282350Y153925D01*
X287150Y153175D02*Y150925D01*
Y153175D02*X287900Y153925D01*
X289400D01*
X286400D02*X287150Y153175D01*
G54D82*X291200Y155425D02*Y155275D01*
G54D81*Y153175D02*Y150925D01*
X293450Y153925D02*X295700D01*
X292700Y153175D02*X293450Y153925D01*
X292700Y153175D02*Y151675D01*
X293450Y150925D01*
X295700D01*
X299750Y153925D02*X300500Y153175D01*
X298250Y153925D02*X299750D01*
X297500Y153175D02*X298250Y153925D01*
X297500Y153175D02*Y151675D01*
X298250Y150925D01*
X300500Y153925D02*Y151675D01*
X301250Y150925D01*
X298250D02*X299750D01*
X300500Y151675D01*
X303800Y156925D02*Y151675D01*
X304550Y150925D01*
X303050Y154675D02*X304550D01*
G54D82*X306050Y155425D02*Y155275D01*
G54D81*Y153175D02*Y150925D01*
X307550Y153175D02*Y151675D01*
Y153175D02*X308300Y153925D01*
X309800D01*
X310550Y153175D01*
Y151675D01*
X309800Y150925D02*X310550Y151675D01*
X308300Y150925D02*X309800D01*
X307550Y151675D02*X308300Y150925D01*
X313100Y153175D02*Y150925D01*
Y153175D02*X313850Y153925D01*
X314600D01*
X315350Y153175D01*
Y150925D01*
X312350Y153925D02*X313100Y153175D01*
X320600Y156925D02*Y150925D01*
X322550Y156925D02*X323600Y155875D01*
Y151975D01*
X322550Y150925D02*X323600Y151975D01*
X319850Y150925D02*X322550D01*
X319850Y156925D02*X322550D01*
X326150Y153175D02*Y150925D01*
Y153175D02*X326900Y153925D01*
X328400D01*
X325400D02*X326150Y153175D01*
X332450Y153925D02*X333200Y153175D01*
X330950Y153925D02*X332450D01*
X330200Y153175D02*X330950Y153925D01*
X330200Y153175D02*Y151675D01*
X330950Y150925D01*
X333200Y153925D02*Y151675D01*
X333950Y150925D01*
X330950D02*X332450D01*
X333200Y151675D01*
X335750Y153925D02*Y151675D01*
X336500Y150925D01*
X337250D01*
X338000Y151675D01*
Y153925D02*Y151675D01*
X338750Y150925D01*
X339500D01*
X340250Y151675D01*
Y153925D02*Y151675D01*
G54D82*X342050Y155425D02*Y155275D01*
G54D81*Y153175D02*Y150925D01*
X344300Y153175D02*Y150925D01*
Y153175D02*X345050Y153925D01*
X345800D01*
X346550Y153175D01*
Y150925D01*
X343550Y153925D02*X344300Y153175D01*
X350600Y153925D02*X351350Y153175D01*
X349100Y153925D02*X350600D01*
X348350Y153175D02*X349100Y153925D01*
X348350Y153175D02*Y151675D01*
X349100Y150925D01*
X350600D01*
X351350Y151675D01*
X348350Y149425D02*X349100Y148675D01*
X350600D01*
X351350Y149425D01*
Y153925D02*Y149425D01*
M02*
