G04 start of page 11 for group -4015 idx -4015 *
G04 Title: (unknown), toppaste *
G04 Creator: pcb 20140316 *
G04 CreationDate: Tue Dec  8 09:12:03 2015 UTC *
G04 For: clemi *
G04 Format: Gerber/RS-274X *
G04 PCB-Dimensions (mil): 1338.58 984.25 *
G04 PCB-Coordinate-Origin: lower left *
%MOIN*%
%FSLAX25Y25*%
%LNTOPPASTE*%
%ADD76R,0.0295X0.0295*%
%ADD75C,0.0001*%
%ADD74R,0.0630X0.0630*%
%ADD73R,0.0374X0.0374*%
%ADD72R,0.0846X0.0846*%
%ADD71R,0.0236X0.0236*%
%ADD70R,0.0433X0.0433*%
%ADD69R,0.0197X0.0197*%
%ADD68R,0.0394X0.0394*%
%ADD67R,0.0157X0.0157*%
%ADD66R,0.0512X0.0512*%
G54D66*X103543Y34646D02*Y32284D01*
X91733Y34646D02*Y32284D01*
G54D67*X25984Y13189D02*Y6102D01*
X28740Y13189D02*Y6102D01*
X31496Y13189D02*Y6102D01*
X34252Y13189D02*Y6102D01*
X37008Y13189D02*Y6102D01*
X39764Y13189D02*Y6102D01*
X42520Y13189D02*Y6102D01*
X45276Y13189D02*Y6102D01*
X48031Y13189D02*Y6102D01*
X50787Y13189D02*Y6102D01*
X53543Y13189D02*Y6102D01*
X56299Y13189D02*Y6102D01*
X59055Y13189D02*Y6102D01*
X61811Y13189D02*Y6102D01*
X64567Y13189D02*Y6102D01*
X67323Y13189D02*Y6102D01*
X70079Y13189D02*Y6102D01*
X72835Y13189D02*Y6102D01*
X75591Y13189D02*Y6102D01*
X78346Y13189D02*Y6102D01*
X81102Y13189D02*Y6102D01*
X83858Y13189D02*Y6102D01*
X86614Y13189D02*Y6102D01*
X89370Y13189D02*Y6102D01*
X92126Y13189D02*Y6102D01*
X94882Y13189D02*Y6102D01*
X97638Y13189D02*Y6102D01*
X100394Y13189D02*Y6102D01*
X103150Y13189D02*Y6102D01*
X105906Y13189D02*Y6102D01*
G54D68*X126220Y10748D02*Y8976D01*
X119528Y10748D02*Y8976D01*
Y31024D02*Y29252D01*
X126220Y31024D02*Y29252D01*
G54D69*X29134Y85432D02*Y84646D01*
X25986Y85432D02*Y84646D01*
G54D70*X6339Y90827D02*X7913D01*
X18150D02*X19724D01*
X18150Y84921D02*X19724D01*
X6339D02*X7913D01*
G54D71*X34331Y66969D02*Y66575D01*
X26850Y66969D02*Y66575D01*
X30591Y74843D02*Y74449D01*
G54D69*X30511Y79960D02*Y79174D01*
X27363Y79960D02*Y79174D01*
X28976Y91180D02*Y90394D01*
X25828Y91180D02*Y90394D01*
G54D71*X49724Y67047D02*Y66654D01*
X42244Y67047D02*Y66654D01*
X45984Y74921D02*Y74528D01*
X42323Y89173D02*Y88780D01*
X49803Y89173D02*Y88780D01*
X46063Y81299D02*Y80906D01*
G54D69*X49804Y93110D02*Y92324D01*
X52952Y93110D02*Y92324D01*
X26970Y62991D02*Y62205D01*
X30118Y62991D02*Y62205D01*
X42324Y62991D02*Y62205D01*
X45472Y62991D02*Y62205D01*
X110827Y6891D02*X111613D01*
X110827Y10039D02*X111613D01*
G54D72*X99409Y53425D02*Y49094D01*
G54D73*X74213Y60315D02*X78937D01*
X74213Y51260D02*X78937D01*
X74213Y42205D02*X78937D01*
G54D66*X88700Y70709D02*Y68347D01*
X76890Y70709D02*Y68347D01*
G54D69*X61812Y21653D02*Y20867D01*
X64960Y21653D02*Y20867D01*
X89765Y17716D02*Y16930D01*
X92913Y17716D02*Y16930D01*
X103937Y17716D02*Y16930D01*
X100789Y17716D02*Y16930D01*
X56691Y17519D02*Y16733D01*
X53543Y17519D02*Y16733D01*
X78936Y17519D02*Y16733D01*
X75788Y17519D02*Y16733D01*
X69292Y17519D02*Y16733D01*
X72440Y17519D02*Y16733D01*
X44683Y17714D02*Y16928D01*
X41535Y17714D02*Y16928D01*
X31691Y17716D02*Y16930D01*
X28543Y17716D02*Y16930D01*
X37794Y17716D02*Y16930D01*
X34646Y17716D02*Y16930D01*
X61812Y17519D02*Y16733D01*
X64960Y17519D02*Y16733D01*
X61811Y25590D02*Y24804D01*
X64959Y25590D02*Y24804D01*
X108071Y58267D02*Y57481D01*
X111219Y58267D02*Y57481D01*
X108346Y30905D02*Y30119D01*
X111494Y30905D02*Y30119D01*
G54D68*X126220Y65551D02*Y63780D01*
X119528Y65551D02*Y63780D01*
Y85827D02*Y84055D01*
X126220Y85827D02*Y84055D01*
G54D69*X121654Y92913D02*Y92127D01*
X124802Y92913D02*Y92127D01*
X21851Y45669D02*X22637D01*
X21851Y48817D02*X22637D01*
X110235Y40944D02*Y40158D01*
X107087Y40944D02*Y40158D01*
X44685Y27952D02*Y27166D01*
X41537Y27952D02*Y27166D01*
G54D67*X18110Y29921D02*X21850D01*
X18110Y27362D02*X21850D01*
X18110Y24803D02*X21850D01*
X18110Y22244D02*X21850D01*
X18110Y19685D02*X21850D01*
G54D74*X19488Y37992D02*Y36024D01*
Y13583D02*Y11614D01*
G54D75*G36*
X5709Y44488D02*Y37008D01*
X13189D01*
Y44488D01*
X5709D01*
G37*
G36*
Y33268D02*Y25787D01*
X13189D01*
Y33268D01*
X5709D01*
G37*
G36*
Y23819D02*Y16339D01*
X13189D01*
Y23819D01*
X5709D01*
G37*
G36*
Y12598D02*Y5118D01*
X13189D01*
Y12598D01*
X5709D01*
G37*
G54D68*X8150Y70984D02*Y69213D01*
X14843Y70984D02*Y69213D01*
Y50709D02*Y48937D01*
X8150Y50709D02*Y48937D01*
X126181Y37992D02*Y36220D01*
X119488Y37992D02*Y36220D01*
Y58268D02*Y56496D01*
X126181Y58268D02*Y56496D01*
G54D76*X96358Y22441D02*X97342D01*
X96358Y17323D02*X97342D01*
G54D66*X73623Y34646D02*Y32284D01*
X85433Y34646D02*Y32284D01*
M02*
