G04 start of page 2 for group 0 idx 0 *
G04 Title: (unknown), top *
G04 Creator: pcb 20140316 *
G04 CreationDate: Tue Dec  8 09:12:03 2015 UTC *
G04 For: clemi *
G04 Format: Gerber/RS-274X *
G04 PCB-Dimensions (mil): 1338.58 984.25 *
G04 PCB-Coordinate-Origin: lower left *
%MOIN*%
%FSLAX25Y25*%
%LNTOP*%
%ADD28C,0.0118*%
%ADD27C,0.0240*%
%ADD26C,0.0360*%
%ADD25R,0.0295X0.0295*%
%ADD24R,0.0374X0.0374*%
%ADD23R,0.0846X0.0846*%
%ADD22R,0.0512X0.0512*%
%ADD21R,0.0236X0.0236*%
%ADD20R,0.0433X0.0433*%
%ADD19R,0.0197X0.0197*%
%ADD18R,0.0630X0.0630*%
%ADD17R,0.0394X0.0394*%
%ADD16R,0.0157X0.0157*%
%ADD15C,0.0060*%
%ADD14C,0.0200*%
%ADD13C,0.0250*%
%ADD12C,0.0100*%
%ADD11C,0.0001*%
G54D11*G36*
X57913Y71335D02*X65795D01*
X65833Y71179D01*
X66001Y70772D01*
X66232Y70396D01*
X66518Y70061D01*
X66826Y69798D01*
X66715Y69703D01*
X66429Y69367D01*
X66336Y69217D01*
X61279D01*
X61220Y69221D01*
X60985Y69203D01*
X60756Y69148D01*
X60537Y69057D01*
X60336Y68934D01*
X60336Y68934D01*
X60157Y68780D01*
X60118Y68736D01*
X57913Y66530D01*
Y71335D01*
G37*
G36*
Y75945D02*X59252Y74606D01*
X67365D01*
X67229Y74550D01*
X66878Y74335D01*
X57913D01*
Y75945D01*
G37*
G36*
X96851Y36974D02*X99988Y33838D01*
X99993Y29568D01*
X100030Y29415D01*
X100090Y29269D01*
X100172Y29135D01*
X100275Y29015D01*
X100394Y28913D01*
X100528Y28831D01*
X100674Y28771D01*
X100827Y28734D01*
X100984Y28725D01*
X101293Y28725D01*
Y27878D01*
X96851D01*
Y36974D01*
G37*
G36*
X128186Y96457D02*X129331D01*
X131890Y93898D01*
Y4921D01*
X128937Y1969D01*
X128186D01*
Y17917D01*
X128189Y17917D01*
X128515Y17943D01*
X128833Y18019D01*
X129135Y18144D01*
X129413Y18315D01*
X129662Y18527D01*
X129874Y18776D01*
X130045Y19054D01*
X130170Y19356D01*
X130246Y19674D01*
X130265Y20000D01*
X130246Y20326D01*
X130170Y20644D01*
X130045Y20946D01*
X129874Y21224D01*
X129662Y21473D01*
X129413Y21685D01*
X129135Y21856D01*
X128833Y21981D01*
X128515Y22057D01*
X128189Y22083D01*
X128186Y22083D01*
Y45164D01*
X128475Y45187D01*
X128793Y45263D01*
X129095Y45388D01*
X129374Y45559D01*
X129622Y45771D01*
X129835Y46020D01*
X130005Y46299D01*
X130130Y46600D01*
X130207Y46918D01*
X130226Y47244D01*
X130207Y47570D01*
X130130Y47888D01*
X130005Y48190D01*
X129835Y48468D01*
X129622Y48717D01*
X129374Y48929D01*
X129095Y49100D01*
X128793Y49225D01*
X128475Y49301D01*
X128186Y49324D01*
Y72721D01*
X128189Y72720D01*
X128515Y72746D01*
X128833Y72822D01*
X129135Y72947D01*
X129413Y73118D01*
X129662Y73330D01*
X129874Y73579D01*
X130045Y73858D01*
X130170Y74160D01*
X130246Y74477D01*
X130265Y74803D01*
X130246Y75129D01*
X130170Y75447D01*
X130045Y75749D01*
X129874Y76027D01*
X129662Y76276D01*
X129413Y76488D01*
X129135Y76659D01*
X128833Y76784D01*
X128515Y76860D01*
X128189Y76886D01*
X128186Y76886D01*
Y96457D01*
G37*
G36*
X121179Y6413D02*X121590Y6413D01*
X121682Y6435D01*
X121769Y6472D01*
X121850Y6521D01*
X121922Y6582D01*
X121983Y6654D01*
X122032Y6735D01*
X122068Y6822D01*
X122091Y6914D01*
X122096Y7008D01*
X122091Y12811D01*
X122068Y12903D01*
X122032Y12990D01*
X121983Y13070D01*
X121922Y13142D01*
X121850Y13203D01*
X121769Y13253D01*
X121682Y13289D01*
X121590Y13311D01*
X121538Y13314D01*
X122082Y13858D01*
X122127Y13897D01*
X122280Y14076D01*
X122280Y14076D01*
X122404Y14278D01*
X122494Y14496D01*
X122549Y14725D01*
X122568Y14961D01*
X122563Y15019D01*
Y21651D01*
X122714Y21744D01*
X123049Y22030D01*
X123335Y22365D01*
X123566Y22741D01*
X123734Y23148D01*
X123837Y23576D01*
X123863Y24016D01*
X123837Y24455D01*
X123734Y24884D01*
X123566Y25291D01*
X123335Y25667D01*
X123049Y26002D01*
X122714Y26288D01*
X122338Y26518D01*
X121931Y26687D01*
X121736Y26734D01*
X121769Y26747D01*
X121850Y26797D01*
X121922Y26858D01*
X121983Y26930D01*
X122032Y27010D01*
X122068Y27097D01*
X122091Y27189D01*
X122096Y27283D01*
X122091Y33086D01*
X122068Y33178D01*
X122032Y33265D01*
X121983Y33346D01*
X121922Y33418D01*
X121850Y33479D01*
X121769Y33528D01*
X121682Y33565D01*
X121590Y33587D01*
X121496Y33592D01*
X121179Y33592D01*
Y33657D01*
X121551Y33658D01*
X121643Y33680D01*
X121730Y33716D01*
X121810Y33765D01*
X121882Y33826D01*
X121944Y33898D01*
X121993Y33979D01*
X122029Y34066D01*
X122051Y34158D01*
X122057Y34252D01*
X122052Y39387D01*
X122198Y39352D01*
X122638Y39317D01*
X123077Y39352D01*
X123506Y39455D01*
X123913Y39623D01*
X124289Y39854D01*
X124624Y40140D01*
X124910Y40475D01*
X125140Y40851D01*
X125309Y41258D01*
X125412Y41687D01*
X125438Y42126D01*
X125412Y42565D01*
X125309Y42994D01*
X125140Y43401D01*
X124910Y43777D01*
X124624Y44112D01*
X124289Y44398D01*
X123913Y44628D01*
X123506Y44797D01*
X123077Y44900D01*
X122638Y44935D01*
X122198Y44900D01*
X121770Y44797D01*
X121363Y44628D01*
X121179Y44516D01*
Y53933D01*
X121551Y53933D01*
X121643Y53955D01*
X121730Y53991D01*
X121810Y54041D01*
X121882Y54102D01*
X121944Y54174D01*
X121993Y54254D01*
X122029Y54342D01*
X122051Y54433D01*
X122057Y54528D01*
X122051Y60330D01*
X122029Y60422D01*
X121993Y60509D01*
X121944Y60590D01*
X121882Y60662D01*
X121810Y60723D01*
X121730Y60772D01*
X121643Y60809D01*
X121551Y60831D01*
X121457Y60836D01*
X121179Y60836D01*
Y61216D01*
X121590Y61217D01*
X121682Y61239D01*
X121769Y61275D01*
X121850Y61324D01*
X121922Y61385D01*
X121983Y61457D01*
X122032Y61538D01*
X122068Y61625D01*
X122091Y61717D01*
X122096Y61811D01*
X122091Y67614D01*
X122068Y67706D01*
X122032Y67793D01*
X121983Y67873D01*
X121922Y67945D01*
X121850Y68007D01*
X121776Y68052D01*
Y68305D01*
X121926Y68397D01*
X122262Y68683D01*
X122548Y69018D01*
X122778Y69394D01*
X122947Y69801D01*
X123050Y70230D01*
X123076Y70669D01*
X123050Y71109D01*
X122947Y71537D01*
X122778Y71944D01*
X122548Y72320D01*
X122262Y72655D01*
X121926Y72942D01*
X121551Y73172D01*
X121179Y73326D01*
Y81492D01*
X121590Y81492D01*
X121682Y81514D01*
X121769Y81550D01*
X121850Y81600D01*
X121922Y81661D01*
X121983Y81733D01*
X122032Y81813D01*
X122068Y81901D01*
X122091Y81992D01*
X122096Y82087D01*
X122092Y85916D01*
X125625Y89449D01*
X125670Y89487D01*
X125823Y89666D01*
X125824Y89667D01*
X125947Y89868D01*
X126037Y90086D01*
X126060Y90180D01*
X126096Y90189D01*
X126242Y90249D01*
X126376Y90331D01*
X126496Y90433D01*
X126598Y90553D01*
X126680Y90687D01*
X126740Y90833D01*
X126777Y90986D01*
X126786Y91143D01*
X126777Y94054D01*
X126740Y94207D01*
X126680Y94352D01*
X126598Y94486D01*
X126496Y94606D01*
X126376Y94708D01*
X126242Y94790D01*
X126096Y94851D01*
X125943Y94887D01*
X125786Y94897D01*
X123661Y94887D01*
X123508Y94851D01*
X123363Y94790D01*
X123229Y94708D01*
X123228Y94708D01*
X123228Y94708D01*
X123094Y94790D01*
X122948Y94851D01*
X122795Y94887D01*
X122638Y94897D01*
X121179Y94890D01*
Y96457D01*
X128186D01*
Y76886D01*
X127863Y76860D01*
X127545Y76784D01*
X127243Y76659D01*
X126965Y76488D01*
X126716Y76276D01*
X126504Y76027D01*
X126333Y75749D01*
X126208Y75447D01*
X126132Y75129D01*
X126106Y74803D01*
X126132Y74477D01*
X126208Y74160D01*
X126333Y73858D01*
X126504Y73579D01*
X126716Y73330D01*
X126965Y73118D01*
X127243Y72947D01*
X127545Y72822D01*
X127863Y72746D01*
X128186Y72721D01*
Y49324D01*
X128150Y49327D01*
X127824Y49301D01*
X127506Y49225D01*
X127204Y49100D01*
X126925Y48929D01*
X126677Y48717D01*
X126465Y48468D01*
X126294Y48190D01*
X126169Y47888D01*
X126092Y47570D01*
X126067Y47244D01*
X126092Y46918D01*
X126169Y46600D01*
X126294Y46299D01*
X126465Y46020D01*
X126677Y45771D01*
X126925Y45559D01*
X127204Y45388D01*
X127506Y45263D01*
X127824Y45187D01*
X128150Y45161D01*
X128186Y45164D01*
Y22083D01*
X127863Y22057D01*
X127545Y21981D01*
X127243Y21856D01*
X126965Y21685D01*
X126716Y21473D01*
X126504Y21224D01*
X126333Y20946D01*
X126208Y20644D01*
X126132Y20326D01*
X126106Y20000D01*
X126132Y19674D01*
X126208Y19356D01*
X126333Y19054D01*
X126504Y18776D01*
X126716Y18527D01*
X126965Y18315D01*
X127243Y18144D01*
X127545Y18019D01*
X127863Y17943D01*
X128186Y17917D01*
Y1969D01*
X121179D01*
Y6413D01*
G37*
G36*
Y94890D02*X120513Y94887D01*
X120360Y94851D01*
X120215Y94790D01*
X120081Y94708D01*
X119961Y94606D01*
X119859Y94486D01*
X119777Y94352D01*
X119716Y94207D01*
X119680Y94054D01*
X119678Y94020D01*
X117972D01*
X117913Y94024D01*
X117678Y94006D01*
X117448Y93951D01*
X117230Y93860D01*
X117029Y93737D01*
X117029Y93737D01*
X116849Y93584D01*
X116811Y93539D01*
X114532Y91260D01*
X114487Y91221D01*
X114334Y91042D01*
X114211Y90841D01*
X114120Y90622D01*
X114065Y90393D01*
X114065Y90392D01*
X114047Y90157D01*
X114051Y90099D01*
Y67550D01*
X107249Y60748D01*
X107204Y60710D01*
X107050Y60530D01*
X106927Y60329D01*
X106887Y60231D01*
X106777Y60205D01*
X106631Y60145D01*
X106497Y60063D01*
X106378Y59960D01*
X106275Y59841D01*
X106193Y59706D01*
X106133Y59561D01*
X106096Y59408D01*
X106087Y59251D01*
X106096Y56340D01*
X106133Y56187D01*
X106193Y56042D01*
X106275Y55907D01*
X106378Y55788D01*
X106497Y55686D01*
X106571Y55640D01*
Y55535D01*
X104237D01*
X104236Y57752D01*
X104214Y57843D01*
X104178Y57931D01*
X104129Y58011D01*
X104067Y58083D01*
X103995Y58144D01*
X103915Y58194D01*
X103828Y58230D01*
X103736Y58252D01*
X103642Y58257D01*
X96851Y58253D01*
Y74606D01*
X109646D01*
X112598Y77559D01*
Y93701D01*
X115354Y96457D01*
X121179D01*
Y94890D01*
G37*
G36*
Y73326D02*X121144Y73340D01*
X120715Y73443D01*
X120276Y73478D01*
X119836Y73443D01*
X119408Y73340D01*
X119000Y73172D01*
X118625Y72942D01*
X118290Y72655D01*
X118003Y72320D01*
X117773Y71944D01*
X117604Y71537D01*
X117502Y71109D01*
X117467Y70669D01*
X117502Y70230D01*
X117604Y69801D01*
X117773Y69394D01*
X118003Y69018D01*
X118290Y68683D01*
X118625Y68397D01*
X118776Y68305D01*
Y68116D01*
X117465Y68114D01*
X117373Y68092D01*
X117286Y68056D01*
X117205Y68007D01*
X117133Y67945D01*
X117072Y67873D01*
X117051Y67839D01*
Y72790D01*
X117233Y72746D01*
X117559Y72720D01*
X117885Y72746D01*
X118203Y72822D01*
X118505Y72947D01*
X118783Y73118D01*
X119032Y73330D01*
X119244Y73579D01*
X119415Y73858D01*
X119540Y74160D01*
X119616Y74477D01*
X119635Y74803D01*
X119616Y75129D01*
X119540Y75447D01*
X119415Y75749D01*
X119244Y76027D01*
X119032Y76276D01*
X118783Y76488D01*
X118505Y76659D01*
X118203Y76784D01*
X117885Y76860D01*
X117559Y76886D01*
X117233Y76860D01*
X117051Y76817D01*
Y81767D01*
X117072Y81733D01*
X117133Y81661D01*
X117205Y81600D01*
X117286Y81550D01*
X117373Y81514D01*
X117465Y81492D01*
X117559Y81487D01*
X121179Y81492D01*
Y73326D01*
G37*
G36*
Y60836D02*X117426Y60831D01*
X117334Y60809D01*
X117246Y60772D01*
X117166Y60723D01*
X117094Y60662D01*
X117033Y60590D01*
X116983Y60509D01*
X116947Y60422D01*
X116925Y60330D01*
X116920Y60236D01*
X116921Y58882D01*
X113195D01*
X113194Y59408D01*
X113157Y59561D01*
X113097Y59706D01*
X113014Y59841D01*
X112912Y59960D01*
X112792Y60063D01*
X112658Y60145D01*
X112513Y60205D01*
X112360Y60242D01*
X112203Y60251D01*
X110989Y60246D01*
X116570Y65827D01*
X116615Y65865D01*
X116768Y66045D01*
X116768Y66045D01*
X116892Y66246D01*
X116960Y66411D01*
X116965Y61717D01*
X116987Y61625D01*
X117023Y61538D01*
X117072Y61457D01*
X117133Y61385D01*
X117205Y61324D01*
X117286Y61275D01*
X117373Y61239D01*
X117465Y61217D01*
X117559Y61211D01*
X121179Y61216D01*
Y60836D01*
G37*
G36*
X117516Y53928D02*X117520Y53928D01*
X121179Y53933D01*
Y44516D01*
X120987Y44398D01*
X120652Y44112D01*
X120366Y43777D01*
X120135Y43401D01*
X119967Y42994D01*
X119864Y42565D01*
X119829Y42126D01*
X119864Y41687D01*
X119905Y41515D01*
X118948Y40557D01*
X117516Y40555D01*
Y45162D01*
X117520Y45161D01*
X117846Y45187D01*
X118163Y45263D01*
X118465Y45388D01*
X118744Y45559D01*
X118992Y45771D01*
X119205Y46020D01*
X119375Y46299D01*
X119501Y46600D01*
X119577Y46918D01*
X119596Y47244D01*
X119577Y47570D01*
X119501Y47888D01*
X119375Y48190D01*
X119205Y48468D01*
X118992Y48717D01*
X118744Y48929D01*
X118465Y49100D01*
X118163Y49225D01*
X117846Y49301D01*
X117520Y49327D01*
X117516Y49327D01*
Y53928D01*
G37*
G36*
X121179Y33592D02*X117516Y33587D01*
Y33652D01*
X117520Y33652D01*
X121179Y33657D01*
Y33592D01*
G37*
G36*
X117516Y33587D02*X117465Y33587D01*
X117373Y33565D01*
X117286Y33528D01*
X117205Y33479D01*
X117133Y33418D01*
X117072Y33346D01*
X117023Y33265D01*
X116987Y33178D01*
X116965Y33086D01*
X116959Y32992D01*
X116960Y31638D01*
X113470D01*
X113469Y32046D01*
X113432Y32199D01*
X113372Y32344D01*
X113290Y32478D01*
X113187Y32598D01*
X113068Y32700D01*
X112933Y32783D01*
X112788Y32843D01*
X112635Y32880D01*
X112478Y32889D01*
X110353Y32880D01*
X110200Y32843D01*
X110055Y32783D01*
X109920Y32700D01*
X109920Y32700D01*
X109920Y32700D01*
X109859Y32738D01*
X111255Y34134D01*
X111300Y34172D01*
X111453Y34352D01*
X111453Y34352D01*
X111577Y34553D01*
X111667Y34771D01*
X111722Y35001D01*
X111741Y35236D01*
X111735Y35315D01*
Y38318D01*
X111808Y38363D01*
X111928Y38465D01*
X112030Y38585D01*
X112112Y38719D01*
X112173Y38864D01*
X112209Y39017D01*
X112219Y39174D01*
X112209Y42085D01*
X112173Y42238D01*
X112112Y42384D01*
X112030Y42518D01*
X111928Y42637D01*
X111808Y42740D01*
X111674Y42822D01*
X111529Y42882D01*
X111376Y42919D01*
X111219Y42928D01*
X109094Y42919D01*
X108941Y42882D01*
X108795Y42822D01*
X108661Y42740D01*
X108661Y42739D01*
X108660Y42740D01*
X108526Y42822D01*
X108381Y42882D01*
X108228Y42919D01*
X108071Y42928D01*
X105946Y42919D01*
X105793Y42882D01*
X105753Y42866D01*
X105529Y43128D01*
X105194Y43414D01*
X104818Y43644D01*
X104411Y43813D01*
X103983Y43916D01*
X103543Y43950D01*
X103104Y43916D01*
X102675Y43813D01*
X102268Y43644D01*
X101892Y43414D01*
X101557Y43128D01*
X101271Y42793D01*
X101041Y42417D01*
X100872Y42010D01*
X100769Y41581D01*
X100735Y41142D01*
X100769Y40702D01*
X100872Y40274D01*
X101041Y39867D01*
X101271Y39491D01*
X101557Y39156D01*
X101892Y38870D01*
X102268Y38639D01*
X102675Y38471D01*
X103104Y38368D01*
X103543Y38333D01*
X103983Y38368D01*
X104411Y38471D01*
X104818Y38639D01*
X105156Y38846D01*
X105209Y38719D01*
X105291Y38585D01*
X105393Y38465D01*
X105513Y38363D01*
X105647Y38280D01*
X105793Y38220D01*
X105860Y38204D01*
X101992Y38197D01*
X97178Y43012D01*
X98431Y44264D01*
X103736Y44268D01*
X103828Y44290D01*
X103915Y44326D01*
X103995Y44375D01*
X104067Y44437D01*
X104129Y44508D01*
X104178Y44589D01*
X104214Y44676D01*
X104236Y44768D01*
X104242Y44862D01*
X104238Y52535D01*
X108169D01*
X108405Y52549D01*
X108634Y52604D01*
X108852Y52695D01*
X109054Y52818D01*
X109233Y52972D01*
X109387Y53151D01*
X109510Y53352D01*
X109600Y53570D01*
X109655Y53800D01*
X109674Y54035D01*
X109655Y54271D01*
X109600Y54500D01*
X109571Y54571D01*
Y55640D01*
X109644Y55686D01*
X109645Y55686D01*
X109645Y55686D01*
X109779Y55603D01*
X109925Y55543D01*
X110078Y55506D01*
X110235Y55497D01*
X112360Y55506D01*
X112513Y55543D01*
X112658Y55603D01*
X112792Y55686D01*
X112912Y55788D01*
X112993Y55882D01*
X116924D01*
X116925Y54433D01*
X116947Y54342D01*
X116983Y54254D01*
X117033Y54174D01*
X117094Y54102D01*
X117166Y54041D01*
X117246Y53991D01*
X117334Y53955D01*
X117426Y53933D01*
X117516Y53928D01*
Y49327D01*
X117194Y49301D01*
X116876Y49225D01*
X116574Y49100D01*
X116295Y48929D01*
X116047Y48717D01*
X115835Y48468D01*
X115664Y48190D01*
X115539Y47888D01*
X115463Y47570D01*
X115437Y47244D01*
X115463Y46918D01*
X115539Y46600D01*
X115664Y46299D01*
X115835Y46020D01*
X116047Y45771D01*
X116295Y45559D01*
X116574Y45388D01*
X116876Y45263D01*
X117194Y45187D01*
X117516Y45162D01*
Y40555D01*
X117426Y40555D01*
X117334Y40533D01*
X117246Y40497D01*
X117166Y40448D01*
X117094Y40386D01*
X117033Y40314D01*
X116983Y40234D01*
X116947Y40147D01*
X116925Y40055D01*
X116920Y39961D01*
X116925Y34158D01*
X116947Y34066D01*
X116983Y33979D01*
X117033Y33898D01*
X117094Y33826D01*
X117166Y33765D01*
X117246Y33716D01*
X117334Y33680D01*
X117426Y33658D01*
X117516Y33652D01*
Y33587D01*
G37*
G36*
X96851Y24878D02*X101296D01*
X101313Y24666D01*
X101314Y24647D01*
X101396Y24303D01*
X101532Y23976D01*
X101717Y23674D01*
X101947Y23404D01*
X102014Y23347D01*
X105624Y19737D01*
Y19197D01*
X105602Y19171D01*
X105372Y18795D01*
X105203Y18388D01*
X105100Y17959D01*
X105065Y17520D01*
X105100Y17080D01*
X105203Y16652D01*
X105372Y16245D01*
X105602Y15869D01*
X105888Y15534D01*
X106223Y15247D01*
X106599Y15017D01*
X107006Y14849D01*
X107435Y14746D01*
X107469Y14743D01*
X108970Y13241D01*
Y11513D01*
X108950Y11479D01*
X108889Y11333D01*
X108853Y11180D01*
X108843Y11023D01*
X108853Y8898D01*
X108889Y8745D01*
X108950Y8600D01*
X109032Y8466D01*
X109134Y8346D01*
X109254Y8244D01*
X109388Y8162D01*
X109534Y8101D01*
X109687Y8065D01*
X109843Y8055D01*
X110150Y8056D01*
X110196Y8028D01*
X110523Y7893D01*
X110867Y7810D01*
X111220Y7782D01*
X111574Y7810D01*
X111918Y7893D01*
X112245Y8028D01*
X112302Y8063D01*
X112754Y8065D01*
X112907Y8101D01*
X113053Y8162D01*
X113187Y8244D01*
X113307Y8346D01*
X113409Y8466D01*
X113491Y8600D01*
X113551Y8745D01*
X113588Y8898D01*
X113597Y9055D01*
X113588Y11180D01*
X113551Y11333D01*
X113491Y11479D01*
X113470Y11513D01*
Y14085D01*
X113477Y14173D01*
X113450Y14526D01*
X113450Y14526D01*
X113367Y14871D01*
X113231Y15198D01*
X113046Y15500D01*
X112816Y15769D01*
X112749Y15827D01*
X110650Y17926D01*
X110648Y17959D01*
X110545Y18388D01*
X110377Y18795D01*
X110146Y19171D01*
X110124Y19197D01*
Y20576D01*
X110131Y20669D01*
X110104Y21022D01*
X110021Y21366D01*
X109885Y21694D01*
X109700Y21995D01*
X109699Y21997D01*
X109470Y22265D01*
X109403Y22323D01*
X105793Y25932D01*
Y28733D01*
X106259Y28734D01*
X106412Y28771D01*
X106428Y28777D01*
X106468Y28679D01*
X106550Y28545D01*
X106653Y28426D01*
X106772Y28323D01*
X106907Y28241D01*
X107052Y28181D01*
X107205Y28144D01*
X107362Y28135D01*
X109487Y28144D01*
X109640Y28181D01*
X109785Y28241D01*
X109920Y28323D01*
X109920Y28324D01*
X109920Y28323D01*
X110055Y28241D01*
X110200Y28181D01*
X110353Y28144D01*
X110510Y28135D01*
X112635Y28144D01*
X112788Y28181D01*
X112933Y28241D01*
X113068Y28323D01*
X113187Y28426D01*
X113290Y28545D01*
X113346Y28638D01*
X116963D01*
X116965Y27189D01*
X116987Y27097D01*
X117023Y27010D01*
X117072Y26930D01*
X117133Y26858D01*
X117205Y26797D01*
X117286Y26747D01*
X117373Y26711D01*
X117465Y26689D01*
X117559Y26683D01*
X120196Y26687D01*
X120195Y26687D01*
X119788Y26518D01*
X119412Y26288D01*
X119077Y26002D01*
X118791Y25667D01*
X118560Y25291D01*
X118392Y24884D01*
X118289Y24455D01*
X118254Y24016D01*
X118289Y23576D01*
X118392Y23148D01*
X118560Y22741D01*
X118791Y22365D01*
X119077Y22030D01*
X119412Y21744D01*
X119563Y21651D01*
Y20547D01*
X119540Y20644D01*
X119415Y20946D01*
X119244Y21224D01*
X119032Y21473D01*
X118783Y21685D01*
X118505Y21856D01*
X118203Y21981D01*
X117885Y22057D01*
X117559Y22083D01*
X117233Y22057D01*
X116915Y21981D01*
X116613Y21856D01*
X116335Y21685D01*
X116086Y21473D01*
X115874Y21224D01*
X115703Y20946D01*
X115578Y20644D01*
X115502Y20326D01*
X115476Y20000D01*
X115502Y19674D01*
X115578Y19356D01*
X115703Y19054D01*
X115874Y18776D01*
X116086Y18527D01*
X116335Y18315D01*
X116613Y18144D01*
X116915Y18019D01*
X117233Y17943D01*
X117559Y17917D01*
X117885Y17943D01*
X118203Y18019D01*
X118505Y18144D01*
X118783Y18315D01*
X119032Y18527D01*
X119244Y18776D01*
X119415Y19054D01*
X119540Y19356D01*
X119563Y19453D01*
Y15582D01*
X118508Y14527D01*
X118464Y14489D01*
X118310Y14310D01*
X118187Y14108D01*
X118097Y13890D01*
X118041Y13661D01*
X118041Y13660D01*
X118023Y13425D01*
X118028Y13366D01*
Y13312D01*
X117465Y13311D01*
X117373Y13289D01*
X117286Y13253D01*
X117205Y13203D01*
X117133Y13142D01*
X117072Y13070D01*
X117023Y12990D01*
X116987Y12903D01*
X116965Y12811D01*
X116959Y12717D01*
X116965Y6914D01*
X116987Y6822D01*
X117023Y6735D01*
X117072Y6654D01*
X117133Y6582D01*
X117205Y6521D01*
X117286Y6472D01*
X117373Y6435D01*
X117465Y6413D01*
X117559Y6408D01*
X121179Y6413D01*
Y1969D01*
X96851D01*
Y4715D01*
X98519Y4721D01*
X98611Y4743D01*
X98698Y4779D01*
X98779Y4828D01*
X98851Y4889D01*
X98912Y4961D01*
X98961Y5042D01*
X98998Y5129D01*
X99016Y5205D01*
X99034Y5129D01*
X99070Y5042D01*
X99119Y4961D01*
X99181Y4889D01*
X99253Y4828D01*
X99333Y4779D01*
X99420Y4743D01*
X99512Y4721D01*
X99606Y4715D01*
X101275Y4721D01*
X101367Y4743D01*
X101454Y4779D01*
X101535Y4828D01*
X101607Y4889D01*
X101668Y4961D01*
X101717Y5042D01*
X101753Y5129D01*
X101776Y5221D01*
X101781Y5315D01*
X101779Y8480D01*
X101825Y8590D01*
X101880Y8820D01*
X101894Y9055D01*
Y13946D01*
X102004Y14076D01*
X102005Y14076D01*
X102128Y14278D01*
X102218Y14496D01*
X102274Y14725D01*
X102292Y14961D01*
X102287Y15020D01*
Y15088D01*
X102363Y15134D01*
X102482Y15237D01*
X102585Y15356D01*
X102667Y15490D01*
X102727Y15636D01*
X102764Y15789D01*
X102773Y15946D01*
X102764Y18857D01*
X102727Y19010D01*
X102667Y19155D01*
X102585Y19289D01*
X102482Y19409D01*
X102363Y19511D01*
X102228Y19594D01*
X102083Y19654D01*
X101930Y19691D01*
X101773Y19700D01*
X99648Y19691D01*
X99495Y19654D01*
X99401Y19615D01*
X99274Y19693D01*
X99128Y19753D01*
X98975Y19790D01*
X98818Y19799D01*
X96851Y19794D01*
Y24878D01*
G37*
G36*
Y58253D02*X95599Y58252D01*
X92360Y61491D01*
X92290Y61606D01*
X92220Y61720D01*
X92220Y61720D01*
X91990Y61990D01*
X91922Y62047D01*
X91226Y62743D01*
Y64796D01*
X91416Y64797D01*
X91569Y64834D01*
X91715Y64894D01*
X91849Y64976D01*
X91969Y65078D01*
X92071Y65198D01*
X92153Y65332D01*
X92213Y65478D01*
X92250Y65631D01*
X92259Y65788D01*
X92250Y73424D01*
X92213Y73578D01*
X92153Y73723D01*
X92071Y73857D01*
X91969Y73977D01*
X91849Y74079D01*
X91715Y74161D01*
X91569Y74222D01*
X91416Y74258D01*
X91259Y74268D01*
X85984Y74258D01*
X85831Y74222D01*
X85686Y74161D01*
X85552Y74079D01*
X85432Y73977D01*
X85330Y73857D01*
X85248Y73723D01*
X85187Y73578D01*
X85151Y73424D01*
X85141Y73268D01*
X85151Y65631D01*
X85187Y65478D01*
X85248Y65332D01*
X85330Y65198D01*
X85432Y65078D01*
X85552Y64976D01*
X85686Y64894D01*
X85831Y64834D01*
X85984Y64797D01*
X86141Y64788D01*
X86726Y64789D01*
Y61899D01*
X86719Y61811D01*
X86726Y61723D01*
Y61365D01*
X79090Y53729D01*
X72248Y53724D01*
X72157Y53702D01*
X72069Y53666D01*
X71989Y53617D01*
X71917Y53555D01*
X71856Y53484D01*
X71806Y53403D01*
X71770Y53316D01*
X71748Y53224D01*
X71743Y53130D01*
X71748Y49296D01*
X71770Y49204D01*
X71806Y49117D01*
X71856Y49036D01*
X71917Y48964D01*
X71989Y48903D01*
X72069Y48854D01*
X72157Y48817D01*
X72248Y48795D01*
X72343Y48790D01*
X80901Y48795D01*
X80993Y48817D01*
X81080Y48854D01*
X81161Y48903D01*
X81233Y48964D01*
X81294Y49036D01*
X81343Y49117D01*
X81379Y49204D01*
X81402Y49296D01*
X81407Y49390D01*
X81407Y49673D01*
X81457Y49731D01*
X89606Y57881D01*
X94579Y52908D01*
X94582Y46780D01*
X92763Y44960D01*
X92695Y44903D01*
X92465Y44634D01*
X92280Y44332D01*
X92145Y44005D01*
X92062Y43660D01*
X92062Y43660D01*
X92034Y43307D01*
X92041Y43219D01*
Y42804D01*
X92034Y42716D01*
X92062Y42363D01*
Y42363D01*
X92145Y42019D01*
X92280Y41692D01*
X92351Y41577D01*
X92465Y41390D01*
X92466Y41389D01*
X92695Y41120D01*
X92763Y41063D01*
X96851Y36974D01*
Y27878D01*
X88247D01*
X88188Y27883D01*
X87953Y27864D01*
X87723Y27809D01*
X87505Y27719D01*
X87304Y27595D01*
X87304Y27595D01*
X87124Y27442D01*
X87086Y27397D01*
X83288Y23599D01*
X83117Y23640D01*
X82677Y23675D01*
X82238Y23640D01*
X81809Y23537D01*
X81402Y23369D01*
X81026Y23138D01*
X80691Y22852D01*
X80405Y22517D01*
X80175Y22141D01*
X80006Y21734D01*
X79903Y21306D01*
X79869Y20866D01*
X79903Y20427D01*
X79944Y20255D01*
X79189Y19500D01*
X77795Y19494D01*
X77642Y19457D01*
X77497Y19397D01*
X77363Y19314D01*
X77362Y19314D01*
X77362Y19314D01*
X77287Y19360D01*
Y20470D01*
X77438Y20562D01*
X77773Y20849D01*
X78060Y21184D01*
X78290Y21560D01*
X78459Y21967D01*
X78561Y22395D01*
X78587Y22835D01*
X78561Y23274D01*
X78459Y23703D01*
X78290Y24110D01*
X78060Y24486D01*
X77773Y24821D01*
X77438Y25107D01*
X77062Y25337D01*
X76655Y25506D01*
X76227Y25609D01*
X75787Y25643D01*
X75348Y25609D01*
X74919Y25506D01*
X74512Y25337D01*
X74137Y25107D01*
X73801Y24821D01*
X73515Y24486D01*
X73327Y24178D01*
X73138Y24486D01*
X72852Y24821D01*
X72517Y25107D01*
X72141Y25337D01*
X71734Y25506D01*
X71306Y25609D01*
X70866Y25643D01*
X70427Y25609D01*
X69998Y25506D01*
X69591Y25337D01*
X69215Y25107D01*
X68880Y24821D01*
X68823Y24754D01*
Y26375D01*
X68974Y26468D01*
X69309Y26754D01*
X69595Y27089D01*
X69825Y27465D01*
X69994Y27872D01*
X70097Y28301D01*
X70123Y28740D01*
X70097Y29180D01*
X69994Y29608D01*
X69825Y30015D01*
X69595Y30391D01*
X69396Y30624D01*
X70072D01*
X70073Y29568D01*
X70110Y29415D01*
X70170Y29269D01*
X70252Y29135D01*
X70354Y29015D01*
X70474Y28913D01*
X70608Y28831D01*
X70754Y28771D01*
X70907Y28734D01*
X71064Y28725D01*
X76338Y28734D01*
X76492Y28771D01*
X76637Y28831D01*
X76771Y28913D01*
X76891Y29015D01*
X76993Y29135D01*
X77075Y29269D01*
X77136Y29415D01*
X77172Y29568D01*
X77182Y29725D01*
X77172Y37361D01*
X77136Y37515D01*
X77075Y37660D01*
X76993Y37794D01*
X76891Y37914D01*
X76771Y38016D01*
X76637Y38098D01*
X76492Y38159D01*
X76338Y38195D01*
X76266Y38200D01*
Y38714D01*
X77290Y39738D01*
X80901Y39740D01*
X80993Y39762D01*
X81080Y39798D01*
X81161Y39848D01*
X81233Y39909D01*
X81294Y39981D01*
X81343Y40061D01*
X81379Y40149D01*
X81402Y40240D01*
X81407Y40335D01*
X81402Y44169D01*
X81379Y44261D01*
X81343Y44348D01*
X81294Y44429D01*
X81233Y44500D01*
X81161Y44562D01*
X81080Y44611D01*
X80993Y44647D01*
X80901Y44669D01*
X80807Y44675D01*
X72248Y44669D01*
X72157Y44647D01*
X72069Y44611D01*
X71989Y44562D01*
X71917Y44500D01*
X71856Y44429D01*
X71806Y44348D01*
X71770Y44261D01*
X71748Y44169D01*
X71743Y44075D01*
X71748Y40240D01*
X71770Y40149D01*
X71804Y40068D01*
X71787Y39999D01*
X71787Y39999D01*
X71759Y39646D01*
X71766Y39558D01*
Y38197D01*
X70907Y38195D01*
X70754Y38159D01*
X70608Y38098D01*
X70474Y38016D01*
X70354Y37914D01*
X70252Y37794D01*
X70170Y37660D01*
X70110Y37515D01*
X70073Y37361D01*
X70064Y37205D01*
X70066Y35124D01*
X57913D01*
Y36295D01*
X60177D01*
X60236Y36291D01*
X60471Y36309D01*
X60472Y36309D01*
X60701Y36364D01*
X60919Y36455D01*
X61121Y36578D01*
X61300Y36731D01*
X61338Y36776D01*
X69720Y45158D01*
X69765Y45196D01*
X69918Y45375D01*
X69918Y45375D01*
X70041Y45577D01*
X70132Y45795D01*
X70187Y46024D01*
X70205Y46260D01*
X70201Y46319D01*
Y52950D01*
X70352Y53043D01*
X70687Y53329D01*
X70973Y53664D01*
X71203Y54040D01*
X71372Y54447D01*
X71475Y54876D01*
X71501Y55315D01*
X71475Y55754D01*
X71372Y56183D01*
X71203Y56590D01*
X70973Y56966D01*
X70687Y57301D01*
X70352Y57587D01*
X69976Y57817D01*
X69569Y57986D01*
X69140Y58089D01*
X68701Y58124D01*
X68261Y58089D01*
X67833Y57986D01*
X67426Y57817D01*
X67050Y57587D01*
X66715Y57301D01*
X66429Y56966D01*
X66198Y56590D01*
X66030Y56183D01*
X65927Y55754D01*
X65892Y55315D01*
X65927Y54876D01*
X66030Y54447D01*
X66198Y54040D01*
X66429Y53664D01*
X66715Y53329D01*
X67050Y53043D01*
X67201Y52950D01*
Y46881D01*
X59615Y39295D01*
X57913D01*
Y42209D01*
X64405Y48701D01*
X64450Y48739D01*
X64603Y48919D01*
X64603Y48919D01*
X64726Y49120D01*
X64817Y49338D01*
X64872Y49568D01*
X64890Y49803D01*
X64886Y49862D01*
Y57056D01*
X68286Y60456D01*
X68458Y60415D01*
X68898Y60380D01*
X69337Y60415D01*
X69766Y60518D01*
X70173Y60686D01*
X70549Y60917D01*
X70884Y61203D01*
X71170Y61538D01*
X71400Y61914D01*
X71569Y62321D01*
X71672Y62750D01*
X71698Y63189D01*
X71672Y63628D01*
X71569Y64057D01*
X71400Y64464D01*
X71170Y64840D01*
X70884Y65175D01*
X70549Y65461D01*
X70445Y65524D01*
X70687Y65731D01*
X70973Y66066D01*
X71203Y66441D01*
X71372Y66849D01*
X71475Y67277D01*
X71501Y67717D01*
X71475Y68156D01*
X71372Y68584D01*
X71203Y68992D01*
X70973Y69367D01*
X70687Y69703D01*
X70378Y69966D01*
X70490Y70061D01*
X70776Y70396D01*
X71006Y70772D01*
X71175Y71179D01*
X71278Y71608D01*
X71304Y72047D01*
X71278Y72487D01*
X71175Y72915D01*
X71006Y73322D01*
X70776Y73698D01*
X70490Y74033D01*
X70155Y74319D01*
X69779Y74550D01*
X69643Y74606D01*
X96851D01*
Y58253D01*
G37*
G36*
X57913Y14081D02*X58034Y14278D01*
X58124Y14496D01*
X58179Y14725D01*
X58192Y14893D01*
X58265Y14937D01*
X58385Y15040D01*
X58487Y15159D01*
X58569Y15294D01*
X58629Y15439D01*
X58666Y15592D01*
X58675Y15749D01*
X58666Y18660D01*
X58629Y18813D01*
X58569Y18958D01*
X58487Y19093D01*
X58385Y19212D01*
X58265Y19314D01*
X58131Y19397D01*
X57985Y19457D01*
X57913Y19474D01*
Y19957D01*
X59836D01*
X59837Y19726D01*
X59874Y19573D01*
X59934Y19427D01*
X60016Y19293D01*
X60102Y19193D01*
X60016Y19093D01*
X59934Y18958D01*
X59874Y18813D01*
X59837Y18660D01*
X59828Y18503D01*
X59837Y15592D01*
X59874Y15439D01*
X59934Y15294D01*
X60016Y15159D01*
X60119Y15040D01*
X60238Y14937D01*
X60312Y14892D01*
Y9124D01*
X60306Y9055D01*
X60325Y8820D01*
X60380Y8590D01*
X60427Y8477D01*
X60429Y5221D01*
X60451Y5129D01*
X60487Y5042D01*
X60537Y4961D01*
X60598Y4889D01*
X60670Y4828D01*
X60750Y4779D01*
X60838Y4743D01*
X60929Y4721D01*
X61024Y4715D01*
X62693Y4721D01*
X62784Y4743D01*
X62872Y4779D01*
X62952Y4828D01*
X63024Y4889D01*
X63085Y4961D01*
X63135Y5042D01*
X63171Y5129D01*
X63193Y5221D01*
X63198Y5315D01*
X63196Y8479D01*
X63243Y8591D01*
X63298Y8821D01*
X63316Y9056D01*
X63312Y9115D01*
Y14892D01*
X63385Y14937D01*
X63386Y14938D01*
X63386Y14937D01*
X63520Y14855D01*
X63666Y14795D01*
X63819Y14758D01*
X63976Y14749D01*
X66101Y14758D01*
X66254Y14795D01*
X66399Y14855D01*
X66533Y14937D01*
X66653Y15040D01*
X66755Y15159D01*
X66838Y15294D01*
X66898Y15439D01*
X66935Y15592D01*
X66944Y15749D01*
X66939Y17358D01*
X67313Y16984D01*
X67317Y15592D01*
X67354Y15439D01*
X67414Y15294D01*
X67497Y15159D01*
X67599Y15040D01*
X67719Y14937D01*
X67853Y14855D01*
X67998Y14795D01*
X68151Y14758D01*
X68308Y14749D01*
X70433Y14758D01*
X70586Y14795D01*
X70732Y14855D01*
X70866Y14937D01*
X70866Y14938D01*
X70867Y14937D01*
X71001Y14855D01*
X71146Y14795D01*
X71299Y14758D01*
X71335Y14756D01*
Y9055D01*
X71349Y8820D01*
X71404Y8590D01*
X71451Y8477D01*
X71453Y5221D01*
X71475Y5129D01*
X71511Y5042D01*
X71560Y4961D01*
X71622Y4889D01*
X71693Y4828D01*
X71774Y4779D01*
X71861Y4743D01*
X71953Y4721D01*
X72047Y4715D01*
X73716Y4721D01*
X73808Y4743D01*
X73895Y4779D01*
X73976Y4828D01*
X74048Y4889D01*
X74109Y4961D01*
X74158Y5042D01*
X74194Y5129D01*
X74213Y5205D01*
X74231Y5129D01*
X74267Y5042D01*
X74316Y4961D01*
X74378Y4889D01*
X74449Y4828D01*
X74530Y4779D01*
X74617Y4743D01*
X74709Y4721D01*
X74803Y4715D01*
X76472Y4721D01*
X76564Y4743D01*
X76651Y4779D01*
X76732Y4828D01*
X76804Y4889D01*
X76865Y4961D01*
X76914Y5042D01*
X76950Y5129D01*
X76968Y5205D01*
X76987Y5129D01*
X77023Y5042D01*
X77072Y4961D01*
X77133Y4889D01*
X77205Y4828D01*
X77286Y4779D01*
X77373Y4743D01*
X77465Y4721D01*
X77559Y4715D01*
X79228Y4721D01*
X79320Y4743D01*
X79407Y4779D01*
X79488Y4828D01*
X79559Y4889D01*
X79621Y4961D01*
X79670Y5042D01*
X79706Y5129D01*
X79728Y5221D01*
X79734Y5315D01*
X79731Y9070D01*
X79777Y9181D01*
X79833Y9410D01*
X79851Y9646D01*
X79833Y9881D01*
X79777Y10111D01*
X79748Y10182D01*
Y12048D01*
X79753Y12107D01*
X79734Y12342D01*
X79729Y12362D01*
X79728Y14071D01*
X79706Y14162D01*
X79670Y14250D01*
X79621Y14330D01*
X79559Y14402D01*
X79488Y14463D01*
X79407Y14513D01*
X79320Y14549D01*
X79228Y14571D01*
X79134Y14576D01*
X77904Y14572D01*
X77694Y14783D01*
X77795Y14758D01*
X77952Y14749D01*
X80077Y14758D01*
X80230Y14795D01*
X80376Y14855D01*
X80510Y14937D01*
X80629Y15040D01*
X80732Y15159D01*
X80814Y15294D01*
X80874Y15439D01*
X80911Y15592D01*
X80920Y15749D01*
X80916Y16985D01*
X82065Y18134D01*
X82238Y18092D01*
X82677Y18058D01*
X83117Y18092D01*
X83545Y18195D01*
X83952Y18364D01*
X84328Y18594D01*
X84663Y18880D01*
X84949Y19215D01*
X85180Y19591D01*
X85348Y19998D01*
X85451Y20427D01*
X85477Y20866D01*
X85451Y21306D01*
X85410Y21478D01*
X88810Y24878D01*
X96851D01*
Y19794D01*
X94725Y19790D01*
X94572Y19753D01*
X94427Y19693D01*
X94301Y19615D01*
X94207Y19654D01*
X94054Y19691D01*
X93897Y19700D01*
X91772Y19691D01*
X91619Y19654D01*
X91474Y19594D01*
X91340Y19511D01*
X91220Y19409D01*
X91118Y19289D01*
X91036Y19155D01*
X90975Y19010D01*
X90939Y18857D01*
X90929Y18700D01*
X90939Y15789D01*
X90975Y15636D01*
X91036Y15490D01*
X91118Y15356D01*
X91220Y15237D01*
X91340Y15134D01*
X91474Y15052D01*
X91619Y14992D01*
X91772Y14955D01*
X91839Y14951D01*
X91893Y14864D01*
X92046Y14684D01*
X92091Y14646D01*
X93382Y13355D01*
Y9055D01*
X93396Y8820D01*
X93451Y8590D01*
X93498Y8477D01*
X93500Y5221D01*
X93522Y5129D01*
X93558Y5042D01*
X93608Y4961D01*
X93669Y4889D01*
X93741Y4828D01*
X93821Y4779D01*
X93909Y4743D01*
X94000Y4721D01*
X94094Y4715D01*
X95763Y4721D01*
X95855Y4743D01*
X95943Y4779D01*
X96023Y4828D01*
X96095Y4889D01*
X96156Y4961D01*
X96206Y5042D01*
X96242Y5129D01*
X96260Y5205D01*
X96278Y5129D01*
X96314Y5042D01*
X96363Y4961D01*
X96425Y4889D01*
X96497Y4828D01*
X96577Y4779D01*
X96664Y4743D01*
X96756Y4721D01*
X96850Y4715D01*
X96851Y4715D01*
Y1969D01*
X57913D01*
Y14081D01*
G37*
G36*
X61842Y66217D02*X66336D01*
X66429Y66066D01*
X66715Y65731D01*
X67050Y65444D01*
X67153Y65381D01*
X66912Y65175D01*
X66625Y64840D01*
X66395Y64464D01*
X66226Y64057D01*
X66124Y63628D01*
X66089Y63189D01*
X66124Y62750D01*
X66165Y62578D01*
X62367Y58779D01*
X62322Y58741D01*
X62169Y58562D01*
X62045Y58360D01*
X61955Y58142D01*
X61900Y57913D01*
X61900Y57912D01*
X61881Y57677D01*
X61886Y57618D01*
Y50424D01*
X57913Y46452D01*
Y52257D01*
X59526Y52260D01*
X59618Y52282D01*
X59705Y52318D01*
X59785Y52367D01*
X59857Y52428D01*
X59918Y52500D01*
X59967Y52580D01*
X60003Y52667D01*
X60025Y52759D01*
X60031Y52853D01*
X60025Y58425D01*
X60003Y58517D01*
X59967Y58604D01*
X59918Y58684D01*
X59857Y58756D01*
X59785Y58817D01*
X59705Y58866D01*
X59618Y58902D01*
X59526Y58924D01*
X59432Y58930D01*
X57913Y58927D01*
Y62288D01*
X61842Y66217D01*
G37*
G36*
X57913Y39295D02*X42325D01*
X42233Y39446D01*
X41947Y39781D01*
X41649Y40035D01*
X55059D01*
X55118Y40031D01*
X55353Y40049D01*
X55353Y40049D01*
X55583Y40104D01*
X55801Y40195D01*
X56003Y40318D01*
X56182Y40472D01*
X56220Y40516D01*
X57913Y42209D01*
Y39295D01*
G37*
G36*
Y35124D02*X40828D01*
X40829Y35124D01*
X41236Y35293D01*
X41612Y35523D01*
X41947Y35809D01*
X42233Y36144D01*
X42325Y36295D01*
X57913D01*
Y35124D01*
G37*
G36*
Y19474D02*X57832Y19494D01*
X57675Y19503D01*
X56066Y19496D01*
X56527Y19957D01*
X57913D01*
Y19474D01*
G37*
G36*
X31614Y2240D02*X38918D01*
X38976Y2236D01*
X39211Y2254D01*
X39212Y2254D01*
X39441Y2309D01*
X39659Y2400D01*
X39665Y2403D01*
X39671Y2400D01*
X39889Y2309D01*
X40119Y2254D01*
X40354Y2236D01*
X40413Y2240D01*
X47382D01*
X47441Y2236D01*
X47676Y2254D01*
X47676Y2254D01*
X47906Y2309D01*
X48124Y2400D01*
X48228Y2463D01*
X48333Y2400D01*
X48551Y2309D01*
X48780Y2254D01*
X49016Y2236D01*
X49075Y2240D01*
X52697D01*
X52756Y2236D01*
X52991Y2254D01*
X52991Y2254D01*
X53221Y2309D01*
X53439Y2400D01*
X53640Y2523D01*
X53820Y2676D01*
X53858Y2721D01*
X54562Y3425D01*
X54607Y3464D01*
X54760Y3643D01*
X54761Y3643D01*
X54884Y3844D01*
X54974Y4063D01*
X55029Y4292D01*
X55048Y4528D01*
X55043Y4586D01*
Y8234D01*
X55082Y8171D01*
X55235Y7991D01*
X55415Y7838D01*
X55616Y7714D01*
X55834Y7624D01*
X56064Y7569D01*
X56299Y7550D01*
X56535Y7569D01*
X56764Y7624D01*
X56982Y7714D01*
X57184Y7838D01*
X57363Y7991D01*
X57516Y8171D01*
X57640Y8372D01*
X57730Y8590D01*
X57785Y8820D01*
X57799Y9055D01*
Y13946D01*
X57910Y14076D01*
X57910Y14076D01*
X57913Y14081D01*
Y1969D01*
X31614D01*
Y2240D01*
G37*
G36*
X44484Y30624D02*X56652D01*
X55083Y29055D01*
X55038Y29017D01*
X54885Y28837D01*
X54762Y28636D01*
X54671Y28418D01*
X54616Y28188D01*
X54616Y28188D01*
X54598Y27953D01*
X54602Y27894D01*
Y22275D01*
X52524Y20197D01*
X52479Y20158D01*
X52326Y19979D01*
X52203Y19778D01*
X52112Y19559D01*
X52068Y19375D01*
X51970Y19314D01*
X51850Y19212D01*
X51748Y19093D01*
X51666Y18958D01*
X51605Y18813D01*
X51569Y18660D01*
X51559Y18503D01*
X51569Y15592D01*
X51605Y15439D01*
X51666Y15294D01*
X51748Y15159D01*
X51850Y15040D01*
X51970Y14937D01*
X52043Y14892D01*
Y5240D01*
X49637D01*
X49531Y5346D01*
Y9055D01*
X49518Y9290D01*
X49462Y9520D01*
X49416Y9632D01*
X49413Y14071D01*
X49391Y14162D01*
X49355Y14250D01*
X49306Y14330D01*
X49244Y14402D01*
X49173Y14463D01*
X49092Y14513D01*
X49005Y14549D01*
X48913Y14571D01*
X48819Y14576D01*
X47150Y14571D01*
X47058Y14549D01*
X46971Y14513D01*
X46890Y14463D01*
X46819Y14402D01*
X46757Y14330D01*
X46708Y14250D01*
X46672Y14162D01*
X46650Y14071D01*
X46644Y13976D01*
X46647Y9632D01*
X46601Y9520D01*
X46545Y9290D01*
X46531Y9055D01*
Y5240D01*
X44484D01*
Y19633D01*
X44488Y19632D01*
X44928Y19667D01*
X45356Y19770D01*
X45763Y19938D01*
X46139Y20169D01*
X46474Y20455D01*
X46760Y20790D01*
X46991Y21166D01*
X47159Y21573D01*
X47262Y22002D01*
X47288Y22441D01*
X47262Y22880D01*
X47159Y23309D01*
X46991Y23716D01*
X46760Y24092D01*
X46474Y24427D01*
X46185Y24674D01*
Y25325D01*
X46259Y25371D01*
X46378Y25473D01*
X46481Y25592D01*
X46563Y25727D01*
X46623Y25872D01*
X46660Y26025D01*
X46669Y26182D01*
X46660Y29093D01*
X46623Y29246D01*
X46563Y29391D01*
X46481Y29526D01*
X46378Y29645D01*
X46259Y29748D01*
X46124Y29830D01*
X45979Y29890D01*
X45826Y29927D01*
X45669Y29936D01*
X44484Y29931D01*
Y30624D01*
G37*
G36*
X31614D02*X44484D01*
Y29931D01*
X43544Y29927D01*
X43391Y29890D01*
X43246Y29830D01*
X43111Y29748D01*
X42992Y29645D01*
X42889Y29526D01*
X42807Y29391D01*
X42747Y29246D01*
X42710Y29093D01*
X42701Y28936D01*
X42710Y26025D01*
X42747Y25872D01*
X42807Y25727D01*
X42889Y25592D01*
X42992Y25473D01*
X43111Y25371D01*
X43185Y25325D01*
Y24926D01*
X42837Y24713D01*
X42502Y24427D01*
X42216Y24092D01*
X41986Y23716D01*
X41817Y23309D01*
X41714Y22880D01*
X41680Y22441D01*
X41714Y22002D01*
X41817Y21573D01*
X41986Y21166D01*
X42216Y20790D01*
X42502Y20455D01*
X42837Y20169D01*
X43213Y19938D01*
X43620Y19770D01*
X44049Y19667D01*
X44484Y19633D01*
Y5240D01*
X43903D01*
X43907Y5315D01*
X43902Y14071D01*
X43879Y14162D01*
X43843Y14250D01*
X43794Y14330D01*
X43733Y14402D01*
X43661Y14463D01*
X43580Y14513D01*
X43493Y14549D01*
X43401Y14571D01*
X43307Y14576D01*
X42482Y14574D01*
X42554Y14646D01*
X42599Y14684D01*
X42753Y14864D01*
X42753Y14864D01*
X42831Y14991D01*
X42974Y15051D01*
X43108Y15133D01*
X43228Y15235D01*
X43330Y15355D01*
X43412Y15489D01*
X43473Y15634D01*
X43509Y15787D01*
X43519Y15944D01*
X43509Y18855D01*
X43473Y19008D01*
X43412Y19154D01*
X43330Y19288D01*
X43228Y19408D01*
X43108Y19510D01*
X42974Y19592D01*
X42829Y19652D01*
X42676Y19689D01*
X42519Y19698D01*
X40394Y19689D01*
X40241Y19652D01*
X40095Y19592D01*
X39961Y19510D01*
X39841Y19408D01*
X39739Y19288D01*
X39665Y19166D01*
X39589Y19289D01*
X39487Y19409D01*
X39367Y19511D01*
X39233Y19594D01*
X39088Y19654D01*
X38935Y19691D01*
X38778Y19700D01*
X36653Y19691D01*
X36500Y19654D01*
X36354Y19594D01*
X36220Y19511D01*
X36220Y19511D01*
X36219Y19511D01*
X36085Y19594D01*
X35940Y19654D01*
X35787Y19691D01*
X35630Y19700D01*
X33505Y19691D01*
X33352Y19654D01*
X33206Y19594D01*
X33169Y19570D01*
X33131Y19594D01*
X32985Y19654D01*
X32832Y19691D01*
X32675Y19700D01*
X31614Y19695D01*
Y30624D01*
G37*
G36*
Y40035D02*X38272D01*
X37975Y39781D01*
X37688Y39446D01*
X37458Y39070D01*
X37289Y38663D01*
X37187Y38235D01*
X37152Y37795D01*
X37187Y37356D01*
X37289Y36927D01*
X37458Y36520D01*
X37688Y36144D01*
X37975Y35809D01*
X38310Y35523D01*
X38686Y35293D01*
X39093Y35124D01*
X39093Y35124D01*
X31614D01*
Y40035D01*
G37*
G36*
X57913Y46452D02*X54497Y43035D01*
X47161D01*
X47458Y43290D01*
X47745Y43625D01*
X47975Y44000D01*
X48144Y44408D01*
X48246Y44836D01*
X48272Y45276D01*
X48246Y45715D01*
X48144Y46144D01*
X47975Y46551D01*
X47745Y46926D01*
X47458Y47262D01*
X47123Y47548D01*
X46748Y47778D01*
X46340Y47947D01*
X45912Y48050D01*
X45472Y48084D01*
X45033Y48050D01*
X45020Y48046D01*
X41461Y51606D01*
Y52528D01*
X45314Y56382D01*
X45472Y56369D01*
X45708Y56388D01*
X45937Y56443D01*
X46156Y56533D01*
X46357Y56657D01*
X46536Y56810D01*
X46690Y56990D01*
X46813Y57191D01*
X46903Y57409D01*
X46959Y57639D01*
X46977Y57874D01*
X46959Y58109D01*
X46921Y58268D01*
X46959Y58426D01*
X46977Y58661D01*
X46972Y58720D01*
Y60365D01*
X47045Y60410D01*
X47165Y60512D01*
X47267Y60632D01*
X47349Y60766D01*
X47410Y60911D01*
X47446Y61065D01*
X47456Y61221D01*
X47446Y64132D01*
X47410Y64285D01*
X47349Y64431D01*
X47267Y64565D01*
X47165Y64685D01*
X47045Y64787D01*
X46911Y64869D01*
X46766Y64929D01*
X46613Y64966D01*
X46456Y64975D01*
X44331Y64966D01*
X44178Y64929D01*
X44032Y64869D01*
X43898Y64787D01*
X43898Y64787D01*
X43897Y64787D01*
X43763Y64869D01*
X43744Y64877D01*
Y64964D01*
X43779Y64986D01*
X43851Y65047D01*
X43912Y65119D01*
X43961Y65199D01*
X43998Y65286D01*
X44020Y65378D01*
X44025Y65472D01*
X44020Y68322D01*
X43998Y68414D01*
X43961Y68502D01*
X43912Y68582D01*
X43851Y68654D01*
X43779Y68715D01*
X43698Y68765D01*
X43611Y68801D01*
X43519Y68823D01*
X43425Y68828D01*
X40969Y68823D01*
X40877Y68801D01*
X40790Y68765D01*
X40709Y68715D01*
X40637Y68654D01*
X40576Y68582D01*
X40527Y68502D01*
X40491Y68414D01*
X40469Y68322D01*
X40463Y68228D01*
X40469Y65378D01*
X40491Y65286D01*
X40527Y65199D01*
X40576Y65119D01*
X40637Y65047D01*
X40709Y64986D01*
X40744Y64964D01*
Y64782D01*
X40630Y64685D01*
X40528Y64565D01*
X40446Y64431D01*
X40386Y64285D01*
X40349Y64132D01*
X40340Y63975D01*
X40349Y61065D01*
X40386Y60911D01*
X40446Y60766D01*
X40528Y60632D01*
X40630Y60512D01*
X40750Y60410D01*
X40884Y60328D01*
X41030Y60267D01*
X41183Y60231D01*
X41340Y60221D01*
X43465Y60231D01*
X43618Y60267D01*
X43763Y60328D01*
X43897Y60410D01*
X43898Y60410D01*
X43898Y60410D01*
X43972Y60364D01*
Y59283D01*
X38942Y54252D01*
X38897Y54214D01*
X38743Y54034D01*
X38620Y53833D01*
X38530Y53615D01*
X38475Y53385D01*
X38474Y53385D01*
X38456Y53150D01*
X38461Y53091D01*
Y51043D01*
X38456Y50984D01*
X38475Y50749D01*
X38530Y50519D01*
X38620Y50301D01*
X38743Y50100D01*
X38897Y49920D01*
X38942Y49882D01*
X42778Y46046D01*
X42698Y45715D01*
X42664Y45276D01*
X42698Y44836D01*
X42801Y44408D01*
X42970Y44000D01*
X43200Y43625D01*
X43486Y43290D01*
X43784Y43035D01*
X31614D01*
Y60362D01*
X31692Y60410D01*
X31811Y60512D01*
X31914Y60632D01*
X31996Y60766D01*
X32056Y60911D01*
X32093Y61065D01*
X32094Y61082D01*
X32177Y60948D01*
X32463Y60612D01*
X32798Y60326D01*
X33174Y60096D01*
X33581Y59927D01*
X34009Y59824D01*
X34449Y59790D01*
X34888Y59824D01*
X35317Y59927D01*
X35724Y60096D01*
X36100Y60326D01*
X36435Y60612D01*
X36721Y60948D01*
X36951Y61323D01*
X37120Y61731D01*
X37223Y62159D01*
X37249Y62598D01*
X37223Y63038D01*
X37120Y63466D01*
X36951Y63874D01*
X36721Y64249D01*
X36435Y64584D01*
X36100Y64871D01*
X35724Y65101D01*
X35317Y65270D01*
X34888Y65372D01*
X34449Y65407D01*
X34009Y65372D01*
X33581Y65270D01*
X33174Y65101D01*
X32798Y64871D01*
X32463Y64584D01*
X32177Y64249D01*
X32093Y64113D01*
X32093Y64132D01*
X32056Y64285D01*
X31996Y64431D01*
X31914Y64565D01*
X31811Y64685D01*
X31692Y64787D01*
X31614Y64834D01*
Y72673D01*
X31866Y72673D01*
X31958Y72695D01*
X32045Y72731D01*
X32125Y72781D01*
X32197Y72842D01*
X32259Y72914D01*
X32308Y72994D01*
X32344Y73082D01*
X32366Y73174D01*
X32372Y73268D01*
X32366Y76118D01*
X32344Y76210D01*
X32308Y76297D01*
X32259Y76377D01*
X32197Y76449D01*
X32125Y76511D01*
X32045Y76560D01*
X32011Y76574D01*
Y77333D01*
X32085Y77378D01*
X32204Y77481D01*
X32307Y77600D01*
X32389Y77735D01*
X32449Y77880D01*
X32486Y78033D01*
X32495Y78190D01*
X32486Y81101D01*
X32449Y81254D01*
X32389Y81399D01*
X32307Y81534D01*
X32204Y81653D01*
X32085Y81755D01*
X31950Y81838D01*
X31805Y81898D01*
X31652Y81935D01*
X31614Y81937D01*
Y83539D01*
X35402D01*
X44206Y74735D01*
X44209Y73252D01*
X44231Y73160D01*
X44267Y73073D01*
X44316Y72993D01*
X44378Y72921D01*
X44449Y72860D01*
X44530Y72810D01*
X44617Y72774D01*
X44709Y72752D01*
X44803Y72746D01*
X47260Y72752D01*
X47351Y72774D01*
X47439Y72810D01*
X47519Y72860D01*
X47591Y72921D01*
X47652Y72993D01*
X47702Y73073D01*
X47738Y73160D01*
X47760Y73252D01*
X47765Y73346D01*
X47760Y76197D01*
X47738Y76288D01*
X47702Y76376D01*
X47652Y76456D01*
X47591Y76528D01*
X47519Y76589D01*
X47439Y76639D01*
X47351Y76675D01*
X47260Y76697D01*
X47165Y76702D01*
X46483Y76701D01*
X37126Y86058D01*
X37088Y86103D01*
X36908Y86256D01*
X36707Y86379D01*
X36489Y86470D01*
X36259Y86525D01*
X36259Y86525D01*
X36024Y86543D01*
X35965Y86539D01*
X31614D01*
Y89287D01*
X34182D01*
X43386Y80083D01*
X43424Y80038D01*
X43604Y79885D01*
X43805Y79762D01*
X44023Y79671D01*
X44253Y79616D01*
X44292Y79613D01*
X44309Y79538D01*
X44346Y79451D01*
X44395Y79371D01*
X44456Y79299D01*
X44528Y79238D01*
X44609Y79188D01*
X44696Y79152D01*
X44788Y79130D01*
X44882Y79124D01*
X47338Y79130D01*
X47430Y79152D01*
X47517Y79188D01*
X47598Y79238D01*
X47670Y79299D01*
X47731Y79371D01*
X47780Y79451D01*
X47816Y79538D01*
X47839Y79630D01*
X47844Y79724D01*
X47839Y82574D01*
X47816Y82666D01*
X47780Y82754D01*
X47731Y82834D01*
X47670Y82906D01*
X47598Y82967D01*
X47517Y83017D01*
X47430Y83053D01*
X47338Y83075D01*
X47244Y83080D01*
X44788Y83075D01*
X44696Y83053D01*
X44670Y83042D01*
X35905Y91806D01*
X35867Y91851D01*
X35688Y92005D01*
X35486Y92128D01*
X35268Y92218D01*
X35039Y92274D01*
X34803Y92292D01*
X34744Y92287D01*
X31614D01*
Y96850D01*
X53543D01*
X56299Y94094D01*
Y77559D01*
X57913Y75945D01*
Y74335D01*
X55936D01*
X54453Y75818D01*
Y90483D01*
X54526Y90528D01*
X54645Y90630D01*
X54747Y90750D01*
X54830Y90884D01*
X54890Y91030D01*
X54927Y91183D01*
X54936Y91340D01*
X54927Y94250D01*
X54890Y94404D01*
X54830Y94549D01*
X54747Y94683D01*
X54645Y94803D01*
X54526Y94905D01*
X54391Y94987D01*
X54246Y95048D01*
X54093Y95084D01*
X53936Y95094D01*
X51811Y95084D01*
X51658Y95048D01*
X51513Y94987D01*
X51378Y94905D01*
X51378Y94905D01*
X51378Y94905D01*
X51243Y94987D01*
X51098Y95048D01*
X50945Y95084D01*
X50788Y95094D01*
X48663Y95084D01*
X48510Y95048D01*
X48365Y94987D01*
X48230Y94905D01*
X48111Y94803D01*
X48008Y94683D01*
X47926Y94549D01*
X47866Y94404D01*
X47829Y94250D01*
X47820Y94094D01*
X47829Y91183D01*
X47866Y91030D01*
X47926Y90884D01*
X48008Y90750D01*
X48097Y90646D01*
X48086Y90628D01*
X48050Y90540D01*
X48028Y90448D01*
X48022Y90354D01*
X48028Y87504D01*
X48050Y87412D01*
X48086Y87325D01*
X48135Y87245D01*
X48196Y87173D01*
X48268Y87112D01*
X48349Y87062D01*
X48436Y87026D01*
X48528Y87004D01*
X48622Y86998D01*
X51078Y87004D01*
X51170Y87026D01*
X51257Y87062D01*
X51338Y87112D01*
X51410Y87173D01*
X51453Y87223D01*
Y75256D01*
X51448Y75197D01*
X51467Y74961D01*
X51522Y74732D01*
X51612Y74514D01*
X51735Y74312D01*
X51736Y74312D01*
X51889Y74133D01*
X51934Y74095D01*
X54213Y71816D01*
X54251Y71771D01*
X54431Y71617D01*
X54632Y71494D01*
X54850Y71404D01*
X55080Y71349D01*
X55315Y71330D01*
X55374Y71335D01*
X57913D01*
Y66530D01*
X46084Y54701D01*
X45912Y54743D01*
X45472Y54777D01*
X45033Y54743D01*
X44605Y54640D01*
X44197Y54471D01*
X43822Y54241D01*
X43486Y53955D01*
X43200Y53619D01*
X42970Y53244D01*
X42801Y52836D01*
X42698Y52408D01*
X42664Y51969D01*
X42698Y51529D01*
X42801Y51101D01*
X42970Y50693D01*
X43200Y50318D01*
X43486Y49982D01*
X43822Y49696D01*
X44197Y49466D01*
X44605Y49297D01*
X45033Y49194D01*
X45472Y49160D01*
X45912Y49194D01*
X46340Y49297D01*
X46748Y49466D01*
X47123Y49696D01*
X47458Y49982D01*
X47745Y50318D01*
X47975Y50693D01*
X48144Y51101D01*
X48246Y51529D01*
X48272Y51969D01*
X48246Y52408D01*
X48205Y52580D01*
X57913Y62288D01*
Y58927D01*
X56300Y58924D01*
X56208Y58902D01*
X56121Y58866D01*
X56041Y58817D01*
X55969Y58756D01*
X55908Y58684D01*
X55859Y58604D01*
X55823Y58517D01*
X55801Y58425D01*
X55795Y58331D01*
X55801Y52759D01*
X55823Y52667D01*
X55859Y52580D01*
X55908Y52500D01*
X55969Y52428D01*
X56041Y52367D01*
X56121Y52318D01*
X56208Y52282D01*
X56300Y52260D01*
X56394Y52254D01*
X57913Y52257D01*
Y46452D01*
G37*
G36*
X7126Y96850D02*X31614D01*
Y92287D01*
X30950D01*
X30950Y92321D01*
X30914Y92474D01*
X30853Y92620D01*
X30771Y92754D01*
X30669Y92874D01*
X30549Y92976D01*
X30415Y93058D01*
X30270Y93118D01*
X30116Y93155D01*
X29960Y93164D01*
X27835Y93155D01*
X27682Y93118D01*
X27536Y93058D01*
X27402Y92976D01*
X27402Y92976D01*
X27401Y92976D01*
X27267Y93058D01*
X27122Y93118D01*
X26968Y93155D01*
X26812Y93164D01*
X24687Y93155D01*
X24534Y93118D01*
X24388Y93058D01*
X24254Y92976D01*
X24134Y92874D01*
X24032Y92754D01*
X23950Y92620D01*
X23890Y92474D01*
X23854Y92327D01*
X22485D01*
X22484Y93086D01*
X22462Y93178D01*
X22426Y93265D01*
X22377Y93346D01*
X22315Y93418D01*
X22244Y93479D01*
X22163Y93528D01*
X22076Y93565D01*
X21984Y93587D01*
X21890Y93592D01*
X15890Y93587D01*
X15798Y93565D01*
X15711Y93528D01*
X15630Y93479D01*
X15559Y93418D01*
X15497Y93346D01*
X15448Y93265D01*
X15412Y93178D01*
X15390Y93086D01*
X15384Y92992D01*
X15390Y88567D01*
X15412Y88475D01*
X15448Y88388D01*
X15497Y88308D01*
X15559Y88236D01*
X15630Y88175D01*
X15711Y88125D01*
X15798Y88089D01*
X15890Y88067D01*
X15984Y88061D01*
X21984Y88067D01*
X22076Y88089D01*
X22163Y88125D01*
X22244Y88175D01*
X22315Y88236D01*
X22377Y88308D01*
X22426Y88388D01*
X22462Y88475D01*
X22484Y88567D01*
X22490Y88661D01*
X22489Y89327D01*
X23853D01*
X23853Y89253D01*
X23890Y89100D01*
X23950Y88955D01*
X24032Y88821D01*
X24134Y88701D01*
X24254Y88599D01*
X24388Y88517D01*
X24534Y88456D01*
X24687Y88420D01*
X24844Y88410D01*
X26968Y88420D01*
X27122Y88456D01*
X27267Y88517D01*
X27401Y88599D01*
X27402Y88599D01*
X27402Y88599D01*
X27536Y88517D01*
X27682Y88456D01*
X27835Y88420D01*
X27992Y88410D01*
X30116Y88420D01*
X30270Y88456D01*
X30415Y88517D01*
X30549Y88599D01*
X30669Y88701D01*
X30771Y88821D01*
X30853Y88955D01*
X30914Y89100D01*
X30950Y89253D01*
X30952Y89287D01*
X31614D01*
Y86539D01*
X31109D01*
X31109Y86573D01*
X31072Y86726D01*
X31012Y86871D01*
X30929Y87005D01*
X30827Y87125D01*
X30707Y87227D01*
X30573Y87309D01*
X30428Y87370D01*
X30275Y87406D01*
X30118Y87416D01*
X27993Y87406D01*
X27840Y87370D01*
X27694Y87309D01*
X27560Y87227D01*
X27560Y87227D01*
X27559Y87227D01*
X27425Y87309D01*
X27280Y87370D01*
X27127Y87406D01*
X26970Y87416D01*
X24845Y87406D01*
X24692Y87370D01*
X24546Y87309D01*
X24412Y87227D01*
X24293Y87125D01*
X24190Y87005D01*
X24108Y86871D01*
X24048Y86726D01*
X24011Y86573D01*
X24009Y86539D01*
X22485D01*
X22484Y87181D01*
X22462Y87273D01*
X22426Y87360D01*
X22377Y87440D01*
X22315Y87512D01*
X22244Y87574D01*
X22163Y87623D01*
X22076Y87659D01*
X21984Y87681D01*
X21890Y87687D01*
X15890Y87681D01*
X15798Y87659D01*
X15711Y87623D01*
X15630Y87574D01*
X15559Y87512D01*
X15497Y87440D01*
X15448Y87360D01*
X15412Y87273D01*
X15390Y87181D01*
X15384Y87087D01*
X15390Y82662D01*
X15412Y82570D01*
X15448Y82483D01*
X15497Y82402D01*
X15559Y82330D01*
X15630Y82269D01*
X15711Y82220D01*
X15798Y82184D01*
X15890Y82161D01*
X15984Y82156D01*
X21984Y82161D01*
X22076Y82184D01*
X22163Y82220D01*
X22244Y82269D01*
X22315Y82330D01*
X22377Y82402D01*
X22426Y82483D01*
X22462Y82570D01*
X22484Y82662D01*
X22490Y82756D01*
X22489Y83539D01*
X24011D01*
X24011Y83505D01*
X24048Y83352D01*
X24108Y83206D01*
X24190Y83072D01*
X24293Y82952D01*
X24412Y82850D01*
X24546Y82768D01*
X24692Y82708D01*
X24845Y82671D01*
X25002Y82662D01*
X27127Y82671D01*
X27280Y82708D01*
X27425Y82768D01*
X27559Y82850D01*
X27560Y82850D01*
X27560Y82850D01*
X27694Y82768D01*
X27840Y82708D01*
X27993Y82671D01*
X28150Y82662D01*
X30275Y82671D01*
X30428Y82708D01*
X30573Y82768D01*
X30707Y82850D01*
X30827Y82952D01*
X30929Y83072D01*
X31012Y83206D01*
X31072Y83352D01*
X31109Y83505D01*
X31111Y83539D01*
X31614D01*
Y81937D01*
X31495Y81944D01*
X29370Y81935D01*
X29217Y81898D01*
X29072Y81838D01*
X28937Y81755D01*
X28937Y81755D01*
X28937Y81755D01*
X28802Y81838D01*
X28657Y81898D01*
X28504Y81935D01*
X28347Y81944D01*
X26222Y81935D01*
X26069Y81898D01*
X25924Y81838D01*
X25887Y81815D01*
X15582D01*
X14492Y82905D01*
Y89508D01*
X14497Y89567D01*
X14478Y89802D01*
X14478Y89802D01*
X14423Y90032D01*
X14333Y90250D01*
X14209Y90451D01*
X14056Y90631D01*
X14011Y90669D01*
X12835Y91846D01*
X12796Y91891D01*
X12617Y92044D01*
X12415Y92167D01*
X12197Y92258D01*
X11968Y92313D01*
X11967Y92313D01*
X11732Y92331D01*
X11674Y92327D01*
X10674D01*
X10673Y93086D01*
X10651Y93178D01*
X10615Y93265D01*
X10566Y93346D01*
X10504Y93418D01*
X10432Y93479D01*
X10352Y93528D01*
X10265Y93565D01*
X10173Y93587D01*
X10079Y93592D01*
X7126Y93589D01*
Y96850D01*
G37*
G36*
X31614Y43035D02*X28968D01*
X28075Y43928D01*
Y49744D01*
X28079Y49803D01*
X28061Y50038D01*
X28061Y50039D01*
X28006Y50268D01*
X27915Y50486D01*
X27792Y50688D01*
X27639Y50867D01*
X27594Y50905D01*
X24921Y53578D01*
X24883Y53623D01*
X24703Y53776D01*
X24502Y53900D01*
X24284Y53990D01*
X24054Y54045D01*
X24054Y54045D01*
X23819Y54064D01*
X23760Y54059D01*
X20503D01*
X16674Y57889D01*
X16811Y57878D01*
X17137Y57903D01*
X17455Y57980D01*
X17757Y58105D01*
X18035Y58276D01*
X18284Y58488D01*
X18496Y58736D01*
X18667Y59015D01*
X18792Y59317D01*
X18868Y59635D01*
X18887Y59961D01*
X18868Y60286D01*
X18792Y60604D01*
X18667Y60906D01*
X18496Y61185D01*
X18284Y61433D01*
X18035Y61646D01*
X17757Y61816D01*
X17455Y61941D01*
X17137Y62018D01*
X16811Y62043D01*
X16485Y62018D01*
X16167Y61941D01*
X15865Y61816D01*
X15587Y61646D01*
X15338Y61433D01*
X15126Y61185D01*
X15083Y61114D01*
Y66647D01*
X16905Y66650D01*
X16997Y66672D01*
X17084Y66708D01*
X17165Y66757D01*
X17237Y66819D01*
X17298Y66890D01*
X17347Y66971D01*
X17383Y67058D01*
X17405Y67150D01*
X17411Y67244D01*
X17405Y73047D01*
X17383Y73139D01*
X17347Y73226D01*
X17298Y73307D01*
X17237Y73378D01*
X17165Y73440D01*
X17084Y73489D01*
X16997Y73525D01*
X16905Y73547D01*
X16811Y73553D01*
X12780Y73547D01*
X12688Y73525D01*
X12601Y73489D01*
X12520Y73440D01*
X12448Y73378D01*
X12387Y73307D01*
X12338Y73226D01*
X12302Y73139D01*
X12280Y73047D01*
X12274Y72953D01*
X12277Y69579D01*
X12242Y69522D01*
X12152Y69304D01*
X12097Y69074D01*
X12097Y69074D01*
X12078Y68839D01*
X12083Y68780D01*
Y58917D01*
X12078Y58858D01*
X12097Y58623D01*
X12152Y58393D01*
X12242Y58175D01*
X12365Y57974D01*
X12519Y57794D01*
X12564Y57756D01*
X17141Y53179D01*
X17084Y53213D01*
X16997Y53250D01*
X16905Y53272D01*
X16811Y53277D01*
X12780Y53272D01*
X12688Y53250D01*
X12601Y53213D01*
X12520Y53164D01*
X12448Y53103D01*
X12387Y53031D01*
X12338Y52950D01*
X12302Y52863D01*
X12280Y52771D01*
X12274Y52677D01*
X12280Y46874D01*
X12302Y46783D01*
X12338Y46695D01*
X12387Y46615D01*
X12448Y46543D01*
X12520Y46482D01*
X12601Y46432D01*
X12688Y46396D01*
X12780Y46374D01*
X12874Y46369D01*
X16273Y46373D01*
X16263Y46367D01*
X15927Y46080D01*
X15641Y45745D01*
X15411Y45370D01*
X15242Y44962D01*
X15139Y44534D01*
X15105Y44094D01*
X15139Y43655D01*
X15242Y43227D01*
X15411Y42819D01*
X15641Y42444D01*
X15927Y42108D01*
X16263Y41822D01*
X16638Y41592D01*
X17045Y41423D01*
X17474Y41320D01*
X17913Y41286D01*
X18353Y41320D01*
X18781Y41423D01*
X19188Y41592D01*
X19564Y41822D01*
X19899Y42108D01*
X20186Y42444D01*
X20416Y42819D01*
X20585Y43227D01*
X20687Y43655D01*
X20690Y43699D01*
X20710Y43694D01*
X20867Y43685D01*
X23778Y43694D01*
X23931Y43731D01*
X24076Y43791D01*
X24211Y43873D01*
X24330Y43976D01*
X24433Y44095D01*
X24515Y44230D01*
X24575Y44375D01*
X24612Y44528D01*
X24621Y44685D01*
X24612Y46810D01*
X24575Y46963D01*
X24515Y47108D01*
X24433Y47243D01*
X24432Y47243D01*
X24433Y47243D01*
X24515Y47378D01*
X24575Y47523D01*
X24612Y47676D01*
X24621Y47833D01*
X24613Y49643D01*
X25075Y49182D01*
Y43366D01*
X25070Y43307D01*
X25089Y43072D01*
X25144Y42842D01*
X25234Y42624D01*
X25358Y42423D01*
X25511Y42243D01*
X25556Y42205D01*
X26739Y41022D01*
X26809Y40852D01*
X26932Y40651D01*
X27086Y40472D01*
X27265Y40318D01*
X27467Y40195D01*
X27685Y40104D01*
X27914Y40049D01*
X28150Y40035D01*
X28288D01*
X28346Y40031D01*
X28405Y40035D01*
X31614D01*
Y35124D01*
X28645D01*
X28619Y35146D01*
X28244Y35377D01*
X27836Y35545D01*
X27408Y35648D01*
X26969Y35683D01*
X26529Y35648D01*
X26101Y35545D01*
X25693Y35377D01*
X25318Y35146D01*
X24982Y34860D01*
X24696Y34525D01*
X24466Y34149D01*
X24297Y33742D01*
X24194Y33313D01*
X24162Y32896D01*
X23187Y31921D01*
X19980D01*
X19666Y31903D01*
X19360Y31829D01*
X19070Y31709D01*
X18801Y31544D01*
X18562Y31340D01*
X18532Y31304D01*
X17229Y31303D01*
X17137Y31281D01*
X17050Y31245D01*
X16969Y31196D01*
X16897Y31134D01*
X16836Y31062D01*
X16787Y30982D01*
X16750Y30895D01*
X16728Y30803D01*
X16723Y30709D01*
X16728Y29040D01*
X16750Y28948D01*
X16787Y28861D01*
X16836Y28780D01*
X16897Y28708D01*
X16969Y28647D01*
X16978Y28642D01*
X16969Y28637D01*
X16897Y28575D01*
X16836Y28503D01*
X16787Y28423D01*
X16750Y28336D01*
X16728Y28244D01*
X16723Y28150D01*
X16728Y26481D01*
X16750Y26389D01*
X16787Y26302D01*
X16836Y26221D01*
X16897Y26149D01*
X16969Y26088D01*
X16978Y26083D01*
X16969Y26077D01*
X16897Y26016D01*
X16836Y25944D01*
X16787Y25864D01*
X16750Y25777D01*
X16728Y25685D01*
X16723Y25591D01*
X16728Y23922D01*
X16750Y23830D01*
X16787Y23743D01*
X16836Y23662D01*
X16897Y23590D01*
X16969Y23529D01*
X16978Y23524D01*
X16969Y23518D01*
X16897Y23457D01*
X16836Y23385D01*
X16787Y23305D01*
X16750Y23217D01*
X16728Y23126D01*
X16723Y23032D01*
X16728Y21363D01*
X16750Y21271D01*
X16787Y21183D01*
X16836Y21103D01*
X16897Y21031D01*
X16969Y20970D01*
X17050Y20920D01*
X17137Y20884D01*
X17229Y20862D01*
X17323Y20857D01*
X22732Y20862D01*
X22824Y20884D01*
X22911Y20920D01*
X22992Y20970D01*
X23063Y21031D01*
X23125Y21103D01*
X23174Y21183D01*
X23210Y21271D01*
X23232Y21363D01*
X23238Y21457D01*
X23232Y23126D01*
X23210Y23217D01*
X23174Y23305D01*
X23125Y23385D01*
X23063Y23457D01*
X22992Y23518D01*
X22983Y23524D01*
X22992Y23529D01*
X23063Y23590D01*
X23125Y23662D01*
X23174Y23743D01*
X23210Y23830D01*
X23232Y23922D01*
X23238Y24016D01*
X23232Y25685D01*
X23210Y25777D01*
X23174Y25864D01*
X23125Y25944D01*
X23063Y26016D01*
X22992Y26077D01*
X22983Y26083D01*
X22992Y26088D01*
X23063Y26149D01*
X23125Y26221D01*
X23174Y26302D01*
X23210Y26389D01*
X23232Y26481D01*
X23238Y26575D01*
X23233Y27921D01*
X23937D01*
X24016Y27915D01*
X24329Y27940D01*
X24330Y27940D01*
X24636Y28013D01*
X24927Y28134D01*
X25195Y28298D01*
X25434Y28503D01*
X25485Y28563D01*
X26990Y30067D01*
X27408Y30100D01*
X27836Y30203D01*
X28244Y30372D01*
X28619Y30602D01*
X28645Y30624D01*
X31614D01*
Y19695D01*
X30550Y19691D01*
X30397Y19654D01*
X30252Y19594D01*
X30118Y19511D01*
X30117Y19511D01*
X30117Y19511D01*
X29983Y19594D01*
X29837Y19654D01*
X29684Y19691D01*
X29527Y19700D01*
X27402Y19691D01*
X27249Y19654D01*
X27104Y19594D01*
X26970Y19511D01*
X26850Y19409D01*
X26748Y19289D01*
X26666Y19155D01*
X26605Y19010D01*
X26569Y18857D01*
X26559Y18700D01*
X26569Y15789D01*
X26605Y15636D01*
X26666Y15490D01*
X26748Y15356D01*
X26850Y15237D01*
X26970Y15134D01*
X27104Y15052D01*
X27240Y14996D01*
Y9055D01*
X27254Y8820D01*
X27309Y8590D01*
X27356Y8477D01*
X27358Y5240D01*
X22284D01*
X22288Y5315D01*
X22262Y5754D01*
X22159Y6183D01*
X21991Y6590D01*
X21760Y6966D01*
X21474Y7301D01*
X21139Y7587D01*
X20763Y7817D01*
X20356Y7986D01*
X19928Y8089D01*
X19488Y8124D01*
X19049Y8089D01*
X18620Y7986D01*
X18213Y7817D01*
X17837Y7587D01*
X17502Y7301D01*
X17216Y6966D01*
X16986Y6590D01*
X16817Y6183D01*
X16714Y5754D01*
X16680Y5315D01*
X16714Y4876D01*
X16817Y4447D01*
X16986Y4040D01*
X17216Y3664D01*
X17502Y3329D01*
X17837Y3043D01*
X18213Y2812D01*
X18620Y2644D01*
X19049Y2541D01*
X19488Y2506D01*
X19928Y2541D01*
X20107Y2584D01*
X20179Y2523D01*
X20380Y2400D01*
X20598Y2309D01*
X20828Y2254D01*
X21063Y2236D01*
X21122Y2240D01*
X31614D01*
Y1969D01*
X7126D01*
Y58105D01*
X7127Y58105D01*
X7405Y58276D01*
X7654Y58488D01*
X7866Y58736D01*
X8037Y59015D01*
X8162Y59317D01*
X8238Y59635D01*
X8257Y59961D01*
X8238Y60286D01*
X8162Y60604D01*
X8037Y60906D01*
X7866Y61185D01*
X7654Y61433D01*
X7405Y61646D01*
X7127Y61816D01*
X7126Y61817D01*
Y75753D01*
X7329Y75769D01*
X7758Y75872D01*
X8165Y76041D01*
X8541Y76271D01*
X8876Y76557D01*
X9162Y76892D01*
X9392Y77268D01*
X9561Y77675D01*
X9664Y78104D01*
X9690Y78543D01*
X9664Y78983D01*
X9561Y79411D01*
X9392Y79818D01*
X9162Y80194D01*
X9140Y80220D01*
Y82161D01*
X10173Y82161D01*
X10265Y82184D01*
X10352Y82220D01*
X10432Y82269D01*
X10504Y82330D01*
X10566Y82402D01*
X10615Y82483D01*
X10651Y82570D01*
X10673Y82662D01*
X10679Y82756D01*
X10673Y87181D01*
X10651Y87273D01*
X10615Y87360D01*
X10566Y87440D01*
X10504Y87512D01*
X10432Y87574D01*
X10352Y87623D01*
X10265Y87659D01*
X10173Y87681D01*
X10079Y87687D01*
X7126Y87684D01*
Y88064D01*
X10173Y88067D01*
X10265Y88089D01*
X10352Y88125D01*
X10432Y88175D01*
X10504Y88236D01*
X10566Y88308D01*
X10615Y88388D01*
X10651Y88475D01*
X10673Y88567D01*
X10679Y88661D01*
X10678Y89327D01*
X11111D01*
X11492Y88946D01*
Y82342D01*
X11488Y82283D01*
X11506Y82048D01*
X11561Y81819D01*
X11651Y81600D01*
X11775Y81399D01*
X11928Y81220D01*
X11973Y81181D01*
X13900Y79254D01*
X13960Y79201D01*
X13703Y79044D01*
X13368Y78758D01*
X13082Y78423D01*
X12852Y78047D01*
X12683Y77640D01*
X12580Y77211D01*
X12546Y76772D01*
X12580Y76332D01*
X12683Y75904D01*
X12852Y75497D01*
X13082Y75121D01*
X13368Y74786D01*
X13703Y74499D01*
X14079Y74269D01*
X14486Y74100D01*
X14915Y73998D01*
X15354Y73963D01*
X15794Y73998D01*
X16222Y74100D01*
X16629Y74269D01*
X17005Y74499D01*
X17340Y74786D01*
X17627Y75121D01*
X17857Y75497D01*
X18026Y75904D01*
X18128Y76332D01*
X18154Y76772D01*
X18128Y77211D01*
X18026Y77640D01*
X17857Y78047D01*
X17627Y78423D01*
X17340Y78758D01*
X17273Y78815D01*
X25386D01*
X25388Y78033D01*
X25425Y77880D01*
X25485Y77735D01*
X25567Y77600D01*
X25670Y77481D01*
X25789Y77378D01*
X25924Y77296D01*
X26069Y77236D01*
X26222Y77199D01*
X26379Y77190D01*
X28504Y77199D01*
X28657Y77236D01*
X28802Y77296D01*
X28937Y77378D01*
X28937Y77379D01*
X28937Y77378D01*
X29011Y77333D01*
Y76472D01*
X28984Y76449D01*
X28923Y76377D01*
X28873Y76297D01*
X28837Y76210D01*
X28815Y76118D01*
X28809Y76024D01*
X28815Y73174D01*
X28837Y73082D01*
X28873Y72994D01*
X28923Y72914D01*
X28984Y72842D01*
X29056Y72781D01*
X29136Y72731D01*
X29223Y72695D01*
X29315Y72673D01*
X29409Y72668D01*
X31614Y72673D01*
Y64834D01*
X31557Y64869D01*
X31412Y64929D01*
X31259Y64966D01*
X31102Y64975D01*
X28977Y64966D01*
X28824Y64929D01*
X28679Y64869D01*
X28544Y64787D01*
X28544Y64787D01*
X28544Y64787D01*
X28409Y64869D01*
X28358Y64890D01*
X28385Y64907D01*
X28457Y64968D01*
X28518Y65040D01*
X28568Y65120D01*
X28604Y65208D01*
X28626Y65300D01*
X28631Y65394D01*
X28626Y68244D01*
X28604Y68336D01*
X28568Y68423D01*
X28518Y68503D01*
X28457Y68575D01*
X28385Y68637D01*
X28305Y68686D01*
X28217Y68722D01*
X28126Y68744D01*
X28031Y68750D01*
X25575Y68744D01*
X25483Y68722D01*
X25396Y68686D01*
X25316Y68637D01*
X25244Y68575D01*
X25182Y68503D01*
X25133Y68423D01*
X25097Y68336D01*
X25075Y68244D01*
X25069Y68150D01*
X25075Y65300D01*
X25097Y65208D01*
X25133Y65120D01*
X25182Y65040D01*
X25244Y64968D01*
X25316Y64907D01*
X25350Y64885D01*
Y64748D01*
X25277Y64685D01*
X25175Y64565D01*
X25092Y64431D01*
X25032Y64285D01*
X24995Y64132D01*
X24986Y63975D01*
X24995Y61065D01*
X25032Y60911D01*
X25092Y60766D01*
X25175Y60632D01*
X25277Y60512D01*
X25396Y60410D01*
X25531Y60328D01*
X25676Y60267D01*
X25829Y60231D01*
X25986Y60221D01*
X28111Y60231D01*
X28264Y60267D01*
X28409Y60328D01*
X28544Y60410D01*
X28544Y60410D01*
X28544Y60410D01*
X28679Y60328D01*
X28824Y60267D01*
X28977Y60231D01*
X29134Y60221D01*
X31259Y60231D01*
X31412Y60267D01*
X31557Y60328D01*
X31614Y60362D01*
Y43035D01*
G37*
G36*
X7126Y1969D02*X4134D01*
X1575Y4528D01*
Y94094D01*
X4331Y96850D01*
X7126D01*
Y93589D01*
X4079Y93587D01*
X3987Y93565D01*
X3900Y93528D01*
X3819Y93479D01*
X3748Y93418D01*
X3686Y93346D01*
X3637Y93265D01*
X3601Y93178D01*
X3579Y93086D01*
X3573Y92992D01*
X3579Y88567D01*
X3601Y88475D01*
X3637Y88388D01*
X3686Y88308D01*
X3748Y88236D01*
X3819Y88175D01*
X3900Y88125D01*
X3987Y88089D01*
X4079Y88067D01*
X4173Y88061D01*
X7126Y88064D01*
Y87684D01*
X4079Y87681D01*
X3987Y87659D01*
X3900Y87623D01*
X3819Y87574D01*
X3748Y87512D01*
X3686Y87440D01*
X3637Y87360D01*
X3601Y87273D01*
X3579Y87181D01*
X3573Y87087D01*
X3579Y82662D01*
X3601Y82570D01*
X3637Y82483D01*
X3686Y82402D01*
X3748Y82330D01*
X3819Y82269D01*
X3900Y82220D01*
X3987Y82184D01*
X4079Y82161D01*
X4173Y82156D01*
X4640Y82156D01*
Y80220D01*
X4618Y80194D01*
X4387Y79818D01*
X4219Y79411D01*
X4116Y78983D01*
X4081Y78543D01*
X4116Y78104D01*
X4219Y77675D01*
X4387Y77268D01*
X4618Y76892D01*
X4904Y76557D01*
X5239Y76271D01*
X5615Y76041D01*
X6022Y75872D01*
X6450Y75769D01*
X6890Y75735D01*
X7126Y75753D01*
Y61817D01*
X6825Y61941D01*
X6507Y62018D01*
X6181Y62043D01*
X5855Y62018D01*
X5537Y61941D01*
X5236Y61816D01*
X4957Y61646D01*
X4708Y61433D01*
X4496Y61185D01*
X4325Y60906D01*
X4200Y60604D01*
X4124Y60286D01*
X4098Y59961D01*
X4124Y59635D01*
X4200Y59317D01*
X4325Y59015D01*
X4496Y58736D01*
X4708Y58488D01*
X4957Y58276D01*
X5236Y58105D01*
X5537Y57980D01*
X5855Y57903D01*
X6181Y57878D01*
X6507Y57903D01*
X6825Y57980D01*
X7126Y58105D01*
Y1969D01*
G37*
G54D12*X67717Y72835D02*X68504Y72047D01*
X55315Y72835D02*X67717D01*
X52953Y75197D02*X55315Y72835D01*
X52953Y92717D02*Y75197D01*
X61220Y67717D02*X45472Y51969D01*
X45866D01*
X45472Y58661D02*Y62598D01*
X45472Y57875D02*X45472Y57874D01*
X68701Y67717D02*X61220D01*
X68898Y63189D02*X63386Y57677D01*
X53346Y93110D02*X52952Y92717D01*
X44488Y81102D02*X34803Y90787D01*
X45984Y75078D02*X36024Y85039D01*
X46063Y81102D02*X44488D01*
X49803Y88976D02*Y92125D01*
X50001Y92323D01*
X45472Y62598D02*X45472Y62598D01*
X42244Y66850D02*Y62678D01*
X42324Y62598D01*
X45984Y74921D02*Y75078D01*
X19488Y45669D02*X17913Y44094D01*
X13583Y68839D02*X14843Y70098D01*
X13583Y58858D02*Y68839D01*
X19882Y52559D02*X13583Y58858D01*
X15848Y48817D02*X14843Y49823D01*
X22244Y45669D02*X19488D01*
X26575Y43307D02*X28346Y41535D01*
X26575Y49803D02*Y43307D01*
X23819Y52559D02*X26575Y49803D01*
X19882Y52559D02*X23819D01*
X30118Y62598D02*X34449D01*
X22244Y48817D02*X15848D01*
X26850Y66772D02*Y62718D01*
X26970Y62598D01*
G54D13*X6890Y84685D02*X7126Y84921D01*
X6890Y78543D02*Y84685D01*
G54D12*X7126Y78780D02*X6890Y78543D01*
X29134Y85039D02*X36024D01*
X28976Y90787D02*X34803D01*
X19054Y85039D02*X18937Y84921D01*
X25986Y85039D02*X19054D01*
X25788Y90827D02*X25828Y90787D01*
X18937Y90827D02*X25788D01*
X30511Y79567D02*Y74725D01*
X15157Y80315D02*X26812D01*
X26615D02*X27363Y79567D01*
X30511Y74725D02*X30591Y74646D01*
X7126Y90827D02*X11732D01*
X12992Y89567D01*
Y82283D01*
X14961Y80315D01*
X108268Y59646D02*Y58071D01*
X115551Y66929D02*X108268Y59646D01*
X120276Y65413D02*X119754Y64892D01*
X120276Y70669D02*Y65413D01*
X115551Y90157D02*Y66929D01*
X117913Y92520D02*X115551Y90157D01*
X121654Y92520D02*X117913D01*
X124606Y92324D02*X124802Y92520D01*
X124606Y90551D02*Y92324D01*
X119528Y85472D02*X124606Y90551D01*
X119528Y84941D02*Y85472D01*
X111711Y57382D02*X111219Y57874D01*
X119488Y57382D02*X111711D01*
X108268Y58071D02*X107972Y57776D01*
X108072Y57875D02*X108071Y57874D01*
G54D13*X90394Y60394D02*X88976Y61811D01*
Y60433D02*X90236D01*
X88976Y69252D02*X88700Y69528D01*
X88976Y60433D02*Y69252D01*
X90394Y60276D02*Y60394D01*
G54D12*X56102Y27953D02*X58268Y30118D01*
X65945D02*X58268D01*
X66831Y29232D02*X67323Y28740D01*
G54D13*X26969Y32874D02*X72835D01*
G54D12*X55118Y41535D02*X28150D01*
X60236Y37795D02*X39961D01*
X63386Y49803D02*X55118Y41535D01*
X63386Y57677D02*Y49803D01*
X68701Y46260D02*X60236Y37795D01*
X68701Y55315D02*Y46260D01*
X39961Y53150D02*X45472Y58661D01*
X39961Y50984D02*Y53150D01*
X45472Y45472D02*X39961Y50984D01*
X45472Y45276D02*Y45472D01*
G54D14*X24016Y29921D02*X26969Y32874D01*
X19980Y29921D02*X24016D01*
G54D12*X21063Y3740D02*X19488Y5315D01*
X38976Y3740D02*X21063D01*
X39764Y4528D02*X38976Y3740D01*
X40354D02*X47441D01*
X39764Y4331D02*X40354Y3740D01*
X52756D02*X53543Y4528D01*
X49016Y3740D02*X52756D01*
X48031Y4724D02*X49016Y3740D01*
X48031Y9055D02*Y4724D01*
Y4331D02*Y9055D01*
X47441Y3740D02*X48031Y4331D01*
X39764Y13976D02*Y4331D01*
X37008Y14764D02*Y9055D01*
X37794Y15550D02*X37008Y14764D01*
X34252Y16929D02*X34646Y17323D01*
X34252Y9055D02*Y16929D01*
X31496Y17128D02*X31691Y17323D01*
X31496Y9055D02*Y17128D01*
X28740Y17126D02*X28543Y17323D01*
X28740Y9055D02*Y17126D01*
X56102Y21654D02*Y27953D01*
X61615Y21457D02*X61812Y21260D01*
X55906Y21457D02*X61615D01*
X72441Y17323D02*X72342Y17224D01*
X72835Y16731D02*X72440Y17126D01*
X72835Y9055D02*Y16731D01*
X64960Y25196D02*X64959Y25197D01*
X64960Y17126D02*Y25196D01*
X56299Y14567D02*X56693Y14961D01*
X56299Y9055D02*Y14567D01*
X61812Y9056D02*X61811Y9055D01*
X61812Y17126D02*Y9056D01*
X44685Y22638D02*X44488Y22441D01*
X44685Y27559D02*Y22638D01*
X53543Y17126D02*Y4528D01*
Y19094D02*X55906Y21457D01*
X53543Y17323D02*Y19094D01*
X56693Y17124D02*X56691Y17126D01*
X56693Y14961D02*Y17124D01*
X41535Y17320D02*X41535Y17321D01*
X41535Y15748D02*Y17320D01*
X37794Y17323D02*Y15550D01*
X39764Y13976D02*X41535Y15748D01*
X67126Y28937D02*X65945Y30118D01*
X67323Y19095D02*X67717Y18701D01*
X67323Y28740D02*Y19095D01*
X67717Y18702D02*X69292Y17126D01*
X72441Y21260D02*X70866Y22835D01*
X72441Y17323D02*Y21260D01*
X88188Y26378D02*X78936Y17126D01*
X78150Y9843D02*X78346Y9646D01*
X78248Y9744D02*Y12107D01*
X75788Y14567D01*
X75787Y17127D02*X75788Y17126D01*
Y9253D01*
X75787Y22835D02*Y17127D01*
X75788Y9253D02*X75591Y9055D01*
X108465Y33465D02*X103937D01*
X108346Y33346D02*X108465Y33465D01*
X108346Y30512D02*Y33346D01*
G54D13*X103543Y33465D02*Y25000D01*
G54D12*X111869Y30138D02*X111494Y30512D01*
X119528Y30138D02*X111869D01*
X119488Y37205D02*Y38976D01*
X122638Y42126D01*
X110235Y35238D02*X110236Y35236D01*
X110235Y40551D02*Y35238D01*
X104134Y40551D02*X103543Y41142D01*
X107087Y40551D02*X104134D01*
X108346Y33346D02*X110236Y35236D01*
G54D13*X94291Y42716D02*X103543Y33465D01*
X94291Y43307D02*Y42716D01*
X99409Y48425D02*X94291Y43307D01*
G54D12*X103937Y33465D02*X103543Y33071D01*
G54D13*X90236Y60433D02*X99409Y51260D01*
X79803D02*X88976Y60433D01*
X76575Y51260D02*X79803D01*
X74016Y39646D02*X76575Y42205D01*
X74016Y34055D02*Y39646D01*
X72835Y32874D02*X73622Y33661D01*
X99409Y51181D02*Y48425D01*
G54D12*X102185Y54035D02*X99409Y51260D01*
X108169Y54035D02*X102185D01*
X108072Y57677D02*Y57678D01*
X108071Y57676D02*X108072Y57677D01*
X108071Y54134D02*Y57676D01*
X103543Y26378D02*X88188D01*
X100787Y17321D02*X100789Y17323D01*
X100787Y14961D02*Y17321D01*
X100394Y14567D02*X100787Y14961D01*
X100394Y9055D02*Y14567D01*
X97047Y15748D02*Y17323D01*
X97638Y15157D02*X97047Y15748D01*
X97638Y9055D02*Y15157D01*
X93110Y17126D02*X92913Y17323D01*
X93110Y15748D02*Y17126D01*
X94882Y13976D02*X93110Y15748D01*
X94882Y9055D02*Y13976D01*
G54D13*X111220Y14173D02*Y10039D01*
X107874Y17520D02*X111220Y14173D01*
G54D12*X119528Y9862D02*Y13425D01*
X121063Y14961D01*
G54D13*X107874Y20669D02*Y17323D01*
X103543Y25000D02*X107874Y20669D01*
G54D12*X108346Y17992D02*X107874Y17520D01*
X121063Y14961D02*Y23819D01*
G54D15*X56693Y58032D02*X59133D01*
X57913D02*Y53152D01*
G54D16*X25984Y13189D02*Y6102D01*
X28740Y13189D02*Y6102D01*
X31496Y13189D02*Y6102D01*
G54D17*X14843Y50709D02*Y48937D01*
G54D11*G36*
X5709Y23819D02*Y16339D01*
X13189D01*
Y23819D01*
X5709D01*
G37*
G36*
Y12598D02*Y5118D01*
X13189D01*
Y12598D01*
X5709D01*
G37*
G54D16*X18110Y29921D02*X21850D01*
G54D18*X19488Y37992D02*Y36024D01*
G54D11*G36*
X5709Y44488D02*Y37008D01*
X13189D01*
Y44488D01*
X5709D01*
G37*
G36*
Y33268D02*Y25787D01*
X13189D01*
Y33268D01*
X5709D01*
G37*
G54D17*X8150Y50709D02*Y48937D01*
G54D16*X18110Y27362D02*X21850D01*
X18110Y24803D02*X21850D01*
X18110Y22244D02*X21850D01*
X18110Y19685D02*X21850D01*
G54D18*X19488Y13583D02*Y11614D01*
G54D19*X29134Y85432D02*Y84646D01*
X25986Y85432D02*Y84646D01*
X28976Y91180D02*Y90394D01*
X25828Y91180D02*Y90394D01*
G54D20*X6339Y90827D02*X7913D01*
X6339Y84921D02*X7913D01*
G54D21*X26850Y66969D02*Y66575D01*
G54D17*X8150Y70984D02*Y69213D01*
X14843Y70984D02*Y69213D01*
G54D21*X30591Y74843D02*Y74449D01*
G54D19*X27363Y79960D02*Y79174D01*
G54D20*X18150Y90827D02*X19724D01*
X18150Y84921D02*X19724D01*
G54D16*X39764Y13189D02*Y6102D01*
G54D21*X34331Y66969D02*Y66575D01*
G54D19*X37794Y17716D02*Y16930D01*
G54D21*X49724Y67047D02*Y66654D01*
X42244Y67047D02*Y66654D01*
X45984Y74921D02*Y74528D01*
G54D19*X42324Y62991D02*Y62205D01*
X45472Y62991D02*Y62205D01*
X26970Y62991D02*Y62205D01*
X30118Y62991D02*Y62205D01*
X34646Y17716D02*Y16930D01*
X44685Y27952D02*Y27166D01*
X41537Y27952D02*Y27166D01*
X21851Y45669D02*X22637D01*
X21851Y48817D02*X22637D01*
X30511Y79960D02*Y79174D01*
G54D21*X49803Y89173D02*Y88780D01*
G54D19*X49804Y93110D02*Y92324D01*
X52952Y93110D02*Y92324D01*
G54D21*X42323Y89173D02*Y88780D01*
X46063Y81299D02*Y80906D01*
G54D16*X42520Y13189D02*Y6102D01*
G54D19*X41535Y17714D02*Y16928D01*
G54D16*X45276Y13189D02*Y6102D01*
G54D19*X44683Y17714D02*Y16928D01*
G54D16*X48031Y13189D02*Y6102D01*
X50787Y13189D02*Y6102D01*
X53543Y13189D02*Y6102D01*
G54D19*X53543Y17519D02*Y16733D01*
G54D16*X34252Y13189D02*Y6102D01*
X37008Y13189D02*Y6102D01*
G54D19*X31691Y17716D02*Y16930D01*
X28543Y17716D02*Y16930D01*
G54D22*X103543Y34646D02*Y32284D01*
X91733Y34646D02*Y32284D01*
G54D19*X108346Y30905D02*Y30119D01*
X111494Y30905D02*Y30119D01*
G54D23*X99409Y53425D02*Y49094D01*
G54D19*X110235Y40944D02*Y40158D01*
X107087Y40944D02*Y40158D01*
G54D24*X74213Y60315D02*X78937D01*
G54D22*X88700Y70709D02*Y68347D01*
X76890Y70709D02*Y68347D01*
G54D24*X74213Y51260D02*X78937D01*
X74213Y42205D02*X78937D01*
G54D22*X73623Y34646D02*Y32284D01*
X85433Y34646D02*Y32284D01*
G54D16*X67323Y13189D02*Y6102D01*
X70079Y13189D02*Y6102D01*
G54D19*X69292Y17519D02*Y16733D01*
G54D16*X72835Y13189D02*Y6102D01*
G54D19*X72440Y17519D02*Y16733D01*
X61812Y21653D02*Y20867D01*
X61811Y25590D02*Y24804D01*
X64960Y21653D02*Y20867D01*
Y17519D02*Y16733D01*
X64959Y25590D02*Y24804D01*
G54D16*X75591Y13189D02*Y6102D01*
X78346Y13189D02*Y6102D01*
X81102Y13189D02*Y6102D01*
G54D19*X78936Y17519D02*Y16733D01*
X75788Y17519D02*Y16733D01*
G54D16*X83858Y13189D02*Y6102D01*
X86614Y13189D02*Y6102D01*
X89370Y13189D02*Y6102D01*
G54D19*X89765Y17716D02*Y16930D01*
G54D17*X119528Y31024D02*Y29252D01*
Y65551D02*Y63780D01*
Y85827D02*Y84055D01*
G54D19*X121654Y92913D02*Y92127D01*
G54D17*X119488Y37992D02*Y36220D01*
Y58268D02*Y56496D01*
X126220Y31024D02*Y29252D01*
Y65551D02*Y63780D01*
Y85827D02*Y84055D01*
G54D19*X124802Y92913D02*Y92127D01*
G54D17*X126181Y37992D02*Y36220D01*
Y58268D02*Y56496D01*
G54D19*X108071Y58267D02*Y57481D01*
X111219Y58267D02*Y57481D01*
G54D16*X61811Y13189D02*Y6102D01*
X64567Y13189D02*Y6102D01*
G54D19*X56691Y17519D02*Y16733D01*
X61812Y17519D02*Y16733D01*
G54D16*X56299Y13189D02*Y6102D01*
X59055Y13189D02*Y6102D01*
X92126Y13189D02*Y6102D01*
X94882Y13189D02*Y6102D01*
X97638Y13189D02*Y6102D01*
X100394Y13189D02*Y6102D01*
X103150Y13189D02*Y6102D01*
G54D19*X103937Y17716D02*Y16930D01*
G54D16*X105906Y13189D02*Y6102D01*
G54D19*X110827Y6891D02*X111613D01*
X110827Y10039D02*X111613D01*
G54D17*X126220Y10748D02*Y8976D01*
X119528Y10748D02*Y8976D01*
G54D19*X92913Y17716D02*Y16930D01*
X100789Y17716D02*Y16930D01*
G54D25*X96358Y22441D02*X97342D01*
X96358Y17323D02*X97342D01*
G54D26*X3937Y14370D03*
X19488Y5315D03*
X44488Y22441D03*
X3543Y35433D03*
X3937Y54921D03*
X34646Y47638D03*
X17913Y44094D03*
X39961Y75197D03*
X23031Y70866D03*
X6890Y78543D03*
X15354Y76772D03*
X26969Y32874D03*
X87598Y45472D03*
X129331Y90945D03*
X125984Y4528D03*
X68504Y72047D03*
X120276Y70669D03*
X107874Y17520D03*
X75787Y22835D03*
X121063Y24016D03*
X103543Y41142D03*
X122638Y42126D03*
X68701Y67717D03*
X68898Y63189D03*
X39961Y37795D03*
X45472Y51969D03*
Y45276D03*
X34449Y62598D03*
X68701Y55315D03*
X67323Y28740D03*
G54D27*X61811Y27165D03*
G54D26*X84646Y16142D03*
X82677Y20866D03*
X70866Y22835D03*
G54D14*G54D28*G54D14*M02*
