G04 start of page 3 for group 5 idx 5 *
G04 Title: (unknown), bottom *
G04 Creator: pcb 20140316 *
G04 CreationDate: Tue Dec  8 09:12:03 2015 UTC *
G04 For: clemi *
G04 Format: Gerber/RS-274X *
G04 PCB-Dimensions (mil): 1338.58 984.25 *
G04 PCB-Coordinate-Origin: lower left *
%MOIN*%
%FSLAX25Y25*%
%LNBOTTOM*%
%ADD38C,0.0118*%
%ADD37C,0.0200*%
%ADD36C,0.0240*%
%ADD35C,0.0360*%
%ADD34R,0.0472X0.0472*%
%ADD33R,0.0630X0.0630*%
%ADD32C,0.0060*%
%ADD31C,0.0250*%
%ADD30C,0.0100*%
%ADD29C,0.0001*%
G54D29*G36*
X110411Y60392D02*X110473Y60340D01*
X110554Y60291D01*
X110641Y60254D01*
X110733Y60232D01*
X110827Y60227D01*
X119582Y60232D01*
X119674Y60254D01*
X119761Y60291D01*
X119842Y60340D01*
X119914Y60401D01*
X119975Y60473D01*
X120024Y60554D01*
X120061Y60641D01*
X120083Y60733D01*
X120088Y60827D01*
X120083Y65645D01*
X120061Y65737D01*
X120024Y65824D01*
X119975Y65905D01*
X119914Y65977D01*
X119842Y66038D01*
X119761Y66087D01*
X119674Y66124D01*
X119582Y66146D01*
X119488Y66151D01*
X110733Y66146D01*
X110641Y66124D01*
X110554Y66087D01*
X110473Y66038D01*
X110411Y65985D01*
Y66413D01*
X113721D01*
X113780Y66409D01*
X114014Y66427D01*
X114015Y66427D01*
X114244Y66482D01*
X114463Y66573D01*
X114664Y66696D01*
X114843Y66849D01*
X114882Y66894D01*
X117157Y69169D01*
X117911D01*
X118003Y69018D01*
X118290Y68683D01*
X118625Y68397D01*
X119000Y68167D01*
X119408Y67998D01*
X119836Y67895D01*
X120276Y67861D01*
X120715Y67895D01*
X121144Y67998D01*
X121551Y68167D01*
X121926Y68397D01*
X122262Y68683D01*
X122548Y69018D01*
X122778Y69394D01*
X122947Y69801D01*
X123008Y70056D01*
Y45433D01*
X123003Y45374D01*
X123022Y45139D01*
X123077Y44909D01*
X123081Y44899D01*
X123077Y44900D01*
X122638Y44935D01*
X122198Y44900D01*
X121770Y44797D01*
X121363Y44628D01*
X120987Y44398D01*
X120652Y44112D01*
X120366Y43777D01*
X120135Y43401D01*
X119967Y42994D01*
X119864Y42565D01*
X119851Y42408D01*
X119842Y42416D01*
X119761Y42465D01*
X119674Y42502D01*
X119582Y42524D01*
X119488Y42529D01*
X110733Y42524D01*
X110641Y42502D01*
X110554Y42465D01*
X110473Y42416D01*
X110411Y42363D01*
Y44644D01*
X110473Y44592D01*
X110554Y44542D01*
X110641Y44506D01*
X110733Y44484D01*
X110827Y44479D01*
X119582Y44484D01*
X119674Y44506D01*
X119761Y44542D01*
X119842Y44592D01*
X119914Y44653D01*
X119975Y44725D01*
X120024Y44806D01*
X120061Y44893D01*
X120083Y44985D01*
X120088Y45079D01*
X120083Y49897D01*
X120061Y49989D01*
X120024Y50076D01*
X119975Y50157D01*
X119914Y50229D01*
X119842Y50290D01*
X119761Y50339D01*
X119674Y50376D01*
X119582Y50398D01*
X119488Y50403D01*
X110733Y50398D01*
X110641Y50376D01*
X110554Y50339D01*
X110473Y50290D01*
X110411Y50237D01*
Y52518D01*
X110473Y52466D01*
X110554Y52417D01*
X110641Y52380D01*
X110733Y52358D01*
X110827Y52353D01*
X119582Y52358D01*
X119674Y52380D01*
X119761Y52417D01*
X119842Y52466D01*
X119914Y52527D01*
X119975Y52599D01*
X120024Y52680D01*
X120061Y52767D01*
X120083Y52859D01*
X120088Y52953D01*
X120083Y57771D01*
X120061Y57863D01*
X120024Y57950D01*
X119975Y58031D01*
X119914Y58103D01*
X119842Y58164D01*
X119761Y58213D01*
X119674Y58250D01*
X119582Y58272D01*
X119488Y58277D01*
X110733Y58272D01*
X110641Y58250D01*
X110554Y58213D01*
X110473Y58164D01*
X110411Y58111D01*
Y60392D01*
G37*
G36*
Y65985D02*X110401Y65977D01*
X110340Y65905D01*
X110291Y65824D01*
X110254Y65737D01*
X110232Y65645D01*
X110227Y65551D01*
X110228Y64689D01*
X71262D01*
X71170Y64840D01*
X70884Y65175D01*
X70549Y65461D01*
X70445Y65524D01*
X70687Y65731D01*
X70973Y66066D01*
X71186Y66413D01*
X110411D01*
Y65985D01*
G37*
G36*
X36633Y96850D02*X53543D01*
X56299Y94094D01*
Y77559D01*
X59252Y74606D01*
X67365D01*
X67229Y74550D01*
X66853Y74319D01*
X66518Y74033D01*
X66232Y73698D01*
X66001Y73322D01*
X65833Y72915D01*
X65730Y72487D01*
X65695Y72047D01*
X65730Y71608D01*
X65833Y71179D01*
X66001Y70772D01*
X66232Y70396D01*
X66518Y70061D01*
X66826Y69798D01*
X66715Y69703D01*
X66429Y69367D01*
X66198Y68992D01*
X66030Y68584D01*
X65927Y68156D01*
X65892Y67717D01*
X65927Y67277D01*
X66030Y66849D01*
X66198Y66441D01*
X66429Y66066D01*
X66715Y65731D01*
X67050Y65444D01*
X67153Y65381D01*
X66912Y65175D01*
X66625Y64840D01*
X66395Y64464D01*
X66226Y64057D01*
X66124Y63628D01*
X66089Y63189D01*
X66124Y62750D01*
X66226Y62321D01*
X66395Y61914D01*
X66625Y61538D01*
X66912Y61203D01*
X67247Y60917D01*
X67623Y60686D01*
X68030Y60518D01*
X68458Y60415D01*
X68898Y60380D01*
X69337Y60415D01*
X69766Y60518D01*
X70173Y60686D01*
X70549Y60917D01*
X70884Y61203D01*
X71170Y61538D01*
X71262Y61689D01*
X110231D01*
X110232Y60733D01*
X110254Y60641D01*
X110291Y60554D01*
X110340Y60473D01*
X110401Y60401D01*
X110411Y60392D01*
Y58111D01*
X110401Y58103D01*
X110340Y58031D01*
X110291Y57950D01*
X110254Y57863D01*
X110232Y57771D01*
X110227Y57677D01*
X110228Y56815D01*
X71065D01*
X70973Y56966D01*
X70687Y57301D01*
X70352Y57587D01*
X69976Y57817D01*
X69569Y57986D01*
X69140Y58089D01*
X68701Y58124D01*
X68261Y58089D01*
X67833Y57986D01*
X67426Y57817D01*
X67050Y57587D01*
X66715Y57301D01*
X66429Y56966D01*
X66198Y56590D01*
X66030Y56183D01*
X65927Y55754D01*
X65892Y55315D01*
X65927Y54876D01*
X66030Y54447D01*
X66198Y54040D01*
X66429Y53664D01*
X66715Y53329D01*
X67050Y53043D01*
X67426Y52812D01*
X67833Y52644D01*
X68261Y52541D01*
X68701Y52506D01*
X69140Y52541D01*
X69569Y52644D01*
X69976Y52812D01*
X70352Y53043D01*
X70687Y53329D01*
X70973Y53664D01*
X71065Y53815D01*
X110231D01*
X110232Y52859D01*
X110254Y52767D01*
X110291Y52680D01*
X110340Y52599D01*
X110401Y52527D01*
X110411Y52518D01*
Y50237D01*
X110401Y50229D01*
X110340Y50157D01*
X110291Y50076D01*
X110254Y49989D01*
X110232Y49897D01*
X110227Y49803D01*
X110228Y48941D01*
X109901D01*
X109843Y48946D01*
X109607Y48927D01*
X109378Y48872D01*
X109159Y48782D01*
X108958Y48658D01*
X108958Y48658D01*
X108779Y48505D01*
X108740Y48460D01*
X104155Y43874D01*
X103983Y43916D01*
X103543Y43950D01*
X103104Y43916D01*
X102675Y43813D01*
X102268Y43644D01*
X101892Y43414D01*
X101557Y43128D01*
X101271Y42793D01*
X101041Y42417D01*
X100872Y42010D01*
X100769Y41581D01*
X100735Y41142D01*
X100769Y40702D01*
X100872Y40274D01*
X101041Y39867D01*
X101271Y39491D01*
X101557Y39156D01*
X101892Y38870D01*
X102268Y38639D01*
X102675Y38471D01*
X103104Y38368D01*
X103543Y38333D01*
X103983Y38368D01*
X104411Y38471D01*
X104818Y38639D01*
X105194Y38870D01*
X105529Y39156D01*
X105816Y39491D01*
X106046Y39867D01*
X106214Y40274D01*
X106317Y40702D01*
X106343Y41142D01*
X106317Y41581D01*
X106276Y41753D01*
X110231Y45709D01*
X110232Y44985D01*
X110254Y44893D01*
X110291Y44806D01*
X110340Y44725D01*
X110401Y44653D01*
X110411Y44644D01*
Y42363D01*
X110401Y42355D01*
X110340Y42283D01*
X110291Y42202D01*
X110254Y42115D01*
X110232Y42023D01*
X110227Y41929D01*
X110228Y41067D01*
X109704D01*
X109646Y41072D01*
X109410Y41053D01*
X109181Y40998D01*
X108963Y40908D01*
X108761Y40784D01*
X108761Y40784D01*
X108582Y40631D01*
X108543Y40586D01*
X100363Y32406D01*
X86054D01*
X65083Y53377D01*
Y66870D01*
X65087Y66929D01*
X65069Y67164D01*
X65069Y67165D01*
X65014Y67394D01*
X64923Y67612D01*
X64800Y67814D01*
X64647Y67993D01*
X64602Y68031D01*
X61732Y70901D01*
X61694Y70946D01*
X61514Y71099D01*
X61313Y71223D01*
X61095Y71313D01*
X60865Y71368D01*
X60865Y71368D01*
X60630Y71387D01*
X60571Y71382D01*
X41791D01*
X41732Y71387D01*
X41497Y71368D01*
X41267Y71313D01*
X41049Y71223D01*
X40848Y71099D01*
X40848Y71099D01*
X40668Y70946D01*
X40630Y70901D01*
X36633Y66904D01*
Y70929D01*
X37240Y71536D01*
X37284Y71574D01*
X37438Y71753D01*
X37438Y71753D01*
X37561Y71955D01*
X37651Y72173D01*
X37707Y72402D01*
X37725Y72638D01*
X37720Y72697D01*
Y83063D01*
X42023Y83067D01*
X42115Y83089D01*
X42202Y83125D01*
X42283Y83175D01*
X42355Y83236D01*
X42416Y83308D01*
X42465Y83388D01*
X42502Y83475D01*
X42524Y83567D01*
X42529Y83661D01*
X42524Y91630D01*
X42502Y91721D01*
X42465Y91809D01*
X42416Y91889D01*
X42355Y91961D01*
X42283Y92022D01*
X42202Y92072D01*
X42115Y92108D01*
X42023Y92130D01*
X41929Y92135D01*
X36633Y92131D01*
Y92238D01*
X44147D01*
X44255Y92130D01*
X44197Y92130D01*
X44105Y92108D01*
X44018Y92072D01*
X43938Y92022D01*
X43866Y91961D01*
X43804Y91889D01*
X43755Y91809D01*
X43719Y91721D01*
X43697Y91630D01*
X43691Y91535D01*
X43697Y83567D01*
X43719Y83475D01*
X43755Y83388D01*
X43804Y83308D01*
X43866Y83236D01*
X43938Y83175D01*
X44018Y83125D01*
X44105Y83089D01*
X44197Y83067D01*
X44291Y83061D01*
X50685Y83067D01*
X50777Y83089D01*
X50864Y83125D01*
X50944Y83175D01*
X51016Y83236D01*
X51077Y83308D01*
X51127Y83388D01*
X51163Y83475D01*
X51185Y83567D01*
X51191Y83661D01*
X51185Y91630D01*
X51163Y91721D01*
X51127Y91809D01*
X51077Y91889D01*
X51016Y91961D01*
X50944Y92022D01*
X50864Y92072D01*
X50777Y92108D01*
X50685Y92130D01*
X50591Y92135D01*
X49697Y92135D01*
X49670Y92479D01*
X49670Y92479D01*
X49587Y92823D01*
X49452Y93151D01*
X49267Y93453D01*
X49037Y93722D01*
X48970Y93779D01*
X46732Y96017D01*
X46675Y96084D01*
X46405Y96314D01*
X46103Y96499D01*
X45776Y96635D01*
X45432Y96717D01*
X45432Y96717D01*
X45079Y96745D01*
X44991Y96738D01*
X36633D01*
Y96850D01*
G37*
G36*
X128186Y17917D02*X128189Y17917D01*
X128515Y17943D01*
X128833Y18019D01*
X129135Y18144D01*
X129413Y18315D01*
X129662Y18527D01*
X129874Y18776D01*
X130045Y19054D01*
X130170Y19356D01*
X130246Y19674D01*
X130265Y20000D01*
X130246Y20326D01*
X130170Y20644D01*
X130045Y20946D01*
X129874Y21224D01*
X129662Y21473D01*
X129413Y21685D01*
X129135Y21856D01*
X128833Y21981D01*
X128515Y22057D01*
X128189Y22083D01*
X128186Y22083D01*
Y23309D01*
X129169Y24291D01*
X129214Y24330D01*
X129367Y24509D01*
X129367Y24509D01*
X129490Y24711D01*
X129581Y24929D01*
X129636Y25158D01*
X129654Y25394D01*
X129650Y25453D01*
Y41673D01*
X129654Y41732D01*
X129636Y41968D01*
X129581Y42197D01*
X129490Y42415D01*
X129367Y42617D01*
X129214Y42796D01*
X129169Y42835D01*
X128186Y43817D01*
Y45164D01*
X128475Y45187D01*
X128793Y45263D01*
X129095Y45388D01*
X129374Y45559D01*
X129622Y45771D01*
X129835Y46020D01*
X130005Y46299D01*
X130130Y46600D01*
X130207Y46918D01*
X130226Y47244D01*
X130207Y47570D01*
X130130Y47888D01*
X130005Y48190D01*
X129835Y48468D01*
X129622Y48717D01*
X129374Y48929D01*
X129095Y49100D01*
X128793Y49225D01*
X128475Y49301D01*
X128186Y49324D01*
Y72721D01*
X128189Y72720D01*
X128515Y72746D01*
X128833Y72822D01*
X129135Y72947D01*
X129413Y73118D01*
X129662Y73330D01*
X129874Y73579D01*
X130045Y73858D01*
X130170Y74160D01*
X130246Y74477D01*
X130265Y74803D01*
X130246Y75129D01*
X130170Y75447D01*
X130045Y75749D01*
X129874Y76027D01*
X129662Y76276D01*
X129413Y76488D01*
X129135Y76659D01*
X128833Y76784D01*
X128515Y76860D01*
X128189Y76886D01*
X128186Y76886D01*
Y96457D01*
X129331D01*
X131890Y93898D01*
Y4921D01*
X128937Y1969D01*
X128186D01*
Y17917D01*
G37*
G36*
Y43817D02*X126008Y45995D01*
Y77756D01*
X126008Y77756D01*
Y77992D01*
X126012Y78051D01*
X125994Y78286D01*
X125994Y78287D01*
X125939Y78516D01*
X125849Y78734D01*
X125725Y78936D01*
X125572Y79115D01*
X125527Y79153D01*
X124331Y80350D01*
X124292Y80395D01*
X124113Y80548D01*
X123911Y80671D01*
X123693Y80762D01*
X123464Y80817D01*
X123464Y80817D01*
X123228Y80835D01*
X123170Y80831D01*
X117185D01*
X117126Y80835D01*
X116891Y80817D01*
X116661Y80762D01*
X116443Y80671D01*
X116242Y80548D01*
X116241Y80548D01*
X116062Y80395D01*
X116024Y80350D01*
X109024Y73350D01*
X70989D01*
X70776Y73698D01*
X70490Y74033D01*
X70155Y74319D01*
X69779Y74550D01*
X69643Y74606D01*
X109646D01*
X112598Y77559D01*
Y93701D01*
X115354Y96457D01*
X128186D01*
Y76886D01*
X127863Y76860D01*
X127545Y76784D01*
X127243Y76659D01*
X126965Y76488D01*
X126716Y76276D01*
X126504Y76027D01*
X126333Y75749D01*
X126208Y75447D01*
X126132Y75129D01*
X126106Y74803D01*
X126132Y74477D01*
X126208Y74160D01*
X126333Y73858D01*
X126504Y73579D01*
X126716Y73330D01*
X126965Y73118D01*
X127243Y72947D01*
X127545Y72822D01*
X127863Y72746D01*
X128186Y72721D01*
Y49324D01*
X128150Y49327D01*
X127824Y49301D01*
X127506Y49225D01*
X127204Y49100D01*
X126925Y48929D01*
X126677Y48717D01*
X126465Y48468D01*
X126294Y48190D01*
X126169Y47888D01*
X126092Y47570D01*
X126067Y47244D01*
X126092Y46918D01*
X126169Y46600D01*
X126294Y46299D01*
X126465Y46020D01*
X126677Y45771D01*
X126925Y45559D01*
X127204Y45388D01*
X127506Y45263D01*
X127824Y45187D01*
X128150Y45161D01*
X128186Y45164D01*
Y43817D01*
G37*
G36*
Y22083D02*X127863Y22057D01*
X127545Y21981D01*
X127243Y21856D01*
X126965Y21685D01*
X126716Y21473D01*
X126504Y21224D01*
X126333Y20946D01*
X126208Y20644D01*
X126132Y20326D01*
X126106Y20001D01*
Y21229D01*
X128186Y23309D01*
Y22083D01*
G37*
G36*
X50963Y68382D02*X60009D01*
X62083Y66308D01*
Y52815D01*
X62078Y52756D01*
X62097Y52521D01*
X62152Y52291D01*
X62242Y52073D01*
X62365Y51872D01*
X62519Y51692D01*
X62564Y51654D01*
X84331Y29886D01*
X84369Y29842D01*
X84549Y29688D01*
X84549Y29688D01*
X84750Y29565D01*
X84968Y29475D01*
X85198Y29419D01*
X85433Y29401D01*
X85492Y29406D01*
X100925D01*
X100984Y29401D01*
X101219Y29419D01*
X101220Y29419D01*
X101449Y29475D01*
X101667Y29565D01*
X101869Y29688D01*
X102048Y29842D01*
X102087Y29886D01*
X110231Y38031D01*
X110232Y37111D01*
X110254Y37019D01*
X110291Y36931D01*
X110340Y36851D01*
X110401Y36779D01*
X110473Y36718D01*
X110554Y36668D01*
X110641Y36632D01*
X110733Y36610D01*
X110827Y36605D01*
X119582Y36610D01*
X119674Y36632D01*
X119761Y36668D01*
X119842Y36718D01*
X119914Y36779D01*
X119975Y36851D01*
X120024Y36931D01*
X120061Y37019D01*
X120083Y37111D01*
X120088Y37205D01*
X120084Y40975D01*
X120135Y40851D01*
X120366Y40475D01*
X120652Y40140D01*
X120987Y39854D01*
X121335Y39641D01*
Y35464D01*
X120071Y34200D01*
X120061Y34241D01*
X120024Y34328D01*
X119975Y34409D01*
X119914Y34481D01*
X119842Y34542D01*
X119761Y34591D01*
X119674Y34628D01*
X119582Y34650D01*
X119488Y34655D01*
X110733Y34650D01*
X110641Y34628D01*
X110554Y34591D01*
X110473Y34542D01*
X110401Y34481D01*
X110340Y34409D01*
X110291Y34328D01*
X110254Y34241D01*
X110232Y34149D01*
X110227Y34055D01*
X110232Y29237D01*
X110254Y29145D01*
X110291Y29057D01*
X110340Y28977D01*
X110401Y28905D01*
X110473Y28844D01*
X110554Y28794D01*
X110641Y28758D01*
X110733Y28736D01*
X110827Y28731D01*
X119582Y28736D01*
X119674Y28758D01*
X119761Y28794D01*
X119842Y28844D01*
X119914Y28905D01*
X119975Y28977D01*
X120024Y29057D01*
X120061Y29145D01*
X120083Y29237D01*
X120088Y29331D01*
X120087Y30247D01*
X120150Y30262D01*
X120368Y30352D01*
X120569Y30476D01*
X120749Y30629D01*
X120787Y30674D01*
X123854Y33740D01*
X123899Y33779D01*
X124052Y33958D01*
X124052Y33958D01*
X124175Y34159D01*
X124266Y34378D01*
X124321Y34607D01*
X124339Y34843D01*
X124335Y34901D01*
Y39893D01*
X124624Y40140D01*
X124910Y40475D01*
X125140Y40851D01*
X125309Y41258D01*
X125412Y41687D01*
X125438Y42126D01*
X125425Y42335D01*
X126650Y41111D01*
Y26015D01*
X123700Y23065D01*
X123734Y23148D01*
X123837Y23576D01*
X123863Y24016D01*
X123837Y24455D01*
X123734Y24884D01*
X123566Y25291D01*
X123335Y25667D01*
X123049Y26002D01*
X122714Y26288D01*
X122338Y26518D01*
X121931Y26687D01*
X121502Y26790D01*
X121063Y26824D01*
X120624Y26790D01*
X120195Y26687D01*
X119937Y26580D01*
X119914Y26607D01*
X119842Y26668D01*
X119761Y26717D01*
X119674Y26754D01*
X119582Y26776D01*
X119488Y26781D01*
X110733Y26776D01*
X110641Y26754D01*
X110554Y26717D01*
X110473Y26668D01*
X110401Y26607D01*
X110340Y26535D01*
X110291Y26454D01*
X110254Y26367D01*
X110232Y26275D01*
X110227Y26181D01*
X110232Y21363D01*
X110254Y21271D01*
X110291Y21183D01*
X110340Y21103D01*
X110401Y21031D01*
X110473Y20970D01*
X110554Y20920D01*
X110641Y20884D01*
X110733Y20862D01*
X110827Y20857D01*
X115668Y20860D01*
X115578Y20644D01*
X115502Y20326D01*
X115476Y20000D01*
X115502Y19674D01*
X115578Y19356D01*
X115703Y19054D01*
X115795Y18905D01*
X110733Y18902D01*
X110641Y18879D01*
X110554Y18843D01*
X110473Y18794D01*
X110402Y18733D01*
X110377Y18795D01*
X110146Y19171D01*
X109860Y19506D01*
X109525Y19792D01*
X109149Y20022D01*
X108742Y20191D01*
X108313Y20294D01*
X107874Y20328D01*
X107435Y20294D01*
X107006Y20191D01*
X106599Y20022D01*
X106223Y19792D01*
X105888Y19506D01*
X105602Y19171D01*
X105372Y18795D01*
X105203Y18388D01*
X105100Y17959D01*
X105065Y17520D01*
X105100Y17080D01*
X105203Y16652D01*
X105372Y16245D01*
X105602Y15869D01*
X105624Y15843D01*
Y13474D01*
X105617Y13386D01*
X105645Y13033D01*
Y13033D01*
X105728Y12688D01*
X105863Y12361D01*
X105933Y12246D01*
X106048Y12059D01*
X106048Y12059D01*
X106278Y11790D01*
X106345Y11732D01*
X110230Y7848D01*
X110232Y5615D01*
X110254Y5523D01*
X110291Y5435D01*
X110340Y5355D01*
X110401Y5283D01*
X110473Y5222D01*
X110554Y5172D01*
X110641Y5136D01*
X110733Y5114D01*
X110827Y5109D01*
X119582Y5114D01*
X119674Y5136D01*
X119761Y5172D01*
X119842Y5222D01*
X119914Y5283D01*
X119975Y5355D01*
X120024Y5435D01*
X120061Y5523D01*
X120083Y5615D01*
X120088Y5709D01*
X120083Y10527D01*
X120061Y10619D01*
X120024Y10706D01*
X119975Y10787D01*
X119914Y10859D01*
X119842Y10920D01*
X119761Y10969D01*
X119674Y11005D01*
X119582Y11028D01*
X119488Y11033D01*
X113413Y11029D01*
X111459Y12983D01*
X119582Y12988D01*
X119674Y13010D01*
X119761Y13046D01*
X119842Y13096D01*
X119914Y13157D01*
X119975Y13229D01*
X120024Y13309D01*
X120061Y13397D01*
X120083Y13489D01*
X120088Y13583D01*
X120087Y14445D01*
X122382D01*
X122441Y14440D01*
X122676Y14459D01*
X122676Y14459D01*
X122906Y14514D01*
X123124Y14604D01*
X123325Y14728D01*
X123505Y14881D01*
X123543Y14926D01*
X125625Y17008D01*
X125670Y17046D01*
X125823Y17226D01*
X125824Y17226D01*
X125947Y17427D01*
X126037Y17645D01*
X126092Y17875D01*
X126111Y18110D01*
X126106Y18169D01*
Y19999D01*
X126132Y19674D01*
X126208Y19356D01*
X126333Y19054D01*
X126504Y18776D01*
X126716Y18527D01*
X126965Y18315D01*
X127243Y18144D01*
X127545Y18019D01*
X127863Y17943D01*
X128186Y17917D01*
Y1969D01*
X50963D01*
Y12984D01*
X50984Y12983D01*
X59740Y12988D01*
X59832Y13010D01*
X59919Y13046D01*
X59999Y13096D01*
X60071Y13157D01*
X60133Y13229D01*
X60182Y13309D01*
X60218Y13397D01*
X60240Y13489D01*
X60246Y13583D01*
X60240Y18401D01*
X60218Y18493D01*
X60182Y18580D01*
X60133Y18661D01*
X60071Y18733D01*
X59999Y18794D01*
X59919Y18843D01*
X59832Y18879D01*
X59740Y18902D01*
X59646Y18907D01*
X50963Y18902D01*
Y20858D01*
X50984Y20857D01*
X59740Y20862D01*
X59832Y20884D01*
X59919Y20920D01*
X59999Y20970D01*
X60071Y21031D01*
X60133Y21103D01*
X60182Y21183D01*
X60218Y21271D01*
X60240Y21363D01*
X60246Y21457D01*
X60240Y26275D01*
X60218Y26367D01*
X60182Y26454D01*
X60133Y26535D01*
X60071Y26607D01*
X59999Y26668D01*
X59919Y26717D01*
X59832Y26754D01*
X59740Y26776D01*
X59646Y26781D01*
X54318Y26778D01*
X54205Y26825D01*
X53976Y26880D01*
X53975Y26880D01*
X53740Y26898D01*
X53681Y26894D01*
X50963D01*
Y28732D01*
X50984Y28731D01*
X59740Y28736D01*
X59832Y28758D01*
X59919Y28794D01*
X59999Y28844D01*
X60071Y28905D01*
X60133Y28977D01*
X60182Y29057D01*
X60218Y29145D01*
X60240Y29237D01*
X60246Y29331D01*
X60240Y34149D01*
X60218Y34241D01*
X60182Y34328D01*
X60133Y34409D01*
X60071Y34481D01*
X59999Y34542D01*
X59919Y34591D01*
X59832Y34628D01*
X59740Y34650D01*
X59646Y34655D01*
X50963Y34650D01*
Y36606D01*
X50984Y36605D01*
X59740Y36610D01*
X59832Y36632D01*
X59919Y36668D01*
X59999Y36718D01*
X60071Y36779D01*
X60133Y36851D01*
X60182Y36931D01*
X60218Y37019D01*
X60240Y37111D01*
X60246Y37205D01*
X60245Y38067D01*
X61583D01*
X68273Y31377D01*
X68191Y31411D01*
X67762Y31514D01*
X67323Y31549D01*
X66883Y31514D01*
X66455Y31411D01*
X66048Y31243D01*
X65672Y31012D01*
X65337Y30726D01*
X65051Y30391D01*
X64820Y30015D01*
X64652Y29608D01*
X64549Y29180D01*
X64514Y28740D01*
X64549Y28301D01*
X64652Y27872D01*
X64820Y27465D01*
X65051Y27089D01*
X65337Y26754D01*
X65672Y26468D01*
X65823Y26375D01*
Y19350D01*
X65818Y19291D01*
X65837Y19056D01*
X65892Y18826D01*
X65982Y18608D01*
X66106Y18407D01*
X66259Y18227D01*
X66304Y18189D01*
X68386Y16107D01*
X68424Y16062D01*
X68604Y15909D01*
X68805Y15785D01*
X69023Y15695D01*
X69253Y15640D01*
X69488Y15621D01*
X69547Y15626D01*
X78878D01*
X78937Y15621D01*
X79172Y15640D01*
X79172Y15640D01*
X79402Y15695D01*
X79620Y15785D01*
X79821Y15909D01*
X80001Y16062D01*
X80039Y16107D01*
X82066Y18133D01*
X82238Y18092D01*
X82677Y18058D01*
X83117Y18092D01*
X83545Y18195D01*
X83952Y18364D01*
X84328Y18594D01*
X84663Y18880D01*
X84949Y19215D01*
X85180Y19591D01*
X85348Y19998D01*
X85451Y20427D01*
X85477Y20866D01*
X85451Y21306D01*
X85348Y21734D01*
X85180Y22141D01*
X84949Y22517D01*
X84663Y22852D01*
X84328Y23138D01*
X83952Y23369D01*
X83545Y23537D01*
X83117Y23640D01*
X82677Y23675D01*
X82238Y23640D01*
X81809Y23537D01*
X81402Y23369D01*
X81026Y23138D01*
X80691Y22852D01*
X80405Y22517D01*
X80175Y22141D01*
X80006Y21734D01*
X79903Y21306D01*
X79869Y20866D01*
X79903Y20427D01*
X79944Y20255D01*
X78316Y18626D01*
X70110D01*
X68823Y19913D01*
Y20916D01*
X68880Y20849D01*
X69215Y20562D01*
X69591Y20332D01*
X69998Y20163D01*
X70427Y20061D01*
X70866Y20026D01*
X71306Y20061D01*
X71734Y20163D01*
X72141Y20332D01*
X72517Y20562D01*
X72852Y20849D01*
X73138Y21184D01*
X73327Y21491D01*
X73515Y21184D01*
X73801Y20849D01*
X74137Y20562D01*
X74512Y20332D01*
X74919Y20163D01*
X75348Y20061D01*
X75787Y20026D01*
X76227Y20061D01*
X76655Y20163D01*
X77062Y20332D01*
X77438Y20562D01*
X77773Y20849D01*
X78060Y21184D01*
X78290Y21560D01*
X78459Y21967D01*
X78561Y22395D01*
X78587Y22835D01*
X78561Y23274D01*
X78459Y23703D01*
X78290Y24110D01*
X78060Y24486D01*
X77773Y24821D01*
X77484Y25068D01*
Y31437D01*
X77489Y31496D01*
X77470Y31731D01*
X77470Y31731D01*
X77415Y31961D01*
X77325Y32179D01*
X77202Y32380D01*
X77048Y32560D01*
X77003Y32598D01*
X61142Y48460D01*
X61103Y48505D01*
X60924Y48658D01*
X60722Y48782D01*
X60504Y48872D01*
X60275Y48927D01*
X60275Y48927D01*
X60241Y48930D01*
X60240Y49897D01*
X60218Y49989D01*
X60182Y50076D01*
X60133Y50157D01*
X60071Y50229D01*
X59999Y50290D01*
X59919Y50339D01*
X59832Y50376D01*
X59740Y50398D01*
X59646Y50403D01*
X50963Y50398D01*
Y52354D01*
X50984Y52353D01*
X59740Y52358D01*
X59832Y52380D01*
X59919Y52417D01*
X59999Y52466D01*
X60071Y52527D01*
X60133Y52599D01*
X60182Y52680D01*
X60218Y52767D01*
X60240Y52859D01*
X60246Y52953D01*
X60240Y57771D01*
X60218Y57863D01*
X60182Y57950D01*
X60133Y58031D01*
X60071Y58103D01*
X59999Y58164D01*
X59919Y58213D01*
X59832Y58250D01*
X59740Y58272D01*
X59646Y58277D01*
X50963Y58272D01*
Y60228D01*
X50984Y60227D01*
X59740Y60232D01*
X59832Y60254D01*
X59919Y60291D01*
X59999Y60340D01*
X60071Y60401D01*
X60133Y60473D01*
X60182Y60554D01*
X60218Y60641D01*
X60240Y60733D01*
X60246Y60827D01*
X60240Y65645D01*
X60218Y65737D01*
X60182Y65824D01*
X60133Y65905D01*
X60071Y65977D01*
X59999Y66038D01*
X59919Y66087D01*
X59832Y66124D01*
X59740Y66146D01*
X59646Y66151D01*
X50963Y66146D01*
Y68382D01*
G37*
G36*
Y34650D02*X50890Y34650D01*
X50798Y34628D01*
X50711Y34591D01*
X50630Y34542D01*
X50559Y34481D01*
X50538Y34457D01*
X50516Y34480D01*
Y36829D01*
X50559Y36779D01*
X50630Y36718D01*
X50711Y36668D01*
X50798Y36632D01*
X50890Y36610D01*
X50963Y36606D01*
Y34650D01*
G37*
G36*
Y26894D02*X49637D01*
X46972Y29558D01*
Y42911D01*
X47123Y43003D01*
X47458Y43290D01*
X47516Y43357D01*
Y33917D01*
X47511Y33858D01*
X47530Y33623D01*
X47585Y33393D01*
X47675Y33175D01*
X47798Y32974D01*
X47799Y32974D01*
X47952Y32794D01*
X47997Y32756D01*
X50079Y30674D01*
X50117Y30629D01*
X50297Y30476D01*
X50388Y30419D01*
X50390Y29237D01*
X50412Y29145D01*
X50448Y29057D01*
X50497Y28977D01*
X50559Y28905D01*
X50630Y28844D01*
X50711Y28794D01*
X50798Y28758D01*
X50890Y28736D01*
X50963Y28732D01*
Y26894D01*
G37*
G36*
Y58272D02*X50890Y58272D01*
X50798Y58250D01*
X50711Y58213D01*
X50630Y58164D01*
X50559Y58103D01*
X50538Y58079D01*
X48937Y59680D01*
X48899Y59725D01*
X48719Y59879D01*
X48518Y60002D01*
X48300Y60092D01*
X48070Y60148D01*
X47835Y60166D01*
X47776Y60161D01*
X42775D01*
X42717Y60166D01*
X42481Y60148D01*
X42252Y60092D01*
X42033Y60002D01*
X41832Y59879D01*
X41832Y59878D01*
X41653Y59725D01*
X41614Y59681D01*
X37174Y55240D01*
X36633D01*
Y56896D01*
X36707Y56927D01*
X36908Y57050D01*
X37088Y57204D01*
X37126Y57249D01*
X41566Y61689D01*
X50389D01*
X50390Y60733D01*
X50412Y60641D01*
X50448Y60554D01*
X50497Y60473D01*
X50559Y60401D01*
X50630Y60340D01*
X50711Y60291D01*
X50798Y60254D01*
X50890Y60232D01*
X50963Y60228D01*
Y58272D01*
G37*
G36*
Y1969D02*X36633D01*
Y3577D01*
X49409Y3579D01*
X49500Y3601D01*
X49587Y3638D01*
X49668Y3687D01*
X49739Y3748D01*
X49801Y3820D01*
X49850Y3900D01*
X49886Y3987D01*
X49908Y4078D01*
X49913Y4172D01*
X49908Y11575D01*
X49886Y11666D01*
X49850Y11753D01*
X49801Y11834D01*
X49739Y11905D01*
X49668Y11966D01*
X49587Y12016D01*
X49500Y12052D01*
X49409Y12074D01*
X49315Y12079D01*
X36633Y12076D01*
Y36492D01*
X37475D01*
X37688Y36144D01*
X37975Y35809D01*
X38310Y35523D01*
X38686Y35293D01*
X39093Y35124D01*
X39521Y35021D01*
X39961Y34987D01*
X40400Y35021D01*
X40829Y35124D01*
X41236Y35293D01*
X41612Y35523D01*
X41947Y35809D01*
X42233Y36144D01*
X42463Y36520D01*
X42632Y36927D01*
X42735Y37356D01*
X42761Y37795D01*
X42735Y38235D01*
X42632Y38663D01*
X42463Y39070D01*
X42233Y39446D01*
X41947Y39781D01*
X41612Y40068D01*
X41236Y40298D01*
X40829Y40466D01*
X40400Y40569D01*
X39961Y40604D01*
X39521Y40569D01*
X39093Y40466D01*
X38686Y40298D01*
X38310Y40068D01*
X37975Y39781D01*
X37728Y39492D01*
X36633D01*
Y52240D01*
X37737D01*
X37795Y52236D01*
X38030Y52254D01*
X38031Y52254D01*
X38260Y52309D01*
X38478Y52400D01*
X38680Y52523D01*
X38859Y52676D01*
X38898Y52721D01*
X43338Y57161D01*
X47213D01*
X50079Y54296D01*
X50117Y54251D01*
X50297Y54098D01*
X50388Y54041D01*
X50390Y52859D01*
X50412Y52767D01*
X50448Y52680D01*
X50497Y52599D01*
X50559Y52527D01*
X50630Y52466D01*
X50711Y52417D01*
X50798Y52380D01*
X50890Y52358D01*
X50963Y52354D01*
Y50398D01*
X50890Y50398D01*
X50798Y50376D01*
X50711Y50339D01*
X50630Y50290D01*
X50559Y50229D01*
X50497Y50157D01*
X50448Y50076D01*
X50412Y49989D01*
X50390Y49897D01*
X50384Y49803D01*
X50384Y49631D01*
X50356Y49699D01*
X50233Y49900D01*
X50080Y50080D01*
X50035Y50118D01*
X48268Y51885D01*
X48272Y51969D01*
X48246Y52408D01*
X48144Y52836D01*
X47975Y53244D01*
X47745Y53619D01*
X47458Y53955D01*
X47123Y54241D01*
X46748Y54471D01*
X46340Y54640D01*
X45912Y54743D01*
X45472Y54777D01*
X45033Y54743D01*
X44605Y54640D01*
X44197Y54471D01*
X43822Y54241D01*
X43486Y53955D01*
X43200Y53619D01*
X42970Y53244D01*
X42801Y52836D01*
X42698Y52408D01*
X42664Y51969D01*
X42698Y51529D01*
X42801Y51101D01*
X42970Y50693D01*
X43200Y50318D01*
X43486Y49982D01*
X43822Y49696D01*
X44197Y49466D01*
X44605Y49297D01*
X45033Y49194D01*
X45472Y49160D01*
X45912Y49194D01*
X46340Y49297D01*
X46533Y49377D01*
X47516Y48394D01*
Y47194D01*
X47458Y47262D01*
X47123Y47548D01*
X46748Y47778D01*
X46340Y47947D01*
X45912Y48050D01*
X45472Y48084D01*
X45033Y48050D01*
X44605Y47947D01*
X44197Y47778D01*
X43822Y47548D01*
X43486Y47262D01*
X43200Y46926D01*
X42970Y46551D01*
X42801Y46144D01*
X42698Y45715D01*
X42664Y45276D01*
X42698Y44836D01*
X42801Y44408D01*
X42970Y44000D01*
X43200Y43625D01*
X43486Y43290D01*
X43822Y43003D01*
X43972Y42911D01*
Y29007D01*
X43967Y28938D01*
X43986Y28702D01*
X44041Y28473D01*
X44131Y28255D01*
X44254Y28053D01*
X44257Y28050D01*
X44409Y27873D01*
X44453Y27835D01*
X47914Y24375D01*
X47952Y24330D01*
X48131Y24176D01*
X48333Y24053D01*
X48551Y23963D01*
X48780Y23908D01*
X49016Y23889D01*
X49075Y23894D01*
X50387D01*
X50390Y21363D01*
X50412Y21271D01*
X50448Y21183D01*
X50497Y21103D01*
X50559Y21031D01*
X50630Y20970D01*
X50711Y20920D01*
X50798Y20884D01*
X50890Y20862D01*
X50963Y20858D01*
Y18902D01*
X50890Y18902D01*
X50798Y18879D01*
X50711Y18843D01*
X50630Y18794D01*
X50559Y18733D01*
X50497Y18661D01*
X50448Y18580D01*
X50412Y18493D01*
X50390Y18401D01*
X50384Y18307D01*
X50385Y17445D01*
X49440D01*
X46450Y20435D01*
X46474Y20455D01*
X46760Y20790D01*
X46991Y21166D01*
X47159Y21573D01*
X47262Y22002D01*
X47288Y22441D01*
X47262Y22880D01*
X47159Y23309D01*
X46991Y23716D01*
X46760Y24092D01*
X46474Y24427D01*
X46139Y24713D01*
X45763Y24943D01*
X45356Y25112D01*
X44928Y25215D01*
X44488Y25250D01*
X44049Y25215D01*
X43620Y25112D01*
X43213Y24943D01*
X42837Y24713D01*
X42502Y24427D01*
X42216Y24092D01*
X41986Y23716D01*
X41817Y23309D01*
X41714Y22880D01*
X41680Y22441D01*
X41714Y22002D01*
X41817Y21573D01*
X41986Y21166D01*
X42216Y20790D01*
X42502Y20455D01*
X42837Y20169D01*
X43000Y20069D01*
X43002Y20040D01*
X43057Y19811D01*
X43148Y19593D01*
X43271Y19391D01*
X43424Y19212D01*
X43469Y19173D01*
X47717Y14926D01*
X47755Y14881D01*
X47934Y14728D01*
X48136Y14604D01*
X48354Y14514D01*
X48584Y14459D01*
X48819Y14440D01*
X48878Y14445D01*
X50389D01*
X50390Y13489D01*
X50412Y13397D01*
X50448Y13309D01*
X50497Y13229D01*
X50559Y13157D01*
X50630Y13096D01*
X50711Y13046D01*
X50798Y13010D01*
X50890Y12988D01*
X50963Y12984D01*
Y1969D01*
G37*
G36*
X50384Y65551D02*X50385Y64689D01*
X41004D01*
X40945Y64694D01*
X40710Y64675D01*
X40480Y64620D01*
X40262Y64530D01*
X40060Y64406D01*
X40060Y64406D01*
X39881Y64253D01*
X39843Y64208D01*
X36941Y61306D01*
X36951Y61323D01*
X37120Y61731D01*
X37223Y62159D01*
X37249Y62598D01*
X37223Y63038D01*
X37182Y63210D01*
X42354Y68382D01*
X50963D01*
Y66146D01*
X50890Y66146D01*
X50798Y66124D01*
X50711Y66087D01*
X50630Y66038D01*
X50559Y65977D01*
X50497Y65905D01*
X50448Y65824D01*
X50412Y65737D01*
X50390Y65645D01*
X50384Y65551D01*
G37*
G36*
X36633Y92131D02*X35536Y92130D01*
X35444Y92108D01*
X35357Y92072D01*
X35276Y92022D01*
X35204Y91961D01*
X35143Y91889D01*
X35094Y91809D01*
X35058Y91721D01*
X35035Y91630D01*
X35030Y91535D01*
X35034Y85960D01*
X35003Y85924D01*
X34880Y85722D01*
X34789Y85504D01*
X34734Y85275D01*
X34734Y85274D01*
X34716Y85039D01*
X34720Y84981D01*
Y73259D01*
X26343Y64882D01*
X26298Y64843D01*
X26145Y64664D01*
X26022Y64463D01*
X25931Y64244D01*
X25876Y64015D01*
X25876Y64015D01*
X25858Y63780D01*
X25862Y63721D01*
Y61279D01*
X25858Y61220D01*
X25876Y60985D01*
X25931Y60756D01*
X26022Y60537D01*
X26145Y60336D01*
X26145Y60336D01*
X26298Y60157D01*
X26343Y60118D01*
X29213Y57249D01*
X29251Y57204D01*
X29431Y57050D01*
X29632Y56927D01*
X29850Y56837D01*
X30080Y56782D01*
X30315Y56763D01*
X30374Y56768D01*
X35965D01*
X36024Y56763D01*
X36259Y56782D01*
X36259Y56782D01*
X36489Y56837D01*
X36633Y56896D01*
Y55240D01*
X29755D01*
X24335Y60661D01*
Y63355D01*
X33303Y72323D01*
X33347Y72361D01*
X33501Y72541D01*
X33501Y72541D01*
X33624Y72742D01*
X33714Y72960D01*
X33770Y73190D01*
X33788Y73425D01*
X33783Y73484D01*
Y83355D01*
X33804Y83388D01*
X33840Y83475D01*
X33862Y83567D01*
X33868Y83661D01*
X33862Y91630D01*
X33840Y91721D01*
X33804Y91809D01*
X33755Y91889D01*
X33693Y91961D01*
X33621Y92022D01*
X33541Y92072D01*
X33454Y92108D01*
X33362Y92130D01*
X33268Y92135D01*
X26874Y92130D01*
X26783Y92108D01*
X26695Y92072D01*
X26615Y92022D01*
X26543Y91961D01*
X26482Y91889D01*
X26432Y91809D01*
X26396Y91721D01*
X26374Y91630D01*
X26369Y91535D01*
X26374Y83567D01*
X26396Y83475D01*
X26432Y83388D01*
X26482Y83308D01*
X26543Y83236D01*
X26615Y83175D01*
X26695Y83125D01*
X26783Y83089D01*
X26874Y83067D01*
X26969Y83061D01*
X30783Y83065D01*
Y74047D01*
X21816Y65079D01*
X21771Y65040D01*
X21617Y64861D01*
X21494Y64659D01*
X21404Y64441D01*
X21349Y64212D01*
X21349Y64211D01*
X21330Y63976D01*
X21335Y63918D01*
Y60098D01*
X21330Y60039D01*
X21349Y59804D01*
X21404Y59574D01*
X21494Y59356D01*
X21617Y59155D01*
X21771Y58975D01*
X21816Y58937D01*
X28032Y52721D01*
X28070Y52676D01*
X28249Y52523D01*
X28451Y52400D01*
X28669Y52309D01*
X28898Y52254D01*
X29134Y52236D01*
X29193Y52240D01*
X36633D01*
Y39492D01*
X34873D01*
X30236Y44129D01*
X30198Y44174D01*
X30018Y44328D01*
X29817Y44451D01*
X29599Y44541D01*
X29369Y44596D01*
X29369Y44596D01*
X29134Y44615D01*
X29075Y44610D01*
X25228D01*
X15083Y54755D01*
Y58807D01*
X15126Y58736D01*
X15338Y58488D01*
X15587Y58276D01*
X15865Y58105D01*
X16167Y57980D01*
X16485Y57903D01*
X16811Y57878D01*
X17137Y57903D01*
X17455Y57980D01*
X17757Y58105D01*
X18035Y58276D01*
X18284Y58488D01*
X18496Y58736D01*
X18667Y59015D01*
X18792Y59317D01*
X18868Y59635D01*
X18887Y59961D01*
X18868Y60286D01*
X18792Y60604D01*
X18667Y60906D01*
X18496Y61185D01*
X18284Y61433D01*
X18035Y61646D01*
X17757Y61816D01*
X17455Y61941D01*
X17137Y62018D01*
X16811Y62043D01*
X16485Y62018D01*
X16167Y61941D01*
X15865Y61816D01*
X15587Y61646D01*
X15338Y61433D01*
X15126Y61185D01*
X15083Y61114D01*
Y64142D01*
X16472Y65532D01*
X16517Y65570D01*
X16670Y65749D01*
X16670Y65749D01*
X16793Y65951D01*
X16884Y66169D01*
X16939Y66398D01*
X16957Y66634D01*
X16953Y66693D01*
Y74467D01*
X17005Y74499D01*
X17340Y74786D01*
X17627Y75121D01*
X17857Y75497D01*
X18026Y75904D01*
X18128Y76332D01*
X18154Y76772D01*
X18128Y77211D01*
X18087Y77383D01*
X22476Y81772D01*
X22521Y81810D01*
X22674Y81990D01*
X22674Y81990D01*
X22797Y82191D01*
X22888Y82409D01*
X22943Y82639D01*
X22961Y82874D01*
X22957Y82933D01*
Y83065D01*
X24700Y83067D01*
X24792Y83089D01*
X24880Y83125D01*
X24960Y83175D01*
X25032Y83236D01*
X25093Y83308D01*
X25143Y83388D01*
X25179Y83475D01*
X25201Y83567D01*
X25206Y83661D01*
X25201Y91630D01*
X25179Y91721D01*
X25143Y91809D01*
X25093Y91889D01*
X25032Y91961D01*
X24960Y92022D01*
X24880Y92072D01*
X24792Y92108D01*
X24700Y92130D01*
X24606Y92135D01*
X18213Y92130D01*
X18121Y92108D01*
X18034Y92072D01*
X17953Y92022D01*
X17882Y91961D01*
X17820Y91889D01*
X17771Y91809D01*
X17735Y91721D01*
X17713Y91630D01*
X17707Y91535D01*
X17713Y83567D01*
X17735Y83475D01*
X17771Y83388D01*
X17820Y83308D01*
X17882Y83236D01*
X17953Y83175D01*
X18034Y83125D01*
X18121Y83089D01*
X18213Y83067D01*
X18307Y83061D01*
X19524Y83062D01*
X15966Y79504D01*
X15794Y79546D01*
X15354Y79580D01*
X14915Y79546D01*
X14486Y79443D01*
X14079Y79274D01*
X13703Y79044D01*
X13368Y78758D01*
X13082Y78423D01*
X12852Y78047D01*
X12683Y77640D01*
X12580Y77211D01*
X12546Y76772D01*
X12580Y76332D01*
X12683Y75904D01*
X12852Y75497D01*
X13082Y75121D01*
X13368Y74786D01*
X13703Y74499D01*
X13953Y74347D01*
Y67255D01*
X12564Y65866D01*
X12519Y65828D01*
X12365Y65648D01*
X12242Y65447D01*
X12152Y65229D01*
X12097Y64999D01*
X12097Y64999D01*
X12078Y64764D01*
X12083Y64705D01*
Y54193D01*
X12078Y54134D01*
X12097Y53898D01*
X12152Y53669D01*
X12242Y53451D01*
X12365Y53249D01*
X12519Y53070D01*
X12564Y53032D01*
X18864Y46732D01*
X18781Y46766D01*
X18353Y46869D01*
X17913Y46903D01*
X17474Y46869D01*
X17045Y46766D01*
X16638Y46597D01*
X16263Y46367D01*
X15927Y46080D01*
X15641Y45745D01*
X15411Y45370D01*
X15242Y44962D01*
X15139Y44534D01*
X15105Y44094D01*
X15139Y43655D01*
X15242Y43227D01*
X15411Y42819D01*
X15641Y42444D01*
X15927Y42108D01*
X16263Y41822D01*
X16638Y41592D01*
X17045Y41423D01*
X17474Y41320D01*
X17913Y41286D01*
X18353Y41320D01*
X18366Y41324D01*
X22323Y37367D01*
X22361Y37322D01*
X22541Y37169D01*
X22742Y37045D01*
X22960Y36955D01*
X23190Y36900D01*
X23425Y36881D01*
X23484Y36886D01*
X27135D01*
X29012Y35009D01*
Y34793D01*
X28955Y34860D01*
X28619Y35146D01*
X28244Y35377D01*
X27836Y35545D01*
X27408Y35648D01*
X26969Y35683D01*
X26529Y35648D01*
X26101Y35545D01*
X25693Y35377D01*
X25318Y35146D01*
X24982Y34860D01*
X24696Y34525D01*
X24466Y34149D01*
X24297Y33742D01*
X24194Y33313D01*
X24160Y32874D01*
X24194Y32435D01*
X24297Y32006D01*
X24466Y31599D01*
X24696Y31223D01*
X24718Y31197D01*
Y29672D01*
X24265Y29219D01*
X17721D01*
X17720Y29622D01*
X17698Y29714D01*
X17662Y29801D01*
X17613Y29881D01*
X17552Y29953D01*
X17480Y30014D01*
X17399Y30064D01*
X17312Y30100D01*
X17220Y30122D01*
X17126Y30128D01*
X11914Y30122D01*
X11822Y30100D01*
X11735Y30064D01*
X11654Y30014D01*
X11582Y29953D01*
X11521Y29881D01*
X11472Y29801D01*
X11435Y29714D01*
X11413Y29622D01*
X11408Y29528D01*
X11413Y24315D01*
X11435Y24223D01*
X11472Y24136D01*
X11521Y24056D01*
X11582Y23984D01*
X11654Y23923D01*
X11735Y23873D01*
X11822Y23837D01*
X11914Y23815D01*
X11923Y23814D01*
Y23429D01*
X11914Y23429D01*
X11822Y23407D01*
X11735Y23371D01*
X11654Y23322D01*
X11582Y23260D01*
X11521Y23188D01*
X11472Y23108D01*
X11435Y23021D01*
X11413Y22929D01*
X11408Y22835D01*
X11408Y22526D01*
X11168D01*
X10715Y22979D01*
Y43163D01*
X11174Y43622D01*
X11242Y43680D01*
X11471Y43949D01*
X11472Y43949D01*
X11657Y44251D01*
X11792Y44578D01*
X11875Y44923D01*
X11903Y45276D01*
X11896Y45364D01*
Y64479D01*
X11903Y64567D01*
X11875Y64920D01*
X11875Y64920D01*
X11792Y65264D01*
X11657Y65592D01*
X11472Y65894D01*
X11242Y66163D01*
X11174Y66220D01*
X9140Y68255D01*
Y76866D01*
X9162Y76892D01*
X9392Y77268D01*
X9561Y77675D01*
X9664Y78104D01*
X9690Y78543D01*
X9664Y78983D01*
X9561Y79411D01*
X9392Y79818D01*
X9162Y80194D01*
X8943Y80451D01*
Y92238D01*
X36633D01*
Y92131D01*
G37*
G36*
Y66904D02*X35060Y65331D01*
X34888Y65372D01*
X34449Y65407D01*
X34009Y65372D01*
X33581Y65270D01*
X33174Y65101D01*
X32798Y64871D01*
X32463Y64584D01*
X32177Y64249D01*
X31946Y63874D01*
X31778Y63466D01*
X31675Y63038D01*
X31640Y62598D01*
X31675Y62159D01*
X31778Y61731D01*
X31946Y61323D01*
X32177Y60948D01*
X32463Y60612D01*
X32798Y60326D01*
X33174Y60096D01*
X33581Y59927D01*
X34009Y59824D01*
X34449Y59790D01*
X34888Y59824D01*
X35317Y59927D01*
X35724Y60096D01*
X35741Y60106D01*
X35402Y59768D01*
X30936D01*
X28862Y61842D01*
Y63158D01*
X36633Y70929D01*
Y66904D01*
G37*
G36*
X7530Y96850D02*X36633D01*
Y96738D01*
X7765D01*
X7677Y96745D01*
X7530Y96734D01*
Y96850D01*
G37*
G36*
X36633Y1969D02*X7530D01*
Y3832D01*
X9448Y3835D01*
X9540Y3857D01*
X9627Y3893D01*
X9707Y3942D01*
X9779Y4003D01*
X9840Y4075D01*
X9889Y4155D01*
X9925Y4242D01*
X9947Y4334D01*
X9953Y4428D01*
X9947Y10000D01*
X9925Y10091D01*
X9889Y10178D01*
X9840Y10259D01*
X9779Y10330D01*
X9707Y10392D01*
X9627Y10441D01*
X9540Y10477D01*
X9448Y10499D01*
X9354Y10504D01*
X7530Y10502D01*
Y19800D01*
X8583Y18747D01*
X8640Y18680D01*
X8910Y18450D01*
X8910Y18450D01*
X9097Y18335D01*
X9212Y18265D01*
X9539Y18129D01*
X9883Y18046D01*
X9883D01*
X10236Y18019D01*
X10324Y18026D01*
X11413D01*
X11413Y17622D01*
X11435Y17531D01*
X11472Y17443D01*
X11521Y17363D01*
X11582Y17291D01*
X11654Y17230D01*
X11735Y17180D01*
X11822Y17144D01*
X11914Y17122D01*
X12008Y17117D01*
X17220Y17122D01*
X17312Y17144D01*
X17399Y17180D01*
X17480Y17230D01*
X17552Y17291D01*
X17613Y17363D01*
X17662Y17443D01*
X17698Y17531D01*
X17720Y17622D01*
X17726Y17717D01*
X17720Y22929D01*
X17698Y23021D01*
X17662Y23108D01*
X17613Y23188D01*
X17552Y23260D01*
X17480Y23322D01*
X17399Y23371D01*
X17312Y23407D01*
X17220Y23429D01*
X17126Y23435D01*
X16423Y23434D01*
Y23814D01*
X17220Y23815D01*
X17312Y23837D01*
X17399Y23873D01*
X17480Y23923D01*
X17552Y23984D01*
X17613Y24056D01*
X17662Y24136D01*
X17698Y24223D01*
X17720Y24315D01*
X17726Y24409D01*
X17726Y24719D01*
X25109D01*
X25197Y24712D01*
X25550Y24739D01*
X25550Y24739D01*
X25894Y24822D01*
X26221Y24958D01*
X26523Y25143D01*
X26793Y25373D01*
X26850Y25440D01*
X28497Y27087D01*
X28564Y27144D01*
X28794Y27413D01*
X28794Y27414D01*
X28979Y27716D01*
X29012Y27794D01*
Y23653D01*
X18867Y13508D01*
X17723D01*
X17720Y16236D01*
X17698Y16328D01*
X17662Y16415D01*
X17613Y16495D01*
X17552Y16567D01*
X17480Y16629D01*
X17399Y16678D01*
X17312Y16714D01*
X17220Y16736D01*
X17126Y16742D01*
X11914Y16736D01*
X11822Y16714D01*
X11735Y16678D01*
X11654Y16629D01*
X11582Y16567D01*
X11521Y16495D01*
X11472Y16415D01*
X11435Y16328D01*
X11413Y16236D01*
X11408Y16142D01*
X11413Y10929D01*
X11435Y10838D01*
X11472Y10750D01*
X11521Y10670D01*
X11582Y10598D01*
X11654Y10537D01*
X11735Y10487D01*
X11822Y10451D01*
X11914Y10429D01*
X12008Y10424D01*
X17220Y10429D01*
X17312Y10451D01*
X17399Y10487D01*
X17433Y10508D01*
X17988D01*
Y7680D01*
X17837Y7587D01*
X17502Y7301D01*
X17216Y6966D01*
X16986Y6590D01*
X16817Y6183D01*
X16714Y5754D01*
X16680Y5315D01*
X16714Y4876D01*
X16817Y4447D01*
X16986Y4040D01*
X17216Y3664D01*
X17502Y3329D01*
X17837Y3043D01*
X18213Y2812D01*
X18620Y2644D01*
X19049Y2541D01*
X19488Y2506D01*
X19928Y2541D01*
X20356Y2644D01*
X20763Y2812D01*
X21139Y3043D01*
X21474Y3329D01*
X21760Y3664D01*
X21991Y4040D01*
X22159Y4447D01*
X22262Y4876D01*
X22288Y5315D01*
X22262Y5754D01*
X22159Y6183D01*
X21991Y6590D01*
X21760Y6966D01*
X21474Y7301D01*
X21139Y7587D01*
X20988Y7680D01*
Y11387D01*
X31531Y21929D01*
X31576Y21968D01*
X31729Y22147D01*
X31729Y22147D01*
X31852Y22348D01*
X31943Y22567D01*
X31998Y22796D01*
X32016Y23031D01*
X32012Y23090D01*
Y35571D01*
X32016Y35630D01*
X31998Y35865D01*
X31943Y36095D01*
X31852Y36313D01*
X31729Y36514D01*
X31576Y36694D01*
X31531Y36732D01*
X28858Y39405D01*
X28820Y39450D01*
X28640Y39603D01*
X28439Y39726D01*
X28221Y39817D01*
X27991Y39872D01*
X27991Y39872D01*
X27756Y39890D01*
X27697Y39886D01*
X24047D01*
X20608Y43324D01*
X20687Y43655D01*
X20713Y44094D01*
X20687Y44534D01*
X20585Y44962D01*
X20550Y45045D01*
X23504Y42091D01*
X23542Y42046D01*
X23722Y41893D01*
X23923Y41770D01*
X24141Y41679D01*
X24371Y41624D01*
X24606Y41606D01*
X24665Y41610D01*
X28513D01*
X33150Y36973D01*
X33188Y36928D01*
X33368Y36775D01*
X33569Y36651D01*
X33787Y36561D01*
X34017Y36506D01*
X34252Y36488D01*
X34311Y36492D01*
X36633D01*
Y12076D01*
X23857Y12074D01*
X23765Y12052D01*
X23678Y12016D01*
X23598Y11966D01*
X23526Y11905D01*
X23465Y11834D01*
X23416Y11753D01*
X23380Y11666D01*
X23358Y11575D01*
X23352Y11481D01*
X23358Y4078D01*
X23380Y3987D01*
X23416Y3900D01*
X23465Y3820D01*
X23526Y3748D01*
X23598Y3687D01*
X23678Y3638D01*
X23765Y3601D01*
X23857Y3579D01*
X23951Y3574D01*
X36633Y3577D01*
Y1969D01*
G37*
G36*
X7530D02*X4134D01*
X1575Y4528D01*
Y94094D01*
X4331Y96850D01*
X7530D01*
Y96734D01*
X7324Y96717D01*
X6980Y96635D01*
X6653Y96499D01*
X6351Y96314D01*
X6350Y96314D01*
X6081Y96084D01*
X6024Y96017D01*
X5164Y95157D01*
X5097Y95100D01*
X4867Y94831D01*
X4682Y94529D01*
X4546Y94201D01*
X4464Y93857D01*
X4464Y93857D01*
X4436Y93504D01*
X4443Y93416D01*
Y79909D01*
X4387Y79818D01*
X4219Y79411D01*
X4116Y78983D01*
X4081Y78543D01*
X4116Y78104D01*
X4219Y77675D01*
X4387Y77268D01*
X4618Y76892D01*
X4640Y76866D01*
Y67411D01*
X4633Y67323D01*
X4661Y66970D01*
Y66970D01*
X4743Y66625D01*
X4879Y66298D01*
X4949Y66183D01*
X5064Y65996D01*
X5064Y65996D01*
X5294Y65727D01*
X5361Y65669D01*
X7396Y63635D01*
Y61652D01*
X7127Y61816D01*
X6825Y61941D01*
X6507Y62018D01*
X6181Y62043D01*
X5855Y62018D01*
X5537Y61941D01*
X5236Y61816D01*
X4957Y61646D01*
X4708Y61433D01*
X4496Y61185D01*
X4325Y60906D01*
X4200Y60604D01*
X4124Y60286D01*
X4098Y59961D01*
X4124Y59635D01*
X4200Y59317D01*
X4325Y59015D01*
X4496Y58736D01*
X4708Y58488D01*
X4957Y58276D01*
X5236Y58105D01*
X5537Y57980D01*
X5855Y57903D01*
X6181Y57878D01*
X6507Y57903D01*
X6825Y57980D01*
X7127Y58105D01*
X7396Y58270D01*
Y46208D01*
X6936Y45748D01*
X6869Y45690D01*
X6639Y45421D01*
X6454Y45119D01*
X6318Y44792D01*
X6235Y44448D01*
X6235Y44447D01*
X6208Y44094D01*
X6215Y44006D01*
Y22135D01*
X6208Y22047D01*
X6235Y21694D01*
Y21694D01*
X6318Y21350D01*
X6454Y21023D01*
X6524Y20908D01*
X6639Y20721D01*
X6639Y20721D01*
X6869Y20451D01*
X6936Y20394D01*
X7530Y19800D01*
Y10502D01*
X5612Y10499D01*
X5520Y10477D01*
X5433Y10441D01*
X5353Y10392D01*
X5281Y10330D01*
X5220Y10259D01*
X5171Y10178D01*
X5135Y10091D01*
X5113Y10000D01*
X5107Y9906D01*
X5113Y4334D01*
X5135Y4242D01*
X5171Y4155D01*
X5220Y4075D01*
X5281Y4003D01*
X5353Y3942D01*
X5433Y3893D01*
X5520Y3857D01*
X5612Y3835D01*
X5706Y3829D01*
X7530Y3832D01*
Y1969D01*
G37*
G54D30*X26969Y32874D02*Y33071D01*
X26575Y32874D02*X26969Y32480D01*
X44488Y22441D02*Y20276D01*
X48819Y15945D01*
X45472Y28938D02*X49016Y25394D01*
X53740D01*
X55315Y23819D01*
X45472Y28937D02*X45571Y28839D01*
X48819Y15945D02*X55315D01*
Y31693D02*X51181D01*
X49016Y33858D01*
X34252Y37992D02*X39764D01*
X39961Y37795D01*
X22835Y60039D02*Y63976D01*
X21457Y87598D02*Y82874D01*
X15354Y76772D01*
X15453Y66634D02*X13583Y64764D01*
X36220Y85039D02*X38780Y87598D01*
X32283Y74606D02*Y85433D01*
X30118Y87598D01*
G54D31*X47441D02*Y92126D01*
G54D30*X36220Y73425D02*Y85039D01*
G54D31*X47441Y92126D02*X45079Y94488D01*
X7677D01*
X6693Y93504D01*
Y78740D01*
X6890Y78543D02*Y67323D01*
X9646Y64567D01*
G54D30*X55315Y47441D02*X60039D01*
X45472Y51969D02*X46063D01*
X49016Y49016D01*
X45669Y51969D02*X45866D01*
X49016Y33858D02*Y49016D01*
X45472Y45276D02*Y28937D01*
X55315Y39567D02*X62205D01*
X34449Y62598D02*X41732Y69882D01*
X47835Y58661D02*X42717D01*
X40945Y63189D02*X36024Y58268D01*
X41732Y69882D02*X60630D01*
X63583Y66929D01*
Y52756D01*
X55315Y55315D02*X51181D01*
X47835Y58661D01*
X55315Y63189D02*X40945D01*
X30315Y58268D02*X27362Y61220D01*
Y63780D01*
X36220Y72638D01*
Y73622D01*
X22835Y63976D02*X32283Y73425D01*
Y74803D01*
X42717Y58661D02*X37795Y53740D01*
X36024Y58268D02*X30315D01*
X37795Y53740D02*X29134D01*
X22835Y60039D01*
G54D31*X9646Y64567D02*Y45276D01*
G54D30*X13583Y64764D02*Y54134D01*
Y54331D02*Y54134D01*
X24606Y43110D01*
X29134D01*
X15453Y76870D02*Y66634D01*
G54D31*X26969Y32874D02*Y28740D01*
X25197Y26969D01*
X14567D01*
G54D30*X23425Y38386D02*X18307Y43504D01*
X29134Y43110D02*X34252Y37992D01*
G54D31*X14567Y20276D02*X10236D01*
X8465Y22047D01*
G54D30*X14567Y26969D02*Y20472D01*
X14764Y20276D01*
G54D31*X14173Y26969D02*Y20472D01*
X14370Y20276D01*
X8465Y22047D02*Y44094D01*
X9646Y45276D01*
G54D30*X19488Y5315D02*Y12008D01*
X16142D01*
X14567Y13583D01*
X19488Y12008D02*X30512Y23031D01*
Y35630D01*
X27756Y38386D01*
X23425D01*
X115157Y47441D02*X109843D01*
G54D31*X115157Y8071D02*X113189D01*
X107874Y13386D01*
Y17520D01*
G54D30*X109646Y39567D02*X115157D01*
X109843Y47441D02*X103543Y41142D01*
X85433Y30906D02*X100984D01*
X115157Y31693D02*X119685D01*
X122835Y34843D01*
X100984Y30906D02*X109646Y39567D01*
X128150Y41732D02*Y25394D01*
X122835Y34843D02*Y41929D01*
X122638Y42126D01*
X128150Y25394D02*X124606Y21850D01*
Y18110D01*
X122441Y15945D01*
X115157D01*
Y23819D02*X120866D01*
X121063Y24016D01*
X115157Y63189D02*X69685D01*
X115157Y55315D02*X68701D01*
X113780Y67913D02*X68898D01*
X68701Y67717D01*
X109646Y71850D02*X68701D01*
X68504Y72047D01*
X124508Y77854D02*Y45374D01*
X128150Y41732D01*
X120276Y70669D02*X116535D01*
X113780Y67913D01*
X124508Y77756D02*Y78051D01*
X123228Y79331D01*
X117126D01*
X114370Y76575D01*
X114469Y76673D02*X109646Y71850D01*
X60039Y47441D02*X75984Y31496D01*
Y23031D01*
X75787Y22835D01*
X62205Y39567D02*X70866Y30906D01*
Y22835D01*
X63583Y52756D02*X85433Y30906D01*
X67323Y28740D02*Y19291D01*
X69488Y17126D01*
X78937D01*
X82677Y20866D01*
G54D32*X6615Y4727D02*X9055D01*
X6615D02*X6005Y5337D01*
Y6801D01*
X6615Y7411D02*X6005Y6801D01*
X6615Y7411D02*X8445D01*
Y4727D02*Y9607D01*
X6615D02*X9055D01*
X6615D02*X6005Y8997D01*
Y8021D02*Y8997D01*
X6615Y7411D02*X6005Y8021D01*
X49016Y6302D02*Y11182D01*
Y6912D02*X48406Y6302D01*
X47186D02*X48406D01*
X47186D02*X46576Y6912D01*
Y8132D01*
X47186Y8742D02*X46576Y8132D01*
X47186Y8742D02*X48406D01*
X49016Y8132D02*X48406Y8742D01*
X45112Y6912D02*Y8742D01*
Y6912D02*X44502Y6302D01*
X42672Y5082D02*Y8742D01*
X43282Y4472D02*X42672Y5082D01*
X43282Y4472D02*X44502D01*
X45112Y5082D02*X44502Y4472D01*
X43282Y6302D02*X44502D01*
X43282D02*X42672Y6912D01*
X38402Y6302D02*Y11182D01*
X36572D02*X39012D01*
X36572D02*X35962Y10572D01*
Y9352D02*Y10572D01*
X36572Y8742D02*X35962Y9352D01*
X36572Y8742D02*X38402D01*
X34498Y6912D02*Y8742D01*
Y6912D02*X33888Y6302D01*
X32058Y5082D02*Y8742D01*
X32668Y4472D02*X32058Y5082D01*
X32668Y4472D02*X33888D01*
X34498Y5082D02*X33888Y4472D01*
X32668Y6302D02*X33888D01*
X32668D02*X32058Y6912D01*
X29984Y6302D02*Y8132D01*
X29374Y8742D01*
X28154D02*X29374D01*
X30594D02*X29984Y8132D01*
X26080Y6302D02*Y8132D01*
X25470Y8742D01*
X24860D02*X25470D01*
X24860D02*X24250Y8132D01*
Y6302D02*Y8132D01*
X26690Y8742D02*X26080Y8132D01*
G54D29*G36*
X12008Y29528D02*Y24409D01*
X17126D01*
Y29528D01*
X12008D01*
G37*
G36*
Y22835D02*Y17717D01*
X17126D01*
Y22835D01*
X12008D01*
G37*
G36*
Y16142D02*Y11024D01*
X17126D01*
Y16142D01*
X12008D01*
G37*
G54D33*X12795Y88386D02*Y86811D01*
X21457Y88386D02*Y86811D01*
X47441Y88386D02*Y86811D01*
X38780Y88386D02*Y86811D01*
X30118Y88386D02*Y86811D01*
G54D34*X113189Y63189D02*X117126D01*
X113189Y55315D02*X117126D01*
X113189Y47441D02*X117126D01*
X113189Y39567D02*X117126D01*
X113189Y31693D02*X117126D01*
X113189Y23819D02*X117126D01*
X53346Y8071D02*X57283D01*
X53346Y15945D02*X57283D01*
X53346Y23819D02*X57283D01*
X53346Y31693D02*X57283D01*
X53346Y39567D02*X57283D01*
X53346Y47441D02*X57283D01*
X53346Y55315D02*X57283D01*
X53346Y63189D02*X57283D01*
X113189Y15945D02*X117126D01*
X113189Y8071D02*X117126D01*
G54D35*X3937Y14370D03*
X19488Y5315D03*
X44488Y22441D03*
X3543Y35433D03*
X3937Y54921D03*
X34646Y47638D03*
X17913Y44094D03*
X39961Y75197D03*
X23031Y70866D03*
X6890Y78543D03*
X15354Y76772D03*
X26969Y32874D03*
X87598Y45472D03*
X129331Y90945D03*
X125984Y4528D03*
X68504Y72047D03*
X120276Y70669D03*
X107874Y17520D03*
X75787Y22835D03*
X121063Y24016D03*
X103543Y41142D03*
X122638Y42126D03*
X68701Y67717D03*
X68898Y63189D03*
X39961Y37795D03*
X45472Y51969D03*
Y45276D03*
X34449Y62598D03*
X68701Y55315D03*
X67323Y28740D03*
G54D36*X61811Y27165D03*
G54D35*X84646Y16142D03*
X82677Y20866D03*
X70866Y22835D03*
G54D37*G54D38*G54D37*M02*
