M48
INCH
T41C0.012
T40C0.020
%
T41
X006181Y002717
T40
X000354Y003543
X000394Y005492
X000394Y001437
X000689Y007854
X001535Y007677
X001791Y004409
X001949Y000531
X002303Y007087
X002697Y003287
X003445Y006260
X003465Y004764
X003996Y007520
X003996Y003780
X004449Y002244
X004547Y005197
X004547Y004528
X006732Y002874
X006850Y007205
X006870Y006772
X006870Y005531
X006890Y006319
X007087Y002283
X007579Y002283
X008268Y002087
X008465Y001614
X008760Y004547
X010354Y004114
X010787Y001752
X012028Y007067
X012106Y002402
X012264Y004213
X012598Y000453
X012933Y009094
M30
