M48
INCH
T80C0.035
T79C0.020
T78C0.128
T77C0.035
T76C0.022
T75C0.118
T74C0.138
T73C0.035
%
T79
X008740Y006083
X009173Y009272
X009173Y008799
X009173Y008327
X009173Y007854
X009941Y004429
X009941Y003937
X010728Y004596
X011122Y004104
X011319Y005020
X011614Y005906
X011693Y003661
X012402Y006693
X013484Y005089
X013484Y004596
X013484Y004104
X013780Y008169
X013780Y003642
X014409Y008169
X014449Y005374
X014469Y006201
X014469Y004626
X015079Y008091
X015551Y006201
X015709Y008051
X017047Y007303
X025787Y003858
X025787Y003366
X025787Y002283
X025787Y001791
T76
X025689Y008390
X025689Y007390
X025689Y006390
X025689Y005390
T80
X007480Y003150
X018209Y003740
X023720Y008760
T77
X028909Y005508
X028909Y004705
X028909Y003902
X028909Y003098
X029610Y005909
X029610Y005106
X029610Y004303
X029610Y003500
T73
X005157Y012220
X005157Y011220
X005157Y002220
X005157Y001220
X006157Y012220
X006157Y011220
X006157Y002220
X006157Y001220
X007157Y012220
X007157Y011220
X007157Y002220
X007157Y001220
X008157Y012220
X008157Y011220
X008157Y002220
X008157Y001220
X009157Y012220
X009157Y011220
X009157Y002220
X009157Y001220
X010157Y012220
X010157Y011220
X010157Y002220
X010157Y001220
X011157Y012220
X011157Y011220
X011157Y002220
X011157Y001220
X012157Y012220
X012157Y011220
X012157Y002220
X012157Y001220
X013157Y012220
X013157Y011220
X013157Y002220
X013157Y001220
X014157Y012220
X014157Y011220
X014157Y002220
X014157Y001220
X015157Y012220
X015157Y011220
X015157Y002220
X015157Y001220
X016157Y012220
X016157Y011220
X016157Y002220
X016157Y001220
X017157Y012220
X017157Y011220
X017157Y002220
X017157Y001220
X018157Y012220
X018157Y011220
X018157Y002220
X018157Y001220
X019157Y012220
X019157Y011220
X019157Y002220
X019157Y001220
X020157Y012220
X020157Y011220
X020157Y002220
X020157Y001220
X021157Y012220
X021157Y011220
X021157Y002220
X021157Y001220
X022157Y012220
X022157Y011220
X022157Y002220
X022157Y001220
X023157Y012220
X023157Y011220
X023157Y002220
X023157Y001220
X024157Y012220
X024157Y011220
X024157Y002220
X024157Y001220
T75
X028327Y008780
X029508Y010630
T78
X030610Y006909
X030610Y001909
T74
X027067Y010630
M30
